<?xml version="1.0" encoding="UTF-8" standalone="no"?>
<!-- Created with Inkscape (http://www.inkscape.org/) -->

<svg
   xmlns:dc="http://purl.org/dc/elements/1.1/"
   xmlns:cc="http://creativecommons.org/ns#"
   xmlns:rdf="http://www.w3.org/1999/02/22-rdf-syntax-ns#"
   xmlns:svg="http://www.w3.org/2000/svg"
   xmlns="http://www.w3.org/2000/svg"
   xmlns:sodipodi="http://sodipodi.sourceforge.net/DTD/sodipodi-0.dtd"
   xmlns:inkscape="http://www.inkscape.org/namespaces/inkscape"
   width="210mm"
   height="297mm"
   viewBox="0 0 210 297"
   version="1.1"
   id="svg8"
   inkscape:version="0.92.3 (2405546, 2018-03-11)"
   sodipodi:docname="captured.svg">
  <defs
     id="defs2" />
  <sodipodi:namedview
     id="base"
     pagecolor="#ffffff"
     bordercolor="#666666"
     borderopacity="1.0"
     inkscape:pageopacity="0.0"
     inkscape:pageshadow="2"
     inkscape:zoom="0.98994949"
     inkscape:cx="519.25361"
     inkscape:cy="623.88296"
     inkscape:document-units="mm"
     inkscape:current-layer="layer1"
     showgrid="false"
     inkscape:object-paths="true"
     inkscape:window-width="1920"
     inkscape:window-height="1137"
     inkscape:window-x="-8"
     inkscape:window-y="-8"
     inkscape:window-maximized="1" />
  <metadata
     id="metadata5">
    <rdf:RDF>
      <cc:Work
         rdf:about="">
        <dc:format>image/svg+xml</dc:format>
        <dc:type
           rdf:resource="http://purl.org/dc/dcmitype/StillImage" />
        <dc:title></dc:title>
      </cc:Work>
    </rdf:RDF>
  </metadata>
  <g
     inkscape:label="Layer 1"
     inkscape:groupmode="layer"
     id="layer1"
     style="display:inline">
    <path
       style="stroke-width:2.85714293"
       d=""
       id="path3728"
       inkscape:connector-curvature="0"
       transform="scale(0.26458333)" />
    <g
       id="g3743"
       transform="matrix(0.16604353,0,0,0.16604353,88.089393,153.29004)">
      <rect
         y="-205.3287"
         x="-497.17096"
         height="484.18582"
         width="1199.4507"
         id="rect3734"
         style="display:inline;fill:#00ffff;stroke-width:0.26458332" />
      <path
         sodipodi:nodetypes="cccccccccccccccccccccccccccscsccccccccccccccccccscscscccsccccccsccccsscccccccccsccccsccsccccsccccccccscccccccccscccsccssccsccscccscccccscccc"
         inkscape:connector-curvature="0"
         id="path3724"
         d="m -179.91667,278.85713 -15.87499,-5.29165 -23.43453,-5.29166 -24.94643,-13.60716 -18.8988,-11.33928 -11.3393,-12.85119 -8.31546,-19.65476 -5.29167,-15.875 v -16.63096 l 7.55952,-16.63095 6.04761,-12.09524 6.04763,-10.58333 9.07143,-12.85119 6.80357,-10.58333 15.875,-14.3631 8.31547,-12.095236 15.875,-19.65476 0.75596,-9.07143 22.67857,-5.291667 12.85119,-17.386903 6.04762,7.559522 11.33928,-4.535713 21.92262,-9.07143 13.60714,-6.047618 8.31548,9.071427 13.60714,11.339288 4.535715,8.315476 c 0,0 6.047621,6.803569 12.095239,6.803569 6.047619,0 9.071428,0.755955 9.071428,0.755955 0,0 3.779763,3.77976 3.023811,8.315475 -0.755954,4.535715 -3.023811,6.80357 -5.291666,9.827382 l -6.803573,9.071427 -4.535715,7.559524 -0.755951,9.827382 12.095239,3.77976 11.339285,-7.55952 3.023809,-10.583337 3.779761,-10.583333 5.291666,-7.559524 18.142857,-5.291666 5.291667,6.04762 2.267858,10.583334 0.755951,6.047618 9.07143,0.755951 9.8273806,-2.267857 4.5357142,-6.80357 1.5119048,-9.07143 v -9.827379 c 0,0 0.7559523,-6.803572 6.8035712,-6.803572 H 17.386905 c 0,0 8.315476,-1.511906 8.315476,1.511906 0,3.023809 -10.583334,9.071427 -10.583334,9.071427 0,0 -8.3154756,0 -3.023809,3.779761 5.291667,3.779763 13.607143,4.535715 13.607143,4.535715 L 34.017857,74.75 42.333333,72.482143 c 0,0 6.047618,5.291666 9.827381,7.559524 3.779761,2.267855 13.607143,2.267855 13.607143,2.267855 l 12.095236,0.755954 6.047621,-7.559524 5.291667,-7.559524 3.77976,-5.291667 3.779764,-10.583333 c 0,0 7.559525,-12.851191 8.315475,-6.803572 0.75595,6.04762 4.53571,11.339287 4.53571,11.339287 L 119.44047,55.095237 127,43.755952 c 0,0 1.5119,-6.047618 6.04762,-2.267857 4.53571,3.779761 8.31547,5.291666 12.85119,6.047618 4.53571,0.755954 3.02381,0 6.04762,0.755954 3.02381,0.755952 6.80357,-0.755954 6.80357,-0.755954 l 15.11905,-6.047618 27.97023,-3.779761 9.07143,8.315476 10.58334,4.535712 2.26785,6.803573 6.04762,-1.511906 6.04762,-6.047618 12.09524,-0.755952 c 0,0 4.53571,1.511903 4.53571,5.291667 0,3.77976 8.31548,5.291666 8.31548,5.291666 l 18.14285,0.755952 3.77976,3.779763 c 0,0 3.77976,0.755952 6.80357,4.535713 3.02382,3.779763 7.55952,3.779763 7.55952,8.315475 0,4.535715 -5.29167,6.803573 -5.29167,6.803573 l 5.29167,6.803572 c 0,0 7.55954,-2.267857 12.85121,0.755952 5.29167,3.023809 13.60712,5.291666 14.36309,7.559524 0.75594,2.267854 3.77976,1.511904 6.04761,4.535714 2.26787,3.02381 13.60715,-1.51191 13.60715,-1.51191 l 3.77976,-2.267853 c 0,0 3.02381,4.535713 4.53572,8.315473 1.51191,3.77977 0.75594,3.02381 1.51191,7.55953 0.75594,4.53571 -1.51191,3.02381 1.51188,5.29166 3.02382,2.26786 8.31549,-0.75595 8.31549,-0.75595 l 7.55951,-5.29166 c 0,0 10.58334,-9.07143 13.60715,-5.29167 3.02382,3.77976 3.02382,10.58333 3.02382,10.58333 l 3.77976,8.31548 4.53572,-3.77976 c 0,0 2.26785,-5.29167 6.80357,-5.29167 4.53571,0 7.55952,4.53571 7.55952,4.53571 0,0 5.29167,3.77977 2.26786,6.80358 l 4.53571,9.07142 6.04762,2.26786 4.53572,-1.5119 c 0,0 3.02381,-4.53572 6.04762,-3.77976 3.02381,0.75595 5.29166,7.55952 5.29166,7.55952 v 7.55952 l 3.77977,6.80357 c 0,0 0.75595,-0.75595 6.04761,2.26786 5.29167,3.02381 8.31548,4.53572 8.31548,4.53572 0,0 0,-0.75596 6.80357,-3.02381 6.80357,-2.26786 12.09524,-6.80358 12.09524,-6.80358 0,0 7.55952,-9.07142 9.82738,-12.09523 2.26786,-3.02381 5.29167,-9.82738 5.29167,-9.82738 l 9.82738,-9.82739 c 0,0 4.53571,-2.26785 8.31547,-2.26785 3.77977,0 7.55953,-6.04762 12.09524,1.5119 4.53572,7.55953 3.77976,9.07143 8.31548,9.82738 4.53571,0.75596 6.80357,0.75596 6.80357,0.75596 0,0 3.02381,3.77976 9.07143,0.75595 6.04762,-3.02381 9.07143,-6.04762 9.07143,-6.04762 0,0 10.58333,-3.02381 15.11905,-4.53572 4.53571,-1.5119 9.07142,-3.77976 14.36309,-3.77976 h 17.38691 15.11904 11.33929 c 0,0 7.55952,-1.5119 12.85119,-0.75595 5.29167,0.75595 10.58333,12.85119 14.36309,15.11905 3.77977,2.26786 12.85119,2.26786 12.85119,2.26786 l 6.04762,-4.53572 6.80358,-9.82738 c 0,0 3.77976,3.77976 6.80357,8.31548 3.02381,4.53571 4.53571,9.82738 8.31547,10.58333 3.77976,0.75595 5.29167,0.75595 5.29167,0.75595 h 0.75595 v 136.82738 z"
         style="fill:#ff0000;stroke:#000000;stroke-width:0.26458332px;stroke-linecap:butt;stroke-linejoin:miter;stroke-opacity:1" />
    </g>
  </g>
  <g
     inkscape:groupmode="layer"
     id="layer2"
     inkscape:label="Layer 2"
     style="display:inline" />
</svg>
