<?xml version="1.0" encoding="UTF-8" standalone="no"?>
<!-- Created with Inkscape (http://www.inkscape.org/) -->

<svg
   version="1.1"
   id="svg2"
   width="1893"
   height="1024"
   viewBox="0 0 1893 1024"
   sodipodi:docname="frame_0012.svg"
   inkscape:version="1.1.2 (0a00cf5339, 2022-02-04)"
   xmlns:inkscape="http://www.inkscape.org/namespaces/inkscape"
   xmlns:sodipodi="http://sodipodi.sourceforge.net/DTD/sodipodi-0.dtd"
   xmlns:xlink="http://www.w3.org/1999/xlink"
   xmlns="http://www.w3.org/2000/svg"
   xmlns:svg="http://www.w3.org/2000/svg">
  <sodipodi:namedview
     id="namedview8"
     pagecolor="#ffffff"
     bordercolor="#666666"
     borderopacity="1.0"
     inkscape:pageshadow="2"
     inkscape:pageopacity="0.0"
     inkscape:pagecheckerboard="0"
     showgrid="false"
     inkscape:zoom="3.7652595"
     inkscape:cx="832.08075"
     inkscape:cy="131.06666"
     inkscape:window-width="1850"
     inkscape:window-height="1016"
     inkscape:window-x="70"
     inkscape:window-y="27"
     inkscape:window-maximized="1"
     inkscape:current-layer="g8" />
  <defs
     id="defs6" />
  <g
     id="g8">
    
    <path
       style="fill:none;stroke:#c86487;stroke-width:1px;stroke-linecap:butt;stroke-linejoin:miter;stroke-opacity:1"
       d="m 1160.0821,862.6692 -524.83699,-0.0738"
       id="path860"
       sodipodi:nodetypes="cc" />
    <path
       style="fill:none;stroke:#c86487;stroke-width:1px;stroke-linecap:butt;stroke-linejoin:miter;stroke-opacity:1"
       d="m 635.24511,862.59538 c -18.33124,-43.91051 -41.39981,-83.36312 -47.35115,-130.57275 -8.83275,-70.06672 -3.50026,-141.52181 11.49368,-210.533 10.41808,-47.95032 25.44312,-94.79273 42.22104,-140.90424 8.02667,-22.06005 16.46717,-43.99494 23.13087,-66.50424 4.46339,-15.07688 8.27883,-30.73669 17.17778,-43.69982 1.62759,-2.37092 3.41508,-4.63371 4.93089,-7.07761 1.51582,-2.4439 2.7671,-5.10657 3.18935,-7.95122 0.4798,-3.23231 -0.13299,-6.53348 -1.06395,-9.66579 -0.93096,-3.13231 -2.1801,-6.16651 -3.02103,-9.32418 -1.19386,-4.4829 -1.5485,-9.15118 -2.6484,-13.65805 -1.43773,-5.89113 -4.15152,-11.54281 -4.39328,-17.60202 -0.15801,-3.96016 0.76697,-7.9181 2.33962,-11.55604 1.57264,-3.63794 3.77976,-6.97316 6.23584,-10.08371 6.47257,-8.19733 14.65052,-14.86453 22.9092,-21.25863 8.95475,-6.93302 18.11005,-13.64415 27.86041,-19.40477 4.98656,-2.94611 10.19342,-5.66672 15.83069,-6.99582 5.63728,-1.32911 11.79551,-1.16293 16.95357,1.47141 4.70578,2.40336 8.18329,6.59794 11.94467,10.30908 4.73762,4.67433 10.07727,8.69385 14.97206,13.20333 6.09108,5.6116 11.45932,11.94941 16.96715,18.13448 4.43114,4.97599 8.96189,9.86267 13.38391,14.84677 6.56963,7.4047 12.90017,15.02542 19.69987,22.21942 1.4392,1.52265 2.96287,3.06931 4.91423,3.83217 0.97568,0.38143 2.04731,0.55095 3.08183,0.386 1.03452,-0.16495 2.02702,-0.68058 2.68166,-1.49843 0.7093,-0.88614 0.9807,-2.06329 0.94446,-3.19776 -0.0362,-1.13448 -0.35622,-2.24021 -0.7241,-3.314 -2.01593,-5.88423 -5.5176,-11.16639 -9.5481,-15.90381 -4.03051,-4.73743 -8.60227,-8.97893 -13.07417,-13.30215 -10.38311,-10.0379 -20.32093,-20.62127 -28.60265,-32.45264 -9.47337,-13.53378 -17.03516,-28.96759 -30.13027,-39.03865 -2.36929,-1.82215 -4.89353,-3.44382 -7.17424,-5.37569 -2.39308,-2.02705 -4.56862,-4.50294 -5.40974,-7.52424 -0.63643,-2.286064 -0.4529,-4.77451 0.41244,-6.984108 0.86534,-2.209597 2.39491,-4.138457 4.28487,-5.573443 3.59512,-2.729657 8.32616,-3.603883 12.8319,-3.331402 4.60059,0.278217 9.18566,1.707468 12.88699,4.453918 3.98329,2.955672 6.73864,7.231121 10.05119,10.922949 5.08113,5.662896 11.54317,10.015576 16.25495,15.989306 3.31825,4.20697 2.79679,15.59538 6.92079,19.0162 2.54313,2.1095 8.62485,-2.87125 11.89723,-2.41402 3.70114,0.51714 8.28272,-2.37173 11.73675,-3.79845 3.45403,-1.42671 5.80646,-1.36875 8.7064,-3.72591 5.79988,-4.71432 10.82468,-10.44128 17.21637,-14.31552 6.56614,-3.97998 14.18515,-5.77114 21.63478,-7.63055 16.74943,-4.180606 33.43404,-9.022243 48.99804,-16.491015 17.29051,-8.29728 32.88604,-19.682331 49.39108,-29.449133 21.29061,-12.598643 44.22531,-22.583968 64.00721,-37.43972 1.0843,-0.814255 2.1701,-1.649743 3.4052,-2.209216 1.2352,-0.559474 2.6555,-0.825067 3.9577,-0.446941 0.7523,0.218466 1.4365,0.644083 2.0053,1.182757 0.5689,0.538674 1.0256,1.188291 1.3919,1.880799 0.7326,1.385016 1.1043,2.926137 1.5415,4.43074 4.1841,14.398819 14.5985,26.052191 21.4274,39.401275 10.8201,21.150837 12.2932,45.769514 19.95,68.259614 4.8214,14.16169 12.0593,27.36855 17.683,41.23122 10.2226,25.19933 14.9834,52.21015 20.2049,78.89804 4.5689,23.35215 9.5415,46.64125 12.976,70.18698 3.9578,27.13334 5.8619,54.53277 9.7371,81.67803 4.2294,29.62614 10.8213,59.46947 7.2817,89.18591 -0.3907,3.28003 -0.9075,6.55923 -1.8852,9.71444 -0.9777,3.15521 -2.4321,6.19559 -4.5509,8.72971 -3.3924,4.05735 -8.2924,6.61531 -11.7654,10.60392 -3.2642,3.74882 -5.0857,8.57763 -5.9628,13.47043 -0.8772,4.89279 -0.8695,9.89539 -0.8624,14.86618 0.1533,106.894 4.1335,206.91958 1.3493,313.77743"
       id="path916"
       sodipodi:nodetypes="csssssssssssssssssssssssssssssssssssssssssssssssssssssssssssssssscc" />
  </g>
</svg>
