<?xml version="1.0" encoding="UTF-8" standalone="no"?>
<!-- Created with Inkscape (http://www.inkscape.org/) -->

<svg
   version="1.1"
   id="svg2"
   width="1893"
   height="1024"
   viewBox="0 0 1893 1024"
   sodipodi:docname="frame_0077.svg"
   inkscape:version="1.1.2 (0a00cf5339, 2022-02-04)"
   xmlns:inkscape="http://www.inkscape.org/namespaces/inkscape"
   xmlns:sodipodi="http://sodipodi.sourceforge.net/DTD/sodipodi-0.dtd"
   xmlns:xlink="http://www.w3.org/1999/xlink"
   xmlns="http://www.w3.org/2000/svg"
   xmlns:svg="http://www.w3.org/2000/svg">
  <defs
     id="defs6">
    <inkscape:path-effect
       effect="spiro"
       id="path-effect899"
       is_visible="true"
       lpeversion="1" />
    <inkscape:path-effect
       effect="spiro"
       id="path-effect862"
       is_visible="true"
       lpeversion="1" />
  </defs>
  <sodipodi:namedview
     id="namedview4"
     pagecolor="#ffffff"
     bordercolor="#666666"
     borderopacity="1.0"
     inkscape:pageshadow="2"
     inkscape:pageopacity="0.0"
     inkscape:pagecheckerboard="0"
     showgrid="false"
     inkscape:zoom="1.340729"
     inkscape:cx="891.30615"
     inkscape:cy="291.25946"
     inkscape:window-width="1850"
     inkscape:window-height="1016"
     inkscape:window-x="70"
     inkscape:window-y="27"
     inkscape:window-maximized="1"
     inkscape:current-layer="g8" />
  <g
     inkscape:groupmode="layer"
     inkscape:label="Image"
     id="g8">
    
    <path
       style="font-variation-settings:normal;opacity:1;vector-effect:none;fill:none;fill-opacity:1;stroke:#c86487;stroke-width:1px;stroke-linecap:butt;stroke-linejoin:miter;stroke-miterlimit:4;stroke-dasharray:none;stroke-dashoffset:0;stroke-opacity:1;-inkscape-stroke:none;stop-color:#000000;stop-opacity:1"
       d="M 1161.1959,862.62357 635.53142,862.9076"
       id="path860"
       inkscape:path-effect="#path-effect862"
       inkscape:original-d="M 1161.1959,862.62357 635.53142,862.9076" />
    <path
       style="font-variation-settings:normal;opacity:1;vector-effect:none;fill:none;fill-opacity:1;stroke:#c86487;stroke-width:1px;stroke-linecap:butt;stroke-linejoin:miter;stroke-miterlimit:4;stroke-dasharray:none;stroke-dashoffset:0;stroke-opacity:1;-inkscape-stroke:none;stop-color:#000000;stop-opacity:1"
       d="M 635.53142,862.9076 C 596.45775,796.80864 581.0893,717.02073 592.8148,641.13703 c 5.19353,-33.6109 15.45681,-66.19197 23.83042,-99.15479 8.00953,-31.52963 14.30559,-63.48255 22.7039,-94.91086 2.03219,-7.60491 4.19831,-15.20873 7.41397,-22.39371 5.9281,-13.24561 15.22986,-24.66319 22.4823,-37.23262 14.69101,-25.46144 20.58975,-54.86239 29.47824,-82.88212 5.06818,-15.97675 11.1842,-31.72296 13.97007,-48.25118 2.11894,-12.57139 2.27207,-25.37697 3.04607,-38.10217 0.774,-12.7252 2.21224,-25.57831 6.74533,-37.49389 4.43977,-11.67029 11.74138,-22.10108 20.28073,-31.21079 9.51089,-10.14614 20.60078,-18.76534 32.5566,-25.86884 6.15731,-3.65834 12.667,-6.96289 19.71086,-8.25901 3.52193,-0.64806 7.15498,-0.78048 10.68764,-0.1937 3.53265,0.58678 6.96369,1.90575 9.86953,3.99862 5.04949,3.63679 8.18193,9.28565 11.31508,14.66217 14.49133,24.86733 32.37484,47.73913 52.86833,67.94803 3.24262,3.19759 6.57238,6.35456 9.19512,10.07752 1.20489,1.71033 2.25174,3.52842 3.47255,5.22743 1.22082,1.699 2.64049,3.29767 4.41975,4.39823 1.26476,0.78232 2.71813,1.30126 4.20521,1.31698 1.48708,0.0157 3.00505,-0.50435 4.05551,-1.55706 1.03694,-1.03915 1.55482,-2.53332 1.54922,-4.00132 -0.006,-1.46801 -0.50383,-2.90691 -1.26401,-4.16278 -1.52036,-2.51173 -3.99273,-4.26278 -6.26004,-6.12815 -13.36787,-10.99802 -20.94317,-27.52196 -33.02181,-39.92207 -6.26924,-6.43609 -13.7067,-11.71079 -19.50809,-18.57158 -2.9007,-3.4304 -5.38197,-7.26818 -6.87503,-11.50522 -1.49305,-4.23703 -1.96026,-8.89793 -0.87941,-13.25837 0.96511,-3.89354 3.11202,-7.42289 4.00525,-11.33355 0.39289,-1.72013 0.53577,-3.51528 0.23053,-5.2531 -0.30523,-1.73782 -1.07886,-3.41798 -2.33701,-4.65502 -1.19762,-1.17753 -2.78511,-1.90968 -4.42756,-2.26072 -1.64245,-0.35104 -3.34385,-0.339031 -5.01545,-0.17582 -3.34319,0.32642 -6.65251,1.25051 -10.00507,1.0412 -4.42211,-0.27608 -8.58213,-2.566237 -11.60382,-5.806714 -3.19234,-3.423477 -5.22014,-7.982672 -5.31413,-12.662669 -0.094,-4.679998 1.82718,-9.425248 5.35573,-12.501044 2.9565,-2.577146 6.87323,-3.896921 10.78705,-4.151108 3.91382,-0.254187 7.83727,0.498657 11.57634,1.682705 10.18891,3.226518 19.25771,9.711174 25.93111,18.059233 3.25357,4.070036 5.97853,8.622784 7.51748,13.600991 0.61983,2.005036 1.04627,4.085276 1.05081,6.183926 0.005,2.09866 -0.42701,4.22196 -1.4389,6.06056 -1.29091,2.34556 -3.42657,4.08896 -5.13815,6.14775 -0.85579,1.0294 -1.61636,2.15753 -2.07393,3.41557 -0.45757,1.25803 -0.59657,2.65906 -0.21483,3.94214 0.43011,1.44565 1.506,2.65621 2.82167,3.3937 1.31567,0.73749 2.85398,1.02484 4.36143,0.97497 3.0149,-0.0997 5.81814,-1.47628 8.54637,-2.76325 5.93618,-2.80023 12.0073,-5.30266 18.02474,-7.92373 21.57712,-9.39852 42.45181,-20.316665 63.45416,-30.937647 33.51331,-16.947826 67.41784,-33.171537 100.14164,-51.597741 18.2178,-10.258158 36.0504,-21.188291 54.255,-31.4698917 1.5481,-0.8743402 3.1182,-1.7520517 4.8322,-2.2245888 1.714,-0.4725371 3.6127,-0.5068044 5.2104,0.273193 1.2584,0.6143454 2.2534,1.7018892 2.8862,2.9511039 0.6329,1.2492148 0.9198,2.6535859 0.9778,4.0527466 0.1158,2.798321 -0.6541,5.546446 -1.0811,8.314425 -1.0567,6.850239 3e-4,13.892616 2.0628,20.509924 2.0624,6.617308 5.1069,12.878749 8.1219,19.119925 12.8012,26.499117 25.3254,53.276041 33.7786,81.464991 6.2863,20.96292 10.2682,42.53268 14.6035,63.98416 4.9703,24.59309 10.4192,49.08885 15.2114,73.71726 7.0684,36.32656 12.7181,73.08196 13.1468,110.08733 0.4024,34.7398 -3.689,70.39315 6.6705,103.55481 1.3681,4.3795 2.9932,8.7372 3.3954,13.30776 0.2011,2.28528 0.088,4.61331 -0.5127,6.82737 -0.6007,2.21405 -1.7035,4.31297 -3.3188,5.94201 -1.7382,1.75296 -3.9805,2.89463 -6.0468,4.24544 -6.6104,4.32153 -11.4775,10.85136 -15.4391,17.68354 -9.6313,16.61027 -14.6228,35.57087 -17.0632,54.61576 -2.4403,19.04489 -2.4279,38.30596 -2.6646,57.5051 -0.8732,70.81204 -5.1895,141.58151 -12.9286,211.97479"
       id="path897"
       inkscape:path-effect="#path-effect899"
       inkscape:original-d="M 635.53142,862.9076 C 621.29355,788.98508 607.05467,715.06155 592.8148,641.13703 c -14.23988,-73.92452 15.88795,-66.10219 23.83042,-99.15479 7.94248,-33.05259 15.13693,-63.27291 22.7039,-94.91086 7.56697,-31.63795 4.94365,-14.92814 7.41397,-22.39371 2.47033,-7.46557 14.9892,-24.82075 22.4823,-37.23262 7.4931,-12.41187 19.65316,-55.25375 29.47824,-82.88212 9.82507,-27.62837 9.31438,-32.16645 13.97007,-48.25118 4.6557,-16.08473 6.5286,-50.39637 9.7914,-75.59606 3.2628,-25.19968 13.52149,-20.80619 20.28073,-31.21079 6.75924,-10.4046 21.7054,-17.24489 32.5566,-25.86884 10.8512,-8.62395 26.84635,-2.96839 40.26803,-4.45409 13.42168,-1.4857 7.54438,9.77578 11.31508,14.66217 3.77069,4.88639 35.24655,45.29969 52.86833,67.94803 17.62177,22.64835 6.13108,6.71935 9.19512,10.07752 3.06404,3.35818 5.26253,6.4181 7.8923,9.62566 2.62977,3.20755 5.50815,-0.15905 8.26072,-0.24008 2.75258,-0.081 -3.98222,-9.52717 -5.97483,-14.29225 -1.99261,-4.76509 -22.01354,-26.61371 -33.02181,-39.92207 -11.00827,-13.30835 -18.17402,-28.88911 -27.26253,-43.33517 -9.08851,-14.44605 2.67117,-7.5547 4.00525,-11.33355 1.33408,-3.77885 -1.40332,-6.60441 -2.10648,-9.90812 -0.70316,-3.303704 -12.96439,-0.92923 -19.44808,-1.39534 -6.48369,-0.46611 -7.73488,-3.870142 -11.60382,-5.806714 -3.86894,-1.936571 0.0287,-16.774809 0.0416,-25.163713 0.0129,-8.388904 14.90992,-1.644602 22.36339,-2.468403 7.45346,-0.823801 17.28841,12.040489 25.93111,18.059233 8.6427,6.018745 5.01265,9.068328 7.51748,13.600991 2.50483,4.532666 -0.25772,8.163996 -0.38809,12.244486 -0.13036,4.0805 -4.95027,9.00464 -7.42691,13.50546 -2.47664,4.50082 10.48731,1.07128 15.72947,1.60542 5.24215,0.53414 12.01749,-5.28149 18.02474,-7.92373 6.00724,-2.64225 42.30378,-20.624099 63.45416,-30.937647 21.15039,-10.313547 66.76204,-34.397494 100.14164,-51.597741 33.3795,-17.200247 36.171,-20.978928 54.255,-31.4698917 18.084,-10.4909639 6.6961,-1.2999305 10.0426,-1.9513958 3.3465,-0.6514652 1.8563,10.2131835 2.7829,15.3182755 0.9267,5.105092 6.7908,26.420899 10.1847,39.629849 3.3939,13.20895 22.5201,54.310991 33.7786,81.464991 11.2585,27.15399 9.7366,42.6571 14.6035,63.98416 4.8668,21.32705 10.1419,49.14584 15.2114,73.71726 5.0695,24.57143 8.7655,73.39255 13.1468,110.08733 4.3813,36.69477 4.448,69.03754 6.6705,103.55481 2.2225,34.51727 -0.2897,17.38576 -0.4361,26.07714 -0.1464,8.69138 -4.0302,2.8313 -6.0468,4.24544 -2.0166,1.41415 -10.2918,11.79003 -15.4391,17.68354 -5.1474,5.89352 -13.1509,74.74824 -19.7278,112.12086 -6.5769,37.37261 -8.6181,141.31753 -12.9286,211.97479" />
  </g>
</svg>
