<?xml version="1.0" encoding="UTF-8" standalone="no"?>
<!-- Created with Inkscape (http://www.inkscape.org/) -->

<svg
   version="1.1"
   id="svg2"
   width="1893"
   height="1024"
   viewBox="0 0 1893 1024"
   sodipodi:docname="frame_0110.svg"
   inkscape:version="1.1.2 (0a00cf5339, 2022-02-04)"
   xmlns:inkscape="http://www.inkscape.org/namespaces/inkscape"
   xmlns:sodipodi="http://sodipodi.sourceforge.net/DTD/sodipodi-0.dtd"
   xmlns:xlink="http://www.w3.org/1999/xlink"
   xmlns="http://www.w3.org/2000/svg"
   xmlns:svg="http://www.w3.org/2000/svg">
  <defs
     id="defs6">
    <inkscape:path-effect
       effect="spiro"
       id="path-effect899"
       is_visible="true"
       lpeversion="1" />
    <inkscape:path-effect
       effect="spiro"
       id="path-effect862"
       is_visible="true"
       lpeversion="1" />
  </defs>
  <sodipodi:namedview
     id="namedview4"
     pagecolor="#ffffff"
     bordercolor="#666666"
     borderopacity="1.0"
     inkscape:pageshadow="2"
     inkscape:pageopacity="0.0"
     inkscape:pagecheckerboard="0"
     showgrid="false"
     inkscape:zoom="1.8960771"
     inkscape:cx="1254.6958"
     inkscape:cy="881.55696"
     inkscape:window-width="1850"
     inkscape:window-height="1016"
     inkscape:window-x="70"
     inkscape:window-y="27"
     inkscape:window-maximized="1"
     inkscape:current-layer="g8" />
  <g
     inkscape:groupmode="layer"
     inkscape:label="Image"
     id="g8">
    
    <path
       style="font-variation-settings:normal;opacity:1;vector-effect:none;fill:none;fill-opacity:1;stroke:#c86487;stroke-width:1px;stroke-linecap:butt;stroke-linejoin:miter;stroke-miterlimit:4;stroke-dasharray:none;stroke-dashoffset:0;stroke-opacity:1;-inkscape-stroke:none;stop-color:#000000;stop-opacity:1"
       d="M 1160.8387,862.30086 H 635.58032"
       id="path860"
       inkscape:path-effect="#path-effect862"
       inkscape:original-d="M 1160.8387,862.30086 H 635.58032" />
    <path
       style="font-variation-settings:normal;opacity:1;vector-effect:none;fill:none;fill-opacity:1;stroke:#c86487;stroke-width:1px;stroke-linecap:butt;stroke-linejoin:miter;stroke-miterlimit:4;stroke-dasharray:none;stroke-dashoffset:0;stroke-opacity:1;-inkscape-stroke:none;stop-color:#000000;stop-opacity:1"
       d="m 635.58032,862.30086 c -9.71102,-45.51102 -16.48988,-91.64749 -20.28059,-138.02839 -4.4821,-54.84037 -4.76761,-110.25523 3.43441,-164.66371 4.43813,-29.44054 11.34799,-58.49068 20.21806,-86.91187 5.52789,-17.7123 11.8148,-35.1796 18.40462,-52.52484 8.87329,-23.35561 18.3134,-46.53156 29.58018,-68.83132 6.0947,-12.06293 12.7278,-23.87843 17.93124,-36.35175 6.1758,-14.80421 10.27111,-30.37308 14.70173,-45.78979 3.73418,-12.99339 7.72035,-25.91917 12.25717,-38.65454 2.91332,-8.17802 6.06385,-16.31256 7.87074,-24.80388 1.8069,-8.49132 2.21824,-17.46303 -0.33642,-25.76008 -1.0498,-3.40956 -2.58194,-6.6526 -3.69539,-10.04191 -1.11345,-3.38931 -1.80412,-7.02741 -1.10006,-10.52477 0.46487,-2.30922 1.52917,-4.4775 2.95073,-6.35574 1.42157,-1.87824 3.19436,-3.47386 5.12527,-4.82301 3.86182,-2.6983 8.31057,-4.40458 12.66391,-6.20539 17.03048,-7.04486 33.2685,-15.89479 50.29752,-22.94317 4.28266,-1.77261 8.65834,-3.44241 13.24509,-4.10953 4.58675,-0.66712 9.44895,-0.26556 13.53383,1.92467 2.93512,1.57375 5.34023,3.99291 7.37459,6.62976 2.03436,2.63684 3.73534,5.51143 5.57908,8.28491 5.58572,8.40245 12.46753,15.85712 18.51505,23.93356 7.79334,10.40796 14.16725,21.80281 20.14671,33.34871 2.40123,4.63659 4.76255,9.33521 7.95091,13.47021 3.18836,4.135 7.30418,7.72264 12.25119,9.39325 1.77926,0.60086 3.6737,0.94732 5.53985,0.73694 1.86616,-0.21038 3.70534,-1.01743 4.93669,-2.43538 0.70534,-0.81223 1.19542,-1.80386 1.45005,-2.84903 0.25463,-1.04517 0.27656,-2.14238 0.10238,-3.20393 -0.34836,-2.12309 -1.46998,-4.06693 -2.92435,-5.65239 -2.90873,-3.17092 -7.00026,-4.92471 -10.63842,-7.22237 -7.16032,-4.52206 -12.69858,-11.30747 -16.69958,-18.77146 -4.10406,-7.65625 -6.73126,-16.13156 -11.75417,-23.219 -4.17,-5.88397 -9.84983,-10.59836 -13.82802,-16.61367 -2.63788,-3.98867 -4.48523,-8.52855 -5.14303,-13.26513 -0.59536,-4.287 -0.21717,-8.64956 0.37669,-12.93677 0.2629,-1.89793 0.56873,-3.80789 0.44698,-5.72007 -0.12176,-1.912177 -0.71482,-3.860761 -2.02919,-5.25492 -0.84879,-0.900309 -1.96094,-1.528103 -3.13864,-1.907576 -1.17771,-0.379474 -2.42184,-0.519542 -3.65905,-0.53646 -2.47444,-0.03384 -4.93955,0.415825 -7.41288,0.334417 -3.41223,-0.112311 -6.812,-1.280481 -9.45305,-3.443979 -2.64106,-2.163499 -4.47818,-5.337094 -4.84988,-8.730873 -0.39511,-3.607524 0.87352,-7.300104 3.13635,-10.137342 2.26284,-2.837237 5.45877,-4.850849 8.89366,-6.022099 6.8698,-2.3425 14.38424,-1.401145 21.53899,-0.180117 3.37488,0.575956 6.76846,1.216494 9.93471,2.51896 3.16624,1.302465 6.12391,3.324399 8.0107,6.181238 1.99904,3.026788 2.65743,6.767299 2.63377,10.394562 -0.0236,3.627262 -0.67885,7.216297 -1.09314,10.819901 -0.44059,3.832372 -0.60697,7.733998 0.076,11.530668 0.683,3.79667 2.266,7.50493 4.9571,10.26883 1.74857,1.79588 3.9509,3.16413 6.36462,3.83986 2.53917,0.71085 5.26103,0.64581 7.82544,0.0322 2.56441,-0.6136 4.97977,-1.76084 7.20789,-3.17087 4.45624,-2.82007 8.16057,-6.65732 12.2362,-10.00398 12.88305,-10.578781 29.1051,-16.00489 44.83372,-21.527027 27.85943,-9.781121 55.49279,-20.574407 81.20539,-35.089216 23.3241,-13.166476 45.0991,-29.403719 70.0318,-39.187837 2.9732,-1.166765 5.9996,-2.2426092 9.1392,-2.8299451 3.1395,-0.5873358 6.4124,-0.6729923 9.5039,0.1295389 4.1851,1.0864099 7.837,3.7569632 10.6772,7.0171222 2.8402,3.260159 4.9333,7.099271 6.7863,11.005897 7.2221,15.226567 11.0692,31.784148 15.5821,48.02119 5.7544,20.704123 12.6592,41.074317 18.4339,61.772787 11.4797,41.14672 18.4432,83.39875 25.1507,125.58696 5.1419,32.34117 10.1508,64.74246 12.6895,97.39128 3.6205,46.56164 2.2002,93.41137 5.9893,139.9596 0.2534,3.1125 0.5298,6.2467 0.1936,9.35133 -0.3363,3.10464 -1.3329,6.2184 -3.3568,8.59658 -1.6935,1.99 -4.0009,3.35436 -6.3486,4.50163 -2.3478,1.14728 -4.7909,2.1208 -7.0021,3.51322 -4.4124,2.77859 -7.6834,7.10966 -9.9466,11.80731 -2.2632,4.69765 -3.5928,9.78285 -4.7974,14.85623 -8.0447,33.88212 -11.0823,68.72066 -14.2612,103.39932 -6.3211,68.95774 -13.2915,137.85597 -20.9098,206.68248"
       id="path897"
       inkscape:path-effect="#path-effect899"
       inkscape:original-d="m 635.58032,862.30086 c -6.7592,-46.00846 -13.51939,-92.01793 -20.28059,-138.02839 -6.76119,-46.01047 2.29061,-109.77481 3.43441,-164.66371 1.14381,-54.8889 13.47971,-57.94025 20.21806,-86.91187 6.73835,-28.97163 12.27074,-35.01556 18.40462,-52.52484 6.13387,-17.50928 19.72112,-45.88655 29.58018,-68.83132 9.85906,-22.94477 11.95516,-24.2335 17.93124,-36.35175 5.97608,-12.11825 9.80215,-30.52553 14.70173,-45.78979 4.89958,-15.26427 8.17245,-25.7687 12.25717,-38.65454 4.08472,-12.88585 5.02388,-33.70831 7.53432,-50.56396 2.51044,-16.85566 -3.19597,-13.71012 -4.79545,-20.56668 -1.59948,-6.85656 13.82761,-11.58843 20.73991,-17.38414 6.9123,-5.79571 33.53268,-15.29444 50.29752,-22.94317 16.76484,-7.64872 17.85362,-1.45557 26.77892,-2.18486 8.92531,-0.72929 8.63678,9.94411 12.95367,14.91467 4.31689,4.97055 12.34437,15.95671 18.51505,23.93356 6.17068,7.97686 13.43214,22.23347 20.14671,33.34871 6.71456,11.11523 13.46907,15.24331 20.2021,22.86346 6.73304,7.62016 6.98536,-1.13129 10.47654,-1.69844 3.49117,-0.56714 -8.00589,-12.61748 -12.01034,-18.92772 -4.00444,-6.31024 -11.13205,-12.51331 -16.69958,-18.77146 -5.56753,-6.25815 -7.83511,-15.47834 -11.75417,-23.219 -3.91905,-7.74067 -9.21768,-11.07478 -13.82802,-16.61367 -4.61034,-5.53889 -3.42769,-8.84242 -5.14303,-13.26513 -1.71534,-4.42271 0.25213,-8.62351 0.37669,-12.93677 0.12456,-4.31325 -1.05381,-7.315659 -1.58221,-10.97499 -0.52841,-3.659331 -9.47272,-1.405413 -14.21057,-2.109619 -4.73786,-0.704206 -9.53429,-8.115568 -14.30293,-12.174852 -4.76864,-4.059283 22.38034,-10.892039 33.569,-16.339558 11.18867,-5.44752 11.96461,5.801132 17.94541,8.700198 5.9808,2.899065 1.02808,14.143975 1.54063,21.214463 0.51254,7.070488 3.35642,14.533998 5.03313,21.799498 1.67671,7.2655 4.24408,2.5609 6.36462,3.83986 2.12054,1.27895 18.18069,-8.76076 27.26953,-13.14264 9.08885,-4.38189 29.89015,-14.350353 44.83372,-21.527027 14.94357,-7.176674 54.13789,-23.391811 81.20539,-35.089216 27.0675,-11.697406 46.6889,-26.124225 70.0318,-39.187837 23.343,-13.0636124 12.4297,-1.7992708 18.6431,-2.7004062 6.2133,-0.9011354 11.6433,12.0163462 17.4635,18.0230192 5.8201,6.006673 10.389,32.015127 15.5821,48.02119 5.193,16.006063 12.2903,41.182857 18.4339,61.772787 6.1437,20.58993 16.7682,83.72564 25.1507,125.58696 8.3826,41.86132 8.4607,64.92852 12.6895,97.39128 4.2288,32.46276 3.9939,93.3074 5.9893,139.9596 1.9955,46.65221 -2.1078,11.96627 -3.1632,17.94791 -1.0555,5.98163 -8.8995,5.34423 -13.3507,8.01485 -4.4512,2.67062 -9.8283,17.77669 -14.744,26.66354 -4.9157,8.88684 -9.5065,68.93388 -14.2612,103.39932 -4.7547,34.46545 -13.9389,137.78932 -20.9098,206.68248" />
  </g>
</svg>
