<?xml version="1.0" encoding="UTF-8" standalone="no"?>
<!-- Created with Inkscape (http://www.inkscape.org/) -->

<svg
   version="1.1"
   id="svg2"
   width="1893"
   height="1024"
   viewBox="0 0 1893 1024"
   sodipodi:docname="frame_0124.svg"
   inkscape:version="1.1.2 (0a00cf5339, 2022-02-04)"
   xmlns:inkscape="http://www.inkscape.org/namespaces/inkscape"
   xmlns:sodipodi="http://sodipodi.sourceforge.net/DTD/sodipodi-0.dtd"
   xmlns:xlink="http://www.w3.org/1999/xlink"
   xmlns="http://www.w3.org/2000/svg"
   xmlns:svg="http://www.w3.org/2000/svg">
  <defs
     id="defs6">
    <inkscape:path-effect
       effect="spiro"
       id="path-effect866"
       is_visible="true"
       lpeversion="1" />
    <inkscape:path-effect
       effect="spiro"
       id="path-effect862"
       is_visible="true"
       lpeversion="1" />
  </defs>
  <sodipodi:namedview
     id="namedview4"
     pagecolor="#ffffff"
     bordercolor="#666666"
     borderopacity="1.0"
     inkscape:pageshadow="2"
     inkscape:pageopacity="0.0"
     inkscape:pagecheckerboard="0"
     showgrid="false"
     inkscape:zoom="1.8960771"
     inkscape:cx="1162.9274"
     inkscape:cy="791.89816"
     inkscape:window-width="1850"
     inkscape:window-height="1016"
     inkscape:window-x="70"
     inkscape:window-y="27"
     inkscape:window-maximized="1"
     inkscape:current-layer="g8" />
  <g
     inkscape:groupmode="layer"
     inkscape:label="Image"
     id="g8">
    
    <path
       style="font-variation-settings:normal;opacity:1;vector-effect:none;fill:none;fill-opacity:1;stroke:#c86487;stroke-width:1px;stroke-linecap:butt;stroke-linejoin:miter;stroke-miterlimit:4;stroke-dasharray:none;stroke-dashoffset:0;stroke-opacity:1;-inkscape-stroke:none;stop-color:#000000;stop-opacity:1"
       d="M 636.72275,863.24175 H 1160.5845"
       id="path860"
       inkscape:path-effect="#path-effect862"
       inkscape:original-d="m 636.72275,863.24175 c 174.62157,10e-4 349.24214,10e-4 523.86175,0" />
    <path
       style="font-variation-settings:normal;opacity:1;vector-effect:none;fill:none;fill-opacity:1;stroke:#c86487;stroke-width:1px;stroke-linecap:butt;stroke-linejoin:miter;stroke-miterlimit:4;stroke-dasharray:none;stroke-dashoffset:0;stroke-opacity:1;-inkscape-stroke:none;stop-color:#000000;stop-opacity:1"
       d="m 636.72275,863.24175 c -3.42312,-73.46493 -8.19076,-146.86721 -14.29972,-220.15769 -3.52175,-42.25111 -7.35739,-85.79346 5.44352,-126.21246 4.74678,-14.98801 11.70519,-29.23102 15.95008,-44.36883 4.31493,-15.38758 5.74808,-31.41265 8.5845,-47.14005 2.83642,-15.72739 7.27488,-31.59434 16.72537,-44.48172 4.89632,-6.67698 10.99585,-12.35749 16.74566,-18.31532 5.74982,-5.95783 11.26043,-12.35309 14.61386,-19.92347 4.69567,-10.60048 4.79111,-22.57205 6.83507,-33.9844 2.69568,-15.0512 8.82164,-29.23152 14.5642,-43.40291 5.7236,-14.12461 11.12149,-28.42124 14.93114,-43.17762 2.81398,-10.89973 4.7603,-22.17369 3.82268,-33.39168 -0.47651,-5.70112 -1.69217,-11.31808 -2.25043,-17.01178 -0.55825,-5.6937 -0.42659,-11.59925 1.69249,-16.91333 1.95009,-4.8903 5.51138,-9.0374 9.72721,-12.19091 4.21584,-3.1535 9.07335,-5.36154 14.06179,-7.04479 14.48818,-4.88876 30.44321,-5.58562 43.91392,-12.82077 4.28283,-2.30032 8.22845,-5.22404 12.65554,-7.23276 2.21355,-1.00437 4.5494,-1.77568 6.96163,-2.07508 2.41224,-0.2994 4.90755,-0.11414 7.18391,0.73833 2.84032,1.06367 5.22428,3.11718 7.13105,5.4758 1.90678,2.35861 3.3812,5.03022 4.85687,7.67998 3.93827,7.07166 7.97196,14.1178 12.80563,20.61041 6.97852,9.37359 15.56297,17.51037 22.05207,27.22919 4.17601,6.25448 7.4514,13.11779 12.13431,19.00234 3.80727,4.78422 8.46233,8.81616 12.61984,13.29937 1.05317,1.13568 2.08389,2.30912 3.32593,3.23446 1.24205,0.92535 2.73612,1.59646 4.28468,1.56644 1.19196,-0.0231 2.36315,-0.4688 3.30371,-1.20136 0.94056,-0.73256 1.65221,-1.74332 2.07748,-2.85707 0.69331,-1.81576 0.62096,-3.87451 -0.004,-5.71502 -0.62464,-1.84052 -1.77425,-3.47306 -3.15201,-4.84398 -2.75552,-2.74185 -6.34782,-4.43969 -9.65117,-6.48872 -6.95292,-4.31282 -12.82012,-10.38427 -16.80279,-17.53142 -4.3858,-7.87058 -6.44539,-16.85566 -10.71391,-24.79045 -4.90032,-9.10925 -12.51607,-16.48295 -17.84308,-25.34943 -1.16512,-1.93928 -2.22315,-3.95818 -2.91742,-6.11138 -0.69426,-2.15321 -1.01585,-4.45372 -0.69099,-6.69264 0.46704,-3.21876 2.22723,-6.12924 2.78491,-9.33354 0.46816,-2.689942 0.0243,-5.581461 -1.48385,-7.857499 -1.01103,-1.525768 -2.46546,-2.735015 -4.09786,-3.56292 -1.63239,-0.827904 -3.43883,-1.283825 -5.26108,-1.455745 -3.6445,-0.343842 -7.2948,0.427005 -10.8559,1.275004 -1.1609,0.276442 -2.33322,0.563286 -3.52658,0.563608 -1.19336,3.21e-4 -2.43011,-0.315691 -3.31918,-1.111715 -0.67484,-0.604214 -1.10897,-1.455948 -1.26465,-2.348275 -0.15568,-0.892327 -0.0417,-1.821582 0.26429,-2.674151 0.61192,-1.705139 1.94581,-3.056732 3.39528,-4.143455 3.97802,-2.982466 9.01204,-4.32695 13.98139,-4.485915 4.96935,-0.158966 9.90986,0.799335 14.7207,2.054554 6.52335,1.702039 12.94576,3.979198 18.74182,7.422551 1.9788,1.175576 3.9104,2.512767 5.33553,4.320153 0.71257,0.903693 1.2907,1.920327 1.64096,3.016562 0.35025,1.096235 0.4683,2.273686 0.27838,3.408736 -0.30807,1.841133 -1.3982,3.465185 -2.67347,4.828407 -1.27527,1.36321 -2.75239,2.52257 -4.06613,3.84876 -1.43103,1.4446 -2.67482,3.10465 -3.4458,4.98622 -0.77098,1.88156 -1.04779,3.99867 -0.56182,5.97314 0.61033,2.47978 2.41965,4.59476 4.69118,5.76181 2.27152,1.16706 4.96137,1.41844 7.46036,0.89225 3.41659,-0.7194 6.36904,-2.77745 9.33093,-4.62619 5.9704,-3.72658 12.34268,-6.75511 18.58166,-10.01213 9.94612,-5.1923 19.59532,-10.987692 29.86996,-15.495141 16.65787,-7.307751 34.63344,-11.091182 51.68969,-17.413535 13.30699,-4.932591 26.02249,-11.403771 38.04209,-18.949283 10.5477,-6.621475 20.5631,-14.066637 31.1646,-20.601651 13.9603,-8.605492 28.962,-15.624807 44.7552,-20.042822 4.202,-1.175468 8.5095,-2.172389 12.8723,-2.104593 4.3628,0.0678 8.8293,1.288027 12.1534,4.114518 3.4059,2.896112 5.2994,7.147877 7.0262,11.271731 5.4009,12.898329 10.2411,26.025217 15.6056,38.938716 6.4103,15.430942 13.5823,30.592557 18.5341,46.55142 6.0788,19.5909 8.7113,40.04979 12.3069,60.24452 4.7918,26.91313 11.324,53.48087 17.0525,80.2103 8.1764,38.15183 14.729,76.74526 16.9892,115.69789 1.3318,22.95141 1.17,45.96213 1.9751,68.93805 0.6409,18.29206 1.8947,36.55988 3.5713,54.78622 0.5719,6.2171 1.1936,12.46494 0.7521,18.69266 -0.4415,6.22771 -2.0084,12.50085 -5.4817,17.68885 -2.9083,4.34405 -7.0118,7.73886 -11.2041,10.86195 -4.1923,3.12309 -8.56,6.06268 -12.2519,9.76387 -6.8324,6.84951 -10.9953,15.99133 -13.3444,25.37635 -2.3492,9.38501 -3.0074,19.09767 -3.6997,28.74742 -1.1345,15.81315 -2.3852,31.61782 -3.7095,47.4162 -5.9123,70.5291 -13.2935,140.93507 -22.1372,211.15686"
       id="path864"
       inkscape:path-effect="#path-effect866"
       inkscape:original-d="m 636.72275,863.24175 c -4.76557,-73.3849 -9.53215,-146.77079 -14.29972,-220.15769 -4.76757,-73.3869 3.63001,-84.14064 5.44352,-126.21246 1.8135,-42.07182 10.63438,-29.57822 15.95008,-44.36883 5.31569,-14.79061 16.87425,-61.08018 25.30987,-91.62177 8.43563,-30.54159 20.90735,-25.49153 31.35952,-38.23879 10.45218,-12.74726 4.55771,-22.65527 6.83507,-33.9844 2.27735,-11.32913 9.71046,-28.93428 14.5642,-43.40291 4.85373,-14.46864 9.95509,-28.78408 14.93114,-43.17762 4.97605,-14.39354 2.54946,-22.26012 3.82268,-33.39168 1.27323,-11.13156 -0.37096,-22.61574 -0.55794,-33.92511 -0.18698,-11.30937 15.86033,-12.8228 23.789,-19.2357 7.92866,-6.41291 29.27695,-8.54618 43.91392,-12.82077 14.63698,-4.27459 17.86839,-5.71201 26.80108,-8.56951 8.9327,-2.8575 7.99294,8.77152 11.98792,13.15578 3.99497,4.38426 8.53808,13.74127 12.80563,20.61041 4.26754,6.86913 14.70238,18.15379 22.05207,27.22919 7.3497,9.0754 8.09054,12.66923 12.13431,19.00234 4.04377,6.33312 8.41422,8.86725 12.61984,13.29937 4.20561,4.43212 5.07474,3.2016 7.61061,4.8009 2.53587,1.5993 3.58846,-2.70462 5.38119,-4.05843 1.79273,-1.35381 -8.53691,-11.36415 -12.80686,-17.04772 -4.26996,-5.68357 -11.20086,-11.68661 -16.80279,-17.53142 -5.60193,-5.8448 -7.14161,-16.52596 -10.71391,-24.79045 -3.57231,-8.26448 -11.89439,-16.89862 -17.84308,-25.34943 -5.94869,-8.45082 -2.40461,-8.53502 -3.60841,-12.80402 -1.20381,-4.26901 1.8576,-6.22136 2.78491,-9.33354 0.9273,-3.112182 -0.98824,-5.237334 -1.48385,-7.857499 -0.49562,-2.620166 -13.47556,-2.494774 -20.21484,-3.743661 -6.73928,-1.248886 -4.56284,-0.364404 -6.84576,-0.548107 -2.28292,-0.183702 1.59761,-6.109588 2.39492,-9.165881 0.7973,-3.056294 19.13573,-1.619908 28.70209,-2.431361 9.56637,-0.811454 12.49555,4.949367 18.74182,7.422551 6.24628,2.473184 4.83758,7.164634 7.25487,10.745451 2.41729,3.580817 -4.49207,5.785777 -6.7396,8.677167 -2.24754,2.89139 -2.67075,7.30724 -4.00762,10.95936 -1.33687,3.65211 8.10203,4.43704 12.15154,6.65406 4.04951,2.21702 6.22162,-3.08313 9.33093,-4.62619 3.10931,-1.54307 12.38877,-6.67376 18.58166,-10.01213 6.19288,-3.33838 19.9143,-10.329095 29.86996,-15.495141 9.95565,-5.166045 34.4608,-11.608023 51.68969,-17.413535 17.22889,-5.805512 25.36239,-12.631856 38.04209,-18.949283 12.6797,-6.317428 20.7774,-13.733434 31.1646,-20.601651 10.3872,-6.868217 29.8378,-13.360882 44.7552,-20.042822 14.9174,-6.6819411 16.6848,1.34095 25.0257,2.009925 8.3409,0.668976 4.6851,7.515487 7.0262,11.271731 2.341,3.756243 10.4047,25.960144 15.6056,38.938716 5.2009,12.978573 12.3571,31.035278 18.5341,46.55142 6.177,15.51614 8.2056,40.16401 12.3069,60.24452 4.1013,20.08051 11.3694,53.47453 17.0525,80.2103 5.6832,26.73576 11.3272,77.13293 16.9892,115.69789 5.6621,38.56496 1.3178,45.9597 1.9751,68.93805 0.6574,22.97834 2.3819,36.52514 3.5713,54.78622 1.1895,18.26107 -3.152,24.25534 -4.7296,36.38151 -1.5775,12.12617 -15.6363,13.75155 -23.456,20.62582 -7.8197,6.87428 -11.3617,36.08351 -17.0441,54.12377 -5.6824,18.04025 -2.472,31.6118 -3.7095,47.4162 -1.2376,15.80441 -14.7571,140.77224 -22.1372,211.15686" />
  </g>
</svg>
