<?xml version="1.0" encoding="UTF-8" standalone="no"?>
<!-- Created with Inkscape (http://www.inkscape.org/) -->

<svg
   version="1.1"
   id="svg2"
   width="1893"
   height="1024"
   viewBox="0 0 1893 1024"
   sodipodi:docname="frame_0098.svg"
   inkscape:version="1.1.2 (0a00cf5339, 2022-02-04)"
   xmlns:inkscape="http://www.inkscape.org/namespaces/inkscape"
   xmlns:sodipodi="http://sodipodi.sourceforge.net/DTD/sodipodi-0.dtd"
   xmlns:xlink="http://www.w3.org/1999/xlink"
   xmlns="http://www.w3.org/2000/svg"
   xmlns:svg="http://www.w3.org/2000/svg">
  <defs
     id="defs6">
    <inkscape:path-effect
       effect="spiro"
       id="path-effect899"
       is_visible="true"
       lpeversion="1" />
    <inkscape:path-effect
       effect="spiro"
       id="path-effect862"
       is_visible="true"
       lpeversion="1" />
  </defs>
  <sodipodi:namedview
     id="namedview4"
     pagecolor="#ffffff"
     bordercolor="#666666"
     borderopacity="1.0"
     inkscape:pageshadow="2"
     inkscape:pageopacity="0.0"
     inkscape:pagecheckerboard="0"
     showgrid="false"
     inkscape:zoom="2.681458"
     inkscape:cx="1217.2482"
     inkscape:cy="823.99202"
     inkscape:window-width="1850"
     inkscape:window-height="1016"
     inkscape:window-x="70"
     inkscape:window-y="27"
     inkscape:window-maximized="1"
     inkscape:current-layer="g8" />
  <g
     inkscape:groupmode="layer"
     inkscape:label="Image"
     id="g8">
    
    <path
       style="font-variation-settings:normal;opacity:1;vector-effect:none;fill:none;fill-opacity:1;stroke:#c86487;stroke-width:1px;stroke-linecap:butt;stroke-linejoin:miter;stroke-miterlimit:4;stroke-dasharray:none;stroke-dashoffset:0;stroke-opacity:1;-inkscape-stroke:none;stop-color:#000000;stop-opacity:1"
       d="m 1160.3024,862.8312 -524.29488,0.29645"
       id="path860"
       inkscape:path-effect="#path-effect862"
       inkscape:original-d="m 1160.3024,862.8312 -524.29488,0.29645" />
    <path
       style="font-variation-settings:normal;opacity:1;vector-effect:none;fill:none;fill-opacity:1;stroke:#c86487;stroke-width:1px;stroke-linecap:butt;stroke-linejoin:miter;stroke-miterlimit:4;stroke-dasharray:none;stroke-dashoffset:0;stroke-opacity:1;-inkscape-stroke:none;stop-color:#000000;stop-opacity:1"
       d="m 636.00752,863.12765 c 9.77889,-34.75074 9.57975,-72.24906 -0.56767,-106.89398 -8.03997,-27.44975 -22.1265,-53.02299 -28.03924,-81.00815 -5.13688,-24.31303 -3.88706,-49.60668 0.27877,-74.10479 4.16583,-24.4981 11.19028,-48.40149 17.62486,-72.40373 6.70586,-25.01417 12.79579,-50.23293 21.29729,-74.69518 13.35752,-38.43498 32.51011,-74.56032 48.3691,-112.03249 5.22431,-12.34419 10.09209,-24.83717 14.74763,-37.40691 7.53087,-20.33296 14.50734,-40.86888 21.0994,-61.52531 4.60739,-14.4374 9.07665,-29.31043 8.23763,-44.44194 -0.46435,-8.3744 -2.55347,-16.6182 -2.67311,-25.00461 -0.11694,-8.19729 1.8048,-16.66833 6.84642,-23.13295 3.92676,-5.03509 9.4798,-8.55276 15.20775,-11.37447 5.72795,-2.82172 11.74299,-5.05144 17.35815,-8.09142 8.97946,-4.86136 16.80277,-11.72216 26.01403,-16.12854 4.60563,-2.20319 9.57656,-3.77631 14.67705,-4.00172 5.1005,-0.22542 10.3466,0.96699 14.5336,3.88844 4.4074,3.07523 7.34116,7.77817 10.36626,12.22012 7.54745,11.0824 16.36572,21.27865 23.53549,32.60905 10.74918,16.98695 17.97933,36.73033 32.85072,50.25597 0.61227,0.55686 1.25649,1.11371 2.03681,1.38952 0.56743,0.20056 1.18785,0.24127 1.78036,0.13576 0.59251,-0.1055 1.15661,-0.35525 1.64482,-0.70717 0.97643,-0.70384 1.62865,-1.80117 1.9292,-2.9667 0.30054,-1.16554 0.26958,-2.39721 0.0647,-3.58331 -0.20487,-1.1861 -0.5792,-2.33549 -0.96239,-3.47653 -2.65559,-7.9077 -5.82538,-15.70651 -10.37222,-22.70009 -5.08753,-7.82522 -11.77064,-14.45524 -18.17997,-21.24034 -6.40934,-6.78509 -12.67733,-13.91025 -16.67865,-22.34272 -3.93512,-8.29296 -5.50443,-17.9409 -3.03032,-26.78042 0.45695,-1.6326 1.04802,-3.23417 1.32493,-4.90674 0.27692,-1.67257 0.21513,-3.464024 -0.57907,-4.961832 -0.65465,-1.234621 -1.77287,-2.188633 -3.03641,-2.785553 -1.26354,-0.596921 -2.66739,-0.854262 -4.06387,-0.906331 -2.79295,-0.10414 -5.55258,0.587122 -8.34287,0.747344 -2.72504,0.156475 -5.48882,-0.202558 -8.05002,-1.146275 -2.5612,-0.943717 -4.91483,-2.479055 -6.73686,-4.511438 -1.82202,-2.032383 -3.10041,-4.565142 -3.55543,-7.25648 -0.45501,-2.691339 -0.0706,-5.533301 1.17142,-7.963879 1.06272,-2.079677 2.71994,-3.820443 4.62034,-5.177992 1.90039,-1.35755 4.04185,-2.347225 6.23852,-3.140365 4.39334,-1.586281 9.05141,-2.416294 13.33188,-4.285867 3.06757,-1.33982 5.96445,-3.218994 9.26215,-3.793694 1.64886,-0.287351 3.38748,-0.226085 4.94102,0.396651 1.55354,0.622736 2.90176,1.847614 3.46992,3.421933 0.41096,1.138734 0.40156,2.398845 0.14054,3.580992 -0.26101,1.182148 -0.76287,2.297434 -1.32095,3.371748 -1.11615,2.14863 -2.5005,4.263738 -2.73523,6.673575 -0.19719,2.024516 0.46291,4.071434 1.56915,5.778412 1.10625,1.706978 2.63627,3.102006 4.27305,4.309688 3.27356,2.415363 7.08305,4.201167 9.76342,7.261531 1.84406,2.105495 3.05073,4.722692 3.70347,7.444383 0.65275,2.721689 0.76878,5.550599 0.59881,8.344299 -0.1758,2.88953 -0.65391,5.7663 -0.58294,8.6603 0.071,2.894 0.75436,5.89083 2.61658,8.10722 1.68614,2.00683 4.2296,3.19859 6.83385,3.49576 2.60425,0.29717 5.26002,-0.25186 7.66676,-1.29014 4.81348,-2.07657 8.56047,-5.96284 12.44373,-9.48449 12.83686,-11.64146 28.31714,-20.039482 44.34481,-26.629038 13.31182,-5.472972 27.1205,-9.78412 40.02253,-16.163439 17.78478,-8.793564 33.42748,-21.303138 50.27278,-31.784666 25.5179,-15.877878 53.8505,-27.08415 83.1479,-33.7874204 2.8099,-0.6429154 5.7203,-1.2472183 8.5538,-0.7178088 1.8695,0.3492873 3.632,1.1886281 5.1527,2.3306602 1.5208,1.142031 2.805,2.581464 3.8649,4.160533 2.1198,3.158139 3.3333,6.825772 4.4275,10.468606 5.7692,19.206658 8.8987,39.090998 13.4034,58.632942 5.4962,23.843661 13.0353,47.158571 19.8227,70.667301 10.6579,36.91468 19.4736,74.35529 26.6398,112.10354 8.5814,45.20303 14.8062,90.94644 16.1395,136.93748 0.8975,30.95797 -0.4223,61.93356 -0.5093,92.90442 -0.012,4.21693 -0,8.45802 -0.7088,12.61544 -1.6445,9.68294 -7.022,18.2524 -12.0684,26.67839 -6.1312,10.23722 -11.9392,20.6849 -16.8874,31.54339 -12.4458,27.3113 -19.2815,56.83086 -24.5237,86.38291 -12.2118,68.84206 -16.1698,139.14443 -11.7622,208.92216"
       id="path897"
       inkscape:path-effect="#path-effect899"
       inkscape:original-d="m 636.00752,863.12765 c -0.18822,-35.63033 -0.37745,-71.26165 -0.56767,-106.89398 -0.19022,-35.63232 -18.69182,-54.00443 -28.03924,-81.00815 -9.34741,-27.00372 11.93675,-97.67135 17.90363,-146.50852 5.96687,-48.83718 14.19919,-49.79579 21.29729,-74.69518 7.09809,-24.8994 32.24706,-74.68733 48.3691,-112.03249 16.12203,-37.34516 9.83275,-24.93694 14.74763,-37.40691 4.91488,-12.46997 14.06727,-41.01587 21.0994,-61.52531 7.03213,-20.50944 5.49275,-29.62696 8.23763,-44.44194 2.74488,-14.81498 -1.78107,-16.66874 -2.67311,-25.00461 -0.89204,-8.33587 4.56528,-15.42097 6.84642,-23.13295 2.28114,-7.71198 21.7116,-12.97626 32.5659,-19.46589 10.8543,-6.48963 36.81745,-10.82688 55.22468,-16.24182 18.40722,-5.41494 6.91184,8.14775 10.36626,12.22012 3.45442,4.07237 15.69132,21.74036 23.53549,32.60905 7.84416,10.86868 21.90148,33.50498 32.85072,50.25597 10.94924,16.75099 1.35887,0.92735 2.03681,1.38952 0.67793,0.46218 2.97213,-7.0643 4.45669,-10.59795 1.48457,-3.53365 -6.91382,-15.13239 -10.37222,-22.70009 -3.45841,-7.56769 -23.23808,-29.05437 -34.85862,-43.58306 -11.62054,-14.52869 -2.01921,-17.85261 -3.03032,-26.78042 -1.01111,-8.927808 0.49824,-6.57805 0.74586,-9.868572 0.24762,-3.290523 -10.29443,-1.962027 -15.44315,-2.94454 -5.14871,-0.982513 -11.44626,-13.917714 -17.17089,-20.878072 -5.72463,-6.960357 16.12816,-8.401816 24.19074,-12.604224 8.06258,-4.202409 11.78306,0.01759 17.67309,0.02489 5.89003,0.0073 -2.60943,9.08521 -3.91564,13.626315 -1.30622,4.541105 10.40475,11.567421 15.60562,17.349631 5.20087,5.782211 2.86919,10.526792 4.30228,15.788682 1.43309,5.2619 1.35676,11.17935 2.03364,16.76752 0.67688,5.58818 17.96389,-4.85158 26.94434,-7.27887 8.98045,-2.4273 29.56421,-17.751693 44.34481,-26.629038 14.78061,-8.877344 26.68269,-10.774626 40.02253,-16.163439 13.33988,-5.388813 33.51618,-21.188777 50.27278,-31.784666 16.7566,-10.595889 55.4329,-22.523947 83.1479,-33.7874204 27.7149,-11.2634734 5.7035,-0.4775392 8.5538,-0.7178088 2.8503,-0.2402696 8.9644,11.3075332 13.4451,16.9597992 4.4807,5.652267 8.9366,39.089628 13.4034,58.632942 4.4668,19.543311 13.2161,47.112531 19.8227,70.667301 6.6066,23.55476 17.7608,74.7367 26.6398,112.10354 8.8789,37.36685 10.7606,91.29265 16.1395,136.93748 5.3788,45.64482 -0.3385,61.93728 -0.5093,92.90442 -0.1707,30.96715 -0.4715,8.41129 -0.7088,12.61544 -0.2373,4.20414 -8.0446,17.78659 -12.0684,26.67839 -4.0238,8.8918 -11.2573,21.02993 -16.8874,31.54339 -5.6302,10.51346 -16.3481,57.58961 -24.5237,86.38291 -8.1756,28.7933 -7.8405,139.28244 -11.7622,208.92216" />
  </g>
</svg>
