<?xml version="1.0" encoding="UTF-8" standalone="no"?>
<!-- Created with Inkscape (http://www.inkscape.org/) -->

<svg
   version="1.1"
   id="svg2"
   width="1893"
   height="1024"
   viewBox="0 0 1893 1024"
   sodipodi:docname="frame_0106.svg"
   inkscape:version="1.1.2 (0a00cf5339, 2022-02-04)"
   xmlns:inkscape="http://www.inkscape.org/namespaces/inkscape"
   xmlns:sodipodi="http://sodipodi.sourceforge.net/DTD/sodipodi-0.dtd"
   xmlns:xlink="http://www.w3.org/1999/xlink"
   xmlns="http://www.w3.org/2000/svg"
   xmlns:svg="http://www.w3.org/2000/svg">
  <defs
     id="defs6">
    <inkscape:path-effect
       effect="spiro"
       id="path-effect899"
       is_visible="true"
       lpeversion="1" />
    <inkscape:path-effect
       effect="spiro"
       id="path-effect862"
       is_visible="true"
       lpeversion="1" />
  </defs>
  <sodipodi:namedview
     id="namedview4"
     pagecolor="#ffffff"
     bordercolor="#666666"
     borderopacity="1.0"
     inkscape:pageshadow="2"
     inkscape:pageopacity="0.0"
     inkscape:pagecheckerboard="0"
     showgrid="false"
     inkscape:zoom="1.340729"
     inkscape:cx="1186.6678"
     inkscape:cy="230.0987"
     inkscape:window-width="1850"
     inkscape:window-height="1016"
     inkscape:window-x="70"
     inkscape:window-y="27"
     inkscape:window-maximized="1"
     inkscape:current-layer="g8" />
  <g
     inkscape:groupmode="layer"
     inkscape:label="Image"
     id="g8">
    
    <path
       style="font-variation-settings:normal;opacity:1;vector-effect:none;fill:none;fill-opacity:1;stroke:#c86487;stroke-width:1px;stroke-linecap:butt;stroke-linejoin:miter;stroke-miterlimit:4;stroke-dasharray:none;stroke-dashoffset:0;stroke-opacity:1;-inkscape-stroke:none;stop-color:#000000;stop-opacity:1"
       d="M 1160.5965,863.44646 635.56637,862.31769"
       id="path860"
       inkscape:path-effect="#path-effect862"
       inkscape:original-d="M 1160.5965,863.44646 635.56637,862.31769" />
    <path
       style="font-variation-settings:normal;opacity:1;vector-effect:none;fill:none;fill-opacity:1;stroke:#c86487;stroke-width:1px;stroke-linecap:butt;stroke-linejoin:miter;stroke-miterlimit:4;stroke-dasharray:none;stroke-dashoffset:0;stroke-opacity:1;-inkscape-stroke:none;stop-color:#000000;stop-opacity:1"
       d="m 635.56637,862.31769 c -5.52794,-48.07337 -10.3522,-96.22766 -14.47072,-144.44224 -5.08531,-59.53263 -9.04651,-120.00963 2.63865,-178.60529 6.92032,-34.70218 19.2036,-68.05957 30.10903,-101.72266 4.35875,-13.45468 8.53088,-27.04842 14.87756,-39.68752 6.97955,-13.89944 16.47872,-26.41853 23.40645,-40.34387 7.00392,-14.07849 11.25254,-29.32876 16.12213,-44.28021 4.53022,-13.90947 9.62466,-27.62722 14.62348,-41.37524 6.37315,-17.52778 12.62664,-35.24171 15.44633,-53.6778 2.26936,-14.83786 2.27848,-29.91997 2.1094,-44.92942 -0.0486,-4.31628 -0.11063,-8.64969 0.44032,-12.93093 0.55095,-4.28125 1.74166,-8.54074 4.03091,-12.20024 3.19126,-5.10143 8.3309,-8.73345 13.81412,-11.21198 5.48323,-2.47852 11.36581,-3.91786 17.16328,-5.52974 13.85793,-3.85294 27.41404,-8.75673 41.34307,-12.34414 4.00621,-1.0318 8.06874,-1.95792 12.20183,-2.13666 4.13309,-0.17873 8.37141,0.4242 12.05245,2.31213 3.87018,1.98493 6.93277,5.28694 9.32302,8.9208 2.39026,3.63385 4.1726,7.62497 6.05689,11.54513 4.88915,10.17164 10.52335,19.97012 16.45612,29.57056 4.35013,7.0394 8.86296,13.97677 13.39841,20.89822 2.18445,3.33365 4.37717,6.66862 6.27816,10.17166 1.00929,1.85987 1.95819,3.79742 3.4396,5.30844 0.7407,0.75551 1.61285,1.3948 2.59536,1.78737 0.98251,0.39257 2.07963,0.52951 3.11238,0.2996 1.2257,-0.27287 2.31011,-1.05648 3.04553,-2.0743 0.73542,-1.01782 1.13464,-2.25653 1.24523,-3.50735 0.22116,-2.50166 -0.66907,-4.96265 -1.69604,-7.25449 -1.94632,-4.3435 -4.42782,-8.42257 -6.64319,-12.63521 -2.51817,-4.78844 -4.69219,-9.74912 -6.81577,-14.72513 -2.48152,-5.81474 -4.94262,-11.73559 -8.83206,-16.7197 -3.76007,-4.81834 -8.69464,-8.55572 -13.22542,-12.65773 -0.93075,-0.84267 -1.84931,-1.70585 -2.64074,-2.68055 -0.79143,-0.97469 -1.45611,-2.06862 -1.8226,-3.26948 -0.66705,-2.18566 -0.30384,-4.5547 0.32613,-6.75133 0.62998,-2.19663 1.52176,-4.32496 1.92606,-6.5741 0.86568,-4.81581 -0.56054,-9.70334 -1.58221,-14.48849 -0.31371,-1.46933 -0.591,-2.95017 -1.04375,-4.38277 -0.45275,-1.432603 -1.09036,-2.826757 -2.0525,-3.980716 -1.31086,-1.572199 -3.18004,-2.627554 -5.16158,-3.141019 -1.98154,-0.513465 -4.07252,-0.50802 -6.09525,-0.193792 -2.64513,0.410917 -5.18834,1.337414 -7.83096,1.764177 -1.32131,0.213382 -2.67161,0.300326 -3.99926,0.130809 -1.32765,-0.169517 -2.63516,-0.603584 -3.73411,-1.367582 -1.61665,-1.123909 -2.70704,-2.935282 -3.07915,-4.868744 -0.37212,-1.933462 -0.0507,-3.971911 0.77204,-5.760711 0.82277,-1.788799 2.1303,-3.333257 3.67313,-4.556541 1.54283,-1.223284 3.31716,-2.134178 5.1647,-2.814876 4.02376,-1.482495 8.40137,-1.883181 12.67121,-1.487082 4.26984,0.396099 8.44107,1.571284 12.42742,3.151623 6.97709,2.765983 13.41177,6.764593 19.4211,11.261091 2.14981,1.608601 4.32394,3.374201 5.45673,5.80855 0.91544,1.967275 1.06527,4.220782 0.80352,6.374773 -0.26175,2.154 -0.9141,4.23832 -1.54776,6.31358 -0.92894,3.04232 -1.83409,6.19303 -1.49539,9.35593 0.18492,1.72687 0.7819,3.47282 2.01919,4.69158 0.92217,0.90837 2.15538,1.47137 3.43268,1.68119 1.27731,0.20983 2.59672,0.0788 3.84273,-0.27188 2.49202,-0.70138 4.65075,-2.23832 6.76507,-3.73223 10.9212,-7.71657 22.15696,-15.02084 33.96272,-21.30113 17.32604,-9.21691 35.7707,-16.170525 54.45518,-22.173305 21.43367,-6.886002 43.44027,-12.629314 63.31427,-23.204777 16.7565,-8.916525 31.5473,-21.033794 46.9417,-32.137598 6.7185,-4.845995 13.8623,-9.6318223 22.0351,-10.9838849 3.4565,-0.5718318 7.045,-0.4980839 10.4157,0.4574656 3.3707,0.9555496 6.5146,2.8178423 8.7925,5.4797643 2.5705,3.003793 3.9374,6.867762 4.689,10.749134 0.7516,3.881371 0.9399,7.847561 1.4574,11.76703 2.042,15.46701 9.108,29.732059 15.1176,44.129391 7.3562,17.623514 13.2407,35.83725 18.2013,54.27891 8.6947,32.32405 14.5555,65.32851 20.9357,98.18785 5.2484,27.03054 10.8581,54.01028 14.7197,81.27351 4.651,32.83639 6.7518,65.98837 7.8099,99.13563 0.5167,16.1876 0.7898,32.43194 3.1286,48.45803 1.1538,7.90606 2.8092,15.74994 3.4315,23.71547 0.6223,7.96553 0.1681,16.16856 -2.7661,23.60006 -2.9304,7.42178 -8.1554,13.67256 -13.3613,19.7198 -5.9518,6.91368 -12.0365,13.80993 -16.5585,21.73291 -4.0679,7.12722 -6.7866,14.94472 -9.013,22.84334 -7.8026,27.68199 -9.7594,56.61837 -11.9788,85.29323 -5.2774,68.18604 -12.268,136.23948 -20.963,204.07447"
       id="path897"
       inkscape:path-effect="#path-effect899"
       inkscape:original-d="m 635.56637,862.31769 c -4.82257,-48.14641 -9.64615,-96.29382 -14.47072,-144.44224 -4.82458,-48.14841 1.7601,-119.0692 2.63865,-178.60529 0.87855,-59.5361 20.07368,-67.81411 30.10903,-101.72266 10.03534,-33.90855 9.33918,-18.83104 14.87756,-39.68752 5.53837,-20.85648 16.18549,-34.52122 23.40645,-40.34387 7.22097,-5.82265 13.27025,-30.70521 16.12213,-44.28021 2.85188,-13.57499 7.22882,-26.39642 14.62348,-41.37524 7.39465,-14.97882 10.29855,-35.7842 15.44633,-53.6778 5.14778,-17.8936 1.40726,-29.95195 2.1094,-44.92942 0.70213,-14.97747 2.98182,-16.75311 4.47123,-25.13117 1.48942,-8.37805 20.6526,-11.16014 30.9774,-16.74172 10.3248,-5.58157 27.56305,-8.22843 41.34307,-12.34414 13.78002,-4.11572 16.17052,0.11798 24.25428,0.17547 8.08375,0.0575 10.25427,13.64495 15.37991,20.46593 5.12563,6.82098 10.97175,19.71471 16.45612,29.57056 5.48438,9.85585 8.93328,13.93314 13.39841,20.89822 4.46514,6.96507 4.18644,6.7821 6.27816,10.17166 2.09172,3.38955 6.09923,4.93127 9.14734,7.39541 3.04811,2.46414 1.73081,-8.55643 2.59472,-12.83614 0.86391,-4.27972 -4.42779,-8.42248 -6.64319,-12.63521 -2.2154,-4.21274 -4.54284,-9.81576 -6.81577,-14.72513 -2.27292,-4.90938 -5.88704,-11.14547 -8.83206,-16.7197 -2.94502,-5.57424 -8.81595,-8.43749 -13.22542,-12.65773 -4.40947,-4.22025 -2.97456,-3.96569 -4.46334,-5.95003 -1.48878,-1.98434 1.50246,-8.88262 2.25219,-13.32543 0.74973,-4.44282 -1.05381,-9.65799 -1.58221,-14.48849 -0.52841,-4.830493 -2.06317,-5.574657 -3.09625,-8.363486 -1.03308,-2.78883 -7.50355,-2.222208 -11.25683,-3.334811 -3.75327,-1.112604 -10.37522,0.352603 -15.56433,0.527404 -5.18911,0.174802 4.35482,-11.999581 6.53072,-18.000872 2.17591,-6.001291 16.73342,1.110694 25.09863,1.664541 8.36521,0.553847 12.9484,7.508394 19.4211,11.261091 6.47271,3.752697 3.63882,3.873367 5.45673,5.80855 1.81791,1.935183 -0.49516,8.459903 -0.74424,12.688353 -0.24908,4.22846 -0.99593,6.23829 -1.49539,9.35593 -0.49947,3.11765 1.34713,3.12872 2.01919,4.69158 0.67207,1.56287 9.36132,-1.54761 14.04048,-2.32292 4.67916,-0.77531 22.64281,-14.19975 33.96272,-21.30113 11.3199,-7.101376 36.30445,-14.781203 54.45518,-22.173305 18.15077,-7.392102 42.21057,-15.468851 63.31427,-23.204777 21.1038,-7.735926 31.2955,-21.424065 46.9417,-32.137598 15.6463,-10.713532 14.6911,-7.32159 22.0351,-10.9838849 7.344,-3.6622952 12.8065,3.9591529 19.2082,5.9372299 6.4017,1.978077 4.0986,15.011776 6.1464,22.516164 2.0478,7.504388 10.0794,29.420594 15.1176,44.129391 5.0382,14.708797 12.1352,36.18694 18.2013,54.27891 6.0661,18.09196 13.9581,65.45957 20.9357,98.18785 6.9775,32.72829 9.8141,54.18334 14.7197,81.27351 4.9056,27.09016 5.2076,66.09142 7.8099,99.13563 2.6023,33.04421 2.0868,32.30635 3.1286,48.45803 1.0419,16.15167 0.4446,31.54469 0.6654,47.31553 0.2208,15.77084 -8.9066,13.14753 -13.3613,19.7198 -4.4548,6.57226 -11.038,14.48961 -16.5585,21.73291 -5.5205,7.2433 -6.0077,15.2299 -9.013,22.84334 -3.0054,7.61345 -7.9849,56.86315 -11.9788,85.29323 -3.9939,28.43007 -13.9743,136.05065 -20.963,204.07447"
       sodipodi:nodetypes="csssssssssssssssssssssssssssssssssssssssssssssssssssssssc" />
  </g>
</svg>
