<?xml version="1.0" encoding="UTF-8" standalone="no"?>
<!-- Created with Inkscape (http://www.inkscape.org/) -->

<svg
   version="1.1"
   id="svg2"
   width="1893"
   height="1024"
   viewBox="0 0 1893 1024"
   sodipodi:docname="frame_0145.svg"
   inkscape:version="1.1.2 (0a00cf5339, 2022-02-04)"
   xmlns:inkscape="http://www.inkscape.org/namespaces/inkscape"
   xmlns:sodipodi="http://sodipodi.sourceforge.net/DTD/sodipodi-0.dtd"
   xmlns:xlink="http://www.w3.org/1999/xlink"
   xmlns="http://www.w3.org/2000/svg"
   xmlns:svg="http://www.w3.org/2000/svg">
  <defs
     id="defs6">
    <inkscape:path-effect
       effect="spiro"
       id="path-effect899"
       is_visible="true"
       lpeversion="1" />
    <inkscape:path-effect
       effect="spiro"
       id="path-effect862"
       is_visible="true"
       lpeversion="1" />
  </defs>
  <sodipodi:namedview
     id="namedview4"
     pagecolor="#ffffff"
     bordercolor="#666666"
     borderopacity="1.0"
     inkscape:pageshadow="2"
     inkscape:pageopacity="0.0"
     inkscape:pagecheckerboard="0"
     showgrid="false"
     inkscape:zoom="0.33518225"
     inkscape:cx="1494.7092"
     inkscape:cy="1329.1277"
     inkscape:window-width="1850"
     inkscape:window-height="1016"
     inkscape:window-x="70"
     inkscape:window-y="27"
     inkscape:window-maximized="1"
     inkscape:current-layer="g8" />
  <g
     inkscape:groupmode="layer"
     inkscape:label="Image"
     id="g8">
    
    <path
       style="font-variation-settings:normal;opacity:1;vector-effect:none;fill:none;fill-opacity:1;stroke:#c86487;stroke-width:1px;stroke-linecap:butt;stroke-linejoin:miter;stroke-miterlimit:4;stroke-dasharray:none;stroke-dashoffset:0;stroke-opacity:1;-inkscape-stroke:none;stop-color:#000000;stop-opacity:1"
       d="M 1160.346,862.76841 H 635.48295"
       id="path860"
       inkscape:path-effect="#path-effect862"
       inkscape:original-d="M 1160.346,862.76841 H 635.48295" />
    <path
       style="font-variation-settings:normal;opacity:1;vector-effect:none;fill:none;fill-opacity:1;stroke:#c86487;stroke-width:1px;stroke-linecap:butt;stroke-linejoin:miter;stroke-miterlimit:4;stroke-dasharray:none;stroke-dashoffset:0;stroke-opacity:1;-inkscape-stroke:none;stop-color:#000000;stop-opacity:1"
       d="m 635.48295,862.76841 c -13.71163,-33.45016 -24.21548,-68.21435 -31.32063,-103.66063 -7.55218,-37.67643 -11.24667,-76.64137 -4.81997,-114.52601 5.76233,-33.96825 19.50863,-66.25626 24.42286,-100.35753 2.28534,-15.8586 2.65162,-32.05573 6.73298,-47.54962 4.74084,-17.99745 14.29136,-34.29854 21.31798,-51.53253 6.57442,-16.1249 10.93126,-33.05343 16.5678,-49.52961 3.65544,-10.68522 7.98852,-21.41527 15.41784,-29.92064 3.20822,-3.67289 6.93049,-6.85452 10.43886,-10.24187 3.50837,-3.38735 6.85204,-7.04749 9.0798,-11.38568 4.1086,-8.0008 4.02727,-17.40014 5.58073,-26.25905 2.05143,-11.69866 7.02761,-22.645 10.79376,-33.90925 5.06587,-15.15161 7.98402,-31.0267 14.17755,-45.75336 3.7076,-8.81573 8.58858,-17.2253 10.80291,-26.52907 1.60087,-6.72624 1.75138,-13.69951 2.54612,-20.56781 0.36158,-3.12486 0.85818,-6.2424 0.92396,-9.38742 0.0658,-3.14503 -0.31874,-6.35589 -1.64139,-9.21003 -0.88189,-1.90303 -2.15319,-3.5934 -3.29684,-5.35162 -1.14364,-1.75823 -2.18375,-3.64556 -2.51359,-5.71691 -0.24623,-1.54625 -0.0822,-3.14528 0.38465,-4.63979 0.46683,-1.49452 1.23088,-2.88708 2.16641,-4.14258 1.87107,-2.511 4.39192,-4.45252 6.9327,-6.28295 8.11639,-5.8472 16.77245,-10.90186 25.49527,-15.79859 15.26775,-8.57086 30.82366,-16.70547 47.09028,-23.18319 3.93951,-1.5688 8.01022,-3.05807 12.24923,-3.16611 2.1195,-0.054 4.26263,0.24736 6.23238,1.03177 1.96975,0.78441 3.76106,2.06556 5.01964,3.77178 1.18635,1.6083 1.86567,3.52817 2.45331,5.43835 0.58763,1.91017 1.10658,3.85882 2.0276,5.63246 1.65732,3.19156 4.48179,5.58057 6.97112,8.17595 7.091,7.39308 11.67651,16.76693 17.34641,25.29877 11.86983,17.86126 28.74146,32.37244 38.12987,51.65392 0.57879,1.18869 1.16475,2.44005 2.21346,3.24515 0.78911,0.60581 1.77837,0.90254 2.76599,1.02217 0.98762,0.11963 1.98658,0.074 2.98135,0.0623 1.14492,-0.0134 2.3249,0.0123 3.38939,-0.40942 0.53225,-0.21087 1.02674,-0.53618 1.38557,-0.98227 0.35883,-0.44609 0.57393,-1.01836 0.53901,-1.58979 -0.0362,-0.5923 -0.3334,-1.14381 -0.72092,-1.59321 -0.38752,-0.44939 -0.86397,-0.81145 -1.32956,-1.17936 -10.54558,-8.33311 -16.77418,-20.84181 -22.52374,-32.99058 -5.74956,-12.14876 -11.63767,-24.7481 -21.77858,-33.5692 -3.56873,-3.10427 -7.62786,-5.7018 -10.65274,-9.33807 -2.98725,-3.59103 -4.83377,-8.1192 -5.19737,-12.77613 -0.22827,-2.92359 0.11242,-5.85699 0.31455,-8.7825 0.20213,-2.92551 0.26004,-5.91112 -0.51411,-8.739577 -0.43226,-1.579301 -1.12603,-3.095738 -2.11631,-4.399722 -1.66758,-2.195831 -4.127,-3.71224 -6.756,-4.543424 -2.62899,-0.831184 -5.42728,-1.012421 -8.18111,-0.87499 -2.71202,0.135344 -5.42408,0.573168 -8.12989,0.345234 -1.3529,-0.113967 -2.70078,-0.397779 -3.94115,-0.949878 -1.24038,-0.5521 -2.37183,-1.381377 -3.18129,-2.471386 -0.6858,-0.923489 -1.12913,-2.020603 -1.31066,-3.15647 -0.18153,-1.135868 -0.1038,-2.308872 0.19348,-3.420076 0.59456,-2.222409 2.05764,-4.157513 3.88797,-5.551252 1.83032,-1.39374 4.01217,-2.273986 6.25014,-2.806949 2.23798,-0.532963 4.54134,-0.73152 6.83799,-0.865691 8.92142,-0.521192 17.99297,-0.07606 26.55979,2.468167 3.75064,1.11389 7.40511,2.636511 10.65743,4.811477 3.25231,2.174966 6.09736,5.024767 7.97653,8.456497 1.13133,2.066022 1.90637,4.337082 2.17481,6.677229 0.26844,2.340146 0.0227,4.749119 -0.80612,6.953963 -0.92812,2.468878 -2.54295,4.606378 -4.03897,6.778628 -0.98292,1.42723 -1.93286,2.90527 -2.474,4.55156 -0.54114,1.6463 -0.64073,3.49753 0.0624,5.08141 0.53652,1.20853 1.51447,2.19446 2.66222,2.85103 1.14774,0.65657 2.45855,0.99686 3.77605,1.10907 2.22251,0.18929 4.4612,-0.25495 6.56982,-0.98236 2.10862,-0.72742 4.1079,-1.73374 6.11402,-2.70886 7.04659,-3.42515 14.25922,-6.49953 21.53649,-9.40253 20.03208,-7.991055 40.7576,-14.78224 59.01539,-26.26241 8.41608,-5.291878 16.2058,-11.521015 24.5187,-16.97357 10.9309,-7.169765 23.0261,-13.061588 36.0006,-14.659707 5.5792,-0.687213 11.251,-0.572495 16.783,-1.570755 11.6602,-2.104099 21.8067,-8.937878 32.1084,-14.79127 5.8047,-3.298189 11.8347,-6.376733 16.7424,-10.902885 2.534,-2.336932 4.7213,-5.018713 7.0727,-7.539222 2.3515,-2.520509 4.9152,-4.9152886 7.9761,-6.5005403 5.0963,-2.6393725 11.4284,-2.7598556 16.6123,-0.297009 3.8535,1.8307606 7.0563,5.0573813 8.7076,8.9910983 1.1722,2.792388 1.5573,5.84511 1.828,8.861419 0.2706,3.01631 0.4422,6.063991 1.2243,8.989692 1.7242,6.450097 6.2218,11.718174 10.0214,17.208109 14.0152,20.249992 19.2549,45.110304 24.3288,69.20894 5.1765,24.58562 10.4987,49.1433 15.1847,73.82709 6.6773,35.17295 12.0581,70.57691 17.535,105.95666 4.394,28.38445 8.8575,56.823 10.2786,85.51036 0.9411,18.99741 0.5439,38.03225 0.7254,57.05209 0.2,20.9547 1.1027,41.89652 1.4759,62.84885 0.037,2.08905 0.069,4.18588 -0.181,6.26028 -0.2497,2.0744 -0.7913,4.13874 -1.8343,5.94917 -1.8062,3.13522 -4.9731,5.27052 -8.2883,6.72025 -3.3151,1.44973 -6.8528,2.31745 -10.2403,3.5889 -4.9917,1.87355 -9.7666,4.73547 -12.943,9.01778 -2.5057,3.37816 -3.8946,7.47547 -4.6255,11.6175 -0.7309,4.14202 -0.8384,8.36466 -1.0073,12.56729 -1.2944,32.2181 -6.286,64.15674 -10.9709,96.05867 -10.0829,68.65941 -18.7823,137.52199 -26.0912,206.53185"
       id="path897"
       inkscape:path-effect="#path-effect899"
       inkscape:original-d="M 635.48295,862.76841 C 625.04374,828.21587 614.60353,793.66232 604.16232,759.10778 593.72111,724.55323 600.95,682.75811 599.34235,644.58177 c -1.60766,-38.17634 16.28291,-66.90402 24.42286,-100.35753 8.13996,-33.45351 4.48966,-31.69874 6.73298,-47.54962 2.24333,-15.85087 14.21299,-34.35402 21.31798,-51.53253 7.10499,-17.17851 11.0462,-33.01874 16.5678,-49.52961 5.52159,-16.51087 10.27956,-19.94609 15.41784,-29.92064 5.13829,-9.97454 13.01344,-14.41736 19.51866,-21.62755 6.50522,-7.21018 3.72148,-17.50503 5.58073,-26.25905 1.85924,-8.75402 7.19684,-22.60517 10.79376,-33.90925 3.59693,-11.30408 9.4527,-30.50124 14.17755,-45.75336 4.72484,-15.25211 7.20294,-17.68505 10.80291,-26.52907 3.59997,-8.84403 1.69841,-13.71087 2.54612,-20.56781 0.8477,-6.85693 -0.47728,-12.3973 -0.71743,-18.59745 -0.24014,-6.20015 -3.87262,-7.37802 -5.81043,-11.06853 -1.93781,-3.69051 6.32351,-10.04254 9.48376,-15.06532 3.16025,-5.02277 16.99785,-10.53139 25.49527,-15.79859 8.49742,-5.2672 31.39452,-15.45446 47.09028,-23.18319 15.69576,-7.728734 15.6685,1.09263 23.50125,1.63744 7.83275,0.54482 2.98827,7.38154 4.48091,11.07081 1.49264,3.68927 4.64841,5.45163 6.97112,8.17595 2.3227,2.72431 11.56527,16.86685 17.34641,25.29877 5.78113,8.43193 25.42091,34.43695 38.12987,51.65392 12.70896,17.21698 1.47664,2.16443 2.21346,3.24515 0.73682,1.08071 3.83256,0.724 5.74734,1.0845 1.91478,0.3605 3.54365,-1.98665 5.31397,-2.98148 1.77032,-0.99483 -1.36598,-1.84738 -2.05048,-2.77257 -0.68449,-0.9252 -29.53388,-44.37219 -44.30232,-66.55978 -14.76845,-22.18759 -7.10083,-6.22438 -10.65274,-9.33807 -3.55192,-3.11369 -3.46392,-8.51642 -5.19737,-12.77613 -1.73346,-4.25971 -0.13204,-11.68039 -0.19956,-17.522077 -0.0675,-5.841692 -1.40987,-2.932148 -2.11631,-4.399722 -0.70644,-1.467574 -9.95707,-3.611276 -14.93711,-5.418414 -4.98004,-1.807138 -10.16722,-2.049687 -15.25233,-3.07603 -5.0851,-1.026344 10.57361,-10.532625 15.85892,-15.800438 5.2853,-5.267812 17.70752,1.646445 26.55979,2.468167 8.85226,0.821722 12.42364,8.846316 18.63396,13.267974 6.21032,4.421658 0.91346,9.088461 1.36869,13.631192 0.45522,4.542728 -2.69165,4.520088 -4.03897,6.778628 -1.34732,2.25854 -1.60672,6.42298 -2.41158,9.63297 -0.80486,3.20999 4.29318,2.64107 6.43827,3.9601 2.14509,1.31903 8.45689,-2.45981 12.68384,-3.69122 4.22695,-1.23141 14.35866,-6.26736 21.53649,-9.40253 7.17782,-3.13518 39.34459,-17.507275 59.01539,-26.26241 19.6708,-8.755135 16.3468,-11.314714 24.5187,-16.97357 8.1719,-5.658857 24.0014,-9.772138 36.0006,-14.659707 11.9993,-4.887569 11.1897,-1.04617 16.783,-1.570755 5.5934,-0.524585 21.4066,-9.859847 32.1084,-14.79127 10.7018,-4.931424 11.1626,-7.26759 16.7424,-10.902885 5.5798,-3.635294 10.0335,-9.358841 15.0488,-14.0397623 5.0152,-4.6809208 11.0758,-0.197006 16.6123,-0.297009 5.5364,-0.100003 5.8061,5.9950653 8.7076,8.9910983 2.9016,2.996033 2.0359,11.901741 3.0523,17.851111 1.0164,5.94937 6.682,11.473073 10.0214,17.208109 3.3395,5.735037 16.2202,46.140295 24.3288,69.20894 8.1086,23.06865 10.1241,49.21906 15.1847,73.82709 5.0605,24.60803 11.691,70.63878 17.535,105.95666 5.8441,35.31789 6.8534,57.00791 10.2786,85.51036 3.4252,28.50245 0.4846,38.03573 0.7254,57.05209 0.2408,19.01636 0.9849,41.90023 1.4759,62.84885 0.491,20.94862 -1.3425,8.14063 -2.0153,12.20945 -0.6727,4.06882 -12.3514,6.87377 -18.5286,10.30915 -6.1772,3.43539 -8.6276,6.01285 -12.943,9.01778 -4.3153,3.00492 -3.7542,16.12419 -5.6328,24.18479 -1.8786,8.06059 -7.313,64.04011 -10.9709,96.05867 -3.658,32.01856 -17.3931,137.6889 -26.0912,206.53185" />
  </g>
</svg>
