<?xml version="1.0" encoding="UTF-8" standalone="no"?>
<!-- Created with Inkscape (http://www.inkscape.org/) -->

<svg
   version="1.1"
   id="svg2"
   width="1893"
   height="1024"
   viewBox="0 0 1893 1024"
   sodipodi:docname="frame_0157.svg"
   inkscape:version="1.1.2 (0a00cf5339, 2022-02-04)"
   xmlns:inkscape="http://www.inkscape.org/namespaces/inkscape"
   xmlns:sodipodi="http://sodipodi.sourceforge.net/DTD/sodipodi-0.dtd"
   xmlns:xlink="http://www.w3.org/1999/xlink"
   xmlns="http://www.w3.org/2000/svg"
   xmlns:svg="http://www.w3.org/2000/svg">
  <defs
     id="defs6">
    <inkscape:path-effect
       effect="spiro"
       id="path-effect866"
       is_visible="true"
       lpeversion="1" />
    <inkscape:path-effect
       effect="spiro"
       id="path-effect862"
       is_visible="true"
       lpeversion="1" />
  </defs>
  <sodipodi:namedview
     id="namedview4"
     pagecolor="#ffffff"
     bordercolor="#666666"
     borderopacity="1.0"
     inkscape:pageshadow="2"
     inkscape:pageopacity="0.0"
     inkscape:pagecheckerboard="0"
     showgrid="false"
     inkscape:zoom="3.7921543"
     inkscape:cx="934.03373"
     inkscape:cy="83.989199"
     inkscape:window-width="1850"
     inkscape:window-height="1016"
     inkscape:window-x="70"
     inkscape:window-y="27"
     inkscape:window-maximized="1"
     inkscape:current-layer="g8" />
  <g
     inkscape:groupmode="layer"
     inkscape:label="Image"
     id="g8">
    
    <path
       style="font-variation-settings:normal;opacity:1;vector-effect:none;fill:none;fill-opacity:1;stroke:#c86487;stroke-width:1px;stroke-linecap:butt;stroke-linejoin:miter;stroke-miterlimit:4;stroke-dasharray:none;stroke-dashoffset:0;stroke-opacity:1;-inkscape-stroke:none;stop-color:#000000;stop-opacity:1"
       d="M 1160.8058,862.94139 H 635.75385"
       id="path860"
       inkscape:path-effect="#path-effect862"
       inkscape:original-d="m 1160.8058,862.94139 c -175.01633,0.001 -350.03364,0.001 -525.05195,0" />
    <path
       style="font-variation-settings:normal;opacity:1;vector-effect:none;fill:none;fill-opacity:1;stroke:#c86487;stroke-width:1px;stroke-linecap:butt;stroke-linejoin:miter;stroke-miterlimit:4;stroke-dasharray:none;stroke-dashoffset:0;stroke-opacity:1;-inkscape-stroke:none;stop-color:#000000;stop-opacity:1"
       d="m 635.75385,862.94139 c 18.01765,-41.48828 20.77923,-89.40455 7.64725,-132.68809 -6.78908,-22.37709 -17.57811,-43.30367 -26.12289,-65.0709 -8.54477,-21.76724 -14.91384,-45.12739 -12.21593,-68.35554 3.09637,-26.65881 17.74284,-50.48612 24.95451,-76.33707 5.57978,-20.00127 6.63384,-40.93451 9.3604,-61.51971 2.72656,-20.5852 7.40086,-41.54056 19.15319,-58.65977 7.17359,-10.44952 16.68413,-19.02672 25.51357,-28.12034 8.82943,-9.09362 17.22778,-19.09722 21.35437,-31.08155 3.63043,-10.54339 3.72546,-21.95091 6.11429,-32.84296 4.20617,-19.17836 15.31647,-36.03598 22.49426,-54.31112 6.7802,-17.26284 10.03109,-35.91547 9.37479,-54.45046 -0.41676,-11.77018 -2.36445,-23.77797 0.61431,-35.17261 1.79169,-6.85374 5.30388,-13.15101 9.40371,-18.92815 11.44994,-16.13432 27.49076,-28.51521 44.52773,-38.573 5.39124,-3.18272 10.97713,-6.1867 17.04217,-7.739249 6.06505,-1.552546 12.71476,-1.548166 18.3697,1.138259 3.37321,1.60247 6.26665,4.09075 8.72755,6.89975 2.4609,2.809 4.51644,5.94499 6.52961,9.09041 6.53615,10.21224 12.73443,20.67011 20.10424,30.29804 12.4337,16.24341 28.15859,30.07603 38.21971,47.88667 0.65741,1.16378 1.32835,2.38653 2.43144,3.14136 1.05655,0.72298 2.46032,0.92134 3.66782,0.49597 0.60375,-0.21269 1.15525,-0.5732 1.58983,-1.04319 0.43458,-0.46999 0.75117,-1.04878 0.90922,-1.66908 0.30181,-1.1845 0.0161,-2.45599 -0.5274,-3.55089 -0.59607,-1.20091 -1.48319,-2.22841 -2.35321,-3.24849 -12.8642,-15.08294 -24.00078,-31.54655 -34.89837,-48.10629 -3.7271,-5.66362 -7.43,-11.34348 -11.05467,-17.0732 -1.15563,-1.82677 -2.30952,-3.67063 -3.11819,-5.67528 -0.80867,-2.00464 -1.26173,-4.1981 -0.958,-6.33826 0.40275,-2.83793 2.07105,-5.30886 3.19923,-7.94386 0.56409,-1.3175 1.00071,-2.71018 1.06016,-4.14213 0.0594,-1.431948 -0.2844,-2.913117 -1.15337,-4.052807 -0.63391,-0.831397 -1.51402,-1.445479 -2.44142,-1.928186 -0.92739,-0.482707 -1.91132,-0.845836 -2.86884,-1.265616 -3.7629,-1.649663 -7.07986,-4.154907 -10.67657,-6.140995 -2.1579,-1.191586 -4.42196,-2.199263 -6.48311,-3.551334 -2.06114,-1.35207 -3.94763,-3.105585 -4.94679,-5.359049 -1.13861,-2.567992 -1.00619,-5.584943 -0.0289,-8.218565 0.97727,-2.633622 2.73989,-4.916149 4.7578,-6.870388 2.59097,-2.509216 5.65551,-4.54904 9.02705,-5.830458 3.37153,-1.281418 7.05205,-1.792049 10.62892,-1.328045 4.45828,0.578343 8.59012,2.620775 12.46286,4.9039 2.61555,1.541965 5.1871,3.232092 7.24749,5.462239 2.57495,2.787107 4.27456,6.418508 4.53916,10.203787 0.10507,1.503053 -0.0111,3.011458 -0.0491,4.517699 -0.038,1.50624 0.005,3.033902 0.41752,4.483043 0.61229,2.150748 1.99081,3.983693 3.11756,5.915289 0.56337,0.965797 1.07087,1.97286 1.38345,3.04638 0.31258,1.073521 0.42435,2.220903 0.19334,3.31488 -0.23557,1.115572 -0.81544,2.13119 -1.49433,3.047222 -0.67888,0.916034 -1.46164,1.749854 -2.17228,2.641474 -0.71065,0.89162 -1.35683,1.85704 -1.70847,2.94163 -0.35164,1.0846 -0.38505,2.30683 0.10103,3.3382 0.29565,0.62731 0.77162,1.16105 1.33096,1.57102 0.55934,0.40996 1.20046,0.69981 1.86379,0.9021 1.32667,0.40459 2.72929,0.46313 4.10832,0.61144 2.69829,0.2902 5.35806,0.9336 8.0692,1.05481 5.45766,0.24401 10.81619,-1.64847 15.61864,-4.25269 4.80246,-2.60423 9.17658,-5.92054 13.79361,-8.840913 15.93756,-10.080834 34.40419,-15.245231 52.53487,-20.432458 22.42299,-6.415272 44.92879,-13.119552 65.70159,-23.723201 7.4531,-3.804475 14.6486,-8.094384 22.0635,-11.972672 14.4069,-7.535371 29.9443,-13.724662 41.6287,-25.030269 2.5936,-2.509549 4.9669,-5.246455 7.6639,-7.644486 2.6971,-2.3980308 5.7844,-4.4790043 9.2818,-5.3694922 2.8157,-0.7169283 5.8082,-0.6292038 8.6287,0.068683 2.8205,0.6978865 5.474,1.9927002 7.8738,3.630747 4.4071,3.0081294 7.9648,7.1634174 10.6442,11.7777474 2.6794,4.61433 4.5063,9.685068 5.82,14.856641 2.5853,10.177194 3.2383,20.841549 6.7414,30.740429 3.6965,10.445363 10.3864,19.537553 15.2202,29.507688 5.5419,11.430636 8.5856,23.889306 11.3037,36.298346 6.5425,29.86889 11.4212,60.07211 16.6451,90.19959 7.8545,45.29851 16.5119,90.58745 19.4876,136.46547 1.9324,29.79366 1.4572,59.6826 1.6399,89.5383 0.098,16.08682 0.3939,32.24038 2.9788,48.11847 0.6988,4.29221 1.5668,8.58994 1.5252,12.93845 -0.042,4.34852 -1.0795,8.83585 -3.8053,12.22428 -2.0023,2.48901 -4.7815,4.23279 -7.6376,5.66353 -4.9024,2.45581 -10.1578,4.1173 -15.2133,6.24002 -5.0555,2.12272 -10.0201,4.78978 -13.7153,8.84068 -3.3458,3.66795 -5.4866,8.30863 -6.789,13.09949 -1.3024,4.79086 -1.8083,9.75853 -2.2152,14.70656 -2.2852,27.79093 -1.5951,55.7282 -2.1014,83.60833 -1.2779,70.36301 -10.2161,140.58431 -26.6058,209.02379"
       id="path864"
       inkscape:path-effect="#path-effect866"
       inkscape:original-d="m 635.75385,862.94139 c 2.55008,-44.22836 5.09916,-88.45773 7.64725,-132.68809 2.54808,-44.23037 -25.55822,-88.94996 -38.33882,-133.42644 -12.78061,-44.47648 16.63734,-50.89038 24.95451,-76.33707 8.31717,-25.44669 19.01006,-80.11865 28.51359,-120.17948 9.50353,-40.06083 31.24629,-39.46692 46.86794,-59.20189 15.62165,-19.73496 4.07719,-21.8943 6.11429,-32.84296 2.03709,-10.94865 14.99717,-36.20641 22.49426,-54.31112 7.49708,-18.10471 6.25086,-36.29931 9.37479,-54.45046 3.12394,-18.15115 0.41054,-23.44741 0.61431,-35.17261 0.20377,-11.7252 6.27014,-12.61777 9.40371,-18.92815 3.13357,-6.31038 29.68615,-25.71433 44.52773,-38.573 14.84157,-12.858667 23.60891,-4.39966 35.41187,-6.60099 11.80295,-2.201335 10.17244,10.66111 15.25716,15.99016 5.08472,5.32906 13.40383,20.19969 20.10424,30.29804 6.70042,10.09835 25.48081,31.92545 38.21971,47.88667 12.73891,15.96122 1.62196,2.09524 2.43144,3.14136 0.80947,1.04612 4.11225,-1.47653 6.16687,-2.2163 2.05463,-0.73977 -0.3506,-2.36626 -0.5274,-3.55089 -0.17681,-1.18463 -1.56781,-2.16466 -2.35321,-3.24849 -0.7854,-1.08383 -23.26458,-32.06986 -34.89837,-48.10629 -11.6338,-16.03642 -7.36878,-11.38113 -11.05467,-17.0732 -3.68588,-5.69207 -2.71646,-8.00803 -4.07619,-12.01354 -1.35973,-4.00551 2.07168,-10.7582 3.10602,-16.138797 1.03434,-5.380599 -3.53917,-2.128201 -5.31026,-3.193802 -1.77109,-1.065601 -5.21448,-4.129193 -10.67657,-6.140995 -5.4621,-2.011805 -82.38739,-2.169291 -11.4299,-8.910383 15.98244,-1.518361 2.46032,-19.960842 4.72888,-15.088953 1116.94997,2398.72258 11.57939,-3.392126 19.65597,-7.158503 8.07657,-3.766373 5.86061,2.976461 12.46286,4.9039 6.60224,1.927439 4.81651,3.353201 7.24749,5.462239 2.43099,2.109037 6.18097,5.536853 4.53916,10.203787 -1.64182,4.666935 0.24661,6.001495 0.36841,9.000742 0.12181,2.999248 1.265,9.860808 4.69435,12.276549 3.42935,2.41574 -3.51503,7.980016 -5.27405,11.968526 -1.75902,3.9885 6.73528,0.38193 7.30307,3.08456 0.56778,2.70263 5.38047,0.7042 8.0692,1.05481 2.68874,0.3506 19.60916,-8.72807 29.41225,-13.093603 9.80308,-4.365534 35.02424,-13.620639 52.53487,-20.432458 17.51059,-6.811819 43.80199,-15.814467 65.70159,-23.723201 21.8995,-7.908733 14.71,-7.980781 22.0635,-11.972672 7.3536,-3.991891 27.7535,-16.685846 41.6287,-25.030269 13.8752,-8.344423 11.2981,-8.6749855 16.9457,-13.0139782 5.6475,-4.3389928 11.0027,2.4672865 16.5025,3.6994298 5.4999,1.2321434 10.9771,17.7572584 16.4642,26.6343884 5.4871,8.877129 4.4952,20.494619 6.7414,30.740429 2.2461,10.245809 10.1478,19.672792 15.2202,29.507688 5.0724,9.834896 7.5368,24.199896 11.3037,36.298346 3.7669,12.09845 11.0977,60.13406 16.6451,90.19959 5.5473,30.06554 12.9927,90.97798 19.4876,136.46547 6.4949,45.48749 1.0943,59.6932 1.6399,89.5383 0.5457,29.8451 1.9868,32.07998 2.9788,48.11847 0.9919,16.03849 -1.5191,16.77615 -2.2801,25.16273 -0.7611,8.38658 -5.0908,3.77669 -7.6376,5.66353 -2.5469,1.88685 -19.2847,10.0548 -28.9286,15.0807 -9.6438,5.02591 -6.0018,18.53837 -9.0042,27.80605 -3.0024,9.26769 -1.3999,55.73989 -2.1014,83.60833 -0.7015,27.86844 -17.7362,139.35019 -26.6058,209.02379"
       sodipodi:nodetypes="cssssssssssssssssssssssssssssssssssssssssssssssssssssssssc" />
  </g>
</svg>
