<?xml version="1.0" encoding="UTF-8" standalone="no"?>
<!-- Created with Inkscape (http://www.inkscape.org/) -->

<svg
   version="1.1"
   id="svg2"
   width="1893"
   height="1024"
   viewBox="0 0 1893 1024"
   sodipodi:docname="frame_0085.svg"
   inkscape:version="1.1.2 (0a00cf5339, 2022-02-04)"
   xmlns:inkscape="http://www.inkscape.org/namespaces/inkscape"
   xmlns:sodipodi="http://sodipodi.sourceforge.net/DTD/sodipodi-0.dtd"
   xmlns:xlink="http://www.w3.org/1999/xlink"
   xmlns="http://www.w3.org/2000/svg"
   xmlns:svg="http://www.w3.org/2000/svg">
  <defs
     id="defs6">
    <inkscape:path-effect
       effect="spiro"
       id="path-effect899"
       is_visible="true"
       lpeversion="1" />
    <inkscape:path-effect
       effect="spiro"
       id="path-effect862"
       is_visible="true"
       lpeversion="1" />
  </defs>
  <sodipodi:namedview
     id="namedview4"
     pagecolor="#ffffff"
     bordercolor="#666666"
     borderopacity="1.0"
     inkscape:pageshadow="2"
     inkscape:pageopacity="0.0"
     inkscape:pagecheckerboard="0"
     showgrid="false"
     inkscape:zoom="0.47401928"
     inkscape:cx="1227.7981"
     inkscape:cy="422.97857"
     inkscape:window-width="1850"
     inkscape:window-height="1016"
     inkscape:window-x="70"
     inkscape:window-y="27"
     inkscape:window-maximized="1"
     inkscape:current-layer="g8" />
  <g
     inkscape:groupmode="layer"
     inkscape:label="Image"
     id="g8">
    
    <path
       style="font-variation-settings:normal;opacity:1;vector-effect:none;fill:none;fill-opacity:1;stroke:#c86487;stroke-width:1px;stroke-linecap:butt;stroke-linejoin:miter;stroke-miterlimit:4;stroke-dasharray:none;stroke-dashoffset:0;stroke-opacity:1;-inkscape-stroke:none;stop-color:#000000;stop-opacity:1"
       d="M 1160.5331,862.67531 635.4357,862.45666"
       id="path860"
       inkscape:path-effect="#path-effect862"
       inkscape:original-d="M 1160.5331,862.67531 635.4357,862.45666" />
    <path
       style="font-variation-settings:normal;opacity:1;vector-effect:none;fill:none;fill-opacity:1;stroke:#c86487;stroke-width:1px;stroke-linecap:butt;stroke-linejoin:miter;stroke-miterlimit:4;stroke-dasharray:none;stroke-dashoffset:0;stroke-opacity:1;-inkscape-stroke:none;stop-color:#000000;stop-opacity:1"
       d="m 635.4357,862.45666 c -4.62622,-45.94064 -8.9748,-91.90925 -13.0454,-137.90245 -3.33267,-37.65538 -6.48197,-75.4217 -5.44529,-113.21005 1.00428,-36.60719 5.93122,-72.99036 11.53914,-109.17939 3.80691,-24.56674 8.00137,-49.33564 17.52752,-72.298 8.36811,-20.17096 20.64156,-38.44023 31.00883,-57.66034 9.39611,-17.41965 17.22884,-35.62819 25.23656,-53.72812 10.19742,-23.04932 20.82814,-46.41393 23.86843,-71.43422 2.38727,-19.64622 0.0117,-39.82223 4.35324,-59.13089 4.56321,-20.29465 16.83358,-38.89947 34.14221,-50.43668 14.27941,-9.51806 31.3131,-14.05059 48.27136,-16.67974 2.40743,-0.37324 4.83484,-0.71218 7.26985,-0.6366 2.43502,0.0756 4.89755,0.58529 7.00304,1.81081 1.69718,0.98786 3.10992,2.40865 4.30292,3.96848 1.193,1.55982 2.18047,3.26449 3.17549,4.95749 3.44571,5.86277 7.02432,11.64917 10.8178,17.29314 4.01648,5.97576 8.27073,11.78734 12.46156,17.64215 3.86284,5.39659 7.67467,10.83418 11.19988,16.45714 3.37193,5.37847 6.48154,10.9263 10.10305,16.13998 2.38595,3.43491 5.0147,6.74367 8.22534,9.42381 1.98554,1.65746 4.17086,3.05575 6.27457,4.5604 1.27375,0.91103 2.54177,1.87463 4.01132,2.41577 0.73478,0.27057 1.51616,0.43076 2.29883,0.4078 0.78268,-0.023 1.56709,-0.23464 2.22337,-0.66173 0.60273,-0.39225 1.08474,-0.95803 1.41398,-1.59736 0.32924,-0.63933 0.50884,-1.35043 0.56515,-2.06735 0.11261,-1.43383 -0.25964,-2.86363 -0.75633,-4.21339 -1.74149,-4.73255 -4.99881,-8.75964 -8.56971,-12.32033 -3.57091,-3.56069 -7.50478,-6.74731 -11.0011,-10.38126 -8.49523,-8.82965 -14.10984,-19.96284 -21.06235,-30.05215 -5.62925,-8.16902 -12.16244,-15.68531 -17.77935,-23.86281 -1.19976,-1.74669 -2.37584,-3.56406 -2.90805,-5.61518 -0.2661,-1.02556 -0.3645,-2.10195 -0.2118,-3.15041 0.1527,-1.04846 0.56345,-2.06823 1.24014,-2.8835 0.76457,-0.92114 1.82279,-1.54132 2.86201,-2.13554 1.03922,-0.59422 2.10353,-1.19847 2.89232,-2.09896 1.04401,-1.19187 1.50876,-2.83527 1.39192,-4.41541 -0.11684,-1.58014 -0.78515,-3.0921 -1.75712,-4.34342 -1.94392,-2.50263 -4.95706,-3.91137 -7.92624,-5.0186 -5.37107,-2.002918 -10.97402,-3.3162 -16.59819,-4.424678 -1.44008,-0.283827 -2.88714,-0.555702 -4.28371,-1.007318 -1.39658,-0.451616 -2.75056,-1.091645 -3.86982,-2.041193 -1.49122,-1.265105 -2.50801,-3.049013 -2.95962,-4.951712 -0.45161,-1.902698 -0.35324,-3.916697 0.15902,-5.803971 1.1465,-4.223942 4.31686,-7.706941 8.09283,-9.920138 3.77596,-2.213196 8.12535,-3.268861 12.46618,-3.828659 3.16318,-0.407927 6.37865,-0.566688 9.53936,-0.140036 3.16071,0.426651 6.27498,1.458655 8.89273,3.280602 2.69969,1.878982 4.78042,4.525212 6.50708,7.324779 1.72665,2.799567 3.13619,5.7816 4.76413,8.639698 2.90281,5.096334 6.52787,9.857662 8.41186,15.411896 1.34564,3.9671 1.72508,8.41043 0.18646,12.30674 -0.63488,1.60773 -1.57753,3.08358 -2.16364,4.70972 -0.29306,0.81308 -0.49556,1.66594 -0.51073,2.53008 -0.0152,0.86414 0.16369,1.74195 0.59289,2.49212 0.35887,0.62726 0.88662,1.15305 1.50148,1.53277 0.61486,0.37971 1.31504,0.61494 2.03136,0.71049 1.43263,0.19112 2.90136,-0.17644 4.1855,-0.83972 2.56828,-1.32655 4.3784,-3.72012 6.45724,-5.72866 5.80445,-5.60816 13.76327,-8.24944 21.3389,-11.03383 19.2964,-7.09231 37.80686,-16.14051 56.777,-24.064251 15.83204,-6.612973 32.05613,-12.476436 46.9712,-20.957346 9.5317,-5.41987 18.4681,-11.876624 28.2382,-16.853923 8.9402,-4.554489 18.4901,-7.824191 27.4258,-12.38744 16.3433,-8.346143 30.255,-20.81699 46.3405,-29.6499157 0.8499,-0.4667046 1.7104,-0.9251853 2.629,-1.2357283 0.9185,-0.3105431 1.9047,-0.4691738 2.8629,-0.3208235 0.8261,0.1279015 1.6089,0.4817529 2.2885,0.9686337 0.6795,0.4868807 1.2589,1.1042429 1.7538,1.7780182 0.9896,1.3475506 1.6403,2.9069996 2.3819,4.4054646 3.904,7.888744 10.3945,14.196095 14.9153,21.748329 6.4584,10.78917 8.5906,23.53449 12.754,35.399727 3.4882,9.941079 8.4254,19.306233 12.3851,29.069089 5.5543,13.694306 9.1539,28.088726 12.6327,42.451266 5.7249,23.63593 11.1728,47.3441 15.8497,71.20953 5.0976,26.01259 9.2761,52.19548 13.3968,78.3806 3.9155,24.88064 7.7806,49.77436 10.8609,74.77214 2.2415,18.19056 4.0682,36.57265 2.3782,54.8227 -1.1018,11.89795 -3.6906,23.63378 -4.4852,35.55618 -0.7946,11.9224 0.3468,24.37571 6.1975,34.79418 1.3403,2.38663 2.9148,4.64352 4.1091,7.10641 1.1944,2.46289 2.0048,5.206 1.676,7.92339 -0.2332,1.92743 -1.0374,3.76491 -2.1879,5.32884 -1.1504,1.56393 -2.6389,2.86174 -4.274,3.9085 -2.199,1.4077 -4.6486,2.36513 -7.0507,3.38853 -2.402,1.0234 -4.8033,2.14019 -6.812,3.80821 -2.0875,1.73346 -3.6762,4.00714 -4.8956,6.43111 -1.2193,2.42397 -2.0873,5.00705 -2.9126,7.59188 -13.3082,41.6812 -16.4468,85.81453 -19.7932,129.44058 -5.0727,66.13157 -10.8311,132.21053 -17.2739,198.2227"
       id="path897"
       inkscape:path-effect="#path-effect899"
       inkscape:original-d="m 635.4357,862.45666 c -4.34747,-45.96648 -8.69593,-91.93396 -13.0454,-137.90245 -4.34947,-45.96848 -3.62919,-75.47236 -5.44529,-113.21005 -1.8161,-37.73768 7.69376,-72.78526 11.53914,-109.17939 3.84538,-36.39413 11.68602,-48.19767 17.52752,-72.298 5.84151,-24.10034 20.67356,-38.43923 31.00883,-57.66034 10.33528,-19.22111 16.82537,-35.81775 25.23656,-53.72812 8.41119,-17.91038 15.91329,-47.62181 23.86843,-71.43422 7.95515,-23.8124 2.90316,-39.41959 4.35324,-59.13089 1.45008,-19.7113 22.76248,-33.62345 34.14221,-50.43668 11.37974,-16.81323 32.18191,-11.11883 48.27136,-16.67974 16.08946,-5.56091 9.51626,0.78381 14.27289,1.17421 4.75664,0.3904 4.98661,5.95164 7.47841,8.92597 2.49181,2.97432 7.21287,11.52976 10.8178,17.29314 3.60494,5.76339 8.30871,11.76243 12.46156,17.64215 4.15285,5.87971 7.46758,10.97242 11.19988,16.45714 3.73229,5.48471 6.73637,10.76098 10.10305,16.13998 3.36669,5.37899 5.48456,6.28354 8.22534,9.42381 2.74078,3.14027 4.18405,3.04127 6.27457,4.5604 2.09052,1.51913 5.69002,1.44223 8.53352,2.16184 2.84351,0.71961 0.8162,-5.25107 1.2228,-7.8781 0.4066,-2.62703 -13.04621,-15.13339 -19.57081,-22.70159 -6.5246,-7.56819 -14.04057,-20.03377 -21.06235,-30.05215 -7.02179,-10.01838 -11.8519,-15.90754 -17.77935,-23.86281 -5.92744,-7.95527 -1.25214,-7.76506 -1.87971,-11.64909 -0.62757,-3.88403 3.83722,-2.822 5.75433,-4.2345 1.91711,-1.4125 -5.52663,-9.18396 -8.29144,-13.77743 -2.76482,-4.593481 -11.06446,-2.948787 -16.59819,-4.424678 -5.53374,-1.475891 -5.43469,-2.031341 -8.15353,-3.048511 -2.71885,-1.01717 -1.86607,-7.169455 -2.8006,-10.755683 -0.93453,-3.586227 13.70701,-9.164864 20.55901,-13.748797 6.852,-4.583932 12.28906,2.094711 18.43209,3.140566 6.14303,1.045855 7.51514,10.643985 11.27121,15.964477 3.75608,5.320493 5.60891,10.275598 8.41186,15.411896 2.80295,5.1363 0.12531,8.20549 0.18646,12.30674 0.0612,4.10124 -1.38665,6.48895 -2.08148,9.73192 -0.69483,3.24297 9.45138,-2.88241 14.17558,-4.32512 4.72419,-1.44271 14.22694,-7.35489 21.3389,-11.03383 7.11197,-3.67895 37.85233,-16.041836 56.777,-24.064251 18.92467,-8.022416 31.31512,-13.970564 46.9712,-20.957346 15.656,-6.986782 18.8265,-11.234948 28.2382,-16.853923 9.4118,-5.618974 18.2849,-8.257293 27.4258,-12.38744 9.1409,-4.130146 30.8947,-19.76561 46.3405,-29.6499157 15.4459,-9.8843054 3.6623,-1.0367012 5.4919,-1.5565518 1.8296,-0.5198506 4.2838,4.7690778 6.4242,7.1521165 2.1404,2.383039 9.9445,14.499886 14.9153,21.748329 4.9707,7.248443 8.5037,23.600818 12.754,35.399727 4.2504,11.79891 8.2577,19.380393 12.3851,29.069089 4.1274,9.688696 8.4228,28.301846 12.6327,42.451266 4.2099,14.14943 10.5674,47.47402 15.8497,71.20953 5.2822,23.7355 8.9322,52.25473 13.3968,78.3806 4.4647,26.12586 7.2416,49.84909 10.8609,74.77214 3.6193,24.92304 1.5865,36.54947 2.3782,54.8227 0.7918,18.27324 1.1425,46.90124 1.7123,70.35036 0.5697,23.44911 3.8577,10.02086 5.7851,15.0298 1.9273,5.00893 -4.3069,6.15922 -6.4619,9.23734 -2.1549,3.07811 -9.2408,4.79882 -13.8627,7.19674 -4.622,2.39791 -5.2045,9.34966 -7.8082,14.02299 -2.6037,4.67332 -13.1944,86.29472 -19.7932,129.44058 -6.5987,43.14586 -11.5149,132.14947 -17.2739,198.2227" />
  </g>
</svg>
