<?xml version="1.0" encoding="UTF-8" standalone="no"?>
<!-- Created with Inkscape (http://www.inkscape.org/) -->

<svg
   version="1.1"
   id="svg2"
   width="1893"
   height="1024"
   viewBox="0 0 1893 1024"
   sodipodi:docname="frame_0116.svg"
   inkscape:version="1.1.2 (0a00cf5339, 2022-02-04)"
   xmlns:inkscape="http://www.inkscape.org/namespaces/inkscape"
   xmlns:sodipodi="http://sodipodi.sourceforge.net/DTD/sodipodi-0.dtd"
   xmlns:xlink="http://www.w3.org/1999/xlink"
   xmlns="http://www.w3.org/2000/svg"
   xmlns:svg="http://www.w3.org/2000/svg">
  <defs
     id="defs6">
    <inkscape:path-effect
       effect="spiro"
       id="path-effect899"
       is_visible="true"
       lpeversion="1" />
    <inkscape:path-effect
       effect="spiro"
       id="path-effect862"
       is_visible="true"
       lpeversion="1" />
  </defs>
  <sodipodi:namedview
     id="namedview4"
     pagecolor="#ffffff"
     bordercolor="#666666"
     borderopacity="1.0"
     inkscape:pageshadow="2"
     inkscape:pageopacity="0.0"
     inkscape:pagecheckerboard="0"
     showgrid="false"
     inkscape:zoom="0.33518225"
     inkscape:cx="1405.2057"
     inkscape:cy="938.29551"
     inkscape:window-width="1850"
     inkscape:window-height="1016"
     inkscape:window-x="70"
     inkscape:window-y="27"
     inkscape:window-maximized="1"
     inkscape:current-layer="g8" />
  <g
     inkscape:groupmode="layer"
     inkscape:label="Image"
     id="g8">
    
    <path
       style="font-variation-settings:normal;opacity:1;vector-effect:none;fill:none;fill-opacity:1;stroke:#c86487;stroke-width:1px;stroke-linecap:butt;stroke-linejoin:miter;stroke-miterlimit:4;stroke-dasharray:none;stroke-dashoffset:0;stroke-opacity:1;-inkscape-stroke:none;stop-color:#000000;stop-opacity:1"
       d="m 636.34527,863.0508 524.21033,-0.5405"
       id="path860"
       inkscape:path-effect="#path-effect862"
       inkscape:original-d="m 636.34527,863.0508 524.21033,-0.5405" />
    <path
       style="font-variation-settings:normal;opacity:1;vector-effect:none;fill:none;fill-opacity:1;stroke:#c86487;stroke-width:1px;stroke-linecap:butt;stroke-linejoin:miter;stroke-miterlimit:4;stroke-dasharray:none;stroke-dashoffset:0;stroke-opacity:1;-inkscape-stroke:none;stop-color:#000000;stop-opacity:1"
       d="m 636.34527,863.0508 c 13.30762,-60.23357 13.44058,-123.34197 0.38687,-183.63108 -6.99624,-32.31242 -17.77032,-64.16665 -18.67635,-97.21538 -0.58172,-21.21893 2.94215,-42.34167 7.45778,-63.0827 7.47517,-34.3347 17.73509,-68.14739 32.14347,-100.19654 7.36342,-16.37875 15.78864,-32.2542 24.10586,-48.16983 8.57461,-16.40817 17.07451,-32.95076 22.98627,-50.49507 8.22202,-24.40047 11.32896,-50.42241 21.12561,-74.23439 3.36808,-8.18655 7.50457,-16.0507 10.6069,-24.3416 3.10233,-8.2909 5.16466,-17.18382 4.14624,-25.97736 -0.68113,-5.8812 -2.71098,-11.5086 -4.13887,-17.25435 -1.42789,-5.74575 -2.24201,-11.87498 -0.49366,-17.53146 1.73075,-5.59953 5.83971,-10.20927 10.55768,-13.68648 4.71797,-3.47721 10.07287,-5.96657 15.30327,-8.61104 15.78177,-7.97919 31.04772,-17.67707 48.30958,-21.51893 4.44566,-0.98944 9.02255,-1.57705 13.55823,-1.16413 4.53568,0.41293 9.04652,1.87399 12.648,4.66186 2.59815,2.0112 4.65223,4.64654 6.40359,7.42648 1.75135,2.77995 3.22421,5.72429 4.85185,8.57843 7.24126,12.69787 17.47552,23.4964 24.66113,36.22584 4.66953,8.27216 8.01198,17.29276 13.32357,25.16805 2.6558,3.93764 5.8141,7.58066 9.63137,10.40675 3.81727,2.82609 8.32388,4.81191 13.05115,5.27149 2.88621,0.28059 5.93251,-0.0453 8.40094,-1.56706 1.64302,-1.01292 2.96112,-2.52411 3.81604,-4.25462 0.85492,-1.7305 1.25322,-3.6735 1.23157,-5.60354 -0.0433,-3.86009 -1.74872,-7.57043 -4.18562,-10.56436 -4.87379,-5.98788 -12.29587,-9.17075 -18.59552,-13.63425 -12.60258,-8.92933 -20.6705,-23.09916 -25.32721,-37.82578 -2.0225,-6.39607 -3.47995,-12.97579 -5.87766,-19.24087 -2.39771,-6.26508 -5.85118,-12.319 -11.09621,-16.5011 -3.78313,-3.01646 -8.30748,-4.917923 -12.66481,-7.02144 -4.35733,-2.103518 -8.7166,-4.535503 -11.76787,-8.290619 -2.33807,-2.877407 -3.79996,-6.461479 -4.11806,-10.155376 -0.3181,-3.693897 0.51239,-7.481952 2.36698,-10.692336 2.24185,-3.880759 5.95731,-6.858266 10.18886,-8.334793 4.23156,-1.476526 8.94281,-1.467332 13.21405,-0.109879 4.07362,1.294646 7.70354,3.758961 10.80698,6.698197 3.10345,2.939237 5.71573,6.353361 8.21223,9.822939 3.92722,5.457954 7.72129,11.417313 8.25908,18.119783 0.25226,3.143989 -0.2314,6.293464 -0.59737,9.426254 -0.36597,3.13279 -0.61118,6.34113 0.10508,9.41282 0.62182,2.66665 1.99294,5.1843 4.03685,7.00642 2.0439,1.82212 4.77474,2.9089 7.51043,2.79183 2.36895,-0.10138 4.6308,-1.07457 6.6145,-2.37348 1.9837,-1.2989 3.73047,-2.92112 5.51401,-4.48355 20.27505,-17.761445 45.83022,-28.199665 71.26391,-37.125698 21.52475,-7.55418 43.44371,-14.296533 63.82061,-24.55139 19.1354,-9.630069 36.6033,-22.203845 54.6206,-33.791757 7.6264,-4.904939 15.5275,-9.710304 24.3387,-11.8509996 4.4056,-1.0703476 9.0083,-1.4490837 13.4947,-0.7952871 4.4864,0.6537966 8.8542,2.3668147 12.4021,5.1894847 4.0432,3.216734 6.8943,7.763429 8.6597,12.619181 2.5481,7.008804 2.9306,14.595817 3.1232,22.050965 0.1926,7.455148 0.2334,15.006737 2.1559,22.212305 3.528,13.222745 12.9787,23.947039 19.1743,36.149566 5.9795,11.7768 8.8782,24.85289 11.1935,37.85622 4.0815,22.92269 6.5269,46.11449 10.6867,69.02309 5.3794,29.62488 13.6124,58.70179 18.2191,88.45663 4.0995,26.47919 5.2986,53.30709 6.9987,80.04776 2.9017,45.64112 7.2813,91.37132 4.5678,137.02402 -0.2493,4.19511 -0.5728,8.45452 -2.046,12.39035 -2.5789,6.88985 -8.3832,12.03942 -14.3839,16.29536 -6.0006,4.25595 -12.4872,7.98527 -17.4948,13.37462 -5.583,6.00862 -8.9976,13.77502 -10.9212,21.74827 -1.9236,7.97326 -2.4425,16.21037 -2.8635,24.40157 -0.9,17.50927 -1.3866,35.03692 -2.1035,52.55464 -2.7787,67.90124 -9.0206,135.66065 -18.6931,202.92685"
       id="path897"
       inkscape:path-effect="#path-effect899"
       inkscape:original-d="m 636.34527,863.0508 c 0.12996,-61.20936 0.25891,-122.41972 0.38687,-183.63108 0.12795,-61.21136 -12.4499,-64.80925 -18.67635,-97.21538 -6.22645,-32.40612 4.97285,-42.05413 7.45778,-63.0827 2.48492,-21.02856 21.42998,-66.79669 32.14347,-100.19654 10.71349,-33.39985 16.07157,-32.11222 24.10586,-48.16983 8.03429,-16.05761 15.32518,-33.66238 22.98627,-50.49507 7.66109,-16.83269 14.08474,-49.48859 21.12561,-74.23439 7.04087,-24.74579 9.83642,-33.54497 14.75314,-50.31896 4.91671,-16.77399 -3.08736,-23.18954 -4.63253,-34.78581 -1.54518,-11.59626 17.24163,-14.86401 25.86095,-22.29752 8.61932,-7.43351 32.20739,-14.34495 48.30958,-21.51893 16.1022,-7.17397 17.47182,2.33282 26.20623,3.49773 8.73441,1.16491 7.50463,10.67094 11.25544,16.00491 3.75082,5.33398 16.44175,24.15156 24.66113,36.22584 8.21938,12.07428 24.00506,27.23186 36.00609,40.84629 12.00103,13.61444 5.60163,-1.04371 8.40094,-1.56706 2.79931,-0.52336 -11.82135,-22.70351 -17.73353,-34.05677 -5.91218,-11.35325 -16.88381,-25.21619 -25.32721,-37.82578 -8.4434,-12.6096 -11.31492,-23.82698 -16.97387,-35.74197 -5.65896,-11.914994 -16.28745,-10.207041 -24.43268,-15.312059 -8.14522,-5.105018 -1.16639,-13.897475 -1.75108,-20.847712 -0.5847,-6.950237 15.60294,-5.628781 23.40291,-8.444672 7.79997,-2.81589 12.68047,11.015091 19.01921,16.521136 6.33873,5.506045 5.50705,12.080855 8.25908,18.119783 2.75202,6.038924 -0.32719,12.560384 -0.49229,18.839074 -0.16509,6.27869 7.69919,6.53317 11.54728,9.79825 3.84809,3.26509 8.08667,-4.57035 12.12851,-6.85703 4.04183,-2.28668 47.51027,-24.749465 71.26391,-37.125698 23.75364,-12.376233 42.54801,-16.366594 63.82061,-24.55139 21.2725,-8.184797 36.4147,-22.526838 54.6206,-33.791757 18.2058,-11.2649191 33.4913,-4.970202 50.2355,-7.456802 16.7442,-2.486601 5.7742,8.413787 8.6597,12.619181 2.8856,4.205394 3.5204,29.509847 5.2791,44.26327 1.7587,14.753424 12.7839,24.100708 19.1743,36.149566 6.3905,12.04885 7.4633,25.23848 11.1935,37.85622 3.7301,12.61774 7.1255,46.0164 10.6867,69.02309 3.5612,23.0067 12.147,58.97209 18.2191,88.45663 6.072,29.48454 4.6668,53.36617 6.9987,80.04776 2.3319,26.68159 3.0462,91.35034 4.5678,137.02402 1.5216,45.67367 -1.363,8.26123 -2.046,12.39035 -0.683,4.12912 -21.2515,19.78099 -31.8787,29.66998 -10.6272,9.88899 -9.1888,30.76756 -13.7847,46.14984 -4.5959,15.38228 -1.4013,35.03743 -2.1035,52.55464 -0.7021,17.51721 -12.4611,135.28557 -18.6931,202.92685" />
  </g>
</svg>
