<?xml version="1.0" encoding="UTF-8" standalone="no"?>
<!-- Created with Inkscape (http://www.inkscape.org/) -->

<svg
   version="1.1"
   id="svg2"
   width="1893"
   height="1024"
   viewBox="0 0 1893 1024"
   sodipodi:docname="frame_0149.svg"
   inkscape:version="1.1.2 (0a00cf5339, 2022-02-04)"
   xmlns:inkscape="http://www.inkscape.org/namespaces/inkscape"
   xmlns:sodipodi="http://sodipodi.sourceforge.net/DTD/sodipodi-0.dtd"
   xmlns:xlink="http://www.w3.org/1999/xlink"
   xmlns="http://www.w3.org/2000/svg"
   xmlns:svg="http://www.w3.org/2000/svg">
  <defs
     id="defs6">
    <inkscape:path-effect
       effect="spiro"
       id="path-effect899"
       is_visible="true"
       lpeversion="1" />
    <inkscape:path-effect
       effect="spiro"
       id="path-effect862"
       is_visible="true"
       lpeversion="1" />
  </defs>
  <sodipodi:namedview
     id="namedview4"
     pagecolor="#ffffff"
     bordercolor="#666666"
     borderopacity="1.0"
     inkscape:pageshadow="2"
     inkscape:pageopacity="0.0"
     inkscape:pagecheckerboard="0"
     showgrid="false"
     inkscape:zoom="0.6703645"
     inkscape:cx="1341.0615"
     inkscape:cy="370.69385"
     inkscape:window-width="1850"
     inkscape:window-height="1016"
     inkscape:window-x="70"
     inkscape:window-y="27"
     inkscape:window-maximized="1"
     inkscape:current-layer="g8" />
  <g
     inkscape:groupmode="layer"
     inkscape:label="Image"
     id="g8">
    
    <path
       style="font-variation-settings:normal;opacity:1;vector-effect:none;fill:none;fill-opacity:1;stroke:#c86487;stroke-width:1px;stroke-linecap:butt;stroke-linejoin:miter;stroke-miterlimit:4;stroke-dasharray:none;stroke-dashoffset:0;stroke-opacity:1;-inkscape-stroke:none;stop-color:#000000;stop-opacity:1"
       d="M 1161.0473,862.85811 H 635.6849"
       id="path860"
       inkscape:path-effect="#path-effect862"
       inkscape:original-d="M 1161.0473,862.85811 H 635.6849" />
    <path
       style="font-variation-settings:normal;opacity:1;vector-effect:none;fill:none;fill-opacity:1;stroke:#c86487;stroke-width:1px;stroke-linecap:butt;stroke-linejoin:miter;stroke-miterlimit:4;stroke-dasharray:none;stroke-dashoffset:0;stroke-opacity:1;-inkscape-stroke:none;stop-color:#000000;stop-opacity:1"
       d="m 635.6849,862.85811 c -8.42511,-38.51279 -15.24813,-77.37602 -20.44549,-116.45549 -7.77119,-58.43237 -11.82481,-118.47432 1.83402,-175.81688 5.95448,-24.99814 15.18407,-49.0717 23.39759,-73.42126 6.60632,-19.58491 12.57399,-39.416 16.82131,-59.64402 4.66805,-22.23177 7.50513,-45.59562 19.52228,-64.87334 7.18,-11.51804 17.38112,-21.08184 23.40706,-33.24349 5.81267,-11.73123 7.3342,-25.03625 10.39737,-37.76519 4.61652,-19.18386 12.81896,-37.2765 20.34086,-55.51803 4.90802,-11.90255 9.59528,-24.14091 10.54458,-36.98062 0.99638,-13.47649 -2.17847,-27.00982 -1.11048,-40.48082 0.75903,-9.57392 3.8403,-19.23185 10.26338,-26.37188 6.43339,-7.15148 15.60235,-11.18843 24.73338,-14.21441 13.09046,-4.33811 26.69217,-7.02597 39.70813,-11.58274 4.08873,-1.43143 8.14361,-3.05356 12.41137,-3.79714 4.26776,-0.74359 8.85441,-0.53865 12.65873,1.5335 2.64025,1.4381 4.75904,3.69433 6.46277,6.1715 1.70373,2.47718 3.02803,5.19026 4.40926,7.86071 1.94511,3.76064 4.0147,7.45638 6.17871,11.09546 13.37141,22.48585 30.25476,42.66636 44.78199,64.42338 0.57946,0.86785 1.15761,1.74139 1.84909,2.52293 0.69148,0.78153 1.5055,1.47354 2.45735,1.90124 1.50885,0.67798 3.30776,0.63198 4.81548,-0.0485 1.50772,-0.6805 2.71484,-1.96811 3.37439,-3.48511 0.50168,-1.1539 0.6968,-2.42968 0.64375,-3.68681 -0.053,-1.25712 -0.34934,-2.49685 -0.79451,-3.67371 -0.89034,-2.35372 -2.35646,-4.4373 -3.78169,-6.51128 -7.94777,-11.56553 -15.07202,-23.67363 -22.7469,-35.42203 -7.38699,-11.3077 -15.28923,-22.28811 -23.8918,-32.70097 -1.814,-2.19573 -3.6707,-4.3829 -5.06017,-6.86909 -1.38947,-2.4862 -2.29725,-5.32759 -2.04359,-8.16439 0.22709,-2.53967 1.35548,-4.89681 2.09769,-7.3362 0.3711,-1.219697 0.64849,-2.478851 0.66213,-3.75368 0.0136,-1.27483 -0.24794,-2.571698 -0.89516,-3.6701 -0.49871,-0.846364 -1.21547,-1.555668 -2.03793,-2.092888 -0.82245,-0.537219 -1.7489,-0.905608 -2.7041,-1.135025 -1.9104,-0.458834 -3.90827,-0.365658 -5.86325,-0.170204 -3.2506,0.324986 -6.47672,0.925061 -9.74123,1.047449 -3.26451,0.122387 -6.63297,-0.263542 -9.51946,-1.793312 -2.78146,-1.474105 -4.9801,-3.978611 -6.1889,-6.885201 -1.20881,-2.90659 -1.43964,-6.191944 -0.76302,-9.2663 0.89515,-4.067259 3.36251,-7.730687 6.66715,-10.265093 3.30465,-2.534406 7.40849,-3.957181 11.56387,-4.234142 5.2213,-0.348006 10.46465,1.073817 15.10304,3.496307 4.63838,2.42249 8.71149,5.813863 12.39833,9.527398 3.46835,3.493468 6.62243,7.286855 10.06467,10.806055 1.83612,1.877171 3.76219,3.685563 5.32204,5.797901 1.55986,2.112337 2.75215,4.586998 2.88031,7.209722 0.0986,2.018165 -0.43504,4.018782 -1.16341,5.903513 -0.72836,1.88472 -1.65342,3.6884 -2.38854,5.5705 -0.83755,2.14436 -1.43062,4.45508 -1.13438,6.73806 0.14812,1.14149 0.52271,2.26128 1.15541,3.22285 0.6327,0.96158 1.52978,1.75955 2.58949,2.20894 0.89759,0.38064 1.88902,0.5055 2.86327,0.46841 0.97426,-0.0371 1.93601,-0.23136 2.88171,-0.46841 7.19391,-1.80324 13.49756,-6.03052 19.71797,-10.06915 12.76748,-8.28933 25.92912,-16.123648 40.09611,-21.693029 16.05448,-6.311397 33.22831,-9.646467 48.87303,-16.914389 13.47844,-6.261529 25.47714,-15.283921 38.54354,-22.365097 13.8613,-7.511987 28.8077,-12.778947 43.1603,-19.303413 10.0924,-4.587822 19.9089,-9.808192 29.1971,-15.860786 5.786,-3.7703992 11.6468,-7.9760527 18.4832,-8.9540872 6.1519,-0.8800978 12.7048,1.160601 17.11,5.5440092 3.321,3.304618 5.332,7.715114 6.6645,12.206696 1.3324,4.491583 2.0522,9.140662 3.2006,13.68279 4.0347,15.957973 13.1884,30.064681 19.7952,45.140684 12.0968,27.603462 15.5123,58.065792 21.3225,87.638162 4.4725,22.76391 10.4278,45.21408 15.0153,67.95508 6.805,33.7334 10.5825,68.02906 12.5466,102.38591 2.3899,41.80529 2.1166,83.86543 8.1935,125.29567 1.7742,12.09568 4.0945,24.26347 3.1659,36.45326 -0.3971,5.21234 -1.3959,10.39982 -3.2556,15.28529 -1.2577,3.30418 -2.9177,6.47773 -5.1427,9.22525 -4.5752,5.64969 -11.2546,9.19569 -16.3077,14.42237 -4.3827,4.53331 -7.4252,10.2254 -9.5594,16.15872 -2.1342,5.93333 -3.4034,12.13712 -4.6155,18.32501 -5.3973,27.55377 -9.8011,55.29378 -13.7933,83.08591 -9.8519,68.58426 -17.204,137.52759 -22.0367,206.64709"
       id="path897"
       inkscape:path-effect="#path-effect899"
       inkscape:original-d="m 635.6849,862.85811 c -6.81416,-38.8175 -13.62932,-77.636 -20.44549,-116.45549 -6.81616,-38.8195 1.22368,-117.21025 1.83402,-175.81688 0.61034,-58.60662 15.5994,-48.94651 23.39759,-73.42126 7.7982,-24.47476 11.21521,-39.76168 16.82131,-59.64402 5.6061,-19.88233 13.01585,-43.24789 19.52228,-64.87334 6.50642,-21.62544 15.6057,-22.16132 23.40706,-33.24349 7.80135,-11.08216 6.93258,-25.17579 10.39737,-37.76519 3.46479,-12.5894 13.56157,-37.01102 20.34086,-55.51803 6.77928,-18.50701 7.03072,-24.65275 10.54458,-36.98062 3.51386,-12.32788 -0.73932,-26.98621 -1.11048,-40.48082 -0.37116,-13.4946 6.84325,-17.58025 10.26338,-26.37188 3.42012,-8.79162 16.48992,-9.47527 24.73338,-14.21441 8.24346,-4.73914 26.47309,-7.72083 39.70813,-11.58274 13.23504,-3.86191 16.7144,-1.50809 25.0701,-2.26364 8.3557,-0.75555 7.24902,9.35581 10.87203,14.03221 3.62301,4.6764 4.12014,7.39797 6.17871,11.09546 2.05856,3.69749 29.85566,42.94992 44.78199,64.42338 14.92633,21.47346 2.87196,2.95045 4.30644,4.42417 1.43448,1.47372 5.46091,-2.35475 8.18987,-3.53363 2.72895,-1.17888 -2.62063,-9.24687 -3.93245,-13.8718 -1.31181,-4.62494 -15.1636,-23.61368 -22.7469,-35.42203 -7.5833,-11.80834 -15.92687,-21.79964 -23.8918,-32.70097 -7.96493,-10.90132 -4.73484,-10.02132 -7.10376,-15.03348 -2.36892,-5.01216 1.24411,-9.838986 1.86466,-14.75998 0.62055,-4.920995 -7.06919,-2.264412 -10.60528,-3.398117 -3.5361,-1.133706 -12.83946,-0.496242 -19.26069,-0.745863 -6.42123,-0.249621 -4.63361,-10.766667 -6.95192,-16.151501 -2.3183,-5.384833 12.15502,-9.665156 18.23102,-14.499235 6.07601,-4.834078 18.33525,8.68347 27.50137,13.023705 9.16613,4.340234 6.71078,7.205036 10.06467,10.806055 3.35389,3.601018 5.46923,8.672748 8.20235,13.007623 2.73312,4.334874 -2.36697,7.650343 -3.55195,11.474013 -1.18499,3.82367 1.74134,8.11423 2.61052,12.16985 0.86917,4.05561 3.83099,0.001 5.74498,0 1.914,-10e-4 13.14631,-6.71177 19.71797,-10.06915 6.57165,-3.35738 26.73174,-14.461019 40.09611,-21.693029 13.36438,-7.232009 32.58302,-11.275259 48.87303,-16.914389 16.29004,-5.63913 25.69664,-14.909065 38.54354,-22.365097 12.8468,-7.456033 28.7746,-12.867942 43.1603,-19.303413 14.3858,-6.435471 19.4658,-10.572857 29.1971,-15.860786 9.7314,-5.287928 12.3232,-5.9683913 18.4832,-8.9540872 6.1601,-2.98569581 11.4077,3.6970062 17.11,5.5440092 5.7024,1.847003 6.5777,17.260657 9.8651,25.889486 3.2873,8.628829 13.1978,30.094789 19.7952,45.140684 6.5974,15.045894 14.216,58.426442 21.3225,87.638162 7.1066,29.21172 10.0112,45.30438 15.0153,67.95508 5.004,22.65069 8.3654,68.25827 12.5466,102.38591 4.1812,34.12763 5.4634,83.53145 8.1935,125.29567 2.7302,41.76423 2.1116,24.30317 3.1659,36.45326 1.0542,12.15008 -2.1694,10.19119 -3.2556,15.28529 -1.0862,5.0941 -3.4275,6.15117 -5.1427,9.22525 -1.7153,3.07409 -10.8708,9.61591 -16.3077,14.42237 -5.4369,4.80646 -9.4489,22.99015 -14.1749,34.48373 -4.7259,11.49358 -9.1946,55.39161 -13.7933,83.08591 -4.5988,27.69431 -14.6901,137.76573 -22.0367,206.64709" />
  </g>
</svg>
