<?xml version="1.0" encoding="UTF-8" standalone="no"?>
<!-- Created with Inkscape (http://www.inkscape.org/) -->

<svg
   version="1.1"
   id="svg2"
   width="1893"
   height="1024"
   viewBox="0 0 1893 1024"
   sodipodi:docname="frame_0071.svg"
   inkscape:version="1.1.2 (0a00cf5339, 2022-02-04)"
   xmlns:inkscape="http://www.inkscape.org/namespaces/inkscape"
   xmlns:sodipodi="http://sodipodi.sourceforge.net/DTD/sodipodi-0.dtd"
   xmlns:xlink="http://www.w3.org/1999/xlink"
   xmlns="http://www.w3.org/2000/svg"
   xmlns:svg="http://www.w3.org/2000/svg">
  <defs
     id="defs6">
    <inkscape:path-effect
       effect="spiro"
       id="path-effect899"
       is_visible="true"
       lpeversion="1" />
    <inkscape:path-effect
       effect="spiro"
       id="path-effect862"
       is_visible="true"
       lpeversion="1" />
  </defs>
  <sodipodi:namedview
     id="namedview4"
     pagecolor="#ffffff"
     bordercolor="#666666"
     borderopacity="1.0"
     inkscape:pageshadow="2"
     inkscape:pageopacity="0.0"
     inkscape:pagecheckerboard="0"
     showgrid="false"
     inkscape:zoom="0.47401928"
     inkscape:cx="1014.7266"
     inkscape:cy="564.32303"
     inkscape:window-width="1850"
     inkscape:window-height="1016"
     inkscape:window-x="70"
     inkscape:window-y="27"
     inkscape:window-maximized="1"
     inkscape:current-layer="g8" />
  <g
     inkscape:groupmode="layer"
     inkscape:label="Image"
     id="g8">
    
    <path
       style="font-variation-settings:normal;opacity:1;vector-effect:none;fill:none;fill-opacity:1;stroke:#c86487;stroke-width:1px;stroke-linecap:butt;stroke-linejoin:miter;stroke-miterlimit:4;stroke-dasharray:none;stroke-dashoffset:0;stroke-opacity:1;-inkscape-stroke:none;stop-color:#000000;stop-opacity:1"
       d="m 1161.3663,862.75906 -525.57674,-0.0463"
       id="path860"
       inkscape:path-effect="#path-effect862"
       inkscape:original-d="m 1161.3663,862.75906 -525.57674,-0.0463" />
    <path
       style="font-variation-settings:normal;opacity:1;vector-effect:none;fill:none;fill-opacity:1;stroke:#c86487;stroke-width:1px;stroke-linecap:butt;stroke-linejoin:miter;stroke-miterlimit:4;stroke-dasharray:none;stroke-dashoffset:0;stroke-opacity:1;-inkscape-stroke:none;stop-color:#000000;stop-opacity:1"
       d="m 635.78956,862.71276 c -24.7062,-69.24409 -34.45501,-143.78273 -28.3879,-217.05162 3.4783,-42.0054 12.05702,-83.39525 18.55357,-125.04074 4.68296,-30.01968 8.37106,-60.53516 19.3025,-88.88326 8.69863,-22.55783 21.7797,-43.17683 31.21999,-65.43448 4.87305,-11.48934 8.75588,-23.36811 12.99743,-35.10526 9.00832,-24.92769 19.73723,-49.58209 23.26658,-75.85152 1.78436,-13.28123 1.68785,-26.73298 1.71852,-40.1335 0.0215,-9.37319 0.10915,-18.78068 1.44903,-28.05763 1.33987,-9.27695 3.97732,-18.4735 8.79384,-26.51453 4.90505,-8.18883 11.9643,-14.97446 19.95021,-20.20339 7.98591,-5.22893 16.88943,-8.94657 26.02989,-11.69764 6.70428,-2.01784 13.59573,-3.53458 20.58791,-3.89301 6.99218,-0.35843 14.10484,0.46894 20.62998,3.00696 5.34085,2.07738 10.21696,5.27407 14.4355,9.15275 10.44046,9.59934 16.54415,22.88538 24.58883,34.56586 11.29298,16.39686 26.5014,29.70187 42.33179,41.77611 1.43463,1.09423 2.91363,2.19978 4.63612,2.73691 0.86125,0.26857 1.77665,0.38774 2.67171,0.27488 0.89506,-0.11287 1.76885,-0.46555 2.44598,-1.06167 0.50921,-0.44829 0.8988,-1.02545 1.15637,-1.65308 0.25756,-0.62763 0.38526,-1.30488 0.40884,-1.98289 0.0472,-1.35602 -0.31603,-2.69505 -0.7939,-3.96496 -2.24107,-5.95554 -6.93682,-10.64457 -11.89018,-14.63897 -4.95335,-3.99439 -10.32852,-7.5258 -14.68567,-12.16327 -4.89238,-5.20714 -8.30599,-11.60011 -11.58209,-17.94967 -3.2761,-6.34956 -6.51786,-12.80673 -11.14706,-18.24917 -3.02704,-3.55882 -6.59851,-6.62288 -9.64121,-10.16831 -3.0427,-3.54543 -5.60402,-7.74854 -6.03557,-12.40062 -0.37303,-4.02122 0.86753,-8.00054 1.2371,-12.02208 0.18479,-2.01077 0.14712,-4.06774 -0.40966,-6.00871 -0.55677,-1.94097 -1.66868,-3.76645 -3.32174,-4.926088 -1.31814,-0.924686 -2.91919,-1.38864 -4.52292,-1.532113 -1.60373,-0.143473 -3.21947,0.0188 -4.81196,0.256503 -3.18499,0.475401 -6.44673,1.251473 -9.58042,0.509796 -2.1,-0.497024 -4.0222,-1.675727 -5.47214,-3.274074 -1.44994,-1.598348 -2.4303,-3.605214 -2.87205,-5.717533 -0.8835,-4.224637 0.42454,-8.740283 3.0085,-12.197347 2.00451,-2.681823 4.74141,-4.788232 7.79004,-6.172458 3.04863,-1.384226 6.40157,-2.056453 9.74944,-2.100946 8.48077,-0.112708 16.6892,3.810833 22.92144,9.563698 5.63768,5.20404 9.90151,12.037525 11.38657,19.564811 1.14384,5.797741 0.63084,11.814181 -0.57062,17.600251 -0.42541,2.04872 -0.93693,4.08405 -1.18922,6.1612 -0.25229,2.07716 -0.23752,4.21922 0.37566,6.21978 0.87957,2.86968 3.01614,5.322 5.72244,6.61993 2.95588,1.41763 6.44526,1.45159 9.60915,0.59328 3.1639,-0.85832 6.04216,-2.55048 8.69829,-4.4719 8.34848,-6.03921 14.76077,-14.38143 22.76612,-20.8686 9.46838,-7.67275 20.89852,-12.535115 32.4729,-16.350238 11.57437,-3.815123 23.45813,-6.683622 34.889,-10.909341 31.27201,-11.560508 57.87381,-32.735422 86.56741,-49.713703 20.248,-11.98098 41.8405,-21.991918 64.7025,-27.5466567 1.3776,-0.334709 2.8057,-0.6547926 4.2012,-0.4050712 1.0099,0.1807215 1.9589,0.6607125 2.7306,1.3368208 0.7716,0.6761084 1.3675,1.5441804 1.7598,2.4921831 0.7845,1.896005 0.742,4.064112 0.1842,6.038762 -0.5577,1.97465 -1.601,3.779319 -2.775,5.462226 -1.1739,1.682907 -2.4866,3.265513 -3.6606,4.948394 -5.4697,7.840695 -7.7147,17.809593 -6.3897,27.277333 1.325,9.46774 6.1549,18.36177 13.2003,24.823687 6.8388,6.272432 15.6736,10.352484 21.4775,17.59315 3.6767,4.586919 5.9034,10.190994 7.2817,15.905734 1.3784,5.71475 1.9541,11.58672 2.6515,17.42383 3.3905,28.37788 9.7247,56.30759 15.7227,84.25082 4.3075,20.06753 8.4484,40.18202 11.5636,60.46886 8.419,54.82696 9.2998,110.59452 17.5642,165.44499 2.8782,19.10264 6.6617,38.25269 5.8801,57.55513 -0.3208,7.92296 -1.4384,15.90705 -4.4358,23.24813 -5.5463,13.58352 -16.9548,23.79239 -25.0378,36.03734 -8.9201,13.51313 -13.6868,29.41769 -16.0398,45.43757 -2.353,16.01989 -2.4006,32.27612 -2.5743,48.46695 -0.7645,71.26968 -4.0621,142.51216 -9.8845,213.54772"
       id="path897"
       inkscape:path-effect="#path-effect899"
       inkscape:original-d="m 635.78956,862.71276 c -9.46163,-72.34954 -18.92427,-144.70008 -28.3879,-217.05162 -9.46363,-72.35154 12.37005,-83.3595 18.55357,-125.04074 6.18352,-41.68125 12.86933,-59.25451 19.3025,-88.88326 6.43317,-29.62876 20.81433,-43.62199 31.21999,-65.43448 10.40566,-21.8125 8.66595,-23.40251 12.99743,-35.10526 4.33147,-11.70275 15.51205,-50.56668 23.26658,-75.85152 7.75453,-25.28484 1.14668,-26.75467 1.71852,-40.1335 0.57185,-13.37884 6.82958,-36.38044 10.24287,-54.57216 3.41329,-18.19172 30.6544,-21.26635 45.9801,-31.90103 15.3257,-10.63467 27.4796,-0.5897 41.21789,-0.88605 13.7383,-0.29635 9.62467,6.10284 14.4355,9.15275 4.81084,3.04992 16.39355,23.04491 24.58883,34.56586 8.19527,11.52095 28.22219,27.85174 42.33179,41.77611 14.1096,13.92436 6.50354,1.30108 9.75381,1.95012 3.25027,0.64905 0.5152,-5.06629 0.77131,-7.60093 0.2561,-2.53465 -17.71624,-17.86716 -26.57585,-26.80224 -8.85962,-8.93508 -15.15177,-24.13156 -22.72915,-36.19884 -7.57739,-12.06728 -10.45019,-15.04496 -15.67678,-22.56893 -5.22659,-7.52398 -1.66187,-15.30359 -2.4943,-22.956878 -0.83243,-7.653291 -12.6092,-0.509543 -18.9153,-0.765814 -6.3061,-0.256271 -3.55613,-14.124969 -5.33569,-21.188954 -1.77956,-7.063985 11.69398,-5.514603 17.53948,-8.273404 5.84549,-2.758801 15.28196,6.376799 22.92144,9.563698 7.63948,3.186899 7.59204,13.044207 11.38657,19.564811 3.79452,6.520601 -0.37942,11.734501 -0.57062,17.600251 -0.19121,5.86575 -0.54137,8.25498 -0.81356,12.38098 -0.27219,4.12599 3.81596,4.41428 5.72244,6.61993 1.90648,2.20564 12.20596,-2.58475 18.30744,-3.87862 6.10148,-1.29388 15.17841,-13.9114 22.76612,-20.8686 7.5877,-6.95719 44.90893,-18.172051 67.3619,-27.259579 22.45297,-9.087528 57.71261,-33.141468 86.56741,-49.713703 28.8548,-16.572234 43.136,-18.363438 64.7025,-27.5466567 21.5665,-9.183219 2.8018,-0.2690475 4.2012,-0.4050712 1.3994,-0.1360238 -1.173,13.5199239 -1.761,20.2783859 -0.588,6.758462 4.5414,34.735013 6.8106,52.10102 2.2692,17.366006 14.3193,11.729766 21.4775,17.59315 7.1581,5.863384 6.6231,22.220714 9.9332,33.329564 3.3101,11.10885 10.4828,56.16821 15.7227,84.25082 5.2398,28.08261 7.71,40.31358 11.5636,60.46886 3.8535,20.15529 11.7105,110.29766 17.5642,165.44499 5.8538,55.14733 3.9211,38.37109 5.8801,57.55513 1.9591,19.18405 -2.9562,15.49975 -4.4358,23.24813 -1.4796,7.74837 -16.6908,24.02589 -25.0378,36.03734 -8.3469,12.01145 -12.4084,62.60402 -18.6141,93.90452 -6.2057,31.30051 -6.5887,142.36615 -9.8845,213.54772" />
  </g>
</svg>
