<?xml version="1.0" encoding="UTF-8" standalone="no"?>
<!-- Created with Inkscape (http://www.inkscape.org/) -->

<svg
   version="1.1"
   id="svg2"
   width="1893"
   height="1024"
   viewBox="0 0 1893 1024"
   sodipodi:docname="frame_0113.svg"
   inkscape:version="1.1.2 (0a00cf5339, 2022-02-04)"
   xmlns:inkscape="http://www.inkscape.org/namespaces/inkscape"
   xmlns:sodipodi="http://sodipodi.sourceforge.net/DTD/sodipodi-0.dtd"
   xmlns:xlink="http://www.w3.org/1999/xlink"
   xmlns="http://www.w3.org/2000/svg"
   xmlns:svg="http://www.w3.org/2000/svg">
  <defs
     id="defs6">
    <inkscape:path-effect
       effect="spiro"
       id="path-effect899"
       is_visible="true"
       lpeversion="1" />
    <inkscape:path-effect
       effect="spiro"
       id="path-effect862"
       is_visible="true"
       lpeversion="1" />
  </defs>
  <sodipodi:namedview
     id="namedview4"
     pagecolor="#ffffff"
     bordercolor="#666666"
     borderopacity="1.0"
     inkscape:pageshadow="2"
     inkscape:pageopacity="0.0"
     inkscape:pagecheckerboard="0"
     showgrid="false"
     inkscape:zoom="1.8960771"
     inkscape:cx="781.61377"
     inkscape:cy="630.51232"
     inkscape:window-width="1850"
     inkscape:window-height="1016"
     inkscape:window-x="70"
     inkscape:window-y="27"
     inkscape:window-maximized="1"
     inkscape:current-layer="g8" />
  <g
     inkscape:groupmode="layer"
     inkscape:label="Image"
     id="g8">
    
    <path
       style="font-variation-settings:normal;opacity:1;vector-effect:none;fill:none;fill-opacity:1;stroke:#c86487;stroke-width:1px;stroke-linecap:butt;stroke-linejoin:miter;stroke-miterlimit:4;stroke-dasharray:none;stroke-dashoffset:0;stroke-opacity:1;-inkscape-stroke:none;stop-color:#000000;stop-opacity:1"
       d="m 1160.4129,862.09782 -524.95994,0.2483"
       id="path860"
       inkscape:path-effect="#path-effect862"
       inkscape:original-d="m 1160.4129,862.09782 -524.95994,0.2483" />
    <path
       style="font-variation-settings:normal;opacity:1;vector-effect:none;fill:none;fill-opacity:1;stroke:#c86487;stroke-width:1px;stroke-linecap:butt;stroke-linejoin:miter;stroke-miterlimit:4;stroke-dasharray:none;stroke-dashoffset:0;stroke-opacity:1;-inkscape-stroke:none;stop-color:#000000;stop-opacity:1"
       d="m 635.45296,862.34612 c -13.14883,-48.90626 -21.58898,-99.0773 -25.16581,-149.59383 -4.05005,-57.19987 -1.81291,-115.17853 11.29651,-171.003 3.74869,-15.96324 8.37314,-31.70502 12.66551,-47.53073 10.10568,-37.25906 18.59114,-75.56295 37.46475,-109.24009 9.18585,-16.39078 20.78191,-31.57938 27.40199,-49.16381 7.62965,-20.26608 8.21521,-42.59505 15.32167,-63.05045 5.95941,-17.15371 16.39268,-32.65423 20.79216,-50.27266 5.09643,-20.4095 1.69114,-41.9209 3.66258,-62.86451 0.32188,-3.41947 0.80853,-6.89634 2.32763,-9.97671 1.57271,-3.18908 4.19249,-5.78928 7.19423,-7.69537 3.00173,-1.90609 6.38038,-3.15221 9.81709,-4.06467 6.87344,-1.82492 14.09659,-2.3766 20.72951,-4.94151 7.36818,-2.84923 13.57295,-8.00945 20.41569,-11.95726 3.42136,-1.9739 7.04672,-3.66079 10.898,-4.53813 3.85127,-0.87733 7.95353,-0.91355 11.69506,0.35255 3.56068,1.2049 6.65321,3.53142 9.28333,6.21707 2.63012,2.68566 4.84545,5.74167 7.12784,8.72847 6.26523,8.19888 13.12511,15.98641 18.51222,24.7872 4.64357,7.58609 8.23755,15.97872 14.46005,22.3342 5.76246,5.88561 13.47993,9.68958 18.75618,16.01473 1.98482,2.37939 3.6564,5.14136 6.28568,6.78083 1.31464,0.81974 2.86506,1.32252 4.40928,1.19744 0.77211,-0.0625 1.5343,-0.28247 2.2066,-0.66728 0.6723,-0.3848 1.25253,-0.93641 1.64549,-1.60398 0.62671,-1.06469 0.74884,-2.35842 0.64712,-3.58967 -0.1673,-2.025 -0.89979,-3.97946 -1.95368,-5.71668 -1.05389,-1.73722 -2.42287,-3.26688 -3.91332,-4.64788 -2.98092,-2.76201 -6.45369,-4.9511 -9.44119,-7.70598 -5.57418,-5.14015 -9.21205,-12.005 -12.48217,-18.84598 -3.27012,-6.84097 -6.33312,-13.88812 -11.07324,-19.80622 -4.30456,-5.37431 -9.96099,-9.78101 -13.01967,-15.95004 -1.28535,-2.5924 -2.07051,-5.55838 -1.47422,-8.38983 0.41657,-1.97807 1.47088,-3.75091 2.35438,-5.56907 0.44175,-0.90908 0.84523,-1.84177 1.105,-2.81855 0.25977,-0.97678 0.37304,-2.00241 0.22967,-3.00292 -0.17231,-1.20243 -0.71178,-2.33341 -1.43669,-3.30811 -0.72491,-0.9747 -1.6314,-1.801745 -2.59176,-2.545552 -3.36584,-2.606874 -7.45876,-4.238741 -11.68111,-4.783203 -3.62306,-0.467186 -7.39322,-0.16621 -10.83938,-1.378144 -3.11745,-1.096331 -5.77423,-3.437453 -7.26942,-6.384457 -1.9136,-3.771698 -1.88363,-8.309513 -0.69417,-12.368178 0.60855,-2.076497 1.5115,-4.078326 2.78126,-5.830435 1.26976,-1.752109 2.91473,-3.250057 4.84403,-4.229848 1.94257,-0.986529 4.12962,-1.429318 6.30686,-1.5093 2.17725,-0.07998 4.3533,0.192108 6.49831,0.57386 5.24399,0.933285 10.39763,2.539998 15.07084,5.095689 4.36548,2.387398 8.24689,5.561934 11.98326,8.84775 3.08154,2.709947 6.11273,5.54176 8.41517,8.938591 1.59116,2.34746 2.84047,5.058142 2.79339,7.893655 -0.032,1.928858 -0.66163,3.799685 -1.43696,5.566148 -0.77532,1.766464 -1.70312,3.466884 -2.38495,5.271494 -0.86131,2.27967 -1.31851,4.69507 -2.16248,6.98121 -0.55256,1.49678 -1.27422,2.95097 -1.52498,4.52666 -0.12538,0.78784 -0.12849,1.60283 0.0699,2.37552 0.19841,0.77269 0.6069,1.50191 1.21563,2.01754 0.67597,0.57258 1.5615,0.85417 2.44388,0.93282 0.88238,0.0787 1.7701,-0.032 2.64567,-0.16679 4.00606,-0.61665 7.92181,-1.74087 11.72907,-3.13138 12.3953,-4.52708 23.55685,-11.81327 35.24314,-17.942588 28.05215,-14.713008 59.21183,-22.790541 87.20449,-37.616415 13.8904,-7.356847 26.863,-16.303597 40.0464,-24.86304 19.048,-12.367046 38.9889,-24.125215 61.0735,-29.420372 2.3256,-0.5575947 4.7332,-1.0439471 7.0948,-0.6672551 2.1641,0.3451884 4.1686,1.4065487 5.8751,2.7814981 1.7065,1.374949 3.1381,3.05817 4.48,4.79077 3.6467,4.708499 6.7363,9.920816 8.4738,15.617267 1.6682,5.469021 2.0527,11.232975 2.4926,16.933804 0.4399,5.700828 0.961,11.469872 2.8798,16.856085 1.9427,5.45338 5.2415,10.301545 8.4817,15.098908 9.3475,13.839784 18.5981,28.026028 23.8041,43.894628 5.1487,15.6938 6.134,32.3883 8.1346,48.78349 4.833,39.60728 15.7511,78.18303 23.6612,117.29216 3.4288,16.95277 6.2958,34.02881 8.1583,51.22429 3.9,36.00731 3.3781,72.3269 4.7955,108.51706 0.778,19.86601 2.1418,39.72901 1.773,59.60683 -0.1193,6.42834 -0.4292,12.91636 -2.1146,19.12098 -2.5516,9.39362 -8.4436,18.00512 -16.773,23.04219 -6.0627,3.66632 -13.2985,5.45531 -18.5828,10.1749 -3.9481,3.52619 -6.4732,8.46391 -7.6724,13.61986 -1.1991,5.15595 -1.1404,10.53631 -0.5024,15.79128 1.2759,10.50994 4.8314,20.72573 5.1234,31.30881 0.3133,11.35557 -3.1395,22.42846 -6.2158,33.36389 -18.8507,67.00944 -24.6345,137.66848 -16.9318,206.85145"
       id="path897"
       inkscape:path-effect="#path-effect899"
       inkscape:original-d="m 635.45296,862.34612 c -8.3876,-49.86361 -16.77621,-99.72822 -25.16581,-149.59383 -8.38961,-49.86561 7.53201,-114.001 11.29651,-171.003 3.76451,-57.002 8.44468,-31.68615 12.66551,-47.53073 4.22084,-15.84458 24.9775,-72.82573 37.46475,-109.24009 12.48725,-36.41437 18.269,-32.77488 27.40199,-49.16381 9.133,-16.38894 10.21545,-42.03264 15.32167,-63.05045 5.10623,-21.01782 13.86244,-33.51411 20.79216,-50.27266 6.92972,-16.75855 2.44272,-41.90867 3.66258,-62.86451 1.21986,-20.95584 1.55275,-6.65014 2.32763,-9.97671 0.77488,-3.32657 25.16155,-11.13336 37.74083,-16.70155 12.57927,-5.56818 28.6735,-10.76089 43.00875,-16.14284 14.33526,-5.38194 10.94178,9.9647 16.41117,14.94554 5.46939,4.98085 12.34248,16.5258 18.51222,24.7872 6.16974,8.2614 9.64103,14.89046 14.46005,22.3342 4.81901,7.44373 12.50512,10.67749 18.75618,16.01473 6.25106,5.33725 9.69904,3.80567 14.54705,5.70701 4.84802,1.90133 0.43242,-2.39211 0.64712,-3.58967 0.21471,-1.19755 -10.20446,-12.04603 -15.30819,-18.07054 -5.10373,-6.02452 -15.7026,-25.76714 -23.55541,-38.6522 -7.8528,-12.88507 -8.67878,-10.63236 -13.01967,-15.95004 -4.34089,-5.31768 -0.98181,-5.59222 -1.47422,-8.38983 -0.4924,-2.79761 2.46037,-7.59269 3.68905,-11.39054 1.22868,-3.79784 -2.68463,-3.90144 -4.02845,-5.853662 -1.34381,-1.952222 -7.7864,-3.187802 -11.68111,-4.783203 -3.8947,-1.5954 -7.22525,-0.917762 -10.83938,-1.378144 -3.61413,-0.460381 -4.84528,-4.255304 -7.26942,-6.384457 -2.42414,-2.129152 -0.46178,-8.244452 -0.69417,-12.368178 -0.23239,-4.123726 5.08453,-6.705855 7.62529,-10.060283 2.54076,-3.354428 8.53778,-0.622627 12.80517,-0.93544 4.2674,-0.312813 10.04823,3.398126 15.07084,5.095689 5.02261,1.697563 7.98984,5.8995 11.98326,8.84775 3.99343,2.94825 5.61112,5.96006 8.41517,8.938591 2.80406,2.97853 1.86326,5.263437 2.79339,7.893655 0.93013,2.630219 -2.54694,7.226092 -3.82191,10.837642 -1.27497,3.61155 -1.44065,4.65514 -2.16248,6.98121 -0.72182,2.32607 -0.15862,5.94748 -0.23943,8.91972 -0.0808,2.97224 3.39403,0.51169 5.08955,0.76603 1.69552,0.25434 7.82038,-2.08658 11.72907,-3.13138 3.90869,-1.04479 23.49643,-11.96072 35.24314,-17.942588 11.74671,-5.981864 58.13731,-25.07661 87.20449,-37.616415 29.0671,-12.539804 26.6986,-16.57436 40.0464,-24.86304 13.3478,-8.28868 40.7166,-19.612581 61.0735,-29.420372 20.3568,-9.8077906 4.7309,-0.4438367 7.0948,-0.6672551 2.364,-0.2234184 6.9044,5.0491791 10.3551,7.5722681 3.4506,2.52309 5.6502,10.412511 8.4738,15.617267 2.8237,5.204755 3.5826,22.527593 5.3724,33.789889 1.7898,11.262297 5.6555,10.066939 8.4817,15.098908 2.8262,5.031969 15.8704,29.264088 23.8041,43.894628 7.9338,14.63054 5.4241,32.52332 8.1346,48.78349 2.7105,16.26016 15.7751,78.19577 23.6612,117.29216 7.8861,39.09639 5.4399,34.15053 8.1583,51.22429 2.7184,17.07377 3.198,72.34571 4.7955,108.51706 1.5975,36.17136 1.183,39.73888 1.773,59.60683 0.59,19.86794 -1.4088,12.74832 -2.1146,19.12098 -0.7059,6.37266 -11.181,15.36246 -16.773,23.04219 -5.5919,7.67973 -12.3876,6.78427 -18.5828,10.1749 -6.1953,3.39064 -2.0333,40.48097 -3.0514,60.71995 -1.0181,20.23899 -4.1429,22.24359 -6.2158,33.36389 -2.073,11.1203 -11.2869,137.90197 -16.9318,206.85145" />
  </g>
</svg>
