<?xml version="1.0" encoding="UTF-8" standalone="no"?>
<!-- Created with Inkscape (http://www.inkscape.org/) -->

<svg
   version="1.1"
   id="svg2"
   width="1893"
   height="1024"
   viewBox="0 0 1893 1024"
   sodipodi:docname="frame_0064.svg"
   inkscape:version="1.1.2 (0a00cf5339, 2022-02-04)"
   xmlns:inkscape="http://www.inkscape.org/namespaces/inkscape"
   xmlns:sodipodi="http://sodipodi.sourceforge.net/DTD/sodipodi-0.dtd"
   xmlns:xlink="http://www.w3.org/1999/xlink"
   xmlns="http://www.w3.org/2000/svg"
   xmlns:svg="http://www.w3.org/2000/svg">
  <defs
     id="defs6">
    <inkscape:path-effect
       effect="spiro"
       id="path-effect866"
       is_visible="true"
       lpeversion="1" />
    <inkscape:path-effect
       effect="spiro"
       id="path-effect862"
       is_visible="true"
       lpeversion="1" />
  </defs>
  <sodipodi:namedview
     id="namedview4"
     pagecolor="#ffffff"
     bordercolor="#666666"
     borderopacity="1.0"
     inkscape:pageshadow="2"
     inkscape:pageopacity="0.0"
     inkscape:pagecheckerboard="0"
     showgrid="false"
     inkscape:zoom="3.7921543"
     inkscape:cx="1219.6234"
     inkscape:cy="791.76631"
     inkscape:window-width="1850"
     inkscape:window-height="1016"
     inkscape:window-x="70"
     inkscape:window-y="27"
     inkscape:window-maximized="1"
     inkscape:current-layer="g8" />
  <g
     inkscape:groupmode="layer"
     inkscape:label="Image"
     id="g8">
    
    <path
       style="font-variation-settings:normal;opacity:1;vector-effect:none;fill:none;fill-opacity:1;stroke:#c86487;stroke-width:1px;stroke-linecap:butt;stroke-linejoin:miter;stroke-miterlimit:4;stroke-dasharray:none;stroke-dashoffset:0;stroke-opacity:1;-inkscape-stroke:none;stop-color:#000000;stop-opacity:1"
       d="m 1160.6512,862.70767 -525.17134,0.0835"
       id="path860"
       inkscape:path-effect="#path-effect862"
       inkscape:original-d="m 1160.6512,862.70767 c -175.05609,0.0288 -350.11322,0.0567 -525.17134,0.0835" />
    <path
       style="font-variation-settings:normal;opacity:1;vector-effect:none;fill:none;fill-opacity:1;stroke:#c86487;stroke-width:1px;stroke-linecap:butt;stroke-linejoin:miter;stroke-miterlimit:4;stroke-dasharray:none;stroke-dashoffset:0;stroke-opacity:1;-inkscape-stroke:none;stop-color:#000000;stop-opacity:1"
       d="m 635.47986,862.79117 c -13.40224,-80.23475 -20.37176,-161.5431 -20.81969,-242.88825 -0.33237,-60.35923 3.26058,-122.26457 27.15789,-177.69259 12.72244,-29.50875 30.93925,-56.50986 42.25702,-86.58535 10.04017,-26.68044 14.42922,-55.20774 24.25691,-81.96718 3.55098,-9.66883 7.81906,-19.13205 10.07088,-29.18317 4.21036,-18.79318 1.13351,-38.41102 2.72145,-57.60448 0.83682,-10.1146 3.14458,-20.4898 9.32217,-28.5423 4.14562,-5.40382 9.79685,-9.44956 15.60118,-13.01288 5.80433,-3.56331 11.86712,-6.7406 17.31633,-10.82638 4.34264,-3.25608 8.25271,-7.05805 12.58378,-10.32951 4.33106,-3.27146 9.21789,-6.05143 14.58932,-6.83135 4.58794,-0.66616 9.30769,0.17356 13.62932,1.8518 4.32163,1.67824 8.28194,4.16966 12.04705,6.87464 7.99396,5.74314 15.24891,12.53083 21.39437,20.21981 7.46518,9.34017 13.24575,19.93024 20.68389,29.29195 6.71801,8.45536 14.71895,15.81781 23.14527,22.5722 0.56642,0.45403 1.14339,0.91065 1.80904,1.20025 0.33283,0.14481 0.6864,0.24628 1.04804,0.27728 0.36164,0.031 0.73171,-0.01 1.07045,-0.1402 0.53328,-0.20526 0.96923,-0.62869 1.23746,-1.13325 0.26822,-0.50456 0.37557,-1.08544 0.35968,-1.65664 -0.0318,-1.1424 -0.53386,-2.21333 -1.04698,-3.2345 -10.23403,-20.36685 -28.34874,-35.72581 -39.96389,-55.33785 -3.42056,-5.77558 -6.30711,-12.0777 -6.73505,-18.77654 -0.18833,-2.948 0.10462,-5.90641 0.0274,-8.85941 -0.0772,-2.953 -0.56105,-5.99204 -2.14305,-8.48672 -1.83473,-2.893202 -5.10092,-4.798175 -8.51479,-5.085102 -2.62193,-0.220367 -5.22425,0.450008 -7.8248,0.85031 -1.30027,0.200151 -2.61781,0.333513 -3.93097,0.253619 -1.31316,-0.0799 -2.62702,-0.379724 -3.78441,-1.005199 -1.2088,-0.653258 -2.21948,-1.651633 -2.94175,-2.820507 -0.72228,-1.168873 -1.16039,-2.504165 -1.33438,-3.867129 -0.34798,-2.725929 0.35343,-5.503045 1.52423,-7.989209 2.9831,-6.334558 9.2013,-11.062601 16.11877,-12.14617 4.61364,-0.722692 9.40101,0.114386 13.67655,1.992607 4.27554,1.878221 8.05963,4.764285 11.31551,8.111995 4.17114,4.288782 7.51552,9.339118 11.81919,13.4949 2.25306,2.17564 4.77805,4.117327 6.59186,6.670715 0.9069,1.2767 1.62585,2.70495 1.95819,4.2353 0.33234,1.53035 0.26238,3.16836 -0.3437,4.61234 -0.4993,1.18958 -1.33819,2.20694 -2.25648,3.11311 -0.91829,0.90617 -1.92529,1.71845 -2.84892,2.61918 -0.92363,0.90073 -1.77366,1.90688 -2.29398,3.08742 -0.52031,1.18055 -0.6843,2.55838 -0.23414,3.76741 0.43627,1.17174 1.41119,2.08709 2.52241,2.66024 1.11121,0.57315 2.35593,0.83577 3.59505,1.00271 6.96167,0.9379 14.01167,-0.97883 20.49933,-3.67231 15.84532,-6.57849 29.34451,-17.69126 44.39823,-25.921456 14.51925,-7.937992 30.34433,-13.121709 45.83356,-18.944432 21.8361,-8.208658 43.1777,-17.766583 63.6754,-28.904025 22.471,-12.209623 43.88,-26.28904 64.7413,-41.0818134 0.5554,-0.3938418 1.1149,-0.7907741 1.7357,-1.0704336 0.6208,-0.2796595 1.3144,-0.4376169 1.9865,-0.3283928 0.7094,0.1152866 1.3531,0.5267212 1.8153,1.0770301 0.4623,0.5503089 0.7513,1.2320263 0.9022,1.9346739 0.3018,1.4052948 0.069,2.8613528 -0.062,4.2927898 -0.6554,7.212482 1.3657,14.446595 4.4075,21.019063 3.0417,6.572469 7.0882,12.619113 10.7873,18.845364 16.1461,27.176958 25.6479,57.738002 33.6939,88.308372 13.6728,51.94937 23.5476,104.82951 31.9527,157.88644 6.7478,42.59523 12.565,85.44538 13.6896,128.55711 0.6672,25.57969 -0.2993,51.41406 4.7061,76.50811 0.3361,1.68501 0.7007,3.38508 0.6384,5.10215 -0.1061,2.92388 -1.4515,5.68338 -3.2027,8.02729 -1.7511,2.34391 -3.9086,4.34686 -5.9285,6.46352 -10.5767,11.08331 -17.3209,25.21171 -23.2808,39.32505 -7.8808,18.66204 -14.7932,38.22155 -15.0444,58.47781 -0.1484,11.96898 2.0373,23.82476 3.8033,35.66367 10.1942,68.34007 6.4243,138.73265 -11.0108,205.593"
       id="path864"
       inkscape:path-effect="#path-effect866"
       inkscape:original-d="m 635.47986,862.79117 c -6.9389,-80.96175 -13.8788,-161.9245 -20.81969,-242.88825 -6.9409,-80.96375 18.10626,-118.46072 27.15789,-177.69259 9.05163,-59.23186 28.17235,-57.72257 42.25702,-86.58535 14.08467,-28.86279 16.17227,-54.64379 24.25691,-81.96718 8.08464,-27.32339 6.71492,-19.45445 10.07088,-29.18317 3.35595,-9.72872 1.8153,-38.40199 2.72145,-57.60448 0.90616,-19.20249 6.21578,-19.0272 9.32217,-28.5423 3.10638,-9.5151 21.94601,-15.89184 32.91751,-23.83926 10.97151,-7.94743 18.1164,-11.43958 27.1731,-17.16086 9.05669,-5.72129 17.11858,5.81863 25.67637,8.72644 8.55779,2.90782 14.26391,13.48087 21.39437,20.21981 7.13045,6.73893 13.79026,19.52897 20.68389,29.29195 6.89363,9.76299 15.43118,15.04914 23.14527,22.5722 7.71409,7.52307 2.61935,0.89255 3.92753,1.33733 1.30817,0.44477 0.36777,-4.01526 0.55016,-6.02439 0.18239,-2.00914 -26.64159,-36.8909 -39.96389,-55.33785 -13.32229,-18.44695 -4.48903,-12.51669 -6.73505,-18.77654 -2.24602,-6.25985 -1.40941,-11.56308 -2.11561,-17.34613 -0.7062,-5.783037 -5.67553,-3.389067 -8.51479,-5.085102 -2.83926,-1.696036 -10.35912,0.06682 -15.54018,0.09873 -5.18106,0.03191 -1.8336,-9.783563 -2.7519,-14.676845 -0.9183,-4.893281 10.74684,-8.096446 16.11877,-12.14617 5.37192,-4.049723 16.66237,6.737401 24.99206,10.104602 8.32969,3.3672 7.88046,8.9976 11.81919,13.4949 3.93873,4.4973 5.4719,10.346575 8.20635,15.518355 2.73445,5.17179 -5.08801,8.39242 -7.63352,12.58712 -2.54551,4.19471 4.07931,2.44296 6.11746,3.66295 2.03815,1.21998 13.66722,-2.44721 20.49933,-3.67231 6.83211,-1.22511 29.59982,-17.27997 44.39823,-25.921456 14.79841,-8.641485 30.55671,-12.628622 45.83356,-18.944432 15.27685,-6.315811 42.4513,-19.26835 63.6754,-28.904025 21.2242,-9.635675 43.1619,-27.386876 64.7413,-41.0818134 21.5794,-13.6949378 2.4825,-0.9315509 3.7222,-1.3988264 1.2398,-0.4672754 1.7717,4.8706628 2.656,7.3044938 0.8843,2.433832 10.1308,26.577285 15.1948,39.864427 5.0639,13.287143 22.4636,58.873242 33.6939,88.308372 11.2304,29.43512 21.3028,105.25862 31.9527,157.88644 10.6498,52.62781 9.1274,85.70574 13.6896,128.55711 4.5622,42.85137 3.1384,51.00641 4.7061,76.50811 1.5677,25.50171 0.4266,3.40244 0.6384,5.10215 0.2118,1.69972 -6.0864,9.66154 -9.1312,14.49081 -3.0447,4.82926 -15.5195,26.2177 -23.2808,39.32505 -7.7612,13.10735 -10.0286,38.98621 -15.0444,58.47781 -5.0158,19.4916 2.5365,23.77678 3.8033,35.66367 1.2668,11.88689 -7.3395,137.063 -11.0108,205.593" />
  </g>
</svg>
