<?xml version="1.0" encoding="UTF-8" standalone="no"?>
<!-- Created with Inkscape (http://www.inkscape.org/) -->

<svg
   version="1.1"
   id="svg2"
   width="1893"
   height="1024"
   viewBox="0 0 1893 1024"
   sodipodi:docname="frame_0045.svg"
   inkscape:version="1.1.2 (0a00cf5339, 2022-02-04)"
   xmlns:inkscape="http://www.inkscape.org/namespaces/inkscape"
   xmlns:sodipodi="http://sodipodi.sourceforge.net/DTD/sodipodi-0.dtd"
   xmlns:xlink="http://www.w3.org/1999/xlink"
   xmlns="http://www.w3.org/2000/svg"
   xmlns:svg="http://www.w3.org/2000/svg">
  <defs
     id="defs6">
    <inkscape:path-effect
       effect="spiro"
       id="path-effect899"
       is_visible="true"
       lpeversion="1" />
    <inkscape:path-effect
       effect="spiro"
       id="path-effect862"
       is_visible="true"
       lpeversion="1" />
  </defs>
  <sodipodi:namedview
     id="namedview4"
     pagecolor="#ffffff"
     bordercolor="#666666"
     borderopacity="1.0"
     inkscape:pageshadow="2"
     inkscape:pageopacity="0.0"
     inkscape:pagecheckerboard="0"
     showgrid="false"
     inkscape:zoom="2.681458"
     inkscape:cx="1180.328"
     inkscape:cy="781.47784"
     inkscape:window-width="1850"
     inkscape:window-height="1016"
     inkscape:window-x="70"
     inkscape:window-y="27"
     inkscape:window-maximized="1"
     inkscape:current-layer="g8" />
  <g
     inkscape:groupmode="layer"
     inkscape:label="Image"
     id="g8">
    
    <path
       style="font-variation-settings:normal;opacity:1;vector-effect:none;fill:none;fill-opacity:1;stroke:#c86487;stroke-width:1px;stroke-linecap:butt;stroke-linejoin:miter;stroke-miterlimit:4;stroke-dasharray:none;stroke-dashoffset:0;stroke-opacity:1;-inkscape-stroke:none;stop-color:#000000;stop-opacity:1"
       d="M 1161.1735,862.84372 635.49501,862.345"
       id="path860"
       inkscape:path-effect="#path-effect862"
       inkscape:original-d="M 1161.1735,862.84372 635.49501,862.345" />
    <path
       style="font-variation-settings:normal;opacity:1;vector-effect:none;fill:none;fill-opacity:1;stroke:#c86487;stroke-width:1px;stroke-linecap:butt;stroke-linejoin:miter;stroke-miterlimit:4;stroke-dasharray:none;stroke-dashoffset:0;stroke-opacity:1;-inkscape-stroke:none;stop-color:#000000;stop-opacity:1"
       d="m 635.49501,862.345 c -13.14926,-39.17572 -23.04185,-79.44398 -29.54225,-120.2531 -9.0233,-56.64775 -11.43904,-115.02583 0.69972,-171.08864 3.67386,-16.9677 8.65952,-33.63677 12.08698,-50.65595 3.89508,-19.34121 5.7852,-39.15762 11.74745,-57.96468 9.21116,-29.05527 27.68662,-54.31741 38.62938,-82.76578 5.29529,-13.76641 8.78254,-28.16903 13.93911,-41.988 5.13889,-13.77158 11.9011,-26.87312 17.68169,-40.38791 5.78059,-13.51478 10.62328,-27.65483 11.61107,-42.32074 0.69739,-10.35423 -0.53447,-20.85656 1.30975,-31.06906 0.7034,-3.89516 1.8477,-7.70023 2.55311,-11.59503 0.7054,-3.8948 0.95936,-7.96049 -0.11203,-11.77089 -0.91653,-3.25963 -2.7517,-6.16877 -4.43238,-9.10825 -1.68069,-2.93948 -3.25701,-6.05354 -3.56673,-9.42538 -0.33775,-3.67695 0.88442,-7.37094 2.82537,-10.51208 1.94094,-3.14114 4.56962,-5.79476 7.27363,-8.30919 10.97983,-10.21003 23.62884,-18.62539 37.30366,-24.7736 8.74258,-3.93067 17.89104,-6.93572 27.22022,-9.1378 5.1519,-1.21607 10.41122,-2.19289 15.70243,-2.03824 5.29122,0.15464 10.65751,1.50931 14.95538,4.59948 3.53793,2.54377 6.19315,6.13113 8.42433,9.87407 2.23117,3.74293 4.0977,7.69761 6.41347,11.3888 5.98974,9.54727 14.73306,16.97118 22.80348,24.83856 13.54303,13.2023 25.44627,27.96565 37.64703,42.4175 0.80087,0.94863 1.61727,1.90887 2.64805,2.6008 0.51538,0.34597 1.08228,0.62127 1.68443,0.77204 0.60215,0.15077 1.24069,0.17429 1.8439,0.0278 0.66394,-0.16125 1.28478,-0.53849 1.68162,-1.09467 0.47394,-0.66423 0.5965,-1.53168 0.48415,-2.33989 -0.11236,-0.8082 -0.43984,-1.57008 -0.80135,-2.3016 -1.91092,-3.86674 -4.82836,-7.1422 -7.89895,-10.17119 -3.07059,-3.02898 -6.33738,-5.87211 -9.14812,-9.14366 -3.94822,-4.59553 -6.91233,-9.93592 -9.88998,-15.21237 -12.68164,-22.47211 -26.19009,-44.62208 -42.83367,-64.34037 -5.60005,-6.63459 -11.53908,-12.97455 -17.52434,-19.263823 -2.08667,-2.192658 -4.25196,-4.503536 -5.07122,-7.417424 -0.42193,-1.500694 -0.45805,-3.103286 -0.14394,-4.630192 0.31412,-1.526906 0.97486,-2.977114 1.88801,-4.240549 1.8263,-2.52687 4.63507,-4.258983 7.64711,-5.064009 3.01203,-0.805025 6.21606,-0.725015 9.26758,-0.08571 3.05151,0.639303 5.96541,1.822776 8.76174,3.201536 7.91193,3.901059 15.0183,9.429001 20.73898,16.143961 3.46614,4.068573 6.41452,8.547793 9.28026,13.059443 1.50846,2.37482 3.00387,4.77207 4.82879,6.91331 1.82491,2.14124 4.00882,4.03436 6.58747,5.15942 3.07432,1.34131 6.57341,1.51978 9.87331,0.91875 3.29989,-0.60103 6.42365,-1.94675 9.36829,-3.55288 11.07899,-6.04296 19.82059,-15.74244 30.88759,-21.807333 11.83883,-6.487866 25.5394,-8.41276 38.60065,-11.826551 19.4789,-5.091157 37.97362,-13.685205 54.85116,-24.662277 8.9175,-5.79989 17.3983,-12.264966 25.414,-19.258504 7.1781,-6.262828 14.024,-12.980219 21.962,-18.246916 7.9379,-5.266698 17.2283,-9.060999 26.7446,-8.626352 2.3141,0.105695 4.6402,0.466788 6.7815,1.350704 2.356,0.972553 4.4283,2.55706 6.1679,4.419888 1.7397,1.862829 3.1602,4.002128 4.4211,6.217259 2.5217,4.430263 4.4485,9.220622 7.4638,13.33088 2.759,3.760953 6.3366,6.825717 9.6591,10.099551 3.3225,3.273835 6.4828,6.897524 8.0814,11.279494 1.8119,4.966812 1.4541,10.451401 0.6399,15.675327 -0.8142,5.223925 -2.0637,10.428112 -1.9602,15.714095 0.1522,7.772405 3.233,15.219165 7.1758,21.919015 3.9428,6.69985 8.7699,12.83797 12.8913,19.42947 12.16,19.44812 17.8516,42.41543 19.3583,65.30265 1.0199,15.49242 0.2288,31.25077 3.9195,46.33168 2.6042,10.64106 7.3707,20.62639 10.5337,31.11493 4.1149,13.64515 5.4623,27.94253 7.0607,42.10473 3.5576,31.52183 8.461,62.9092 10.6707,94.55409 2.0128,28.82464 1.7827,57.75396 2.74,86.63292 0.1892,5.70686 0.4242,11.43276 -0.1201,17.11675 -0.5443,5.68399 -1.8997,11.36742 -4.7061,16.34015 -2.5052,4.43897 -6.1214,8.2106 -10.3015,11.12735 -3.2814,2.28967 -6.8958,4.06027 -10.2457,6.24849 -9.884,6.45641 -17.1744,16.44062 -21.5613,27.40113 -7.9263,19.80345 -6.659,41.9175 -5.4171,63.2121 4.2746,73.29577 6.7822,146.69459 7.5198,220.1112"
       id="path897"
       inkscape:path-effect="#path-effect899"
       inkscape:original-d="m 635.49501,862.345 c -9.84642,-40.08337 -19.69384,-80.16774 -29.54225,-120.2531 -9.84842,-40.08537 0.46748,-114.05809 0.69972,-171.08864 0.23223,-57.03054 8.05898,-33.76963 12.08698,-50.65595 4.02799,-16.88632 7.83263,-38.64212 11.74745,-57.96468 3.91482,-19.32256 25.75392,-55.17618 38.62938,-82.76578 12.87547,-27.58959 9.29374,-27.991 13.93911,-41.988 4.64537,-13.997 19.52951,-55.1381 29.29276,-82.70865 9.76325,-27.57055 0.87417,-20.71171 1.30975,-31.06906 0.43559,-10.35735 1.62839,-15.57628 2.44108,-23.36592 0.8127,-7.78964 -5.33174,-12.35475 -7.99911,-18.53363 -2.66737,-6.17888 6.73367,-12.54651 10.099,-18.82127 3.36533,-6.27475 24.8701,-16.51473 37.30366,-24.7736 12.43355,-8.25886 18.14781,-6.09087 27.22022,-9.1378 9.0724,-3.04694 20.43954,1.7085 30.65781,2.56124 10.21827,0.85275 9.89286,14.17625 14.8378,21.26287 4.94493,7.08663 15.20332,16.56004 22.80348,24.83856 7.60017,8.27853 25.09902,28.27933 37.64703,42.4175 12.54801,14.13816 4.11859,2.26808 6.17638,3.40063 2.0578,1.13254 1.12208,-0.72878 1.68162,-1.09467 0.55954,-0.36589 -0.21047,-3.09332 -0.3172,-4.64149 -0.10673,-1.54816 -11.36371,-12.87556 -17.04707,-19.31485 -5.68335,-6.43928 -6.59232,-10.14058 -9.88998,-15.21237 -3.29765,-5.0718 -28.55478,-42.89258 -42.83367,-64.34037 -14.27889,-21.447794 -11.68189,-12.84155 -17.52434,-19.263823 -5.84245,-6.422273 -3.37981,-4.943949 -5.07122,-7.417424 -1.6914,-2.473475 18.28133,-7.211618 27.4205,-10.818927 9.13916,-3.607309 13.82698,10.763641 20.73898,16.143961 6.91199,5.380323 6.18784,8.707293 9.28026,13.059443 3.09242,4.35215 7.61184,8.04949 11.41626,12.07273 3.80442,4.02324 12.82873,-1.75509 19.2416,-2.63413 6.41287,-0.87905 20.59272,-14.53722 30.88759,-21.807333 10.29486,-7.270109 25.73477,-7.883368 38.60065,-11.826551 12.86589,-3.943184 36.56845,-16.440518 54.85116,-24.662277 18.2827,-8.221759 16.9437,-12.838003 25.414,-19.258504 8.4703,-6.420501 32.472,-17.914512 48.7066,-26.873268 16.2345,-8.9587563 4.522,0.901469 6.7815,1.350704 2.2596,0.449235 12.0362,15.979684 18.0528,23.968027 6.0166,7.988342 11.828,14.253696 17.7405,21.379045 5.9125,7.125348 -0.8792,20.927281 -1.3203,31.389422 -0.441,10.462145 13.3791,27.566655 20.0671,41.348485 6.688,13.78183 12.9065,43.5361 19.3583,65.30265 6.4518,21.76654 2.614,30.88878 3.9195,46.33168 1.3055,15.44289 7.0234,20.74428 10.5337,31.11493 3.5102,10.37064 4.7081,28.07082 7.0607,42.10473 2.3526,14.03391 7.1148,63.03706 10.6707,94.55409 3.5559,31.51702 1.8277,57.75628 2.74,86.63292 0.9124,28.87664 -3.2164,22.3056 -4.8262,33.4569 -1.6097,11.15129 -6.8667,7.41923 -10.3015,11.12735 -3.4349,3.70811 -6.8295,4.16666 -10.2457,6.24849 -3.4162,2.08183 -14.3732,18.26842 -21.5613,27.40113 -7.1881,9.13271 -3.6104,42.1424 -5.4171,63.2121 -1.8067,21.06971 5.0142,146.7418 7.5198,220.1112" />
  </g>
</svg>
