<?xml version="1.0" encoding="UTF-8" standalone="no"?>
<!-- Created with Inkscape (http://www.inkscape.org/) -->

<svg
   version="1.1"
   id="svg2"
   width="1893"
   height="1024"
   viewBox="0 0 1893 1024"
   sodipodi:docname="frame_0134.svg"
   inkscape:version="1.1.2 (0a00cf5339, 2022-02-04)"
   xmlns:inkscape="http://www.inkscape.org/namespaces/inkscape"
   xmlns:sodipodi="http://sodipodi.sourceforge.net/DTD/sodipodi-0.dtd"
   xmlns:xlink="http://www.w3.org/1999/xlink"
   xmlns="http://www.w3.org/2000/svg"
   xmlns:svg="http://www.w3.org/2000/svg">
  <defs
     id="defs6">
    <inkscape:path-effect
       effect="spiro"
       id="path-effect899"
       is_visible="true"
       lpeversion="1" />
    <inkscape:path-effect
       effect="spiro"
       id="path-effect862"
       is_visible="true"
       lpeversion="1" />
  </defs>
  <sodipodi:namedview
     id="namedview4"
     pagecolor="#ffffff"
     bordercolor="#666666"
     borderopacity="1.0"
     inkscape:pageshadow="2"
     inkscape:pageopacity="0.0"
     inkscape:pagecheckerboard="0"
     showgrid="false"
     inkscape:zoom="0.94803857"
     inkscape:cx="819.58691"
     inkscape:cy="339.12122"
     inkscape:window-width="1850"
     inkscape:window-height="1016"
     inkscape:window-x="70"
     inkscape:window-y="27"
     inkscape:window-maximized="1"
     inkscape:current-layer="g8" />
  <g
     inkscape:groupmode="layer"
     inkscape:label="Image"
     id="g8">
    
    <path
       style="font-variation-settings:normal;opacity:1;vector-effect:none;fill:none;fill-opacity:1;stroke:#c86487;stroke-width:1px;stroke-linecap:butt;stroke-linejoin:miter;stroke-miterlimit:4;stroke-dasharray:none;stroke-dashoffset:0;stroke-opacity:1;-inkscape-stroke:none;stop-color:#000000;stop-opacity:1"
       d="M 1160.898,862.24171 H 635.8995"
       id="path860"
       inkscape:path-effect="#path-effect862"
       inkscape:original-d="M 1160.898,862.24171 H 635.8995" />
    <path
       style="font-variation-settings:normal;opacity:1;vector-effect:none;fill:none;fill-opacity:1;stroke:#c86487;stroke-width:1px;stroke-linecap:butt;stroke-linejoin:miter;stroke-miterlimit:4;stroke-dasharray:none;stroke-dashoffset:0;stroke-opacity:1;-inkscape-stroke:none;stop-color:#000000;stop-opacity:1"
       d="m 635.8995,862.24171 c 9.60475,-56.83663 8.20194,-115.51267 -4.10794,-171.82537 -7.72732,-35.34934 -19.786,-70.6448 -17.09443,-106.72863 3.13357,-42.00944 25.95826,-80.23039 32.2437,-121.88499 1.64579,-10.90688 2.14523,-21.99025 4.4254,-32.78236 4.20376,-19.89649 14.32416,-38.09878 26.23296,-54.58279 6.25125,-8.65291 13.0598,-16.97554 18.07176,-26.40057 10.8898,-20.47837 12.51973,-44.55911 20.57498,-66.30915 7.12426,-19.23628 19.27774,-36.6615 23.48193,-56.73921 2.32073,-11.08298 2.10445,-22.59978 0.29821,-33.77814 -1.28523,-7.95396 -3.36962,-15.81183 -3.73796,-23.86053 -0.18417,-4.02436 0.0683,-8.09007 1.05477,-11.99599 0.98645,-3.90592 2.72549,-7.65399 5.31381,-10.74105 2.77268,-3.30694 6.44282,-5.77275 10.34709,-7.61128 3.90428,-1.83853 8.05823,-3.08177 12.21206,-4.25193 17.09901,-4.81688 34.82101,-8.64036 50.0355,-17.81084 2.71962,-1.63924 5.36135,-3.45076 8.30367,-4.645 2.94233,-1.19423 6.28728,-1.73105 9.29817,-0.72208 2.44346,0.81882 4.47597,2.59341 6.03365,4.64636 1.55768,2.05295 2.68991,4.39029 3.81683,6.70784 2.76671,5.68985 5.56605,11.36745 8.64216,16.89616 12.08819,21.72615 28.26568,40.84529 44.05589,60.04996 2.68438,3.26484 5.48198,6.63452 9.2809,8.48744 0.92257,0.44998 1.89855,0.80453 2.91254,0.96402 1.01399,0.1595 2.0689,0.1189 3.0438,-0.20232 1.7079,-0.56274 3.08043,-1.99743 3.66195,-3.69903 0.40079,-1.17277 0.44452,-2.45266 0.21599,-3.67078 -0.22854,-1.21811 -0.72235,-2.37696 -1.36288,-3.43797 -1.28105,-2.12204 -3.12043,-3.83745 -4.87627,-5.58706 -6.96952,-6.9448 -12.93231,-14.81766 -18.92709,-22.6194 -7.24803,-9.43274 -14.59086,-18.82008 -20.96423,-28.86452 -4.00741,-6.31568 -7.63926,-12.91512 -10.13546,-19.96608 -1.78992,-5.05594 -2.99056,-10.3709 -2.95377,-15.7342 0.0118,-1.71342 0.14928,-3.4308 -0.002,-5.137607 -0.1509,-1.706801 -0.61619,-3.43675 -1.67658,-4.782677 -0.82486,-1.046972 -1.97596,-1.811427 -3.22138,-2.286254 -1.24543,-0.474827 -2.58424,-0.670636 -3.91672,-0.702569 -2.66497,-0.06386 -5.30207,0.513051 -7.96306,0.672046 -2.74233,0.163855 -5.52966,-0.124644 -8.12185,-1.034459 -2.5922,-0.909814 -4.98396,-2.457682 -6.73141,-4.577506 -2.66621,-3.234368 -3.67594,-7.70128 -2.92909,-11.825844 0.74685,-4.124564 3.17064,-7.871274 6.45795,-10.471926 3.28731,-2.600652 7.39344,-4.082796 11.56692,-4.472541 4.17347,-0.389744 8.41001,0.28282 12.36602,1.668393 6.76291,2.368675 12.61259,6.718594 18.57813,10.688461 3.00365,1.998826 6.17594,4.030575 7.99272,7.147707 0.97602,1.674598 1.50398,3.589253 1.67037,5.520367 0.1664,1.931115 -0.0205,3.881108 -0.40612,5.780634 -0.62246,3.066331 -1.75666,6.009506 -2.40274,9.070948 -0.72465,3.433747 -0.82631,6.972597 -1.49173,10.418307 -0.3252,1.68398 -0.78677,3.36477 -0.74191,5.07928 0.0224,0.85725 0.17508,1.71819 0.52218,2.50235 0.3471,0.78417 0.89587,1.48941 1.61529,1.95612 0.93786,0.60841 2.08882,0.77622 3.20294,0.86835 3.29182,0.27221 6.61161,0.0118 9.86876,-0.53698 10.97896,-1.84972 21.1198,-6.89956 31.07177,-11.89128 20.69556,-10.380489 41.38207,-20.779898 62.16667,-30.980943 27.4817,-13.487986 55.1785,-26.652595 81.4505,-42.367336 11.6214,-6.951413 22.9752,-14.407721 35.1464,-20.344088 6.4144,-3.128531 13.1426,-5.8529775 20.2307,-6.6843137 5.2487,-0.6156044 10.8358,-0.098083 15.3104,2.7137455 3.4611,2.1749422 6.0125,5.5709462 7.8543,9.2201822 1.8419,3.649235 3.0381,7.582068 4.321,11.463218 4.4575,13.484733 10.052,26.564414 14.8423,39.93453 11.2839,31.494145 18.0391,64.396565 24.7628,97.168515 7.9465,38.73196 15.9,77.4675 22.8833,116.38465 5.9889,33.37503 11.2678,66.91675 14.0216,100.71284 1.3066,16.0355 2.0437,32.12804 1.755,48.21409 -0.3942,21.96221 -2.6821,44.15897 1.4103,65.74012 0.7385,3.89443 1.6819,7.74723 2.4554,11.63487 0.3294,1.65583 0.6291,3.33111 0.5988,5.01912 -0.03,1.68801 -0.4105,3.40589 -1.3447,4.81215 -1.0237,1.54093 -2.6467,2.60777 -4.3739,3.27048 -1.7272,0.66271 -3.5706,0.95571 -5.4009,1.22472 -3.3002,0.48506 -6.624,0.90867 -9.8298,1.83028 -3.2058,0.92162 -6.3217,2.37487 -8.7397,4.67273 -2.7225,2.58727 -4.4116,6.10736 -5.3901,9.73348 -0.9784,3.62613 -1.2971,7.39213 -1.6426,11.13202 -3.1869,34.49652 -8.9927,68.68854 -13.88,102.98549 -9.8029,68.7923 -15.9198,138.10969 -18.3158,207.55562"
       id="path897"
       inkscape:path-effect="#path-effect899"
       inkscape:original-d="m 635.8995,862.24171 c -1.36831,-57.27412 -2.73762,-114.54925 -4.10794,-171.82537 -1.37031,-57.27612 -11.39528,-71.15142 -17.09443,-106.72863 -5.69914,-35.57721 21.4968,-81.25566 32.2437,-121.88499 10.7469,-40.62932 2.95127,-21.85391 4.4254,-32.78236 1.47414,-10.92846 17.48964,-36.38752 26.23296,-54.58279 8.74332,-18.19526 12.04884,-17.59938 18.07176,-26.40057 6.02292,-8.80119 13.71765,-44.2051 20.57498,-66.30915 6.85732,-22.10405 15.65562,-37.82514 23.48193,-56.73921 7.82631,-18.91406 0.19981,-22.51776 0.29821,-33.77814 0.0984,-11.26038 1.75475,-31.06405 2.63062,-46.59757 0.87587,-15.53353 15.04044,-7.90781 22.55915,-11.86321 7.51872,-3.95541 33.358,-11.87289 50.0355,-17.81084 16.67749,-5.93795 11.73556,-3.57705 17.60184,-5.36708 5.86628,-1.79002 6.56799,7.57047 9.85048,11.3542 3.28249,3.78373 5.76244,11.26511 8.64216,16.89616 2.87972,5.63105 29.37159,40.03431 44.05589,60.04996 14.6843,20.01566 6.18826,5.65929 9.2809,8.48744 3.09263,2.82814 3.97189,0.5088 5.95634,0.7617 1.98444,0.2529 2.4423,-2.46502 3.66195,-3.69903 1.21965,-1.23401 -4.01444,-8.46287 -6.02316,-12.69581 -2.00872,-4.23293 -12.61706,-15.0786 -18.92709,-22.6194 -6.31003,-7.5408 -13.97515,-19.24201 -20.96423,-28.86452 -6.98907,-9.6225 -6.75598,-13.30972 -10.13546,-19.96608 -3.37949,-6.65636 -1.96818,-10.48846 -2.95377,-15.7342 -0.98559,-5.245732 -1.1178,-6.612522 -1.6782,-9.920284 -0.56039,-3.307762 -10.06644,-1.543518 -15.10116,-2.316777 -5.03472,-0.77326 -9.90117,-3.74031 -14.85326,-5.611965 -4.95209,-1.871655 18.30887,-16.733612 27.4618,-25.101918 9.15293,-8.368306 12.38642,7.126641 18.57813,10.688461 6.19171,3.561821 5.32948,4.766138 7.99272,7.147707 2.66325,2.381569 0.84383,7.535001 1.26425,11.301001 0.42041,3.766001 -1.60083,6.048299 -2.40274,9.070948 -0.80191,3.022647 -0.99349,6.946537 -1.49173,10.418307 -0.49824,3.47177 0.93137,6.3595 1.39556,9.53775 0.46418,3.17825 2.1363,0.5799 3.20294,0.86835 1.06665,0.28846 6.58017,-0.35699 9.86876,-0.53698 3.28858,-0.18 20.71551,-7.92652 31.07177,-11.89128 10.35626,-3.96476 41.44545,-20.652962 62.16667,-30.980943 20.7212,-10.327981 54.3013,-28.24389 81.4505,-42.367336 27.1491,-14.123445 23.4319,-13.561725 35.1464,-20.344088 11.7145,-6.782363 13.4881,-4.4552092 20.2307,-6.6843137 6.7425,-2.2291045 10.2079,1.8101636 15.3104,2.7137455 5.1025,0.9035822 8.1179,13.7899332 12.1753,20.6834002 4.0575,6.893467 9.8959,26.62402 14.8423,39.93453 4.9464,13.31051 16.5095,64.780005 24.7628,97.168515 8.2533,32.3885 15.2565,77.59077 22.8833,116.38465 7.6268,38.79389 9.3487,67.1429 14.0216,100.71284 4.6729,33.56995 1.171,32.14373 1.755,48.21409 0.584,16.07037 0.9412,43.82775 1.4103,65.74012 0.4691,21.91237 1.6379,7.75758 2.4554,11.63487 0.8174,3.87729 -0.4963,6.55518 -0.7459,9.83127 -0.2496,3.27608 -6.5156,2.9978 -9.7748,4.4952 -3.2593,1.49741 -12.3787,4.33634 -18.5695,6.50301 -6.1908,2.16666 -4.6874,13.91134 -7.0327,20.8655 -2.3452,6.95417 -9.2524,68.65799 -13.88,102.98549 -4.6277,34.32749 -12.2095,138.37141 -18.3158,207.55562" />
  </g>
</svg>
