<?xml version="1.0" encoding="UTF-8" standalone="no"?>
<!-- Created with Inkscape (http://www.inkscape.org/) -->

<svg
   version="1.1"
   id="svg2"
   width="1893"
   height="1024"
   viewBox="0 0 1893 1024"
   sodipodi:docname="frame_0057.svg"
   inkscape:version="1.1.2 (0a00cf5339, 2022-02-04)"
   xmlns:inkscape="http://www.inkscape.org/namespaces/inkscape"
   xmlns:sodipodi="http://sodipodi.sourceforge.net/DTD/sodipodi-0.dtd"
   xmlns:xlink="http://www.w3.org/1999/xlink"
   xmlns="http://www.w3.org/2000/svg"
   xmlns:svg="http://www.w3.org/2000/svg">
  <defs
     id="defs6">
    <inkscape:path-effect
       effect="spiro"
       id="path-effect899"
       is_visible="true"
       lpeversion="1" />
    <inkscape:path-effect
       effect="spiro"
       id="path-effect862"
       is_visible="true"
       lpeversion="1" />
  </defs>
  <sodipodi:namedview
     id="namedview4"
     pagecolor="#ffffff"
     bordercolor="#666666"
     borderopacity="1.0"
     inkscape:pageshadow="2"
     inkscape:pageopacity="0.0"
     inkscape:pagecheckerboard="0"
     showgrid="false"
     inkscape:zoom="2.681458"
     inkscape:cx="1239.997"
     inkscape:cy="890.74675"
     inkscape:window-width="1850"
     inkscape:window-height="1016"
     inkscape:window-x="70"
     inkscape:window-y="27"
     inkscape:window-maximized="1"
     inkscape:current-layer="g8" />
  <g
     inkscape:groupmode="layer"
     inkscape:label="Image"
     id="g8">
    
    <path
       style="font-variation-settings:normal;opacity:1;vector-effect:none;fill:none;fill-opacity:1;stroke:#c86487;stroke-width:1px;stroke-linecap:butt;stroke-linejoin:miter;stroke-miterlimit:4;stroke-dasharray:none;stroke-dashoffset:0;stroke-opacity:1;-inkscape-stroke:none;stop-color:#000000;stop-opacity:1"
       d="M 1160.5654,862.67728 635.64328,862.5447"
       id="path860"
       inkscape:path-effect="#path-effect862"
       inkscape:original-d="M 1160.5654,862.67728 635.64328,862.5447" />
    <path
       style="font-variation-settings:normal;opacity:1;vector-effect:none;fill:none;fill-opacity:1;stroke:#c86487;stroke-width:1px;stroke-linecap:butt;stroke-linejoin:miter;stroke-miterlimit:4;stroke-dasharray:none;stroke-dashoffset:0;stroke-opacity:1;-inkscape-stroke:none;stop-color:#000000;stop-opacity:1"
       d="m 635.64328,862.5447 c -17.38362,-75.64819 -26.45371,-153.20374 -26.99449,-230.82169 -0.23566,-33.82402 1.1491,-67.72371 5.98217,-101.20149 3.87431,-26.83668 9.99445,-53.45793 20.06437,-78.63361 7.80176,-19.50509 17.90602,-37.98783 27.27573,-56.79008 8.95842,-17.97692 17.26519,-36.2909 24.4427,-55.05006 8.36225,-21.85561 15.19682,-44.35625 19.18682,-67.41432 2.43506,-14.07211 3.80412,-28.30504 5.82537,-42.44252 3.03953,-21.2598 7.64858,-42.57504 17.27631,-61.77203 5.10378,-10.17657 11.61985,-19.70637 19.76314,-27.66237 8.14329,-7.956 17.95024,-14.31104 28.77587,-17.8348 8.83513,-2.87585 18.40968,-3.83015 27.48638,-1.84428 5.68015,1.24275 11.11493,3.6297 15.83071,7.03116 9.35887,6.75048 15.41366,17.00668 22.20326,26.33721 5.43969,7.47543 11.48096,14.49061 17.18533,21.76608 8.76142,11.17448 16.73727,22.97447 26.03855,33.70377 3.20605,3.69827 6.57023,7.26874 10.22969,10.51902 1.05183,0.93422 2.14833,1.85471 3.43896,2.41452 0.64531,0.2799 1.33559,0.46569 2.03807,0.50181 0.70247,0.0361 1.41764,-0.0807 2.05421,-0.37999 0.66395,-0.31212 1.22991,-0.81752 1.64884,-1.4198 0.41894,-0.60229 0.69362,-1.29916 0.83895,-2.01828 0.22991,-1.13764 0.13835,-2.3285 -0.1837,-3.44356 -0.32205,-1.11506 -0.86949,-2.15707 -1.53755,-3.10617 -1.3361,-1.8982 -3.13201,-3.41426 -4.84864,-4.97679 -14.80561,-13.47653 -24.6348,-31.44891 -37.38963,-46.88061 -6.86835,-8.30981 -14.72765,-16.08974 -19.13172,-25.93003 -1.55517,-3.47482 -2.66036,-7.28675 -2.18192,-11.06353 0.27944,-2.20586 1.08581,-4.3042 1.713,-6.4374 0.62718,-2.1332 1.07965,-4.39418 0.63153,-6.57205 -0.40062,-1.94705 -1.51338,-3.70822 -2.96789,-5.06319 -1.4545,-1.35496 -3.23809,-2.32228 -5.10506,-3.00487 -3.6831,-1.3466 -7.66285,-1.61182 -11.47791,-2.5195 -3.31619,-0.788983 -6.53679,-2.081474 -9.33216,-4.03224 -0.95919,-0.669375 -1.87752,-1.426533 -2.55224,-2.381965 -0.67473,-0.955432 -1.09054,-2.132476 -0.96049,-3.294883 0.12457,-1.113418 0.7459,-2.138099 1.59327,-2.871023 0.84737,-0.732924 1.90698,-1.190747 2.99802,-1.445395 2.18208,-0.509295 4.46099,-0.236342 6.69902,-0.346283 4.13447,-0.203102 8.07454,-1.706884 12.06408,-2.810842 1.99476,-0.551978 4.02608,-1.008029 6.09097,-1.149529 2.06489,-0.141499 4.17165,0.03937 6.12213,0.73175 3.10266,1.101378 5.62218,3.417163 7.77429,5.908745 2.15211,2.491582 4.03678,5.221318 6.38551,7.528487 2.05149,2.015191 4.42191,3.673118 6.59939,5.551468 2.17748,1.87835 4.20715,4.04652 5.29163,6.70989 0.94685,2.32537 1.11655,4.87992 1.58318,7.34693 0.61226,3.23692 1.80106,6.45193 4.00797,8.89776 1.10345,1.22291 2.45328,2.23523 3.97286,2.87083 1.51958,0.63561 3.21083,0.88577 4.83807,0.63037 1.42466,-0.22361 2.77438,-0.82694 3.9636,-1.64267 1.18921,-0.81573 2.22415,-1.84026 3.14952,-2.9463 1.85074,-2.21209 3.27392,-4.75049 5.06254,-7.0131 4.35638,-5.51081 10.71209,-9.15019 17.34374,-11.46715 6.63164,-2.31697 13.61113,-3.42643 20.51494,-4.72432 22.97763,-4.319693 45.63887,-10.879571 66.69863,-21.034278 13.472,-6.495993 26.1996,-14.415126 38.9322,-22.261958 25.0233,-15.421338 50.1877,-30.63084 75.9067,-44.861758 0.9405,-0.520421 1.8877,-1.042177 2.9044,-1.391164 1.0167,-0.348987 2.1165,-0.5196 3.1725,-0.318758 0.8357,0.158943 1.6216,0.548643 2.2788,1.088756 0.6572,0.540113 1.1873,1.227821 1.5771,1.983943 0.7795,1.512242 0.99,3.265371 0.8901,4.963777 -0.1998,3.396814 -1.5769,6.659901 -1.6168,10.062353 -0.045,3.840074 1.6276,7.516001 3.7965,10.685262 2.1688,3.16926 4.8448,5.957019 7.1671,9.015597 5.9704,7.863123 9.469,17.34154 11.8153,26.931606 2.3462,9.590065 3.6183,19.408304 5.6227,29.075602 2.7962,13.48598 7.0064,26.62971 10.8482,39.85586 11.7939,40.60287 20.1467,82.11137 28.5239,123.55423 16.0819,79.55868 32.3739,161.04798 20.4634,241.33715 -1.5392,10.37603 -3.6624,20.98154 -9.3831,29.77386 -6.6635,10.24134 -17.6753,17.17778 -23.8067,27.74629 -3.7502,6.46411 -5.4452,13.93843 -6.1369,21.37954 -0.6917,7.44111 -0.4302,14.93303 -0.539,22.40543 -0.2199,15.10153 -1.9535,30.13417 -3.5315,45.15463 -7.2221,68.74432 -11.2222,137.82706 -11.9827,206.94553"
       id="path897"
       inkscape:path-effect="#path-effect899"
       inkscape:original-d="m 635.64328,862.5447 c -8.99716,-76.93956 -17.99533,-153.88013 -26.99449,-230.82169 -8.99917,-76.94156 3.98912,-67.46666 5.98217,-101.20149 1.99306,-33.73483 13.37725,-52.42141 20.06437,-78.63361 6.68712,-26.21221 18.18482,-37.85906 27.27573,-56.79008 9.09092,-18.93103 16.29613,-36.69904 24.4427,-55.05006 8.14656,-18.35102 12.79221,-44.94188 19.18682,-67.41432 6.39461,-22.47244 3.88458,-28.29401 5.82537,-42.44252 1.94079,-14.1485 11.51854,-41.18035 17.27631,-61.77203 5.75777,-20.59167 32.36034,-30.33044 48.53901,-45.49717 16.17868,-15.16672 18.32525,-1.22852 27.48638,-1.84428 9.16112,-0.61576 10.55481,4.68844 15.83071,7.03116 5.27591,2.34272 14.80318,17.55914 22.20326,26.33721 7.40009,8.77807 11.45789,14.51172 17.18533,21.76608 5.72744,7.25437 17.36003,22.47018 26.03855,33.70377 8.67852,11.23359 6.82079,7.01368 10.22969,10.51902 3.4089,3.50534 5.02183,1.69189 7.53124,2.53634 2.50941,0.84445 1.65952,-2.29105 2.48779,-3.43808 0.82826,-1.14702 -4.37893,-7.68335 -6.56989,-11.52652 -2.19097,-3.84318 -24.92542,-31.25274 -37.38963,-46.88061 -12.46421,-15.62787 -12.75348,-17.28569 -19.13172,-25.93003 -6.37824,-8.64435 -1.45361,-7.37469 -2.18192,-11.06353 -0.7283,-3.68884 1.56402,-8.67196 2.34453,-13.00945 0.78051,-4.33748 -5.38097,-5.37771 -8.07295,-8.06806 -2.69199,-2.69036 -7.65094,-1.67867 -11.47791,-2.5195 -3.82697,-0.84083 -6.22044,-2.687159 -9.33216,-4.03224 -3.11173,-1.34508 -2.34082,-3.783565 -3.51273,-5.676848 -1.17191,-1.893282 7.52787,-3.107467 11.29031,-4.662701 3.76243,-1.555234 16.18578,-2.151414 24.27718,-3.228621 8.09139,-1.077206 9.44087,8.959155 14.1598,13.437232 4.71894,4.478078 7.92835,8.175238 11.89102,12.261358 3.96267,4.08612 1.05645,4.89895 1.58318,7.34693 0.52673,2.44797 8.54694,8.26697 12.8189,12.39896 4.27197,4.13198 8.11811,-7.73371 12.17566,-11.60207 4.05755,-3.86835 25.24012,-10.79331 37.85868,-16.19147 12.61857,-5.398154 44.46677,-14.021851 66.69863,-21.034278 22.2319,-7.012427 25.9558,-14.840305 38.9322,-22.261958 12.9765,-7.421652 50.6055,-29.906839 75.9067,-44.861758 25.3012,-14.95492 4.0523,-1.138948 6.0769,-1.709922 2.0246,-0.570974 2.0872,12.066886 3.1292,18.098829 1.0421,6.031943 7.3101,13.134906 10.9636,19.700859 3.6535,6.565953 11.6264,37.339137 17.438,56.007208 5.8117,18.66807 7.2331,26.57157 10.8482,39.85586 3.6151,13.28429 19.0169,82.37049 28.5239,123.55423 9.5069,41.18375 13.6433,160.89244 20.4634,241.33715 6.8202,80.44472 -6.2544,19.85024 -9.3831,29.77386 -3.1287,9.92362 -15.8701,18.49853 -23.8067,27.74629 -7.9366,9.24776 -4.4496,29.19098 -6.6759,43.78497 -2.2263,14.59399 -2.3533,30.10409 -3.5315,45.15463 -1.1781,15.05054 -7.9875,137.96469 -11.9827,206.94553" />
  </g>
</svg>
