<?xml version="1.0" encoding="UTF-8" standalone="no"?>
<!-- Created with Inkscape (http://www.inkscape.org/) -->

<svg
   version="1.1"
   id="svg2"
   width="1893"
   height="1024"
   viewBox="0 0 1893 1024"
   sodipodi:docname="frame_0114.svg"
   inkscape:version="1.1.2 (0a00cf5339, 2022-02-04)"
   xmlns:inkscape="http://www.inkscape.org/namespaces/inkscape"
   xmlns:sodipodi="http://sodipodi.sourceforge.net/DTD/sodipodi-0.dtd"
   xmlns:xlink="http://www.w3.org/1999/xlink"
   xmlns="http://www.w3.org/2000/svg"
   xmlns:svg="http://www.w3.org/2000/svg">
  <defs
     id="defs6">
    <inkscape:path-effect
       effect="spiro"
       id="path-effect899"
       is_visible="true"
       lpeversion="1" />
    <inkscape:path-effect
       effect="spiro"
       id="path-effect862"
       is_visible="true"
       lpeversion="1" />
  </defs>
  <sodipodi:namedview
     id="namedview4"
     pagecolor="#ffffff"
     bordercolor="#666666"
     borderopacity="1.0"
     inkscape:pageshadow="2"
     inkscape:pageopacity="0.0"
     inkscape:pagecheckerboard="0"
     showgrid="false"
     inkscape:zoom="0.6703645"
     inkscape:cx="808.51537"
     inkscape:cy="576.55201"
     inkscape:window-width="1850"
     inkscape:window-height="1016"
     inkscape:window-x="70"
     inkscape:window-y="27"
     inkscape:window-maximized="1"
     inkscape:current-layer="g8" />
  <g
     inkscape:groupmode="layer"
     inkscape:label="Image"
     id="g8">
    
    <path
       style="font-variation-settings:normal;opacity:1;vector-effect:none;fill:none;fill-opacity:1;stroke:#c86487;stroke-width:1px;stroke-linecap:butt;stroke-linejoin:miter;stroke-miterlimit:4;stroke-dasharray:none;stroke-dashoffset:0;stroke-opacity:1;-inkscape-stroke:none;stop-color:#000000;stop-opacity:1"
       d="M 1161.2701,862.22146 H 635.80048"
       id="path860"
       inkscape:path-effect="#path-effect862"
       inkscape:original-d="M 1161.2701,862.22146 H 635.80048" />
    <path
       style="font-variation-settings:normal;opacity:1;vector-effect:none;fill:none;fill-opacity:1;stroke:#c86487;stroke-width:1px;stroke-linecap:butt;stroke-linejoin:miter;stroke-miterlimit:4;stroke-dasharray:none;stroke-dashoffset:0;stroke-opacity:1;-inkscape-stroke:none;stop-color:#000000;stop-opacity:1"
       d="m 635.80048,862.22146 c -19.77117,-37.84193 -30.30282,-80.46957 -30.42932,-123.16494 -0.13865,-46.79713 11.94997,-92.71051 16.57824,-139.27842 3.43705,-34.58232 2.79118,-69.77135 10.90124,-103.5645 4.32943,-18.03992 11.09054,-35.38559 17.14455,-52.92217 8.97987,-26.01187 16.60821,-52.92252 31.49223,-76.06818 5.63163,-8.75756 12.26741,-16.91209 16.92117,-26.2262 5.118,-10.24324 7.66584,-21.53552 10.87237,-32.52807 6.79995,-23.31141 16.76075,-45.87204 20.03737,-69.9329 3.00787,-22.08742 0.36748,-45.26702 8.2609,-66.11397 5.10271,-13.47653 14.37834,-25.09556 25.27694,-34.52292 12.14759,-10.50775 26.36496,-18.48512 41.34376,-24.28273 4.18201,-1.61866 8.47129,-3.08209 12.92779,-3.58095 4.4565,-0.49886 9.13115,0.0257 13.05796,2.19116 3.69218,2.03611 6.49785,5.37962 8.76558,8.93424 2.26772,3.55462 4.08192,7.3822 6.33796,10.94425 7.06448,11.15404 18.07913,19.16952 26.53403,29.31024 5.9338,7.11693 10.56969,15.2469 14.33114,23.7152 1.20349,2.70947 2.33631,5.48561 4.08606,7.87893 0.87488,1.19665 1.90296,2.29051 3.1051,3.15784 1.20214,0.86732 2.58307,1.5041 4.04358,1.75771 0.96632,0.16779 1.97587,0.16471 2.91165,-0.12897 0.93579,-0.29367 1.79291,-0.8956 2.28862,-1.74189 0.30119,-0.5142 0.46285,-1.10419 0.50469,-1.69863 0.0418,-0.59445 -0.0337,-1.19366 -0.1838,-1.77035 -0.30028,-1.15338 -0.89036,-2.20651 -1.46242,-3.25207 -4.72082,-8.62822 -8.66415,-17.79424 -14.87121,-25.42343 -4.87024,-5.98608 -10.98064,-10.82973 -16.29765,-16.42274 -2.65851,-2.79651 -5.12943,-5.7966 -7.07521,-9.12857 -1.94578,-3.33197 -3.35888,-7.01206 -3.80897,-10.84423 -0.65231,-5.55387 0.72344,-11.12474 1.05753,-16.7068 0.11538,-1.92779 0.1053,-3.87349 -0.22563,-5.77617 -0.33093,-1.90268 -0.9929,-3.76738 -2.09934,-5.35026 -1.57315,-2.250565 -3.97605,-3.827183 -6.54659,-4.792656 -2.57055,-0.965473 -5.31799,-1.361785 -8.05207,-1.616049 -2.37021,-0.220424 -4.7691,-0.342267 -7.06336,-0.976989 -2.93237,-0.811262 -5.623,-2.46487 -7.69041,-4.69708 -2.06742,-2.23221 -3.50797,-5.034496 -4.1456,-8.009458 -0.81547,-3.804715 -0.30862,-7.85335 1.26024,-11.414186 1.56885,-3.560835 4.17309,-6.633 7.32764,-8.911077 2.13556,-1.542206 4.53539,-2.73612 7.08652,-3.392406 2.55114,-0.656286 5.25509,-0.766412 7.82813,-0.202067 2.57304,0.564346 5.00835,1.814732 6.88536,3.662944 1.877,1.848212 3.17613,4.299698 3.5367,6.909106 0.28007,2.026801 0.003,4.082778 -0.17745,6.120834 -0.1808,2.038056 -0.25801,4.141343 0.39722,6.079649 0.64712,1.914326 1.9775,3.542974 3.54214,4.821764 1.56464,1.278791 3.36367,2.236235 5.17672,3.128585 1.81304,0.89235 3.65892,1.731395 5.36959,2.807055 1.71066,1.075661 3.29754,2.408549 4.39436,4.105726 1.78828,2.767132 2.11515,6.255342 1.75523,9.530315 -0.35992,3.27497 -1.34573,6.44485 -1.99143,9.67565 -0.42818,2.14243 -0.70693,4.34965 -0.37795,6.50953 0.32898,2.15989 1.32637,4.28634 3.06195,5.6134 1.21392,0.92819 2.7316,1.42053 4.25704,1.51104 1.52544,0.0905 3.05855,-0.2072 4.49088,-0.73972 2.86465,-1.06505 5.29126,-3.02268 7.72168,-4.87568 10.12366,-7.71848 21.21408,-14.12847 32.78739,-19.43149 17.82908,-8.169492 36.76184,-13.713529 54.66587,-21.717411 21.00481,-9.390069 40.47601,-22.112852 61.97901,-30.298119 12.3257,-4.69186 25.2828,-7.87859 36.9664,-13.996569 7.2928,-3.818789 13.958,-8.713981 20.9396,-13.075765 6.9816,-4.361785 14.4383,-8.24813 22.5361,-9.729008 1.3518,-0.247208 2.7229,-0.426552 4.0966,-0.390323 3.5253,0.09297 6.9156,1.624191 9.6477,3.853942 2.7321,2.229752 4.8533,5.126615 6.6099,8.18452 4.7545,8.27695 6.9518,17.73052 10.2788,26.677297 6.5362,17.57709 17.4934,33.318822 23.3043,51.148856 4.9056,15.05228 5.9661,31.03517 8.4047,46.67772 4.5295,29.05459 13.8721,57.16457 19.0111,86.11756 3.9902,22.48076 5.423,45.33755 8.7803,67.92152 3.5656,23.98541 9.3067,47.71064 10.643,71.92278 1.0477,18.98303 -0.629,38.03113 0.2483,57.0228 1.1196,24.23598 6.3879,48.51162 3.2092,72.56431 -0.7936,6.00535 -2.2178,12.17318 -5.9769,16.92327 -2.8656,3.62108 -6.869,6.13872 -10.8415,8.49316 -3.9724,2.35444 -8.06,4.6672 -11.2405,8.01509 -4.3519,4.58098 -6.6637,10.779 -7.7119,17.01006 -1.0482,6.23106 -0.9382,12.58892 -1.0745,18.90605 -0.6043,28.00271 -6.091,55.63407 -10.8194,83.2413 -11.6431,67.97906 -18.7797,136.7296 -21.3474,205.65071"
       id="path897"
       inkscape:path-effect="#path-effect899"
       inkscape:original-d="M 635.80048,862.22146 C 625.65837,821.16748 615.51527,780.1125 605.37116,739.05652 595.22705,698.00054 616.42432,646.20524 621.9494,599.7781 c 5.52508,-46.42714 7.26849,-69.042 10.90124,-103.5645 3.63274,-34.5225 11.4307,-35.28045 17.14455,-52.92217 5.71386,-17.64172 20.31892,-47.57417 31.49223,-76.06818 11.17332,-28.49401 11.95869,-20.62008 16.92117,-26.2262 4.96248,-5.60612 7.24925,-21.68438 10.87237,-32.52807 3.62312,-10.84369 11.25183,-43.20534 20.03737,-69.9329 8.78555,-26.72757 7.61569,-47.49058 8.2609,-66.11397 0.64521,-18.62339 16.85229,-23.01428 25.27694,-34.52292 8.42464,-11.50865 27.56351,-16.18749 41.34376,-24.28273 13.78026,-8.09524 17.32483,-0.92553 25.98575,-1.38979 8.66091,-0.46427 10.07003,13.25332 15.10354,19.87849 5.03351,6.62516 17.69035,19.54116 26.53403,29.31024 8.84368,9.76908 9.55509,15.81113 14.33114,23.7152 4.77604,7.90407 7.49083,8.53065 11.23474,12.79448 3.74392,4.26383 3.46785,-1.24624 5.20027,-1.87086 1.73242,-0.62462 -0.76002,-4.4797 -1.14153,-6.72105 -0.38151,-2.24135 -9.91314,-16.94795 -14.87121,-25.42343 -4.95807,-8.47548 -18.12022,-24.26269 -27.18183,-36.39554 -9.06161,-12.13284 0.70602,-11.13686 1.05753,-16.7068 0.35151,-5.56993 -1.54898,-7.41662 -2.32497,-11.12643 -0.776,-3.709811 -9.73144,-4.27147 -14.59866,-6.408705 -4.86722,-2.137234 -4.7079,-0.650325 -7.06336,-0.976989 -2.35545,-0.326663 44.50693,-9.902622 -11.83601,-12.706538 -9.39455,-0.467521 -162.47298,13.509245 8.58788,-20.325263 13.11318,-2.593684 21.21836,3.491029 25.33671,6.977577 4.11836,3.486549 0.14751,8.134655 0.21977,12.200483 0.0722,4.065828 12.32287,9.909753 18.48281,14.86313 6.15993,4.953377 -0.15647,12.804975 -0.2362,19.205965 -0.0797,6.40098 1.79034,8.08295 2.684,12.12293 0.89367,4.03998 10.98074,-2.73524 16.4696,-4.10436 5.48887,-1.36913 21.85926,-12.95333 32.78739,-19.43149 10.92813,-6.478162 36.44491,-14.477274 54.66587,-21.717411 18.22091,-7.240137 41.32031,-20.197746 61.97901,-30.298119 20.6587,-10.100373 24.6453,-9.330046 36.9664,-13.996569 12.3211,-4.666523 28.9848,-15.202182 43.4757,-22.804773 14.4909,-7.6025913 2.7321,-0.259215 4.0966,-0.390323 1.3645,-0.131107 10.8394,8.026641 16.2576,12.038462 5.4182,4.01182 6.8536,17.785865 10.2788,26.677297 3.4253,8.891433 15.5372,34.100238 23.3043,51.148856 7.7671,17.04862 5.6041,31.11948 8.4047,46.67772 2.8006,15.55823 12.6751,57.41271 19.0111,86.11756 6.3361,28.70486 5.8546,45.28201 8.7803,67.92152 2.9258,22.6395 7.0964,47.94952 10.643,71.92278 3.5467,23.97326 0.1666,38.0162 0.2483,57.0228 0.082,19.00661 2.1405,48.37721 3.2092,72.56431 1.0687,24.1871 -3.9836,11.28318 -5.9769,16.92327 -1.9932,5.6401 -14.7203,11.0065 -22.082,16.50825 -7.3617,5.50175 -5.8566,23.94507 -8.7864,35.91611 -2.9298,11.97104 -7.212,55.4952 -10.8194,83.2413 -3.6075,27.7461 -14.2306,137.10147 -21.3474,205.65071"
       sodipodi:nodetypes="cssssssssssssssssssssssssssssssssssssssssssssscsssssc" />
  </g>
</svg>
