<?xml version="1.0" encoding="UTF-8" standalone="no"?>
<!-- Created with Inkscape (http://www.inkscape.org/) -->

<svg
   version="1.1"
   id="svg2"
   width="1893"
   height="1024"
   viewBox="0 0 1893 1024"
   sodipodi:docname="frame_0154.svg"
   inkscape:version="1.1.2 (0a00cf5339, 2022-02-04)"
   xmlns:inkscape="http://www.inkscape.org/namespaces/inkscape"
   xmlns:sodipodi="http://sodipodi.sourceforge.net/DTD/sodipodi-0.dtd"
   xmlns:xlink="http://www.w3.org/1999/xlink"
   xmlns="http://www.w3.org/2000/svg"
   xmlns:svg="http://www.w3.org/2000/svg">
  <defs
     id="defs6">
    <inkscape:path-effect
       effect="spiro"
       id="path-effect866"
       is_visible="true"
       lpeversion="1" />
    <inkscape:path-effect
       effect="spiro"
       id="path-effect862"
       is_visible="true"
       lpeversion="1" />
  </defs>
  <sodipodi:namedview
     id="namedview4"
     pagecolor="#ffffff"
     bordercolor="#666666"
     borderopacity="1.0"
     inkscape:pageshadow="2"
     inkscape:pageopacity="0.0"
     inkscape:pagecheckerboard="0"
     showgrid="false"
     inkscape:zoom="3.7921543"
     inkscape:cx="905.55388"
     inkscape:cy="139.8941"
     inkscape:window-width="1850"
     inkscape:window-height="1016"
     inkscape:window-x="70"
     inkscape:window-y="27"
     inkscape:window-maximized="1"
     inkscape:current-layer="g8" />
  <g
     inkscape:groupmode="layer"
     inkscape:label="Image"
     id="g8">
    
    <path
       style="font-variation-settings:normal;opacity:1;vector-effect:none;fill:none;fill-opacity:1;stroke:#c86487;stroke-width:1px;stroke-linecap:butt;stroke-linejoin:miter;stroke-miterlimit:4;stroke-dasharray:none;stroke-dashoffset:0;stroke-opacity:1;-inkscape-stroke:none;stop-color:#000000;stop-opacity:1"
       d="M 1160.9194,861.87827 H 635.84118"
       id="path860"
       inkscape:path-effect="#path-effect862"
       inkscape:original-d="m 1160.9194,861.87827 c -175.02509,10e-4 -350.05116,10e-4 -525.07822,0" />
    <path
       style="font-variation-settings:normal;opacity:1;vector-effect:none;fill:none;fill-opacity:1;stroke:#c86487;stroke-width:1px;stroke-linecap:butt;stroke-linejoin:miter;stroke-miterlimit:4;stroke-dasharray:none;stroke-dashoffset:0;stroke-opacity:1;-inkscape-stroke:none;stop-color:#000000;stop-opacity:1"
       d="m 635.84118,861.87827 c 7.06862,-61.1628 5.82295,-123.281 -3.69202,-184.11125 -6.40923,-40.97495 -16.57705,-82.43403 -10.23754,-123.41982 3.86789,-25.00647 13.73545,-48.61041 22.09755,-72.4926 9.25929,-26.44457 16.73556,-53.47368 25.12753,-80.20614 3.59132,-11.44008 7.40423,-22.94492 13.65247,-33.17881 4.31769,-7.07188 9.72029,-13.4061 14.71345,-20.01839 4.99315,-6.61229 9.64917,-13.64239 12.16916,-21.53565 1.58863,-4.97599 2.29197,-10.18206 3.22031,-15.32233 3.44485,-19.07434 10.03937,-37.43735 17.38057,-55.37625 5.90166,-14.42124 12.39772,-29.01731 13.28571,-44.57409 0.39548,-6.92853 -0.34033,-13.86722 -1.1306,-20.76189 -0.74648,-6.51261 -1.54399,-13.05544 -1.24214,-19.60373 0.30185,-6.5483 1.76367,-13.17052 5.22946,-18.73465 4.26291,-6.84386 11.1492,-11.53812 16.93805,-17.15061 5.09577,-4.94052 9.37937,-10.64329 14.06847,-15.97133 4.68909,-5.32804 9.90948,-10.37385 16.27375,-13.51578 7.21996,-3.56437 15.62506,-4.45914 23.55598,-3.06881 7.93092,1.39033 15.39074,4.99071 21.79563,9.87024 7.2727,5.54066 13.1785,12.6432 18.99664,19.69588 21.24522,25.75322 42.23301,51.72776 62.37285,78.35433 0.49709,0.65719 0.99539,1.31681 1.57163,1.90583 0.57623,0.58903 1.23612,1.10894 1.99096,1.43941 1.03218,0.45189 2.21194,0.5281 3.31244,0.28625 1.1005,-0.24185 2.12207,-0.79191 2.98192,-1.52009 0.77517,-0.65647 1.42822,-1.46322 1.87077,-2.37755 0.44256,-0.91432 0.67097,-1.93703 0.61725,-2.95141 -0.0701,-1.32328 -0.61313,-2.58699 -1.3511,-3.68762 -0.73797,-1.10063 -1.66763,-2.05721 -2.59679,-3.00201 -10.96477,-11.14929 -22.65341,-21.62292 -32.7752,-33.54274 -10.12178,-11.91983 -18.73948,-25.53719 -22.32643,-40.75779 -0.9533,-4.04516 -1.54529,-8.1931 -1.46771,-12.34834 0.0476,-2.55246 0.34726,-5.09671 0.35076,-7.64961 0.004,-2.55291 -0.30542,-5.15928 -1.40557,-7.462975 -1.36021,-2.848262 -3.85253,-5.041062 -6.63326,-6.534476 -2.78073,-1.493414 -5.85583,-2.346361 -8.92774,-3.071724 -5.14686,-1.215318 -10.36568,-2.105122 -15.51972,-3.289624 -3.19263,-0.73373 -6.48017,-1.641926 -8.9628,-3.779165 -2.41315,-2.077427 -3.83368,-5.205256 -4.02461,-8.383704 -0.19092,-3.178448 0.80256,-6.380443 2.58009,-9.022292 1.77753,-2.64185 4.31031,-4.735279 7.14337,-6.188814 2.83306,-1.453534 5.96067,-2.283659 9.12296,-2.656356 5.7002,-0.671806 11.50565,0.124448 17.01439,1.736088 5.50874,1.611641 10.74977,4.023707 15.86515,6.626875 6.32959,3.221066 12.6934,6.912627 16.92332,12.617601 3.77623,5.093072 5.5694,11.567913 5.20804,17.897899 -0.25645,4.492286 -1.5495,8.917027 -1.36048,13.412657 0.0569,1.3535 0.25253,2.71543 0.75521,3.97341 0.50268,1.25798 1.33093,2.41162 2.46859,3.14711 0.85004,0.54955 1.84491,0.84982 2.85009,0.96893 1.00517,0.11911 2.02388,0.0629 3.02879,-0.0584 4.82972,-0.58314 9.38053,-2.65933 13.44635,-5.33055 4.06581,-2.67121 7.70147,-5.93578 11.34913,-9.15459 7.06061,-6.230503 14.55505,-12.515536 23.64369,-14.978879 9.19417,-2.491947 19.1091,-0.803229 28.34242,-3.145967 6.09692,-1.546951 11.62982,-4.790424 16.76923,-8.417024 5.1394,-3.6266 9.9801,-7.674766 15.2517,-11.106414 10.6988,-6.964666 22.8848,-11.215674 34.6108,-16.262761 8.6976,-3.743622 17.2533,-7.988593 24.8013,-13.706148 5.449,-4.127579 10.3098,-8.974486 15.5808,-13.327118 5.271,-4.352631 11.0838,-8.270915 17.6677,-10.109654 8.9432,-2.4976279 18.5953,-0.9785605 27.6179,-3.1720093 2.9647,-0.7207418 5.8236,-1.8345981 8.793,-2.5354371 2.9695,-0.7008389 6.1407,-0.9718183 9.0348,-0.00574 2.0591,0.6873623 3.89,1.9809411 5.3519,3.5856974 1.462,1.604756 2.5658,3.513842 3.3856,5.52394 1.6395,4.020196 2.1512,8.39236 2.8358,12.679703 2.865,17.942701 8.9728,35.176811 13.963,52.648117 5.2664,18.438223 9.3018,37.202444 13.2373,55.969844 7.3549,35.07391 14.3752,70.21697 21.5126,105.33578 4.6807,23.03083 9.4128,46.05637 13.3712,69.22228 3.9178,22.92857 7.079,46.01629 8.349,69.24248 1.8034,32.9807 -0.2138,66.03951 -0.1589,99.06943 0.024,14.7439 0.4378,29.70485 -3.244,43.98167 -0.4039,1.56629 -0.8585,3.126 -1.5188,4.60261 -1.9915,4.45338 -5.7451,7.90016 -9.8213,10.58038 -4.0761,2.68022 -8.5398,4.7121 -12.7471,7.18144 -6.6759,3.91823 -12.8062,9.07426 -16.7064,15.76068 -4.8089,8.24428 -5.8701,18.08914 -6.4893,27.61332 -1.3644,20.98544 -1.0962,42.0377 -1.4487,63.06449 -1.1865,70.77822 -9.4346,141.43623 -24.5821,210.58474"
       id="path864"
       inkscape:path-effect="#path-effect866"
       inkscape:original-d="m 635.84118,861.87827 c -1.22967,-61.36942 -2.46035,-122.73983 -3.69202,-184.11125 -1.23167,-61.37141 -6.82403,-82.27888 -10.23754,-123.41982 -3.41352,-41.14094 14.7327,-48.3274 22.09755,-72.4926 7.36485,-24.1652 16.75269,-53.46976 25.12753,-80.20614 8.37485,-26.73638 9.10265,-22.11821 13.65247,-33.17881 4.54982,-11.0606 17.92274,-27.70169 26.88261,-41.55404 8.95987,-13.85235 2.14788,-10.21388 3.22031,-15.32233 1.07244,-5.10844 11.58805,-36.9165 17.38057,-55.37625 5.79252,-18.45975 8.85814,-29.71506 13.28571,-44.57409 4.42757,-14.85903 -0.75273,-13.84026 -1.1306,-20.76189 -0.37787,-6.92162 2.65921,-25.55792 3.98732,-38.33838 1.32811,-12.78046 11.29303,-11.43274 16.93805,-17.15061 5.64502,-5.71787 20.22915,-19.65707 30.34222,-29.48711 10.11307,-9.830036 30.2354,4.53528 45.35161,6.80143 15.1162,2.26614 12.66543,13.13158 18.99664,19.69588 6.33122,6.56429 41.5829,52.23722 62.37285,78.35433 20.78995,26.11711 2.37606,2.23116 3.56259,3.34524 1.18653,1.11408 4.19724,-0.82156 6.29436,-1.23384 2.09712,-0.41227 1.65968,-3.55164 2.48802,-5.32896 0.82834,-1.77732 -2.63093,-4.45875 -3.94789,-6.68963 -1.31697,-2.23087 -36.73342,-49.53268 -55.10163,-74.30053 -18.3682,-24.76784 -0.97747,-8.23122 -1.46771,-12.34834 -0.49024,-4.11711 -0.70221,-10.07406 -1.05481,-15.112585 -0.3526,-5.038529 -10.373,-6.403133 -15.561,-9.6062 -5.188,-3.203066 -10.34548,-2.192082 -15.51972,-3.289624 -5.17424,-1.097541 -5.9742,-2.518443 -8.9628,-3.779165 -2.9886,-1.260721 10.06881,-20.77838 14.82181,-26.251166 4.75299,-5.472787 19.59557,9.640734 32.87954,8.362963 13.28396,-1.27777 -0.68027,11.14542 16.92332,12.617601 6.07536,0.50808 3.09942,12.021776 5.20804,17.897899 2.10862,5.876127 -0.53238,8.853927 -1.36048,13.412657 -0.82811,4.55873 2.1502,4.74801 3.2238,7.12052 1.0736,2.37251 3.92026,0.60802 5.87888,0.91053 1.95863,0.3025 16.53132,-9.65576 24.79548,-14.48514 8.26415,-4.82938 15.76346,-9.984919 23.64369,-14.978879 7.88023,-4.993959 18.89594,-2.096311 28.34242,-3.145967 9.44647,-1.049656 21.34833,-13.014625 32.02093,-19.523438 10.6727,-6.508812 23.0749,-10.84084 34.6108,-16.262761 11.5359,-5.42192 16.5352,-9.136432 24.8013,-13.706148 8.2662,-4.569717 22.1667,-15.623515 33.2485,-23.436772 11.0818,-7.8132575 18.4129,-2.1136729 27.6179,-3.1720093 9.205,-1.0583363 11.8862,-1.6931181 17.8278,-2.5411771 5.9415,-0.848059 7.7165,14.5272274 11.5733,21.7893404 3.8568,7.262113 9.3097,35.099744 13.963,52.648117 4.6534,17.548372 8.8259,37.314224 13.2373,55.969844 4.4114,18.65561 14.3427,70.22485 21.5126,105.33578 7.1699,35.11092 8.9151,46.14919 13.3712,69.22228 4.4561,23.0731 5.567,46.16265 8.349,69.24248 2.782,23.07983 -0.1049,66.04729 -0.1589,99.06943 -0.054,33.02214 -2.1617,29.32211 -3.244,43.98167 -1.0823,14.65955 -1.0115,3.0694 -1.5188,4.60261 -0.5073,1.5332 -15.0446,11.84221 -22.5684,17.76182 -7.5238,5.91961 -11.1366,10.50812 -16.7064,15.76068 -5.5697,5.25255 -4.3252,18.40988 -6.4893,27.61332 -2.1641,9.20344 -0.9648,42.04399 -1.4487,63.06449 -0.484,21.0205 -16.3871,140.39083 -24.5821,210.58474"
       sodipodi:nodetypes="csssssssssssssssssssssssssssssssssssssssssssssssssssssssc" />
  </g>
</svg>
