<?xml version="1.0" encoding="UTF-8" standalone="no"?>
<!-- Created with Inkscape (http://www.inkscape.org/) -->

<svg
   version="1.1"
   id="svg2"
   width="1893"
   height="1024"
   viewBox="0 0 1893 1024"
   sodipodi:docname="frame_0003.svg"
   inkscape:version="1.1.2 (0a00cf5339, 2022-02-04)"
   xmlns:inkscape="http://www.inkscape.org/namespaces/inkscape"
   xmlns:sodipodi="http://sodipodi.sourceforge.net/DTD/sodipodi-0.dtd"
   xmlns:xlink="http://www.w3.org/1999/xlink"
   xmlns="http://www.w3.org/2000/svg"
   xmlns:svg="http://www.w3.org/2000/svg">
  <sodipodi:namedview
     id="namedview8"
     pagecolor="#ffffff"
     bordercolor="#666666"
     borderopacity="1.0"
     inkscape:pageshadow="2"
     inkscape:pageopacity="0.0"
     inkscape:pagecheckerboard="0"
     showgrid="false"
     inkscape:zoom="3.7652595"
     inkscape:cx="722.65935"
     inkscape:cy="263.59405"
     inkscape:window-width="1850"
     inkscape:window-height="1016"
     inkscape:window-x="70"
     inkscape:window-y="27"
     inkscape:window-maximized="1"
     inkscape:current-layer="g8" />
  <defs
     id="defs6" />
  <g
     id="g8">
    
    <path
       style="fill:none;stroke:#c86487;stroke-width:1px;stroke-linecap:butt;stroke-linejoin:miter;stroke-opacity:1"
       d="m 1161.6154,862.1134 -524.75077,2.59424"
       id="path860"
       sodipodi:nodetypes="cc" />
    <path
       style="fill:none;stroke:#c86487;stroke-width:1px;stroke-linecap:butt;stroke-linejoin:miter;stroke-opacity:1"
       d="m 636.86463,864.70764 c -9.85348,-34.78683 -59.07031,-86.04944 -58.71036,-122.20307 0.46835,-47.04091 -0.39732,-95.39622 11.11046,-141.01022 6.3035,-24.98553 13.32804,-49.90444 16.32595,-75.49786 3.14173,-26.82116 1.91632,-54.58256 10.96915,-80.02448 7.50245,-21.08475 21.71767,-39.42987 27.999,-60.91005 3.07226,-10.50618 4.15447,-21.47028 5.77099,-32.29643 1.61652,-10.82614 3.84083,-21.74853 8.95575,-31.42614 5.68883,-10.76347 6.81404,-21.785 14.00971,-31.60526 3.59783,-4.91013 7.31429,-8.42378 9.31734,-14.17196 2.00305,-5.74817 10.06383,-11.38293 8.80387,-17.33828 -1.37219,-6.48582 -5.02694,-12.22135 -7.55496,-18.3498 -3.12122,-7.56651 -4.51358,-15.71021 -6.1185,-23.73631 -1.33673,-6.6849 -2.83225,-13.6352 -1.11879,-20.23359 1.23314,-4.7487 4.05617,-8.94036 7.27888,-12.63968 5.05885,-5.80701 11.15541,-10.59673 16.91486,-15.70967 5.03244,-4.46754 9.83772,-9.2101 15.20247,-13.27258 4.47169,-3.3862 9.34904,-6.2987 14.64425,-8.14888 5.71497,-1.99685 11.78913,-2.71818 17.82077,-3.23553 6.78183,-0.58169 13.917,-0.86133 20.06648,2.05681 6.10854,2.89871 10.36908,8.52389 14.88123,13.55949 2.21062,2.46706 4.53234,4.83272 6.90522,7.14415 5.22965,5.09423 10.71351,9.93118 15.74754,15.2188 4.92261,5.17058 9.42371,10.77974 14.88466,15.37812 2.40373,2.02405 4.97862,3.83897 7.362,5.88694 2.38338,2.04798 4.59798,4.36426 6.06836,7.14143 0.96776,1.82784 1.59239,3.81488 2.42591,5.70771 0.83353,1.89283 1.92302,3.74496 3.58137,4.98085 0.91469,0.68167 1.97696,1.15339 3.08122,1.43964 1.10846,0.28734 2.27588,0.39042 3.40364,0.19193 1.12776,-0.1985 2.21443,-0.71092 3.01149,-1.53307 0.86601,-0.89327 1.35086,-2.10716 1.52527,-3.33902 0.17441,-1.23185 0.0573,-2.48777 -0.15236,-3.71411 -0.92052,-5.38341 -3.58864,-10.31313 -6.64414,-14.83998 -5.1286,-7.59823 -11.41813,-14.32715 -17.2761,-21.37838 -7.36395,-8.86397 -14.0801,-18.28059 -21.96392,-26.68554 -3.8009,-4.05214 -7.87248,-7.86849 -11.30583,-12.23642 -4.36404,-5.55196 -7.65155,-11.93868 -12.46063,-17.10993 -4.03236,-4.33603 -9.00344,-7.67506 -13.41142,-11.62865 -1.70919,-1.533 -3.3442,-3.17093 -4.65087,-5.05879 -1.30667,-1.88785 -2.27904,-4.04405 -2.55662,-6.323161 -0.22517,-1.8488 0.0168,-3.755873 0.72107,-5.480024 0.70432,-1.72415 1.87207,-3.260121 3.3611,-4.37885 1.48191,-1.11338 3.24306,-1.798219 5.0277,-2.29895 1.78465,-0.500731 3.61328,-0.830219 5.40322,-1.311684 1.68724,-0.453842 3.33896,-1.042399 5.04647,-1.412749 1.70752,-0.37035 3.50141,-0.516309 5.19301,-0.07898 1.42851,0.369316 2.73178,1.144249 3.84305,2.114876 1.11127,0.970627 2.03981,2.134125 2.8711,3.353136 1.66259,2.438022 2.96927,5.133347 4.91868,7.348741 1.79753,2.042796 4.07532,3.600184 6.39178,5.027835 2.31646,1.42764 4.70676,2.75464 6.84701,4.43496 4.27157,3.35363 7.35508,7.95371 11.0206,11.96084 0.7691,0.84078 1.56835,1.66057 2.22427,2.59234 0.65593,0.93176 1.16883,1.99376 1.28493,3.12731 0.11106,1.08429 -0.14631,2.17887 -0.55314,3.19006 -0.40682,1.01119 -0.96053,1.95522 -1.47442,2.91643 -0.51389,0.96121 -0.99348,1.95396 -1.23485,3.01686 -0.24137,1.0629 -0.22969,2.21116 0.21523,3.20617 0.32161,0.71924 0.85848,1.33194 1.49487,1.79643 0.63638,0.4645 1.37007,0.78524 2.12862,0.9982 1.51709,0.4259 3.11509,0.42631 4.68894,0.50348 2.77461,0.13604 4.15222,-1.16734 6.80247,-1.99992 2.45227,-0.77039 5.96877,-0.83955 7.6021,-2.82434 1.63332,-1.98479 2.91917,-4.22673 4.35638,-6.35783 3.94334,-5.84721 9.08156,-10.89832 15.05481,-14.64798 7.57259,-4.75363 16.28104,-7.33407 24.92697,-9.612 5.77617,-1.52184 11.60524,-2.941491 17.12906,-5.214718 7.65396,-3.149844 14.60826,-7.893103 22.41951,-10.629697 4.80248,-1.682503 9.84476,-2.574984 14.88879,-3.24764 7.26108,-0.968315 14.59029,-1.497017 21.77324,-2.934429 2.22136,-0.444526 4.44215,-0.981096 6.50129,-1.925529 2.05915,-0.944433 3.96349,-2.324204 5.24016,-4.195604 1.61911,-2.373358 2.10856,-5.318955 2.4834,-8.167437 0.37484,-2.848481 0.70018,-5.78666 2.06473,-8.314973 1.31708,-2.440371 3.51731,-4.308499 5.92238,-5.689003 2.40506,-1.380503 5.03224,-2.319427 7.6252,-3.302614 5.0275,-1.906318 10.1012,-4.080523 14.0099,-7.772668 2.1937,-2.072098 3.947,-4.555843 5.7656,-6.963824 1.8186,-2.40798 3.7483,-4.786785 6.1949,-6.553062 3.5742,-2.580299 7.9864,-3.671605 12.3037,-4.562519 4.3173,-0.890913 8.7445,-1.664401 12.6318,-3.743204 1.7184,-0.918952 3.3003,-2.078432 5.0279,-2.980016 1.7277,-0.901584 3.6694,-1.547344 5.6048,-1.31973 1.9689,0.231553 3.7373,1.34699 5.1861,2.700148 1.4489,1.353158 2.6399,2.954099 3.9647,4.428878 2.9748,3.311525 6.6818,6.060591 8.8294,9.959753 2.1229,3.854384 2.4808,8.391322 3.1293,12.743612 0.8387,5.629102 2.2303,11.159039 3.6218,16.677548 0.9523,3.776773 1.9065,7.556133 3.0901,11.266918 2.4728,7.752459 5.9279,15.147667 9.1866,22.603947 2.5946,5.936563 5.0703,11.926383 7.3364,17.995913 3.6153,9.6831 6.6981,19.57127 10.7527,29.07879 4.4416,10.41504 10.0373,20.34453 13.7959,31.02507 4.1387,11.76079 5.9653,24.18613 8.8758,36.30942 2.6426,11.00704 6.1824,21.77566 9.2236,32.67929 9.7309,34.88809 14.3112,70.97193 21.4446,106.48225 6.4097,31.90749 14.9198,63.59901 16.638,96.09854 0.7626,14.42516 0.177,28.88376 0.2648,43.32879 0.065,10.66834 0.4648,21.57476 -2.7735,31.73996 -2.8153,8.83754 -8.218,16.58164 -13.511,24.19823 -5.293,7.6166 -10.632,15.41976 -13.2903,24.3058 -2.4242,8.10369 -2.4943,16.72506 -1.9114,25.16347 0.583,8.43841 1.7986,16.84109 1.8754,25.29927 0.089,9.81467 -1.3557,19.56973 -2.6859,29.29424 -9.0156,65.90652 10.5439,146.80107 11.816,213.3092"
       id="path1030"
       sodipodi:nodetypes="cssssssssssssssssssssssssssssssssssssssssssssssssssssssssssssssssssssssssssssssssssssssssssssssssssssssscc" />
  </g>
</svg>
