<?xml version="1.0" encoding="UTF-8" standalone="no"?>
<!-- Created with Inkscape (http://www.inkscape.org/) -->

<svg
   version="1.1"
   id="svg2"
   width="1893"
   height="1024"
   viewBox="0 0 1893 1024"
   sodipodi:docname="frame_0069.svg"
   inkscape:version="1.1.2 (0a00cf5339, 2022-02-04)"
   xmlns:inkscape="http://www.inkscape.org/namespaces/inkscape"
   xmlns:sodipodi="http://sodipodi.sourceforge.net/DTD/sodipodi-0.dtd"
   xmlns:xlink="http://www.w3.org/1999/xlink"
   xmlns="http://www.w3.org/2000/svg"
   xmlns:svg="http://www.w3.org/2000/svg">
  <defs
     id="defs6">
    <inkscape:path-effect
       effect="spiro"
       id="path-effect899"
       is_visible="true"
       lpeversion="1" />
    <inkscape:path-effect
       effect="spiro"
       id="path-effect862"
       is_visible="true"
       lpeversion="1" />
  </defs>
  <sodipodi:namedview
     id="namedview4"
     pagecolor="#ffffff"
     bordercolor="#666666"
     borderopacity="1.0"
     inkscape:pageshadow="2"
     inkscape:pageopacity="0.0"
     inkscape:pagecheckerboard="0"
     showgrid="false"
     inkscape:zoom="0.94803857"
     inkscape:cx="961.98618"
     inkscape:cy="624.97457"
     inkscape:window-width="1850"
     inkscape:window-height="1016"
     inkscape:window-x="70"
     inkscape:window-y="27"
     inkscape:window-maximized="1"
     inkscape:current-layer="g8" />
  <g
     inkscape:groupmode="layer"
     inkscape:label="Image"
     id="g8">
    
    <path
       style="font-variation-settings:normal;opacity:1;vector-effect:none;fill:none;fill-opacity:1;stroke:#c86487;stroke-width:1px;stroke-linecap:butt;stroke-linejoin:miter;stroke-miterlimit:4;stroke-dasharray:none;stroke-dashoffset:0;stroke-opacity:1;-inkscape-stroke:none;stop-color:#000000;stop-opacity:1"
       d="M 1160.7812,862.2018 635.67731,862.1739"
       id="path860"
       inkscape:path-effect="#path-effect862"
       inkscape:original-d="M 1160.7812,862.2018 635.67731,862.1739" />
    <path
       style="font-variation-settings:normal;opacity:1;vector-effect:none;fill:none;fill-opacity:1;stroke:#c86487;stroke-width:1px;stroke-linecap:butt;stroke-linejoin:miter;stroke-miterlimit:4;stroke-dasharray:none;stroke-dashoffset:0;stroke-opacity:1;-inkscape-stroke:none;stop-color:#000000;stop-opacity:1"
       d="m 635.67731,862.1739 c -8.90192,-58.50072 -16.14659,-117.25361 -21.72242,-176.16446 -5.43117,-57.38253 -9.2418,-115.66191 1.27965,-172.33246 6.15826,-33.16954 17.23771,-65.48573 33.45407,-95.06904 10.14636,-18.50988 22.27452,-35.92921 31.47754,-54.92576 10.2104,-21.07596 16.65262,-43.74257 22.89222,-66.31502 6.38973,-23.11558 12.6571,-46.50163 13.74809,-70.45927 0.50657,-11.12398 -0.10912,-22.29598 0.89562,-33.38606 1.00473,-11.09009 3.77446,-22.33599 10.32119,-31.34375 4.94723,-6.80698 11.80197,-11.99874 18.96481,-16.41504 7.16284,-4.41631 14.72889,-8.1591 21.81728,-12.69394 7.18629,-4.59747 13.92699,-10.03238 21.7859,-13.35157 3.92946,-1.65959 8.13035,-2.76851 12.395,-2.85617 4.26464,-0.0877 8.6003,0.88356 12.22621,3.13026 3.05836,1.89504 5.52247,4.62577 7.58667,7.57259 2.06421,2.94683 3.76273,6.12984 5.58761,9.23057 5.68671,9.66254 12.60877,18.53787 19.74127,27.18834 7.73207,9.37764 15.73663,18.52816 23.45289,27.91881 6.55267,7.97457 12.9017,16.12848 18.67425,24.68471 0.92908,1.37711 1.86213,2.78586 3.14241,3.8444 0.64014,0.52926 1.3647,0.96494 2.15407,1.2234 0.78937,0.25845 1.64568,0.33494 2.45765,0.16 0.93083,-0.20055 1.77841,-0.72902 2.41399,-1.43804 0.63557,-0.70903 1.0637,-1.5921 1.28659,-2.51784 0.36259,-1.506 0.18634,-3.11359 -0.35231,-4.56595 -0.53864,-1.45237 -1.42637,-2.75743 -2.46743,-3.90446 -2.08213,-2.29407 -4.74923,-3.96151 -7.12122,-5.95441 -4.5832,-3.85071 -8.02333,-8.8846 -10.97163,-14.09433 -2.94831,-5.20972 -5.46483,-10.65996 -8.55139,-15.78898 -8.94619,-14.86612 -22.48416,-26.72222 -30.33824,-42.19314 -2.65555,-5.2309 -4.64231,-10.94363 -4.61797,-16.80994 0.009,-2.13251 0.28306,-4.2618 0.19531,-6.39253 -0.0878,-2.13073 -0.57834,-4.32735 -1.91102,-5.99218 -1.35706,-1.69528 -3.45524,-2.662242 -5.58401,-3.091144 -2.12877,-0.428903 -4.32045,-0.375181 -6.49199,-0.371448 -4.48175,0.0077 -9.1691,-0.262286 -13.04045,-2.520337 -2.41551,-1.408901 -4.38876,-3.55614 -5.61589,-6.068879 -1.22712,-2.51274 -1.7073,-5.380159 -1.39545,-8.159087 0.31184,-2.778928 1.41105,-5.461239 3.11529,-7.67828 1.70424,-2.21704 4.00634,-3.965136 6.58818,-5.03928 3.31562,-1.379424 7.01447,-1.637599 10.58626,-1.265431 3.57178,0.372168 7.04996,1.349684 10.49291,2.370568 2.91694,0.864914 5.83583,1.768586 8.5839,3.074251 2.74806,1.305665 5.33648,3.034548 7.31541,5.345489 2.01286,2.350555 3.32608,5.213815 4.44053,8.100806 1.11444,2.88699 2.06089,5.849335 3.46237,8.608419 1.09397,2.153697 2.45506,4.16269 3.55884,6.311383 1.10378,2.14869 1.95739,4.49605 1.92142,6.9114 -0.0486,3.2631 -1.70414,6.32185 -1.89256,9.57987 -0.15708,2.71611 0.74119,5.44235 2.2922,7.67758 1.98448,2.85992 5.1015,4.97081 8.54275,5.49527 2.37769,0.36237 4.83611,-0.0249 7.07546,-0.90243 2.23936,-0.87752 4.2701,-2.23136 6.0939,-3.79931 3.6476,-3.13592 6.47399,-7.09939 9.75856,-10.61373 6.75515,-7.2277 15.38628,-12.47659 24.40186,-16.549804 9.01557,-4.073212 18.4796,-7.0455 27.81161,-10.329585 17.75356,-6.247763 35.10644,-13.656646 51.79835,-22.35169 22.84868,-11.902189 44.38358,-26.170575 65.40768,-41.060562 1.1478,-0.812885 2.2942,-1.627746 3.4533,-2.424385 5.7609,-3.959428 11.893,-7.493055 18.5608,-9.592059 6.6678,-2.099003 13.9316,-2.701956 20.6632,-0.817777 6.3883,1.788079 12.0436,5.749752 16.4661,10.694326 7.431,8.308202 11.4144,19.124143 14.1991,29.917296 2.7846,10.793154 4.5506,21.88126 8.3605,32.356542 4.1046,11.285586 10.5069,21.645298 14.3627,33.018268 4.7095,13.89096 5.4596,28.79178 8.8862,43.05349 3.1402,13.06968 8.5061,25.5106 11.8852,38.52058 4.4084,16.97321 5.3659,34.61745 7.621,52.00821 4.7095,36.31873 15.1262,71.77839 18.6546,108.23083 2.3554,24.33369 1.6147,48.85001 2.5346,73.28012 0.9503,25.23744 3.6744,50.41888 3.449,75.67319 -0.021,2.30499 -0.068,4.62825 -0.5671,6.87862 -0.4993,2.25036 -1.4853,4.44773 -3.1451,6.04724 -1.4422,1.38984 -3.3065,2.2546 -5.1853,2.94878 -1.8788,0.69419 -3.8173,1.24668 -5.6125,2.13498 -2.5113,1.24265 -4.6822,3.12272 -6.4136,5.3257 -1.7314,2.20298 -3.0331,4.72421 -3.9972,7.35503 -1.9284,5.26164 -2.5123,10.90321 -3.1431,16.47148 -3.6221,31.97217 -9.2833,63.67529 -13.7136,95.54552 -9.6514,69.43016 -13.4488,139.67314 -11.3387,209.73914"
       id="path897"
       inkscape:path-effect="#path-effect899"
       inkscape:original-d="M 635.67731,862.1739 C 628.4375,803.45341 621.1967,744.73192 613.95489,686.00944 c -7.24181,-58.72249 0.8541,-114.88731 1.27965,-172.33246 0.42555,-57.44515 22.30372,-63.37836 33.45407,-95.06904 11.15036,-31.69068 20.98603,-36.61617 31.47754,-54.92576 10.49152,-18.30959 15.26248,-44.20901 22.89222,-66.31502 7.62974,-22.106 9.1664,-46.97185 13.74809,-70.45927 4.5817,-23.48743 7.47887,-43.15221 11.21681,-64.72981 3.73793,-21.5776 27.18906,-19.40498 40.78209,-29.10898 13.59303,-9.70399 30.93908,-8.71732 46.40711,-13.07748 15.46804,-4.36015 8.78385,11.20311 13.17428,16.80316 4.39042,5.60005 13.16185,18.12656 19.74127,27.18834 6.57943,9.06178 15.63626,18.61354 23.45289,27.91881 7.81663,9.30527 12.4505,16.45747 18.67425,24.68471 6.22375,8.22723 5.17042,3.4862 7.75413,5.2278 2.5837,1.7416 2.46805,-2.63625 3.70058,-3.95588 1.23253,-1.31962 -6.62631,-9.61555 -9.94096,-14.42482 -3.31466,-4.80928 -13.01435,-19.92121 -19.52302,-29.88331 -6.50867,-9.9621 -20.22449,-28.12776 -30.33824,-42.19314 -10.11374,-14.06538 -3.07765,-11.20563 -4.61797,-16.80994 -1.54033,-5.60432 -1.1428,-8.25548 -1.71571,-12.38471 -0.5729,-4.129238 -8.04966,-2.307395 -12.076,-3.462592 -4.02633,-1.155196 -8.69263,-1.679225 -13.04045,-2.520337 -4.34782,-0.841112 1.79575,-17.962684 2.69213,-26.945526 0.89638,-8.982842 14.05378,0.737758 21.07917,1.105137 7.0254,0.367379 10.60054,5.61416 15.89931,8.41974 5.29877,2.80558 5.2696,11.140483 7.9029,16.709225 2.6333,5.568743 3.65451,8.816183 5.48026,13.222783 1.82576,4.40659 -1.2607,6.38758 -1.89256,9.57987 -0.63185,3.19229 1.52913,5.11939 2.2922,7.67758 0.76306,2.5582 5.69617,3.66451 8.54275,5.49527 2.84659,1.83075 15.28628,-10.20931 22.92792,-15.31547 7.64164,-5.10615 34.80998,-17.918592 52.21347,-26.879389 17.40348,-8.960797 34.53323,-14.900127 51.79835,-22.35169 17.26508,-7.451564 43.60608,-27.372708 65.40768,-41.060562 21.8015,-13.687855 2.3032,-1.615257 3.4533,-2.424385 1.1501,-0.809128 36.4587,-13.137972 39.224,-10.409836 2.7654,2.728136 5.5642,-5.3945279 16.4661,10.694326 10.9018,16.088854 10.1466,60.241052 22.5596,62.273838 12.413,2.032786 9.5761,22.013178 14.3627,33.018268 4.7865,11.00509 5.9251,28.70333 8.8862,43.05349 2.9611,14.35016 7.9244,25.68138 11.8852,38.52058 3.9607,12.83919 5.0816,34.67314 7.621,52.00821 2.5393,17.33506 12.4374,72.15488 18.6546,108.23083 6.2172,36.07594 1.6907,48.85441 2.5346,73.28012 0.8438,24.4257 2.3003,50.44979 3.449,75.67319 1.1487,25.2234 -2.4738,8.61824 -3.7122,12.92586 -1.2384,4.30762 -7.1975,3.39018 -10.7978,5.08376 -3.6002,1.69359 -9.035,19.43581 -13.5539,29.15221 -4.519,9.7164 -9.1414,63.69801 -13.7136,95.54552 -4.5722,31.8475 -7.5581,139.82709 -11.3387,209.73914"
       sodipodi:nodetypes="csssssssssssssssssssssssssssssssssssssssssssssssssc" />
  </g>
</svg>
