<?xml version="1.0" encoding="UTF-8" standalone="no"?>
<!-- Created with Inkscape (http://www.inkscape.org/) -->

<svg
   version="1.1"
   id="svg2"
   width="1893"
   height="1024"
   viewBox="0 0 1893 1024"
   sodipodi:docname="frame_0080.svg"
   inkscape:version="1.1.2 (0a00cf5339, 2022-02-04)"
   xmlns:inkscape="http://www.inkscape.org/namespaces/inkscape"
   xmlns:sodipodi="http://sodipodi.sourceforge.net/DTD/sodipodi-0.dtd"
   xmlns:xlink="http://www.w3.org/1999/xlink"
   xmlns="http://www.w3.org/2000/svg"
   xmlns:svg="http://www.w3.org/2000/svg">
  <defs
     id="defs6">
    <inkscape:path-effect
       effect="spiro"
       id="path-effect899"
       is_visible="true"
       lpeversion="1" />
    <inkscape:path-effect
       effect="spiro"
       id="path-effect862"
       is_visible="true"
       lpeversion="1" />
  </defs>
  <sodipodi:namedview
     id="namedview4"
     pagecolor="#ffffff"
     bordercolor="#666666"
     borderopacity="1.0"
     inkscape:pageshadow="2"
     inkscape:pageopacity="0.0"
     inkscape:pagecheckerboard="0"
     showgrid="false"
     inkscape:zoom="0.33518225"
     inkscape:cx="1473.8251"
     inkscape:cy="753.32151"
     inkscape:window-width="1850"
     inkscape:window-height="1016"
     inkscape:window-x="70"
     inkscape:window-y="27"
     inkscape:window-maximized="1"
     inkscape:current-layer="g8" />
  <g
     inkscape:groupmode="layer"
     inkscape:label="Image"
     id="g8">
    
    <path
       style="font-variation-settings:normal;opacity:1;vector-effect:none;fill:none;fill-opacity:1;stroke:#c86487;stroke-width:1px;stroke-linecap:butt;stroke-linejoin:miter;stroke-miterlimit:4;stroke-dasharray:none;stroke-dashoffset:0;stroke-opacity:1;-inkscape-stroke:none;stop-color:#000000;stop-opacity:1"
       d="M 1160.7645,862.53972 635.635,862.51785"
       id="path860"
       inkscape:path-effect="#path-effect862"
       inkscape:original-d="M 1160.7645,862.53972 635.635,862.51785" />
    <path
       style="font-variation-settings:normal;opacity:1;vector-effect:none;fill:none;fill-opacity:1;stroke:#c86487;stroke-width:1px;stroke-linecap:butt;stroke-linejoin:miter;stroke-miterlimit:4;stroke-dasharray:none;stroke-dashoffset:0;stroke-opacity:1;-inkscape-stroke:none;stop-color:#000000;stop-opacity:1"
       d="m 635.635,862.51785 c -10.05313,-49.99699 -17.40791,-100.53644 -22.02165,-151.325 -4.38136,-48.23047 -6.23544,-97.36472 4.37715,-144.61668 5.61119,-24.98352 14.68962,-49.37811 16.41747,-74.92564 0.82142,-12.14536 -0.0345,-24.42551 1.90984,-36.44233 2.51962,-15.57225 9.63372,-30.02028 17.6307,-43.61777 7.99697,-13.59749 16.98391,-26.65379 23.79818,-40.88084 13.35604,-27.88516 17.84626,-59.10714 28.01583,-88.30552 4.44312,-12.75689 9.96804,-25.11665 14.39494,-37.87918 4.4269,-12.76252 7.76831,-26.08776 7.61719,-39.59541 -0.12789,-11.43101 -2.72843,-23.10176 0.25147,-34.13827 1.75584,-6.50301 5.39606,-12.40257 9.94771,-17.36791 4.55164,-4.96534 9.99992,-9.03927 15.7155,-12.60357 8.94777,-5.57994 18.58509,-9.9593 28.28513,-14.09541 5.51955,-2.35354 11.11634,-4.6482 17.00659,-5.79253 5.89025,-1.14433 12.1546,-1.07788 17.70732,1.1963 4.10131,1.67974 7.646,4.48375 10.86263,7.53262 12.88591,12.21384 21.09703,28.49589 32.56106,42.0532 8.35244,9.87756 18.47972,18.37118 25.1987,29.42489 0.85456,1.40588 1.66147,2.86298 2.79662,4.05387 0.56757,0.59544 1.2162,1.12009 1.94688,1.49797 0.73069,0.37788 1.54607,0.6058 2.36867,0.60217 0.75186,-0.003 1.504,-0.20275 2.15079,-0.58611 0.64679,-0.38335 1.18535,-0.9512 1.51993,-1.62451 0.36085,-0.72616 0.4796,-1.56048 0.39988,-2.36744 -0.0797,-0.80695 -0.35191,-1.58766 -0.734,-2.30288 -0.76419,-1.43042 -1.94453,-2.58499 -3.07662,-3.74623 -8.57831,-8.79919 -15.29189,-19.20255 -22.27089,-29.31722 -4.89395,-7.09281 -9.94461,-14.07617 -15.03632,-21.02838 -2.95865,-4.03973 -5.95574,-8.11083 -7.97466,-12.69308 -1.2206,-2.77033 -2.07429,-5.7348 -2.17639,-8.76039 -0.11442,-3.39071 0.71105,-6.73344 1.47882,-10.03806 0.36323,-1.56339 0.71597,-3.13775 0.81406,-4.73977 0.0981,-1.60203 -0.0685,-3.24557 -0.70882,-4.71735 -0.52874,-1.21537 -1.37025,-2.28414 -2.38216,-3.14013 -1.01191,-0.856 -2.1914,-1.50314 -3.43315,-1.96656 -2.48349,-0.92684 -5.17768,-1.119046 -7.82841,-1.138964 -3.32637,-0.02499 -6.66511,0.205985 -9.97224,-0.152109 -3.30713,-0.358093 -6.65273,-1.364828 -9.15944,-3.551541 -1.87059,-1.63179 -3.18584,-3.864468 -3.82144,-6.264019 -0.63559,-2.39955 -0.60405,-4.95731 -0.0257,-7.371293 1.15674,-4.827968 4.43654,-8.948553 8.39244,-11.948248 4.24035,-3.215389 9.37787,-5.307984 14.68816,-5.65451 5.3103,-0.346526 10.77251,1.107713 15.02861,4.302224 4.14278,3.109453 6.95402,7.631421 9.63786,12.061805 2.68384,4.430383 5.42573,8.980292 9.484,12.199258 1.53345,1.216312 3.22856,2.219058 4.74388,3.457881 1.51532,1.238824 2.8787,2.773927 3.44523,4.647406 0.38596,1.27633 0.37983,2.65267 0.10087,3.95658 -0.27896,1.3039 -0.82305,2.54013 -1.49086,3.69425 -1.33563,2.30826 -3.15767,4.29636 -4.61974,6.52667 -1.62957,2.48583 -2.824,5.38772 -2.64581,8.35472 0.0891,1.4835 0.53007,2.95699 1.35465,4.19344 0.82457,1.23644 2.04227,2.22458 3.45497,2.6861 1.20073,0.39227 2.50893,0.39856 3.74278,0.12794 1.23385,-0.27062 2.39757,-0.8098 3.46819,-1.48016 2.14124,-1.34073 3.90961,-3.18857 5.87094,-4.78094 7.4271,-6.02993 17.27104,-8.16343 25.38282,-13.235 5.8145,-3.63528 10.58347,-8.67886 15.5283,-13.429894 4.94484,-4.75103 10.27785,-9.351014 16.69379,-11.77164 6.67609,-2.518777 14.02086,-2.488848 21.14251,-2.045685 7.12166,0.443162 14.30199,1.264319 21.36017,0.217162 10.75614,-1.59579 20.46445,-7.442894 28.77095,-14.46022 8.3065,-7.017325 15.4797,-15.261971 23.3463,-22.769145 22.5078,-21.479381 51.558,-37.0006435 82.5682,-39.5169163 1.4909,-0.1209774 2.9841,-0.2122229 4.4773,-0.2998315 3.9096,-0.2293763 7.964,-0.4120154 11.6045,1.031539 1.8203,0.7217772 3.5014,1.8585102 4.6984,3.4081918 1.197,1.549682 1.8813,3.528769 1.7061,5.479076 -0.1978,2.202313 -1.4355,4.171473 -2.8122,5.901747 -1.3768,1.730274 -2.9403,3.339576 -3.9867,5.287471 -1.2913,2.403772 -1.7168,5.216701 -1.477,7.93481 0.2399,2.718109 1.1193,5.350423 2.3036,7.808687 2.3686,4.916528 5.9283,9.159582 8.5956,13.920713 3.7232,6.645982 5.6294,14.167164 6.7329,21.704632 1.1035,7.537467 1.4416,15.164415 2.2474,22.739493 4.2327,39.79072 21.1432,76.91711 34.1306,114.76608 17.023,49.60989 27.5468,101.90658 25.8783,154.32929 -1.1304,35.51476 -7.7289,71.90014 2.1914,106.01999 1.493,5.13509 3.3519,10.1698 4.5244,15.38741 1.1725,5.21761 1.6391,10.70762 0.3239,15.8911 -1.271,5.00925 -4.2548,9.60771 -8.4567,12.61632 -4.7184,3.37842 -10.6502,4.63627 -15.5759,7.70464 -3.5554,2.21477 -6.5042,5.33815 -8.7425,8.87877 -2.2383,3.54062 -3.7818,7.4928 -4.8016,11.55554 -2.0398,8.12549 -2.0034,16.60588 -2.0602,24.98328 -0.1731,25.52824 -1.3231,51.04013 -2.7297,76.53018 -3.9046,70.75964 -9.7886,141.41004 -17.6428,211.84074"
       id="path897"
       inkscape:path-effect="#path-effect899"
       inkscape:original-d="m 635.635,862.51785 c -7.33955,-50.44067 -14.6801,-100.88233 -22.02165,-151.325 -7.34154,-50.44267 2.9191,-96.41012 4.37715,-144.61668 1.45805,-48.20656 10.94598,-49.94943 16.41747,-74.92564 5.47149,-24.97622 1.27423,-24.29389 1.90984,-36.44233 0.63562,-12.14844 27.62025,-56.3314 41.42888,-84.49861 13.80862,-28.1672 18.67822,-58.86935 28.01583,-88.30552 9.33761,-29.43617 14.67575,-51.64873 22.01213,-77.47459 7.33637,-25.82586 0.16864,-22.75784 0.25147,-34.13827 0.0828,-11.38042 17.1098,-19.97999 25.66321,-29.97148 8.5534,-9.9915 18.85775,-9.39594 28.28513,-14.09541 9.42738,-4.69947 23.14361,-3.06316 34.71391,-4.59623 11.57031,-1.53308 7.24275,5.02275 10.86263,7.53262 3.61987,2.50988 21.70837,28.03647 32.56106,42.0532 10.85268,14.01674 16.80013,19.61759 25.1987,29.42489 8.39857,9.8073 4.74244,4.10367 7.11217,6.15401 2.36972,2.05033 2.44815,-1.47275 3.67072,-2.21062 1.22258,-0.73787 -2.27282,-5.61003 -3.41074,-8.41655 -1.13791,-2.80652 -14.84626,-19.54381 -22.27089,-29.31722 -7.42463,-9.7734 -10.02321,-14.01792 -15.03632,-21.02838 -5.0131,-7.01046 -5.31544,-8.46105 -7.97466,-12.69308 -2.65922,-4.23202 -1.44993,-5.83926 -2.17639,-8.76039 -0.72647,-2.92113 0.98688,-6.69104 1.47882,-10.03806 0.49194,-3.34701 0.0712,-6.30375 0.10524,-9.45712 0.0341,-3.15338 -9.09482,-4.16277 -13.64372,-6.245654 -4.54891,-2.082884 -12.75345,-2.4681 -19.13168,-3.70365 -6.37822,-1.23555 3.03122,-17.054707 4.54532,-25.58356 1.51411,-8.528854 19.81218,-0.900524 29.71677,-1.352286 9.90459,-0.451763 12.74891,16.175042 19.12186,24.261063 6.37296,8.086017 5.46041,5.404527 8.18911,8.105287 2.7287,2.70077 -4.00549,9.45267 -6.00973,14.1775 -2.00424,4.72484 1.44354,10.15717 2.16381,15.23426 0.72026,5.07708 8.72227,-4.08778 13.08191,-6.13316 4.35964,-2.04539 16.92288,-8.82233 25.38282,-13.235 8.45994,-4.41266 21.48239,-16.800022 32.22209,-25.201534 10.73969,-8.401512 28.33612,-1.218015 42.50268,-1.828523 14.16656,-0.610507 34.74585,-24.818576 52.11725,-37.229365 17.3714,-12.410788 55.0465,-26.343611 82.5682,-39.5169163 27.5217,-13.1733055 2.9859,-0.1988877 4.4773,-0.2998315 1.4914,-0.1009439 12.007,6.6135378 18.009,9.9188068 6.002,3.305268 -4.5316,7.460478 -6.7989,11.189218 -2.2673,3.728739 6.2824,19.77714 9.4222,29.66421 3.1397,9.88707 5.9879,29.630415 8.9803,44.444125 2.9925,14.81371 22.7547,76.51172 34.1306,114.76608 11.3758,38.25435 17.2532,102.88719 25.8783,154.32929 8.6252,51.44209 1.4619,70.68099 2.1914,106.01999 0.7294,35.33899 3.2332,20.85334 4.8483,31.27851 1.6151,10.42517 -5.6368,8.41188 -8.4567,12.61632 -2.8199,4.20444 -10.3829,5.13742 -15.5759,7.70464 -5.193,2.56721 -10.4019,30.27939 -15.6043,45.41759 -5.2024,15.1382 -1.8188,51.02112 -2.7297,76.53018 -0.9109,25.50906 -11.7609,141.22816 -17.6428,211.84074" />
  </g>
</svg>
