<?xml version="1.0" encoding="UTF-8" standalone="no"?>
<!-- Created with Inkscape (http://www.inkscape.org/) -->

<svg
   version="1.1"
   id="svg2"
   width="1893"
   height="1024"
   viewBox="0 0 1893 1024"
   sodipodi:docname="frame_0136.svg"
   inkscape:version="1.1.2 (0a00cf5339, 2022-02-04)"
   xmlns:inkscape="http://www.inkscape.org/namespaces/inkscape"
   xmlns:sodipodi="http://sodipodi.sourceforge.net/DTD/sodipodi-0.dtd"
   xmlns:xlink="http://www.w3.org/1999/xlink"
   xmlns="http://www.w3.org/2000/svg"
   xmlns:svg="http://www.w3.org/2000/svg">
  <defs
     id="defs6">
    <inkscape:path-effect
       effect="spiro"
       id="path-effect866"
       is_visible="true"
       lpeversion="1" />
    <inkscape:path-effect
       effect="spiro"
       id="path-effect862"
       is_visible="true"
       lpeversion="1" />
  </defs>
  <sodipodi:namedview
     id="namedview4"
     pagecolor="#ffffff"
     bordercolor="#666666"
     borderopacity="1.0"
     inkscape:pageshadow="2"
     inkscape:pageopacity="0.0"
     inkscape:pagecheckerboard="0"
     showgrid="false"
     inkscape:zoom="0.94803857"
     inkscape:cx="1048.4806"
     inkscape:cy="281.10671"
     inkscape:window-width="1850"
     inkscape:window-height="1016"
     inkscape:window-x="70"
     inkscape:window-y="27"
     inkscape:window-maximized="1"
     inkscape:current-layer="g8" />
  <g
     inkscape:groupmode="layer"
     inkscape:label="Image"
     id="g8">
    
    <path
       style="font-variation-settings:normal;opacity:1;vector-effect:none;fill:none;fill-opacity:1;stroke:#c86487;stroke-width:1px;stroke-linecap:butt;stroke-linejoin:miter;stroke-miterlimit:4;stroke-dasharray:none;stroke-dashoffset:0;stroke-opacity:1;-inkscape-stroke:none;stop-color:#000000;stop-opacity:1"
       d="M 1160.4477,862.48002 H 635.55857"
       id="path860"
       inkscape:path-effect="#path-effect862"
       inkscape:original-d="m 1160.4477,862.48002 c -174.96207,10e-4 -349.9251,10e-4 -524.88913,0" />
    <path
       style="font-variation-settings:normal;opacity:1;vector-effect:none;fill:none;fill-opacity:1;stroke:#c86487;stroke-width:1px;stroke-linecap:butt;stroke-linejoin:miter;stroke-miterlimit:4;stroke-dasharray:none;stroke-dashoffset:0;stroke-opacity:1;-inkscape-stroke:none;stop-color:#000000;stop-opacity:1"
       d="m 635.55857,862.48002 c -6.4634,-36.69251 -11.8243,-73.57922 -16.07306,-110.5936 -6.20092,-54.02129 -10.02897,-108.6414 -4.57446,-162.74315 3.716,-36.85795 11.70705,-73.14187 20.23559,-109.19157 6.95031,-29.37859 14.48736,-59.20313 30.30241,-84.91874 9.94462,-16.17016 23.08151,-30.57399 30.05142,-48.23157 7.33534,-18.58335 7.21798,-39.19789 11.82622,-58.63786 4.34969,-18.34927 12.84796,-35.40987 19.15518,-53.18161 6.49119,-18.2901 10.67229,-38.18518 6.23018,-57.07779 -0.72272,-3.07379 -1.67302,-6.1228 -1.84936,-9.27549 -0.35437,-6.33539 2.51034,-12.5403 6.69674,-17.30862 4.1864,-4.76832 9.61086,-8.27271 15.14357,-11.37946 13.22773,-7.42768 27.4817,-12.94153 40.5026,-20.72609 5.35037,-3.19873 10.53048,-6.79889 16.37541,-8.96573 2.92246,-1.08342 6.00288,-1.7963 9.11906,-1.85933 3.11619,-0.063 6.27258,0.54108 9.04223,1.97064 4.45714,2.30056 7.57201,6.49689 10.53043,10.54738 4.8841,6.68702 9.7832,13.36366 14.79099,19.95856 17.86804,23.53094 37.10127,45.9972 55.06593,69.45445 0.30532,0.39868 0.61549,0.80288 1.01634,1.10534 0.68392,0.51605 1.58156,0.68899 2.43585,0.62387 0.85429,-0.0651 1.67627,-0.34967 2.46904,-0.67457 0.67328,-0.27593 1.33765,-0.5849 1.93615,-0.99871 0.5985,-0.41381 1.13176,-0.93822 1.48152,-1.57628 0.34933,-0.63727 0.50504,-1.37191 0.4947,-2.09857 -0.0103,-0.72666 -0.18262,-1.44578 -0.45576,-2.11923 -0.54629,-1.3469 -1.47851,-2.49583 -2.40802,-3.61323 -12.8012,-15.38877 -27.72972,-29.15181 -38.33299,-46.12989 -6.30775,-10.10004 -10.94914,-21.13107 -15.64109,-32.07566 -2.77129,-6.46439 -5.57452,-12.92974 -7.72051,-19.62773 -0.54931,-1.71448 -1.05843,-3.451411 -1.84716,-5.069769 -0.78873,-1.618359 -1.88385,-3.131859 -3.38429,-4.12677 -1.30781,-0.867183 -2.86632,-1.301328 -4.42801,-1.454625 -1.56169,-0.153296 -3.13678,-0.03819 -4.6982,0.117847 -1.56142,0.156036 -3.12238,0.353156 -4.69155,0.363876 -1.56916,0.01072 -3.15904,-0.170876 -4.61853,-0.747319 -1.40792,-0.556075 -2.66466,-1.472878 -3.66697,-2.607259 -1.00232,-1.134381 -1.75276,-2.482782 -2.24274,-3.915042 -0.97997,-2.864519 -0.90922,-6.01263 -0.22589,-8.962013 0.85927,-3.708771 2.67904,-7.192389 5.24207,-10.007394 2.56302,-2.815005 5.86443,-4.95397 9.48517,-6.130211 5.36509,-1.742912 11.22674,-1.347027 16.70445,7.8e-4 3.74517,0.92151 7.40255,2.286627 10.69409,4.296919 3.29154,2.010291 6.21275,4.683217 8.2719,7.944418 2.72976,4.323291 3.83202,9.437667 5.2537,14.349006 0.9395,3.245601 2.04457,6.487142 2.24891,9.859802 0.23205,3.830004 -0.70871,7.620434 -1.17343,11.429224 -0.11896,0.97497 -0.20692,1.95904 -0.13636,2.9387 0.0706,0.97966 0.30563,1.96022 0.79737,2.81046 0.69459,1.20097 1.86944,2.07635 3.15648,2.59433 1.28704,0.51799 2.68561,0.70275 4.07211,0.75188 6.35268,0.22509 12.50723,-2.30537 17.95552,-5.58002 5.44829,-3.27465 10.40358,-7.31916 15.85591,-10.58708 14.63369,-8.770877 31.9645,-11.494049 48.2819,-16.475575 26.75994,-8.169521 51.10897,-22.567879 75.38557,-36.477581 16.449,-9.424697 33.0156,-18.695945 48.7026,-29.340685 7.4734,-5.071231 14.9097,-10.5345556 23.5452,-13.1799029 5.1254,-1.570077 10.6162,-2.0890531 15.8884,-1.1201205 5.2721,0.9689326 10.3099,3.4720417 13.9991,7.3610494 2.8207,2.97347 4.7946,6.66521 6.2287,10.504614 1.4342,3.839404 2.3551,7.847391 3.2961,11.836418 10.0639,42.662784 22.8686,84.654883 32.3638,127.447823 6.725,30.30814 11.7768,60.95922 17.7516,91.42413 6.6126,33.71713 14.3767,67.34825 16.8254,101.62034 3.6488,51.06908 -4.5557,102.90968 4.3366,153.33082 0.2558,1.45022 0.5263,2.90611 0.5478,4.37856 0.021,1.47244 -0.2195,2.97829 -0.9307,4.26776 -0.65,1.17841 -1.6687,2.12779 -2.82,2.82471 -1.1512,0.69691 -2.4339,1.15294 -3.737,1.48938 -2.606,0.67288 -5.3355,0.88824 -7.853,1.84042 -3.4151,1.29171 -6.2297,3.88295 -8.2896,6.8977 -2.0598,3.01475 -3.4218,6.44913 -4.5622,9.91774 -8.5877,26.12097 -5.2382,54.52209 -8.8403,81.78155 -1.4771,11.17848 -4.1269,22.16275 -6.5944,33.1651 -15.2781,68.12238 -23.7033,137.77975 -25.1073,207.58022"
       id="path864"
       inkscape:path-effect="#path-effect866"
       inkscape:original-d="m 635.55857,862.48002 c -5.35669,-36.86353 -10.71437,-73.72807 -16.07306,-110.5936 -5.35868,-36.86553 -3.04864,-108.49443 -4.57446,-162.74315 -1.52582,-54.24871 13.49139,-72.79338 20.23559,-109.19157 6.74419,-36.39819 20.20261,-56.61149 30.30241,-84.91874 10.09981,-28.30724 20.03528,-32.15338 30.05142,-48.23157 10.01614,-16.07819 7.88515,-39.09091 11.82622,-58.63786 3.94107,-19.54696 12.77112,-35.4534 19.15518,-53.18161 6.38406,-17.7282 4.15445,-38.05086 6.23018,-57.07779 2.07573,-19.02694 -1.23191,-6.18266 -1.84936,-9.27549 -0.61745,-3.09283 14.56121,-19.12438 21.84031,-28.68808 7.27911,-9.56369 27.00273,-13.81639 40.5026,-20.72609 13.49987,-6.9097 23.02547,-5.90195 34.5367,-8.85442 11.51124,-2.95248 7.02128,7.03259 10.53043,10.54738 3.50914,3.5148 9.86166,13.3067 14.79099,19.95856 4.92933,6.65185 36.71162,46.30396 55.06593,69.45445 18.35431,23.15048 0.67856,0.73789 1.01634,1.10534 0.33778,0.36745 3.27093,-0.0328 4.90489,-0.0507 1.63396,-0.0179 2.27945,-1.71566 3.41767,-2.57499 1.13822,-0.85933 -1.57839,-5.21969 -2.36908,-7.83103 -0.7907,-2.61135 -25.55433,-30.75226 -38.33299,-46.12989 -12.77867,-15.37762 -10.42639,-21.38277 -15.64109,-32.07566 -5.2147,-10.69288 -5.146,-13.08415 -7.72051,-19.62773 -2.5745,-6.543574 -3.48664,-6.130025 -5.23145,-9.196539 -1.74482,-3.066514 -12.28986,-1.145814 -18.43629,-1.720221 -6.14643,-0.574407 -4.0894,-10.321876 -6.1356,-15.484314 -2.0462,-5.162438 9.81916,-10.757403 14.72724,-16.137605 4.90808,-5.380201 11.1373,0.0015 16.70445,7.8e-4 5.56715,-7.4e-4 12.64499,8.161891 18.96599,12.241337 6.32099,4.079446 3.50347,9.567004 5.2537,14.349006 1.75024,4.782002 1.50028,6.574201 2.24891,9.859802 0.74864,3.285604 -0.78129,7.620484 -1.17343,11.429224 -0.39215,3.80874 0.44167,3.83377 0.66101,5.74916 0.21933,1.91539 4.82006,2.2318 7.22859,3.34621 2.40854,1.1144 22.54196,-10.77707 33.81143,-16.1671 11.26948,-5.390039 32.18893,-10.982719 48.2819,-16.475575 16.09297,-5.492857 50.25807,-24.317387 75.38557,-36.477581 25.1275,-12.160194 32.4694,-19.559457 48.7026,-29.340685 16.2332,-9.7812285 15.6978,-8.785602 23.5452,-13.1799029 7.8473,-4.394301 19.926,4.1616189 29.8875,6.2409289 9.9615,2.07931 6.3508,14.895022 9.5248,22.341032 3.1739,7.446011 21.5769,84.966223 32.3638,127.447823 10.7869,42.48161 11.8354,60.95042 17.7516,91.42413 5.9162,30.47371 11.218,67.74789 16.8254,101.62034 5.6075,33.87244 2.8921,102.22154 4.3366,153.33082 1.4445,51.10927 -0.2543,5.76521 -0.3829,8.64632 -0.1286,2.88111 -9.6056,4.104 -14.41,6.15451 -4.8043,2.0505 -8.5669,11.21129 -12.8518,16.81544 -4.285,5.60415 -5.8926,54.52203 -8.8403,81.78155 -2.9478,27.25952 -4.3953,22.11107 -6.5944,33.1651 -2.1991,11.05403 -16.7372,138.38781 -25.1073,207.58022" />
  </g>
</svg>
