<?xml version="1.0" encoding="UTF-8" standalone="no"?>
<!-- Created with Inkscape (http://www.inkscape.org/) -->

<svg
   version="1.1"
   id="svg2"
   width="1893"
   height="1024"
   viewBox="0 0 1893 1024"
   sodipodi:docname="frame_0103.svg"
   inkscape:version="1.1.2 (0a00cf5339, 2022-02-04)"
   xmlns:inkscape="http://www.inkscape.org/namespaces/inkscape"
   xmlns:sodipodi="http://sodipodi.sourceforge.net/DTD/sodipodi-0.dtd"
   xmlns:xlink="http://www.w3.org/1999/xlink"
   xmlns="http://www.w3.org/2000/svg"
   xmlns:svg="http://www.w3.org/2000/svg">
  <defs
     id="defs6">
    <inkscape:path-effect
       effect="spiro"
       id="path-effect899"
       is_visible="true"
       lpeversion="1" />
    <inkscape:path-effect
       effect="spiro"
       id="path-effect862"
       is_visible="true"
       lpeversion="1" />
  </defs>
  <sodipodi:namedview
     id="namedview4"
     pagecolor="#ffffff"
     bordercolor="#666666"
     borderopacity="1.0"
     inkscape:pageshadow="2"
     inkscape:pageopacity="0.0"
     inkscape:pagecheckerboard="0"
     showgrid="false"
     inkscape:zoom="2.681458"
     inkscape:cx="1181.8197"
     inkscape:cy="866.13328"
     inkscape:window-width="1850"
     inkscape:window-height="1016"
     inkscape:window-x="70"
     inkscape:window-y="27"
     inkscape:window-maximized="1"
     inkscape:current-layer="g8" />
  <g
     inkscape:groupmode="layer"
     inkscape:label="Image"
     id="g8">
    
    <path
       style="font-variation-settings:normal;opacity:1;vector-effect:none;fill:none;fill-opacity:1;stroke:#c86487;stroke-width:1px;stroke-linecap:butt;stroke-linejoin:miter;stroke-miterlimit:4;stroke-dasharray:none;stroke-dashoffset:0;stroke-opacity:1;-inkscape-stroke:none;stop-color:#000000;stop-opacity:1"
       d="m 1160.6294,862.16751 -524.95361,0.29684"
       id="path860"
       inkscape:path-effect="#path-effect862"
       inkscape:original-d="m 1160.6294,862.16751 -524.95361,0.29684" />
    <path
       style="font-variation-settings:normal;opacity:1;vector-effect:none;fill:none;fill-opacity:1;stroke:#c86487;stroke-width:1px;stroke-linecap:butt;stroke-linejoin:miter;stroke-miterlimit:4;stroke-dasharray:none;stroke-dashoffset:0;stroke-opacity:1;-inkscape-stroke:none;stop-color:#000000;stop-opacity:1"
       d="m 635.67579,862.46435 c -0.70463,-32.47175 -5.04691,-64.86323 -12.91957,-96.37406 -9.23664,-36.97025 -23.40391,-73.31919 -24.13109,-111.41888 -0.54388,-28.49567 6.49029,-56.52409 13.2898,-84.20198 8.79793,-35.81264 17.28514,-71.71189 27.21749,-107.22664 5.22838,-18.69492 10.86683,-37.30947 18.15458,-55.30182 8.01292,-19.78269 17.99758,-38.74607 29.43275,-56.76824 4.43033,-6.98234 9.12684,-13.92202 11.81535,-21.74205 4.43201,-12.89134 3.03973,-27.0014 5.27071,-40.44953 2.3964,-14.44531 8.93116,-27.86459 16.17747,-40.58861 2.48038,-4.35538 5.06287,-8.67687 6.95025,-13.32009 1.88737,-4.64321 3.06605,-9.67316 2.59608,-14.66323 -0.53969,-5.73027 -3.19942,-11.05425 -4.18833,-16.72429 -1.28168,-7.34872 0.29575,-14.86785 2.02041,-22.12539 2.6078,-10.97388 5.66189,-22.07711 11.85808,-31.50228 5.38639,-8.19336 12.91033,-14.74458 20.70496,-20.69337 7.12523,-5.43791 14.78686,-10.56998 23.51368,-12.61507 7.99671,-1.87399 16.33691,-1.03307 24.54758,-0.82318 5.09805,0.13032 10.3753,0.047 15.05235,2.0798 3.16627,1.37618 5.87126,3.65932 8.1585,6.24537 2.28723,2.58606 4.18965,5.48366 6.10158,8.35832 5.28789,7.95055 10.71322,15.81065 16.33573,23.52819 7.16288,9.83187 14.64256,19.42802 22.00642,29.11027 6.20608,8.15995 12.34055,16.39415 19.18694,24.02483 2.84963,3.17606 5.81856,6.24297 8.69449,9.39524 0.93262,1.02224 1.86348,2.06081 2.97395,2.88641 1.11046,0.8256 2.42943,1.43373 3.81274,1.46865 0.84857,0.0214 1.69923,-0.17543 2.46191,-0.54807 0.76268,-0.37263 1.43729,-0.91899 1.97733,-1.57389 1.08006,-1.30981 1.59969,-3.03308 1.59099,-4.73074 -0.008,-1.49893 -0.40855,-2.98215 -1.06065,-4.33182 -0.65211,-1.34968 -1.55081,-2.57039 -2.5673,-3.67202 -2.033,-2.20327 -4.51909,-3.92722 -6.84126,-5.82326 -6.91938,-5.64963 -12.40834,-12.85864 -17.21851,-20.38581 -3.71919,-5.81997 -7.08891,-11.89329 -11.4216,-17.27216 -4.65255,-5.77598 -10.32489,-10.6383 -15.3643,-16.08003 -5.03942,-5.44173 -9.55635,-11.70632 -11.13916,-18.95221 -0.76695,-3.51101 -0.81437,-7.19095 -0.016,-10.69494 0.57179,-2.50953 1.56702,-4.90898 2.10942,-7.42503 0.27119,-1.25803 0.428,-2.54786 0.35424,-3.83267 -0.0738,-1.28481 -0.38408,-2.56718 -1.00433,-3.69477 -0.91636,-1.66591 -2.46828,-2.91724 -4.17617,-3.75273 -1.7079,-0.835495 -3.57606,-1.286953 -5.44225,-1.650694 -4.0473,-0.788863 -8.1638,-1.193912 -12.19918,-2.04162 -1.87196,-0.393241 -3.73866,-0.886714 -5.45532,-1.730493 -1.71666,-0.84378 -3.28698,-2.060603 -4.31458,-3.673963 -1.21497,-1.907538 -1.59769,-4.257964 -1.43039,-6.513369 0.16731,-2.255405 0.85031,-4.44016 1.63286,-6.562061 1.03348,-2.802299 2.26549,-5.565495 4.07112,-7.94471 1.80563,-2.379214 4.23369,-4.366788 7.09256,-5.231545 2.73544,-0.827422 5.70514,-0.584712 8.45521,0.192704 2.75007,0.777416 5.32359,2.066229 7.87931,3.345126 6.06617,3.035547 12.27175,6.153593 16.9474,11.067988 3.87437,4.072198 6.52607,9.262016 7.72879,14.752643 0.7658,3.496024 0.95356,7.153294 0.20736,10.653554 -0.58877,2.76178 -1.74107,5.36718 -2.57622,8.0647 -0.43505,1.40522 -0.78564,2.84525 -0.88757,4.31274 -0.10193,1.46748 0.052,2.96869 0.59688,4.33508 0.52775,1.32349 1.41846,2.49707 2.53737,3.37921 1.11891,0.88214 2.46224,1.47283 3.86485,1.72345 1.67137,0.29865 3.40972,0.11651 5.02847,-0.39564 1.61876,-0.51216 3.12308,-1.34656 4.49927,-2.34093 2.75239,-1.98873 4.98688,-4.59354 7.41907,-6.96316 11.1385,-10.85196 26.18481,-16.58264 40.9353,-21.507504 26.9373,-8.993773 54.73271,-16.381691 79.37819,-30.492198 27.0291,-15.475245 49.642,-38.701062 78.6548,-50.028751 7.4009,-2.889608 15.3284,-4.973618 23.2359,-4.202387 5.4517,0.531714 10.8952,2.519779 14.8269,6.333666 3.9507,3.832321 6.0834,9.174573 7.3809,14.523523 1.2975,5.348949 1.871,10.858956 3.2937,16.175969 4.2576,15.911597 15.6831,28.811858 22.8476,43.643449 9.4801,19.625153 11.2132,41.922973 14.6376,63.447193 6.2693,39.40559 18.622,77.57956 26.65,116.66481 5.3858,26.22131 8.8174,52.82777 10.7278,79.52822 2.6219,36.64536 2.3858,73.48397 6.136,110.0311 1.2403,12.08739 2.9184,24.19874 2.3742,36.33741 -0.2758,6.15174 -1.1216,12.26418 -2.1169,18.34113 -0.1969,1.2019 -0.4006,2.40704 -0.7599,3.57075 -0.3593,1.1637 -0.8808,2.29153 -1.6572,3.2299 -0.9116,1.10177 -2.1403,1.90216 -3.4296,2.52066 -1.2893,0.61851 -2.6509,1.06962 -3.9845,1.58584 -5.0277,1.94622 -9.6403,4.8107 -14.1964,7.69306 -5.1963,3.28738 -10.382,6.63408 -15.0556,10.6298 -5.607,4.79372 -10.4787,10.57174 -13.5382,17.28422 -3.1361,6.88053 -4.2776,14.51679 -4.5588,22.0731 -0.2811,7.55632 0.263,15.11709 0.3313,22.67833 0.1703,18.85997 -2.6169,37.60164 -4.7929,56.33643 -7.6594,65.94636 -7.7734,132.76609 -0.3391,198.73821"
       id="path897"
       inkscape:path-effect="#path-effect899"
       inkscape:original-d="m 635.67579,862.46435 c -4.30552,-32.12369 -8.61205,-64.24837 -12.91957,-96.37406 -4.30753,-32.12569 -16.08639,-74.27825 -24.13109,-111.41888 -8.04469,-37.14063 8.86087,-56.13365 13.2898,-84.20198 4.42894,-28.06832 18.14599,-71.48343 27.21749,-107.22664 9.07149,-35.74322 12.10405,-36.86688 18.15458,-55.30182 6.05052,-18.43494 19.62283,-37.84449 29.43275,-56.76824 9.80991,-18.92375 7.8779,-14.4937 11.81535,-21.74205 3.93746,-7.24835 3.51481,-26.96536 5.27071,-40.44953 1.7559,-13.48418 10.78598,-27.05807 16.17747,-40.58861 5.39149,-13.53053 6.36522,-18.65455 9.54633,-27.98332 3.18111,-9.32877 -2.79122,-11.14853 -4.18833,-16.72429 -1.39711,-5.57577 1.34794,-14.74926 2.02041,-22.12539 0.67248,-7.37614 7.90639,-21.00052 11.85808,-31.50228 3.95169,-10.50176 13.8043,-13.79458 20.70496,-20.69337 6.90065,-6.89878 15.67679,-8.40904 23.51368,-12.61507 7.8369,-4.20602 16.36606,-0.54779 24.54758,-0.82318 8.18153,-0.2754 10.0359,1.38753 15.05235,2.0798 5.01645,0.69227 9.50772,9.73679 14.26008,14.60369 4.75236,4.8669 10.89149,15.68646 16.33573,23.52819 5.44425,7.84173 14.67195,19.40785 22.00642,29.11027 7.33447,9.70243 12.79229,16.01756 19.18694,24.02483 6.39465,8.00728 5.79732,6.26449 8.69449,9.39524 2.89716,3.13074 4.52546,2.90437 6.78669,4.35506 2.26124,1.45069 4.02115,-4.56747 6.03023,-6.8527 2.00908,-2.28524 -6.97847,-9.21707 -10.46921,-13.8271 -3.49074,-4.61003 -11.47801,-13.58954 -17.21851,-20.38581 -5.74051,-6.79627 -7.6134,-11.51378 -11.4216,-17.27216 -3.8082,-5.75839 -17.66798,-23.35383 -26.50346,-35.03224 -8.83549,-11.67841 -0.01,-7.12896 -0.016,-10.69494 -0.006,-3.56598 0.97389,-9.96732 1.45933,-14.95247 0.48545,-4.985161 -6.41128,-3.60128 -9.61842,-5.403424 -3.20713,-1.80214 -8.13179,-1.36008 -12.19918,-2.04162 -4.0674,-0.68154 -6.51227,-3.60197 -9.7699,-5.404456 -3.25763,-1.802485 0.13598,-8.715953 0.20247,-13.07543 0.0665,-4.359477 7.44345,-8.78317 11.16368,-13.176255 3.72022,-4.393085 10.89068,2.359553 16.33452,3.53783 5.44385,1.178276 11.29927,7.379658 16.9474,11.067988 5.64813,3.688329 5.15353,9.836095 7.72879,14.752643 2.57526,4.916548 0.13924,7.103364 0.20736,10.653554 0.0681,3.55018 -1.71648,5.37746 -2.57622,8.0647 -0.85974,2.68723 -0.19279,5.76621 -0.29069,8.64782 -0.0979,2.88161 4.26915,3.40277 6.40222,5.10266 2.13308,1.69988 11.29887,-6.46549 16.94681,-9.69973 5.64793,-3.23424 27.2912,-14.33733 40.9353,-21.507504 13.6441,-7.170169 52.91978,-20.327132 79.37819,-30.492198 26.4584,-10.165066 52.4375,-33.351501 78.6548,-50.028751 26.2172,-16.6772502 15.4916,-2.800591 23.2359,-4.202387 7.7443,-1.4017956 9.8856,4.223444 14.8269,6.333666 4.9414,2.110222 7.1174,20.467328 10.6746,30.699492 3.5572,10.232163 15.2327,29.096632 22.8476,43.643449 7.6149,14.546813 9.7594,42.299133 14.6376,63.447193 4.8782,21.14806 17.7677,77.77754 26.65,116.66481 8.8823,38.88727 7.1529,53.01981 10.7278,79.52822 3.575,26.50841 4.0917,73.35506 6.136,110.0311 2.0443,36.67603 1.5838,24.22594 2.3742,36.33741 0.7904,12.11148 -1.4102,12.22842 -2.1169,18.34113 -0.7066,6.11271 -1.6104,4.53477 -2.4171,6.80065 -0.8066,2.26589 -4.9417,2.73867 -7.4141,4.1065 -2.4724,1.36784 -9.4633,5.12971 -14.1964,7.69306 -4.7331,2.56335 -10.0361,7.08753 -15.0556,10.6298 -5.0196,3.54226 -9.0245,11.52381 -13.5382,17.28422 -4.5137,5.76041 -2.8173,29.83529 -4.2275,44.75143 -1.4101,14.91615 -3.1942,37.55862 -4.7929,56.33643 -1.5986,18.7778 -0.2251,132.49314 -0.3391,198.73821" />
  </g>
</svg>
