<?xml version="1.0" encoding="UTF-8" standalone="no"?>
<!-- Created with Inkscape (http://www.inkscape.org/) -->

<svg
   version="1.1"
   id="svg2"
   width="1893"
   height="1024"
   viewBox="0 0 1893 1024"
   sodipodi:docname="frame_0127.svg"
   inkscape:version="1.1.2 (0a00cf5339, 2022-02-04)"
   xmlns:inkscape="http://www.inkscape.org/namespaces/inkscape"
   xmlns:sodipodi="http://sodipodi.sourceforge.net/DTD/sodipodi-0.dtd"
   xmlns:xlink="http://www.w3.org/1999/xlink"
   xmlns="http://www.w3.org/2000/svg"
   xmlns:svg="http://www.w3.org/2000/svg">
  <defs
     id="defs6">
    <inkscape:path-effect
       effect="spiro"
       id="path-effect899"
       is_visible="true"
       lpeversion="1" />
    <inkscape:path-effect
       effect="spiro"
       id="path-effect862"
       is_visible="true"
       lpeversion="1" />
  </defs>
  <sodipodi:namedview
     id="namedview4"
     pagecolor="#ffffff"
     bordercolor="#666666"
     borderopacity="1.0"
     inkscape:pageshadow="2"
     inkscape:pageopacity="0.0"
     inkscape:pagecheckerboard="0"
     showgrid="false"
     inkscape:zoom="0.94803857"
     inkscape:cx="745.75025"
     inkscape:cy="530.04173"
     inkscape:window-width="1850"
     inkscape:window-height="1016"
     inkscape:window-x="70"
     inkscape:window-y="27"
     inkscape:window-maximized="1"
     inkscape:current-layer="g8" />
  <g
     inkscape:groupmode="layer"
     inkscape:label="Image"
     id="g8">
    
    <path
       style="font-variation-settings:normal;opacity:1;vector-effect:none;fill:none;fill-opacity:1;stroke:#c86487;stroke-width:1px;stroke-linecap:butt;stroke-linejoin:miter;stroke-miterlimit:4;stroke-dasharray:none;stroke-dashoffset:0;stroke-opacity:1;-inkscape-stroke:none;stop-color:#000000;stop-opacity:1"
       d="M 1160.5765,862.68298 H 635.63498"
       id="path860"
       inkscape:path-effect="#path-effect862"
       inkscape:original-d="M 1160.5765,862.68298 H 635.63498" />
    <path
       style="font-variation-settings:normal;opacity:1;vector-effect:none;fill:none;fill-opacity:1;stroke:#c86487;stroke-width:1px;stroke-linecap:butt;stroke-linejoin:miter;stroke-miterlimit:4;stroke-dasharray:none;stroke-dashoffset:0;stroke-opacity:1;-inkscape-stroke:none;stop-color:#000000;stop-opacity:1"
       d="m 635.63498,862.68298 c 43.35355,-62.49026 52.69729,-147.1432 24.01633,-217.58442 -9.71129,-23.85118 -23.36612,-45.9165 -33.49764,-69.59223 -2.65591,-6.20644 -5.08197,-12.57178 -6.1899,-19.23108 -2.01298,-12.09921 0.43712,-24.55066 4.47233,-36.1334 4.03521,-11.58275 9.63052,-22.55439 14.19932,-33.93722 12.5152,-31.1807 17.22483,-65.16615 30.92433,-95.84497 9.66956,-21.65414 23.60592,-41.16683 33.64931,-62.65014 12.18673,-26.06802 18.38883,-54.46209 27.69755,-81.69085 4.91681,-14.38207 10.78042,-28.80904 11.17757,-44.00316 0.18278,-6.99284 -0.80609,-13.95607 -1.30198,-20.93371 -0.4959,-6.97763 -0.47892,-14.12666 1.64415,-20.79193 1.92667,-6.0487 5.51424,-11.44678 9.5956,-16.30901 4.08135,-4.86224 8.68148,-9.25968 12.99628,-13.916 5.43715,-5.86751 10.45599,-12.18059 16.61668,-17.28315 6.1607,-5.10255 13.74933,-8.98969 21.74837,-8.91428 5.16529,0.0487 10.21156,1.74957 14.756,4.2053 4.54445,2.45573 8.64092,5.65258 12.65683,8.90143 14.49046,11.72271 28.46198,24.58481 38.06723,40.55775 5.23464,8.70489 9.11974,18.25032 15.25798,26.34344 2.71114,3.57457 5.82907,6.81962 9.00875,9.98467 1.32099,1.31491 2.68274,2.63855 4.3469,3.47793 0.83208,0.41969 1.73512,0.71192 2.66361,0.79198 0.92849,0.0801 1.88334,-0.0577 2.72495,-0.45791 1.33334,-0.63408 2.30887,-1.9065 2.73656,-3.31963 0.4277,-1.41313 0.33941,-2.95096 -0.0832,-4.3656 -0.84531,-2.8293 -2.91872,-5.09329 -4.84897,-7.32793 -6.10999,-7.07349 -11.35101,-14.84674 -17.11059,-22.20836 -8.52571,-10.89715 -18.20934,-20.92138 -25.7859,-32.49857 -1.00225,-1.53146 -1.97091,-3.09724 -2.66572,-4.7905 -0.6948,-1.69326 -1.10947,-3.53008 -0.96181,-5.35438 0.21524,-2.65927 1.58423,-5.06349 2.82393,-7.42594 1.74441,-3.32424 3.32143,-6.88037 3.36808,-10.634215 0.0273,-2.194589 -0.50826,-4.447093 -1.82298,-6.204504 -0.65736,-0.878705 -1.50338,-1.621861 -2.48132,-2.119736 -0.97794,-0.497875 -2.08848,-0.745593 -3.18289,-0.664969 -1.35182,0.09959 -2.619,0.684026 -3.80338,1.343257 -1.18439,0.659232 -2.32985,1.406796 -3.59905,1.882694 -2.08767,0.782791 -4.42793,0.779962 -6.57608,0.182799 -2.14814,-0.597164 -4.11103,-1.765875 -5.80153,-3.219609 -3.54506,-3.048558 -5.95332,-7.503262 -6.14186,-12.175052 -0.15262,-3.781854 1.15119,-7.581569 3.48623,-10.560379 2.33504,-2.978811 5.66761,-5.13435 9.30573,-6.178267 4.16107,-1.19397 8.62469,-0.956515 12.85379,-0.03198 4.2291,0.924537 8.27868,2.512499 12.33627,4.021145 2.24863,0.836058 4.52457,1.658671 6.55948,2.929299 2.0349,1.270628 3.83916,3.045401 4.69738,5.285664 0.54757,1.429349 0.68842,2.979294 0.75782,4.508363 0.0694,1.52907 0.0737,3.070102 0.36705,4.572364 0.70979,3.634348 3.03964,6.738758 4.20147,10.254784 1.67099,5.056876 0.81904,10.589041 -0.51397,15.745331 -0.81112,3.13753 -1.79714,6.24554 -2.20495,9.46046 -0.14572,1.14879 -0.21643,2.31721 -0.0464,3.46264 0.17006,1.14544 0.59376,2.27328 1.34731,3.15255 0.7319,0.85402 1.74778,1.43896 2.82766,1.75343 1.07987,0.31446 2.22309,0.36928 3.34387,0.2751 4.07561,-0.34249 7.76879,-2.60551 10.78599,-5.36674 3.0172,-2.76123 5.50396,-6.04458 8.3177,-9.01287 11.02577,-11.63141 26.45595,-17.873332 41.54332,-23.279663 25.58714,-9.168763 51.6927,-16.918696 76.89974,-27.085942 20.8797,-8.421824 41.09,-18.484877 60.4856,-29.917232 12.8621,-7.581288 25.4068,-15.785131 38.9496,-22.070231 2.7152,-1.2600816 5.4865,-2.4477558 8.4054,-3.1111991 2.9188,-0.6634434 6.0138,-0.7827731 8.8793,0.08267 3.4438,1.0401137 6.3714,3.4634308 8.4281,6.4149248 2.6727,3.835373 3.9307,8.449327 5.2247,12.941422 4.1751,14.494011 9.1981,28.754003 12.6607,43.434533 2.3223,9.84583 3.9478,19.896664 7.3598,29.419889 3.0562,8.530188 7.5101,16.529708 10.2177,25.176858 4.546,14.51806 3.9609,30.11807 6.8331,45.05762 1.7851,9.28472 4.8964,18.26256 6.998,27.48078 1.6791,7.3649 2.7084,14.85938 3.9515,22.31027 2.0686,12.39866 4.7315,24.68896 7.2161,37.01099 4.5579,22.60435 8.5192,45.33738 11.4052,68.21535 3.752,29.74286 5.6814,59.68293 7.4456,89.60956 1.2339,20.93102 2.3883,41.87347 2.7167,62.83826 0.1361,8.69158 0.1302,17.38617 -0.096,26.07587 -0.1362,5.23144 -0.3531,10.47132 -1.0817,15.65357 -0.1735,1.23442 -0.3777,2.47159 -0.779,3.65179 -0.4013,1.1802 -1.0102,2.309 -1.9029,3.17905 -0.8694,0.84737 -1.9792,1.42049 -3.1391,1.77925 -1.1598,0.35877 -2.3733,0.51225 -3.5841,0.6018 -2.4215,0.17909 -4.9166,0.11951 -7.1885,0.97647 -2.0381,0.76879 -3.7386,2.21986 -5.319,3.71899 -1.5804,1.49912 -3.1064,3.08971 -4.9577,4.23761 -3.0639,1.89973 -6.7473,2.43206 -10.2046,3.45333 -1.7287,0.51064 -3.434,1.15889 -4.9423,2.14587 -1.5083,0.98699 -2.8175,2.33497 -3.5443,3.98444 -0.8928,2.0262 -0.8494,4.35427 -0.4088,6.5242 0.4405,2.16994 1.2542,4.24382 1.8692,6.37089 2.4148,8.35159 1.7107,17.23654 1.261,25.91859 -1.2485,24.10362 -0.371,48.26067 -0.5093,72.39621 -0.3946,68.8555 -9.1001,137.65956 -25.8673,204.44352"
       id="path897"
       inkscape:path-effect="#path-effect899"
       inkscape:original-d="m 635.63498,862.68298 c 8.00644,-72.52714 16.01188,-145.05528 24.01633,-217.58442 8.00444,-72.52914 -22.33076,-46.39382 -33.49764,-69.59223 -11.16688,-23.19841 -4.1256,-12.81972 -6.1899,-19.23108 -2.06431,-6.41136 12.44877,-46.71274 18.67165,-70.07062 6.22289,-23.35787 20.61722,-63.89565 30.92433,-95.84497 10.30712,-31.94933 22.43387,-41.76576 33.64931,-62.65014 11.21543,-20.88438 18.46603,-54.45957 27.69755,-81.69085 9.23152,-27.23129 7.45271,-29.33444 11.17757,-44.00316 3.72485,-14.66872 0.83398,-27.81706 0.34217,-41.72564 -0.4918,-13.90858 14.45739,-20.14804 22.59188,-30.22501 8.13449,-10.07697 25.5777,-17.46396 38.36505,-26.19743 12.78735,-8.73348 18.27622,8.73882 27.41283,13.10673 9.13661,4.3679 25.37915,27.0395 38.06723,40.55775 12.68808,13.51825 10.17298,17.56329 15.25798,26.34344 5.08499,8.78015 6.00683,6.65745 9.00875,9.98467 3.00192,3.32722 6.49131,2.54233 9.73546,3.812 3.24415,1.26966 -1.46277,-10.00777 -2.19565,-15.01316 -0.73288,-5.00538 -11.40606,-14.80457 -17.11059,-22.20836 -5.70453,-7.40379 -17.1896,-21.66472 -25.7859,-32.49857 -8.5963,-10.83386 -2.41736,-6.76226 -3.62753,-10.14488 -1.21018,-3.38263 1.88362,-4.94963 2.82393,-7.42594 0.94031,-2.47631 2.24639,-7.08847 3.36808,-10.634215 1.1217,-3.545739 -4.99046,-5.991806 -7.48719,-8.989209 -2.49673,-2.997404 -4.93395,2.151634 -7.40243,3.225951 -2.46848,1.074318 -8.25074,-2.02354 -12.37761,-3.03681 -4.12687,-1.01327 -4.09358,-8.115701 -6.14186,-12.175052 -2.04829,-4.059351 8.52897,-11.158097 12.79196,-16.738646 4.26299,-5.580548 16.79437,2.660444 25.19006,3.989166 8.39569,1.328722 7.50557,5.477642 11.25686,8.214963 3.75128,2.737321 0.75091,6.054818 1.12487,9.080727 0.37396,3.025908 2.80198,6.837523 4.20147,10.254784 1.39949,3.417262 -0.34165,10.497891 -0.51397,15.745331 -0.17232,5.24745 -1.46896,6.30798 -2.20495,9.46046 -0.73598,3.15249 0.86829,4.41113 1.30094,6.61519 0.43264,2.20406 4.11535,1.35336 6.17153,2.02853 2.05617,0.67518 12.73679,-9.58541 19.10369,-14.37961 6.3669,-4.79421 27.69655,-15.518776 41.54332,-23.279663 13.84678,-7.760886 51.26751,-18.056294 76.89974,-27.085942 25.6323,-9.029647 40.3247,-19.943821 60.4856,-29.917232 20.1609,-9.973411 25.9674,-14.712487 38.9496,-22.070231 12.9822,-7.3577432 11.5241,-2.0180191 17.2847,-3.0285288 5.7606,-1.0105097 5.6197,4.2776168 8.4281,6.4149248 2.8083,2.137309 3.4841,8.628615 5.2247,12.941422 1.7406,4.312807 8.4415,28.957355 12.6607,43.434533 4.2193,14.477177 4.9075,19.614259 7.3598,29.419889 2.4523,9.805628 6.8128,16.785578 10.2177,25.176858 3.4049,8.39129 4.5564,30.03941 6.8331,45.05762 2.2766,15.0182 4.6663,18.32152 6.998,27.48078 2.3317,9.15926 2.6353,14.87452 3.9515,22.31027 1.3161,7.43576 4.8117,24.675 7.2161,37.01099 2.4043,12.336 7.6044,45.4779 11.4052,68.21535 3.8007,22.73745 4.9647,59.74071 7.4456,89.60956 2.4809,29.86885 1.8121,41.89318 2.7167,62.83826 0.9046,20.94509 -0.063,17.38491 -0.096,26.07587 -0.033,8.69095 -0.7202,10.43672 -1.0817,15.65357 -0.3616,5.21686 -1.787,4.55489 -2.6819,6.83084 -0.895,2.27594 -9.2735,2.23934 -13.9117,3.35752 -4.6382,1.11817 -6.8501,5.3054 -10.2767,7.9566 -3.4265,2.6512 -12.4598,6.3901 -18.6912,9.58364 -6.2315,3.19355 0.9746,8.59773 1.4604,12.89509 0.4859,4.29736 0.8417,17.28006 1.261,25.91859 0.4193,8.63853 -0.3385,48.26514 -0.5093,72.39621 -0.1708,24.13107 -17.2439,136.29668 -25.8673,204.44352"
       sodipodi:nodetypes="cssssssssssssssssssssssssssssssssssssssssssssssssssssssssssssssc" />
  </g>
</svg>
