<?xml version="1.0" encoding="UTF-8" standalone="no"?>
<!-- Created with Inkscape (http://www.inkscape.org/) -->

<svg
   version="1.1"
   id="svg2"
   width="1893"
   height="1024"
   viewBox="0 0 1893 1024"
   sodipodi:docname="frame_0102.svg"
   inkscape:version="1.1.2 (0a00cf5339, 2022-02-04)"
   xmlns:inkscape="http://www.inkscape.org/namespaces/inkscape"
   xmlns:sodipodi="http://sodipodi.sourceforge.net/DTD/sodipodi-0.dtd"
   xmlns:xlink="http://www.w3.org/1999/xlink"
   xmlns="http://www.w3.org/2000/svg"
   xmlns:svg="http://www.w3.org/2000/svg">
  <defs
     id="defs6">
    <inkscape:path-effect
       effect="spiro"
       id="path-effect899"
       is_visible="true"
       lpeversion="1" />
    <inkscape:path-effect
       effect="spiro"
       id="path-effect862"
       is_visible="true"
       lpeversion="1" />
  </defs>
  <sodipodi:namedview
     id="namedview4"
     pagecolor="#ffffff"
     bordercolor="#666666"
     borderopacity="1.0"
     inkscape:pageshadow="2"
     inkscape:pageopacity="0.0"
     inkscape:pagecheckerboard="0"
     showgrid="false"
     inkscape:zoom="3.7921543"
     inkscape:cx="1230.1715"
     inkscape:cy="791.23891"
     inkscape:window-width="1850"
     inkscape:window-height="1016"
     inkscape:window-x="70"
     inkscape:window-y="27"
     inkscape:window-maximized="1"
     inkscape:current-layer="g8" />
  <g
     inkscape:groupmode="layer"
     inkscape:label="Image"
     id="g8">
    
    <path
       style="font-variation-settings:normal;opacity:1;vector-effect:none;fill:none;fill-opacity:1;stroke:#c86487;stroke-width:1px;stroke-linecap:butt;stroke-linejoin:miter;stroke-miterlimit:4;stroke-dasharray:none;stroke-dashoffset:0;stroke-opacity:1;-inkscape-stroke:none;stop-color:#000000;stop-opacity:1"
       d="M 1161.2578,862.7911 635.61549,862.45205"
       id="path860"
       inkscape:path-effect="#path-effect862"
       inkscape:original-d="M 1161.2578,862.7911 635.61549,862.45205" />
    <path
       style="font-variation-settings:normal;opacity:1;vector-effect:none;fill:none;fill-opacity:1;stroke:#c86487;stroke-width:1px;stroke-linecap:butt;stroke-linejoin:miter;stroke-miterlimit:4;stroke-dasharray:none;stroke-dashoffset:0;stroke-opacity:1;-inkscape-stroke:none;stop-color:#000000;stop-opacity:1"
       d="m 635.61549,862.45205 c 7.52609,-46.02922 7.78299,-93.23946 0.75828,-139.34786 -6.74634,-44.28124 -20.18883,-88.02635 -18.65392,-132.79225 1.4172,-41.33276 15.52656,-81.00564 24.75155,-121.32072 3.42765,-14.97952 6.2096,-30.17853 11.51503,-44.60029 10.60022,-28.81456 30.81143,-53.30953 41.52532,-82.08202 3.55319,-9.54221 6.0191,-19.44823 9.04973,-29.16905 9.36914,-30.05178 24.14185,-58.36086 31.39214,-88.99293 1.58874,-6.71235 2.81361,-13.56638 2.67999,-20.46289 -0.11906,-6.14498 -1.31309,-12.21121 -2.05036,-18.31297 -0.73727,-6.10175 -1.00434,-12.39164 0.68854,-18.30004 2.25534,-7.87147 7.74689,-14.33461 12.98147,-20.6311 10.02052,-12.05333 20.20153,-24.90805 34.5415,-31.23724 8.7928,-3.88086 18.66627,-5.00334 28.22661,-4.01624 5.55833,0.57389 11.17389,1.89827 15.83539,4.97964 3.47373,2.29622 6.27777,5.47583 8.72886,8.84208 2.45108,3.36624 4.58916,6.95055 7.00941,10.33903 5.27886,7.39067 11.84684,13.77788 17.2628,21.06868 4.86401,6.54778 8.74979,13.75672 13.03241,20.6987 6.19436,10.04085 13.28722,19.60481 21.87791,27.69115 3.496,3.29075 7.23943,6.33399 11.30242,8.89195 0.85271,0.53685 1.73312,1.05818 2.70564,1.3219 0.48625,0.13185 0.99298,0.19729 1.49561,0.1628 0.50264,-0.0345 1.00133,-0.17085 1.43729,-0.42337 0.44628,-0.2585 0.82,-0.63518 1.09625,-1.07069 0.27626,-0.43551 0.45657,-0.92873 0.55116,-1.43572 0.18917,-1.01398 0.0375,-2.06489 -0.24575,-3.05671 -0.68499,-2.39834 -2.11987,-4.52419 -3.79397,-6.37315 -1.6741,-1.84895 -3.59518,-3.45393 -5.4445,-5.12763 -9.11382,-8.24836 -16.54368,-18.24045 -22.62672,-28.92192 -4.63938,-8.14648 -8.61241,-16.84394 -15.02929,-23.6786 -2.70573,-2.88189 -5.80995,-5.38851 -8.31903,-8.44314 -1.25454,-1.52732 -2.35759,-3.1937 -3.12192,-5.01643 -0.76432,-1.82274 -1.18254,-3.80919 -1.05377,-5.78149 0.12109,-1.85468 0.71665,-3.64424 1.38627,-5.37805 0.66962,-1.73382 1.42085,-3.44437 1.87687,-5.24619 0.80858,-3.19485 0.6565,-6.57433 -0.003,-9.80325 -0.59609,-2.91849 -1.59573,-5.737572 -2.63389,-8.529549 -0.45406,-1.221115 -0.93945,-2.476718 -1.8496,-3.408873 -0.56528,-0.578945 -1.27511,-1.007435 -2.03396,-1.288272 -0.75884,-0.280836 -1.56639,-0.417177 -2.37465,-0.454898 -1.61654,-0.07544 -3.22232,0.237331 -4.81895,0.501215 -1.95362,0.322886 -3.92897,0.574918 -5.9083,0.518418 -1.97932,-0.0565 -3.97218,-0.431482 -5.74699,-1.309525 -2.94612,-1.457521 -5.09176,-4.208312 -6.44926,-7.20184 -2.21706,-4.889021 -2.48297,-10.756299 -0.16179,-15.596753 1.75251,-3.65459 4.90185,-6.581436 8.59874,-8.242852 3.69689,-1.661416 7.90884,-2.079922 11.90004,-1.37449 5.11704,0.90442 9.77509,3.576034 13.84625,6.80524 3.79236,3.008064 7.16307,6.523778 10.21083,10.284307 2.81215,3.469819 5.42742,7.320025 6.16187,11.725524 0.42048,2.522171 0.20035,5.111551 -0.24421,7.62959 -0.44455,2.518039 -1.11096,4.991988 -1.59055,7.503588 -0.81805,4.28409 -1.0881,8.65274 -1.27047,13.01042 -0.0755,1.80486 -0.13423,3.63431 0.26492,5.39611 0.19958,0.88089 0.51458,1.73985 0.97999,2.51393 0.46541,0.77408 1.08431,1.46216 1.83645,1.96226 0.80632,0.53613 1.7523,0.8468 2.71451,0.9552 0.96221,0.1084 1.9408,0.0188 2.88373,-0.20137 1.88586,-0.44037 3.6089,-1.3873 5.29576,-2.33856 8.75025,-4.9345 17.29037,-10.29287 25.13257,-16.57109 8.43974,-6.7566 16.31932,-14.723058 26.46832,-18.44848 6.4778,-2.377826 13.4725,-2.859203 20.3571,-3.326465 6.88459,-0.467263 13.88043,-0.966249 20.34657,-3.375605 5.82465,-2.17033 10.97608,-5.802874 15.95876,-9.519014 4.9827,-3.716141 9.9148,-7.583325 15.4938,-10.324097 9.7227,-4.776457 20.9174,-5.893573 30.6609,-10.627499 10.259,-4.984366 18.2269,-13.626728 27.6991,-19.980217 10.2607,-6.882363 22.1717,-11.000971 32.4418,-17.869327 3.1447,-2.103053 6.1443,-4.4686838 9.5666,-6.0809635 1.7112,-0.8061398 3.5251,-1.4181999 5.3995,-1.6721764 1.8744,-0.2539765 3.8131,-0.1417759 5.6057,0.4620527 1.3155,0.4431258 2.5403,1.1470802 3.6002,2.0435162 1.9971,1.689169 3.3682,4.01597 4.3301,6.448328 0.962,2.432359 1.5467,4.993503 2.2161,7.522054 3.7671,14.229102 10.2639,27.565204 16.8634,40.722168 8.3163,16.579669 16.9113,33.172209 22.0772,50.986795 5.1331,17.70148 6.7608,36.19812 10.0221,54.33801 3.6313,20.19816 9.2949,39.97801 13.3011,60.10516 3.8459,19.32163 6.1559,38.91941 9.8089,58.27844 4.4137,23.39026 10.7978,46.50794 12.508,70.24947 1.3737,19.07014 -0.2949,38.2435 0.6473,57.33982 1.2419,25.17 7.0132,50.17135 5.4074,75.32076 -0.3809,5.96594 -1.1761,11.89651 -1.8041,17.84151 -0.3463,3.27782 -0.6891,6.70267 -2.4717,9.47511 -1.4604,2.27132 -3.7535,3.87561 -6.1167,5.18205 -2.3633,1.30643 -4.863,2.38078 -7.0914,3.90588 -2.8626,1.95913 -5.1833,4.59639 -7.4426,7.2285 -4.0774,4.75016 -8.0839,9.61142 -11.1831,15.05052 -7.7666,13.63029 -9.3044,29.84774 -9.9956,45.52022 -0.8752,19.84487 -0.666,39.71918 -0.8457,59.58253 -0.6319,69.83019 -6.0811,139.61637 -16.296,208.69828"
       id="path897"
       inkscape:path-effect="#path-effect899"
       inkscape:original-d="m 635.61549,862.45205 c 0.25376,-46.44829 0.50652,-92.89757 0.75828,-139.34786 0.25176,-46.45029 -12.43495,-88.52717 -18.65392,-132.79225 -6.21898,-44.26509 16.50203,-80.87948 24.75155,-121.32072 8.24951,-40.44124 7.67769,-29.73253 11.51503,-44.60029 3.83734,-14.86777 27.68454,-54.72035 41.52532,-82.08202 13.84077,-27.36167 6.03415,-19.44503 9.04973,-29.16905 3.01558,-9.72401 20.92909,-59.32762 31.39214,-88.99293 10.46304,-29.66531 1.78766,-13.64092 2.67999,-20.46289 0.89233,-6.82196 -0.90688,-24.40767 -1.36182,-36.61301 -0.45494,-12.20534 8.65531,-13.75307 12.98147,-20.6311 4.32616,-6.87803 23.02867,-20.82383 34.5415,-31.23724 11.51283,-10.41342 18.81874,-2.67649 28.22661,-4.01624 9.40788,-1.33975 10.55793,3.32076 15.83539,4.97964 5.27746,1.65888 10.49318,12.78841 15.73827,19.18111 5.24509,6.39271 11.50953,14.04679 17.2628,21.06868 5.75327,7.02189 8.68927,13.80013 13.03241,20.6987 4.34313,6.89857 14.58627,18.46176 21.87791,27.69115 7.29164,9.22938 7.53595,5.92897 11.30242,8.89195 3.76648,2.96299 3.76003,0.70855 5.63854,1.06133 1.87851,0.35277 0.93544,-3.70774 1.40166,-5.56312 0.46622,-1.85537 -6.15798,-7.66618 -9.23847,-11.50078 -3.08049,-3.83459 -15.08348,-19.28028 -22.62672,-28.92192 -7.54324,-9.64164 -10.01853,-15.78473 -15.02929,-23.6786 -5.01077,-7.89387 -8.32882,-12.82637 -12.49472,-19.24106 -4.16591,-6.41468 2.17642,-7.08182 3.26314,-10.62424 1.08671,-3.54241 -10e-4,-6.5345 -0.003,-9.80325 -0.002,-3.26875 -1.75493,-5.685366 -2.63389,-8.529549 -0.87896,-2.844183 -1.23207,-2.271582 -1.8496,-3.408873 -0.61754,-1.137291 -6.1507,-0.82697 -9.22756,-1.241955 -3.07685,-0.414985 -7.76919,-0.526405 -11.65529,-0.791107 -3.8861,-0.264703 -4.29851,-4.800227 -6.44926,-7.20184 -2.15076,-2.401613 -0.10686,-10.396835 -0.16179,-15.596753 -0.0549,-5.199918 13.66686,-6.410561 20.49878,-9.617342 6.83193,-3.20678 9.23183,4.537827 13.84625,6.80524 4.61441,2.267413 6.80822,6.857205 10.21083,10.284307 3.40261,3.427103 4.10892,7.818016 6.16187,11.725524 2.05296,3.907508 -1.22217,10.089788 -1.83476,15.133178 -0.61259,5.0434 -0.84598,8.67461 -1.27047,13.01042 -0.42449,4.3358 2.05524,6.58253 3.08136,9.8723 1.02612,3.28976 7.26367,-1.05549 10.894,-1.58473 3.63033,-0.52924 16.75604,-11.04639 25.13257,-16.57109 8.37652,-5.5247 17.64654,-12.297987 26.46832,-18.44848 8.82177,-6.150492 27.13678,-4.467046 40.70367,-6.70207 13.56689,-2.235023 20.96936,-13.22774 31.45256,-19.843111 10.4832,-6.61537 20.4416,-7.083999 30.6609,-10.627499 10.2193,-3.5435 18.4671,-13.319145 27.6991,-19.980217 9.232,-6.661073 21.6289,-11.911885 32.4418,-17.869327 10.813,-5.9574428 13.7155,-4.859725 20.5718,-7.2910872 6.8563,-2.4313623 2.4011,1.3633441 3.6002,2.0435162 1.1991,0.680172 4.3651,9.314588 6.5462,13.970382 2.1811,4.655794 11.2433,27.149112 16.8634,40.722168 5.6202,13.573056 14.7191,33.992197 22.0772,50.986795 7.358,16.9946 6.6824,36.22634 10.0221,54.33801 3.3397,18.11167 8.8684,40.0711 13.3011,60.10516 4.4327,20.03405 6.5403,38.85329 9.8089,58.27844 3.2687,19.42515 8.3397,46.83398 12.508,70.24947 4.1683,23.41549 0.4325,38.22755 0.6473,57.33982 0.2148,19.11227 3.606,50.21484 5.4074,75.32076 1.8015,25.10593 -1.2017,11.89534 -1.8041,17.84151 -0.6023,5.94617 -1.6468,6.31774 -2.4717,9.47511 -0.825,3.15737 -8.8044,6.05962 -13.2081,9.08793 -4.4037,3.02831 -4.9607,4.82 -7.4426,7.2285 -2.4818,2.40849 -7.4544,10.03468 -11.1831,15.05052 -3.7287,5.01584 -6.6627,30.34781 -9.9956,45.52022 -3.3328,15.17241 -0.5628,39.72269 -0.8457,59.58253 -0.2829,19.85985 -10.863,139.13319 -16.296,208.69828" />
  </g>
</svg>
