<?xml version="1.0" encoding="UTF-8" standalone="no"?>
<!-- Created with Inkscape (http://www.inkscape.org/) -->

<svg
   version="1.1"
   id="svg2"
   width="1893"
   height="1024"
   viewBox="0 0 1893 1024"
   sodipodi:docname="frame_0150.svg"
   inkscape:version="1.1.2 (0a00cf5339, 2022-02-04)"
   xmlns:inkscape="http://www.inkscape.org/namespaces/inkscape"
   xmlns:sodipodi="http://sodipodi.sourceforge.net/DTD/sodipodi-0.dtd"
   xmlns:xlink="http://www.w3.org/1999/xlink"
   xmlns="http://www.w3.org/2000/svg"
   xmlns:svg="http://www.w3.org/2000/svg">
  <defs
     id="defs6">
    <inkscape:path-effect
       effect="spiro"
       id="path-effect899"
       is_visible="true"
       lpeversion="1" />
    <inkscape:path-effect
       effect="spiro"
       id="path-effect862"
       is_visible="true"
       lpeversion="1" />
  </defs>
  <sodipodi:namedview
     id="namedview4"
     pagecolor="#ffffff"
     bordercolor="#666666"
     borderopacity="1.0"
     inkscape:pageshadow="2"
     inkscape:pageopacity="0.0"
     inkscape:pagecheckerboard="0"
     showgrid="false"
     inkscape:zoom="0.6703645"
     inkscape:cx="941.27896"
     inkscape:cy="418.42908"
     inkscape:window-width="1850"
     inkscape:window-height="1016"
     inkscape:window-x="70"
     inkscape:window-y="27"
     inkscape:window-maximized="1"
     inkscape:current-layer="g8" />
  <g
     inkscape:groupmode="layer"
     inkscape:label="Image"
     id="g8">
    
    <path
       style="font-variation-settings:normal;opacity:1;vector-effect:none;fill:none;fill-opacity:1;stroke:#c86487;stroke-width:1px;stroke-linecap:butt;stroke-linejoin:miter;stroke-miterlimit:4;stroke-dasharray:none;stroke-dashoffset:0;stroke-opacity:1;-inkscape-stroke:none;stop-color:#000000;stop-opacity:1"
       d="M 1160.3769,863.02811 H 635.62161"
       id="path860"
       inkscape:path-effect="#path-effect862"
       inkscape:original-d="M 1160.3769,863.02811 H 635.62161" />
    <path
       style="font-variation-settings:normal;opacity:1;vector-effect:none;fill:none;fill-opacity:1;stroke:#c86487;stroke-width:1px;stroke-linecap:butt;stroke-linejoin:miter;stroke-miterlimit:4;stroke-dasharray:none;stroke-dashoffset:0;stroke-opacity:1;-inkscape-stroke:none;stop-color:#000000;stop-opacity:1"
       d="m 635.62161,863.02811 c 0.46243,-48.83652 -1.56431,-97.69652 -6.06975,-146.32697 -5.42785,-58.58671 -14.43981,-117.77739 -5.3992,-175.91628 6.30694,-40.55909 21.20994,-79.18607 34.6541,-117.96843 7.42646,-21.42309 14.52781,-43.19816 26.26803,-62.5958 5.29793,-8.75345 11.50701,-16.96088 16.26669,-26.01827 11.39585,-21.68564 13.87957,-46.99469 23.68037,-69.44634 6.34113,-14.52623 15.76241,-27.92608 18.99985,-43.44189 2.84887,-13.6535 0.65692,-27.78528 -1.24003,-41.60323 -0.99545,-7.25116 -1.90889,-14.59727 -1.09318,-21.87084 0.81571,-7.27357 3.5297,-14.5685 8.83158,-19.61432 4.54465,-4.32516 10.5613,-6.6609 16.15714,-9.4977 15.17772,-7.69432 27.81057,-19.46962 40.91803,-30.321359 2.36101,-1.954692 4.76393,-3.897175 7.47945,-5.31884 2.71552,-1.421666 5.7932,-2.304522 8.84256,-1.993703 2.25417,0.229766 4.40942,1.102692 6.33845,2.291359 1.92903,1.188667 3.6477,2.688278 5.2837,4.25594 4.09136,3.920453 7.71543,8.299523 11.20829,12.761483 6.15288,7.86 11.93263,16.01404 18.31785,23.68649 8.56586,10.2927 18.24188,19.74818 25.44069,31.03936 3.99452,6.26533 7.21462,13.07844 12.05191,18.71858 2.96838,3.46104 6.48244,6.40338 9.79353,9.53814 3.31109,3.13477 6.47484,6.53695 8.5128,10.61577 0.5349,1.07057 0.99223,2.18744 1.66753,3.17547 0.67529,0.98804 1.61103,1.85801 2.76747,2.16605 0.81488,0.21706 1.70164,0.13667 2.4743,-0.20118 0.77266,-0.33785 1.42879,-0.92763 1.86804,-1.6475 0.5325,-0.87269 0.7434,-1.91453 0.73517,-2.93682 -0.008,-1.02229 -0.22525,-2.03193 -0.49797,-3.0172 -1.89866,-6.85939 -6.46224,-12.68441 -11.55696,-17.65432 -5.09471,-4.96992 -10.80976,-9.27856 -15.81366,-14.3399 -9.5356,-9.64506 -16.19282,-21.70493 -22.5533,-33.68405 -1.42806,-2.68956 -2.85185,-5.39337 -3.90643,-8.25011 -1.05457,-2.85673 -1.73523,-5.88783 -1.62267,-8.93092 0.20373,-5.50791 2.96256,-10.64387 3.43667,-16.13512 0.22979,-2.661463 -0.10522,-5.418907 -1.31473,-7.80077 -1.69943,-3.346643 -5.02851,-5.6915 -8.63872,-6.718377 -2.88199,-0.819746 -5.91866,-0.869377 -8.91457,-0.918092 -2.99591,-0.04871 -6.03365,-0.108322 -8.91032,-0.946565 -2.66921,-0.77779 -5.14248,-2.227619 -7.10966,-4.192263 -1.96718,-1.964643 -3.42232,-4.441409 -4.15983,-7.122026 -0.7375,-2.680617 -0.75317,-5.559051 -0.0239,-8.241905 0.72932,-2.682854 2.20407,-5.161893 4.22863,-7.067353 2.19837,-2.06905 5.00783,-3.438185 7.95067,-4.111637 2.94283,-0.673453 6.01659,-0.669879 9.00039,-0.210803 5.9676,0.918152 11.49729,3.599512 16.93294,6.228012 4.31508,2.086634 8.65539,4.171881 12.61031,6.879761 3.95492,2.70788 7.54158,6.087496 9.87745,10.272911 2.84955,5.10582 3.6816,11.23465 2.67159,16.99392 -0.57869,3.299815 -1.73101,6.471997 -2.44218,9.745817 -0.44582,2.05231 -0.7177,4.16579 -0.4908,6.25367 0.2269,2.08788 0.98319,4.15983 2.39277,5.71669 1.15335,1.27386 2.70667,2.158 4.36353,2.61379 1.65685,0.45579 3.41368,0.49453 5.11164,0.23025 3.54092,-0.55112 6.7745,-2.38613 9.55411,-4.6479 2.7796,-2.26178 5.16908,-4.9561 7.65296,-7.53916 11.77355,-12.24366 26.44171,-22.400399 43.12327,-25.601821 9.9787,-1.91505 20.50213,-1.329427 30.00314,-4.931167 8.3479,-3.164624 15.1636,-9.282149 22.4659,-14.418294 9.8435,-6.923544 20.7712,-12.167226 31.9103,-16.722347 7.8534,-3.211498 15.8359,-6.095846 23.8164,-8.977213 9.5177,-3.436404 19.1096,-6.904627 27.7559,-12.161813 5.8002,-3.526686 11.099,-7.813988 16.7523,-11.571641 5.1901,-3.449783 10.8771,-6.515245 17.0794,-7.1234364 4.4197,-0.4333945 8.9273,0.4244857 12.9859,2.2269856 4.0587,1.8024998 7.676,4.5296788 10.7145,7.7683688 5.7669,6.146773 9.4093,14.033384 11.6773,22.151041 2.2679,8.117656 3.2435,16.530333 4.2869,24.89402 1.7098,13.705269 3.6255,27.40298 6.6133,40.887437 3.5834,16.17215 8.6923,31.96441 12.7499,48.02414 6.5272,25.83439 10.3118,52.26655 14.6376,78.55927 7.2507,44.07034 16.0561,87.93348 20.6917,132.35508 2.3045,22.08341 3.5718,44.39108 1.2824,66.47606 -0.9911,9.56081 -2.6459,19.05068 -3.368,28.63557 -0.7222,9.58488 -0.4868,19.37039 2.2333,28.58954 0.9564,3.24136 2.2134,6.39131 3.0763,9.65881 0.8628,3.26749 1.3241,6.71545 0.6525,10.02755 -0.9731,4.79908 -4.2195,8.83579 -7.8603,12.11036 -6.4503,5.80147 -14.4291,9.86811 -20.1878,16.35658 -4.4229,4.98341 -7.3121,11.17567 -9.1904,17.56854 -1.8783,6.39286 -2.7947,13.02294 -3.6649,19.62895 -3.6254,27.5224 -6.5546,55.13096 -9.7168,82.71041 -7.9695,69.50554 -17.4217,138.84106 -28.3481,207.9435"
       id="path897"
       inkscape:path-effect="#path-effect899"
       inkscape:original-d="m 635.62161,863.02811 c -2.02225,-48.77466 -4.0455,-97.55031 -6.06975,-146.32697 -2.02425,-48.77665 -3.59847,-117.27652 -5.3992,-175.91628 -1.80073,-58.63976 23.10373,-78.64462 34.6541,-117.96843 11.55037,-39.32381 17.51302,-41.72953 26.26803,-62.5958 8.75501,-20.86626 10.84546,-17.34451 16.26669,-26.01827 5.42123,-8.67375 74.53393,-195.46339 23.68037,-69.44634 -33.74037,83.60991 12.0818,-32.92064 18.99985,-43.44189 6.91805,-10.52125 -0.82569,-27.73449 -1.24003,-41.60323 -0.41435,-13.86874 5.15993,-27.65577 7.7384,-41.48516 2.57847,-13.82938 10.77243,-6.3308 16.15714,-9.4977 5.38472,-3.1669 27.27969,-20.21324 40.91803,-30.321359 13.63834,-10.108119 10.88234,-4.874028 16.32201,-7.312543 5.43967,-2.438514 7.7491,4.365866 11.62215,6.547299 3.87305,2.181432 7.47319,8.508653 11.20829,12.761483 3.7351,4.25283 12.2129,15.79199 18.31785,23.68649 6.10494,7.89449 16.96146,20.69391 25.44069,31.03936 8.47922,10.34545 8.03561,12.48005 12.05191,18.71858 4.01631,6.23852 12.20522,13.43694 18.30633,20.15391 6.10111,6.71697 2.95767,3.56201 4.435,5.34152 1.47734,1.77951 2.89589,-1.23145 4.34234,-1.84868 1.44645,-0.61722 0.15914,-3.96834 0.2372,-5.95402 0.0781,-1.98567 -18.24608,-21.32848 -27.37062,-31.99422 -9.12455,-10.66574 -15.03453,-22.45503 -22.5533,-33.68405 -7.51876,-11.22901 -3.68506,-11.45302 -5.5291,-17.18103 -1.84403,-5.72801 2.29211,-10.75574 3.43667,-16.13512 1.14455,-5.379366 -0.87549,-5.199512 -1.31473,-7.80077 -0.43925,-2.601258 -5.75815,-4.477918 -8.63872,-6.718377 -2.88058,-2.240459 -11.88226,-1.242105 -17.82489,-1.864657 -5.94263,-0.622552 -4.70881,-17.748031 -7.06471,-26.623547 -2.35591,-8.875516 22.59033,1.271381 33.884,1.905572 11.29366,0.63419 14.99284,11.436115 22.48776,17.152672 7.49492,5.716558 1.78206,11.33028 2.67159,16.99392 0.88953,5.663637 -1.62712,6.498207 -2.44218,9.745817 -0.81505,3.2476 1.26898,7.98124 1.90197,11.97036 0.63299,3.98912 6.31778,1.89702 9.47517,2.84404 3.1574,0.94701 11.47238,-8.12371 17.20707,-12.18706 5.73468,-4.06335 28.74984,-17.066881 43.12327,-25.601821 14.37342,-8.53494 20.00312,-3.286445 30.00314,-4.931167 10.0001,-1.644722 14.9783,-9.611196 22.4659,-14.418294 7.4876,-4.807097 21.2745,-11.147231 31.9103,-16.722347 10.6357,-5.575115 15.8786,-5.983809 23.8164,-8.977213 7.9378,-2.993405 18.5049,-8.106875 27.7559,-12.161813 9.251,-4.054937 11.1692,-7.713427 16.7523,-11.571641 5.5831,-3.8582134 11.3872,-4.7479575 17.0794,-7.1234364 5.6921,-2.3754789 15.8012,6.6645694 23.7004,9.9953544 7.8991,3.330785 10.6438,31.364374 15.9642,47.045061 5.3205,15.680686 4.4099,27.25929 6.6133,40.887437 2.2034,13.62814 8.5009,32.01709 12.7499,48.02414 4.249,16.00705 9.7594,52.37385 14.6376,78.55927 4.8782,26.18542 13.7954,88.23772 20.6917,132.35508 6.8962,44.11736 0.8559,44.31837 1.2824,66.47606 0.4265,22.15768 -0.7554,38.15108 -1.1347,57.22511 -0.3792,19.07404 2.4869,13.12524 3.7288,19.68636 1.2419,6.56111 -5.2392,8.07457 -7.8603,12.11036 -2.6211,4.03579 -13.4575,10.90539 -20.1878,16.35658 -6.7302,5.4512 -8.5692,24.79932 -12.8553,37.19749 -4.2861,12.39816 -6.4769,55.14127 -9.7168,82.71041 -3.2399,27.56913 -18.8977,138.63 -28.3481,207.9435"
       sodipodi:nodetypes="csssssssssssssssssssssssssssssssssssssssssssssssssssssssssc" />
  </g>
</svg>
