<?xml version="1.0" encoding="UTF-8" standalone="no"?>
<!-- Created with Inkscape (http://www.inkscape.org/) -->

<svg
   version="1.1"
   id="svg2"
   width="1893"
   height="1024"
   viewBox="0 0 1893 1024"
   sodipodi:docname="frame_0017.svg"
   inkscape:version="1.1.2 (0a00cf5339, 2022-02-04)"
   xmlns:inkscape="http://www.inkscape.org/namespaces/inkscape"
   xmlns:sodipodi="http://sodipodi.sourceforge.net/DTD/sodipodi-0.dtd"
   xmlns:xlink="http://www.w3.org/1999/xlink"
   xmlns="http://www.w3.org/2000/svg"
   xmlns:svg="http://www.w3.org/2000/svg">
  <defs
     id="defs6">
    <inkscape:path-effect
       effect="spiro"
       id="path-effect998"
       is_visible="true"
       lpeversion="1" />
    <inkscape:path-effect
       effect="spiro"
       id="path-effect862"
       is_visible="true"
       lpeversion="1" />
  </defs>
  <sodipodi:namedview
     id="namedview4"
     pagecolor="#ffffff"
     bordercolor="#666666"
     borderopacity="1.0"
     inkscape:pageshadow="2"
     inkscape:pageopacity="0.0"
     inkscape:pagecheckerboard="0"
     showgrid="false"
     inkscape:zoom="0.94803857"
     inkscape:cx="872.32738"
     inkscape:cy="717.7978"
     inkscape:window-width="1850"
     inkscape:window-height="1016"
     inkscape:window-x="70"
     inkscape:window-y="27"
     inkscape:window-maximized="1"
     inkscape:current-layer="g8" />
  <g
     inkscape:groupmode="layer"
     inkscape:label="Image"
     id="g8">
    
    <path
       style="fill:none;stroke:#c86487;stroke-width:1px;stroke-linecap:butt;stroke-linejoin:miter;stroke-opacity:1"
       d="M 1161.8158,863.53217 635.87324,862.58844"
       id="path860"
       inkscape:path-effect="#path-effect862"
       inkscape:original-d="M 1161.8158,863.53217 635.87324,862.58844" />
    <path
       style="font-variation-settings:normal;opacity:1;vector-effect:none;fill:none;fill-opacity:1;stroke:#c86487;stroke-width:1px;stroke-linecap:butt;stroke-linejoin:miter;stroke-miterlimit:4;stroke-dasharray:none;stroke-dashoffset:0;stroke-opacity:1;-inkscape-stroke:none;stop-color:#000000;stop-opacity:1"
       d="m 635.87324,862.58844 c 0.96568,-68.49494 -6.0232,-137.09877 -20.78126,-203.99188 -9.27039,-42.01943 -21.67952,-84.19047 -19.4363,-127.16187 1.72168,-32.98062 12.1087,-65.06489 26.5806,-94.75074 11.2604,-23.09818 25.11331,-45.21266 32.09156,-69.94374 3.51635,-12.46202 5.23755,-25.44581 9.82739,-37.55366 5.12743,-13.52599 13.63911,-25.45668 20.53239,-38.17382 3.44664,-6.35857 6.50885,-12.96479 8.48137,-19.92323 1.97252,-6.95844 2.83392,-14.29835 1.85294,-21.46413 -1.02382,-7.47873 -3.99923,-14.52574 -6.76344,-21.54989 -2.76421,-7.02415 -5.37471,-14.27475 -5.60704,-21.81965 -0.22197,-7.20867 1.7677,-14.3744 4.98883,-20.82719 3.22114,-6.45278 7.64311,-12.23958 12.45113,-17.61518 12.2842,-13.73432 27.67662,-25.22196 45.42797,-30.16389 5.54211,-1.54291 11.29626,-2.43772 17.04527,-2.22697 5.74901,0.21075 11.49936,1.55252 16.56371,4.28161 7.49812,4.04061 13.09323,10.84602 17.9676,17.83092 4.87437,6.9849 9.28514,14.38505 15.29891,20.41686 7.65089,7.67384 17.56704,12.7948 25.16928,20.51684 4.70066,4.77474 8.39878,10.42532 12.60824,15.63827 0.63373,0.78481 1.29127,1.57101 2.12623,2.13705 0.41748,0.28301 0.8775,0.50799 1.36634,0.63217 0.48884,0.12419 1.00734,0.14545 1.49832,0.03 0.61721,-0.14513 1.16753,-0.49831 1.64919,-0.91064 0.98776,-0.84558 1.7419,-1.98083 2.05197,-3.24358 0.33175,-1.35106 0.14803,-2.78983 -0.30521,-4.10513 -0.45324,-1.31529 -1.16491,-2.52487 -1.90648,-3.70194 -3.01139,-4.77991 -6.58391,-9.17764 -10.15992,-13.55122 -17.01097,-20.80501 -34.32433,-41.37236 -50.69273,-62.6866 -5.42121,-7.05927 -10.73926,-14.20109 -16.38144,-21.08503 -1.38465,-1.68939 -2.78878,-3.36319 -4.23629,-4.99904 -1.23385,-1.39439 -2.5061,-2.770235 -3.49924,-4.345157 -0.99315,-1.574922 -1.702,-3.384677 -1.67844,-5.24644 0.0158,-1.245691 0.36149,-2.478414 0.94024,-3.58161 0.57875,-1.103196 1.38651,-2.078934 2.3209,-2.902892 1.86879,-1.647916 4.20638,-2.672984 6.57976,-3.431292 3.6882,-1.178399 7.59637,-1.772637 11.45058,-1.403173 5.191,0.497608 10.21507,2.801817 13.87618,6.515352 3.88531,3.940942 6.10636,9.212965 9.5405,13.552702 3.49342,4.41465 8.1986,7.80907 11.3574,12.46902 2.36307,3.48607 3.7659,7.54685 6.09026,11.05884 1.16218,1.756 2.56749,3.3794 4.30408,4.5704 1.73658,1.191 3.82635,1.92954 5.93005,1.83651 2.15696,-0.0954 4.1972,-1.04661 5.97418,-2.27296 1.77698,-1.22634 3.34103,-2.73076 5.00153,-4.11072 6.73881,-5.6003 14.94188,-9.06429 22.76718,-13.00632 5.34014,-2.69012 10.55244,-5.63304 15.94677,-8.21276 20.10215,-9.613388 42.35853,-14.015337 62.57372,-23.388688 15.51168,-7.192435 29.53836,-17.179287 43.34778,-27.26112 16.8596,-12.308646 33.5809,-24.870954 51.4422,-35.674783 1.074,-0.649612 2.1778,-1.303131 3.4067,-1.558623 1.5667,-0.325741 3.2111,0.03011 4.6739,0.678865 1.4629,0.648755 2.7799,1.578329 4.1127,2.464091 5.7748,3.837995 12.0663,6.986363 17.2015,11.645606 6.3874,5.795407 10.5903,13.564714 14.4386,21.283291 9.7129,19.481473 17.9624,39.683014 24.89,60.319801 15.0727,44.90025 23.8317,91.6259 35.3418,137.56865 7.6125,30.38555 16.4744,60.65833 19.3582,91.84993 3.0854,33.37265 -0.7104,67.45718 6.4904,100.18947 3.1015,14.0983 8.238,27.9345 8.4625,42.36817 0.1457,9.36449 -1.87,18.85685 -6.5249,26.98379 -5.1916,9.06395 -13.3882,16.07414 -18.8867,24.95527 -6.2367,10.07361 -8.6871,22.06494 -9.4887,33.88577 -0.8017,11.82082 -0.067,23.69338 -0.4855,35.53397 -0.4149,11.74033 -1.9613,23.40645 -3.2071,35.08787 -7.9121,74.18949 -3.6431,149.6641 12.5844,222.4882"
       id="path996"
       inkscape:path-effect="#path-effect998"
       inkscape:original-d="m 635.87324,862.58844 c -6.92609,-67.99629 -13.85317,-135.99359 -20.78126,-203.99188 -6.92809,-67.99829 -12.95653,-84.77358 -19.4363,-127.16187 -6.47977,-42.38828 17.7214,-63.16616 26.5806,-94.75074 8.8592,-31.58458 21.39538,-46.62816 32.09156,-69.94374 10.69619,-23.31557 6.5526,-25.03477 9.82739,-37.55366 3.2748,-12.51889 20.5788,-53.03979 30.8667,-79.56118 10.2879,-26.52139 -8.24599,-28.91203 -12.37048,-43.36954 -4.1245,-14.45751 11.62764,-25.62725 17.43996,-38.44237 5.81231,-12.81513 30.28631,-20.10826 45.42797,-30.16389 15.14166,-10.05563 22.40699,1.37076 33.60898,2.05464 11.202,0.68388 22.17868,25.49952 33.26651,38.24778 11.08784,12.74826 16.78052,13.67889 25.16928,20.51684 8.38876,6.83794 8.40649,10.42651 12.60824,15.63827 4.20175,5.21175 3.32826,1.86714 4.99089,2.79922 1.66263,0.93207 1.10046,-0.60609 1.64919,-0.91064 0.54873,-0.30454 1.36898,-2.16139 2.05197,-3.24358 0.68299,-1.0822 -1.47346,-5.20372 -2.21169,-7.80707 -0.73823,-2.60336 -6.77228,-9.03315 -10.15992,-13.55122 -3.38764,-4.51807 -33.79415,-41.79007 -50.69273,-62.6866 -16.89857,-20.89654 -10.91996,-14.05569 -16.38144,-21.08503 -5.46148,-7.02934 -2.82319,-3.3317 -4.23629,-4.99904 -1.41309,-1.66735 -3.45079,-6.3934 -5.17768,-9.591597 -1.7269,-3.198198 6.5616,-6.609529 9.8409,-9.915794 3.2793,-3.306264 7.63472,-0.934448 11.45058,-1.403173 3.81587,-0.468724 9.25179,4.344568 13.87618,6.515352 4.62439,2.170784 6.36133,9.036135 9.5405,13.552702 3.17917,4.51657 7.5726,8.31368 11.3574,12.46902 3.78481,4.15534 10.88393,11.64483 16.32439,17.46575 5.44047,5.82091 7.31814,-4.25479 10.97571,-6.38368 3.65758,-2.12889 15.17912,-8.66988 22.76718,-13.00632 7.58806,-4.33645 10.63218,-5.47417 15.94677,-8.21276 5.3146,-2.73858 41.71682,-15.591458 62.57372,-23.388688 20.85691,-7.79723 28.89952,-18.17308 43.34778,-27.26112 14.4483,-9.08804 34.2958,-23.782189 51.4422,-35.674783 17.1465,-11.8925941 2.2722,-1.038082 3.4067,-1.558623 1.1346,-0.520541 5.8588,2.096304 8.7866,3.142956 2.9279,1.046652 11.4687,7.764737 17.2015,11.645606 5.7328,3.880868 9.6267,14.189861 14.4386,21.283291 4.8119,7.09343 16.5944,40.214204 24.89,60.319801 8.2957,20.10561 23.4463,93.55449 35.3418,137.56865 11.8955,44.01416 -47.9943,-155.970081 19.3582,91.84993 8.673,31.91174 4.3279,66.79398 6.4904,100.18947 2.1624,33.39549 5.0846,22.76654 8.4625,42.36817 3.3779,19.60164 -3.7909,23.4701 -6.5249,26.98379 -2.7339,3.51368 -12.5901,16.63784 -18.8867,24.95527 -6.2965,8.31742 -6.6485,46.28082 -9.9742,69.41974 -3.3258,23.13891 -2.1371,23.39292 -3.2071,35.08787 -1.07,11.69496 8.3906,148.32647 12.5844,222.4882"
       sodipodi:nodetypes="csssssssssssssssssssssssssssssssssssssssssssssssc" />
  </g>
</svg>
