<?xml version="1.0" encoding="UTF-8" standalone="no"?>
<!-- Created with Inkscape (http://www.inkscape.org/) -->

<svg
   version="1.1"
   id="svg2"
   width="1893"
   height="1024"
   viewBox="0 0 1893 1024"
   sodipodi:docname="frame_0129.svg"
   inkscape:version="1.1.2 (0a00cf5339, 2022-02-04)"
   xmlns:inkscape="http://www.inkscape.org/namespaces/inkscape"
   xmlns:sodipodi="http://sodipodi.sourceforge.net/DTD/sodipodi-0.dtd"
   xmlns:xlink="http://www.w3.org/1999/xlink"
   xmlns="http://www.w3.org/2000/svg"
   xmlns:svg="http://www.w3.org/2000/svg">
  <defs
     id="defs6">
    <inkscape:path-effect
       effect="spiro"
       id="path-effect899"
       is_visible="true"
       lpeversion="1" />
    <inkscape:path-effect
       effect="spiro"
       id="path-effect862"
       is_visible="true"
       lpeversion="1" />
  </defs>
  <sodipodi:namedview
     id="namedview4"
     pagecolor="#ffffff"
     bordercolor="#666666"
     borderopacity="1.0"
     inkscape:pageshadow="2"
     inkscape:pageopacity="0.0"
     inkscape:pagecheckerboard="0"
     showgrid="false"
     inkscape:zoom="0.6703645"
     inkscape:cx="1103.8771"
     inkscape:cy="446.77187"
     inkscape:window-width="1850"
     inkscape:window-height="1016"
     inkscape:window-x="70"
     inkscape:window-y="27"
     inkscape:window-maximized="1"
     inkscape:current-layer="g8" />
  <g
     inkscape:groupmode="layer"
     inkscape:label="Image"
     id="g8">
    
    <path
       style="font-variation-settings:normal;opacity:1;vector-effect:none;fill:none;fill-opacity:1;stroke:#c86487;stroke-width:1px;stroke-linecap:butt;stroke-linejoin:miter;stroke-miterlimit:4;stroke-dasharray:none;stroke-dashoffset:0;stroke-opacity:1;-inkscape-stroke:none;stop-color:#000000;stop-opacity:1"
       d="M 1160.4061,862.41783 H 635.74815"
       id="path860"
       inkscape:path-effect="#path-effect862"
       inkscape:original-d="M 1160.4061,862.41783 H 635.74815" />
    <path
       style="font-variation-settings:normal;opacity:1;vector-effect:none;fill:none;fill-opacity:1;stroke:#c86487;stroke-width:1px;stroke-linecap:butt;stroke-linejoin:miter;stroke-miterlimit:4;stroke-dasharray:none;stroke-dashoffset:0;stroke-opacity:1;-inkscape-stroke:none;stop-color:#000000;stop-opacity:1"
       d="m 635.74815,862.41783 c 1.13854,-18.94715 0.95166,-37.97383 -0.55882,-56.89497 -3.35552,-42.03321 -13.20519,-83.28928 -17.92898,-125.19079 -3.16199,-28.04787 -4.01753,-56.3749 -2.11392,-84.53617 1.60915,-23.80514 5.20037,-47.52745 11.70774,-70.48236 4.59901,-16.22312 10.63324,-31.99993 15.76154,-48.06359 8.93158,-27.97684 15.17683,-56.98724 27.80058,-83.50361 9.0454,-18.99999 21.24915,-36.44965 29.17585,-55.94288 4.21124,-10.35622 7.16481,-21.16989 10.36995,-31.88031 2.80609,-9.37695 5.81196,-18.69494 9.07656,-27.92227 5.45672,-15.42332 11.64058,-30.607 16.20826,-46.31658 3.50979,-12.07118 6.06817,-24.66001 4.80846,-37.16781 -0.89479,-8.88446 -3.70214,-17.57554 -3.64269,-26.50474 0.0374,-5.62297 1.28003,-11.34926 4.34557,-16.06325 2.26026,-3.47569 5.42482,-6.28237 8.82632,-8.65282 3.4015,-2.37044 7.06168,-4.33983 10.63123,-6.44875 11.72133,-6.92506 22.52764,-15.39303 34.65898,-21.57176 5.09067,-2.59278 10.43929,-4.78307 16.05911,-5.81027 5.61981,-1.02721 11.54628,-0.84536 16.8853,1.18746 4.34214,1.65327 8.15818,4.46566 11.5635,7.62656 6.36741,5.91039 11.43609,13.07876 16.01465,20.46208 7.09619,11.44321 13.14978,23.56067 21.13029,34.40568 5.70498,7.75272 12.33716,14.77447 19.12382,21.60036 4.76768,4.79524 9.62132,9.50538 14.32688,14.36159 1.2341,1.27361 2.46381,2.5625 3.86784,3.64591 1.40402,1.08342 3.00251,1.96214 4.74298,2.3025 0.95875,0.18749 1.96801,0.20586 2.89812,-0.0929 0.9301,-0.29875 1.7736,-0.94032 2.18608,-1.82587 0.37892,-0.81349 0.37043,-1.76661 0.14227,-2.63453 -0.22815,-0.86793 -0.66105,-1.66672 -1.11298,-2.44203 -3.80954,-6.53554 -9.18427,-11.99847 -14.60351,-17.27651 -8.19498,-7.98147 -16.69551,-15.79308 -23.22862,-25.1835 -5.88541,-8.45943 -10.03798,-18.01164 -15.75831,-26.58356 -3.20256,-4.79904 -6.95199,-9.40491 -8.59352,-14.93596 -1.7116,-5.76715 -0.95251,-11.93324 -0.41332,-17.9248 0.18841,-2.09362 0.34771,-4.20802 0.0765,-6.29254 -0.27119,-2.084519 -1.00505,-4.160288 -2.40971,-5.724157 -1.2506,-1.392348 -2.96863,-2.306256 -4.76535,-2.830123 -1.79672,-0.523868 -3.67977,-0.679992 -5.55035,-0.739717 -2.75374,-0.08792 -5.51648,0.02677 -8.26022,-0.223645 -2.74374,-0.250413 -5.51031,-0.890138 -7.84043,-2.360296 -1.73991,-1.097772 -3.19676,-2.647919 -4.15442,-4.468708 -0.95765,-1.820788 -1.40994,-3.90914 -1.25748,-5.960757 0.20158,-2.712587 1.45482,-5.295251 3.28981,-7.303128 1.83499,-2.007877 4.22623,-3.461644 6.77775,-4.404261 5.10303,-1.885235 10.69746,-1.758793 16.13519,-1.597243 3.1529,0.09367 6.31836,0.192248 9.42575,0.734162 3.10739,0.541915 6.17646,1.546572 8.78534,3.319513 2.7135,1.844041 4.83326,4.45278 6.53732,7.256307 1.70405,2.803526 3.0234,5.819408 4.41468,8.790586 1.20838,2.580575 2.48038,5.149149 3.27891,7.884454 0.79853,2.735305 1.10423,5.68399 0.35194,8.432373 -0.55181,2.01597 -1.64225,3.83387 -2.65339,5.66313 -1.01114,1.82927 -1.96997,3.74651 -2.21648,5.82205 -0.20483,1.7246 0.10627,3.51008 0.90072,5.05445 0.79444,1.54437 2.07147,2.83948 3.61406,3.63736 1.23005,0.63623 2.60851,0.95459 3.99028,1.04684 1.38177,0.0922 2.77041,-0.0361 4.13772,-0.25573 6.43997,-1.03468 12.39845,-4.06957 17.85048,-7.64995 5.45204,-3.58037 10.50703,-7.73562 15.93487,-11.35257 14.16988,-9.442391 30.52922,-14.998399 46.82654,-19.932124 21.12336,-6.394723 43.20539,-12.27346 60.26159,-26.279748 8.1804,-6.717663 14.9472,-15.127103 23.6778,-21.11238 8.7585,-6.004424 19.0517,-9.271853 28.6572,-13.799372 11.6484,-5.4904 22.4852,-12.929368 34.8571,-16.502111 5.0998,-1.472711 10.4868,-2.2609611 15.7315,-1.4424442 5.4441,0.849643 10.6389,3.4928326 14.3236,7.5895872 3.8031,4.228385 5.8683,9.785402 6.8055,15.394719 1.3422,8.033266 0.53,16.245713 0.4613,24.390053 -0.077,9.124696 0.7941,18.288548 3.0815,27.122215 1.6233,6.269076 3.9757,12.391867 7.4559,17.853055 4.0104,6.29317 9.4973,11.69261 12.4614,18.54106 3.6492,8.43122 3.0506,18.01735 4.698,27.0555 1.6938,9.29249 5.7937,18.11002 6.557,27.52472 0.6362,7.84689 -1.0763,15.84821 0.4791,23.56567 1.078,5.34846 3.6706,10.25661 6.3466,15.01134 2.6759,4.75473 5.4915,9.49819 7.0846,14.71644 1.8487,6.05537 1.9709,12.47799 2.3454,18.79818 1.3019,21.96787 5.8116,43.61595 8.116,65.50138 3.3038,31.37788 2.0818,63.28402 8.3043,94.21568 3.2396,16.10372 8.4687,31.77343 11.3032,47.95336 2.8344,16.17994 3.137,33.35099 -3.227,48.49442 -4.1389,9.84874 -10.8703,18.33599 -17.0062,27.08126 -8.8646,12.63448 -16.6642,26.14288 -21.6815,40.73869 -3.7391,10.87732 -5.8911,22.22461 -8.0318,33.52568 -3.2508,17.16113 -6.5036,34.32353 -9.3854,51.55046 -11.7226,70.07554 -17.2829,141.18079 -16.596,212.22675"
       id="path897"
       inkscape:path-effect="#path-effect899"
       inkscape:original-d="m 635.74815,862.41783 c -0.18527,-18.96399 -0.37154,-37.92898 -0.55882,-56.89497 -0.18727,-18.966 -11.95165,-83.45953 -17.92898,-125.19079 -5.97732,-41.73127 -1.40828,-56.35645 -2.11392,-84.53617 -0.70564,-28.17972 7.80616,-46.98724 11.70774,-70.48236 3.90157,-23.49512 10.50869,-32.04139 15.76154,-48.06359 5.25285,-16.02219 18.53472,-55.66807 27.80058,-83.50361 9.26586,-27.83554 19.45157,-37.29426 29.17585,-55.94288 9.72428,-18.64863 6.9143,-21.25254 10.36995,-31.88031 3.45565,-10.62777 6.05204,-18.61385 9.07656,-27.92227 3.02452,-9.30842 10.80651,-30.87672 16.20826,-46.31658 5.40175,-15.43986 3.20664,-24.77754 4.80846,-37.16781 1.60181,-12.39027 -2.42746,-17.66883 -3.64269,-26.50474 -1.21523,-8.83592 2.89804,-10.70783 4.34557,-16.06325 1.44752,-5.35541 12.9727,-10.06671 19.45755,-15.10157 6.48485,-5.03486 23.10698,-14.38017 34.65898,-21.57176 11.55199,-7.19158 21.96394,-3.08087 32.94441,-4.62281 10.98047,-1.54194 7.71,5.08537 11.5635,7.62656 3.8535,2.54119 10.67743,13.64239 16.01465,20.46208 5.33722,6.8197 14.08786,22.93812 21.13029,34.40568 7.04242,11.46756 12.75021,14.40124 19.12382,21.60036 6.37361,7.19911 9.55225,9.57539 14.32688,14.36159 4.77462,4.78619 5.74154,3.96661 8.61082,5.94841 2.86927,1.98181 3.39047,-1.27817 5.0842,-1.91876 1.69374,-0.64059 -0.64614,-3.38337 -0.97071,-5.07656 -0.32457,-1.69319 -9.73468,-11.51668 -14.60351,-17.27651 -4.86884,-5.75984 -15.48475,-16.788 -23.22862,-25.1835 -7.74387,-8.39549 -10.50454,-17.72137 -15.75831,-26.58356 -5.25377,-8.86218 -5.72801,-9.9563 -8.59352,-14.93596 -2.8655,-4.97965 -0.27454,-11.94887 -0.41332,-17.9248 -0.13877,-5.97594 -1.55446,-8.010132 -2.33319,-12.016697 -0.77874,-4.006564 -6.87614,-2.378893 -10.3157,-3.56984 -3.43957,-1.190946 -10.73277,-1.721627 -16.10065,-2.583941 -5.36789,-0.862314 -3.60694,-6.951977 -5.4119,-10.429465 -1.80497,-3.477489 17.4695,-8.868755 26.20275,-13.304632 8.73325,-4.435878 12.14172,2.70345 18.21109,4.053675 6.06936,1.350225 7.30233,10.698929 10.952,16.046893 3.64966,5.347965 2.42156,10.878883 3.63085,16.316827 1.20928,5.43794 -3.24558,7.65779 -4.86987,11.48518 -1.62429,3.8274 3.01085,5.79554 4.51478,8.69181 1.50392,2.89627 5.41966,0.52841 8.128,0.79111 2.70833,0.2627 22.52456,-12.66735 33.78535,-19.00252 11.26078,-6.335172 31.21869,-13.287082 46.82654,-19.932124 15.60785,-6.645041 40.17539,-17.518832 60.26159,-26.279748 20.0862,-8.760916 15.7862,-14.07392 23.6778,-21.11238 7.8916,-7.03846 19.1058,-9.198581 28.6572,-13.799372 9.5514,-4.60079 23.2391,-11.000407 34.8571,-16.502111 11.6181,-5.50170383 10.4887,-0.9606295 15.7315,-1.4424442 5.2428,-0.4818147 9.5501,5.0607245 14.3236,7.5895872 4.7736,2.528862 4.538,10.264146 6.8055,15.394719 2.2676,5.130573 0.3085,16.261035 0.4613,24.390053 0.1527,8.129018 2.0553,18.082477 3.0815,27.122215 1.0262,9.039739 4.9716,11.903037 7.4559,17.853055 2.4843,5.95002 8.3086,12.3617 12.4614,18.54106 4.1528,6.17935 3.133,18.038 4.698,27.0555 1.565,9.0175 4.3723,18.35081 6.557,27.52472 2.1846,9.17391 0.3204,15.71145 0.4791,23.56567 0.1588,7.85422 8.9552,19.81952 13.4312,29.72778 4.4761,9.90826 1.5646,12.53312 2.3454,18.79818 0.7808,6.26505 5.4117,43.66859 8.116,65.50138 2.7044,21.8328 5.5372,62.81145 8.3043,94.21568 2.767,31.40423 5.3851,64.29952 8.0762,96.44778 2.6911,32.14827 -11.3364,18.05517 -17.0062,27.08126 -5.6697,9.02608 -14.4533,27.16013 -21.6815,40.73869 -7.2282,13.57857 -5.3535,22.35145 -8.0318,33.52568 -2.6783,11.17422 -6.2559,34.36797 -9.3854,51.55046 -3.1294,17.18249 -11.063,141.4855 -16.596,212.22675" />
  </g>
</svg>
