<?xml version="1.0" encoding="UTF-8" standalone="no"?>
<!-- Created with Inkscape (http://www.inkscape.org/) -->

<svg
   version="1.1"
   id="svg2"
   width="1893"
   height="1024"
   viewBox="0 0 1893 1024"
   sodipodi:docname="frame_0044.svg"
   inkscape:version="1.1.2 (0a00cf5339, 2022-02-04)"
   xmlns:inkscape="http://www.inkscape.org/namespaces/inkscape"
   xmlns:sodipodi="http://sodipodi.sourceforge.net/DTD/sodipodi-0.dtd"
   xmlns:xlink="http://www.w3.org/1999/xlink"
   xmlns="http://www.w3.org/2000/svg"
   xmlns:svg="http://www.w3.org/2000/svg">
  <defs
     id="defs6">
    <inkscape:path-effect
       effect="spiro"
       id="path-effect899"
       is_visible="true"
       lpeversion="1" />
    <inkscape:path-effect
       effect="spiro"
       id="path-effect862"
       is_visible="true"
       lpeversion="1" />
  </defs>
  <sodipodi:namedview
     id="namedview4"
     pagecolor="#ffffff"
     bordercolor="#666666"
     borderopacity="1.0"
     inkscape:pageshadow="2"
     inkscape:pageopacity="0.0"
     inkscape:pagecheckerboard="0"
     showgrid="false"
     inkscape:zoom="0.47401928"
     inkscape:cx="1031.6036"
     inkscape:cy="399.77276"
     inkscape:window-width="1850"
     inkscape:window-height="1016"
     inkscape:window-x="70"
     inkscape:window-y="27"
     inkscape:window-maximized="1"
     inkscape:current-layer="g8" />
  <g
     inkscape:groupmode="layer"
     inkscape:label="Image"
     id="g8">
    
    <path
       style="font-variation-settings:normal;opacity:1;vector-effect:none;fill:none;fill-opacity:1;stroke:#c86487;stroke-width:1px;stroke-linecap:butt;stroke-linejoin:miter;stroke-miterlimit:4;stroke-dasharray:none;stroke-dashoffset:0;stroke-opacity:1;-inkscape-stroke:none;stop-color:#000000;stop-opacity:1"
       d="m 1160.8448,862.23768 -525.28082,0.74447"
       id="path860"
       inkscape:path-effect="#path-effect862"
       inkscape:original-d="m 1160.8448,862.23768 -525.28082,0.74447" />
    <path
       style="font-variation-settings:normal;opacity:1;vector-effect:none;fill:none;fill-opacity:1;stroke:#c86487;stroke-width:1px;stroke-linecap:butt;stroke-linejoin:miter;stroke-miterlimit:4;stroke-dasharray:none;stroke-dashoffset:0;stroke-opacity:1;-inkscape-stroke:none;stop-color:#000000;stop-opacity:1"
       d="m 635.56398,862.98215 c -13.11956,-44.03228 -22.76417,-89.09944 -28.81465,-134.64454 -6.57584,-49.49971 -8.90218,-99.67416 -4.79064,-149.43919 3.51603,-42.55706 11.76806,-84.81517 25.96067,-125.08968 5.68122,-16.12164 12.30068,-31.89736 19.21241,-47.53103 6.43782,-14.56172 13.13222,-29.00831 19.7571,-43.48589 7.17505,-15.6799 14.32003,-31.55009 17.89247,-48.41954 1.45615,-6.87611 2.30669,-13.86884 3.74143,-20.74945 1.43474,-6.88061 3.49042,-13.72452 7.14767,-19.72667 1.69361,-2.7795 3.71212,-5.34807 5.4549,-8.09701 1.74277,-2.74895 3.22701,-5.73929 3.68852,-8.96124 0.56465,-3.94196 -0.43173,-7.91615 -0.84027,-11.87733 -0.20427,-1.98059 -0.26016,-3.99358 0.0982,-5.95216 0.35836,-1.95859 1.15199,-3.86983 2.488,-5.34616 1.05826,-1.16941 2.41064,-2.02458 3.73672,-2.87836 1.32607,-0.85379 2.66424,-1.73906 3.67459,-2.9501 1.347,-1.61456 2.01926,-3.72868 2.08913,-5.83019 0.0699,-2.1015 -0.43331,-4.19314 -1.22945,-6.13926 -1.59227,-3.89224 -4.30961,-7.20556 -6.3621,-10.876 -2.25926,-4.0402 -3.71189,-8.5532 -4.03499,-13.17089 -0.32311,-4.61769 0.50243,-9.33603 2.55257,-13.48626 2.39313,-4.84456 6.34474,-8.76077 10.64967,-12.0264 4.30493,-3.26564 9.00884,-5.9628 13.47544,-9.00357 9.61254,-6.54402 18.10804,-14.66666 27.99368,-20.79033 4.94282,-3.06183 10.24382,-5.6173 15.87571,-7.06232 5.6319,-1.44501 11.61632,-1.7493 17.26371,-0.36607 5.63916,1.38121 10.77064,4.38976 15.32636,7.98883 8.30308,6.55953 14.82944,15.049 21.35904,23.37563 16.28772,20.77031 33.15772,41.10298 51.13199,60.43227 0.67084,0.72142 1.37365,1.46282 2.28685,1.83232 1.02886,0.4163 2.23596,0.29514 3.21824,-0.22157 0.98228,-0.51671 1.74473,-1.40139 2.21869,-2.405 0.4721,-0.99967 0.67146,-2.11754 0.64587,-3.22279 -0.0256,-1.10524 -0.27148,-2.19884 -0.65378,-3.23618 -0.76461,-2.07467 -2.05602,-3.90614 -3.32233,-5.7187 -26.39597,-37.78251 -48.70145,-79.65317 -84.30979,-108.915961 -2.41242,-1.982518 -4.96176,-4.002686 -6.29266,-6.827371 -0.7258,-1.540429 -1.04765,-3.263593 -0.96905,-4.964632 0.0786,-1.701039 0.55393,-3.377974 1.34212,-4.887431 1.57639,-3.018914 4.38451,-5.30802 7.55505,-6.55161 3.17054,-1.243591 6.68022,-1.487189 10.05438,-1.024711 3.37416,0.462479 6.62552,1.609144 9.70618,3.061177 5.15204,2.428358 9.89267,5.733813 13.92718,9.754162 8.11425,8.085772 13.13872,18.745927 20.50251,27.520627 2.33003,2.77647 4.92385,5.3849 8.01638,7.27543 3.09253,1.89052 6.73211,3.02947 10.34185,2.70148 2.30924,-0.20982 4.54121,-1.01039 6.56287,-2.14595 2.02166,-1.13555 3.84259,-2.60085 5.53045,-4.19075 3.3757,-3.17979 6.25082,-6.87528 9.76545,-9.90081 5.25402,-4.52286 11.74564,-7.37917 18.35587,-9.468628 6.61023,-2.089461 13.42331,-3.473358 20.07212,-5.436589 16.19958,-4.783335 31.20347,-12.934016 47.1673,-18.453306 7.91181,-2.735405 16.05575,-4.823126 23.78409,-8.040572 16.6368,-6.926185 30.7713,-18.868779 42.7965,-32.290758 5.7721,-6.442568 11.1907,-13.326207 18.1116,-18.515123 3.4605,-2.594459 7.2894,-4.743772 11.4223,-6.018736 4.1328,-1.2749631 8.5823,-1.6527444 12.8135,-0.7568773 1.6763,0.3549133 3.334,0.9180753 4.7405,1.8966803 1.447,1.006779 2.5804,2.425787 3.3852,3.99409 0.8049,1.568303 1.2921,3.284677 1.5904,5.022013 0.5968,3.474671 0.4522,7.034405 0.8602,10.536258 0.8619,7.398576 4.1643,14.311472 8.1642,20.595002 3.9999,6.28353 8.7262,12.074452 12.8541,18.274627 16.9544,25.465703 23.0115,56.399719 29.5406,86.288249 7.3091,33.45895 15.6459,66.68361 23.4187,100.03787 12.1113,51.97103 22.8983,104.64022 23.8126,157.99596 0.5749,33.54967 -2.6951,67.75685 5.9727,100.17259 0.5126,1.91711 1.0715,3.88781 0.8175,5.85595 -0.2117,1.64024 -0.9899,3.17874 -2.067,4.43377 -1.0771,1.25504 -2.4433,2.23915 -3.9034,3.01583 -2.9203,1.55336 -6.194,2.29281 -9.2802,3.48295 -6.1007,2.35268 -11.4353,6.48197 -15.6529,11.47858 -8.4848,10.05198 -12.3661,23.23718 -14.1421,36.27098 -3.2286,23.69487 -0.2088,47.72925 1.9942,71.54139 6.5065,70.32896 5.8446,141.31909 -1.9721,211.51451"
       id="path897"
       inkscape:path-effect="#path-effect899"
       inkscape:original-d="m 635.56398,862.98215 c -9.60388,-44.88051 -19.20877,-89.76203 -28.81465,-134.64454 -9.60589,-44.88251 -3.19276,-99.62512 -4.79064,-149.43919 -1.59788,-49.81406 17.30811,-83.39212 25.96067,-125.08968 8.65255,-41.69756 12.80927,-31.68635 19.21241,-47.53103 6.40313,-15.84467 13.1724,-28.98959 19.7571,-43.48589 6.5847,-14.49629 11.92931,-32.27869 17.89247,-48.41954 5.96316,-16.14084 7.2604,-26.98308 10.8891,-40.47612 3.6287,-13.49305 6.09662,-11.37117 9.14342,-17.05825 3.04681,-5.68708 1.16496,-15.44943 1.74593,-23.17565 0.58098,-7.72621 4.94187,-3.88464 7.41131,-5.82846 2.46944,-1.94382 -3.66728,-15.2293 -5.50242,-22.84545 -1.83514,-7.61614 -0.98728,-17.77043 -1.48242,-26.65715 -0.49514,-8.88672 16.0844,-14.01898 24.12511,-21.02997 8.0407,-7.01099 40.7564,-18.81148 61.1331,-28.21872 20.37669,-9.40724 10.21857,5.32688 15.32636,7.98883 5.10779,2.66194 14.24036,15.58475 21.35904,23.37563 7.11868,7.79088 34.08899,40.28918 51.13199,60.43227 17.04299,20.14309 1.52557,1.22254 2.28685,1.83232 0.76129,0.60977 3.62562,-1.75004 5.43693,-2.62657 1.81131,-0.87652 -2.21916,-8.11745 -3.33024,-12.17767 -1.11108,-4.06023 -56.20553,-72.60964 -84.30979,-108.915961 -28.10427,-36.30632 -4.19411,-4.550581 -6.29266,-6.827371 -2.09856,-2.27679 18.46012,-9.577138 27.68868,-14.367207 9.22856,-4.790069 9.28579,6.503775 13.92718,9.754162 4.6414,3.250388 13.66934,18.348087 20.50251,27.520627 6.83316,9.17254 12.23982,6.65227 18.35823,9.97691 6.11841,3.32464 14.57351,-10.82401 21.85877,-16.23751 7.28526,-5.4135 25.61966,-9.935811 38.42799,-14.905217 12.80833,-4.969406 31.44586,-12.301204 47.1673,-18.453306 15.72143,-6.152102 15.85708,-5.359381 23.78409,-8.040572 7.9271,-2.68119 28.532,-21.526172 42.7965,-32.290758 14.2645,-10.764587 28.2326,-16.859491 42.3474,-25.2907363 14.1148,-8.4312453 3.1614,1.2654533 4.7405,1.8966803 1.5792,0.631227 3.8916,13.035907 5.8358,19.552361 1.9443,6.516454 14.0132,25.914086 21.0183,38.869629 7.0052,12.955542 19.6948,57.526499 29.5406,86.288249 9.8459,28.76175 15.6134,66.69291 23.4187,100.03787 7.8052,33.34496 15.8761,105.33164 23.8126,157.99596 7.9366,52.66432 3.9828,66.78273 5.9727,100.17259 1.9898,33.38987 0.546,3.90497 0.8175,5.85595 0.2716,1.95099 -10.1661,7.28937 -15.2506,10.93255 -5.0846,3.64318 -10.4343,7.65339 -15.6529,11.47858 -5.2186,3.8252 -9.427,24.18166 -14.1421,36.27098 -4.715,12.08933 1.3305,47.69526 1.9942,71.54139 0.6637,23.84612 -1.3137,141.01067 -1.9721,211.51451" />
  </g>
</svg>
