<?xml version="1.0" encoding="UTF-8" standalone="no"?>
<!-- Created with Inkscape (http://www.inkscape.org/) -->

<svg
   version="1.1"
   id="svg2"
   width="1893"
   height="1024"
   viewBox="0 0 1893 1024"
   sodipodi:docname="frame_0153.svg"
   inkscape:version="1.1.2 (0a00cf5339, 2022-02-04)"
   xmlns:inkscape="http://www.inkscape.org/namespaces/inkscape"
   xmlns:sodipodi="http://sodipodi.sourceforge.net/DTD/sodipodi-0.dtd"
   xmlns:xlink="http://www.w3.org/1999/xlink"
   xmlns="http://www.w3.org/2000/svg"
   xmlns:svg="http://www.w3.org/2000/svg">
  <defs
     id="defs6">
    <inkscape:path-effect
       effect="spiro"
       id="path-effect932"
       is_visible="true"
       lpeversion="1" />
    <inkscape:path-effect
       effect="spiro"
       id="path-effect895"
       is_visible="true"
       lpeversion="1" />
  </defs>
  <sodipodi:namedview
     id="namedview4"
     pagecolor="#ffffff"
     bordercolor="#666666"
     borderopacity="1.0"
     inkscape:pageshadow="2"
     inkscape:pageopacity="0.0"
     inkscape:pagecheckerboard="0"
     showgrid="false"
     inkscape:zoom="0.94803857"
     inkscape:cx="977.80832"
     inkscape:cy="553.24753"
     inkscape:window-width="1850"
     inkscape:window-height="1016"
     inkscape:window-x="70"
     inkscape:window-y="27"
     inkscape:window-maximized="1"
     inkscape:current-layer="g8" />
  <g
     inkscape:groupmode="layer"
     inkscape:label="Image"
     id="g8">
    
    <path
       style="font-variation-settings:normal;opacity:1;vector-effect:none;fill:none;fill-opacity:1;stroke:#c86487;stroke-width:1px;stroke-linecap:butt;stroke-linejoin:miter;stroke-miterlimit:4;stroke-dasharray:none;stroke-dashoffset:0;stroke-opacity:1;-inkscape-stroke:none;stop-color:#000000;stop-opacity:1"
       d="M 1160.7305,863.19746 H 635.65264"
       id="path893"
       inkscape:path-effect="#path-effect895"
       inkscape:original-d="M 1160.7305,863.19746 H 635.65264" />
    <path
       style="font-variation-settings:normal;opacity:1;vector-effect:none;fill:none;fill-opacity:1;stroke:#c86487;stroke-width:1px;stroke-linecap:butt;stroke-linejoin:miter;stroke-miterlimit:4;stroke-dasharray:none;stroke-dashoffset:0;stroke-opacity:1;-inkscape-stroke:none;stop-color:#000000;stop-opacity:1"
       d="m 635.65264,863.19746 c -3.01534,-48.45653 -6.81537,-96.86424 -11.39809,-145.19773 -5.56638,-58.70801 -12.23059,-118.5309 0.31834,-176.15156 5.82637,-26.75283 15.68743,-52.42902 23.69411,-78.6121 6.65024,-21.74731 12.04117,-43.91149 20.10697,-65.17447 4.06102,-10.70563 8.82202,-21.21119 15.20654,-30.71595 6.79491,-10.11572 15.44045,-19.13367 20.29965,-30.30894 6.28916,-14.46393 5.65184,-31.24368 12.18829,-45.59755 3.38453,-7.43233 8.64316,-14.09239 10.55891,-22.03119 1.1038,-4.5741 1.03235,-9.33948 0.92932,-14.04375 -0.10304,-4.70427 -0.22651,-9.46239 0.77859,-14.05919 1.31151,-5.9981 4.4677,-11.39897 7.37413,-16.80729 2.90643,-5.40833 5.65635,-11.11797 6.02908,-17.24646 0.37723,-6.20251 -1.71143,-12.26169 -3.81537,-18.10865 -2.10393,-5.84695 -4.28291,-11.85513 -4.0957,-18.06628 0.18116,-6.0103 2.60297,-11.78921 5.99029,-16.75737 3.38732,-4.96816 7.7163,-9.21351 12.11285,-13.31557 15.7658,-14.70975 33.2833,-28.31053 53.78633,-34.98608 4.79555,-1.56137 9.76127,-2.73559 14.8032,-2.85457 5.04192,-0.11898 10.18479,0.86279 14.55387,3.38197 5.08892,2.93424 8.80045,7.71096 12.43296,12.32743 22.04594,28.01764 46.22714,54.70588 63.43988,85.9266 0.7992,1.44961 1.61981,2.9523 2.93179,3.96166 0.82766,0.63675 1.82236,1.04594 2.85239,1.21774 1.03003,0.17181 2.09407,0.10952 3.10808,-0.13999 1.04956,-0.25826 2.06105,-0.72445 2.86702,-1.44465 0.80598,-0.7202 1.39494,-1.70642 1.53755,-2.77784 0.11523,-0.8657 -0.0622,-1.75656 -0.42786,-2.54968 -0.36562,-0.79312 -0.91332,-1.49295 -1.53981,-2.10142 -1.25297,-1.21695 -2.80513,-2.07045 -4.22308,-3.0904 -3.35026,-2.40988 -5.92341,-5.72718 -8.37733,-9.04532 -9.30943,-12.58801 -17.61705,-25.88521 -26.66609,-38.66169 -4.31165,-6.08768 -8.79027,-12.05521 -13.30074,-17.99709 -2.84964,-3.75398 -5.79226,-7.66877 -6.74509,-12.2845 -0.87478,-4.23762 0.0238,-8.61517 0.87088,-12.85841 0.74834,-3.74844 1.45586,-7.642598 0.5594,-11.358396 -0.4675,-1.937771 -1.40857,-3.818737 -2.9539,-5.07789 -1.02406,-0.834413 -2.2743,-1.36401 -3.5645,-1.647402 -1.2902,-0.283393 -2.62287,-0.328629 -3.94233,-0.265754 -2.63893,0.125751 -5.25799,0.67869 -7.89823,0.5844 -4.57311,-0.163319 -8.94989,-2.309762 -12.27294,-5.455767 -3.00578,-2.845639 -5.24512,-6.573988 -5.96967,-10.649202 -0.72456,-4.075214 0.15288,-8.483195 2.68512,-11.757351 2.30073,-2.974807 5.86545,-4.882802 9.59355,-5.376866 3.7281,-0.494065 7.5861,0.381388 10.85895,2.23375 4.58065,2.592545 7.88804,6.889987 11.57802,10.643342 3.51366,3.574007 7.49818,6.744576 12.02178,8.902447 2.89045,1.378817 5.97777,2.334848 8.79082,3.865398 1.40652,0.765275 2.74377,1.676738 3.87836,2.806632 1.13459,1.129895 2.06344,2.485962 2.58254,4.00072 0.55246,1.612095 0.62735,3.361528 0.40239,5.050743 -0.22497,1.689215 -0.74106,3.32698 -1.34661,4.919892 -1.21109,3.185824 -2.80347,6.285734 -3.24537,9.665224 -0.17227,1.31748 -0.16301,2.67039 0.15897,3.95948 0.32199,1.28909 0.96936,2.51373 1.94626,3.41434 1.31743,1.21455 3.14238,1.76134 4.93219,1.84712 1.7898,0.0858 3.57045,-0.24973 5.32777,-0.59985 8.82723,-1.7587 17.74282,-3.99463 25.38804,-8.74476 8.26721,-5.13658 14.51667,-12.868614 21.50152,-19.646747 1.86362,-1.808471 3.79799,-3.563624 5.9733,-4.981961 2.17532,-1.418336 4.61141,-2.495923 7.18549,-2.839083 3.29269,-0.438959 6.61993,0.334823 9.81301,1.250652 3.19308,0.915829 6.3862,1.987237 9.70344,2.161691 5.2062,0.273796 10.28109,-1.687697 14.87211,-4.157927 4.59102,-2.470229 8.89642,-5.482776 13.66092,-7.599167 4.6344,-2.058601 9.6073,-3.226703 14.3911,-4.90932 4.7837,-1.682617 9.5209,-3.985256 12.865,-7.797378 2.4185,-2.756934 3.9911,-6.171662 6.4034,-8.933978 2.5231,-2.889163 5.8715,-4.95096 9.368,-6.528313 3.4964,-1.577354 7.1739,-2.708224 10.7767,-4.024789 13.6208,-4.977453 26.1065,-12.581059 38.3791,-20.306588 5.3973,-3.397596 10.8116,-6.848331 16.7267,-9.23291 4.925,-1.985427 10.1304,-3.2023096 15.372,-4.0529545 3.3226,-0.5392145 6.7005,-0.9347799 10.0509,-0.6114201 3.3505,0.3233598 6.6994,1.412172 9.2869,3.5651218 3.3468,2.7847148 5.0842,6.9997248 6.75,11.0222248 3.8018,9.180483 7.8666,18.251073 11.6029,27.458409 17.9973,44.350475 28.2102,91.453787 36.3664,138.616747 5.3622,31.00665 9.8721,62.15768 15.4208,93.1315 2.6544,14.8174 5.5465,29.59391 7.9211,44.45871 7.5495,47.25891 9.8387,95.29419 8.0455,143.11871 -0.662,17.6543 -1.8718,35.43551 0.7219,52.91079 0.1017,0.68517 0.2094,1.37213 0.2196,2.06473 0.01,0.69261 -0.081,1.39659 -0.3611,2.02994 -0.3744,0.8455 -1.0758,1.52474 -1.8936,1.95633 -0.8178,0.43159 -1.7467,0.6265 -2.6709,0.65648 -1.8484,0.0599 -3.6488,-0.51571 -5.4501,-0.93462 -2.7172,-0.63191 -5.5392,-0.91445 -8.306,-0.55715 -2.7668,0.3573 -5.481,1.37864 -7.6357,3.15065 -2.2722,1.86862 -3.8338,4.48977 -4.8402,7.25416 -1.0064,2.76438 -1.493,5.68738 -1.9138,8.599 -2.3938,16.56442 -2.814,33.34014 -3.5444,50.06069 -3.9598,90.64543 -17.176,180.8839 -39.3766,268.85781"
       id="path930"
       inkscape:path-effect="#path-effect932"
       inkscape:original-d="m 635.65264,863.19746 c -3.79836,-48.39824 -7.59773,-96.79748 -11.39809,-145.19773 -3.80037,-48.40024 0.21322,-117.43337 0.31834,-176.15156 0.10511,-58.71819 15.79708,-52.40706 23.69411,-78.6121 7.89704,-26.20503 13.40565,-43.44865 20.10697,-65.17447 6.70132,-21.72583 10.13869,-20.4763 15.20654,-30.71595 5.06784,-10.23965 13.5341,-20.20496 20.29965,-30.30894 6.76556,-10.10397 8.12653,-30.39737 12.18829,-45.59755 4.06176,-15.20019 7.04027,-14.68646 10.55891,-22.03119 3.51863,-7.34473 1.13961,-18.73429 1.70791,-28.10294 0.56831,-9.36864 8.93647,-22.7015 13.40321,-34.05375 4.46673,-11.35225 -5.27305,-24.11562 -7.91107,-36.17493 -2.63802,-12.05931 12.06976,-20.04763 18.10314,-30.07294 6.03338,-10.02532 35.85855,-23.32306 53.78633,-34.98608 17.92778,-11.66303 19.57238,0.3526 29.35707,0.5274 9.78469,0.1748 8.28964,8.21928 12.43296,12.32743 4.14332,4.10814 42.29425,57.2854 63.43988,85.9266 21.14563,28.6412 1.95553,2.6421 2.93179,3.96166 0.97627,1.31955 3.97464,0.7195 5.96047,1.07775 1.98582,0.35825 2.93738,-2.81399 4.40457,-4.22249 1.46719,-1.40849 -4.12617,-5.16 -6.19075,-7.7415 -2.06458,-2.5815 -5.58389,-6.02921 -8.37733,-9.04532 -2.79345,-3.0161 -17.7764,-25.77346 -26.66609,-38.66169 -8.8897,-12.88823 -8.86616,-11.99706 -13.30074,-17.99709 -4.43458,-6.00004 -4.49573,-8.18867 -6.74509,-12.2845 -2.24936,-4.09584 0.58159,-8.57127 0.87088,-12.85841 0.2893,-4.28714 0.37393,-7.571264 0.5594,-11.358396 0.18547,-3.787132 -1.96826,-3.38426 -2.9539,-5.07789 -0.98563,-1.693631 -10.26904,-0.884838 -15.40506,-1.328756 -5.13602,-0.443919 -8.18096,-3.636178 -12.27294,-5.455767 -4.09198,-1.819589 -2.1887,-14.936702 -3.28455,-22.406553 -1.09584,-7.469851 10.2868,0.128497 20.4525,-3.143116 10.16571,-3.271612 11.06889,4.873655 11.57802,10.643342 0.50913,5.769688 8.01552,5.935965 12.02178,8.902447 4.00626,2.966482 10.16882,7.116166 15.25172,10.67275 5.08291,3.556583 -2.79206,13.091579 -4.18959,19.635859 -1.39753,6.54429 1.40448,4.91688 2.10523,7.37382 0.70074,2.45694 6.84097,0.83252 10.25996,1.24727 3.41899,0.41476 16.92636,-5.82884 25.38804,-8.74476 8.46168,-2.91593 14.33535,-13.096832 21.50152,-19.646747 7.16618,-6.549914 8.77353,-5.213029 13.15879,-7.821044 4.38527,-2.608015 13.01197,2.275896 19.51645,3.412343 6.50448,1.136448 19.02303,-7.837062 28.53303,-11.757094 9.51,-3.920031 18.1717,-8.470132 27.2561,-12.706698 9.0843,-4.236567 4.2699,-5.954985 6.4034,-8.933978 2.1335,-2.978992 13.4308,-7.034401 20.1447,-10.553102 6.7139,-3.5187 25.587,-13.536725 38.3791,-20.306588 12.792,-6.769863 11.1521,-6.154273 16.7267,-9.23291 5.5745,-3.0786362 10.249,-2.7009695 15.372,-4.0529545 5.123,-1.351985 12.8929,1.9701344 19.3378,2.9537017 6.445,0.9835668 4.501,7.3491498 6.75,11.0222248 2.249,3.673075 7.7362,18.306606 11.6029,27.458409 3.8666,9.151803 24.2452,92.412167 36.3664,138.616747 12.1211,46.20458 10.2815,62.08866 15.4208,93.1315 5.1392,31.04283 5.2817,29.64014 7.9211,44.45871 2.6394,14.81857 5.3647,95.41348 8.0455,143.11871 2.6808,47.70524 0.4823,35.27486 0.7219,52.91079 0.2397,17.63593 -0.093,2.73078 -0.1415,4.09467 -0.048,1.36389 -6.6754,1.1198 -10.0146,1.67819 -3.3392,0.5584 -10.6268,1.73 -15.9417,2.5935 -5.315,0.8635 -4.5017,10.56978 -6.754,15.85316 -2.2523,5.28339 -2.3619,33.37479 -3.5444,50.06069 -1.1825,16.68589 -26.2501,179.23954 -39.3766,268.85781"
       sodipodi:nodetypes="csssssssssssssssssssssssssssssssssssssssssssssssssssssssscssssc" />
  </g>
</svg>
