<?xml version="1.0" encoding="UTF-8" standalone="no"?>
<!-- Created with Inkscape (http://www.inkscape.org/) -->

<svg
   version="1.1"
   id="svg2"
   width="1893"
   height="1024"
   viewBox="0 0 1893 1024"
   sodipodi:docname="frame_0118.svg"
   inkscape:version="1.1.2 (0a00cf5339, 2022-02-04)"
   xmlns:inkscape="http://www.inkscape.org/namespaces/inkscape"
   xmlns:sodipodi="http://sodipodi.sourceforge.net/DTD/sodipodi-0.dtd"
   xmlns:xlink="http://www.w3.org/1999/xlink"
   xmlns="http://www.w3.org/2000/svg"
   xmlns:svg="http://www.w3.org/2000/svg">
  <defs
     id="defs6">
    <inkscape:path-effect
       effect="spiro"
       id="path-effect899"
       is_visible="true"
       lpeversion="1" />
    <inkscape:path-effect
       effect="spiro"
       id="path-effect862"
       is_visible="true"
       lpeversion="1" />
  </defs>
  <sodipodi:namedview
     id="namedview4"
     pagecolor="#ffffff"
     bordercolor="#666666"
     borderopacity="1.0"
     inkscape:pageshadow="2"
     inkscape:pageopacity="0.0"
     inkscape:pagecheckerboard="0"
     showgrid="false"
     inkscape:zoom="0.47401928"
     inkscape:cx="1166.6192"
     inkscape:cy="228.89364"
     inkscape:window-width="1850"
     inkscape:window-height="1016"
     inkscape:window-x="70"
     inkscape:window-y="27"
     inkscape:window-maximized="1"
     inkscape:current-layer="g8" />
  <g
     inkscape:groupmode="layer"
     inkscape:label="Image"
     id="g8">
    
    <path
       style="font-variation-settings:normal;opacity:1;vector-effect:none;fill:none;fill-opacity:1;stroke:#c86487;stroke-width:1px;stroke-linecap:butt;stroke-linejoin:miter;stroke-miterlimit:4;stroke-dasharray:none;stroke-dashoffset:0;stroke-opacity:1;-inkscape-stroke:none;stop-color:#000000;stop-opacity:1"
       d="m 1160.2333,862.56366 -524.78308,-0.0746"
       id="path860"
       inkscape:path-effect="#path-effect862"
       inkscape:original-d="m 1160.2333,862.56366 -524.78308,-0.0746" />
    <path
       style="font-variation-settings:normal;opacity:1;vector-effect:none;fill:none;fill-opacity:1;stroke:#c86487;stroke-width:1px;stroke-linecap:butt;stroke-linejoin:miter;stroke-miterlimit:4;stroke-dasharray:none;stroke-dashoffset:0;stroke-opacity:1;-inkscape-stroke:none;stop-color:#000000;stop-opacity:1"
       d="m 635.45022,862.48906 c -2.04663,-40.46837 -5.48453,-80.86636 -10.30559,-121.09862 -5.94433,-49.60603 -14.00885,-99.35891 -11.22209,-149.24205 1.62773,-29.13636 6.95551,-57.98088 14.30663,-86.22159 7.13938,-27.42728 16.1844,-54.32573 25.95112,-80.93095 5.13945,-14.00023 10.49657,-27.96176 17.35793,-41.20344 8.03028,-15.49758 18.10221,-29.97485 24.66702,-46.14778 5.1036,-12.57311 7.98306,-25.92058 12.14917,-38.83465 4.49258,-13.92606 10.47377,-27.32418 15.3693,-41.11375 4.89553,-13.78956 8.72971,-28.17354 8.67921,-42.80624 -0.0308,-8.92291 -1.50503,-17.77415 -2.08212,-26.67843 -0.5771,-8.90428 -0.2046,-18.10204 3.26676,-26.32207 2.45514,-5.81365 6.39082,-10.93189 11.02716,-15.21332 4.63633,-4.28144 9.96718,-7.7556 15.51346,-10.76642 16.56012,-8.98974 34.96341,-13.89069 52.68945,-20.28135 3.27675,-1.18135 6.56017,-2.42229 9.99797,-2.98286 3.4378,-0.56056 7.09248,-0.39655 10.22003,1.13679 3.73891,1.83307 6.34103,5.42371 8.05641,9.21806 1.71537,3.79435 2.68613,7.8769 4.10439,11.79202 3.1733,8.75994 8.54511,16.56382 14.48961,23.73804 5.94449,7.17421 12.50661,13.81645 18.49117,20.95727 5.55794,6.63178 10.64329,13.74353 14.20375,21.62987 1.54204,3.41559 2.84853,7.05288 5.40767,9.79057 1.27957,1.36884 2.87221,2.48175 4.67232,3.00196 1.80012,0.52021 3.81515,0.40883 5.45434,-0.49895 1.18947,-0.65873 2.1421,-1.71045 2.76204,-2.92059 0.61994,-1.21014 0.91566,-2.57305 0.94528,-3.93242 0.0592,-2.71873 -0.91795,-5.35676 -2.12916,-7.79151 -4.42473,-8.89451 -11.94046,-15.78741 -18.06712,-23.60755 -4.85844,-6.20137 -8.88358,-13.04756 -14.07225,-18.97539 -4.43734,-5.06947 -9.70288,-9.44096 -13.52923,-14.9861 -2.41608,-3.50138 -4.20145,-7.39159 -6.32886,-11.0755 -1.24671,-2.15885 -2.61559,-4.25534 -3.64844,-6.52428 -1.03285,-2.26895 -1.72512,-4.75513 -1.51938,-7.23959 0.18648,-2.25179 1.09606,-4.37888 2.12837,-6.38877 1.03231,-2.00989 2.20395,-3.95991 2.9816,-6.08137 0.55785,-1.52184 0.90812,-3.13731 0.84662,-4.757 -0.0615,-1.619693 -0.55403,-3.246583 -1.54759,-4.527221 -0.68752,-0.886179 -1.59926,-1.588538 -2.60711,-2.080718 -1.00785,-0.492181 -2.11028,-0.77776 -3.22561,-0.896199 -2.23067,-0.236879 -4.4806,0.186966 -6.64458,0.777904 -2.16398,0.590938 -4.2839,1.351115 -6.47961,1.810299 -2.19572,0.459183 -4.5093,0.606896 -6.66072,-0.02825 -1.77827,-0.524981 -3.40398,-1.593784 -4.53026,-3.066651 -1.28393,-1.679031 -1.88209,-3.833296 -1.82185,-5.946116 0.0602,-2.112819 0.75338,-4.181356 1.82738,-6.001842 2.14799,-3.640971 5.695,-6.218349 9.27807,-8.461596 4.46249,-2.793822 9.22358,-5.269838 14.38527,-6.307229 5.16169,-1.037391 10.80178,-0.50799 15.22272,2.351114 4.3652,2.823056 7.08927,7.53642 9.47809,12.153582 2.86135,5.530483 5.52344,11.336559 6.05527,17.540648 0.57979,6.763611 -1.41511,13.532001 -1.01814,20.308801 0.12512,2.1359 0.52139,4.33983 1.76155,6.08332 0.73546,1.03395 1.74612,1.86328 2.88385,2.42499 1.13773,0.5617 2.39973,0.85877 3.6675,0.9107 2.53554,0.10385 5.04534,-0.7686 7.1878,-2.1286 4.28492,-2.72002 7.08036,-7.18477 10.37796,-11.04286 10.00867,-11.70985 24.84408,-17.974066 39.28582,-23.334116 17.11716,-6.35303 34.49172,-12.005074 51.52526,-18.579009 15.87227,-6.12574 31.46867,-13.064606 46.18177,-21.607272 16.2106,-9.412161 31.2831,-20.731214 47.793,-29.607977 8.1705,-4.392971 16.7221,-8.191215 25.7296,-10.4092735 3.7078,-0.9130221 7.5075,-1.5573594 11.3255,-1.491439 3.818,0.06592 7.6689,0.8667614 11.0165,2.7037395 4.2706,2.343419 7.5177,6.260215 9.786,10.571158 4.9844,9.473069 5.4863,20.556524 6.8852,31.16909 3.0109,22.841434 10.5757,44.788335 17.2159,66.849709 12.1705,40.43511 21.335,81.70892 29.9147,123.0551 7.336,35.35249 14.2627,70.85478 17.8918,106.77753 3.7866,37.48162 3.9655,75.24676 7.3402,112.76771 1.2717,14.13864 2.9988,28.31738 2.1504,42.48772 -0.2452,4.09596 -0.7235,8.24949 -2.3373,12.02209 -1.5802,3.69393 -4.2001,6.87945 -7.24,9.50649 -3.0399,2.62704 -6.4993,4.72472 -10.0359,6.63118 -4.2695,2.30153 -8.6788,4.34438 -12.8705,6.78476 -5.1763,3.01364 -10.1091,6.73906 -13.3402,11.7825 -4.003,6.2483 -5.0422,14.00242 -4.5467,21.40646 0.4955,7.40404 2.4076,14.62736 3.8864,21.89911 4.122,20.26892 4.8954,41.06878 4.8418,61.75252 -0.1803,69.64199 -9.6366,139.25427 -28.0407,206.4207"
       id="path897"
       inkscape:path-effect="#path-effect899"
       inkscape:original-d="m 635.45022,862.48906 c -3.4342,-40.36521 -6.86939,-80.73141 -10.30559,-121.09862 -3.4362,-40.36721 -7.48039,-99.4937 -11.22209,-149.24205 -3.74169,-49.74835 9.53875,-57.48006 14.30663,-86.22159 4.76787,-28.74153 17.30174,-53.95296 25.95112,-80.93095 8.64937,-26.97798 11.57295,-27.46796 17.35793,-41.20344 5.78498,-13.73548 16.44568,-30.76419 24.66702,-46.14778 8.22134,-15.3836 8.10045,-25.88877 12.14917,-38.83465 4.04873,-12.94588 17.23854,-63.98633 24.04851,-83.91999 6.80997,-19.93365 -0.41444,-27.29199 1.18464,-53.0005 1.59908,-25.70851 17.69474,-17.31883 26.54062,-25.97974 8.84587,-8.66091 35.1273,-13.5199 52.68945,-20.28135 17.56215,-6.76146 13.47967,-1.22971 20.218,-1.84607 6.73834,-0.61635 8.1082,14.00772 12.1608,21.01008 4.05259,7.00236 21.98819,29.79788 32.98078,44.69531 10.9926,14.89744 9.47017,14.42092 14.20375,21.62987 4.73358,7.20896 10.35722,8.19672 15.53433,12.29358 5.17711,4.09686 1.0531,-9.76202 1.57816,-14.64452 0.52505,-4.88251 -12.04375,-15.73737 -18.06712,-23.60755 -6.02338,-7.87018 -9.3805,-12.64926 -14.07225,-18.97539 -4.69175,-6.32614 -9.01849,-9.98974 -13.52923,-14.9861 -4.51075,-4.99637 -4.21824,-7.38267 -6.32886,-11.0755 -2.11062,-3.69283 -3.44421,-9.17491 -5.16782,-13.76387 -1.72361,-4.58895 3.40765,-8.31242 5.10997,-12.47014 1.70233,-4.15771 -0.46631,-6.18848 -0.70097,-9.284221 -0.23466,-3.095742 -17.07742,-0.276974 -25.61763,-0.41696 -8.54021,-0.139987 -3.01917,-2.043434 -4.53026,-3.066651 -1.51108,-1.023217 6.19007,-13.605369 9.2836,-20.409554 3.09353,-6.804185 19.73966,-2.63641 29.60799,-3.956115 9.86833,-1.319705 6.31973,8.103388 9.47809,12.153582 3.15837,4.050194 4.03785,11.694765 6.05527,17.540648 2.01743,5.845881 -0.67776,13.540201 -1.01814,20.308801 -0.34038,6.7686 1.17536,4.05655 1.76155,6.08332 0.58618,2.02678 16.07907,-6.55618 24.11711,-9.83577 8.03804,-3.27959 26.19155,-15.555077 39.28582,-23.334116 13.09428,-7.779039 34.35117,-12.385006 51.52526,-18.579009 17.17407,-6.194003 30.78887,-14.403848 46.18177,-21.607272 15.3929,-7.203424 31.863,-19.737651 47.793,-29.607977 15.93,-9.870325 17.1541,-6.938516 25.7296,-10.4092735 8.5756,-3.4707579 14.8957,0.8092005 22.342,1.2123005 7.4464,0.4031 6.525,7.048438 9.786,10.571158 3.2609,3.522719 4.5911,20.780393 6.8852,31.16909 2.2941,10.388697 11.4783,44.56747 17.2159,66.849709 5.7377,22.28223 19.9441,82.03773 29.9147,123.0551 9.9705,41.01736 11.9288,71.18602 17.8918,106.77753 5.9629,35.59151 4.8945,75.17947 7.3402,112.76771 2.4458,37.58824 1.4346,28.32615 2.1504,42.48772 0.7157,14.16158 -1.5572,8.01573 -2.3373,12.02209 -0.7801,4.00636 -11.5163,10.75944 -17.2759,16.13767 -5.7596,5.37822 -8.5793,4.52417 -12.8705,6.78476 -4.2911,2.26059 -8.8924,7.856 -13.3402,11.7825 -4.4477,3.92649 -2.7085,35.50169 -0.6603,43.30557 2.0482,7.80389 5.4982,34.53904 4.8418,61.75252 -0.6564,27.21347 -18.6928,137.6148 -28.0407,206.4207"
       sodipodi:nodetypes="cssssssssssssssssssssssssssssssssssssssssssssssssssssc" />
  </g>
</svg>
