<?xml version="1.0" encoding="UTF-8" standalone="no"?>
<!-- Created with Inkscape (http://www.inkscape.org/) -->

<svg
   version="1.1"
   id="svg2"
   width="1893"
   height="1024"
   viewBox="0 0 1893 1024"
   sodipodi:docname="frame_0086.svg"
   inkscape:version="1.1.2 (0a00cf5339, 2022-02-04)"
   xmlns:inkscape="http://www.inkscape.org/namespaces/inkscape"
   xmlns:sodipodi="http://sodipodi.sourceforge.net/DTD/sodipodi-0.dtd"
   xmlns:xlink="http://www.w3.org/1999/xlink"
   xmlns="http://www.w3.org/2000/svg"
   xmlns:svg="http://www.w3.org/2000/svg">
  <defs
     id="defs6">
    <inkscape:path-effect
       effect="spiro"
       id="path-effect899"
       is_visible="true"
       lpeversion="1" />
    <inkscape:path-effect
       effect="spiro"
       id="path-effect862"
       is_visible="true"
       lpeversion="1" />
  </defs>
  <sodipodi:namedview
     id="namedview4"
     pagecolor="#ffffff"
     bordercolor="#666666"
     borderopacity="1.0"
     inkscape:pageshadow="2"
     inkscape:pageopacity="0.0"
     inkscape:pagecheckerboard="0"
     showgrid="false"
     inkscape:zoom="0.33518225"
     inkscape:cx="1106.8605"
     inkscape:cy="589.23168"
     inkscape:window-width="1850"
     inkscape:window-height="1016"
     inkscape:window-x="70"
     inkscape:window-y="27"
     inkscape:window-maximized="1"
     inkscape:current-layer="g8" />
  <g
     inkscape:groupmode="layer"
     inkscape:label="Image"
     id="g8">
    
    <path
       style="font-variation-settings:normal;opacity:1;vector-effect:none;fill:none;fill-opacity:1;stroke:#c86487;stroke-width:1px;stroke-linecap:butt;stroke-linejoin:miter;stroke-miterlimit:4;stroke-dasharray:none;stroke-dashoffset:0;stroke-opacity:1;-inkscape-stroke:none;stop-color:#000000;stop-opacity:1"
       d="m 1161.0592,862.56423 -525.29727,0.15711"
       id="path860"
       inkscape:path-effect="#path-effect862"
       inkscape:original-d="m 1161.0592,862.56423 -525.29727,0.15711" />
    <path
       style="font-variation-settings:normal;opacity:1;vector-effect:none;fill:none;fill-opacity:1;stroke:#c86487;stroke-width:1px;stroke-linecap:butt;stroke-linejoin:miter;stroke-miterlimit:4;stroke-dasharray:none;stroke-dashoffset:0;stroke-opacity:1;-inkscape-stroke:none;stop-color:#000000;stop-opacity:1"
       d="m 635.76193,862.72134 c 7.01883,-66.42541 3.46853,-133.95656 -10.47669,-199.27983 -4.62447,-21.66231 -10.39796,-43.17774 -12.34917,-65.24206 -2.90941,-32.89969 2.77971,-65.98997 10.91114,-98.00144 5.82693,-22.9392 12.949,-45.63649 23.04678,-67.04198 7.88357,-16.71176 17.52956,-32.53081 25.85691,-49.02592 10.84963,-21.49133 19.43617,-44.09228 26.18257,-67.2024 5.71057,-19.56181 10.14603,-39.59932 18.28908,-58.27995 5.41222,-12.41594 12.5326,-24.50434 13.84535,-37.98486 1.38603,-14.23302 -3.90217,-28.45878 -2.74231,-42.71201 0.75298,-9.25327 4.36466,-18.37011 10.71727,-25.14022 6.94043,-7.39656 16.60645,-11.59219 26.25759,-14.71217 9.65114,-3.11997 19.64413,-5.39176 28.75071,-9.85818 4.70693,-2.30856 9.14526,-5.18978 14.04424,-7.05652 2.44948,-0.93337 5.01355,-1.6077 7.62878,-1.78588 2.61523,-0.17818 5.2872,0.15207 7.70692,1.16009 2.76655,1.1525 5.11234,3.14536 7.10962,5.37985 1.99728,2.23448 3.68319,4.72465 5.46853,7.13185 4.72939,6.37672 10.16979,12.18733 15.25231,18.28632 7.37553,8.85058 14.00044,18.31249 21.51993,27.04109 8.48223,9.84615 18.22934,18.94796 23.85321,30.66406 0.67676,1.40987 1.29187,2.85476 2.11041,4.18733 0.81853,1.33257 1.86255,2.56456 3.21294,3.35335 1.5492,0.90492 3.48815,1.16243 5.18629,0.58345 1.16126,-0.39593 2.18354,-1.16468 2.93304,-2.13604 0.7495,-0.97135 1.23016,-2.13933 1.43981,-3.34818 0.28948,-1.66915 0.0667,-3.40701 -0.5148,-4.99814 -0.58152,-1.59113 -1.5125,-3.04056 -2.62138,-4.32128 -2.21776,-2.56144 -5.10331,-4.43348 -7.88536,-6.3673 -7.81077,-5.42931 -15.21274,-11.73204 -20.35705,-19.73338 -3.39348,-5.27815 -5.71714,-11.15523 -8.25,-16.89623 -2.53286,-5.74101 -5.34782,-11.46374 -9.53273,-16.13932 -4.51268,-5.04178 -10.54244,-8.78308 -14.02811,-14.58255 -0.8115,-1.35018 -1.47388,-2.80485 -1.79943,-4.34613 -0.32555,-1.54128 -0.30235,-3.17608 0.22139,-4.66175 0.50567,-1.4344 1.4462,-2.66702 2.36243,-3.88099 0.91623,-1.21396 1.83821,-2.4654 2.29674,-3.91556 0.44748,-1.41521 0.42237,-2.96165 0.0205,-4.39047 -0.40189,-1.42883 -1.17032,-2.74175 -2.14795,-3.85858 -2.27003,-2.59322 -5.5851,-4.077851 -8.95245,-4.811886 -3.36734,-0.734036 -6.83894,-0.789524 -10.28029,-0.97645 -3.0627,-0.166359 -6.14379,-0.44349 -9.08711,-1.306417 -2.94332,-0.862926 -5.76478,-2.349861 -7.81409,-4.631988 -1.58011,-1.759622 -2.65768,-3.953767 -3.15428,-6.265995 -0.49661,-2.312229 -0.41824,-4.737507 0.15689,-7.031464 1.15027,-4.587915 4.26807,-8.549515 8.17317,-11.218277 3.45274,-2.35962 7.50607,-3.772737 11.64636,-4.362016 4.14029,-0.589279 8.36968,-0.373149 12.48972,0.344149 6.78361,1.181026 13.43705,3.795469 18.62873,8.318597 4.86789,4.241031 8.21684,9.913344 11.55696,15.438403 1.10173,1.822419 2.215,3.646381 3.07553,5.594327 0.86053,1.947947 1.46599,4.037029 1.49752,6.166352 0.0466,3.147125 -1.14679,6.161215 -2.23758,9.113625 -0.79859,2.16151 -1.55453,4.35071 -1.96615,6.61796 -0.41163,2.26725 -0.46942,4.62883 0.12084,6.85626 0.52812,1.99295 1.60869,3.88347 3.2542,5.12567 1.51053,1.14031 3.42804,1.67849 5.32066,1.67953 1.89263,0.001 3.76187,-0.51203 5.47977,-1.30628 3.43581,-1.58848 6.24112,-4.24036 9.2247,-6.5698 8.72357,-6.81096 19.16381,-10.97883 28.84669,-16.33901 8.71819,-4.826156 16.96429,-10.695269 26.38187,-13.952223 10.55101,-3.648936 21.98054,-3.811809 32.81164,-6.518436 14.78001,-3.693437 27.94768,-11.977985 40.59368,-20.47316 11.5194,-7.738342 22.866,-15.769173 34.9065,-22.668787 11.4143,-6.540793 23.4993,-12.097529 33.7965,-20.285181 3.2488,-2.583235 6.305,-5.418134 9.7269,-7.767258 3.4219,-2.349124 7.2946,-4.2226611 11.43,-4.5775145 4.8015,-0.4120093 9.6349,1.2872457 13.5521,4.0943955 3.9171,2.807149 6.9856,6.660671 9.4745,10.787371 8.2896,13.744371 10.3383,30.21465 14.9423,45.590892 5.2155,17.418637 13.8064,33.632771 19.8797,50.771201 11.8945,33.56576 13.838,69.68591 19.5855,104.82999 6.2717,38.34976 17.161,75.89807 21.9189,114.46491 3.7221,30.17069 3.6541,60.6603 4.9545,91.03189 1.2396,28.9515 3.7272,57.89945 2.7953,86.86248 -0.1465,4.55261 -0.411,9.24219 -2.3704,13.35418 -1.5484,3.24953 -4.0704,5.93923 -6.7915,8.29568 -2.721,2.35645 -5.6754,4.43371 -8.3773,6.8121 -11.8393,10.4216 -18.0238,25.88921 -21.4562,41.2839 -4.9512,22.20699 -5.0003,45.1666 -5.4616,67.91418 -1.4154,69.7989 -6.9262,139.51453 -16.4949,208.66892"
       id="path897"
       inkscape:path-effect="#path-effect899"
       inkscape:original-d="m 635.76193,862.72134 c -3.49123,-66.42561 -6.98346,-132.85222 -10.47669,-199.27983 -3.49323,-66.42761 -8.23178,-43.49371 -12.34917,-65.24206 -4.11739,-21.74835 7.27509,-65.3333 10.91114,-98.00144 3.63604,-32.66815 15.36552,-44.69366 23.04678,-67.04198 7.68127,-22.34833 17.23894,-32.68295 25.85691,-49.02592 8.61797,-16.34298 17.45604,-44.8006 26.18257,-67.2024 8.72652,-22.4018 12.19372,-38.8523 18.28908,-58.27995 6.09536,-19.42765 9.23124,-25.32224 13.84535,-37.98486 4.61412,-12.66262 -1.8272,-28.47367 -2.74231,-42.71201 -0.9151,-14.23833 7.14585,-16.75914 10.71727,-25.14022 3.57143,-8.38107 36.6732,-16.37923 55.0083,-24.57035 18.3351,-8.19112 19.58763,-5.12054 29.37994,-7.68231 9.79231,-2.56177 8.38643,8.34213 12.57815,12.5117 4.19172,4.16956 10.16921,12.19188 15.25231,18.28632 5.08311,6.09444 14.34762,18.02839 21.51993,27.04109 7.17231,9.0127 15.90314,20.44371 23.85321,30.66406 7.95008,10.22036 3.5499,5.02812 5.32335,7.54068 1.77345,2.51255 3.45853,0.38997 5.18629,0.58345 1.72777,0.19349 2.91624,-3.65515 4.37285,-5.48422 1.45662,-1.82908 -7.34669,-10.45681 -11.02154,-15.68672 -3.67485,-5.2299 -13.57037,-13.15459 -20.35705,-19.73338 -6.78668,-6.5788 -11.85416,-22.0227 -17.78273,-33.03555 -5.92858,-11.01285 -9.35108,-9.7207 -14.02811,-14.58255 -4.67704,-4.86185 -1.05103,-6.00425 -1.57804,-9.00788 -0.52702,-3.00363 3.10711,-5.1967 4.65917,-7.79655 1.55206,-2.59985 -1.41731,-5.49837 -2.12747,-8.24905 -0.71015,-2.75069 -12.82083,-3.857891 -19.23274,-5.788336 -6.41192,-1.930446 -11.26647,-3.957937 -16.9012,-5.938405 -5.63474,-1.980469 3.45152,-16.342824 5.17578,-24.515736 1.72426,-8.172912 16.09172,-2.677578 24.13608,-4.017867 8.04437,-1.340289 12.42016,5.546731 18.62873,8.318597 6.20858,2.771866 7.70564,10.293269 11.55696,15.438403 3.85132,5.145135 3.0497,7.841453 4.57305,11.760679 1.52336,3.919225 -1.49072,6.076755 -2.23758,9.113625 -0.74687,3.03688 -1.22921,8.98381 -1.84531,13.47422 -0.61611,4.49041 2.17047,3.41811 3.2542,5.12567 1.08374,1.70755 13.35108,-4.13003 20.02513,-6.19655 6.67404,-2.06652 19.23213,-10.89168 28.84669,-16.33901 9.61456,-5.447341 17.58891,-9.300483 26.38187,-13.952223 8.79296,-4.65174 21.87543,-4.344624 32.81164,-6.518436 10.93621,-2.173812 27.06348,-13.647773 40.59368,-20.47316 13.5303,-6.825387 23.272,-15.111525 34.9065,-22.668787 11.6345,-7.557262 22.532,-13.522454 33.7965,-20.285181 11.2646,-6.762727 14.1056,-8.228848 21.1569,-12.3447725 7.0512,-4.1159243 15.3521,9.9221775 23.0266,14.8817665 7.6746,4.959589 9.9625,30.394928 14.9423,45.590892 4.9798,15.195964 13.2541,33.848471 19.8797,50.771201 6.6255,16.92273 13.058,69.88766 19.5855,104.82999 6.5275,34.94233 14.6136,76.31094 21.9189,114.46491 7.3052,38.15397 3.304,60.68893 4.9545,91.03189 1.6506,30.34296 1.8646,57.90932 2.7953,86.86248 0.9308,28.95316 -1.5793,8.90379 -2.3704,13.35418 -0.7912,4.4504 -10.1116,10.07285 -15.1688,15.10778 -5.0573,5.03493 -14.3032,27.5236 -21.4562,41.2839 -7.1531,13.7603 -3.6401,45.27712 -5.4616,67.91418 -1.8216,22.63705 -10.9956,139.11361 -16.4949,208.66892" />
  </g>
</svg>
