<?xml version="1.0" encoding="UTF-8" standalone="no"?>
<!-- Created with Inkscape (http://www.inkscape.org/) -->

<svg
   version="1.1"
   id="svg2"
   width="1893"
   height="1024"
   viewBox="0 0 1893 1024"
   sodipodi:docname="frame_0142.svg"
   inkscape:version="1.1.2 (0a00cf5339, 2022-02-04)"
   xmlns:inkscape="http://www.inkscape.org/namespaces/inkscape"
   xmlns:sodipodi="http://sodipodi.sourceforge.net/DTD/sodipodi-0.dtd"
   xmlns:xlink="http://www.w3.org/1999/xlink"
   xmlns="http://www.w3.org/2000/svg"
   xmlns:svg="http://www.w3.org/2000/svg">
  <defs
     id="defs6">
    <inkscape:path-effect
       effect="spiro"
       id="path-effect866"
       is_visible="true"
       lpeversion="1" />
    <inkscape:path-effect
       effect="spiro"
       id="path-effect862"
       is_visible="true"
       lpeversion="1" />
  </defs>
  <sodipodi:namedview
     id="namedview4"
     pagecolor="#ffffff"
     bordercolor="#666666"
     borderopacity="1.0"
     inkscape:pageshadow="2"
     inkscape:pageopacity="0.0"
     inkscape:pagecheckerboard="0"
     showgrid="false"
     inkscape:zoom="0.94803857"
     inkscape:cx="1057.9738"
     inkscape:cy="359.1626"
     inkscape:window-width="1850"
     inkscape:window-height="1016"
     inkscape:window-x="70"
     inkscape:window-y="27"
     inkscape:window-maximized="1"
     inkscape:current-layer="g8" />
  <g
     inkscape:groupmode="layer"
     inkscape:label="Image"
     id="g8">
    
    <path
       style="font-variation-settings:normal;opacity:1;vector-effect:none;fill:none;fill-opacity:1;stroke:#c86487;stroke-width:1px;stroke-linecap:butt;stroke-linejoin:miter;stroke-miterlimit:4;stroke-dasharray:none;stroke-dashoffset:0;stroke-opacity:1;-inkscape-stroke:none;stop-color:#000000;stop-opacity:1"
       d="m 1160.1729,862.57991 -524.78692,0.003"
       id="path860"
       inkscape:path-effect="#path-effect862"
       inkscape:original-d="m 1160.1729,862.57991 c -174.92796,0.002 -349.85694,0.003 -524.78692,0.003" />
    <path
       style="font-variation-settings:normal;opacity:1;vector-effect:none;fill:none;fill-opacity:1;stroke:#c86487;stroke-width:1px;stroke-linecap:butt;stroke-linejoin:miter;stroke-miterlimit:4;stroke-dasharray:none;stroke-dashoffset:0;stroke-opacity:1;-inkscape-stroke:none;stop-color:#000000;stop-opacity:1"
       d="m 635.38598,862.58291 c 1.82866,-27.77195 2.13359,-55.64415 0.91295,-83.44946 -1.59882,-36.41994 -5.8225,-72.75845 -13.44579,-108.40748 -6.30948,-29.50522 -14.99905,-59.43655 -10.95285,-89.33632 3.21509,-23.75818 14.2756,-45.66959 20.60201,-68.79457 6.27295,-22.92957 7.87848,-47.02587 15.34276,-69.59575 2.02369,-6.11905 4.46937,-12.09479 7.21381,-17.92627 4.94221,-10.50138 10.84265,-20.51831 16.68072,-30.54933 10.01331,-17.20495 19.90679,-34.57825 27.16514,-53.11451 3.33751,-8.52328 6.1036,-17.25751 8.83599,-25.9936 5.85421,-18.71726 11.57021,-37.49031 18.36021,-55.88877 5.3791,-14.57543 11.43695,-28.9306 15.67849,-43.87674 1.23782,-4.36178 2.3228,-8.79014 2.71198,-13.30742 0.38917,-4.51729 0.0628,-9.14773 -1.4588,-13.41881 -0.93787,-2.63257 -2.31049,-5.0844 -3.5039,-7.61141 -1.19342,-2.52702 -2.22305,-5.19051 -2.40139,-7.97946 -0.23196,-3.62742 1.00495,-7.22552 2.84839,-10.35821 1.84343,-3.13268 4.27624,-5.86959 6.66744,-8.60713 4.78899,-5.48263 9.48304,-11.06365 14.68682,-16.15427 11.95095,-11.69106 26.81153,-20.76646 43.18727,-24.13416 9.59092,-1.97239 19.48769,-1.96818 29.25373,-1.26083 2.3906,0.17315 4.78739,0.38932 7.12306,0.92745 2.33567,0.53812 4.62029,1.40999 6.57208,2.8012 3.78521,2.69806 5.97543,7.05365 7.93178,11.27029 2.00166,4.3143 3.91311,8.67132 6.01375,12.9383 13.06242,26.53338 33.14415,48.99522 54.74642,69.19396 2.35961,2.2063 4.7694,4.41133 7.5919,5.98263 1.1767,0.65507 2.44399,1.20187 3.78491,1.32707 0.67047,0.0626 1.3541,0.0174 2.00145,-0.16806 0.64734,-0.18543 1.25763,-0.51361 1.74534,-0.97791 0.62618,-0.59612 1.03455,-1.40576 1.19177,-2.2559 0.15721,-0.85014 0.0694,-1.73776 -0.20277,-2.55835 -0.54442,-1.64117 -1.79208,-2.96925 -3.20333,-3.96835 -1.49047,-1.05518 -3.17837,-1.79444 -4.74176,-2.73822 -4.88756,-2.95052 -8.32959,-7.73367 -11.7216,-12.32585 -11.31211,-15.31459 -23.63326,-30.00767 -32.81608,-46.68629 -4.49098,-8.1569 -8.2358,-16.79433 -13.86167,-24.21413 -0.76801,-1.0129 -1.5925,-2.04832 -1.86162,-3.29065 -0.16981,-0.7839 -0.10341,-1.60791 0.11672,-2.3792 0.22013,-0.77128 0.58983,-1.49334 1.02269,-2.1686 0.86572,-1.35051 1.98534,-2.52577 2.83226,-3.88815 1.03803,-1.66981 1.63913,-3.5805 1.993,-5.51455 0.35387,-1.93404 0.46955,-3.90252 0.60006,-5.864331 0.1415,-2.126974 0.29262,-4.322881 -0.40878,-6.335858 -0.64732,-1.857761 -2.00113,-3.429788 -3.65269,-4.498723 -1.65157,-1.068934 -3.58735,-1.654027 -5.54367,-1.861611 -3.91265,-0.415168 -7.8148,0.631559 -11.62262,1.622343 -1.85799,0.483443 -3.72544,0.957025 -5.63198,1.18272 -1.90655,0.225695 -3.864,0.197674 -5.7151,-0.311495 -1.61028,-0.442927 -3.13294,-1.259581 -4.30476,-2.449551 -1.17182,-1.18997 -1.97647,-2.763561 -2.13125,-4.426459 -0.17263,-1.85465 0.46542,-3.726664 1.52692,-5.257265 1.06151,-1.530601 2.52342,-2.746212 4.0882,-3.756651 6.5843,-4.251734 14.83465,-4.962233 22.66571,-4.638552 8.76223,0.362169 17.88253,2.04193 24.76936,7.471433 3.66957,2.893048 6.56339,6.798262 8.09693,11.212295 1.46225,4.208817 1.66918,8.832612 0.67503,13.175879 -0.91269,3.987386 -2.79521,7.686046 -4.88961,11.199696 -0.51816,0.86928 -1.05514,1.74049 -1.36553,2.70371 -0.15519,0.48161 -0.25206,0.98444 -0.25472,1.49043 -0.003,0.50599 0.0907,1.01559 0.30173,1.47547 0.24238,0.52812 0.63632,0.98074 1.10594,1.32294 0.46963,0.34221 1.01325,0.57637 1.57687,0.71775 1.12723,0.28276 2.3134,0.19763 3.46394,0.0337 6.8368,-0.97384 12.96719,-4.5863 18.93716,-8.05756 11.9123,-6.92645 24.00941,-13.59193 36.6825,-19.002232 9.69145,-4.137402 19.68307,-7.525164 29.51292,-11.322052 13.50928,-5.21811 26.71648,-11.211147 39.58248,-17.859058 14.77,-7.631678 29.1157,-16.137429 44.3746,-22.737375 8.823,-3.816228 17.9342,-6.987313 26.5218,-11.307252 10.1955,-5.128756 19.5513,-11.826513 29.8381,-16.769532 4.7252,-2.2705645 9.6319,-4.1632315 14.2646,-6.616999 1.3803,-0.7310672 2.7475,-1.5166577 4.241,-1.9738788 1.4935,-0.4572211 3.1566,-0.5606264 4.586,0.068998 1.1084,0.4882281 1.9982,1.3820187 2.6792,2.3835777 0.681,1.001559 1.1737,2.1163445 1.6785,3.2173048 2.8119,6.1331944 6.1128,12.0498344 8.5332,18.3478264 3.7809,9.838389 5.3255,20.36621 7.852,30.598808 6.5059,26.349045 19.5092,50.677014 26.9121,76.788244 3.0431,10.73373 5.1234,21.71219 7.2885,32.65686 3.956,19.99709 8.2081,39.93485 12.1288,59.93889 5.1025,26.0336 9.6458,52.19657 12.5864,78.56201 3.9656,35.55607 5.0073,71.39447 9.1554,106.92971 2.5536,21.87587 6.2903,43.81843 4.7707,65.79035 -0.4445,6.42633 -1.3376,12.81614 -1.7454,19.24491 -0.2885,4.54898 -0.3338,9.1149 -0.7953,13.6496 -0.1694,1.66494 -0.3963,3.33102 -0.8539,4.94077 -0.4576,1.60975 -1.154,3.16826 -2.1922,4.48083 -1.9714,2.49235 -4.9825,3.89543 -7.9128,5.12488 -4.8514,2.03547 -9.9895,3.96356 -13.5376,7.84825 -2.8857,3.15952 -4.416,7.29976 -5.7445,11.36735 -11.4822,35.15687 -12.7659,72.68053 -15.2082,109.58421 -4.6291,69.94734 -13.7684,139.59587 -27.3424,208.36945"
       id="path864"
       inkscape:path-effect="#path-effect866"
       inkscape:original-d="m 635.38598,862.58291 c 0.30532,-27.81549 0.60964,-55.63197 0.91295,-83.44946 0.30332,-27.81749 -8.96286,-72.27066 -13.44579,-108.40748 -4.48293,-36.13683 -7.3009,-59.55655 -10.95285,-89.33632 -3.65195,-29.77977 13.73567,-45.86205 20.60201,-68.79457 6.86634,-22.93253 10.2295,-46.39617 15.34276,-69.59575 5.11325,-23.19958 4.81021,-11.94985 7.21381,-17.92627 2.4036,-5.97643 11.12148,-20.36522 16.68072,-30.54933 5.55923,-10.18411 18.11109,-35.40867 27.16514,-53.11451 9.05405,-17.70583 5.89166,-17.32807 8.83599,-25.9936 2.94433,-8.66553 12.24114,-37.25818 18.36021,-55.88877 6.11907,-18.6306 10.45333,-29.25016 15.67849,-43.87674 5.22516,-14.62658 0.83645,-17.81648 1.25318,-26.72623 0.41673,-8.90974 -3.93586,-10.39291 -5.90529,-15.59087 -1.96943,-5.19796 6.34489,-12.64256 9.51583,-18.96534 3.17094,-6.32278 9.79221,-10.76851 14.68682,-16.15427 4.8946,-5.38575 28.79252,-16.08844 43.18727,-24.13416 14.39476,-8.04573 19.50349,-0.83956 29.25373,-1.26083 9.75024,-0.42128 9.13109,2.48677 13.69514,3.72865 4.56405,1.24189 5.28886,7.51453 7.93178,11.27029 2.64293,3.75576 4.01017,8.62653 6.01375,12.9383 2.00358,4.31177 36.49862,46.13031 54.74642,69.19396 18.24781,23.06366 5.06227,3.98942 7.5919,5.98263 2.52964,1.99322 5.02213,0.12173 7.5317,0.1811 2.50956,0.0594 -1.47522,-5.85407 -2.21433,-8.7826 -0.73911,-2.92853 -3.16017,-1.82448 -4.74176,-2.73822 -1.58159,-0.91373 -7.8134,-8.21623 -11.7216,-12.32585 -3.9082,-4.10962 -21.87638,-31.12319 -32.81608,-46.68629 -10.93969,-15.5631 -9.24011,-16.14175 -13.86167,-24.21413 -4.62156,-8.07237 -1.24008,-2.19277 -1.86162,-3.29065 -0.62154,-1.09788 2.64878,-5.62296 3.97167,-8.43595 1.32289,-2.81298 1.72971,-7.58492 2.59306,-11.378881 0.86336,-3.793961 -0.27152,-4.222905 -0.40878,-6.335858 -0.13726,-2.112952 -13.87832,-3.15766 -20.81898,-4.737991 -6.94065,-1.58033 -7.56372,0.581816 -11.34708,0.871225 -3.78336,0.289408 -4.28967,-4.583007 -6.43601,-6.87601 -2.14634,-2.293004 3.74441,-6.008277 5.61512,-9.013916 1.87071,-3.005639 15.11148,-3.091368 22.66571,-4.638552 7.55424,-1.547184 16.51391,4.981955 24.76936,7.471433 8.25546,2.489477 5.39896,7.475863 8.09693,11.212295 2.69798,3.736432 0.45102,8.784919 0.67503,13.175879 0.22401,4.390956 -3.25874,7.467466 -4.88961,11.199696 -1.63088,3.73224 -0.87801,3.78074 -1.31852,5.66961 -0.4405,1.88886 4.09884,1.38396 6.14675,2.07444 2.04792,0.69048 12.62578,-5.37071 18.93716,-8.05756 6.31139,-2.68686 24.456,-12.667155 36.6825,-19.002232 12.22649,-6.335076 19.67628,-7.547034 29.51292,-11.322052 9.83665,-3.775017 26.38928,-11.905038 39.58248,-17.859058 13.1931,-5.954019 29.5841,-15.15725 44.3746,-22.737375 14.7905,-7.580125 17.6822,-7.537168 26.5218,-11.307252 8.8396,-3.770084 19.8931,-11.178688 29.8381,-16.769532 9.945,-5.5908437 9.5107,-4.4103326 14.2646,-6.616999 4.7539,-2.2066664 5.8857,-1.2689206 8.827,-1.9048809 2.9413,-0.6359603 2.9061,3.7349216 4.3577,5.6008825 1.4515,1.8659604 5.6898,12.2328844 8.5332,18.3478264 2.8435,6.114942 5.2357,20.400206 7.852,30.598808 2.6163,10.198603 17.9424,51.193164 26.9121,76.788244 8.9698,25.59508 4.86,21.77224 7.2885,32.65686 2.4285,10.88462 8.0869,39.96026 12.1288,59.93889 4.042,19.97863 8.392,52.37568 12.5864,78.56201 4.1945,26.18634 6.1046,71.28748 9.1554,106.92971 3.0507,35.64224 3.1814,43.86124 4.7707,65.79035 1.5892,21.92912 -1.1626,12.83094 -1.7454,19.24491 -0.5828,6.41396 -0.5292,9.10073 -0.7953,13.6496 -0.2662,4.54887 -2.0297,6.28207 -3.0461,9.4216 -1.0163,3.13953 -5.2742,3.41759 -7.9128,5.12488 -2.6386,1.70729 -9.0241,5.23317 -13.5376,7.84825 -4.5136,2.61508 -3.8287,7.57923 -5.7445,11.36735 -1.9159,3.78812 -10.1378,73.05714 -15.2082,109.58421 -5.0704,36.52707 -18.2273,138.91397 -27.3424,208.36945" />
  </g>
</svg>
