<?xml version="1.0" encoding="UTF-8" standalone="no"?>
<!-- Created with Inkscape (http://www.inkscape.org/) -->

<svg
   version="1.1"
   id="svg2"
   width="1893"
   height="1024"
   viewBox="0 0 1893 1024"
   sodipodi:docname="frame_0078.svg"
   inkscape:version="1.1.2 (0a00cf5339, 2022-02-04)"
   xmlns:inkscape="http://www.inkscape.org/namespaces/inkscape"
   xmlns:sodipodi="http://sodipodi.sourceforge.net/DTD/sodipodi-0.dtd"
   xmlns:xlink="http://www.w3.org/1999/xlink"
   xmlns="http://www.w3.org/2000/svg"
   xmlns:svg="http://www.w3.org/2000/svg">
  <defs
     id="defs6">
    <inkscape:path-effect
       effect="spiro"
       id="path-effect899"
       is_visible="true"
       lpeversion="1" />
    <inkscape:path-effect
       effect="spiro"
       id="path-effect862"
       is_visible="true"
       lpeversion="1" />
  </defs>
  <sodipodi:namedview
     id="namedview4"
     pagecolor="#ffffff"
     bordercolor="#666666"
     borderopacity="1.0"
     inkscape:pageshadow="2"
     inkscape:pageopacity="0.0"
     inkscape:pagecheckerboard="0"
     showgrid="false"
     inkscape:zoom="0.94803857"
     inkscape:cx="1023.1651"
     inkscape:cy="385.53284"
     inkscape:window-width="1850"
     inkscape:window-height="1016"
     inkscape:window-x="70"
     inkscape:window-y="27"
     inkscape:window-maximized="1"
     inkscape:current-layer="g8" />
  <g
     inkscape:groupmode="layer"
     inkscape:label="Image"
     id="g8">
    
    <path
       style="font-variation-settings:normal;opacity:1;vector-effect:none;fill:none;fill-opacity:1;stroke:#c86487;stroke-width:1px;stroke-linecap:butt;stroke-linejoin:miter;stroke-miterlimit:4;stroke-dasharray:none;stroke-dashoffset:0;stroke-opacity:1;-inkscape-stroke:none;stop-color:#000000;stop-opacity:1"
       d="m 1160.8533,863.34067 -524.99326,-0.0538"
       id="path860"
       inkscape:path-effect="#path-effect862"
       inkscape:original-d="m 1160.8533,863.34067 -524.99326,-0.0538" />
    <path
       style="font-variation-settings:normal;opacity:1;vector-effect:none;fill:none;fill-opacity:1;stroke:#c86487;stroke-width:1px;stroke-linecap:butt;stroke-linejoin:miter;stroke-miterlimit:4;stroke-dasharray:none;stroke-dashoffset:0;stroke-opacity:1;-inkscape-stroke:none;stop-color:#000000;stop-opacity:1"
       d="m 635.86004,863.28687 c -2.4586,-69.79202 -5.6018,-139.55993 -9.429,-209.29029 -2.49062,-45.37824 -5.25084,-91.17987 2.01721,-136.04147 4.53011,-27.96184 12.91417,-55.19464 23.22823,-81.57657 9.96965,-25.50099 21.755,-50.28239 31.06234,-76.03249 12.53804,-34.68831 20.52938,-70.997 34.99734,-104.92574 3.30712,-7.75551 6.95065,-15.38129 9.7102,-23.3481 2.75955,-7.9668 4.63009,-16.3582 4.23771,-24.78026 -0.30446,-6.53498 -1.95756,-12.91918 -3.33422,-19.31476 -1.37665,-6.39559 -2.48735,-12.96506 -1.69021,-19.45838 0.89783,-7.31353 4.22301,-14.21711 8.88829,-19.92051 4.66529,-5.70341 10.63034,-10.25305 17.06,-13.85211 10.98547,-6.14921 23.29258,-9.58013 35.66462,-11.90948 4.93757,-0.92962 9.92771,-1.69449 14.95181,-1.74082 5.0241,-0.0463 10.10385,0.6447 14.75753,2.53865 7.36036,2.99551 13.22328,8.79718 18.19293,14.99802 7.5222,9.38577 13.43387,19.93488 20.10372,29.94435 10.9923,16.49619 24.05823,31.53814 38.07019,45.56025 1.72986,1.73111 3.50483,3.47017 5.6518,4.64477 1.26668,0.693 2.66099,1.18021 4.10053,1.29182 1.43954,0.1116 2.92636,-0.16715 4.165,-0.90911 1.10467,-0.66171 1.98068,-1.67143 2.57556,-2.81348 0.59488,-1.14205 0.91759,-2.41314 1.04752,-3.69426 0.34099,-3.36206 -0.64073,-6.77706 -2.37023,-9.68026 -1.7295,-2.9032 -4.17371,-5.32796 -6.84796,-7.3939 -5.34851,-4.13189 -11.65755,-6.92063 -16.85293,-11.24347 -4.7102,-3.91914 -8.35011,-8.9764 -11.44724,-14.26349 -3.09714,-5.2871 -5.69885,-10.84852 -8.67459,-16.20488 -4.35804,-7.84452 -9.51004,-15.23457 -13.69349,-23.17358 -4.07066,-7.72498 -7.19946,-15.92325 -11.38434,-23.58696 -1.2109,-2.2175 -2.51694,-4.39893 -4.15043,-6.32645 -1.63348,-1.927524 -3.61403,-3.602234 -5.92603,-4.621187 -2.80004,-1.234044 -5.92157,-1.450739 -8.95399,-1.860089 -3.03241,-0.40935 -6.17315,-1.089863 -8.53317,-3.037526 -1.45637,-1.201906 -2.53311,-2.840879 -3.13457,-4.630809 -0.60145,-1.789929 -0.73478,-3.725189 -0.46467,-5.59405 0.54021,-3.737721 2.66477,-7.118261 5.40548,-9.716513 3.34567,-3.171771 7.6519,-5.303275 12.19195,-6.104298 4.54004,-0.801023 9.29709,-0.277258 13.57876,1.431814 5.58897,2.230892 10.21054,6.349219 14.33898,10.727515 5.23738,5.554352 9.97242,11.816994 12.31356,19.083357 1.43538,4.455096 1.93013,9.211506 1.43586,13.865956 -0.28444,2.67855 -0.89038,5.31183 -1.53748,7.92656 -0.29843,1.20587 -0.60777,2.42312 -0.6235,3.66526 -0.0157,1.24215 0.29161,2.53239 1.09871,3.47672 0.77623,0.90821 1.94763,1.41333 3.13132,1.57535 1.18369,0.16201 2.38821,0.01 3.56124,-0.21702 6.22114,-1.20194 11.86499,-4.45521 16.96835,-8.2106 5.10336,-3.75539 9.79132,-8.05461 14.93746,-11.75117 13.62632,-9.788023 29.91293,-14.994533 45.79069,-20.414758 18.83841,-6.430908 37.55285,-13.38454 55.32072,-22.359236 20.7859,-10.499105 40.1153,-23.68209 60.7802,-34.417342 16.0084,-8.316243 32.8698,-15.195421 47.6687,-25.5115524 0.9986,-0.6961381 2.0098,-1.4187575 3.1748,-1.7717984 1.5013,-0.4549488 3.1654,-0.2433828 4.5759,0.4430854 1.4105,0.6864682 2.575,1.8229699 3.4281,3.1394138 1.7063,2.6328878 2.1682,5.8612056 2.4884,8.9822566 1.1697,11.4031 0.9995,22.904557 1.9315,34.329536 0.9321,11.424979 3.0398,22.970081 8.4129,33.095746 5.6558,10.658548 14.6629,19.255969 20.2582,29.946409 7.6442,14.60511 8.2728,31.69607 10.723,47.99761 3.1747,21.12123 9.6201,41.58616 15.2249,62.19614 8.8366,32.494 15.6433,65.69375 17.3116,99.32649 2.139,43.12166 -4.1288,87.0325 5.457,129.12959 2.0271,8.90219 4.7507,17.64201 6.5254,26.59794 1.7746,8.95593 2.5832,18.25339 0.7465,27.19681 -0.8565,4.1705 -2.3104,8.27569 -4.7761,11.74654 -3.3793,4.75674 -8.41,8.0211 -12.7438,11.92799 -8.3946,7.56757 -14.2307,17.67639 -17.9146,28.36125 -3.6838,10.68487 -5.3141,21.9725 -6.2211,33.23813 -1.6546,20.55132 -0.9627,41.20788 -0.7086,61.82413 0.8714,70.70195 -3.4296,141.46712 -12.8572,211.54311"
       id="path897"
       inkscape:path-effect="#path-effect899"
       inkscape:original-d="m 635.86004,863.28687 c -3.142,-69.76243 -6.285,-139.52586 -9.429,-209.29029 -3.14399,-69.76443 1.34581,-90.69331 2.01721,-136.04147 0.6714,-45.34816 15.48649,-54.38338 23.22823,-81.57657 7.74174,-27.19319 20.70923,-50.68732 31.06234,-76.03249 10.35311,-25.34516 23.33256,-69.9495 34.99734,-104.92574 11.66478,-34.97625 9.29961,-32.08458 13.94791,-48.12836 4.64831,-16.04379 -3.34862,-25.84776 -5.02443,-38.77314 -1.67581,-12.92538 17.29986,-22.51408 25.94829,-33.77262 8.64843,-11.25854 23.77741,-7.93865 35.66462,-11.90948 11.8872,-3.97082 19.80722,0.53289 29.70934,0.79783 9.90211,0.26494 12.12962,9.99968 18.19293,14.99802 6.06332,4.99834 13.40348,19.9639 20.10372,29.94435 6.70024,9.98045 25.38113,30.3745 38.07019,45.56025 12.68907,15.18575 3.76887,3.09751 5.6518,4.64477 1.88293,1.54725 5.51136,0.25614 8.26553,0.38271 2.75418,0.12658 2.41639,-4.33749 3.62308,-6.50774 1.20669,-2.17025 -17.37975,-18.87742 -26.07112,-28.31763 -8.69138,-9.44021 -13.41355,-20.31125 -20.12183,-30.46837 -6.70827,-10.15712 -9.128,-15.44805 -13.69349,-23.17358 -4.5655,-7.72553 -7.58856,-15.72364 -11.38434,-23.58696 -3.79577,-7.863317 -6.71664,-7.297424 -10.07646,-10.947637 -3.35982,-3.650213 -11.65711,-3.264077 -17.48716,-4.897615 -5.83005,-1.633538 1.20516,-13.293248 1.80624,-19.941372 0.60108,-6.648124 17.18147,-3.113989 25.77071,-4.672484 8.58924,-1.558494 9.56032,7.152677 14.33898,10.727515 4.77866,3.574838 8.21004,12.723238 12.31356,19.083357 4.10353,6.360116 0.95824,9.244976 1.43586,13.865956 0.47763,4.62099 -1.02399,5.28537 -1.53748,7.92656 -0.5135,2.64118 0.3178,4.76232 0.47521,7.14198 0.1574,2.37966 4.4627,0.90655 6.69256,1.35833 2.22985,0.45177 21.27154,-13.30685 31.90581,-19.96177 10.63427,-6.65493 30.52813,-13.60884 45.79069,-20.414758 15.26257,-6.805917 36.88147,-14.905157 55.32072,-22.359236 18.4392,-7.454079 40.5211,-22.943894 60.7802,-34.417342 20.259,-11.473447 31.7801,-17.006701 47.6687,-25.5115524 15.8886,-8.5048509 2.1176,-1.180199 3.1748,-1.7717984 1.0573,-0.5915995 6.996,8.3775038 10.4924,12.5647558 3.4965,4.187252 6.8973,44.951188 10.3444,67.425282 3.4471,22.474099 13.5065,19.965269 20.2582,29.946409 6.7517,9.98114 7.1496,31.99941 10.723,47.99761 3.5733,15.9982 10.1509,41.46509 15.2249,62.19614 5.074,20.73105 11.5421,66.21866 17.3116,99.32649 5.7696,33.10783 3.639,86.08739 5.457,129.12959 1.818,43.0422 4.8489,35.86417 7.2719,53.79475 2.423,17.93058 -3.183,7.83202 -4.7761,11.74654 -1.593,3.91451 -8.4948,7.95299 -12.7438,11.92799 -4.2489,3.975 -16.0895,41.06725 -24.1357,61.59938 -8.0463,20.53213 -0.4714,41.21709 -0.7086,61.82413 -0.2373,20.60705 -8.5705,141.02974 -12.8572,211.54311" />
  </g>
</svg>
