<?xml version="1.0" encoding="UTF-8" standalone="no"?>
<!-- Created with Inkscape (http://www.inkscape.org/) -->

<svg
   version="1.1"
   id="svg2"
   width="1893"
   height="1024"
   viewBox="0 0 1893 1024"
   sodipodi:docname="frame_0007.svg"
   inkscape:version="1.1.2 (0a00cf5339, 2022-02-04)"
   xmlns:inkscape="http://www.inkscape.org/namespaces/inkscape"
   xmlns:sodipodi="http://sodipodi.sourceforge.net/DTD/sodipodi-0.dtd"
   xmlns:xlink="http://www.w3.org/1999/xlink"
   xmlns="http://www.w3.org/2000/svg"
   xmlns:svg="http://www.w3.org/2000/svg">
  <sodipodi:namedview
     id="namedview8"
     pagecolor="#ffffff"
     bordercolor="#666666"
     borderopacity="1.0"
     inkscape:pageshadow="2"
     inkscape:pageopacity="0.0"
     inkscape:pagecheckerboard="0"
     showgrid="false"
     inkscape:zoom="0.47065744"
     inkscape:cx="1055.9697"
     inkscape:cy="307.01735"
     inkscape:window-width="1850"
     inkscape:window-height="1016"
     inkscape:window-x="70"
     inkscape:window-y="27"
     inkscape:window-maximized="1"
     inkscape:current-layer="g8" />
  <defs
     id="defs6" />
  <g
     id="g8">
    
    <path
       style="fill:none;stroke:#c86487;stroke-width:1px;stroke-linecap:butt;stroke-linejoin:miter;stroke-opacity:1"
       d="M 1161.4798,863.42605 635.45301,862.61199"
       id="path860"
       sodipodi:nodetypes="cc" />
    <path
       style="fill:none;stroke:#c86487;stroke-width:1px;stroke-linecap:butt;stroke-linejoin:miter;stroke-opacity:1"
       d="m 635.45301,862.61199 c -10.57833,-72.069 -62.98884,-142.20528 -51.82564,-214.186 3.70279,-23.87569 8.58944,-47.55232 12.55166,-71.38633 4.31831,-25.97597 7.53649,-52.12636 11.93381,-78.08908 2.59372,-15.31391 5.59697,-30.55774 8.95035,-45.72343 9.76271,-44.15197 6.49447,-40.767 30.94262,-78.80638 6.22381,-9.68376 19.66478,-71.57087 25.15735,-81.68733 5.49256,-10.11646 13.95867,-20.50732 13.7778,-32.01724 -0.17012,-10.82579 1.36131,-16.96257 -1.99782,-27.25543 -3.35914,-10.29285 -6.28502,-21.15639 -4.52039,-31.83875 1.07086,-6.48257 3.85708,-12.61992 7.65443,-17.98188 3.79735,-5.36197 8.58801,-9.97185 13.81325,-13.95524 9.03538,-6.888 19.44495,-12.00409 27.6308,-19.88282 5.85185,-5.6323 10.49131,-12.60812 17.21173,-17.16914 3.36021,-2.2805 7.25209,-3.90836 11.3083,-4.10554 2.02811,-0.0986 4.08041,0.16417 5.99403,0.84314 1.91362,0.67897 3.68553,1.77904 5.0891,3.24633 1.74822,1.82759 2.8764,4.15412 3.82544,6.49841 0.94905,2.34428 1.75312,4.75968 2.98237,6.96995 2.651,4.76665 7.06683,8.23772 10.95101,12.06681 5.30871,5.23341 9.73807,11.28418 14.79241,16.76366 8.36007,9.06328 18.36897,16.49944 26.61624,25.66548 4.34882,4.8333 8.23603,10.17279 13.39783,14.12613 2.34812,1.79839 4.92115,3.27783 7.48834,4.74664 0.66247,0.37903 1.32753,0.75891 2.03431,1.047 0.70678,0.28809 1.46099,0.48335 2.2242,0.47655 1.15906,-0.0103 2.29295,-0.49881 3.1533,-1.27556 0.86034,-0.77675 1.45304,-1.828 1.75392,-2.94738 0.60174,-2.23876 0.0512,-4.64592 -0.91569,-6.75288 -1.35806,-2.9594 -3.49914,-5.49161 -5.80288,-7.79273 -2.30373,-2.30113 -4.79526,-4.41179 -7.03574,-6.77454 -5.13001,-5.40997 -8.81288,-11.9931 -13.00836,-18.15611 -4.57952,-6.72715 -9.79957,-12.99026 -14.70772,-19.48153 -6.44827,-8.52815 -12.41202,-17.51414 -20.09185,-24.95253 -9.82308,-9.51427 -22.30794,-16.35401 -30.43913,-27.34937 -1.06454,-1.43952 -2.05353,-2.95551 -2.69278,-4.62788 -0.63925,-1.672369 -0.91368,-3.520988 -0.52521,-5.268715 0.50794,-2.28519 2.11191,-4.21383 4.03559,-5.547814 1.92369,-1.333984 4.15893,-2.139755 6.39261,-2.840316 3.26543,-1.024154 6.66696,-1.862476 10.07773,-1.582214 4.75011,0.390316 9.13598,2.962222 12.43631,6.400786 5.48797,5.717835 8.181,13.598113 13.29984,19.648653 4.56647,5.39763 10.90097,9.14452 15.14338,14.8004 1.94938,2.59887 3.42627,5.5642 5.67848,7.90552 12.01605,0.24154 26.51832,-6.53773 28.17159,-7.81011 9.32879,-7.22858 20.03072,-11.69952 29.81499,-18.29851 6.52061,-4.39781 14.11601,-6.90258 21.69548,-9.002755 7.57947,-2.100173 15.29553,-3.863348 22.51356,-6.987294 15.67461,-6.783929 27.97167,-19.498201 42.70329,-28.1408 7.32079,-4.294887 15.19195,-7.553502 22.82911,-11.256725 7.63714,-3.703223 15.14814,-7.927477 21.25644,-13.82057 4.9701,-4.794978 8.8957,-10.58443 13.855,-15.390536 2.4797,-2.403053 5.2304,-4.562758 8.3258,-6.093093 3.0954,-1.530334 6.5552,-2.413364 10.0022,-2.209081 5.3492,0.317018 10.2956,3.238207 13.9965,7.113492 3.7009,3.875286 6.3002,8.658395 8.6116,13.492837 5.5675,11.644513 9.709,23.90603 14.2347,35.99362 7.0163,18.739675 14.9796,37.118265 21.7717,55.940355 9.3685,25.9619 16.475,52.672 24.3234,79.13316 5.2763,17.78944 10.892,35.47896 15.9344,53.33612 2.8064,9.93867 5.4361,19.93336 7.5267,30.04685 3.2919,15.92509 5.2367,32.09187 7.5281,48.19139 3.225,22.65928 7.1486,45.28574 8.0239,68.15663 1.0636,27.79368 -2.2398,56.62831 7.6533,82.62342 1.3789,3.62326 3.0201,7.21188 3.4874,11.06039 0.2337,1.92426 0.163,3.90229 -0.3815,5.76266 -0.5444,1.86036 -1.5804,3.59965 -3.0739,4.83526 -1.514,1.25252 -3.4224,1.93937 -5.345,2.34504 -1.2281,0.25914 -2.4771,0.41314 -3.7015,0.68897 -1.2245,0.27584 -2.4395,0.68206 -3.4726,1.3949 -1.5148,1.04522 -2.5195,2.65626 -3.6161,4.13434 -1.2488,1.68332 -2.6827,3.27324 -3.4919,5.20673 -0.618,1.47663 -0.8418,3.09596 -0.8304,4.69664 0.011,1.60069 0.2515,3.19071 0.5314,4.76678 0.2482,1.39802 0.5282,2.79019 0.7911,4.18552 7.4603,39.59271 3.8957,130.85491 4.458,171.14042 1.0702,76.67815 19.3695,86.05076 -4.8353,153.80671"
       id="path954"
       sodipodi:nodetypes="cssssssssssssssssssssssssssssssssssssssssssccssssssssssssssssssssssssssscscsc" />
  </g>
</svg>
