<?xml version="1.0" encoding="UTF-8" standalone="no"?>
<!-- Created with Inkscape (http://www.inkscape.org/) -->

<svg
   version="1.1"
   id="svg2"
   width="1893"
   height="1024"
   viewBox="0 0 1893 1024"
   sodipodi:docname="frame_0147.svg"
   inkscape:version="1.1.2 (0a00cf5339, 2022-02-04)"
   xmlns:inkscape="http://www.inkscape.org/namespaces/inkscape"
   xmlns:sodipodi="http://sodipodi.sourceforge.net/DTD/sodipodi-0.dtd"
   xmlns:xlink="http://www.w3.org/1999/xlink"
   xmlns="http://www.w3.org/2000/svg"
   xmlns:svg="http://www.w3.org/2000/svg">
  <defs
     id="defs6">
    <inkscape:path-effect
       effect="spiro"
       id="path-effect899"
       is_visible="true"
       lpeversion="1" />
    <inkscape:path-effect
       effect="spiro"
       id="path-effect862"
       is_visible="true"
       lpeversion="1" />
  </defs>
  <sodipodi:namedview
     id="namedview4"
     pagecolor="#ffffff"
     bordercolor="#666666"
     borderopacity="1.0"
     inkscape:pageshadow="2"
     inkscape:pageopacity="0.0"
     inkscape:pagecheckerboard="0"
     showgrid="false"
     inkscape:zoom="0.6703645"
     inkscape:cx="1091.9433"
     inkscape:cy="349.80969"
     inkscape:window-width="1850"
     inkscape:window-height="1016"
     inkscape:window-x="70"
     inkscape:window-y="27"
     inkscape:window-maximized="1"
     inkscape:current-layer="g8" />
  <g
     inkscape:groupmode="layer"
     inkscape:label="Image"
     id="g8">
    
    <path
       style="font-variation-settings:normal;opacity:1;vector-effect:none;fill:none;fill-opacity:1;stroke:#c86487;stroke-width:1px;stroke-linecap:butt;stroke-linejoin:miter;stroke-miterlimit:4;stroke-dasharray:none;stroke-dashoffset:0;stroke-opacity:1;-inkscape-stroke:none;stop-color:#000000;stop-opacity:1"
       d="M 1160.9235,862.50094 H 635.62226"
       id="path860"
       inkscape:path-effect="#path-effect862"
       inkscape:original-d="M 1160.9235,862.50094 H 635.62226" />
    <path
       style="font-variation-settings:normal;opacity:1;vector-effect:none;fill:none;fill-opacity:1;stroke:#c86487;stroke-width:1px;stroke-linecap:butt;stroke-linejoin:miter;stroke-miterlimit:4;stroke-dasharray:none;stroke-dashoffset:0;stroke-opacity:1;-inkscape-stroke:none;stop-color:#000000;stop-opacity:1"
       d="m 635.62226,862.50094 c -3.47792,-60.82768 -9.32995,-121.51957 -17.53829,-181.89113 -4.71323,-34.66535 -10.20596,-69.87022 -4.8624,-104.44402 4.63199,-29.96984 17.19819,-58.03228 26.41177,-86.92443 4.22967,-13.26348 7.76307,-26.74404 12.14674,-39.95742 5.55572,-16.74623 12.46485,-33.02287 20.14272,-48.90848 7.6607,-15.85008 16.09113,-31.32536 23.46275,-47.31194 5.96936,-12.94556 11.23373,-26.20338 16.3807,-39.49735 10.54374,-27.23316 20.63381,-54.73235 27.40288,-83.14001 3.34606,-14.04236 5.88155,-28.37983 5.73735,-42.81462 -0.0637,-6.37691 -0.65025,-12.74846 -0.45601,-19.12273 0.19424,-6.37428 1.21336,-12.85072 4.15733,-18.50776 4.10155,-7.88141 11.47825,-13.41782 18.22362,-19.20049 7.52587,-6.45177 14.53012,-13.52255 22.4087,-19.53853 8.17687,-6.24375 17.73437,-11.442507 28.02063,-11.638293 6.09185,-0.115951 12.19431,1.576693 17.40556,4.733743 4.62637,2.80271 8.51906,6.70453 11.76731,11.02973 6.10625,8.13078 10.02013,17.75793 16.30453,25.75181 5.86319,7.45809 13.71402,13.39891 18.31756,21.69394 1.80852,3.25875 3.05989,6.79013 4.51606,10.22083 1.45618,3.43071 3.15916,6.82543 5.70447,9.54785 2.01667,2.157 4.4928,3.8187 6.8875,5.54643 2.39469,1.72772 4.76698,3.57864 6.46249,5.99625 1.44948,2.0668 2.37734,4.51108 4.13096,6.32696 0.87682,0.90794 1.96916,1.64364 3.19988,1.92376 0.61537,0.14007 1.25961,0.16377 1.87924,0.044 0.61964,-0.11977 1.21373,-0.38502 1.7008,-0.78633 0.8297,-0.6836 1.30699,-1.72728 1.47206,-2.78957 0.16507,-1.06229 0.0432,-2.14915 -0.15847,-3.2051 -1.107,-5.79535 -4.5515,-10.87826 -8.42419,-15.32953 -3.87269,-4.45128 -8.25576,-8.46524 -11.80124,-13.18129 -7.38478,-9.82294 -10.80652,-22.24108 -18.56433,-31.77216 -1.87837,-2.30773 -3.98961,-4.41716 -5.88103,-6.7142 -1.89141,-2.29705 -3.58188,-4.82563 -4.44603,-7.67293 -0.80572,-2.65477 -0.86127,-5.47418 -0.81045,-8.24806 0.0508,-2.77388 0.20044,-5.56607 -0.2159,-8.309 -0.49744,-3.27726 -1.8344,-6.460786 -4.03781,-8.937242 -1.76137,-1.979634 -4.02672,-3.464146 -6.43369,-4.572224 -2.40698,-1.108077 -4.96271,-1.855663 -7.52681,-2.524063 -2.51223,-0.654879 -5.05602,-1.241903 -7.44884,-2.249173 -2.39281,-1.007269 -4.6578,-2.474995 -6.18175,-4.576838 -1.72263,-2.375867 -2.37404,-5.415645 -2.20813,-8.345606 0.19255,-3.400414 1.44357,-6.720203 3.46703,-9.459822 2.02345,-2.739619 4.80438,-4.898539 7.92259,-6.268452 3.36963,-1.480367 7.12285,-2.044 10.7894,-1.724205 3.66655,0.319795 7.24241,1.513101 10.42144,3.367729 4.04566,2.360218 7.39627,5.728846 10.60442,9.141446 3.20814,3.412601 6.3534,6.935178 10.1267,9.710105 2.43487,1.79063 5.1014,3.24674 7.54531,5.025009 2.44391,1.778269 4.7107,3.950691 5.93861,6.712426 1.06035,2.384867 1.27977,5.094781 0.87253,7.67278 -0.40725,2.578 -1.41821,5.03332 -2.71845,7.29635 -0.56708,0.98698 -1.19034,1.94238 -1.71241,2.95388 -0.52208,1.01151 -0.94463,2.09062 -1.07508,3.22141 -0.0977,0.84722 -0.0275,1.71763 0.24264,2.52657 0.2701,0.80894 0.74325,1.55439 1.3865,2.11436 1.04698,0.91143 2.48002,1.28156 3.86814,1.28446 1.38812,0.003 2.75298,-0.32953 4.0969,-0.67704 9.64325,-2.49358 19.29507,-6.01006 26.84387,-12.50821 5.98137,-5.14888 10.44735,-12.006595 16.97663,-16.440142 6.22469,-4.226726 13.83163,-5.899666 21.31168,-6.712538 7.48006,-0.812872 15.05427,-0.857243 22.45045,-2.238744 13.2861,-2.481658 25.3527,-9.133902 37.443,-15.175858 13.2948,-6.64393 27.0711,-12.755616 38.5345,-22.215314 7.3071,-6.02987 13.6499,-13.399398 21.9811,-17.909822 5.4352,-2.942549 11.4794,-4.531519 17.4357,-6.18129 5.9563,-1.649771 11.9727,-3.421989 17.2292,-6.673008 2.5021,-1.5474884 4.8072,-3.4162603 7.4137,-4.7805553 1.3032,-0.6821475 2.6825,-1.2359001 4.1241,-1.5286241 1.4415,-0.292724 2.9493,-0.3186596 4.3762,0.038925 1.4682,0.3679416 2.8215,1.13562 3.9624,2.1302959 1.1409,0.9946759 2.0749,2.2121189 2.8343,3.5213858 1.5189,2.6185339 2.3387,5.5717159 3.2319,8.4641039 3.5599,11.527249 8.4968,22.574842 12.6846,33.8891 5.1493,13.911893 9.1614,28.213687 13.7555,42.318658 5.2683,16.174807 11.3079,32.108907 15.8467,48.503397 5.8386,21.08979 9.1503,42.78081 13.4981,64.22762 4.7577,23.46881 10.7649,46.68299 14.945,70.26153 3.5371,19.95151 5.7572,40.11781 7.3522,60.31756 2.4928,31.57006 3.4631,63.23765 5.0516,94.86611 1.0094,20.09729 2.2687,40.18454 2.8748,60.29803 0.3026,10.04235 0.3582,20.50296 -3.9385,29.58473 -1.4122,2.98497 -3.325,5.80929 -5.9844,7.76689 -2.5722,1.89342 -5.6864,2.87304 -8.7435,3.79791 -3.0571,0.92487 -6.1788,1.85372 -8.807,3.66857 -2.4425,1.68664 -4.3433,4.07174 -5.7836,6.66717 -1.4403,2.59543 -2.4443,5.40808 -3.3489,8.23517 -5.9852,18.70525 -7.8509,38.51128 -7.8932,58.15071 -0.032,14.80672 0.9501,29.5953 1.3597,44.39639 1.9495,70.44466 -9.2112,141.2307 -32.7411,207.65807"
       id="path897"
       inkscape:path-effect="#path-effect899"
       inkscape:original-d="m 635.62226,862.50094 c -5.8451,-60.62938 -11.69119,-121.25976 -17.53829,-181.89113 -5.8471,-60.63138 -3.2406,-69.62835 -4.8624,-104.44402 -1.6218,-34.81568 13.06944,-56.26111 26.41177,-86.92443 13.34234,-30.66332 12.63824,-28.32479 12.14674,-39.95742 -0.49149,-11.63262 13.42948,-32.60465 20.14272,-48.90848 6.71324,-16.30382 15.64283,-31.54029 23.46275,-47.31194 7.81991,-15.77165 10.92147,-26.33056 16.3807,-39.49735 5.45924,-13.16678 16.70874,-55.31882 27.40288,-83.14001 10.69414,-27.82119 5.38675,-28.64893 5.73735,-42.81462 0.3506,-14.16569 3.35072,-24.28496 3.70132,-37.63049 0.3506,-13.34554 11.26791,-13.60036 18.22362,-19.20049 6.95571,-5.60012 14.94013,-13.02468 22.4087,-19.53853 7.46856,-6.51384 18.68142,-7.75786 28.02063,-11.638293 9.33921,-3.880432 11.60471,3.156833 17.40556,4.733743 5.80085,1.57691 7.84588,7.35415 11.76731,11.02973 3.92144,3.67558 10.87069,17.16887 16.30453,25.75181 5.43385,8.58293 12.21271,14.46363 18.31756,21.69394 6.10486,7.23032 6.81469,13.18012 10.22053,19.76868 3.40584,6.58856 8.901,7.69612 13.34999,11.54268 4.449,3.84655 7.27492,5.00659 10.91088,7.50838 3.63596,2.5018 0.87673,-3.99545 1.31359,-5.99467 0.43686,-1.99923 -13.48262,-19.00621 -20.22543,-28.51082 -6.74281,-9.50461 -12.37522,-21.18044 -18.56433,-31.77216 -6.18911,-10.59172 -6.8837,-9.59042 -10.32706,-14.38713 -3.44335,-4.79671 -0.68323,-11.03704 -1.02635,-16.55706 -0.34312,-5.520023 -2.69088,-5.957162 -4.03781,-8.937242 -1.34694,-2.980079 -9.306,-4.729858 -13.9605,-7.096287 -4.6545,-2.366429 -9.08606,-4.549674 -13.63059,-6.826011 -4.54452,-2.276336 -1.47109,-5.562737 -2.20813,-8.345606 -0.73705,-2.782869 7.59408,-10.484516 11.38962,-15.728274 3.79555,-5.243759 14.14156,1.096683 21.21084,1.643524 7.06928,0.546841 13.82174,12.568701 20.73112,18.851551 6.90937,6.282851 8.99028,7.825957 13.48392,11.737435 4.49364,3.911478 -1.22961,9.980421 -1.84592,14.96913 -0.6163,4.98871 -1.85733,4.11786 -2.78749,6.17529 -0.93017,2.05743 1.0871,3.09495 1.62914,4.64093 0.54205,1.54597 5.31103,0.40594 7.96504,0.60742 2.65401,0.20147 17.89691,-8.33781 26.84387,-12.50821 8.94695,-4.170399 11.31876,-10.959094 16.97663,-16.440142 5.65788,-5.481049 29.17575,-5.966521 43.76213,-8.951282 14.5864,-2.984761 24.963,-10.116239 37.443,-15.175858 12.48,-5.059619 25.6907,-14.809209 38.5345,-22.215314 12.8438,-7.406104 14.6551,-11.938881 21.9811,-17.909822 7.3261,-5.970941 23.111,-8.568532 34.6649,-12.854298 11.554,-4.2857667 10.6103,-4.1791699 15.914,-6.2702546 5.3036,-2.0910847 6.6867,9.4115236 10.0286,14.1157856 3.3419,4.704262 8.4574,22.593733 12.6846,33.8891 4.2271,11.295366 9.1713,28.213439 13.7555,42.318658 4.5842,14.105217 10.5655,32.336597 15.8467,48.503397 5.2813,16.1668 8.9998,42.81941 13.4981,64.22762 4.4984,21.40821 9.9644,46.84202 14.945,70.26153 4.9807,23.41951 4.9024,40.21271 7.3522,60.31756 2.4497,20.10485 3.3687,63.24507 5.0516,94.86611 1.6829,31.62104 1.9175,40.19968 2.8748,60.29803 0.9573,20.09834 -2.6246,19.72415 -3.9385,29.58473 -1.3138,9.86058 -3.9886,5.17893 -5.9844,7.76689 -1.9959,2.58797 -11.6993,4.97865 -17.5505,7.46648 -5.8512,2.48782 -6.0874,9.93589 -9.1325,14.90234 -3.0452,4.96644 -5.2611,38.76814 -7.8932,58.15071 -2.6321,19.38257 0.9074,29.5986 1.3597,44.39639 0.4522,14.7978 -21.8264,138.43971 -32.7411,207.65807"
       sodipodi:nodetypes="cssssssssssssssssssssssssssssssssssssssssssssssssssssssssssssc" />
  </g>
</svg>
