<?xml version="1.0" encoding="UTF-8" standalone="no"?>
<!-- Created with Inkscape (http://www.inkscape.org/) -->

<svg
   version="1.1"
   id="svg2"
   width="1893"
   height="1024"
   viewBox="0 0 1893 1024"
   sodipodi:docname="frame_0075.svg"
   inkscape:version="1.1.2 (0a00cf5339, 2022-02-04)"
   xmlns:inkscape="http://www.inkscape.org/namespaces/inkscape"
   xmlns:sodipodi="http://sodipodi.sourceforge.net/DTD/sodipodi-0.dtd"
   xmlns:xlink="http://www.w3.org/1999/xlink"
   xmlns="http://www.w3.org/2000/svg"
   xmlns:svg="http://www.w3.org/2000/svg">
  <defs
     id="defs6">
    <inkscape:path-effect
       effect="spiro"
       id="path-effect899"
       is_visible="true"
       lpeversion="1" />
    <inkscape:path-effect
       effect="spiro"
       id="path-effect862"
       is_visible="true"
       lpeversion="1" />
  </defs>
  <sodipodi:namedview
     id="namedview4"
     pagecolor="#ffffff"
     bordercolor="#666666"
     borderopacity="1.0"
     inkscape:pageshadow="2"
     inkscape:pageopacity="0.0"
     inkscape:pagecheckerboard="0"
     showgrid="false"
     inkscape:zoom="0.47401928"
     inkscape:cx="1470.4043"
     inkscape:cy="391.33429"
     inkscape:window-width="1850"
     inkscape:window-height="1016"
     inkscape:window-x="70"
     inkscape:window-y="27"
     inkscape:window-maximized="1"
     inkscape:current-layer="g8" />
  <g
     inkscape:groupmode="layer"
     inkscape:label="Image"
     id="g8">
    
    <path
       style="font-variation-settings:normal;opacity:1;vector-effect:none;fill:none;fill-opacity:1;stroke:#c86487;stroke-width:1px;stroke-linecap:butt;stroke-linejoin:miter;stroke-miterlimit:4;stroke-dasharray:none;stroke-dashoffset:0;stroke-opacity:1;-inkscape-stroke:none;stop-color:#000000;stop-opacity:1"
       d="m 1161.3862,862.91161 -525.56939,0.0366"
       id="path860"
       inkscape:path-effect="#path-effect862"
       inkscape:original-d="m 1161.3862,862.91161 -525.56939,0.0366" />
    <path
       style="font-variation-settings:normal;opacity:1;vector-effect:none;fill:none;fill-opacity:1;stroke:#c86487;stroke-width:1px;stroke-linecap:butt;stroke-linejoin:miter;stroke-miterlimit:4;stroke-dasharray:none;stroke-dashoffset:0;stroke-opacity:1;-inkscape-stroke:none;stop-color:#000000;stop-opacity:1"
       d="m 635.81681,862.94821 c -9.33613,-77.53531 -14.98235,-155.51482 -16.91315,-233.58633 -1.01713,-41.12728 -0.97883,-82.56931 6.57212,-123.01026 6.87703,-36.8316 19.9196,-72.33537 36.41728,-105.97592 7.83079,-15.96782 16.45991,-31.58087 23.03247,-48.10642 9.26376,-23.29211 14.30199,-48.04082 22.54677,-71.71281 4.75183,-13.64322 10.58755,-26.99474 13.45336,-41.1547 2.62793,-12.98459 2.6922,-26.32705 3.53495,-39.54806 0.64046,-10.04748 1.7566,-20.1636 4.9949,-29.69646 3.2383,-9.53286 8.76026,-18.52497 16.87852,-24.47946 6.15128,-4.51177 13.48121,-7.09101 20.76197,-9.36805 7.28075,-2.27703 14.70402,-4.34332 21.39222,-8.01241 4.5433,-2.49241 8.71002,-5.70595 13.51139,-7.65544 2.40068,-0.97475 4.95996,-1.62248 7.55096,-1.63492 2.591,-0.0124 5.21896,0.6368 7.37003,2.08121 2.51057,1.68581 4.22409,4.32969 5.50349,7.06977 1.27941,2.74009 2.19376,5.64111 3.51369,8.3619 3.01953,6.22421 8.0235,11.24292 13.16904,15.86697 5.14554,4.62404 10.57059,9.02883 14.79392,14.50805 6.45366,8.37277 9.69913,18.70567 14.43488,28.15689 2.36788,4.72561 5.15277,9.29293 8.79055,13.12762 3.63778,3.83468 8.18274,6.92043 13.29511,8.26278 0.68399,0.17959 1.38038,0.32836 2.08697,0.3572 0.70659,0.0288 1.42723,-0.0664 2.07184,-0.3572 0.58816,-0.26536 1.09941,-0.68863 1.49957,-1.19482 0.40016,-0.50619 0.69139,-1.09377 0.88798,-1.70835 0.39319,-1.22915 0.40916,-2.54595 0.34071,-3.83464 -0.41142,-7.74577 -3.74853,-15.11345 -8.28657,-21.40412 -4.53803,-6.29067 -10.25164,-11.62692 -15.99795,-16.83712 -7.34809,-6.66254 -14.84443,-13.22222 -21.2538,-20.79215 -6.40936,-7.56994 -11.74582,-16.27106 -14.06076,-25.916 -0.83242,-3.4682 -1.26694,-7.07977 -0.74586,-10.6082 0.24772,-1.67739 0.70823,-3.31738 0.96643,-4.99319 0.25821,-1.6758 0.3057,-3.4288 -0.25674,-5.02838 -0.69486,-1.97616 -2.28544,-3.5569 -4.13866,-4.533435 -1.85321,-0.976534 -3.95592,-1.3947 -6.04565,-1.539796 -4.17946,-0.290192 -8.45329,0.458116 -12.52841,-0.514226 -2.47945,-0.591607 -4.80333,-1.820375 -6.69227,-3.531971 -1.88894,-1.711597 -3.33948,-3.902067 -4.1837,-6.307259 -1.68844,-4.810385 -0.80171,-10.433314 2.25021,-14.51699 2.60312,-3.483147 6.6159,-5.778685 10.86142,-6.718956 4.24552,-0.940272 8.70851,-0.593055 12.90938,0.529988 7.07933,1.892559 13.4202,5.909507 19.12776,10.505427 4.78933,3.856532 9.25755,8.204749 12.59782,13.36742 2.40469,3.716663 4.21322,7.876074 4.82054,12.260968 0.656,4.73639 -0.11289,9.60424 -1.76846,14.09008 -0.59657,1.61644 -1.31031,3.20267 -1.64949,4.89197 -0.16958,0.84465 -0.24338,1.71302 -0.156,2.57008 0.0874,0.85707 0.33957,1.7036 0.78939,2.43835 0.55541,0.90722 1.4014,1.6213 2.35905,2.08438 0.95765,0.46308 2.02342,0.68185 3.08681,0.70926 2.12677,0.0548 4.19971,-0.63588 6.17199,-1.43355 14.85421,-6.00764 26.29274,-18.19385 40.199,-26.15346 14.03442,-8.032961 30.12455,-11.52237 45.38333,-16.876145 31.69888,-11.122032 59.80474,-30.298988 88.80944,-47.247254 19.9605,-11.663481 40.4825,-22.336036 60.6101,-33.7086872 0.9139,-0.5163616 1.8299,-1.0356099 2.8005,-1.4350938 0.9707,-0.3994839 2.0033,-0.6781618 3.0529,-0.6912573 1.4506,-0.018099 2.8839,0.4793456 4.0876,1.2890876 1.2037,0.8097419 2.1863,1.9207193 2.9576,3.1494241 1.5426,2.4574097 2.2427,5.3319846 3.0561,8.1170816 3.5694,12.221254 9.6756,23.517365 14.7981,35.173258 17.2705,39.29808 23.2704,82.422476 32.1558,124.418396 8.1652,38.59187 18.8952,76.66604 25.1171,115.61846 9.971,62.42373 8.2273,126.21577 17.1357,188.79997 1.1262,7.91222 2.4259,15.85876 2.1389,23.84558 -0.1843,5.12943 -1.104,10.4309 -4.0576,14.62868 -2.7558,3.91663 -6.9856,6.47953 -10.6611,9.54953 -7.7829,6.50074 -13.1884,15.42972 -17.2804,24.70811 -13.7554,31.18975 -13.7479,66.44144 -14.1286,100.5276 -0.7855,70.33603 -4.2131,140.64251 -10.2731,210.7214"
       id="path897"
       inkscape:path-effect="#path-effect899"
       inkscape:original-d="m 635.81681,862.94821 c -5.63672,-77.86111 -11.27444,-155.72322 -16.91315,-233.58633 -5.63872,-77.86311 4.38241,-82.00584 6.57212,-123.01026 2.1897,-41.00442 24.27919,-70.64961 36.41728,-105.97592 12.1381,-35.3263 15.35598,-32.06995 23.03247,-48.10642 7.67648,-16.03648 15.03218,-47.80754 22.54677,-71.71281 7.51459,-23.90527 8.9699,-27.43547 13.45336,-41.1547 4.48345,-13.71924 2.35763,-26.36438 3.53495,-39.54806 1.17731,-13.18369 14.58328,-36.11628 21.87342,-54.17592 7.29015,-18.05964 28.10379,-11.58597 42.15419,-17.38046 14.05039,-5.79449 18.95592,-4.8051 28.43238,-7.20915 9.47646,-2.40405 6.01245,10.28878 9.01718,15.43167 3.00473,5.14289 18.64297,20.25101 27.96296,30.37502 9.31999,10.124 24.34803,33.03252 36.52054,49.54729 12.17251,16.51476 2.77354,0.001 4.15881,0 1.38527,-0.001 1.81984,-4.49087 2.72826,-6.73781 0.90843,-2.24693 -16.18868,-25.49316 -24.28452,-38.24124 -8.09584,-12.74809 -23.54204,-31.13777 -35.31456,-46.70815 -11.77252,-15.57039 -0.49624,-7.07113 -0.74586,-10.6082 -0.24962,-3.53707 0.47413,-6.68005 0.70969,-10.02157 0.23557,-3.34152 -15.14081,-4.390638 -22.71272,-6.587457 -7.5719,-2.196818 -5.74951,-16.23648 -8.62576,-24.35622 -2.87626,-8.11974 15.8482,-4.124979 23.7708,-6.188968 7.9226,-2.06399 12.75284,7.004618 19.12776,10.505427 6.37492,3.500809 8.39955,8.912613 12.59782,13.36742 4.19827,4.454807 3.21469,8.174976 4.82054,12.260968 1.60585,4.08598 -1.17798,9.39439 -1.76846,14.09008 -0.59049,4.6957 -0.6764,6.60127 -1.0161,9.9004 -0.33969,3.29913 7.74624,0.90773 11.61785,1.36009 3.87162,0.45237 26.80034,-17.43464 40.199,-26.15346 13.39867,-8.718815 30.25655,-11.249762 45.38333,-16.876145 15.12677,-5.626383 59.20734,-31.49717 88.80944,-47.247254 29.6022,-15.750085 40.4078,-22.471458 60.6101,-33.7086872 20.2024,-11.2372289 3.9033,-1.4165674 5.8534,-2.1263511 1.9501,-0.7097837 6.7352,8.3713963 10.1013,12.5555933 3.3661,4.184198 9.8664,23.449839 14.7981,35.173258 4.9316,11.723419 21.4382,82.946596 32.1558,124.418396 10.7176,41.4718 16.7458,77.07997 25.1171,115.61846 8.3714,38.53848 12.0941,138.39439 17.1357,188.79997 5.0416,50.40557 0.7805,-0.25258 2.1389,23.84558 1.3584,24.09817 -3.7335,14.07708 -4.0576,14.62868 -0.3241,0.55161 -6.0999,5.66762 -10.6611,9.54953 -4.5613,3.8819 -11.5193,16.47307 -17.2804,24.70811 -5.7612,8.23504 -9.4181,67.0194 -14.1286,100.5276 -4.7106,33.50819 -6.8477,140.48193 -10.2731,210.7214"
       sodipodi:nodetypes="csssssssssssssssssssssssssssssssssssssssssssc" />
  </g>
</svg>
