<?xml version="1.0" encoding="UTF-8" standalone="no"?>
<!-- Created with Inkscape (http://www.inkscape.org/) -->

<svg
   version="1.1"
   id="svg2"
   width="1893"
   height="1024"
   viewBox="0 0 1893 1024"
   sodipodi:docname="frame_0139.svg"
   inkscape:version="1.1.2 (0a00cf5339, 2022-02-04)"
   xmlns:inkscape="http://www.inkscape.org/namespaces/inkscape"
   xmlns:sodipodi="http://sodipodi.sourceforge.net/DTD/sodipodi-0.dtd"
   xmlns:xlink="http://www.w3.org/1999/xlink"
   xmlns="http://www.w3.org/2000/svg"
   xmlns:svg="http://www.w3.org/2000/svg">
  <defs
     id="defs6">
    <inkscape:path-effect
       effect="spiro"
       id="path-effect899"
       is_visible="true"
       lpeversion="1" />
    <inkscape:path-effect
       effect="spiro"
       id="path-effect862"
       is_visible="true"
       lpeversion="1" />
  </defs>
  <sodipodi:namedview
     id="namedview4"
     pagecolor="#ffffff"
     bordercolor="#666666"
     borderopacity="1.0"
     inkscape:pageshadow="2"
     inkscape:pageopacity="0.0"
     inkscape:pagecheckerboard="0"
     showgrid="false"
     inkscape:zoom="0.94803857"
     inkscape:cx="1101.221"
     inkscape:cy="492.06859"
     inkscape:window-width="1850"
     inkscape:window-height="1016"
     inkscape:window-x="70"
     inkscape:window-y="27"
     inkscape:window-maximized="1"
     inkscape:current-layer="g8" />
  <g
     inkscape:groupmode="layer"
     inkscape:label="Image"
     id="g8">
    
    <path
       style="font-variation-settings:normal;opacity:1;vector-effect:none;fill:none;fill-opacity:1;stroke:#c86487;stroke-width:1px;stroke-linecap:butt;stroke-linejoin:miter;stroke-miterlimit:4;stroke-dasharray:none;stroke-dashoffset:0;stroke-opacity:1;-inkscape-stroke:none;stop-color:#000000;stop-opacity:1"
       d="M 1160.5456,863.18679 H 635.32723"
       id="path860"
       inkscape:path-effect="#path-effect862"
       inkscape:original-d="M 1160.5456,863.18679 H 635.32723" />
    <path
       style="font-variation-settings:normal;opacity:1;vector-effect:none;fill:none;fill-opacity:1;stroke:#c86487;stroke-width:1px;stroke-linecap:butt;stroke-linejoin:miter;stroke-miterlimit:4;stroke-dasharray:none;stroke-dashoffset:0;stroke-opacity:1;-inkscape-stroke:none;stop-color:#000000;stop-opacity:1"
       d="m 635.32723,863.18679 c -17.84142,-39.68828 -26.41062,-83.50993 -24.83362,-126.99543 1.35782,-37.44151 10.08531,-74.25901 12.66669,-111.6361 2.42406,-35.09922 -0.56782,-70.67681 5.78069,-105.28213 3.18348,-17.35297 8.67165,-34.18355 13.86089,-51.04569 5.46205,-17.74863 10.61588,-35.61579 17.26823,-52.95344 8.92749,-23.26721 20.50517,-45.44555 33.25843,-66.85623 4.03753,-6.77837 8.21873,-13.53266 11.04124,-20.90025 4.66306,-12.172 5.41538,-25.45709 8.6469,-38.0848 5.0019,-19.54577 15.86875,-37.2448 20.46548,-56.8898 1.33481,-5.70458 2.12754,-11.5237 3.40698,-17.24095 1.27945,-5.71725 3.07961,-11.40027 6.2381,-16.33463 1.56576,-2.44612 3.45524,-4.69277 4.77724,-7.27877 0.66101,-1.293 1.1765,-2.67101 1.4007,-4.10576 0.2242,-1.43475 0.14898,-2.93036 -0.33805,-4.29842 -0.7571,-2.12669 -2.43282,-3.78907 -4.17469,-5.22501 -1.74188,-1.43593 -3.62317,-2.74604 -5.0343,-4.50807 -1.55972,-1.94758 -2.46744,-4.38219 -2.71476,-6.86505 -0.24733,-2.48287 0.14975,-5.01006 1.00305,-7.35477 1.70661,-4.68942 5.15215,-8.55226 8.94265,-11.79807 6.33116,-5.42137 13.75171,-9.41169 21.28438,-12.98012 11.46264,-5.43016 23.38298,-10.01149 34.16117,-16.698 4.66018,-2.89105 9.14639,-6.19446 14.30881,-8.04512 2.58121,-0.92533 5.32199,-1.47178 8.06161,-1.35622 2.73961,0.11555 5.48034,0.91662 7.71878,2.50036 2.03217,1.43779 3.58504,3.46076 4.85255,5.60328 1.26751,2.14251 2.27734,4.42571 3.43395,6.63007 6.11683,11.65793 16.08683,20.71604 24.84051,30.54945 16.26358,18.26962 28.70037,39.74369 45.53881,57.48488 0.86275,0.909 1.74956,1.81811 2.82258,2.4656 0.63537,0.3834 1.33382,0.67078 2.06533,0.7956 0.73151,0.12482 1.49706,0.0831 2.19533,-0.16809 0.69827,-0.25121 1.32531,-0.71781 1.72619,-1.34229 0.40089,-0.62448 0.56385,-1.4076 0.39867,-2.13106 -0.12581,-0.551 -0.43097,-1.04767 -0.79946,-1.47621 -0.36849,-0.42855 -0.80102,-0.79641 -1.22532,-1.16978 -7.81018,-6.87261 -13.22176,-15.99264 -18.63506,-24.87677 -12.11133,-19.87674 -24.86977,-39.35075 -37.24125,-59.06662 -0.50242,-0.80068 -1.0123,-1.62082 -1.22624,-2.54154 -0.22304,-0.95985 -0.10675,-1.97643 0.20064,-2.91268 0.3074,-0.93625 0.79889,-1.80134 1.3327,-2.62967 1.0676,-1.65664 2.34617,-3.2593 2.76067,-5.18607 0.39811,-1.85059 -0.0653,-3.80526 -0.93063,-5.48881 -0.86536,-1.68355 -2.11075,-3.13763 -3.36861,-4.55218 -1.4523,-1.633212 -2.94391,-3.243533 -4.63945,-4.622563 -1.69553,-1.379029 -3.6097,-2.527066 -5.71038,-3.130125 -3.19043,-0.915899 -6.58491,-0.530813 -9.90052,-0.374567 -1.6578,0.07812 -3.32644,0.09647 -4.96942,-0.138127 -1.64299,-0.234594 -3.26718,-0.730903 -4.66839,-1.620303 -1.61813,-1.027089 -2.89502,-2.562187 -3.685,-4.308382 -0.78998,-1.746195 -1.10006,-3.695947 -0.97285,-5.608296 0.25441,-3.824699 2.23562,-7.394249 4.93581,-10.114918 2.67806,-2.698376 6.07162,-4.657346 9.71168,-5.75424 3.64007,-1.096894 7.51958,-1.341459 11.28843,-0.842457 8.42643,1.115673 15.97236,5.828767 22.44213,11.341626 4.23315,3.60705 8.20064,7.694403 10.65839,12.683379 2.21677,4.499809 3.10747,9.771038 1.79593,14.612753 -0.88952,3.28378 -2.74122,6.24337 -4.9573,8.82474 -0.68984,0.80355 -1.42417,1.58579 -1.92333,2.51982 -0.24958,0.46702 -0.4378,0.97047 -0.51608,1.49418 -0.0783,0.5237 -0.0439,1.06865 0.13745,1.56617 0.26876,0.73752 0.85387,1.33872 1.55084,1.69982 0.69698,0.3611 1.49846,0.4933 2.28261,0.45753 1.5683,-0.0715 3.02584,-0.78087 4.45048,-1.44049 6.52174,-3.01961 13.39853,-5.27203 19.73259,-8.66774 10.09324,-5.41103 18.45449,-13.526557 28.01617,-19.82949 3.71133,-2.446458 7.63013,-4.630585 11.84412,-6.045281 4.21399,-1.414696 8.74827,-2.039059 13.13815,-1.340453 2.48588,0.395603 4.88558,1.20486 7.34224,1.753413 2.45667,0.548552 5.04556,0.830764 7.47392,0.168047 2.69788,-0.736271 4.96084,-2.572913 6.90431,-4.583768 1.94348,-2.010855 3.66119,-4.245656 5.76075,-6.092942 3.45718,-3.041771 7.79708,-4.897661 12.18643,-6.289741 4.3894,-1.39208 8.9078,-2.371443 13.24,-3.932482 12.586,-4.535211 22.8707,-13.667572 34.1313,-20.890853 13.0252,-8.355246 27.4644,-14.20294 41.2968,-21.140472 11.5129,-5.774173 23.0316,-12.4478427 35.8401,-13.8005286 2.7639,-0.2918879 5.6225,-0.3182717 8.248,0.5933239 2.7507,0.9550683 5.073,2.8870837 6.965,5.1003907 1.892,2.213307 3.4024,4.720148 4.9855,7.163958 4.1455,6.399301 8.8436,12.440814 12.7057,19.015031 8.0926,13.775504 12.2664,29.431869 16.71,44.778166 3.2243,11.135366 6.6381,22.224531 9.292,33.509441 5.7226,24.33363 7.8675,49.37991 13.1305,73.81707 4.404,20.44853 10.9696,40.37123 15.7791,60.7282 8.9453,37.86255 11.7398,76.8666 14.6021,115.66606 1.6311,22.10987 3.2948,44.28441 2.2251,66.42854 -1.1721,24.26253 -5.613,48.66817 -1.9463,72.68065 0.1676,1.09735 0.3523,2.19666 0.373,3.30654 0.021,1.10988 -0.1297,2.24126 -0.6038,3.24499 -0.728,1.54126 -2.1566,2.65061 -3.6861,3.40299 -1.5295,0.75238 -3.187,1.20066 -4.7855,1.79257 -5.3348,1.97549 -9.9874,5.56537 -13.677,9.89551 -3.6895,4.33013 -6.4541,9.38636 -8.6269,14.64393 -1.99,4.81543 -3.5013,9.81968 -4.7033,14.88957 -7.4397,31.37952 -2.9382,64.15014 -1.2834,96.35705 3.631,70.66943 -6.848,142.03551 -30.6412,208.67812"
       id="path897"
       inkscape:path-effect="#path-effect899"
       inkscape:original-d="m 635.32723,863.18679 c -8.27687,-42.33081 -16.55475,-84.66262 -24.83362,-126.99543 -8.27888,-42.33281 8.44546,-74.42306 12.66669,-111.6361 4.22123,-37.21303 3.85479,-70.18709 5.78069,-105.28213 1.9259,-35.09504 9.24159,-34.02946 13.86089,-51.04569 4.6193,-17.01622 11.51316,-35.30129 17.26823,-52.95344 5.75508,-17.65215 22.17328,-44.56982 33.25843,-66.85623 11.08514,-22.28641 7.36182,-13.9325 11.04124,-20.90025 3.67941,-6.96774 5.7656,-25.38886 8.6469,-38.0848 2.8813,-12.69593 13.64465,-37.92553 20.46548,-56.8898 6.82083,-18.96426 6.43105,-22.38272 9.64508,-33.57558 3.21403,-11.19287 3.89426,-10.4543 5.83989,-15.68295 1.94563,-5.22865 -6.13833,-6.48772 -9.20899,-9.73308 -3.07067,-3.24536 4.82162,-17.34426 7.23094,-26.01789 2.40931,-8.67363 14.19059,-8.65242 21.28438,-12.98012 7.0938,-4.32771 22.77511,-11.131 34.16117,-16.698 11.38606,-5.56699 20.06047,-4.59965 30.0892,-6.90098 10.02873,-2.30133 5.52534,8.15657 8.2865,12.23335 2.76117,4.07679 16.56134,20.3673 24.84051,30.54945 8.27916,10.18215 30.3602,38.32426 45.53881,57.48488 15.1786,19.16063 1.88272,1.64473 2.82258,2.4656 0.93985,0.82086 4.25801,-1.89623 6.38552,-2.84584 2.12751,-0.94962 -1.34885,-1.76299 -2.02478,-2.64599 -0.67592,-0.88299 -12.42237,-16.58351 -18.63506,-24.87677 -6.21269,-8.29326 -24.8265,-39.37675 -37.24125,-59.06662 -12.41475,-19.68987 -0.8165,-1.69336 -1.22624,-2.54154 -0.40975,-0.84818 2.86367,-7.15128 4.29401,-10.72842 1.43034,-3.57714 -2.86516,-6.693 -4.29924,-10.04099 -1.43408,-3.348001 -6.89889,-5.167459 -10.34983,-7.752688 -3.45095,-2.585228 -13.02456,-1.420998 -19.53833,-2.132997 -6.51378,-0.711999 0.18631,-13.353397 0.27796,-20.031596 0.0917,-6.678198 14.00107,-4.396798 21.00011,-6.596697 6.99903,-2.199899 14.96242,7.562084 22.44213,11.341626 7.47971,3.779542 7.10659,8.456586 10.65839,12.683379 3.55179,4.226793 1.19828,9.742833 1.79593,14.612753 0.59764,4.86991 -3.30387,5.88416 -4.9573,8.82474 -1.65344,2.94058 -1.53364,3.72111 -2.30196,5.58017 -0.76832,1.85905 5.52362,0.4789 8.28393,0.71686 2.76031,0.23795 13.15606,-5.7775 19.73259,-8.66774 6.57653,-2.89025 18.67844,-13.218661 28.01617,-19.82949 9.33772,-6.610829 16.65585,-4.922822 24.98227,-7.385734 8.32643,-2.462911 9.87844,1.281973 14.81616,1.92146 4.93772,0.639487 8.44437,-7.116807 12.66506,-10.67671 4.22068,-3.559904 16.95193,-6.813816 25.42643,-10.222223 8.4744,-3.408408 22.7552,-13.926235 34.1313,-20.890853 11.3762,-6.964618 27.5322,-14.092648 41.2968,-21.140472 13.7646,-7.047823 23.8944,-9.199352 35.8401,-13.8005286 11.9456,-4.6011763 5.4997,0.3965493 8.248,0.5933239 2.7484,0.1967746 7.968,8.1772327 11.9505,12.2643487 3.9825,4.087117 8.4715,12.677688 12.7057,19.015031 4.2343,6.337344 11.141,29.853111 16.71,44.778166 5.5691,14.925055 6.1957,22.340631 9.292,33.509441 3.0963,11.16881 8.7547,49.21238 13.1305,73.81707 4.3759,24.60469 10.5204,40.48646 15.7791,60.7282 5.2588,20.24173 9.7357,77.1117 14.6021,115.66606 4.8663,38.55435 1.4844,44.28669 2.2251,66.42854 0.7407,22.14185 -1.2965,48.45477 -1.9463,72.68065 -0.6498,24.22589 -0.1528,4.36868 -0.2308,6.55153 -0.078,2.18284 -5.6467,3.46471 -8.4716,5.19556 -2.8248,1.73086 -14.8682,16.36062 -22.3039,24.53944 -7.4356,8.17881 -3.1345,9.92738 -4.7033,14.88957 -1.5687,4.96219 -0.8546,64.23904 -1.2834,96.35705 -0.4288,32.11802 -20.4265,139.11975 -30.6412,208.67812" />
  </g>
</svg>
