<?xml version="1.0" encoding="UTF-8" standalone="no"?>
<!-- Created with Inkscape (http://www.inkscape.org/) -->

<svg
   version="1.1"
   id="svg2"
   width="1893"
   height="1024"
   viewBox="0 0 1893 1024"
   sodipodi:docname="frame_0011.svg"
   inkscape:version="1.1.2 (0a00cf5339, 2022-02-04)"
   xmlns:inkscape="http://www.inkscape.org/namespaces/inkscape"
   xmlns:sodipodi="http://sodipodi.sourceforge.net/DTD/sodipodi-0.dtd"
   xmlns:xlink="http://www.w3.org/1999/xlink"
   xmlns="http://www.w3.org/2000/svg"
   xmlns:svg="http://www.w3.org/2000/svg">
  <sodipodi:namedview
     id="namedview7"
     pagecolor="#ffffff"
     bordercolor="#666666"
     borderopacity="1.0"
     inkscape:pageshadow="2"
     inkscape:pageopacity="0.0"
     inkscape:pagecheckerboard="0"
     showgrid="false"
     inkscape:zoom="0.66561013"
     inkscape:cx="724.14763"
     inkscape:cy="353.81072"
     inkscape:window-width="1850"
     inkscape:window-height="1016"
     inkscape:window-x="70"
     inkscape:window-y="27"
     inkscape:window-maximized="1"
     inkscape:current-layer="g8" />
  <defs
     id="defs6" />
  <g
     id="g8">
    
    <path
       style="fill:none;stroke:#c86487;stroke-width:1px;stroke-linecap:butt;stroke-linejoin:miter;stroke-opacity:1"
       d="m 635.59586,862.8401 c -29.68445,-32.24564 -37.93278,-63.65577 -46.34253,-106.67 -12.66757,-64.79219 1.90092,-131.31872 8.53054,-197.00391 4.25441,-42.15201 5.44519,-85.59152 21.80612,-124.67108 12.58959,-30.07137 33.47218,-55.79879 50.17309,-83.79636 8.35046,-13.99879 15.71341,-28.70474 20.26766,-44.35578 4.55425,-15.65103 6.22493,-32.33149 3.17167,-48.34317 -2.05764,-10.79051 -6.1955,-21.05557 -10.27255,-31.25589 -1.71882,-4.3003 -3.43644,-8.61982 -4.54539,-13.11617 -1.10895,-4.49635 -1.59659,-9.20477 -0.82506,-13.77113 1.10072,-6.51475 4.71577,-12.39719 9.23709,-17.21498 4.52133,-4.8178 9.94123,-8.68741 15.34875,-12.48376 19.02197,-13.35437 39.21299,-26.56132 62.18687,-30.07916 2.54068,-0.38904 5.16903,-0.65143 7.6554,0 3.44877,0.90357 6.23758,3.47519 8.34319,6.35214 2.10561,2.87696 3.6659,6.11339 5.62408,9.09265 7.29881,11.10476 19.53666,17.88796 28.54526,27.65697 5.37551,5.82925 9.53399,12.64989 14.14072,19.10392 4.60673,6.45402 9.83282,12.69857 16.66065,16.73057 1.05091,0.62059 2.14934,1.191 3.33711,1.47163 1.18777,0.28062 2.48304,0.25074 3.57653,-0.29133 0.64138,-0.31795 1.19445,-0.80274 1.6235,-1.37577 0.42906,-0.57303 0.73616,-1.23277 0.93425,-1.92067 0.39617,-1.37582 0.35741,-2.84124 0.17512,-4.26131 -0.60634,-4.72358 -2.74557,-9.1289 -5.3553,-13.11252 -2.60972,-3.98362 -5.70436,-7.6244 -8.49692,-11.48206 -3.35537,-4.63514 -6.26732,-9.57307 -9.14318,-14.52003 -7.71355,-13.26859 -15.43116,-26.94149 -27.01928,-37.00478 -6.06042,-5.26296 -13.01332,-9.38291 -19.44155,-14.1897 -6.42822,-4.8068 -12.48898,-10.51576 -15.79671,-17.8292 -1.55566,-3.43959 -2.46536,-7.317654 -1.66255,-11.006331 0.65336,-3.001986 2.44881,-5.730627 4.91239,-7.566274 2.46357,-1.835648 5.56984,-2.773846 8.64029,-2.668376 2.4673,0.08475 4.88881,0.823121 7.07497,1.970042 2.18616,1.146921 4.14511,2.694792 5.90268,4.428492 3.51512,3.467401 9.48015,6.243481 12.51383,10.13909 5.50477,7.068797 8.83695,14.609877 15.00667,21.106417 2.29873,2.42049 0.0353,11.56507 2.58681,13.71749 2.55148,2.15242 9.95211,-2.68079 13.1628,-1.76733 3.92359,1.11628 8.49318,-2.07573 12.37469,-3.33053 3.8815,-1.2548 7.10048,-0.53537 10.31238,-3.05019 6.42379,-5.02965 11.61595,-11.50043 18.0975,-16.45543 12.20194,-9.32812 27.82893,-12.525353 42.57264,-16.829313 18.88189,-5.511968 37.06732,-13.202692 54.76945,-21.778363 18.67773,-9.048295 37.47426,-19.615046 49.79756,-36.31428 4.3553,-5.901809 7.8014,-12.448932 12.3575,-18.197101 2.2781,-2.874085 4.8398,-5.548006 7.8045,-7.7068536 2.9647,-2.1588472 6.3478,-3.7942668 9.95,-4.4830413 3.0975,-0.5922745 6.4608,-0.4355982 9.1865,1.1505029 2.7566,1.6040801 4.5627,4.497221 5.5605,7.526451 0.9979,3.02923 1.2857,6.237338 1.6814,9.402044 1.9681,15.740759 6.7953,31.141911 14.379,45.07506 5.711,10.492583 12.9453,20.11826 18.3338,30.780089 9.9018,19.592085 13.1439,41.739415 17.6527,63.223505 3.8429,18.31131 8.6916,36.39824 12.6405,54.68698 7.7496,35.89085 12.0154,72.47033 19.9772,108.31469 11.9288,53.70367 32.2578,106.93448 28.5115,161.81931 -0.2318,3.39602 -0.5584,6.79932 -1.3504,10.10981 -0.7921,3.31049 -2.0655,6.5403 -4.0596,9.29899 -3.0565,4.2285 -7.5905,7.09945 -11.461,10.59822 -4.0114,3.62615 -7.3554,7.99217 -9.7857,12.82272 -4.505,8.95429 -5.7677,19.23444 -5.47,29.25372 0.2977,10.01929 2.0764,19.92615 3.3443,29.86934 4.8822,38.28816 3.8241,63.4878 2.4688,102.06218 -2.0109,57.23443 -1.0557,114.57297 2.8604,171.70867 l -524.74314,0.43048"
       id="path1072"
       sodipodi:nodetypes="cssssssssssssssssssssssssssssssssssssssssssssssssssssssssssssssscc" />
  </g>
</svg>
