<?xml version="1.0" encoding="UTF-8" standalone="no"?>
<!-- Created with Inkscape (http://www.inkscape.org/) -->

<svg
   version="1.1"
   id="svg2"
   width="1893"
   height="1024"
   viewBox="0 0 1893 1024"
   sodipodi:docname="frame_0155.svg"
   inkscape:version="1.1.2 (0a00cf5339, 2022-02-04)"
   xmlns:inkscape="http://www.inkscape.org/namespaces/inkscape"
   xmlns:sodipodi="http://sodipodi.sourceforge.net/DTD/sodipodi-0.dtd"
   xmlns:xlink="http://www.w3.org/1999/xlink"
   xmlns="http://www.w3.org/2000/svg"
   xmlns:svg="http://www.w3.org/2000/svg">
  <defs
     id="defs6">
    <inkscape:path-effect
       effect="spiro"
       id="path-effect866"
       is_visible="true"
       lpeversion="1" />
    <inkscape:path-effect
       effect="spiro"
       id="path-effect862"
       is_visible="true"
       lpeversion="1" />
  </defs>
  <sodipodi:namedview
     id="namedview4"
     pagecolor="#ffffff"
     bordercolor="#666666"
     borderopacity="1.0"
     inkscape:pageshadow="2"
     inkscape:pageopacity="0.0"
     inkscape:pagecheckerboard="0"
     showgrid="false"
     inkscape:zoom="0.94803857"
     inkscape:cx="1137.0845"
     inkscape:cy="186.17386"
     inkscape:window-width="1850"
     inkscape:window-height="1016"
     inkscape:window-x="70"
     inkscape:window-y="27"
     inkscape:window-maximized="1"
     inkscape:current-layer="g8" />
  <g
     inkscape:groupmode="layer"
     inkscape:label="Image"
     id="g8">
    
    <path
       style="font-variation-settings:normal;opacity:1;vector-effect:none;fill:none;fill-opacity:1;stroke:#c86487;stroke-width:1px;stroke-linecap:butt;stroke-linejoin:miter;stroke-miterlimit:4;stroke-dasharray:none;stroke-dashoffset:0;stroke-opacity:1;-inkscape-stroke:none;stop-color:#000000;stop-opacity:1"
       d="M 1160.5783,862.58525 H 635.41584"
       id="path860"
       inkscape:path-effect="#path-effect862"
       inkscape:original-d="m 1160.5783,862.58525 c -175.05313,10e-4 -350.1073,10e-4 -525.16246,0" />
    <path
       style="font-variation-settings:normal;opacity:1;vector-effect:none;fill:none;fill-opacity:1;stroke:#c86487;stroke-width:1px;stroke-linecap:butt;stroke-linejoin:miter;stroke-miterlimit:4;stroke-dasharray:none;stroke-dashoffset:0;stroke-opacity:1;-inkscape-stroke:none;stop-color:#000000;stop-opacity:1"
       d="m 635.41584,862.58525 c -2.47597,-45.74885 -7.17544,-91.3773 -14.07627,-136.67042 -7.23534,-47.48864 -16.87491,-96.1339 -6.63407,-143.06626 4.88161,-22.37176 14.14273,-43.51663 20.96227,-65.37571 4.9561,-15.88609 8.61912,-32.14022 12.72078,-48.26806 8.87514,-34.89727 19.94094,-69.5404 37.5185,-100.96677 7.95876,-14.22922 17.22758,-27.75462 24.08824,-42.54462 13.50299,-29.10933 17.11493,-61.82867 28.45634,-91.84627 2.94557,-7.79611 6.41034,-15.40267 8.93758,-23.34426 2.52724,-7.94159 4.10717,-16.33571 3.1367,-24.61303 -0.57584,-4.91145 -2.03387,-9.67011 -3.07439,-14.50449 -1.04053,-4.83439 -1.65996,-9.88498 -0.54805,-14.70345 1.16594,-5.05261 4.18404,-9.53321 7.8802,-13.17006 3.69616,-3.63685 8.06533,-6.50817 12.46561,-9.25149 12.37932,-7.71778 25.31783,-14.65084 39.05375,-19.56368 8.56306,-3.0627 17.49185,-5.34096 26.5815,-5.63145 2.14807,-0.0687 4.30998,-0.0251 6.42635,0.34881 2.11638,0.37396 4.19346,1.08852 5.98099,2.28168 2.26178,1.50972 3.97316,3.72298 5.33315,6.07784 1.36,2.35485 2.40396,4.87593 3.60347,7.31644 4.00404,8.14658 9.69813,15.31881 15.20653,22.53384 8.75709,11.47024 17.16314,23.2314 26.647,34.10842 6.03113,6.91709 12.50987,13.49205 17.71338,21.05143 0.94975,1.37974 1.85857,2.79431 2.95413,4.06137 1.09556,1.26706 2.39838,2.39363 3.94157,3.045 1.82787,0.77153 3.88884,0.83186 5.85315,0.55283 0.97217,-0.1381 1.9577,-0.36639 2.7756,-0.90975 0.40895,-0.27167 0.77014,-0.62118 1.02715,-1.0395 0.25702,-0.41832 0.4068,-0.90704 0.39545,-1.39788 -0.0161,-0.695 -0.35118,-1.35209 -0.80242,-1.88092 -0.45125,-0.52883 -1.01522,-0.94732 -1.57314,-1.36206 -6.59839,-4.90502 -13.15031,-10.02751 -18.28275,-16.4506 -5.80882,-7.26956 -9.58223,-15.92945 -14.66697,-23.72267 -4.29356,-6.5806 -9.52333,-12.54404 -13.40304,-19.37682 -4.33863,-7.64102 -6.90041,-16.21731 -11.54984,-23.67329 -1.32002,-2.11683 -2.80282,-4.13363 -4.01424,-6.31443 -1.21141,-2.1808 -2.15559,-4.56787 -2.27787,-7.05955 -0.12319,-2.51026 0.58812,-4.97478 1.02843,-7.44919 0.22016,-1.237203 0.37362,-2.493129 0.32024,-3.748634 -0.0534,-1.255504 -0.32003,-2.515476 -0.90239,-3.629028 -1.03618,-1.981322 -2.99421,-3.348187 -5.07876,-4.156858 -3.23825,-1.256229 -6.80209,-1.317975 -10.27508,-1.266143 -3.473,0.05183 -7.00324,0.19467 -10.36166,-0.691547 -3.77395,-0.995866 -7.25399,-3.388515 -9.12775,-6.812469 -1.77775,-3.24853 -1.99808,-7.246603 -0.86469,-10.772051 1.1334,-3.525447 3.55153,-6.573289 6.55926,-8.733598 3.00772,-2.160308 6.58108,-3.462785 10.2364,-4.056088 3.65531,-0.593302 7.39735,-0.496743 11.07108,-0.03085 6.84114,0.867577 13.53817,3.030537 19.48181,6.527252 5.94364,3.496716 11.11995,8.339549 14.81493,14.162004 3.87035,6.098784 6.09238,13.537093 4.68187,20.621244 -0.52764,2.649998 -1.54349,5.185735 -2.03915,7.841905 -0.3095,1.65855 -0.40971,3.39127 0.0403,5.01732 0.225,0.81303 0.58789,1.59178 1.10038,2.26185 0.51249,0.67007 1.17705,1.22931 1.94345,1.58184 0.88126,0.40537 1.87249,0.52874 2.84146,0.48364 0.96898,-0.0451 1.92275,-0.25241 2.86481,-0.48364 9.20948,-2.26051 17.68674,-6.84194 25.652,-11.98772 6.40774,-4.139581 12.58151,-8.685946 19.37575,-12.154889 11.89063,-6.071016 25.206,-8.615355 38.23654,-11.522139 11.44498,-2.553085 22.94699,-5.485135 33.30539,-10.981406 4.8683,-2.583183 9.4269,-5.703759 14.082,-8.653925 11.5155,-7.297914 23.645,-13.566318 35.5273,-20.25039 7.798,-4.386583 15.4931,-8.954284 23.1326,-13.611493 6.7218,-4.097731 13.4178,-8.27424 20.5253,-11.658995 6.6908,-3.1862873 13.8622,-5.6824844 21.2702,-5.8818307 3.3364,-0.08978 6.702,0.2943106 9.8742,1.3319381 3.1722,1.0376276 6.1483,2.7423956 8.5085,5.1022126 4.3218,4.321009 6.283,10.474586 7.2394,16.510658 0.8383,5.290336 1.0193,10.660263 1.5523,15.990018 0.5329,5.329755 1.4392,10.693327 3.6317,15.580388 1.9911,4.438116 4.9761,8.34058 7.683,12.382084 9.8442,14.697561 16.1618,31.555929 20.0192,48.819959 4.0158,17.97304 5.4346,36.42257 8.7362,54.5404 3.7506,20.5813 9.914,40.647 14.2004,61.12342 3.3744,16.11965 5.5789,32.46347 7.3417,48.8379 2.28,21.17851 3.8258,42.43338 6.3043,63.58958 2.5709,21.94432 6.1454,43.78624 7.6727,65.82779 1.4223,20.52635 1.0622,41.12922 1.5366,61.69932 0.2738,11.87205 0.8119,23.89771 -1.7944,35.48337 -0.3895,1.73134 -0.8529,3.4597 -1.6285,5.05585 -0.7756,1.59615 -1.8839,3.06479 -3.363,4.04536 -1.6916,1.12143 -3.7566,1.5394 -5.7816,1.67554 -2.025,0.13614 -4.0615,0.0145 -6.085,0.17037 -4.8477,0.37333 -9.5761,2.40515 -13.0823,5.77351 -4.8128,4.62361 -7.0268,11.27246 -8.7782,17.71247 -9.6144,35.35291 -10.3606,72.40226 -12.3203,108.98673 -3.686,68.81211 -11.8769,137.38257 -24.5028,205.12679"
       id="path864"
       inkscape:path-effect="#path-effect866"
       inkscape:original-d="m 635.41584,862.58525 c -4.69109,-45.55581 -9.38318,-91.11262 -14.07627,-136.67042 -4.69309,-45.55781 -4.42171,-95.37651 -6.63407,-143.06626 -2.21235,-47.68975 13.97585,-43.58281 20.96227,-65.37571 6.98642,-21.79291 8.48152,-32.17771 12.72078,-48.26806 4.23927,-16.09035 25.01334,-67.31018 37.5185,-100.96677 12.50517,-33.6566 16.05983,-28.36208 24.08824,-42.54462 8.02842,-14.18254 18.9719,-61.22985 28.45634,-91.84627 9.48445,-30.61643 8.05052,-31.97053 12.07428,-47.95729 4.02376,-15.98677 -2.41396,-19.47096 -3.62244,-29.20794 -1.20849,-9.73697 13.56487,-14.9467 20.34581,-22.42155 6.78094,-7.47486 26.03684,-13.04145 39.05375,-19.56368 13.01692,-6.52222 17.722,-3.7533 26.5815,-5.63145 8.8595,-1.87816 8.27256,1.75466 12.40734,2.63049 4.13478,0.87582 5.95875,8.93052 8.93662,13.39428 2.97787,4.46377 10.13869,15.02356 15.20653,22.53384 5.06785,7.51028 17.76567,22.73995 26.647,34.10842 8.88133,11.36848 11.80992,14.03529 17.71338,21.05143 5.90346,7.01614 4.59814,4.73858 6.8957,7.10637 2.29757,2.36778 3.9031,0.36955 5.85315,0.55283 1.95005,0.18327 2.7998,-2.23042 4.1982,-3.34713 1.3984,-1.11671 -1.5827,-2.16098 -2.37556,-3.24298 -0.79285,-1.08199 -12.1875,-10.96606 -18.28275,-16.4506 -6.09526,-5.48453 -9.77698,-15.81412 -14.66697,-23.72267 -4.88999,-7.90856 -8.29515,-12.97158 -13.40304,-19.37682 -5.10788,-6.40524 -8.3381,-15.72649 -11.54984,-23.67329 -3.21174,-7.94679 -4.19374,-8.91499 -6.29211,-13.37398 -2.09838,-4.459 0.29852,-9.88357 0.44628,-14.826852 0.14776,-4.943283 -3.38484,-2.770238 -5.07876,-4.156858 -1.69392,-1.386619 -13.75683,-1.304127 -20.63674,-1.95769 -6.87991,-0.653564 -6.08416,-4.540646 -9.12775,-6.812469 -3.04358,-2.271823 18.00237,-15.727391 27.00205,-23.592586 8.99968,-7.865195 22.86549,13.793837 34.29674,20.689256 11.43125,6.895419 3.12224,13.748496 4.68187,20.621244 1.55962,6.872745 -1.35844,5.228935 -2.03915,7.841905 -0.68072,2.61297 2.05709,5.90834 3.08413,8.86101 1.02705,2.95268 3.80518,10e-4 5.70627,0 1.90109,-0.001 17.10234,-7.99082 25.652,-11.98772 8.54967,-3.996915 12.91817,-8.102261 19.37575,-12.154889 6.45758,-4.052629 25.49203,-7.680426 38.23654,-11.522139 12.74452,-3.841712 22.20459,-7.319937 33.30539,-10.981406 11.1007,-3.661469 9.389,-5.768283 14.082,-8.653925 4.693,-2.885641 23.6859,-13.49926 35.5273,-20.25039 11.8415,-6.75113 15.4227,-9.073329 23.1326,-13.611493 7.7098,-4.538164 13.6845,-7.771663 20.5253,-11.658995 6.8407,-3.8873316 14.1811,-3.9202205 21.2702,-5.8818307 7.089,-1.9616103 12.2561,4.2904337 18.3827,6.4341507 6.1266,2.143717 4.8272,11.008105 7.2394,16.510658 2.4121,5.502552 3.457,21.047937 5.184,31.570406 1.727,10.522468 5.123,8.255722 7.683,12.382084 2.56,4.126361 13.3471,32.547639 20.0192,48.819959 6.6721,16.27232 5.8252,36.36127 8.7362,54.5404 2.9111,18.17914 9.4679,40.74995 14.2004,61.12342 4.7324,20.37347 4.8955,32.5596 7.3417,48.8379 2.4462,16.2783 4.2039,42.39405 6.3043,63.58958 2.1005,21.19552 5.1162,43.88619 7.6727,65.82779 2.5566,21.9416 1.0254,41.13388 1.5366,61.69932 0.5112,20.56544 -1.1953,23.65658 -1.7944,35.48337 -0.5992,11.82679 -3.3267,6.06847 -4.9915,9.10121 -1.6648,3.03273 -7.91,1.23161 -11.8666,1.84591 -3.9565,0.61431 -8.7205,3.85001 -13.0823,5.77351 -4.3618,1.92351 -5.8511,11.80931 -8.7782,17.71247 -2.9271,5.90315 -8.2125,72.65882 -12.3203,108.98673 -4.1078,36.32791 -16.3342,136.75219 -24.5028,205.12679"
       sodipodi:nodetypes="cssssssssssssssssssssssssssssssssssssssssssssssssssssssssssssssc" />
  </g>
</svg>
