<?xml version="1.0" encoding="UTF-8" standalone="no"?>
<!-- Created with Inkscape (http://www.inkscape.org/) -->

<svg
   version="1.1"
   id="svg2"
   width="1893"
   height="1024"
   viewBox="0 0 1893 1024"
   sodipodi:docname="frame_0036.svg"
   inkscape:version="1.1.2 (0a00cf5339, 2022-02-04)"
   xmlns:inkscape="http://www.inkscape.org/namespaces/inkscape"
   xmlns:sodipodi="http://sodipodi.sourceforge.net/DTD/sodipodi-0.dtd"
   xmlns:xlink="http://www.w3.org/1999/xlink"
   xmlns="http://www.w3.org/2000/svg"
   xmlns:svg="http://www.w3.org/2000/svg">
  <defs
     id="defs6">
    <inkscape:path-effect
       effect="spiro"
       id="path-effect899"
       is_visible="true"
       lpeversion="1" />
    <inkscape:path-effect
       effect="spiro"
       id="path-effect862"
       is_visible="true"
       lpeversion="1" />
  </defs>
  <sodipodi:namedview
     id="namedview4"
     pagecolor="#ffffff"
     bordercolor="#666666"
     borderopacity="1.0"
     inkscape:pageshadow="2"
     inkscape:pageopacity="0.0"
     inkscape:pagecheckerboard="0"
     showgrid="false"
     inkscape:zoom="0.47401928"
     inkscape:cx="1251.004"
     inkscape:cy="703.55787"
     inkscape:window-width="1850"
     inkscape:window-height="1016"
     inkscape:window-x="70"
     inkscape:window-y="27"
     inkscape:window-maximized="1"
     inkscape:current-layer="g8" />
  <g
     inkscape:groupmode="layer"
     inkscape:label="Image"
     id="g8">
    
    <path
       style="font-variation-settings:normal;opacity:1;vector-effect:none;fill:none;fill-opacity:1;stroke:#c86487;stroke-width:1px;stroke-linecap:butt;stroke-linejoin:miter;stroke-miterlimit:4;stroke-dasharray:none;stroke-dashoffset:0;stroke-opacity:1;-inkscape-stroke:none;stop-color:#000000;stop-opacity:1"
       d="M 1161.0897,862.86186 635.76359,862.29087"
       id="path860"
       inkscape:path-effect="#path-effect862"
       inkscape:original-d="M 1161.0897,862.86186 635.76359,862.29087" />
    <path
       style="font-variation-settings:normal;opacity:1;vector-effect:none;fill:none;fill-opacity:1;stroke:#c86487;stroke-width:1px;stroke-linecap:butt;stroke-linejoin:miter;stroke-miterlimit:4;stroke-dasharray:none;stroke-dashoffset:0;stroke-opacity:1;-inkscape-stroke:none;stop-color:#000000;stop-opacity:1"
       d="m 635.76359,862.29087 c -22.689,-58.0767 -37.45453,-119.24288 -43.75974,-181.27463 -6.86142,-67.50376 -3.47774,-137.09573 19.70487,-200.86409 16.35365,-44.98396 42.28197,-86.45223 54.05383,-132.84643 4.75505,-18.74018 7.22308,-38.33271 15.7963,-55.66201 6.73727,-13.61824 17.1454,-25.61494 20.88809,-40.34041 3.65957,-14.39844 0.26524,-30.17648 -7.97769,-42.53615 -1.53884,-2.30737 -3.23964,-4.51083 -4.62549,-6.9132 -1.38585,-2.40238 -2.46049,-5.05112 -2.60116,-7.82099 -0.10506,-2.06872 0.31829,-4.14789 1.10421,-6.06439 0.78592,-1.91651 1.9281,-3.67488 3.26051,-5.26085 2.66484,-3.17195 6.05325,-5.63739 9.36636,-8.12453 10.44383,-7.84012 20.47834,-16.21103 30.37743,-24.72861 7.56907,-6.51273 15.17974,-13.19269 24.16077,-17.55706 4.49051,-2.18218 9.3048,-3.76062 14.2661,-4.31929 4.96131,-0.55867 10.07625,-0.0746 14.73314,1.72535 7.84983,3.03413 13.81144,9.48002 19.30493,15.85555 10.18401,11.81915 19.79267,24.12521 30.00631,35.91876 12.00106,13.85745 24.81634,26.98331 37.27906,40.42709 0.93629,1.00999 1.87614,2.02691 2.96472,2.87054 1.08858,0.84363 2.34357,1.5135 3.70327,1.73246 0.86781,0.13975 1.76802,0.0913 2.60932,-0.16331 0.84131,-0.25463 1.62181,-0.71715 2.23261,-1.34925 0.86726,-0.89751 1.36869,-2.11526 1.49731,-3.35668 0.12862,-1.24142 -0.10059,-2.50426 -0.55096,-3.66823 -0.90075,-2.32795 -2.63087,-4.22106 -4.30704,-6.07069 -33.50587,-36.97324 -60.35503,-80.05953 -97.50302,-113.37155 -1.8522,-1.66094 -3.791,-3.382387 -4.72422,-5.688569 -0.92786,-2.292948 -0.71992,-4.970256 0.35272,-7.199153 1.07264,-2.228897 2.95732,-4.016093 5.13954,-5.18076 2.18222,-1.164667 4.65036,-1.731841 7.11959,-1.878332 2.46923,-0.146492 4.94709,0.116062 7.38471,0.536267 6.45879,1.113389 12.78406,3.37678 18.14465,7.147687 6.66974,4.69183 11.55115,11.466706 16.03086,18.28073 3.66576,5.57594 7.22776,11.35813 12.26567,15.73402 2.51895,2.18794 5.39883,3.9982 8.56117,5.06208 3.16233,1.06389 6.61743,1.35835 9.86205,0.58074 3.73232,-0.89449 7.00569,-3.13948 9.87857,-5.68445 2.87288,-2.54498 5.43593,-5.42619 8.34197,-7.93323 6.77777,-5.84717 15.19858,-9.46733 23.74542,-12.12801 8.54684,-2.660671 17.34715,-4.448789 25.88338,-7.143297 16.63612,-5.251281 31.99274,-13.851045 47.02871,-22.697298 35.20988,-20.715346 69.49908,-43.159291 106.27648,-60.9436829 1.8252,-0.8825914 3.725,-1.7707817 5.7517,-1.8227878 1.5349,-0.039388 3.0654,0.416711 4.3817,1.2073234 1.3162,0.7906123 2.4227,1.9066733 3.2867,3.1760163 1.7278,2.538685 2.4714,5.618065 2.887,8.66072 1.4609,10.695541 -0.7287,21.704138 1.303,32.306081 2.1276,11.102564 8.6815,20.788065 15.3385,29.924718 6.6569,9.136653 13.6983,18.324327 17.068,29.115007 2.705,8.66218 2.8855,17.87692 4.1625,26.86133 2.783,19.58063 10.7563,37.97165 17.1615,56.68315 18.871,55.12801 24.2987,113.77992 30.8889,171.67449 5.3536,47.03093 11.5719,94.2788 8.888,141.5373 -0.1972,3.47171 -0.4556,7.00277 -1.7134,10.24464 -1.1013,2.8386 -2.9357,5.34976 -5.0647,7.5264 -2.1291,2.17663 -4.5548,4.03898 -7.01,5.83972 -4.9104,3.60147 -10.1271,7.14754 -13.2756,12.35992 -1.9403,3.21214 -2.9819,6.90085 -3.514,10.6156 -0.5321,3.71476 -0.5744,7.47976 -0.6433,11.2318 -0.5159,28.08026 -2.5759,56.10613 -3.9709,84.15646 -3.5152,70.68189 -2.8051,141.57367 2.1252,212.17096"
       id="path897"
       inkscape:path-effect="#path-effect899"
       inkscape:original-d="m 635.76359,862.29087 c -14.58558,-60.42388 -29.17216,-120.84875 -43.75974,-181.27463 -14.58757,-60.42587 13.13758,-133.9084 19.70487,-200.86409 6.56729,-66.9557 36.03689,-88.56329 54.05383,-132.84643 18.01695,-44.28314 10.53187,-37.10701 15.7963,-55.66201 5.26443,-18.555 13.92639,-26.8926 20.88809,-40.34041 6.9617,-13.4478 -5.31746,-28.35643 -7.97769,-42.53615 -2.66023,-14.17972 -4.81677,-9.82179 -7.22665,-14.73419 -2.40989,-4.9124 9.15505,-12.96551 13.73108,-19.44977 4.57602,-6.48426 20.25262,-16.48474 30.37743,-24.72861 10.12481,-8.24387 35.441,-13.433 53.16001,-20.151 17.719,-6.718 12.87095,10.57137 19.30493,15.85555 6.43397,5.28418 20.00521,23.94684 30.00631,35.91876 10.00111,11.97191 24.85371,26.95239 37.27906,40.42709 12.42535,13.4747 4.44633,3.06966 6.66799,4.603 2.22167,1.53333 3.22895,-1.00737 4.84193,-1.51256 1.61297,-0.50518 -2.23946,-8.7294 -3.36069,-13.0956 -1.12124,-4.36619 -65.00101,-75.58003 -97.50302,-113.37155 -32.502,-37.791518 -3.14848,-3.791379 -4.72422,-5.688569 -1.57574,-1.897189 13.33204,-9.146985 19.99656,-13.721978 6.66451,-4.574993 12.09743,4.766125 18.14465,7.147687 6.04721,2.381563 10.68824,12.188151 16.03086,18.28073 5.34262,6.09257 20.46026,14.25222 30.68889,21.37684 10.22863,7.12461 12.14803,-9.07745 18.22054,-13.61768 6.07251,-4.54022 33.08687,-12.846537 49.6288,-19.271307 16.54194,-6.424769 31.35347,-15.130532 47.02871,-22.697298 15.67524,-7.566765 70.85198,-40.628122 106.27648,-60.9436829 35.4245,-20.3155611 3.8355,-1.2141918 5.7517,-1.8227878 1.9162,-0.6085959 7.0379,8.6970397 10.5554,13.0440597 3.5175,4.34702 0.8697,21.538388 1.303,32.306081 0.4333,10.767694 21.6053,39.360819 32.4065,59.039725 10.8012,19.67891 2.776,17.90856 4.1625,26.86133 1.3865,8.95278 11.442,37.78977 17.1615,56.68315 5.7195,18.89338 20.5936,114.45066 30.8889,171.67449 10.2953,57.22384 5.9264,94.3592 8.888,141.5373 2.9617,47.1781 -1.1413,6.83076 -1.7134,10.24464 -0.5722,3.41388 -16.8992,17.15169 -25.3503,25.72604 -8.4511,8.57435 -2.7706,14.56593 -4.1573,21.8474 -1.3868,7.28146 -2.6463,56.1053 -3.9709,84.15646 -1.3246,28.05115 1.4178,141.44831 2.1252,212.17096" />
  </g>
</svg>
