<?xml version="1.0" encoding="UTF-8" standalone="no"?>
<!-- Created with Inkscape (http://www.inkscape.org/) -->

<svg
   version="1.1"
   id="svg2"
   width="1893"
   height="1024"
   viewBox="0 0 1893 1024"
   sodipodi:docname="frame_0068.svg"
   inkscape:version="1.1.2 (0a00cf5339, 2022-02-04)"
   xmlns:inkscape="http://www.inkscape.org/namespaces/inkscape"
   xmlns:sodipodi="http://sodipodi.sourceforge.net/DTD/sodipodi-0.dtd"
   xmlns:xlink="http://www.w3.org/1999/xlink"
   xmlns="http://www.w3.org/2000/svg"
   xmlns:svg="http://www.w3.org/2000/svg">
  <defs
     id="defs6">
    <inkscape:path-effect
       effect="spiro"
       id="path-effect899"
       is_visible="true"
       lpeversion="1" />
    <inkscape:path-effect
       effect="spiro"
       id="path-effect862"
       is_visible="true"
       lpeversion="1" />
  </defs>
  <sodipodi:namedview
     id="namedview4"
     pagecolor="#ffffff"
     bordercolor="#666666"
     borderopacity="1.0"
     inkscape:pageshadow="2"
     inkscape:pageopacity="0.0"
     inkscape:pagecheckerboard="0"
     showgrid="false"
     inkscape:zoom="0.6703645"
     inkscape:cx="1187.4137"
     inkscape:cy="510.91608"
     inkscape:window-width="1850"
     inkscape:window-height="1016"
     inkscape:window-x="70"
     inkscape:window-y="27"
     inkscape:window-maximized="1"
     inkscape:current-layer="g8" />
  <g
     inkscape:groupmode="layer"
     inkscape:label="Image"
     id="g8">
    
    <path
       style="font-variation-settings:normal;opacity:1;vector-effect:none;fill:none;fill-opacity:1;stroke:#c86487;stroke-width:1px;stroke-linecap:butt;stroke-linejoin:miter;stroke-miterlimit:4;stroke-dasharray:none;stroke-dashoffset:0;stroke-opacity:1;-inkscape-stroke:none;stop-color:#000000;stop-opacity:1"
       d="m 1161.0713,862.99801 -525.30118,0.0971"
       id="path860"
       inkscape:path-effect="#path-effect862"
       inkscape:original-d="m 1161.0713,862.99801 -525.30118,0.0971" />
    <path
       style="font-variation-settings:normal;opacity:1;vector-effect:none;fill:none;fill-opacity:1;stroke:#c86487;stroke-width:1px;stroke-linecap:butt;stroke-linejoin:miter;stroke-miterlimit:4;stroke-dasharray:none;stroke-dashoffset:0;stroke-opacity:1;-inkscape-stroke:none;stop-color:#000000;stop-opacity:1"
       d="m 635.77012,863.09511 c -36.36438,-81.74995 -49.70697,-173.59487 -38.10697,-262.31275 6.05427,-46.30361 18.70756,-91.51443 33.61311,-135.7694 7.86376,-23.34771 16.39695,-46.55501 27.72899,-68.43055 9.90019,-19.11147 21.94393,-37.23024 29.37591,-57.42993 6.58613,-17.9007 9.37534,-36.98066 15.30088,-55.11075 4.71774,-14.43466 11.42283,-28.27072 14.52702,-43.13613 3.53978,-16.95139 2.24721,-34.48425 3.04047,-51.7831 0.23585,-5.14327 0.66183,-10.30519 1.89831,-15.30319 1.23649,-4.99799 3.31721,-9.85226 6.58727,-13.82914 3.09741,-3.76692 7.1536,-6.62886 11.35667,-9.10228 4.20308,-2.47343 8.60377,-4.6065 12.73626,-7.19612 8.34594,-5.22997 15.66845,-12.35134 24.94298,-15.6665 5.7619,-2.05958 11.9507,-2.52085 18.04789,-3.03625 4.22708,-0.35732 8.47599,-0.74936 12.70435,-0.40753 4.22836,0.34182 8.48155,1.46215 11.96273,3.88646 3.2396,2.25607 5.65052,5.52234 7.58306,8.96474 1.93254,3.44239 3.44109,7.10509 5.25802,10.60988 2.95167,5.69367 6.69887,10.93606 10.60622,16.02161 7.72369,10.05263 16.12016,19.57149 24.75695,28.85139 6.9245,7.44011 14.08883,14.84075 19.01466,23.7312 0.79872,1.44158 1.54303,2.92892 2.58511,4.20571 1.04208,1.27679 2.43539,2.34752 4.05721,2.64049 1.30412,0.23558 2.68533,-0.0591 3.81444,-0.75287 1.1291,-0.69379 2.00543,-1.77224 2.51413,-2.99594 0.76291,-1.83524 0.69632,-3.95315 0.0473,-5.83171 -0.64898,-1.87856 -1.84662,-3.53234 -3.25981,-4.92985 -2.82638,-2.79502 -6.47108,-4.59677 -9.59206,-7.05848 -5.45213,-4.30043 -9.09581,-10.42369 -12.78447,-16.30699 -8.56958,-13.66822 -18.05709,-26.83958 -24.98033,-41.41102 -3.25733,-6.85574 -5.92704,-13.98256 -9.29952,-20.78239 -1.78346,-3.59593 -3.75988,-7.09302 -5.80145,-10.54895 -1.59406,-2.69839 -3.23732,-5.3853 -5.26029,-7.77903 -2.02296,-2.39373 -4.45282,-4.49928 -7.30832,-5.790981 -2.26352,-1.023916 -4.72497,-1.510261 -7.1377,-2.102439 -2.41273,-0.592177 -4.84689,-1.3202 -6.8807,-2.746935 -2.0643,-1.448126 -3.62294,-3.58198 -4.45626,-5.961892 -0.83332,-2.379912 -0.94978,-4.993643 -0.41625,-7.458141 0.53353,-2.464497 1.70692,-4.777132 3.31385,-6.72037 1.60693,-1.943239 3.64074,-3.519953 5.88393,-4.671696 5.52679,-2.837675 12.19891,-3.004679 18.13992,-1.187482 5.60277,1.71374 10.69727,5.171245 14.16382,9.894697 2.5127,3.423757 4.14212,7.423285 6.58476,10.897374 2.12701,3.025176 4.84825,5.619551 6.7634,8.783104 2.01846,3.334211 3.06311,7.187741 3.50188,11.060551 0.47181,4.1644 0.2833,8.46282 1.6227,12.43407 0.6815,2.02062 1.73987,3.89133 2.84469,5.71526 0.48489,0.8005 0.98305,1.59894 1.60063,2.30215 0.61759,0.70321 1.3644,1.31251 2.2359,1.65369 1.16549,0.45627 2.49476,0.40065 3.67658,-0.0115 1.18181,-0.41213 2.22507,-1.16118 3.11195,-2.04435 1.77376,-1.76633 2.93995,-4.04256 4.50363,-5.99732 2.29581,-2.86999 5.41052,-4.99257 8.70365,-6.62439 3.29313,-1.63183 6.78857,-2.80778 10.23714,-4.07857 22.09707,-8.1427 42.4636,-20.260931 63.31908,-31.198612 9.66155,-5.067011 19.49952,-9.910901 29.9046,-13.190316 9.36321,-2.951031 19.13921,-4.620296 28.23351,-8.317804 4.5471,-1.848754 8.9178,-4.212941 12.6937,-7.349236 3.776,-3.136295 6.9473,-7.072043 8.8273,-11.606372 2.7388,-6.605883 2.6233,-14.076747 4.9896,-20.825055 1.1831,-3.374153 3.0413,-6.599424 5.8291,-8.838402 1.3938,-1.1194882 3.0086,-1.9767339 4.7399,-2.4225205 1.7313,-0.4457867 3.5796,-0.4723374 5.3026,0.00469 2.1629,0.598829 4.0424,1.9525222 5.6931,3.4729832 1.6508,1.520461 3.1215,3.228749 4.7881,4.731831 4.7329,4.268593 10.81,6.689831 16.799,8.870106 5.989,2.180276 12.1354,4.258787 17.2816,8.018916 5.8462,4.271588 10.0273,10.459551 13.28,16.928223 3.2528,6.468672 5.6885,13.316785 8.7859,19.861265 6.3437,13.403626 15.4285,25.466237 20.7412,39.310905 6.7215,17.51598 6.999,36.75061 10.7018,55.14294 2.8945,14.37714 7.8869,28.23833 11.6266,42.41912 4.0769,15.45947 6.6568,31.26621 9.7382,46.95447 4.387,22.33538 9.7981,44.4643 13.9183,66.85043 5.79,31.45855 9.0165,63.36705 10.2143,95.33155 0.7002,18.68556 0.7123,37.44082 3.0904,55.98766 0.8409,6.55846 1.9775,13.08852 2.3729,19.68884 0.3954,6.60033 0.028,13.33485 -2.071,19.60514 -0.8686,2.59519 -2.0841,5.16932 -4.1336,6.98289 -1.4716,1.30223 -3.2857,2.13682 -5.0113,3.0769 -5.2202,2.84389 -9.827,6.80757 -13.4166,11.54603 -5.5759,7.36054 -8.5896,16.39102 -10.1247,25.49663 -1.5351,9.1056 -1.6774,18.37878 -2.0495,27.60538 -0.8452,20.9565 -2.8929,41.84294 -4.7354,62.73539 -6.2676,71.07171 -10.1678,142.35218 -11.6918,213.68344"
       id="path897"
       inkscape:path-effect="#path-effect899"
       inkscape:original-d="M 635.77012,863.09511 C 623.0688,775.65853 610.36647,688.22094 597.66315,600.78236 c -12.70332,-87.43859 22.40974,-90.51194 33.61311,-135.7694 11.20337,-45.25747 18.487,-45.61937 27.72899,-68.43055 9.242,-22.81119 19.58494,-38.28562 29.37591,-57.42993 9.79097,-19.14431 10.20159,-36.7395 15.30088,-55.11075 5.09929,-18.37125 9.68568,-28.75642 14.52702,-43.13613 4.84133,-14.37971 2.02798,-34.52106 3.04047,-51.7831 1.01249,-17.26203 5.65805,-19.42055 8.48558,-29.13233 2.82752,-9.71177 16.06295,-10.8646 24.09293,-16.2984 8.02997,-5.4338 17.0246,-9.0451 24.94298,-15.6665 7.91838,-6.62139 11.63798,-3.42139 18.04789,-3.03625 6.40991,0.38514 16.44572,2.32029 24.66708,3.47893 8.22136,1.15865 8.56172,13.05075 12.84108,19.57462 4.27936,6.52387 7.07181,10.68207 10.60622,16.02161 3.5344,5.33954 16.50563,19.23526 24.75695,28.85139 8.25132,9.61613 12.67744,15.8218 19.01466,23.7312 6.33722,7.9094 4.42922,4.56514 6.64232,6.8462 2.21311,2.28107 4.22005,-2.4982 6.32857,-3.74881 2.10852,-1.2506 -8.53534,-11.87902 -12.80452,-17.82004 -4.26917,-5.94101 -8.52198,-10.87033 -12.78447,-16.30699 -4.2625,-5.43666 -12.89506,-25.68949 -24.98033,-41.41102 -12.08527,-15.72153 -9.95617,-15.77078 -9.29952,-20.78239 0.65665,-5.01161 -3.86664,-7.03163 -5.80145,-10.54895 -1.93482,-3.51732 -8.37808,-9.04567 -12.56861,-13.570011 -4.19054,-4.524338 -9.3446,-3.231916 -14.0184,-4.849374 -4.6738,-1.617458 2.88451,-16.540399 4.32527,-24.812099 1.44075,-8.2717 12.09428,-0.790655 18.13992,-1.187482 6.04564,-0.396827 9.44355,6.597465 14.16382,9.894697 4.72028,3.297232 4.39084,7.265916 6.58476,10.897374 2.19391,3.631458 4.50993,5.856403 6.7634,8.783104 2.25347,2.926701 2.33559,7.374701 3.50188,11.060551 1.1663,3.68584 1.0828,8.29038 1.6227,12.43407 0.53989,4.14369 1.89746,3.81117 2.84469,5.71526 0.94724,1.90409 2.55869,2.63823 3.83653,3.95584 1.27785,1.31761 7.52911,-5.36776 11.29216,-8.05314 3.76305,-2.68538 12.62819,-7.13431 18.94079,-10.70296 6.3126,-3.56866 42.21372,-20.798075 63.31908,-31.198612 21.10536,-10.400536 19.9374,-8.792544 29.9046,-13.190316 9.96721,-4.397772 33.17071,-18.181275 49.75451,-27.273412 16.5839,-9.092138 13.9085,-21.386526 20.8612,-32.0812892 6.9527,-10.6947629 6.9884,5.4708762 10.4812,8.2048142 3.4927,2.733938 22.7214,11.260348 34.0806,16.889022 11.3592,5.628674 14.7116,24.527325 22.0659,36.789488 7.3543,12.262163 13.8284,26.208267 20.7412,39.310905 6.9127,13.10263 7.1355,36.76296 10.7018,55.14294 3.5663,18.37997 7.7521,28.28041 11.6266,42.41912 3.8746,14.13871 6.4931,31.30398 9.7382,46.95447 3.2451,15.65049 9.2799,44.56795 13.9183,66.85043 4.6384,22.28248 6.8105,63.55537 10.2143,95.33155 3.4038,31.77619 2.0613,37.32611 3.0904,55.98766 1.0291,18.66156 0.2022,26.19699 0.3019,39.29398 0.1,13.09699 -2.7547,4.65626 -4.1336,6.98289 -1.3789,2.32663 -3.3399,2.05227 -5.0113,3.0769 -1.6715,1.02464 -8.9434,7.69835 -13.4166,11.54603 -4.4731,3.84767 -8.1152,35.40234 -12.1742,53.10201 -4.0591,17.69967 -3.156,41.82459 -4.7354,62.73539 -1.5795,20.9108 -7.7935,142.45663 -11.6918,213.68344"
       sodipodi:nodetypes="csssssssssssssssssssssssssssssssssssssssssssssssssscsssssc" />
  </g>
</svg>
