<?xml version="1.0" encoding="UTF-8" standalone="no"?>
<!-- Created with Inkscape (http://www.inkscape.org/) -->

<svg
   version="1.1"
   id="svg2"
   width="1893"
   height="1024"
   viewBox="0 0 1893 1024"
   xmlns:xlink="http://www.w3.org/1999/xlink"
   xmlns="http://www.w3.org/2000/svg"
   xmlns:svg="http://www.w3.org/2000/svg">
  <defs
     id="defs6" />
  <g
     id="g8">
    
    <path
       style="font-variation-settings:normal;opacity:1;vector-effect:none;fill:none;fill-opacity:1;stroke:#c86487;stroke-width:1px;stroke-linecap:butt;stroke-linejoin:miter;stroke-miterlimit:4;stroke-dasharray:none;stroke-dashoffset:0;stroke-opacity:1;-inkscape-stroke:none;stop-color:#000000;stop-opacity:1"
       d="M 1160.4851,863.0685 635.40747,862.68099"
       id="path860" />
    <path
       style="font-variation-settings:normal;opacity:1;vector-effect:none;fill:none;fill-opacity:1;stroke:#c86487;stroke-width:1px;stroke-linecap:butt;stroke-linejoin:miter;stroke-miterlimit:4;stroke-dasharray:none;stroke-dashoffset:0;stroke-opacity:1;-inkscape-stroke:none;stop-color:#000000;stop-opacity:1"
       d="m 635.40747,862.68099 c -24.89923,-28.65986 -41.8317,-64.17045 -48.42604,-101.5586 -8.8353,-50.09376 0.66586,-101.31726 6.32941,-151.86795 5.87124,-52.40448 7.76267,-106.01402 25.25851,-155.75934 10.86808,-30.90084 27.53501,-59.56893 37.58729,-90.7447 4.41777,-13.7011 7.52966,-27.80549 12.21232,-41.41834 6.72984,-19.56418 16.66636,-38.00491 22.00146,-57.99452 4.17525,-15.64388 5.42948,-32.23857 2.10966,-48.08605 -1.13447,-5.41552 -2.79375,-10.72235 -3.64001,-16.19033 -0.84625,-5.46797 -0.83567,-11.22894 1.28263,-16.34046 2.00782,-4.84492 5.77149,-8.77291 9.92229,-11.97843 4.1508,-3.20552 8.73915,-5.79302 13.06701,-8.75514 10.72684,-7.34178 20.05749,-17.09938 32.18382,-21.78115 10.72889,-4.14225 22.55912,-3.88275 34.00284,-5.02662 2.42358,-0.24225 4.85794,-0.55016 7.28733,-0.37566 2.4294,0.1745 4.89258,0.87294 6.76588,2.4296 1.52505,1.26727 2.57161,3.02774 3.31495,4.866 0.74334,1.83826 1.20902,3.77412 1.76358,5.67785 3.01762,10.35909 8.98683,20.12291 17.90902,26.19014 3.37827,2.29728 7.10289,4.02592 10.68658,5.9874 3.58368,1.96149 7.09289,4.2104 9.7463,7.31679 4.31465,5.05123 5.97151,11.87479 9.84419,17.27233 4.24407,5.91518 10.7914,9.66737 16.26347,14.46924 2.01394,1.76727 3.93193,3.71574 6.3279,4.91512 1.19799,0.59968 2.5103,1.00053 3.84942,1.03997 1.33912,0.0394 2.70632,-0.29797 3.80469,-1.06503 0.85771,-0.59899 1.53291,-1.44668 1.96309,-2.4003 0.43018,-0.95362 0.61851,-2.0101 0.58634,-3.05576 -0.0643,-2.09133 -1.00249,-4.09095 -2.33621,-5.70309 -2.66742,-3.22428 -6.70165,-4.90871 -10.26174,-7.10801 -10.48313,-6.47611 -17.06495,-17.64299 -22.45155,-28.72544 -6.08,-12.50907 -11.20122,-25.525 -18.4078,-37.42073 -7.20658,-11.89573 -16.82452,-22.83156 -29.42471,-28.7204 -3.3902,-1.58445 -6.95703,-2.78633 -10.26975,-4.52697 -3.31273,-1.74064 -6.43498,-4.11469 -8.21817,-7.404709 -1.04782,-1.933241 -1.59401,-4.129675 -1.61884,-6.328476 -0.0248,-2.198801 0.46781,-4.396896 1.38772,-6.394172 1.83982,-3.994551 5.37869,-7.103929 9.46156,-8.738414 3.08539,-1.235166 6.53042,-1.664864 9.77648,-0.951873 3.24606,0.71299 6.26547,2.616106 8.09065,5.393511 1.40115,2.132152 2.05536,4.65162 2.84015,7.079251 0.78479,2.427632 1.78023,4.897446 3.66105,6.621336 1.36726,1.253176 3.10677,2.019529 4.85536,2.637827 1.74859,0.618297 3.54856,1.114049 5.21454,1.929129 2.93295,1.43494 5.3173,3.79711 7.34367,6.35741 2.02637,2.56029 3.74554,5.34933 5.71248,7.95556 2.60857,3.45641 5.70068,6.62296 9.45916,8.77358 3.75848,2.15063 8.24049,3.22244 12.48987,2.38924 2.52382,-0.49486 4.89017,-1.63794 7.0058,-3.10035 2.11564,-1.46242 3.99447,-3.24101 5.77209,-5.09968 3.55525,-3.71732 6.7984,-7.83344 11.0773,-10.68814 5.46152,-3.6437 12.1803,-4.92496 18.73982,-5.2032 6.55952,-0.27824 13.12861,0.36272 19.69142,0.17766 16.74985,-0.47232 33.06548,-6.373162 47.30085,-15.212565 14.23536,-8.839404 26.51285,-20.537064 37.528,-33.164295 8.3833,-9.61023 16.171,-19.877648 26.0408,-27.953775 4.9349,-4.038063 10.3836,-7.50402 16.3245,-9.820105 5.941,-2.316085 12.393,-3.457564 18.7402,-2.847651 1.6234,0.155997 3.2436,0.427081 4.7883,0.950255 1.5447,0.523174 3.0161,1.305892 4.22,2.406128 1.3741,1.255857 2.3572,2.880626 3.1846,4.548217 0.8274,1.667591 1.5194,3.402704 2.4203,5.031767 3.0095,5.442079 8.1165,9.338571 12.4245,13.823468 8.6294,8.983661 14.1668,20.53558 17.9447,32.405704 3.778,11.870123 5.923,24.185172 8.6611,36.337372 9.4877,42.10881 26.0959,82.25904 37.792,123.80863 12.14,43.12651 18.9413,87.61799 22.8892,132.24634 4.3338,48.99109 5.2619,98.26556 10.7504,147.14076 0.1188,1.05787 0.2399,2.11919 0.2203,3.18353 -0.02,1.06434 -0.1843,2.13872 -0.6155,3.112 -0.4929,1.11257 -1.3219,2.05814 -2.2981,2.7846 -0.9762,0.72646 -2.0969,1.24191 -3.2535,1.62015 -2.3132,0.75648 -4.7652,0.97483 -7.1294,1.55255 -5.5719,1.36157 -10.6403,4.8272 -13.7575,9.64202 -2.2912,3.53894 -3.5026,7.68694 -4.0953,11.86094 -0.5927,4.17401 -0.5944,8.40605 -0.6401,12.62168 -0.3124,28.82081 -2.7329,57.57159 -4.2356,86.35489 -3.8116,73.00613 -1.7096,146.32017 6.2786,218.98799"
       id="path897" />
  </g>
</svg>
