<?xml version="1.0" encoding="UTF-8" standalone="no"?>
<!-- Created with Inkscape (http://www.inkscape.org/) -->

<svg
   version="1.1"
   id="svg2"
   width="1893"
   height="1024"
   viewBox="0 0 1893 1024"
   sodipodi:docname="frame_0062.svg"
   inkscape:version="1.1.2 (0a00cf5339, 2022-02-04)"
   xmlns:inkscape="http://www.inkscape.org/namespaces/inkscape"
   xmlns:sodipodi="http://sodipodi.sourceforge.net/DTD/sodipodi-0.dtd"
   xmlns:xlink="http://www.w3.org/1999/xlink"
   xmlns="http://www.w3.org/2000/svg"
   xmlns:svg="http://www.w3.org/2000/svg">
  <defs
     id="defs6">
    <inkscape:path-effect
       effect="spiro"
       id="path-effect866"
       is_visible="true"
       lpeversion="1" />
    <inkscape:path-effect
       effect="spiro"
       id="path-effect862"
       is_visible="true"
       lpeversion="1" />
  </defs>
  <sodipodi:namedview
     id="namedview4"
     pagecolor="#ffffff"
     bordercolor="#666666"
     borderopacity="1.0"
     inkscape:pageshadow="2"
     inkscape:pageopacity="0.0"
     inkscape:pagecheckerboard="0"
     showgrid="false"
     inkscape:zoom="1.340729"
     inkscape:cx="1243.3534"
     inkscape:cy="635.84811"
     inkscape:window-width="1850"
     inkscape:window-height="1016"
     inkscape:window-x="70"
     inkscape:window-y="27"
     inkscape:window-maximized="1"
     inkscape:current-layer="g8" />
  <g
     inkscape:groupmode="layer"
     inkscape:label="Image"
     id="g8">
    
    <path
       style="font-variation-settings:normal;opacity:1;vector-effect:none;fill:none;fill-opacity:1;stroke:#c86487;stroke-width:1px;stroke-linecap:butt;stroke-linejoin:miter;stroke-miterlimit:4;stroke-dasharray:none;stroke-dashoffset:0;stroke-opacity:1;-inkscape-stroke:none;stop-color:#000000;stop-opacity:1"
       d="m 1160.7133,863.04227 -525.13029,0.39856"
       id="path860"
       inkscape:path-effect="#path-effect862"
       inkscape:original-d="m 1160.7133,863.04227 c -175.04245,0.13385 -350.08587,0.2667 -525.13029,0.39856" />
    <path
       style="font-variation-settings:normal;opacity:1;vector-effect:none;fill:none;fill-opacity:1;stroke:#c86487;stroke-width:1px;stroke-linecap:butt;stroke-linejoin:miter;stroke-miterlimit:4;stroke-dasharray:none;stroke-dashoffset:0;stroke-opacity:1;-inkscape-stroke:none;stop-color:#000000;stop-opacity:1"
       d="m 635.58301,863.44083 c -21.38336,-73.51182 -31.85173,-150.18865 -30.95617,-226.74212 0.60988,-52.13299 6.55632,-104.59919 22.99554,-154.07618 15.17459,-45.67084 38.95791,-87.91512 58.55828,-131.86872 14.86701,-33.3391 27.49064,-68.38319 29.40538,-104.83669 0.78259,-14.89928 -0.23611,-29.87248 1.07364,-44.7347 1.30975,-14.86223 5.20026,-30.01022 14.55398,-41.63387 5.5068,-6.84318 12.67606,-12.17583 20.2033,-16.70292 7.52725,-4.52709 15.4716,-8.31592 23.15041,-12.58088 5.38313,-2.9899 10.66976,-6.23008 16.43844,-8.38411 5.76868,-2.15403 12.16475,-3.16984 18.10658,-1.55362 6.23292,1.6954 11.37478,6.09839 15.69407,10.90125 7.16748,7.96993 12.6364,17.28493 18.72825,26.10434 14.29446,20.69465 32.06937,38.71879 50.0814,56.27347 0.26861,0.26179 0.53853,0.52455 0.84264,0.74409 0.30411,0.21954 0.64601,0.39589 1.01471,0.46477 0.37402,0.0699 0.76674,0.0256 1.12102,-0.1132 0.35429,-0.13876 0.67002,-0.3703 0.91949,-0.6576 0.49894,-0.57459 0.72063,-1.35692 0.70295,-2.1177 -0.0177,-0.76078 -0.25916,-1.50269 -0.59656,-2.18479 -0.3374,-0.6821 -0.76979,-1.31195 -1.19527,-1.94288 -9.24378,-13.70715 -15.95223,-29.1444 -26.56512,-41.82115 -5.5842,-6.67014 -12.1524,-12.45275 -17.89428,-18.98764 -5.74189,-6.5349 -10.75291,-14.08091 -12.33668,-22.63461 -0.86194,-4.6552 -0.67784,-9.43992 -1.24473,-14.14018 -0.22118,-1.83386 -0.5597,-3.66463 -1.20517,-5.39533 -0.64548,-1.73069 -1.61034,-3.36478 -2.95907,-4.62687 -1.30144,-1.217845 -2.923,-2.055945 -4.61378,-2.620001 -1.69078,-0.564057 -3.45712,-0.865457 -5.22234,-1.112208 -3.53044,-0.493504 -7.20601,-0.812767 -10.31013,-2.565491 -2.53618,-1.432042 -4.52538,-3.781026 -5.60115,-6.487624 -1.07577,-2.706599 -1.246,-5.75068 -0.56372,-8.58219 0.65414,-2.714707 2.07844,-5.229497 4.01696,-7.239395 1.93851,-2.009898 4.38213,-3.516528 7.0251,-4.417765 5.28595,-1.802475 11.25549,-1.122098 16.27702,1.322163 7.07386,3.443246 12.06628,9.937216 17.84786,15.272827 3.07112,2.834231 6.41309,5.376927 9.32651,8.373029 2.91343,2.996101 5.42854,6.544242 6.37378,10.615015 0.98706,4.2509 0.18986,8.71325 -1.00631,12.91011 -0.5041,1.76867 -1.08009,3.52351 -1.38456,5.33724 -0.30447,1.81373 -0.32667,3.71293 0.26392,5.45462 0.68786,2.02854 2.19411,3.73743 4.04403,4.81721 1.84992,1.07978 4.02372,1.55002 6.16506,1.49755 4.2827,-0.10495 8.27484,-2.21709 11.70563,-4.78267 4.14121,-3.09685 7.69854,-6.89356 11.54053,-10.35466 13.24664,-11.93338 29.72859,-19.731893 46.5987,-25.500639 16.87011,-5.768746 34.31839,-9.660941 51.38934,-14.805028 26.74961,-8.0606 53.16231,-19.595234 73.34201,-38.916029 5.3671,-5.138652 10.2626,-10.798759 16.0921,-15.406183 5.8295,-4.607424 12.8487,-8.174431 20.279,-8.216032 6.734,-0.0377 13.491,3.035653 17.6274,8.349679 3.339,4.289555 4.8705,9.719815 5.6631,15.097626 0.7926,5.377811 0.9217,10.841927 1.8363,16.200337 1.7825,10.443287 6.4728,20.12488 10.8979,29.750789 17.2521,37.52859 31.2819,76.7834 38.1561,117.51146 8.5674,50.75989 5.8769,102.63263 6.4222,154.10757 0.5453,51.47495 4.6571,104.16471 25.6831,151.15275 1.2019,2.68588 2.4734,5.4047 2.818,8.32699 0.1722,1.46114 0.1041,2.96224 -0.3189,4.37138 -0.423,1.40914 -1.2127,2.72348 -2.3393,3.66978 -1.27,1.0668 -2.891,1.61845 -4.5032,2.00799 -1.6122,0.38954 -3.2648,0.64239 -4.8203,1.21817 -3.3625,1.24469 -6.0303,3.92229 -7.9899,6.92489 -1.9595,3.0026 -3.3018,6.35565 -4.7757,9.62417 -4.0661,9.01704 -9.2111,17.53531 -12.9141,26.70744 -5.8302,14.44105 -7.9329,30.15325 -8.2441,45.72367 -0.3111,15.57042 1.1157,31.11494 2.0938,46.65773 4.2237,67.11879 0.053,134.76155 -12.3847,200.85301"
       id="path864"
       inkscape:path-effect="#path-effect866"
       inkscape:original-d="M 635.58301,863.44083 C 625.26529,787.86112 614.94656,712.28041 604.62684,636.69871 594.30712,561.117 619.9582,533.98225 627.62238,482.62253 c 7.66418,-51.35973 39.03985,-87.91148 58.55828,-131.86872 19.51842,-43.95724 19.60459,-69.89013 29.40538,-104.83669 9.8008,-34.94656 10.41941,-57.57805 15.62762,-86.36857 5.2082,-28.79052 28.90347,-19.52153 43.35371,-29.2838 14.45023,-9.76226 23.03101,-6.62415 34.54502,-9.93773 11.51401,-3.31358 10.46371,7.2685 15.69407,10.90125 5.23035,3.63275 12.4865,17.4039 18.72825,26.10434 6.24175,8.70045 33.3886,37.51665 50.0814,56.27347 16.6928,18.75682 1.23923,0.80691 1.85735,1.20886 0.61812,0.40196 0.63542,-4.67645 0.95163,-7.01617 0.31621,-2.33972 -17.70908,-27.87977 -26.56512,-41.82115 -8.85604,-13.94139 -20.15297,-27.74717 -30.23096,-41.62225 -10.07798,-13.87508 -0.82882,-9.42578 -1.24473,-14.14018 -0.41592,-4.71439 -2.77516,-6.68046 -4.16424,-10.0222 -1.38908,-3.341732 -13.42984,-4.197466 -20.14625,-6.2977 -6.71642,-2.100234 -4.10892,-10.045543 -6.16487,-15.069814 -2.05596,-5.024271 18.21372,-6.888998 27.31908,-10.334997 9.10537,-3.445999 11.89958,10.182885 17.84786,15.272827 5.94829,5.089943 10.46786,12.659698 15.70029,18.988044 5.23243,6.32835 -0.66988,8.60774 -1.00631,12.91011 -0.33644,4.30237 -0.7461,7.19557 -1.12064,10.79186 -0.37455,3.59628 14.61081,1.02239 21.91472,1.53209 7.3039,0.5097 7.69469,-6.90211 11.54053,-10.35466 3.84585,-3.45256 65.32636,-26.869446 97.98804,-40.305667 32.66171,-13.43622 48.89571,-25.943019 73.34201,-38.916029 24.4464,-12.97301 24.2484,-15.747144 36.3711,-23.622215 12.1226,-7.8750715 11.7526,5.567452 17.6274,8.349679 5.8747,2.782226 5.0006,20.866309 7.4994,31.297963 2.4989,10.431655 7.2663,19.834859 10.8979,29.750789 3.6317,9.915929 25.4384,78.34197 38.1561,117.51146 12.7176,39.16949 21.4045,203.50788 32.1053,305.26032 10.7008,101.75244 0.1076,10.9131 0.1598,16.36815 0.052,5.45505 -6.2146,2.15177 -9.3235,3.22616 -3.1088,1.07439 -8.5094,11.03371 -12.7656,16.54906 -4.2562,5.51535 -8.6084,17.80596 -12.9141,26.70744 -4.3057,8.90147 -4.0992,61.5886 -6.1503,92.3814 -2.0512,30.7928 -8.2555,133.90301 -12.3847,200.85301" />
  </g>
</svg>
