<?xml version="1.0" encoding="UTF-8" standalone="no"?>
<!-- Created with Inkscape (http://www.inkscape.org/) -->

<svg
   version="1.1"
   id="svg2"
   width="1893"
   height="1024"
   viewBox="0 0 1893 1024"
   sodipodi:docname="frame_0097.svg"
   inkscape:version="1.1.2 (0a00cf5339, 2022-02-04)"
   xmlns:inkscape="http://www.inkscape.org/namespaces/inkscape"
   xmlns:sodipodi="http://sodipodi.sourceforge.net/DTD/sodipodi-0.dtd"
   xmlns:xlink="http://www.w3.org/1999/xlink"
   xmlns="http://www.w3.org/2000/svg"
   xmlns:svg="http://www.w3.org/2000/svg">
  <defs
     id="defs6">
    <inkscape:path-effect
       effect="spiro"
       id="path-effect899"
       is_visible="true"
       lpeversion="1" />
    <inkscape:path-effect
       effect="spiro"
       id="path-effect862"
       is_visible="true"
       lpeversion="1" />
  </defs>
  <sodipodi:namedview
     id="namedview4"
     pagecolor="#ffffff"
     bordercolor="#666666"
     borderopacity="1.0"
     inkscape:pageshadow="2"
     inkscape:pageopacity="0.0"
     inkscape:pagecheckerboard="0"
     showgrid="false"
     inkscape:zoom="0.6703645"
     inkscape:cx="778.68085"
     inkscape:cy="686.93972"
     inkscape:window-width="1850"
     inkscape:window-height="1016"
     inkscape:window-x="70"
     inkscape:window-y="27"
     inkscape:window-maximized="1"
     inkscape:current-layer="g8" />
  <g
     inkscape:groupmode="layer"
     inkscape:label="Image"
     id="g8">
    
    <path
       style="font-variation-settings:normal;opacity:1;vector-effect:none;fill:none;fill-opacity:1;stroke:#c86487;stroke-width:1px;stroke-linecap:butt;stroke-linejoin:miter;stroke-miterlimit:4;stroke-dasharray:none;stroke-dashoffset:0;stroke-opacity:1;-inkscape-stroke:none;stop-color:#000000;stop-opacity:1"
       d="M 1161.1682,863.70294 H 635.71179"
       id="path860"
       inkscape:path-effect="#path-effect862"
       inkscape:original-d="M 1161.1682,863.70294 H 635.71179" />
    <path
       style="font-variation-settings:normal;opacity:1;vector-effect:none;fill:none;fill-opacity:1;stroke:#c86487;stroke-width:1px;stroke-linecap:butt;stroke-linejoin:miter;stroke-miterlimit:4;stroke-dasharray:none;stroke-dashoffset:0;stroke-opacity:1;-inkscape-stroke:none;stop-color:#000000;stop-opacity:1"
       d="m 635.71179,863.70294 c 3.69629,-42.36906 2.14284,-85.19348 -4.61355,-127.18337 -7.29362,-45.32869 -20.6562,-90.09601 -20.2054,-136.00553 0.5911,-60.19749 24.78947,-117.32197 48.21723,-172.7767 9.56021,-22.62953 19.06916,-45.31212 26.81635,-68.62465 10.96846,-33.00585 18.41262,-67.28493 32.56759,-99.05488 4.68228,-10.50908 10.08968,-20.71987 13.92077,-31.56824 3.8311,-10.84838 6.05071,-22.55595 4.0784,-33.89061 -0.97204,-5.58623 -2.93584,-10.94944 -4.21098,-16.47437 -1.27515,-5.52493 -1.83606,-11.41988 -0.0151,-16.78972 1.0749,-3.16987 2.94726,-6.03391 5.21646,-8.49443 2.2692,-2.46053 4.93127,-4.53254 7.72263,-6.37963 5.58272,-3.6942 11.71859,-6.52793 17.11828,-10.48484 8.22214,-6.02522 14.42988,-14.42322 22.41948,-20.75355 3.9948,-3.16516 8.48015,-5.81874 13.40731,-7.12249 4.92716,-1.30375 10.33538,-1.17592 14.94779,0.99258 2.82118,1.32636 5.26159,3.36272 7.38073,5.64909 2.11914,2.28638 3.9391,4.82944 5.76396,7.35692 22.46797,31.11875 46.69943,61.15712 65.36428,94.6953 0.2376,0.42693 0.47506,0.85564 0.76262,1.25065 1.01779,1.3981 2.65087,2.30533 4.36472,2.53618 1.71385,0.23085 3.4905,-0.19293 4.97447,-1.08086 1.61553,-0.96665 2.89787,-2.48452 3.56327,-4.24566 0.65961,-1.74583 0.7101,-3.68979 0.30905,-5.51247 -0.40105,-1.82268 -1.23797,-3.53024 -2.2911,-5.07099 -2.10625,-3.08151 -5.0345,-5.48727 -7.6624,-8.13795 -10.80217,-10.89583 -16.49106,-25.88825 -26.43626,-37.57153 -4.51794,-5.30752 -9.85112,-9.85586 -14.65121,-14.90964 -4.8001,-5.05378 -9.15523,-10.7882 -11.1048,-17.48004 -0.7583,-2.60285 -1.139,-5.32833 -0.9718,-8.03423 0.16719,-2.70591 0.89216,-5.39238 2.24041,-7.74442 0.61408,-1.07128 1.35241,-2.06786 1.95729,-3.14435 0.60489,-1.0765 1.08039,-2.26222 1.10088,-3.49685 0.0187,-1.12698 -0.34996,-2.24479 -0.96641,-3.18841 -0.61646,-0.94363 -1.47275,-1.717861 -2.43074,-2.311749 -1.91598,-1.187775 -4.18457,-1.650279 -6.41185,-1.998151 -4.33503,-0.677075 -8.806,-1.022442 -12.81374,-2.808179 -2.8238,-1.258203 -5.35227,-3.238326 -7.08246,-5.80023 -1.73019,-2.561904 -2.62852,-5.714661 -2.30634,-8.789251 0.23764,-2.267833 1.12583,-4.448062 2.43936,-6.311976 1.31353,-1.863914 3.04347,-3.417136 4.97228,-4.633382 3.85761,-2.43249 8.42376,-3.49859 12.95177,-4.041977 4.98968,-0.59879 10.10806,-0.602548 14.9753,0.64864 4.86724,1.251188 9.48482,3.830614 12.6257,7.753669 2.12191,2.650325 3.51075,5.818866 4.52339,9.059436 1.01263,3.24057 1.67002,6.579316 2.47966,9.876466 0.58373,2.377169 1.24816,4.739459 1.6344,7.156585 0.38624,2.417129 0.48838,4.911019 -0.0522,7.298369 -0.54792,2.4198 -1.73541,4.65162 -2.36601,7.0512 -0.3153,1.19979 -0.48948,2.44973 -0.3614,3.68363 0.12809,1.2339 0.57356,2.45447 1.3874,3.39073 1.0816,1.24429 2.72981,1.89083 4.37079,2.04993 1.64098,0.1591 3.2918,-0.12376 4.90163,-0.47953 6.82272,-1.5078 13.28912,-4.33097 19.48578,-7.55965 14.47885,-7.54398 27.73405,-17.373672 42.61,-24.100857 25.15056,-11.37356 53.70874,-13.346168 79.02887,-24.337052 33.1487,-14.389106 58.3427,-43.133027 91.2134,-58.1463847 1.3924,-0.6359565 2.8024,-1.2483041 4.2777,-1.6563675 1.4754,-0.4080634 3.0257,-0.6079661 4.5431,-0.4063663 2.0474,0.2720118 3.9614,1.2750323 5.4877,2.6664593 1.5264,1.391427 2.6807,3.1573092 3.5289,5.0404802 1.6964,3.76634 2.1863,7.941524 3.0171,11.987879 4.4619,21.732247 18.7874,39.912847 28.3965,59.90946 13.5124,28.119549 17.599,59.655689 23.1951,90.347369 8.7268,47.86213 21.5243,95.00125 27.7859,143.24783 4.6913,36.14722 5.6796,72.66459 8.8846,108.97378 2.6489,30.00946 6.7884,60.52303 0.6251,90.01199 -1.3448,6.43415 -3.1855,12.79713 -6.0158,18.72978 -2.3041,4.82975 -5.2457,9.33561 -8.4901,13.59114 -4.7507,6.23142 -10.1741,11.95967 -16.2269,16.93598 -7.7326,6.3574 -16.693,11.71244 -21.9945,20.20388 -3.822,6.12172 -5.3994,13.41702 -5.7827,20.6237 -0.3833,7.20667 0.3597,14.41825 0.8389,21.61918 0.5431,8.16129 0.7478,16.34108 0.9131,24.51875 1.4133,69.93555 -0.051,139.9292 -4.3872,209.74448"
       id="path897"
       inkscape:path-effect="#path-effect899"
       inkscape:original-d="m 635.71179,863.70294 c -1.53685,-42.39346 -3.0747,-84.78791 -4.61355,-127.18337 -1.53885,-42.39546 -13.46927,-90.66936 -20.2054,-136.00553 -6.73613,-45.33618 32.14582,-115.18347 48.21723,-172.7767 16.07141,-57.59323 17.87857,-45.74876 26.81635,-68.62465 8.93778,-22.87588 21.71273,-66.03559 32.56759,-99.05488 10.85487,-33.0193 12.00045,-43.63823 17.99917,-65.45885 5.99872,-21.82061 -2.81642,-22.17506 -4.22613,-33.26409 -1.40971,-11.08904 20.03925,-16.90494 30.05737,-25.3589 10.01812,-8.45397 33.85072,-17.92131 50.77458,-26.88346 16.92386,-8.96216 8.76413,8.67167 13.14469,13.00601 4.38056,4.33434 43.57719,63.1312 65.36428,94.6953 21.7871,31.5641 0.50942,0.83477 0.76262,1.25065 0.25321,0.41589 6.22713,0.97122 9.33919,1.45532 3.11207,0.48411 2.37651,-2.82944 3.56327,-4.24566 1.18675,-1.41623 -6.42863,-12.47994 -9.64445,-18.72141 -3.21582,-6.24146 -17.62317,-25.04668 -26.43626,-37.57153 -8.81308,-12.52484 -17.16967,-21.59212 -25.75601,-32.38968 -8.58634,-10.79756 0.84674,-10.5181 1.26861,-15.77865 0.42188,-5.26055 2.03978,-4.42647 3.05817,-6.6412 1.01839,-2.21473 -6.53833,-4.997873 -9.809,-7.49831 -3.27067,-2.500437 -8.5415,-1.871119 -12.81374,-2.808179 -4.27225,-0.93706 -6.2582,-9.72532 -9.3888,-14.589481 -3.1306,-4.86416 13.57661,-9.990557 20.36341,-14.987335 6.78681,-4.996779 18.40167,5.602539 27.601,8.402309 9.19933,2.79977 4.6697,12.624935 7.00305,18.935902 2.33335,6.310967 1.05581,9.637634 1.58221,14.454954 0.52641,4.81732 -0.89234,9.41804 -1.34001,14.12556 -0.44768,4.70752 6.18261,1.04793 9.27242,1.5704 3.08981,0.52247 12.99152,-5.03877 19.48578,-7.55965 6.49426,-2.52088 28.40766,-16.066238 42.61,-24.100857 14.20233,-8.034619 52.68688,-16.223701 79.02887,-24.337052 26.3419,-8.113351 60.8099,-38.763257 91.2134,-58.1463847 30.4035,-19.3831283 5.8816,-1.3741559 8.8208,-2.0627338 2.9393,-0.6885779 8.0235,13.1308795 12.0337,19.6948185 4.0102,6.56394 18.932,39.94064 28.3965,59.90946 9.4645,19.968819 15.4644,60.232579 23.1951,90.347369 7.7306,30.11478 18.5249,95.49955 27.7859,143.24783 9.261,47.74828 5.924,72.65018 8.8846,108.97378 2.9605,36.32359 0.4177,60.00899 0.6251,90.01199 0.2074,30.00299 -4.0095,12.48752 -6.0158,18.72978 -2.0062,6.24227 -5.659,9.06176 -8.4901,13.59114 -2.831,4.52938 -10.8169,11.29166 -16.2269,16.93598 -5.41,5.64433 -14.662,13.47025 -21.9945,20.20388 -7.3325,6.73362 -3.2948,28.16292 -4.9438,42.24288 -1.6489,14.07996 0.6098,16.34684 0.9131,24.51875 0.3034,8.17192 -2.9238,139.83065 -4.3872,209.74448" />
  </g>
</svg>
