<?xml version="1.0" encoding="UTF-8" standalone="no"?>
<!-- Created with Inkscape (http://www.inkscape.org/) -->

<svg
   version="1.1"
   id="svg2"
   width="1893"
   height="1024"
   viewBox="0 0 1893 1024"
   sodipodi:docname="frame_0023.svg"
   inkscape:version="1.1.2 (0a00cf5339, 2022-02-04)"
   xmlns:inkscape="http://www.inkscape.org/namespaces/inkscape"
   xmlns:sodipodi="http://sodipodi.sourceforge.net/DTD/sodipodi-0.dtd"
   xmlns:xlink="http://www.w3.org/1999/xlink"
   xmlns="http://www.w3.org/2000/svg"
   xmlns:svg="http://www.w3.org/2000/svg">
  <defs
     id="defs6">
    <inkscape:path-effect
       effect="spiro"
       id="path-effect899"
       is_visible="true"
       lpeversion="1" />
    <inkscape:path-effect
       effect="spiro"
       id="path-effect862"
       is_visible="true"
       lpeversion="1" />
  </defs>
  <sodipodi:namedview
     id="namedview4"
     pagecolor="#ffffff"
     bordercolor="#666666"
     borderopacity="1.0"
     inkscape:pageshadow="2"
     inkscape:pageopacity="0.0"
     inkscape:pagecheckerboard="0"
     showgrid="false"
     inkscape:zoom="0.6703645"
     inkscape:cx="926.3617"
     inkscape:cy="904.73168"
     inkscape:window-width="1850"
     inkscape:window-height="1016"
     inkscape:window-x="70"
     inkscape:window-y="27"
     inkscape:window-maximized="1"
     inkscape:current-layer="g8" />
  <g
     inkscape:groupmode="layer"
     inkscape:label="Image"
     id="g8">
    
    <path
       style="font-variation-settings:normal;opacity:1;vector-effect:none;fill:none;fill-opacity:1;stroke:#c86487;stroke-width:1px;stroke-linecap:butt;stroke-linejoin:miter;stroke-miterlimit:4;stroke-dasharray:none;stroke-dashoffset:0;stroke-opacity:1;-inkscape-stroke:none;stop-color:#000000;stop-opacity:1"
       d="M 1160.6495,862.78905 635.21,862.69148"
       id="path860"
       inkscape:path-effect="#path-effect862"
       inkscape:original-d="M 1160.6495,862.78905 635.21,862.69148" />
    <path
       style="font-variation-settings:normal;opacity:1;vector-effect:none;fill:none;fill-opacity:1;stroke:#c86487;stroke-width:1px;stroke-linecap:butt;stroke-linejoin:miter;stroke-miterlimit:4;stroke-dasharray:none;stroke-dashoffset:0;stroke-opacity:1;-inkscape-stroke:none;stop-color:#000000;stop-opacity:1"
       d="m 635.21,862.69148 c -38.17765,-38.53551 -60.51484,-92.32004 -60.86927,-146.56387 -0.21944,-33.58443 7.58141,-66.62066 12.99219,-99.76708 5.92359,-36.28793 9.02191,-73.07933 17.28077,-108.908 11.41301,-49.51205 32.43294,-96.17738 50.45059,-143.68595 10.82916,-28.55411 20.67808,-57.84581 23.49217,-88.25451 0.26887,-2.90534 0.47597,-5.83481 1.21291,-8.65796 0.73693,-2.82316 2.05075,-5.57249 4.21103,-7.53373 2.13739,-1.94045 4.92128,-2.96789 7.48777,-4.2896 1.28325,-0.66085 2.53305,-1.40976 3.6069,-2.37427 1.07386,-0.96452 1.96975,-2.15815 2.43026,-3.52613 0.40843,-1.21328 0.46232,-2.53098 0.25265,-3.79387 -0.20966,-1.26289 -0.67636,-2.47389 -1.28016,-3.60273 -1.20761,-2.25768 -2.94422,-4.1781 -4.50734,-6.20593 -8.0107,-10.39227 -11.48235,-24.41898 -8.20999,-37.12576 3.17861,-12.34275 12.11633,-22.3878 21.80671,-30.66691 16.93389,-14.4677 36.85879,-25.02424 57.26224,-33.95564 1.71935,-0.75263 3.45476,-1.4984 5.28272,-1.92404 1.82796,-0.42563 3.771,-0.51823 5.56517,0.0327 2.13774,0.65647 3.91856,2.18007 5.31461,3.92705 1.39605,1.74698 2.4591,3.73026 3.61258,5.64608 5.3504,8.8865 12.70359,16.39655 20.43814,23.30837 7.94393,7.09892 16.36337,13.66235 24.11232,20.97361 7.74894,7.31127 14.88312,15.46797 19.65436,24.99352 0.76824,1.53375 1.48062,3.11135 2.50999,4.48356 1.02936,1.37222 2.42995,2.54592 4.10221,2.92818 1.03853,0.2374 2.13892,0.15658 3.15352,-0.1682 1.01459,-0.32479 1.94499,-0.88782 2.74874,-1.58702 1.21672,-1.05845 2.16466,-2.46797 2.493,-4.04687 0.27567,-1.32564 0.10554,-2.72342 -0.3699,-3.9912 -0.47545,-1.26778 -1.24648,-2.41104 -2.15663,-3.41352 -1.82028,-2.00494 -4.16378,-3.44205 -6.34673,-5.04453 -7.16655,-5.26089 -12.69835,-12.39286 -18.19939,-19.37677 -19.42081,-24.65591 -39.66942,-48.65993 -58.66823,-73.64246 -1.65733,-2.17931 -3.34704,-4.45385 -3.95527,-7.123342 -0.46276,-2.031058 -0.25855,-4.181047 0.38699,-6.16161 0.64554,-1.980563 1.71848,-3.801604 2.97724,-5.461382 2.26995,-2.99311 5.21587,-5.532063 8.68322,-6.97736 3.46735,-1.445298 7.47451,-1.734379 10.99993,-0.43715 2.58813,0.95234 4.81719,2.699035 6.74698,4.669128 1.9298,1.970092 3.59748,4.177624 5.38477,6.277851 6.40779,7.529722 14.41437,13.757475 19.66919,22.132635 2.07008,3.29929 3.68839,6.89812 6.12115,9.93988 1.21637,1.52088 2.63913,2.89625 4.30513,3.90475 1.666,1.0085 3.58651,1.63889 5.53396,1.63113 2.14895,-0.009 4.23523,-0.78627 6.09632,-1.86069 1.8611,-1.07442 3.53218,-2.44247 5.23591,-3.75218 16.33993,-12.56104 35.95027,-19.94674 55.00802,-27.793729 19.939,-8.209844 39.61713,-17.115002 58.52135,-27.487829 28.38302,-15.573887 54.8515,-34.358338 81.9848,-52.019782 2.0253,-1.318287 4.0959,-2.649376 6.4264,-3.28845 2.2463,-0.615978 4.6543,-0.552604 6.9081,0.03531 2.2538,0.587911 4.3569,1.687989 6.2218,3.083509 3.7297,2.791039 6.4651,6.688495 8.9416,10.63409 10.5923,16.875721 17.5676,35.724532 24.3004,54.477023 7.8223,21.787082 15.421,43.660342 22.2612,65.775422 9.5214,30.7838 17.563,62.00261 25.5187,93.2277 9.9051,38.87594 19.7154,77.96497 23.547,117.89952 4.6555,48.52233 0.4812,98.15457 12.0613,145.50424 0.169,0.6909 0.3417,1.3835 0.4195,2.09049 0.078,0.70699 0.058,1.43384 -0.1522,2.1133 -0.2078,0.67141 -0.5986,1.28022 -1.0951,1.77773 -0.4964,0.49751 -1.0964,0.88586 -1.7382,1.17247 -1.2834,0.57323 -2.7104,0.73839 -4.1149,0.79521 -2.2116,0.0895 -4.4275,-0.0722 -6.6394,0.0104 -2.2119,0.0825 -4.4616,0.42487 -6.4232,1.45035 -2.8943,1.5131 -4.8859,4.38911 -6.0056,7.45714 -1.1197,3.06804 -1.4666,6.35496 -1.8069,9.60315 -3.9197,37.41412 -8.1126,74.82183 -10.1755,112.38411 -4.0402,73.56685 0.1336,147.5818 12.4189,220.22804"
       id="path897"
       inkscape:path-effect="#path-effect899"
       inkscape:original-d="m 635.21,862.69148 c -20.28876,-48.85362 -40.57851,-97.70825 -60.86927,-146.56387 -20.29075,-48.85562 8.66246,-66.51039 12.99219,-99.76708 4.32973,-33.2567 11.52151,-72.60433 17.28077,-108.908 5.75925,-36.30367 33.63472,-95.78963 50.45059,-143.68595 16.81586,-47.89632 15.66245,-58.83534 23.49217,-88.25451 7.82973,-29.41917 3.61696,-10.79346 5.42394,-16.19169 1.80698,-5.39822 9.01762,-6.79233 13.52493,-10.19 4.5073,-3.39767 -3.6889,-9.06735 -5.53485,-13.60253 -1.84595,-4.53517 -5.47233,-24.74951 -8.20999,-37.12576 -2.73766,-12.37626 14.53881,-20.44361 21.80671,-30.66691 7.26791,-10.2233 38.17583,-22.63609 57.26224,-33.95564 19.08642,-11.31955 7.23293,-1.25988 10.84789,-1.89131 3.61497,-0.63144 5.95246,6.38308 8.92719,9.57313 2.97473,3.19004 13.62642,15.53992 20.43814,23.30837 6.81171,7.76846 29.17879,30.64575 43.76668,45.96713 14.58789,15.32137 4.40914,4.94216 6.6122,7.41174 2.20307,2.46958 3.93584,-1.16915 5.90226,-1.75522 1.96642,-0.58607 1.663,-2.69691 2.493,-4.04687 0.83,-1.34995 -5.9145,-8.2985 -8.87326,-12.44925 -2.95875,-4.15075 -12.13192,-12.91685 -18.19939,-19.37677 -6.06746,-6.45993 -39.11115,-49.09397 -58.66823,-73.64246 -19.55708,-24.548481 -2.63585,-4.74789 -3.95527,-7.123342 -1.31943,-2.375448 2.24382,-7.747661 3.36423,-11.622992 1.12041,-3.875331 13.1231,-4.942007 19.68315,-7.41451 6.56005,-2.472504 8.08883,7.298986 12.13175,10.946979 4.04291,3.647994 13.11379,14.756085 19.66919,22.132635 6.5554,7.37654 10.64116,10.31817 15.96024,15.47576 5.31907,5.15759 7.55582,-3.74091 11.33223,-5.61287 3.77641,-1.87196 36.67301,-18.52815 55.00802,-27.793729 18.33501,-9.265576 39.01524,-18.32422 58.52135,-27.487829 19.50612,-9.16361 54.6576,-34.678855 81.9848,-52.019782 27.3273,-17.34092783 4.2853,-2.1913 6.4264,-3.28845 2.1411,-1.09715 14.7154,9.169603 22.0715,13.752905 7.3562,4.583302 16.2013,36.319016 24.3004,54.477023 8.0992,18.158008 14.8418,43.851282 22.2612,65.775422 7.4194,21.92414 17.0135,62.1528 25.5187,93.2277 8.5053,31.0749 15.699,78.60068 23.547,117.89952 7.848,39.29884 8.0419,97.00383 12.0613,145.50424 4.0195,48.50042 0.1792,2.80353 0.2673,4.20379 0.088,1.40026 -4.6312,2.49794 -6.9482,3.74541 -2.3171,1.24747 -8.7074,0.9748 -13.0626,1.4607 -4.3551,0.4859 -5.2073,11.37453 -7.8125,17.06029 -2.6052,5.68577 -6.7826,74.92374 -10.1755,112.38411 -3.3928,37.46037 8.2803,146.81969 12.4189,220.22804" />
  </g>
</svg>
