<?xml version="1.0" encoding="UTF-8" standalone="no"?>
<!-- Created with Inkscape (http://www.inkscape.org/) -->

<svg
   version="1.1"
   id="svg2"
   width="1893"
   height="1024"
   viewBox="0 0 1893 1024"
   sodipodi:docname="frame_0160.svg"
   inkscape:version="1.1.2 (0a00cf5339, 2022-02-04)"
   xmlns:inkscape="http://www.inkscape.org/namespaces/inkscape"
   xmlns:sodipodi="http://sodipodi.sourceforge.net/DTD/sodipodi-0.dtd"
   xmlns:xlink="http://www.w3.org/1999/xlink"
   xmlns="http://www.w3.org/2000/svg"
   xmlns:svg="http://www.w3.org/2000/svg">
  <defs
     id="defs6">
    <inkscape:path-effect
       effect="spiro"
       id="path-effect899"
       is_visible="true"
       lpeversion="1" />
    <inkscape:path-effect
       effect="spiro"
       id="path-effect862"
       is_visible="true"
       lpeversion="1" />
  </defs>
  <sodipodi:namedview
     id="namedview4"
     pagecolor="#ffffff"
     bordercolor="#666666"
     borderopacity="1.0"
     inkscape:pageshadow="2"
     inkscape:pageopacity="0.0"
     inkscape:pagecheckerboard="0"
     showgrid="false"
     inkscape:zoom="1.340729"
     inkscape:cx="1021.8322"
     inkscape:cy="338.99468"
     inkscape:window-width="1850"
     inkscape:window-height="1016"
     inkscape:window-x="70"
     inkscape:window-y="27"
     inkscape:window-maximized="1"
     inkscape:current-layer="g8" />
  <g
     inkscape:groupmode="layer"
     inkscape:label="Image"
     id="g8">
    
    <path
       style="font-variation-settings:normal;opacity:1;vector-effect:none;fill:none;fill-opacity:1;stroke:#c86487;stroke-width:1px;stroke-linecap:butt;stroke-linejoin:miter;stroke-miterlimit:4;stroke-dasharray:none;stroke-dashoffset:0;stroke-opacity:1;-inkscape-stroke:none;stop-color:#000000;stop-opacity:1"
       d="M 1161.6033,862.56692 H 635.30076"
       id="path860"
       inkscape:path-effect="#path-effect862"
       inkscape:original-d="M 1161.6033,862.56692 H 635.30076" />
    <path
       style="font-variation-settings:normal;opacity:1;vector-effect:none;fill:none;fill-opacity:1;stroke:#c86487;stroke-width:1px;stroke-linecap:butt;stroke-linejoin:miter;stroke-miterlimit:4;stroke-dasharray:none;stroke-dashoffset:0;stroke-opacity:1;-inkscape-stroke:none;stop-color:#000000;stop-opacity:1"
       d="m 635.30076,862.56692 c -11.39785,-24.83777 -18.22981,-51.76211 -20.05343,-79.02931 -2.9328,-43.8519 6.96529,-87.56802 7.3852,-131.51588 0.35122,-36.75874 -5.8971,-73.99041 1.44652,-110.00985 5.67864,-27.85296 19.24674,-53.56545 25.53545,-81.28704 2.63293,-11.60638 3.96584,-23.46545 6.15395,-35.16384 2.18811,-11.6984 5.29274,-23.38591 11.16059,-33.74007 7.71697,-13.61703 19.86744,-24.3371 27.38317,-38.06623 7.5761,-13.83942 9.97287,-29.82875 14.89263,-44.81951 7.89157,-24.04604 22.42274,-45.91577 26.90274,-70.82397 2.11454,-11.75654 1.90239,-23.78747 1.9425,-35.73259 0.0622,-18.53131 0.96321,-37.87617 9.9921,-54.05926 7.83346,-14.04044 21.06066,-24.2793 34.89734,-32.46728 6.08893,-3.60318 12.39726,-6.90332 19.10069,-9.16653 6.70342,-2.26321 13.83682,-3.46932 20.88164,-2.81473 9.73753,0.90479 19.00912,5.4084 26.14822,12.09207 7.12538,6.67083 12.10308,15.30362 16.29994,24.11596 4.95139,10.39666 8.97116,21.24074 14.44863,31.37011 4.77106,8.82301 10.67279,17.1038 18.02365,23.92827 5.0591,4.69682 10.99895,8.77303 17.77552,10.0894 1.10556,0.21476 2.24514,0.35415 3.35606,0.16906 0.55545,-0.0925 1.09974,-0.26697 1.59134,-0.54161 0.4916,-0.27464 0.92966,-0.65128 1.25056,-1.11401 0.50122,-0.72275 0.69628,-1.6267 0.67214,-2.50591 -0.0242,-0.8792 -0.25466,-1.74049 -0.54364,-2.5712 -1.23852,-3.56028 -3.54582,-6.65386 -6.09353,-9.43212 -2.5477,-2.77825 -5.36535,-5.30117 -7.87666,-8.11236 -8.365,-9.3639 -13.04997,-21.5899 -21.60151,-30.78375 -4.3668,-4.69479 -9.72072,-8.57764 -13.06047,-14.05085 -3.92339,-6.42968 -4.59626,-14.258 -5.17267,-21.7681 -0.51309,-6.68509 -1.08792,-13.58535 -4.21924,-19.513973 -1.90604,-3.608763 -4.80308,-6.785164 -8.50144,-8.510944 -3.07663,-1.43566 -6.52704,-1.809276 -9.9082,-2.116684 -3.38117,-0.307408 -6.82627,-0.581856 -9.97733,-1.845804 -2.43286,-0.975865 -4.64361,-2.546662 -6.25651,-4.612983 -1.6129,-2.066322 -2.60821,-4.634222 -2.67054,-7.254766 -0.0715,-3.004409 1.08822,-5.979584 2.99172,-8.305151 1.9035,-2.325567 4.51546,-4.02009 7.33866,-5.050199 5.6464,-2.060217 11.9041,-1.49801 17.79948,-0.327187 6.10282,1.21202 12.13108,3.068009 17.54316,6.137646 5.41209,3.069636 10.19948,7.412023 13.19359,12.866258 2.72869,4.970734 3.87351,10.627789 5.08869,16.166496 0.9921,4.521902 2.05473,9.032021 2.80263,13.600661 0.17191,1.05012 0.32779,2.1061 0.61623,3.13036 0.28843,1.02426 0.71604,2.0235 1.38078,2.85442 0.87547,1.09432 2.15239,1.85641 3.52809,2.12368 1.76063,0.34205 3.60037,-0.11503 5.2021,-0.92203 1.60173,-0.80701 3.00688,-1.94765 4.4099,-3.06494 11.0709,-8.81629 22.98344,-16.795877 36.19311,-21.8749 7.1479,-2.748318 14.59671,-4.618054 22.00896,-6.542712 8.68986,-2.256401 17.36397,-4.598664 26.16172,-6.388811 6.81767,-1.387243 13.71831,-2.445146 20.39231,-4.410392 6.674,-1.965246 13.1925,-4.905013 18.3368,-9.589187 4.2965,-3.912215 7.4656,-8.8732 10.873,-13.580109 3.4073,-4.706909 7.2327,-9.325614 12.3341,-12.107934 3.608,-1.967815 7.6845,-2.91738 11.7534,-3.495578 4.0688,-0.578198 8.183,-0.806695 12.2428,-1.445478 6.7661,-1.064608 13.3196,-3.262231 19.5682,-6.067343 4.9954,-2.242551 9.832,-4.888578 14.1935,-8.199245 2.3044,-1.749208 4.472,-3.680301 6.8568,-5.318311 2.3847,-1.6380104 5.0354,-2.992723 7.8982,-3.4102224 3.2852,-0.4790936 6.6755,0.3187544 9.6245,1.8436167 2.9491,1.5248627 5.4899,3.7452967 7.7444,6.1823327 5.0203,5.426685 8.7081,11.953041 11.8049,18.665882 2.5849,5.603255 4.7879,11.373781 6.9446,17.15538 9.4195,25.251719 18.0015,50.833311 25.0044,76.858961 6.4424,23.94255 11.5405,48.23117 15.9274,72.63417 6.1499,34.21039 10.9056,68.65433 16.4533,102.96752 3.4949,21.61653 7.3129,43.26409 8.0325,65.14949 0.6731,20.47163 -1.3731,40.92992 -1.7208,61.40966 -0.3476,20.47974 1.0839,41.35332 8.3894,60.48891 1.8529,4.85344 4.0953,9.64644 4.735,14.80202 0.3198,2.57778 0.2234,5.23107 -0.5238,7.71885 -0.7471,2.48777 -2.171,4.80456 -4.2112,6.41237 -2.5188,1.98501 -5.7695,2.77015 -8.9446,3.22149 -3.175,0.45135 -6.4183,0.62918 -9.4673,1.62325 -3.0087,0.98092 -5.7377,2.74098 -8.005,4.94859 -2.2673,2.20761 -4.0822,4.85527 -5.4936,7.68763 -2.8228,5.66471 -4.0253,11.98368 -4.9756,18.24097 -4.5566,30.00246 -3.9988,60.50681 -4.9127,90.83954 -2.1976,72.93795 -13.0017,145.6129 -32.1166,216.03586"
       id="path897"
       inkscape:path-effect="#path-effect899"
       inkscape:original-d="m 635.30076,862.56692 c -6.68348,-26.3421 -13.36795,-52.68521 -20.05343,-79.02931 -6.68547,-26.3441 4.92447,-87.67625 7.3852,-131.51588 2.46074,-43.83962 0.96535,-73.3389 1.44652,-110.00985 0.48118,-36.67096 17.02464,-54.19036 25.53545,-81.28704 8.51082,-27.09668 11.54403,-45.93494 17.31454,-68.90391 5.77052,-22.96897 18.25645,-25.37649 27.38317,-38.06623 9.12673,-12.68974 9.92942,-29.87868 14.89263,-44.81951 4.96321,-14.94084 17.93616,-47.21498 26.90274,-70.82397 8.96657,-23.60899 1.296,-23.82073 1.9425,-35.73259 0.6465,-11.91186 6.6624,-36.03851 9.9921,-54.05926 3.3297,-18.02076 23.26589,-21.64385 34.89734,-32.46728 11.63144,-10.82342 26.65588,-7.9865 39.98233,-11.98126 13.32644,-3.994755 17.43314,8.06238 26.14822,12.09207 8.71507,4.02969 10.86763,16.07831 16.29994,24.11596 5.43231,8.03766 9.63342,20.91441 14.44863,31.37011 4.81521,10.4557 12.01677,15.95318 18.02365,23.92827 6.00688,7.97509 11.85135,6.72727 17.77552,10.0894 5.92418,3.36213 4.13297,-0.99004 6.19796,-1.48656 2.06498,-0.49652 0.0867,-3.38374 0.1285,-5.07711 0.0418,-1.69337 -9.31246,-11.69532 -13.97019,-17.54448 -4.65773,-5.84916 -14.4,-20.5215 -21.60151,-30.78375 -7.2015,-10.26226 -8.70598,-9.36624 -13.06047,-14.05085 -4.3545,-4.68462 -3.44745,-14.51107 -5.17267,-21.7681 -1.72522,-7.25703 -2.81182,-13.00832 -4.21924,-19.513973 -1.40741,-6.505658 -5.66662,-5.672963 -8.50144,-8.510944 -2.83481,-2.837981 -13.25602,-2.640659 -19.88553,-3.962488 -6.62951,-1.32183 -5.95036,-7.910833 -8.92705,-11.867749 -2.97668,-3.956916 18.75424,-9.120691 28.12986,-13.682537 9.37562,-4.561846 20.49216,12.670269 30.73675,19.003904 10.24458,6.333634 3.39346,10.778664 5.08869,16.166496 1.69523,5.387832 1.86942,9.068111 2.80263,13.600661 0.93321,4.53255 1.33234,3.99085 1.99701,5.98478 0.66468,1.99392 2.35306,1.41679 3.52809,2.12368 1.17502,0.7069 6.409,-2.65698 9.612,-3.98697 3.203,-1.32999 24.12974,-14.582266 36.19311,-21.8749 12.06338,-7.292634 14.67364,-4.360808 22.00896,-6.542712 7.33532,-2.181904 17.44214,-4.258207 26.16172,-6.388811 8.71961,-2.130603 25.82041,-9.332052 38.72911,-13.999579 12.9087,-4.667526 15.4724,-17.124362 23.2071,-25.688043 7.7347,-8.563682 15.9984,-3.293037 23.9962,-4.941056 7.9977,-1.648018 13.0465,-4.043895 19.5682,-6.067343 6.5217,-2.023447 9.4633,-5.465163 14.1935,-8.199245 4.7301,-2.734082 9.8377,-5.818022 14.755,-8.7285334 4.9174,-2.9105111 11.5803,5.3516334 17.3689,8.0259494 5.7886,2.674316 7.8709,12.444921 11.8049,18.665882 3.934,6.220961 4.6307,11.43792 6.9446,17.15538 2.3138,5.71746 16.6706,51.240311 25.0044,76.858961 8.3338,25.61865 10.6192,48.42378 15.9274,72.63417 5.3081,24.21039 10.9699,68.64601 16.4533,102.96752 5.4834,34.32151 5.356,43.43399 8.0325,65.14949 2.6765,21.71549 4.4467,81.26671 6.6686,121.89857 2.2218,40.63186 10e-4,19.28983 0,28.93324 -10e-4,9.64341 -12.2736,3.23082 -18.4119,4.84474 -6.1383,1.61391 -12.3151,20.58579 -18.4742,30.87719 -6.159,10.2914 -3.2742,60.56069 -4.9127,90.83954 -1.6386,30.27884 -21.4101,144.02491 -32.1166,216.03586" />
  </g>
</svg>
