<?xml version="1.0" encoding="UTF-8" standalone="no"?>
<!-- Created with Inkscape (http://www.inkscape.org/) -->

<svg
   version="1.1"
   id="svg2"
   width="1893"
   height="1024"
   viewBox="0 0 1893 1024"
   sodipodi:docname="frame_0130.svg"
   inkscape:version="1.1.2 (0a00cf5339, 2022-02-04)"
   xmlns:inkscape="http://www.inkscape.org/namespaces/inkscape"
   xmlns:sodipodi="http://sodipodi.sourceforge.net/DTD/sodipodi-0.dtd"
   xmlns:xlink="http://www.w3.org/1999/xlink"
   xmlns="http://www.w3.org/2000/svg"
   xmlns:svg="http://www.w3.org/2000/svg">
  <defs
     id="defs6">
    <inkscape:path-effect
       effect="spiro"
       id="path-effect899"
       is_visible="true"
       lpeversion="1" />
    <inkscape:path-effect
       effect="spiro"
       id="path-effect862"
       is_visible="true"
       lpeversion="1" />
  </defs>
  <sodipodi:namedview
     id="namedview4"
     pagecolor="#ffffff"
     bordercolor="#666666"
     borderopacity="1.0"
     inkscape:pageshadow="2"
     inkscape:pageopacity="0.0"
     inkscape:pagecheckerboard="0"
     showgrid="false"
     inkscape:zoom="0.47401928"
     inkscape:cx="1130.7557"
     inkscape:cy="475.71904"
     inkscape:window-width="1850"
     inkscape:window-height="1016"
     inkscape:window-x="70"
     inkscape:window-y="27"
     inkscape:window-maximized="1"
     inkscape:current-layer="g8" />
  <g
     inkscape:groupmode="layer"
     inkscape:label="Image"
     id="g8">
    
    <path
       style="font-variation-settings:normal;opacity:1;vector-effect:none;fill:none;fill-opacity:1;stroke:#c86487;stroke-width:1px;stroke-linecap:butt;stroke-linejoin:miter;stroke-miterlimit:4;stroke-dasharray:none;stroke-dashoffset:0;stroke-opacity:1;-inkscape-stroke:none;stop-color:#000000;stop-opacity:1"
       d="M 1160.6028,863.24187 H 635.67059"
       id="path860"
       inkscape:path-effect="#path-effect862"
       inkscape:original-d="M 1160.6028,863.24187 H 635.67059" />
    <path
       style="font-variation-settings:normal;opacity:1;vector-effect:none;fill:none;fill-opacity:1;stroke:#c86487;stroke-width:1px;stroke-linecap:butt;stroke-linejoin:miter;stroke-miterlimit:4;stroke-dasharray:none;stroke-dashoffset:0;stroke-opacity:1;-inkscape-stroke:none;stop-color:#000000;stop-opacity:1"
       d="M 635.67059,863.24187 C 622.84492,820.5699 615.97567,776.11221 615.32404,731.5592 c -0.5536,-37.85054 3.35137,-75.72574 1.30608,-113.52503 -1.13651,-21.00402 -4.10876,-41.94229 -3.65667,-62.97218 0.45209,-21.02989 4.61822,-42.62067 16.45452,-60.00925 5.53543,-8.13204 12.62902,-15.17748 17.55782,-23.69089 5.92958,-10.24203 8.42479,-22.08019 10.25572,-33.77236 1.83092,-11.69217 3.10644,-23.56671 6.91361,-34.77227 5.91382,-17.40604 17.56029,-32.17243 26.49914,-48.23607 4.70971,-8.46363 8.68704,-17.33445 11.8771,-26.47983 4.89043,-14.02006 7.91634,-28.62572 12.55026,-42.73264 6.31339,-19.21969 15.60646,-37.50746 19.89163,-57.27847 3.69504,-17.04825 3.54759,-34.6643 3.36095,-52.10739 -0.0632,-5.9064 -0.11642,-11.91106 1.50972,-17.58955 1.43907,-5.02523 4.16326,-9.62795 7.5541,-13.60614 3.39084,-3.9782 7.43992,-7.35479 11.72212,-10.35256 10.33622,-7.23593 22.20114,-12.43282 31.25552,-21.21999 4.58168,-4.44646 8.36943,-9.74945 13.5028,-13.545668 2.56669,-1.898111 5.47541,-3.399453 8.60733,-4.017379 3.13191,-0.617926 6.50132,-0.303925 9.30702,1.218827 1.78471,0.968627 3.29701,2.394228 4.51677,4.01769 1.21975,1.62347 2.15695,3.44382 2.94071,5.31709 1.56753,3.74655 2.54156,7.73133 4.28394,11.39982 4.19654,8.8356 12.35829,14.97366 19.45645,21.70382 8.88501,8.42437 16.40069,18.17547 23.56754,28.10269 8.55517,11.85026 16.66946,24.01343 25.19774,35.88306 1.48602,2.06824 2.99695,4.14164 4.85889,5.87918 1.86195,1.73753 4.11664,3.13743 6.62025,3.60414 0.99637,0.18574 2.04577,0.21781 3.00496,-0.10961 0.4796,-0.16371 0.93117,-0.41718 1.30326,-0.76121 0.3721,-0.34404 0.66288,-0.78013 0.81272,-1.26424 0.13998,-0.45226 0.15521,-0.93872 0.0741,-1.40516 -0.0811,-0.46643 -0.25658,-0.91352 -0.48743,-1.32685 -0.4617,-0.82667 -1.1352,-1.51143 -1.79988,-2.18578 -5.42334,-5.50223 -10.83924,-11.07032 -15.25712,-17.40826 -6.71195,-9.62902 -10.91811,-20.73053 -15.76907,-31.41867 -2.15292,-4.74353 -4.45485,-9.44471 -7.4013,-13.74058 -2.94645,-4.29588 -6.57015,-8.195 -10.98335,-10.96263 -1.75077,-1.09795 -3.61489,-2.01222 -5.324,-3.17395 -1.70911,-1.16173 -3.28933,-2.61483 -4.17955,-4.47982 -1.12701,-2.36106 -1.03176,-5.13172 -0.49465,-7.69224 0.53712,-2.56052 1.48608,-5.02116 2.01284,-7.58383 0.6058,-2.94719 0.64336,-5.97687 0.92057,-8.97288 0.10502,-1.135018 0.24485,-2.272566 0.1901,-3.411116 -0.0548,-1.13855 -0.31706,-2.293842 -0.95219,-3.240366 -0.48366,-0.7208 -1.16883,-1.295288 -1.93429,-1.704625 -0.76546,-0.409337 -1.60998,-0.658029 -2.46714,-0.795 -1.71432,-0.273942 -3.46344,-0.107981 -5.19823,-0.04128 -3.98796,0.153323 -8.05206,-0.238452 -11.76292,-1.707087 -2.3312,-0.922611 -4.49303,-2.26084 -6.38925,-3.90098 -3.97521,-3.43837 -6.76014,-8.254192 -7.64607,-13.434907 -0.88593,-5.180715 0.15719,-10.68777 2.97182,-15.126529 2.81462,-4.438759 7.393,-7.748462 12.5164,-8.921238 5.12341,-1.172777 10.72982,-0.164676 15.06241,2.810788 3.89116,2.67231 6.60915,6.706673 10.06378,9.923484 2.96371,2.759679 6.44253,4.892762 9.71428,7.279195 3.27175,2.386433 6.41996,5.122713 8.3524,8.681515 2.29963,4.235022 2.66969,9.248172 2.47552,14.063355 -0.17312,4.293226 -0.77109,8.627027 -2.44428,12.584575 -0.73369,1.73537 -1.6689,3.38633 -2.28922,5.16538 -0.62032,1.77905 -0.90974,3.75358 -0.31336,5.5408 0.4195,1.25716 1.26253,2.35329 2.30982,3.16545 1.04729,0.81216 2.29217,1.34903 3.58118,1.65704 3.69861,0.88379 7.58672,-0.0958 11.13965,-1.45137 7.46216,-2.84701 14.17912,-7.32416 20.70603,-11.92729 8.08326,-5.700755 16.00946,-11.667991 24.60247,-16.566761 3.7995,-2.166052 7.74034,-4.125724 11.91011,-5.445219 4.16976,-1.319496 8.5876,-1.986736 12.93788,-1.53608 4.76461,0.493578 9.33149,2.305849 14.10922,2.650034 6.09618,0.439165 12.15552,-1.556768 17.51885,-4.48781 5.36333,-2.931042 10.15783,-6.778885 15.07943,-10.402918 8.6709,-6.384789 17.8034,-12.117699 27.0526,-17.63164 9.0377,-5.387887 18.2044,-10.577396 27.6834,-15.144375 7.6295,-3.675858 15.4505,-6.943149 23.3507,-9.993988 9.3084,-3.594643 18.749,-6.898512 27.7377,-11.231058 2.9481,-1.421009 5.8486,-2.953074 8.8927,-4.154796 3.0442,-1.201722 6.2612,-2.0725907 9.5338,-2.101214 3.8392,-0.033579 7.5836,1.08518 11.3827,1.639448 2.268,0.330896 4.5695,0.462113 6.8039,0.97265 2.2345,0.510536 4.4474,1.444686 6.0154,3.116443 1.3232,1.410665 2.105,3.267551 2.4574,5.169266 0.3524,1.901714 0.2982,3.856634 0.1167,5.782188 -0.4845,5.140052 -1.8596,10.147371 -2.8995,15.204405 -1.0398,5.057035 -1.7465,10.282505 -0.8792,15.371982 0.8993,5.277649 3.4461,10.133837 6.3569,14.627138 2.9107,4.493302 6.2215,8.729336 8.901,13.364245 3.5941,6.216786 5.9911,13.043156 8.2035,19.87478 11.5927,35.79692 18.6592,72.89104 24.7704,110.01868 3.9889,24.23353 7.5832,48.52994 11.3049,72.80594 4.0966,26.72147 8.3525,53.46183 10.1662,80.43458 1.3271,19.73551 1.3422,39.53451 1.1801,59.31392 -0.2153,26.27882 -0.7369,52.6597 2.5368,78.73469 0.3701,2.94753 0.7877,5.94647 0.2708,8.87184 -0.2584,1.46268 -0.7551,2.8945 -1.5619,4.14165 -0.8067,1.24715 -1.9334,2.30413 -3.2829,2.92474 -1.5159,0.69714 -3.2432,0.81968 -4.9031,0.65004 -1.6599,-0.16964 -3.2766,-0.61697 -4.896,-1.01861 -3.2245,-0.79971 -6.6105,-1.42366 -9.8485,-0.6806 -2.1247,0.48758 -4.0953,1.55471 -5.7661,2.95489 -1.6708,1.40019 -3.0498,3.12717 -4.1801,4.99118 -2.2606,3.72803 -3.524,7.95735 -4.895,12.09604 -2.4628,7.43479 -5.3415,14.73252 -7.5732,22.23993 -8.7916,29.57527 -7.229,61.06662 -6.9928,91.92004 0.5348,69.86091 -6.1617,139.77508 -19.9481,208.26427"
       id="path897"
       inkscape:path-effect="#path-effect899"
       inkscape:original-d="m 635.67059,863.24187 c -6.78118,-43.89322 -13.56337,-87.78745 -20.34655,-131.68267 -6.78318,-43.89523 0.87172,-75.68236 1.30608,-113.52503 0.43436,-37.84268 8.5329,-81.98662 12.79785,-122.98143 4.26495,-40.99481 11.70622,-15.79292 17.55782,-23.69089 5.85161,-7.89796 11.44722,-45.69542 17.16933,-68.54463 5.7221,-22.84921 17.66709,-32.15638 26.49914,-48.23607 8.83205,-16.0797 7.91907,-17.65222 11.8771,-26.47983 3.95803,-8.82761 8.36784,-28.48743 12.55026,-42.73264 4.18242,-14.24522 13.26209,-38.18465 19.89163,-57.27847 6.62955,-19.09383 2.24164,-34.73726 3.36095,-52.10739 1.11932,-17.37013 1.00748,-11.72536 1.50972,-17.58955 0.50224,-5.86418 12.85181,-15.97146 19.27622,-23.9587 6.42441,-7.98723 20.83801,-14.14566 31.25552,-21.21999 10.41751,-7.07433 20.94577,-10.89515 31.41715,-16.34422 10.47138,-5.449072 7.82861,13.82406 11.74142,20.7346 3.9128,6.91053 12.97196,14.47021 19.45645,21.70382 6.48448,7.23361 15.71269,18.73613 23.56754,28.10269 7.85484,9.36656 16.79949,23.92304 25.19774,35.88306 8.39824,11.96001 7.65376,6.32321 11.47914,9.48332 3.82539,3.16011 3.41496,-1.42237 5.12094,-2.13506 1.70598,-0.71268 -1.47448,-3.27753 -2.21321,-4.91779 -0.73874,-1.64027 -10.17041,-11.6045 -15.25712,-17.40826 -5.0867,-5.80375 -10.51171,-20.94478 -15.76907,-31.41867 -5.25735,-10.4739 -12.25543,-16.46781 -18.38465,-24.70321 -6.12921,-8.2354 -6.3347,-5.10151 -9.50355,-7.65377 -3.16884,-2.55226 1.01313,-10.18305 1.51819,-15.27607 0.50506,-5.09302 0.61472,-5.98092 0.92057,-8.97288 0.30586,-2.991956 -0.50706,-4.433321 -0.76209,-6.651482 -0.25503,-2.218162 -6.39877,-1.692939 -9.59966,-2.540909 -3.20089,-0.847969 -7.84095,-1.137058 -11.76292,-1.707087 -3.92197,-0.57003 -4.2585,-2.599653 -6.38925,-3.90098 -2.13075,-1.301326 15.27071,-23.113591 22.90456,-34.671886 7.63386,-11.558295 6.71019,6.616656 10.06378,9.923484 3.35359,3.306828 12.04545,10.641473 18.06668,15.96071 6.02123,5.319237 1.65135,9.37657 2.47552,14.063355 0.82417,4.686786 -1.62852,8.390714 -2.44428,12.584575 -0.81576,4.19385 -1.73405,7.13845 -2.60258,10.70618 -0.86852,3.56773 3.92833,3.216 5.891,4.82249 1.96266,1.6065 7.42743,-0.96658 11.13965,-1.45137 3.71222,-0.48479 13.80502,-7.95053 20.70603,-11.92729 6.901,-3.97677 16.40265,-11.043508 24.60247,-16.566761 8.19983,-5.523252 16.56633,-4.653199 24.84799,-6.981299 8.28166,-2.3281 9.40714,1.76769 14.10922,2.650034 4.70207,0.882345 21.73318,-9.926152 32.59828,-14.890728 10.865,-4.964576 18.036,-11.753426 27.0526,-17.63164 9.0165,-5.878213 18.4566,-10.09525 27.6834,-15.144375 9.2268,-5.049126 15.5682,-6.661659 23.3507,-9.993988 7.7826,-3.332329 18.4928,-7.486372 27.7377,-11.231058 9.2449,-3.744686 12.2853,-4.169673 18.4265,-6.25601 6.1411,-2.0863367 7.5894,1.093966 11.3827,1.639448 3.7932,0.545483 8.5472,2.727062 12.8193,4.089093 4.2722,1.362031 1.7171,7.301969 2.5741,10.951454 0.857,3.649484 -2.5181,20.385258 -3.7787,30.576387 -1.2605,10.191129 10.1729,18.661922 15.2579,27.991383 5.085,9.329462 5.47,13.250853 8.2035,19.87478 2.7335,6.62392 16.5146,73.34678 24.7704,110.01868 8.2558,36.67189 7.5376,48.53829 11.3049,72.80594 3.7673,24.26764 6.7785,53.62405 10.1662,80.43458 3.3877,26.81052 0.7878,39.54361 1.1801,59.31392 0.3924,19.77031 1.6922,52.4908 2.5368,78.73469 0.8446,26.2439 -3.0483,10.62648 -4.574,15.93823 -1.5257,5.31174 -6.5317,-0.24471 -9.7991,-0.36857 -3.2673,-0.12385 -6.5647,-0.45273 -9.8485,-0.6806 -3.2839,-0.22787 -9.8931,13.3624 -14.8412,20.04211 -4.948,6.6797 -5.0478,14.82762 -7.5732,22.23993 -2.5255,7.4123 -4.6609,61.28102 -6.9928,91.92004 -2.3319,30.63901 -13.2977,138.84385 -19.9481,208.26427" />
  </g>
</svg>
