<?xml version="1.0" encoding="UTF-8" standalone="no"?>
<!-- Created with Inkscape (http://www.inkscape.org/) -->

<svg
   version="1.1"
   id="svg2"
   width="1893"
   height="1024"
   viewBox="0 0 1893 1024"
   xmlns:xlink="http://www.w3.org/1999/xlink"
   xmlns="http://www.w3.org/2000/svg"
   xmlns:svg="http://www.w3.org/2000/svg">
  <defs
     id="defs6" />
  <g
     id="g8">
    
    <path
       style="font-variation-settings:normal;opacity:1;vector-effect:none;fill:none;fill-opacity:1;stroke:#c86487;stroke-width:1px;stroke-linecap:butt;stroke-linejoin:miter;stroke-miterlimit:4;stroke-dasharray:none;stroke-dashoffset:0;stroke-opacity:1;-inkscape-stroke:none;stop-color:#000000;stop-opacity:1"
       d="M 1160.3008,862.7755 635.47743,862.764"
       id="path860" />
    <path
       style="font-variation-settings:normal;opacity:1;vector-effect:none;fill:none;fill-opacity:1;stroke:#c86487;stroke-width:1px;stroke-linecap:butt;stroke-linejoin:miter;stroke-miterlimit:4;stroke-dasharray:none;stroke-dashoffset:0;stroke-opacity:1;-inkscape-stroke:none;stop-color:#000000;stop-opacity:1"
       d="m 635.47743,862.764 c -11.21355,-79.42192 -18.41929,-159.40956 -21.58065,-239.55687 -1.33426,-33.82637 -1.94448,-67.78716 1.58814,-101.45501 2.62637,-25.03082 7.61216,-50.04497 17.81189,-73.05378 14.04348,-31.67965 37.72538,-59.09698 46.73126,-92.55911 4.34226,-16.13404 5.08047,-33.09937 9.82517,-49.11968 3.50774,-11.84376 9.13247,-22.92712 14.28969,-34.15129 3.6808,-8.01089 7.16872,-16.23779 8.48081,-24.95565 1.41669,-9.41285 0.24105,-18.9975 -0.80808,-28.45838 -1.04912,-9.46087 -1.96276,-19.11039 -0.04,-28.43304 1.70814,-8.28188 5.61247,-15.99365 10.49523,-22.89771 4.88276,-6.90405 10.7395,-13.05841 16.71555,-19.04123 6.59967,-6.60714 13.43479,-13.08791 21.3488,-18.04555 7.91402,-4.95765 17.04291,-8.34745 26.38065,-8.21922 7.45823,0.10242 14.86791,2.49198 20.98768,6.75626 7.23394,5.04063 12.47306,12.4471 16.86502,20.09225 4.39197,7.64516 8.10277,15.70005 13.09114,22.97012 11.00814,16.04331 27.68153,27.48847 38.98304,43.32649 1.57137,2.20213 3.11058,4.55684 5.43434,5.942 1.16188,0.69258 2.51031,1.11376 3.86099,1.04104 1.35069,-0.0727 2.69577,-0.67309 3.53499,-1.73391 0.66533,-0.84101 0.98454,-1.92752 0.98432,-2.99988 -2.2e-4,-1.07236 -0.30592,-2.1306 -0.78326,-3.09086 -0.95468,-1.92053 -2.55104,-3.42763 -4.0261,-4.98456 -6.31846,-6.66914 -10.81658,-14.83142 -14.89723,-23.06238 -4.08064,-8.23096 -7.83835,-16.67029 -12.95813,-24.29841 -7.00455,-10.4363 -16.34322,-19.04301 -25.18457,-27.97668 -12.2142,-12.34174 -23.73233,-25.63807 -31.78795,-41.020278 -1.21805,-2.325876 -2.35971,-4.70867 -3.08764,-7.231265 -0.72792,-2.522595 -1.03096,-5.204388 -0.55353,-7.786136 0.40641,-2.197722 1.37783,-4.28398 2.76872,-6.033429 1.39089,-1.749449 3.19648,-3.161543 5.21341,-4.124416 4.03387,-1.925748 8.85741,-1.985561 13.0464,-0.425755 3.7337,1.390276 6.91795,3.961539 9.7033,6.810255 2.78536,2.848717 5.2369,6.006443 7.9747,8.900894 4.2736,4.518124 9.20517,8.354667 13.7986,12.547215 4.59343,4.192545 8.92516,8.849765 11.5833,14.472165 1.47773,3.12564 2.41173,6.49608 4.02902,9.55184 0.80865,1.52788 1.79224,2.97687 3.03476,4.17872 1.24253,1.20186 2.75498,2.15116 4.42627,2.59288 2.40159,0.63474 4.98804,0.18625 7.27466,-0.78425 2.28663,-0.97049 4.32392,-2.43516 6.3259,-3.90573 10.81938,-7.94746 21.27954,-16.45529 32.85711,-23.250942 22.63333,-13.285023 48.60202,-19.513399 72.94522,-29.319923 13.4228,-5.407285 26.5034,-11.995585 37.7715,-21.075232 9.111,-7.341536 16.8936,-16.192072 25.7375,-23.853373 8.8438,-7.661301 19.1713,-14.276819 30.7684,-15.8311271 3.1329,-0.4198844 6.403,-0.4475633 9.3618,0.6645029 2.0637,0.7756452 3.9051,2.0857622 5.4331,3.6750662 1.5279,1.589304 2.751,3.453695 3.7472,5.420459 1.9923,3.933527 3.0817,8.248428 4.4733,12.432366 8.7793,26.394779 29.4514,47.292664 39.901,73.071853 6.2099,15.31993 8.6077,31.85946 11.6497,48.10783 9.3048,49.69989 25.0501,98.16745 31.5231,148.31482 7.34,56.86372 2.6558,115.16311 14.8482,171.18725 1.6708,7.67737 3.6629,15.34544 4.0069,23.19498 0.344,7.84953 -1.1124,16.05205 -5.7454,22.39781 -2.2954,3.14402 -5.2881,5.72523 -8.4936,7.93399 -4.7454,3.26984 -9.9816,5.76696 -14.795,8.936 -4.8133,3.16904 -9.318,7.1794 -11.6484,12.45009 -1.5718,3.55488 -2.0701,7.50445 -2.0419,11.39121 0.028,3.88676 0.5627,7.74917 0.9731,11.61431 3.0273,28.51284 -0.698,57.24706 -3.5643,85.77653 -6.9062,68.73931 -8.8348,137.9782 -5.7658,206.99536"
       id="path897" />
  </g>
</svg>
