<?xml version="1.0" encoding="UTF-8" standalone="no"?>
<!-- Created with Inkscape (http://www.inkscape.org/) -->

<svg
   version="1.1"
   id="svg2"
   width="1893"
   height="1024"
   viewBox="0 0 1893 1024"
   xmlns:xlink="http://www.w3.org/1999/xlink"
   xmlns="http://www.w3.org/2000/svg"
   xmlns:svg="http://www.w3.org/2000/svg">
  <defs
     id="defs6" />
  <g
     id="g8">
    
    <path
       style="font-variation-settings:normal;opacity:1;vector-effect:none;fill:none;fill-opacity:1;stroke:#c86487;stroke-width:1px;stroke-linecap:butt;stroke-linejoin:miter;stroke-miterlimit:4;stroke-dasharray:none;stroke-dashoffset:0;stroke-opacity:1;-inkscape-stroke:none;stop-color:#000000;stop-opacity:1"
       d="M 1160.4117,862.24686 635.35026,862.6772"
       id="path860" />
    <path
       style="font-variation-settings:normal;opacity:1;vector-effect:none;fill:none;fill-opacity:1;stroke:#c86487;stroke-width:1px;stroke-linecap:butt;stroke-linejoin:miter;stroke-miterlimit:4;stroke-dasharray:none;stroke-dashoffset:0;stroke-opacity:1;-inkscape-stroke:none;stop-color:#000000;stop-opacity:1"
       d="m 635.35026,862.6772 c -36.24194,-45.30367 -57.91507,-102.08222 -61.07881,-160.01227 -2.91521,-53.37921 9.41746,-106.29266 21.98501,-158.25317 10.68116,-44.16122 21.59984,-88.29194 34.82331,-131.75964 12.02855,-39.53979 25.98981,-78.57994 43.93561,-115.80935 8.06491,-16.73105 17.06366,-33.50901 19.47975,-51.92458 0.77139,-5.87954 0.84876,-11.88636 -0.2525,-17.71313 -1.10126,-5.82677 -3.41409,-11.47699 -7.1001,-16.12214 -1.38974,-1.75137 -2.96274,-3.34917 -4.38797,-5.07179 -1.42523,-1.72261 -2.71712,-3.60033 -3.43033,-5.7193 -0.69957,-2.07844 -0.81488,-4.33419 -0.45583,-6.49762 0.35904,-2.16342 1.18304,-4.23638 2.29788,-6.12488 2.22969,-3.777 5.56453,-6.77116 9.02721,-9.46321 9.18818,-7.14332 19.5786,-12.56532 29.22148,-19.08181 7.91856,-5.35122 15.36788,-11.4625 23.83202,-15.90066 4.23208,-2.21909 8.71476,-4.00972 13.39483,-4.975 4.68006,-0.96527 9.5682,-1.08903 14.22592,-0.0211 9.20616,2.11072 16.75209,8.61972 23.15578,15.56242 7.06141,7.65578 13.23237,16.08822 20.1459,23.87781 6.14393,6.92247 12.8875,13.35391 18.28444,20.87332 2.39281,3.33384 4.50779,6.86453 6.9946,10.12886 2.4868,3.26433 5.3983,6.29646 8.99493,8.27239 2.01241,1.10558 4.27515,1.87188 6.56865,1.76251 1.14675,-0.0547 2.28845,-0.33138 3.30761,-0.8599 1.01916,-0.52852 1.91238,-1.31321 2.52007,-2.28724 0.69906,-1.12048 1.00322,-2.4638 0.9673,-3.78398 -0.0359,-1.32018 -0.40047,-2.61843 -0.9544,-3.81731 -1.10787,-2.39776 -2.9339,-4.37406 -4.64752,-6.38408 -7.49423,-8.79048 -13.27596,-18.89948 -20.3186,-28.05574 -7.49148,-9.7398 -16.35396,-18.33094 -25.31472,-26.73872 -14.79527,-13.88223 -30.40734,-27.9958 -38.30319,-46.68462 -0.90074,-2.131976 -1.69768,-4.325475 -2.07302,-6.609282 -0.37534,-2.283807 -0.31343,-4.674518 0.46956,-6.852495 1.00154,-2.78589 3.15992,-5.087831 5.76203,-6.499679 2.6021,-1.411848 5.62028,-1.967863 8.57811,-1.843312 4.23587,0.178368 8.33384,1.710801 11.97341,3.885186 3.63956,2.174385 6.86105,4.977798 9.94978,7.881961 7.02375,6.604057 13.54499,13.914181 17.99047,22.468971 2.13858,4.11543 3.80346,8.5255 6.61752,12.21214 1.40703,1.84332 3.10413,3.49213 5.11419,4.64852 2.01005,1.15639 4.34785,1.8015 6.65908,1.61238 2.56704,-0.21005 4.96267,-1.42437 7.01939,-2.97475 2.05672,-1.55039 3.82912,-3.43868 5.68188,-5.22784 11.09608,-10.71517 25.13497,-17.90728 39.52851,-23.453796 15.78426,-6.082427 32.19495,-10.355937 48.32506,-15.450859 29.4549,-9.303743 59.30224,-22.300719 78.61794,-46.405787 4.336,-5.411118 8.0947,-11.332058 13.0999,-16.130846 2.5027,-2.399394 5.3177,-4.506386 8.4635,-5.963738 3.1459,-1.457353 6.637,-2.248096 10.0947,-1.993879 3.5377,0.260096 6.937,1.601743 9.9459,3.480383 3.0089,1.878639 5.6552,4.283622 8.1425,6.812635 12.8826,13.098524 21.7395,29.6276 28.8443,46.57028 10.8497,25.872912 17.9782,53.120707 25.2913,80.206527 12.4273,46.02759 25.508,91.97302 33.7993,138.92227 5.7066,32.31331 9.1323,65.04019 16.2564,97.07083 3.6481,16.40208 8.262,32.60223 11.0605,49.17043 2.7985,16.5682 3.7431,33.69682 0.04,50.08656 -4.2959,19.01322 -14.588,36.07619 -21.1703,54.42368 -11.8224,32.95364 -11.3379,68.865 -10.669,103.86877 1.3902,72.75001 2.9669,145.49645 4.7302,218.23837"
       id="path897" />
  </g>
</svg>
