<?xml version="1.0" encoding="UTF-8" standalone="no"?>
<!-- Created with Inkscape (http://www.inkscape.org/) -->

<svg
   version="1.1"
   id="svg2"
   width="1893"
   height="1024"
   viewBox="0 0 1893 1024"
   sodipodi:docname="frame_0131.svg"
   inkscape:version="1.1.2 (0a00cf5339, 2022-02-04)"
   xmlns:inkscape="http://www.inkscape.org/namespaces/inkscape"
   xmlns:sodipodi="http://sodipodi.sourceforge.net/DTD/sodipodi-0.dtd"
   xmlns:xlink="http://www.w3.org/1999/xlink"
   xmlns="http://www.w3.org/2000/svg"
   xmlns:svg="http://www.w3.org/2000/svg">
  <defs
     id="defs6">
    <inkscape:path-effect
       effect="spiro"
       id="path-effect866"
       is_visible="true"
       lpeversion="1" />
    <inkscape:path-effect
       effect="spiro"
       id="path-effect862"
       is_visible="true"
       lpeversion="1" />
  </defs>
  <sodipodi:namedview
     id="namedview4"
     pagecolor="#ffffff"
     bordercolor="#666666"
     borderopacity="1.0"
     inkscape:pageshadow="2"
     inkscape:pageopacity="0.0"
     inkscape:pagecheckerboard="0"
     showgrid="false"
     inkscape:zoom="0.6703645"
     inkscape:cx="802.54846"
     inkscape:cy="393.06974"
     inkscape:window-width="1850"
     inkscape:window-height="1016"
     inkscape:window-x="70"
     inkscape:window-y="27"
     inkscape:window-maximized="1"
     inkscape:current-layer="g8" />
  <g
     inkscape:groupmode="layer"
     inkscape:label="Image"
     id="g8">
    
    <path
       style="font-variation-settings:normal;opacity:1;vector-effect:none;fill:none;fill-opacity:1;stroke:#c86487;stroke-width:1px;stroke-linecap:butt;stroke-linejoin:miter;stroke-miterlimit:4;stroke-dasharray:none;stroke-dashoffset:0;stroke-opacity:1;-inkscape-stroke:none;stop-color:#000000;stop-opacity:1"
       d="M 1160.7925,862.62971 H 635.24119"
       id="path860"
       inkscape:path-effect="#path-effect862"
       inkscape:original-d="m 1160.7925,862.62971 c -175.18274,10e-4 -350.36653,10e-4 -525.55131,0" />
    <path
       style="font-variation-settings:normal;opacity:1;vector-effect:none;fill:none;fill-opacity:1;stroke:#c86487;stroke-width:1px;stroke-linecap:butt;stroke-linejoin:miter;stroke-miterlimit:4;stroke-dasharray:none;stroke-dashoffset:0;stroke-opacity:1;-inkscape-stroke:none;stop-color:#000000;stop-opacity:1"
       d="m 635.24119,862.62971 c -3.98672,-53.68218 -8.42215,-107.33104 -13.30567,-160.93908 -4.62772,-50.80008 -9.64085,-102.22891 -1.56218,-152.59556 6.03524,-37.62684 19.2285,-73.65964 30.98409,-109.90891 6.73402,-20.76488 13.13947,-41.95042 24.75904,-60.43049 4.84679,-7.70846 10.54338,-14.84662 15.61429,-22.40953 5.0709,-7.56292 9.56473,-15.68109 11.63213,-24.54887 1.98453,-8.51232 1.66437,-17.40157 3.20848,-26.00469 2.31494,-12.89785 8.69888,-24.6327 14.32071,-36.46945 9.05266,-19.06033 16.41228,-39.41421 16.92212,-60.50892 0.31946,-13.21787 -2.04191,-26.66357 0.94038,-39.54456 2.41519,-10.43159 8.34148,-19.95698 16.37287,-27.03851 7.2688,-6.40914 16.05853,-10.77871 24.53296,-15.4794 11.89779,-6.59959 23.56705,-14.06735 36.7225,-17.53812 2.49228,-0.65753 5.04065,-1.16848 7.61784,-1.21189 2.5772,-0.0434 5.19592,0.39768 7.49581,1.56143 3.34595,1.69306 5.78703,4.7861 7.56846,8.08585 1.78143,3.29975 3.00393,6.86888 4.60212,10.26117 4.23619,8.99166 10.98902,16.51417 17.64402,23.897 15.56504,17.26732 31.21214,34.66998 43.35893,54.49134 0.51831,0.84578 1.03431,1.70144 1.69979,2.43705 0.79227,0.87575 1.79915,1.56999 2.92663,1.92128 1.12748,0.3513 2.37598,0.34703 3.474,-0.0877 0.98002,-0.38801 1.81556,-1.10742 2.39782,-1.98604 0.58226,-0.87861 0.91662,-1.91072 1.02361,-2.95931 0.22422,-2.19744 -0.53737,-4.40311 -1.69834,-6.28225 -1.16097,-1.87915 -2.70646,-3.4845 -4.21838,-5.09481 -7.08915,-7.55048 -13.70122,-15.54576 -19.84732,-23.88191 -11.40249,-15.46556 -21.23238,-32.13906 -33.92597,-46.5638 -0.54366,-0.61781 -1.09533,-1.23518 -1.52787,-1.9353 -0.43254,-0.70012 -0.74396,-1.49566 -0.75731,-2.31851 -0.0153,-0.94556 0.36745,-1.86826 0.93862,-2.62197 0.57118,-0.75372 1.32206,-1.35316 2.10955,-1.87679 1.57497,-1.04726 3.37233,-1.86292 4.54302,-3.34844 0.6276,-0.79638 1.0401,-1.75358 1.23608,-2.74841 0.19598,-0.99484 0.1789,-2.02643 -0.002,-3.02421 -0.36084,-1.99555 -1.35912,-3.82516 -2.54915,-5.46719 -2.54019,-3.504991 -6.05907,-6.329696 -10.11119,-7.852157 -4.81509,-1.809123 -10.14563,-1.745138 -15.05493,-3.280319 -3.8107,-1.191642 -7.39811,-3.435969 -9.60002,-6.766597 -1.52056,-2.300015 -2.32926,-5.064746 -2.28149,-7.821537 0.0478,-2.756791 0.95272,-5.493618 2.56297,-7.731758 1.56716,-2.178255 3.77066,-3.86162 6.20774,-4.984748 2.43709,-1.123128 5.10323,-1.701274 7.77991,-1.891492 5.35336,-0.380434 10.68207,0.758956 15.95472,1.760161 3.49656,0.663949 7.01467,1.272238 10.41457,2.324584 3.3999,1.052345 6.70388,2.572146 9.4161,4.876619 3.19308,2.713038 5.41192,6.36566 7.66455,9.898645 0.62044,0.973084 1.24953,1.945518 1.73998,2.99017 0.49044,1.044652 0.84103,2.171629 0.87054,3.325303 0.0385,1.503459 -0.4659,2.965921 -1.04607,4.353462 -0.58017,1.387542 -1.24732,2.753833 -1.56445,4.223967 -0.55419,2.569083 3.6e-4,5.243268 -0.18646,7.864797 -0.29656,4.16143 -2.42015,7.93023 -4.10246,11.74799 -0.35708,0.81034 -0.69851,1.63749 -0.84753,2.51039 -0.14902,0.8729 -0.0926,1.80499 0.31533,2.59096 0.36483,0.70292 0.99421,1.2502 1.7105,1.58803 0.71629,0.33782 1.51584,0.47542 2.30779,0.47927 1.58389,0.008 3.11738,-0.50057 4.66301,-0.84671 4.9397,-1.10624 10.23494,-0.59105 14.94367,-2.44908 3.16098,-1.2473 5.82465,-3.48087 8.30899,-5.79942 2.48433,-2.31855 4.87497,-4.77866 7.72613,-6.62757 3.93001,-2.54852 8.52845,-3.80751 12.93828,-5.386532 15.07176,-5.396735 28.39465,-14.760955 43.06061,-21.179076 14.75907,-6.458868 30.66035,-9.843426 45.82995,-15.268554 13.9025,-4.971975 27.2106,-11.681912 39.2477,-20.23219 11.7514,-8.347326 22.2228,-18.38636 33.9558,-26.759527 11.733,-8.3731677 25.2162,-15.17727117 39.6203,-15.7196514 0.4655,-0.0175277 0.9336,-0.0283636 1.3953,0.0331039 1.2593,0.16763702 2.3965,0.8662118 3.3279,1.7301817 0.9313,0.8639699 1.688,1.8951135 2.4834,2.8857145 2.7335,3.4044918 6.0109,6.4362103 8.0465,10.2987253 2.2011,4.176397 2.7745,8.983268 3.869,13.575556 2.1219,8.903437 6.2683,17.167697 9.661,25.668468 5.0678,12.697788 8.4776,26.000132 13.3479,38.774957 3.4082,8.939724 7.525,17.603034 10.7282,26.618234 7.6668,21.57733 9.928,44.62093 13.4671,67.2447 2.2962,14.6784 5.1503,29.26287 7.969,43.84994 4.4585,23.07287 8.8315,46.17003 12.2843,69.41468 5.6307,37.90712 8.805,76.15446 10.375,114.44532 0.8352,20.36915 1.2174,40.75484 2.0514,61.12404 0.3777,9.22539 0.8482,18.45007 0.9004,27.68304 0.019,3.43952 -0.019,6.87918 0,10.3187 0.011,1.96594 0.026,4.00587 -0.7878,5.79548 -0.694,1.52596 -1.9537,2.74971 -3.3985,3.59982 -2.2915,1.34832 -5.0053,1.79589 -7.6619,1.90444 -2.6566,0.10856 -5.3206,-0.0961 -7.9745,0.0643 -2.4111,0.14573 -4.8395,0.60606 -6.9882,1.70966 -2.5962,1.33347 -4.6753,3.5687 -6.0511,6.14271 -1.8309,3.42531 -2.4451,7.38817 -2.4422,11.27207 0,3.88391 0.5919,7.73968 1.0322,11.59856 3.8754,33.96696 -3.7414,68.04971 -10.3151,101.59906 -13.2574,67.6595 -22.4344,136.11826 -27.4647,204.88062"
       id="path864"
       inkscape:path-effect="#path-effect866"
       inkscape:original-d="m 635.24119,862.62971 c -4.43422,-53.64536 -8.86945,-107.29172 -13.30567,-160.93908 -4.43623,-53.64736 -1.04045,-101.72937 -1.56218,-152.59556 -0.52172,-50.86619 20.65706,-73.27161 30.98409,-109.90891 10.32703,-36.6373 16.50702,-40.28599 24.75904,-60.43049 8.25201,-20.14449 18.16528,-31.3046 27.24642,-46.9584 9.08115,-15.6538 2.13999,-17.33546 3.20848,-26.00469 1.06849,-8.66922 9.54814,-24.31197 14.32071,-36.46945 4.77257,-12.15749 11.28241,-40.33828 16.92212,-60.50892 5.6397,-20.17063 0.62792,-26.36204 0.94038,-39.54456 0.31247,-13.18252 10.91625,-18.02467 16.37287,-27.03851 5.45662,-9.01383 16.35631,-10.3186 24.53296,-15.4794 8.17666,-5.16081 24.48267,-11.69108 36.7225,-17.53812 12.23984,-5.84703 10.07677,0.23403 15.11365,0.34954 5.03688,0.11551 8.11472,12.23235 12.17058,18.34702 4.05586,6.11468 11.76368,15.93233 17.64402,23.897 5.88034,7.96467 28.90695,36.32856 43.35893,54.49134 14.45197,18.16278 1.13419,1.6257 1.69979,2.43705 0.5656,0.81135 4.26809,1.22339 6.40063,1.83359 2.13254,0.61019 2.28195,-3.2959 3.42143,-4.94535 1.13947,-1.64945 -3.94348,-7.58371 -5.91672,-11.37706 -1.97324,-3.79335 -13.23054,-15.92027 -19.84732,-23.88191 -6.61677,-7.96164 -22.61631,-31.04154 -33.92597,-46.5638 -11.30966,-15.52227 -1.52246,-2.83487 -2.28518,-4.25381 -0.76273,-1.41893 5.06179,-5.23046 7.59119,-7.8472 2.5294,-2.61673 -0.87539,-7.49221 -1.31458,-11.23981 -0.43919,-3.747609 -6.73979,-5.233772 -10.11119,-7.852157 -3.3714,-2.618385 -10.03562,-2.185879 -15.05493,-3.280319 -5.01932,-1.094439 -6.39901,-4.510065 -9.60002,-6.766597 -3.201,-2.256533 0.18865,-10.367863 0.28148,-15.553295 0.0928,-5.185431 19.96258,-3.409719 29.94237,-5.116079 9.97979,-1.70636 13.22145,4.801802 19.83067,7.201203 6.60922,2.399401 5.1107,6.600097 7.66455,9.898645 2.55386,3.298548 1.74135,4.211316 2.61052,6.315473 0.86918,2.104158 -1.73934,5.719286 -2.61052,8.577429 -0.87117,2.858143 -0.12331,5.244195 -0.18646,7.864797 -0.0632,2.62059 -2.73398,7.83299 -4.10246,11.74799 -1.36849,3.91499 -0.3538,3.4019 -0.5322,5.10135 -0.1784,1.69946 5.78853,0.81473 8.6813,1.22059 2.89276,0.40586 9.96345,-1.63172 14.94367,-2.44908 4.98022,-0.81736 10.69108,-8.28366 16.03512,-12.42699 5.34404,-4.14333 8.62652,-3.59002 12.93828,-5.386532 4.31176,-1.79651 28.70807,-14.118384 43.06061,-21.179076 14.35253,-7.060692 30.55425,-10.178036 45.82995,-15.268554 15.2756,-5.090518 26.1661,-13.487127 39.2477,-20.23219 13.0816,-6.745064 49.0518,-28.318452 73.5761,-42.4791784 24.5244,-14.1607256 0.9312,0.0230693 1.3953,0.0331039 0.4641,0.0100347 3.8752,3.0782641 5.8113,4.6158962 1.9361,1.537632 5.3654,6.8668173 8.0465,10.2987253 2.6812,3.431909 2.5803,9.051371 3.869,13.575556 1.2886,4.524186 6.4416,17.113312 9.661,25.668468 3.2193,8.555156 8.8996,25.850972 13.3479,38.774957 4.4483,12.923984 7.1531,17.746484 10.7282,26.618234 3.5751,8.87174 8.9791,44.8308 13.4671,67.2447 4.4881,22.41389 5.3137,29.23429 7.969,43.84994 2.6553,14.61565 8.1905,46.27746 12.2843,69.41468 4.0938,23.13723 6.9177,76.29788 10.375,114.44532 3.4573,38.14744 1.3686,40.75036 2.0514,61.12404 0.6828,20.37367 0.6013,18.45636 0.9004,27.68304 0.2992,9.22668 10e-4,6.88013 0,10.3187 -10e-4,3.43857 -0.5242,3.86466 -0.7878,5.79548 -0.2637,1.93083 -2.2647,2.40088 -3.3985,3.59982 -1.1338,1.19894 -10.4233,1.31348 -15.6364,1.96872 -5.2132,0.65524 -4.6578,1.14077 -6.9882,1.70966 -2.3304,0.56888 -4.0331,4.09614 -6.0511,6.14271 -2.0181,2.04658 -0.939,15.24809 -1.41,22.87063 -0.471,7.62254 -6.8757,67.7337 -10.3151,101.59906 -3.4393,33.86535 -18.3088,136.58808 -27.4647,204.88062" />
  </g>
</svg>
