<?xml version="1.0" encoding="UTF-8" standalone="no"?>
<!-- Created with Inkscape (http://www.inkscape.org/) -->

<svg
   version="1.1"
   id="svg2"
   width="1893"
   height="1024"
   viewBox="0 0 1893 1024"
   sodipodi:docname="frame_0016.svg"
   inkscape:version="1.1.2 (0a00cf5339, 2022-02-04)"
   xmlns:inkscape="http://www.inkscape.org/namespaces/inkscape"
   xmlns:sodipodi="http://sodipodi.sourceforge.net/DTD/sodipodi-0.dtd"
   xmlns:xlink="http://www.w3.org/1999/xlink"
   xmlns="http://www.w3.org/2000/svg"
   xmlns:svg="http://www.w3.org/2000/svg">
  <sodipodi:namedview
     id="namedview8"
     pagecolor="#ffffff"
     bordercolor="#666666"
     borderopacity="1.0"
     inkscape:pageshadow="2"
     inkscape:pageopacity="0.0"
     inkscape:pagecheckerboard="0"
     showgrid="false"
     inkscape:zoom="3.7652596"
     inkscape:cx="902.99219"
     inkscape:cy="143.81479"
     inkscape:window-width="1850"
     inkscape:window-height="1016"
     inkscape:window-x="70"
     inkscape:window-y="27"
     inkscape:window-maximized="1"
     inkscape:current-layer="g8" />
  <defs
     id="defs6" />
  <g
     id="g8">
    
    <path
       style="fill:none;stroke:#c86487;stroke-width:1px;stroke-linecap:butt;stroke-linejoin:miter;stroke-opacity:1"
       d="m 1160.493,862.64461 -524.79157,0.0125"
       id="path860"
       sodipodi:nodetypes="cc" />
    <path
       style="fill:none;stroke:#c86487;stroke-width:1px;stroke-linecap:butt;stroke-linejoin:miter;stroke-opacity:1"
       d="m 635.70143,862.65706 c -5.11289,-43.5535 -10.85672,-87.04888 -18.94621,-130.14887 -11.21967,-59.77731 -25.36166,-120.16209 -19.8037,-180.72872 2.14903,-23.41855 7.23025,-46.48092 13.37846,-69.17996 12.83373,-47.38182 30.32384,-93.3597 48.3024,-139.03806 8.83565,-22.44886 17.80839,-44.88125 24.79522,-67.97247 4.50498,-14.88879 8.2058,-30.35672 6.94975,-45.86135 -0.72231,-8.91617 -3.07059,-17.62597 -4.08848,-26.51325 -0.52605,-4.593 -0.69313,-9.26123 0.0445,-13.82505 0.73758,-4.56381 2.41735,-9.03707 5.29823,-12.65272 2.49965,-3.1372 5.81262,-5.5319 9.26991,-7.56597 3.45728,-2.03408 7.0959,-3.74598 10.55819,-5.77152 10.20326,-5.96919 18.75364,-14.58671 29.34341,-19.83977 8.0117,-3.97421 16.91931,-5.87083 25.82596,-6.67903 3.95246,-0.35865 8.07616,-0.48514 11.73787,1.04537 2.26778,0.94788 4.24757,2.49437 5.94909,4.2681 1.70152,1.77373 3.14263,3.77765 4.549,5.79344 6.99479,10.02587 13.38035,20.64863 22.25817,29.05278 7.05675,6.68024 15.53246,11.79861 22.14758,18.91643 5.39692,5.80704 9.3823,12.75971 14.18061,19.07038 1.1713,1.54047 2.40196,3.05401 3.88409,4.29831 1.48213,1.2443 3.24012,2.21525 5.15086,2.52192 1.32095,0.21201 2.69903,0.0977 3.95084,-0.37435 1.25181,-0.47204 2.37184,-1.30613 3.14448,-2.39833 0.97346,-1.37608 1.3652,-3.11826 1.24069,-4.79925 -0.12451,-1.68099 -0.74154,-3.30201 -1.62332,-4.73857 -1.76356,-2.87312 -4.50554,-4.97837 -7.07033,-7.16625 -13.24943,-11.30238 -22.90938,-26.133 -32.5227,-40.65455 -9.61332,-14.52154 -19.59406,-29.1981 -33.2716,-39.97846 -3.68617,-2.90536 -7.61453,-5.50431 -11.16826,-8.57024 -3.55374,-3.06593 -6.77026,-6.67553 -8.56753,-11.01129 -1.45492,-3.509859 -1.92123,-7.448308 -1.16191,-11.171118 0.61354,-3.008052 2.0388,-5.873502 4.20847,-8.045439 2.16968,-2.171937 5.09701,-3.617256 8.1595,-3.831587 2.6986,-0.188863 5.39991,0.563047 7.8244,1.76303 2.42449,1.199984 4.60413,2.83577 6.7255,4.514425 7.02706,5.560559 13.64864,11.769337 18.68591,19.180499 2.36099,3.47364 4.9401,10.44894 7.2819,13.93555 2.34179,3.48662 5.08367,6.79321 8.59584,9.09649 5.73598,3.76165 12.58642,1.21416 19.20383,-0.59174 5.55903,-1.51707 10.53497,-4.65727 15.15097,-8.10646 4.61599,-3.44918 8.97576,-7.25507 13.8226,-10.37155 9.51401,-6.11743 20.53787,-9.358802 31.33113,-12.741817 16.17371,-5.069449 32.21978,-10.632306 47.68818,-17.561715 20.77555,-9.306862 40.74983,-21.308778 56.02337,-38.189509 5.4749,-6.051 10.3644,-12.73964 16.8285,-17.720021 3.2321,-2.490191 6.8548,-4.529911 10.7834,-5.631525 3.9285,-1.101615 8.1786,-1.231496 12.0698,-0.0045 3.0321,0.956094 5.7593,2.694137 8.2907,4.617576 5.1386,3.904411 9.6066,8.626826 13.7129,13.605578 13.2645,16.082962 22.8697,34.900142 30.5128,54.295827 14.1116,35.810806 21.7752,73.761546 31.589,110.980376 12.1624,46.12594 27.7666,91.69206 32.7024,139.13851 2.7239,26.18373 2.1624,52.69483 6.2904,78.69418 1.9562,12.32031 4.956,24.45744 6.8833,36.7823 1.9273,12.32485 2.7667,24.98541 0.3898,37.23151 -0.4847,2.4972 -1.1158,5.00503 -2.3713,7.21742 -1.4494,2.55401 -3.6605,4.58937 -5.9841,6.38499 -2.3237,1.79562 -4.7992,3.3997 -7.0038,5.3396 -5.2924,4.65685 -8.7996,11.07711 -10.961,17.7871 -2.1614,6.70998 -3.0638,13.75241 -3.8381,20.75927 -3.438,31.11365 -4.552,62.44087 -4.9104,93.74184 -0.8525,74.46005 3.7132,145.31956 11.3704,219.38976"
       id="path996"
       sodipodi:nodetypes="csssssssssssssssssssssssssssssssssssssssssssssssssssssssssssssc" />
  </g>
</svg>
