<?xml version="1.0" encoding="UTF-8" standalone="no"?>
<!-- Created with Inkscape (http://www.inkscape.org/) -->

<svg
   version="1.1"
   id="svg2"
   width="1893"
   height="1024"
   viewBox="0 0 1893 1024"
   sodipodi:docname="frame_0010.svg"
   inkscape:version="1.1.2 (0a00cf5339, 2022-02-04)"
   xmlns:inkscape="http://www.inkscape.org/namespaces/inkscape"
   xmlns:sodipodi="http://sodipodi.sourceforge.net/DTD/sodipodi-0.dtd"
   xmlns:xlink="http://www.w3.org/1999/xlink"
   xmlns="http://www.w3.org/2000/svg"
   xmlns:svg="http://www.w3.org/2000/svg">
  <sodipodi:namedview
     id="namedview8"
     pagecolor="#ffffff"
     bordercolor="#666666"
     borderopacity="1.0"
     inkscape:pageshadow="2"
     inkscape:pageopacity="0.0"
     inkscape:pagecheckerboard="0"
     showgrid="false"
     inkscape:zoom="1.3312203"
     inkscape:cx="808.28095"
     inkscape:cy="215.96726"
     inkscape:window-width="1850"
     inkscape:window-height="1016"
     inkscape:window-x="70"
     inkscape:window-y="27"
     inkscape:window-maximized="1"
     inkscape:current-layer="g8" />
  <defs
     id="defs6" />
  <g
     id="g8">
    
    <path
       style="fill:none;stroke:#c86487;stroke-width:1px;stroke-linecap:butt;stroke-linejoin:miter;stroke-opacity:1"
       d="m 1160.2711,862.44731 -525.62366,0.63788"
       id="path860"
       sodipodi:nodetypes="cc" />
    <path
       style="fill:none;stroke:#c86487;stroke-width:1px;stroke-linecap:butt;stroke-linejoin:miter;stroke-opacity:1"
       d="m 634.64744,863.08519 c -12.88971,-8.53378 -13.59376,-17.53359 -23.48656,-29.41225 -32.05152,-38.48546 -44.2389,-90.35417 -44.12714,-140.43828 0.16168,-72.45866 23.66289,-142.49581 42.732,-212.40041 7.14209,-26.18186 13.73384,-52.65248 24.52709,-77.55238 8.68751,-20.04197 20.06804,-38.99663 26.47873,-59.8786 6.10221,-19.87715 7.59541,-41.18594 16.08714,-60.16563 2.33952,-5.22902 5.19316,-10.23463 7.16726,-15.61226 2.09933,-5.71878 3.17126,-11.78807 3.46295,-17.87301 0.4885,-10.19055 -1.18921,-20.37999 -3.70714,-30.26665 -0.89462,-3.51271 -1.89718,-7.00492 -2.50393,-10.57861 -0.60676,-3.5737 -0.81045,-7.25825 -0.10213,-10.81321 0.94247,-4.7301 3.45672,-9.01783 6.44792,-12.80132 2.9912,-3.78348 6.47697,-7.14218 9.72039,-10.71182 6.71818,-7.39389 12.56813,-15.8514 20.96233,-21.26813 8.31055,-5.36275 18.31344,-7.22694 27.72261,-10.27521 3.46757,-1.12338 6.88578,-2.42048 10.42884,-3.27648 3.54306,-0.85601 7.25658,-1.2617 10.83603,-0.57354 3.45946,0.6651 6.66742,2.33117 9.49982,4.42587 2.8324,2.09469 5.31944,4.61564 7.74089,7.17431 5.19532,5.48974 10.14767,11.20433 15.29196,16.74192 19.48738,20.97728 40.70295,40.28007 60.47872,60.9857 l 3.86961,4.05156 c 0.47803,0.20364 1.02797,0.23334 1.52516,0.0824 0.49718,-0.15095 0.93777,-0.4814 1.22189,-0.91644 0.37741,-0.57788 0.46699,-1.29446 0.49457,-1.98411 0.16696,-4.17465 -1.58348,-8.22562 -3.96338,-11.65951 -2.37991,-3.43389 -5.3844,-6.37841 -8.14012,-9.51872 -6.61007,-7.53259 -11.78472,-16.18742 -17.20956,-24.61381 -18.11158,-28.13268 -39.53181,-54.35209 -65.21536,-75.79579 -1.48861,-1.24287 -2.99701,-2.47503 -4.29896,-3.91226 -1.30195,-1.43723 -2.40036,-3.10153 -2.92627,-4.968112 -0.70406,-2.498889 -0.31835,-5.252936 0.89056,-7.550478 1.20891,-2.297542 3.20372,-4.14163 5.51078,-5.332268 2.30706,-1.190639 4.91432,-1.745925 7.51019,-1.785996 2.59587,-0.04007 5.18341,0.423484 7.66626,1.182174 5.56214,1.699634 10.62937,4.889221 14.75303,8.990632 6.46211,6.427248 5.56415,2.592617 10.67258,10.140618 2.32567,3.43631 6.66882,9.39452 9.88243,12.01934 3.21361,2.62482 -9.56676,21.1712 7.64645,18.0981 2.93487,-0.52397 12.74258,-3.87703 15.53557,-4.91973 2.79298,-1.04269 5.38327,-2.57291 7.8122,-4.30157 4.85785,-3.45733 9.11303,-7.72122 14.07708,-11.02425 12.06144,-8.02557 27.15205,-9.71201 40.58515,-15.137882 9.37899,-3.788345 17.91057,-9.389879 27.06071,-13.701703 12.26081,-5.777663 25.5256,-9.191107 37.80339,-14.932587 20.74512,-9.701067 37.87292,-25.640582 57.45302,-37.518783 7.5825,-4.5999 15.945,-8.690571 24.8127,-8.562287 9.1624,0.132547 17.8572,4.900536 24.0918,11.616004 9.5398,10.275563 13.5773,24.337267 17.6221,37.762427 6.3045,20.925673 13.3506,41.620051 19.8839,62.475421 7.1021,22.67082 13.5974,45.52947 19.6507,68.50257 13.2542,50.30175 24.3921,101.17074 32.9622,152.47856 7.3684,44.11332 12.8445,88.64804 13.4045,133.369 0.037,2.9644 0.052,5.9422 -0.3684,8.8769 -0.4202,2.93471 -1.2939,5.84492 -2.9119,8.32911 -2.3034,3.53663 -5.9242,5.96245 -9.4361,8.30346 -6.662,4.44092 -13.4302,9.0633 -18.1511,15.52994 -5.4283,7.4356 -7.6968,16.71 -8.8849,25.83925 -1.9237,14.78145 -1.3284,29.76191 -0.6855,44.65415 3.7711,87.3596 10.9582,172.59069 17.7589,259.76678"
       id="path1082"
       sodipodi:nodetypes="cssssssssssssssssssssscsssssssssssssssssssssssssssssssssssssc" />
  </g>
</svg>
