<?xml version="1.0" encoding="UTF-8" standalone="no"?>
<!-- Created with Inkscape (http://www.inkscape.org/) -->

<svg
   version="1.1"
   id="svg2"
   width="1893"
   height="1024"
   viewBox="0 0 1893 1024"
   sodipodi:docname="frame_0038.svg"
   inkscape:version="1.1.2 (0a00cf5339, 2022-02-04)"
   xmlns:inkscape="http://www.inkscape.org/namespaces/inkscape"
   xmlns:sodipodi="http://sodipodi.sourceforge.net/DTD/sodipodi-0.dtd"
   xmlns:xlink="http://www.w3.org/1999/xlink"
   xmlns="http://www.w3.org/2000/svg"
   xmlns:svg="http://www.w3.org/2000/svg">
  <defs
     id="defs6">
    <inkscape:path-effect
       effect="spiro"
       id="path-effect899"
       is_visible="true"
       lpeversion="1" />
    <inkscape:path-effect
       effect="spiro"
       id="path-effect862"
       is_visible="true"
       lpeversion="1" />
  </defs>
  <sodipodi:namedview
     id="namedview4"
     pagecolor="#ffffff"
     bordercolor="#666666"
     borderopacity="1.0"
     inkscape:pageshadow="2"
     inkscape:pageopacity="0.0"
     inkscape:pagecheckerboard="0"
     showgrid="false"
     inkscape:zoom="0.6703645"
     inkscape:cx="810.00709"
     inkscape:cy="285.66548"
     inkscape:window-width="1850"
     inkscape:window-height="1016"
     inkscape:window-x="70"
     inkscape:window-y="27"
     inkscape:window-maximized="1"
     inkscape:current-layer="g8" />
  <g
     inkscape:groupmode="layer"
     inkscape:label="Image"
     id="g8">
    
    <path
       style="font-variation-settings:normal;opacity:1;vector-effect:none;fill:none;fill-opacity:1;stroke:#c86487;stroke-width:1px;stroke-linecap:butt;stroke-linejoin:miter;stroke-miterlimit:4;stroke-dasharray:none;stroke-dashoffset:0;stroke-opacity:1;-inkscape-stroke:none;stop-color:#000000;stop-opacity:1"
       d="M 1160.6903,863.27592 635.78279,862.77924"
       id="path860"
       inkscape:path-effect="#path-effect862"
       inkscape:original-d="M 1160.6903,863.27592 635.78279,862.77924" />
    <path
       style="font-variation-settings:normal;opacity:1;vector-effect:none;fill:none;fill-opacity:1;stroke:#c86487;stroke-width:1px;stroke-linecap:butt;stroke-linejoin:miter;stroke-miterlimit:4;stroke-dasharray:none;stroke-dashoffset:0;stroke-opacity:1;-inkscape-stroke:none;stop-color:#000000;stop-opacity:1"
       d="m 635.78279,862.77924 c -0.50495,-38.83706 -5.37363,-77.61576 -14.48502,-115.37228 -10.43295,-43.23292 -26.51569,-85.91777 -26.217,-130.39071 0.21923,-32.64155 9.28982,-64.46835 16.59271,-96.28323 3.47961,-15.15884 6.56964,-30.40408 9.61924,-45.65524 4.73117,-23.66079 9.45267,-47.61108 19.66546,-69.47237 5.26346,-11.26686 11.9176,-21.82281 17.69223,-32.83643 7.5275,-14.35676 13.55809,-29.50173 17.8956,-45.12113 6.73456,-24.25121 9.52569,-49.96846 21.25213,-72.23876 2.27852,-4.32726 4.87976,-8.48942 6.90238,-12.94204 2.02262,-4.45261 3.46616,-9.28161 3.24601,-14.16713 -0.20304,-4.50574 -1.80783,-8.8369 -3.78164,-12.89239 -1.97381,-4.05549 -4.33216,-7.91928 -6.19656,-12.02622 -1.86332,-4.10457 -3.23731,-8.53337 -3.11287,-13.03936 0.13622,-4.93267 2.07978,-9.69886 4.89702,-13.75015 2.81724,-4.05129 6.47997,-7.44477 10.33019,-10.53113 14.96025,-11.99224 32.84295,-19.62341 49.73909,-28.68671 5.63512,-3.02275 11.26743,-6.2518 17.48069,-7.76407 3.10663,-0.75614 6.34271,-1.06785 9.5156,-0.67331 3.17288,0.39455 6.28299,1.51491 8.84125,3.43276 2.55804,1.91769 4.48689,4.55799 6.09455,7.32141 1.60767,2.76343 2.93119,5.68392 4.52324,8.45637 4.30588,7.49843 10.46732,13.73891 16.72086,19.71055 6.25353,5.97163 12.71632,11.81787 17.82698,18.7927 4.76263,6.49985 8.24256,13.83371 12.43897,20.71272 4.19641,6.87902 9.31776,13.49053 16.32313,17.47243 1.24861,0.70972 2.57063,1.33741 3.98811,1.56858 1.41749,0.23118 2.95179,0.0289 4.12219,-0.80353 0.65542,-0.46614 1.17589,-1.11606 1.5035,-1.85059 0.32761,-0.73453 0.46336,-1.5514 0.40841,-2.3538 -0.0613,-0.89498 -0.35616,-1.76508 -0.78954,-2.55053 -0.43338,-0.78544 -1.00288,-1.48963 -1.62967,-2.13142 -1.25358,-1.28356 -2.73471,-2.32278 -4.03794,-3.5559 -2.80008,-2.64944 -4.69578,-6.11349 -6.20784,-9.65942 -1.51205,-3.54594 -2.6871,-7.23255 -4.30821,-10.72998 -4.48277,-9.67127 -12.13245,-17.43716 -19.29302,-25.33368 -17.84805,-19.68243 -33.41632,-41.29384 -49.08718,-62.75019 -2.3623,-3.23444 -4.76297,-6.533041 -6.04086,-10.328966 -1.21841,-3.619244 -1.3371,-7.64624 -0.063,-11.246249 1.27413,-3.600009 3.98979,-6.721814 7.49649,-8.233934 2.83011,-1.22037 6.06322,-1.367668 9.06698,-0.677543 3.00376,0.690126 5.78619,2.185326 8.20685,4.093005 4.68222,3.689967 7.98208,8.812434 11.1817,13.842485 4.66518,7.334018 9.31109,14.692112 13.3878,22.368842 1.61157,3.03469 3.14396,6.13475 5.20482,8.88418 2.06086,2.74943 4.71933,5.16464 7.95435,6.32273 2.22929,0.79805 4.65362,0.9685 7.00675,0.7051 2.35314,-0.26341 4.64276,-0.94961 6.8442,-1.82156 7.32012,-2.89935 13.65679,-7.80718 19.61023,-12.95955 5.95343,-5.15237 11.66697,-10.63833 18.22678,-14.99256 16.42268,-10.900941 36.66689,-13.845673 56.06874,-17.324641 15.08439,-2.7048 30.57014,-6.098674 43.04261,-15.003298 12.4781,-8.908618 20.698,-22.430295 30.8168,-33.94881 5.0593,-5.759257 10.7085,-11.1106 17.3564,-14.927818 6.648,-3.817218 14.3842,-6.031282 22.0092,-5.240177 1.9609,0.203445 3.9224,0.609257 5.7015,1.458562 2.9538,1.410103 5.2273,3.959687 6.9632,6.734583 1.7359,2.774896 3.0049,5.810611 4.4916,8.726617 6.7637,13.266122 17.8794,23.799235 25.6714,36.488692 7.3618,11.988851 11.5829,25.60894 15.3039,39.17663 5.6739,20.68863 10.356,41.63742 15.9099,62.35862 11.2247,41.87875 26.027,82.9062 33.492,125.61565 4.4456,25.43452 6.2477,51.24931 9.5662,76.85528 4.728,36.48162 12.5574,73.12512 8.7478,109.71405 -1.9022,18.26927 -6.6789,36.10325 -11.5921,53.80198 -10.3233,37.18738 -21.3437,74.2587 -28.3853,112.20454 -13.2212,71.24667 -12.1308,145.11901 3.1875,215.94442"
       id="path897"
       inkscape:path-effect="#path-effect899"
       inkscape:original-d="m 635.78279,862.77924 c -4.82734,-38.45643 -9.65568,-76.91385 -14.48502,-115.37228 -4.82934,-38.45842 -17.477,-86.92614 -26.217,-130.39071 -8.74001,-43.46456 11.06281,-64.18782 16.59271,-96.28323 5.52991,-32.09541 6.41383,-30.43583 9.61924,-45.65524 3.20541,-15.21941 13.11131,-46.31391 19.66546,-69.47237 6.55415,-23.15846 11.79582,-21.88995 17.69223,-32.83643 5.89641,-10.94648 11.9314,-30.07975 17.8956,-45.12113 5.9642,-15.04137 14.16909,-48.15817 21.25213,-72.23876 7.08305,-24.08059 6.76659,-18.07178 10.14839,-27.10917 3.3818,-9.03738 -6.65113,-16.61141 -9.9782,-24.91861 -3.32706,-8.30721 -2.07425,-8.69191 -3.11287,-13.03936 -1.03863,-4.34746 10.15247,-16.18652 15.22721,-24.28128 5.07474,-8.09477 33.16039,-19.12348 49.73909,-28.68671 16.57869,-9.56324 23.89269,-3.33541 35.83754,-5.00462 11.94485,-1.6692 7.07952,10.51952 10.61779,15.77778 3.53826,5.25827 23.03289,25.66984 34.54784,38.50325 11.51494,12.83342 19.17573,25.45776 28.7621,38.18515 9.58636,12.72738 5.40786,0.51103 8.1103,0.76505 2.70243,0.25401 1.2756,-2.80193 1.91191,-4.20439 0.6363,-1.40247 -4.30377,-5.4909 -6.45715,-8.23785 -2.15339,-2.74695 -7.0097,-13.59193 -10.51605,-20.3894 -3.50635,-6.79746 -12.86101,-16.88812 -19.29302,-25.33368 -6.43201,-8.44557 -32.72379,-41.83246 -49.08718,-62.75019 -16.36339,-20.917731 -4.02624,-6.884978 -6.04086,-10.328966 -2.01462,-3.443989 4.95668,-12.985789 7.43351,-19.480183 2.47684,-6.494394 11.51689,2.277975 17.27383,3.415462 5.75694,1.137487 7.45547,9.229323 11.1817,13.842485 3.72624,4.613161 8.9262,14.913562 13.3878,22.368842 4.46159,7.45528 8.77378,10.13894 13.15917,15.20691 4.38539,5.06798 9.23497,-0.7433 13.85095,-1.11646 4.61598,-0.37315 25.22567,-18.63374 37.83701,-27.95211 12.61133,-9.318374 37.38016,-11.548762 56.06874,-17.324641 18.68858,-5.77588 28.69607,-10.001199 43.04261,-15.003298 14.3465,-5.002099 46.7893,-36.07687 70.1824,-54.116805 23.3931,-18.0399345 3.802,0.973375 5.7015,1.458562 1.8994,0.485187 7.6375,10.308466 11.4548,15.4612 3.8172,5.152733 17.1153,24.326794 25.6714,36.488692 8.5562,12.161897 10.2036,26.11875 15.3039,39.17663 5.1002,13.05787 10.6076,41.57341 15.9099,62.35862 5.3023,20.78521 22.329,83.74477 33.492,125.61565 11.1631,41.87089 6.3785,51.23786 9.5662,76.85528 3.1877,25.61743 5.8329,73.1437 8.7478,109.71405 2.915,36.57035 -7.7271,35.86899 -11.5921,53.80198 -3.8651,17.933 -18.9226,74.80403 -28.3853,112.20454 -9.4628,37.40052 2.126,143.96395 3.1875,215.94442" />
  </g>
</svg>
