<?xml version="1.0" encoding="UTF-8" standalone="no"?>
<!-- Created with Inkscape (http://www.inkscape.org/) -->

<svg
   version="1.1"
   id="svg2"
   width="1893"
   height="1024"
   viewBox="0 0 1893 1024"
   sodipodi:docname="frame_0088.svg"
   inkscape:version="1.1.2 (0a00cf5339, 2022-02-04)"
   xmlns:inkscape="http://www.inkscape.org/namespaces/inkscape"
   xmlns:sodipodi="http://sodipodi.sourceforge.net/DTD/sodipodi-0.dtd"
   xmlns:xlink="http://www.w3.org/1999/xlink"
   xmlns="http://www.w3.org/2000/svg"
   xmlns:svg="http://www.w3.org/2000/svg">
  <defs
     id="defs6">
    <inkscape:path-effect
       effect="spiro"
       id="path-effect899"
       is_visible="true"
       lpeversion="1" />
    <inkscape:path-effect
       effect="spiro"
       id="path-effect862"
       is_visible="true"
       lpeversion="1" />
  </defs>
  <sodipodi:namedview
     id="namedview4"
     pagecolor="#ffffff"
     bordercolor="#666666"
     borderopacity="1.0"
     inkscape:pageshadow="2"
     inkscape:pageopacity="0.0"
     inkscape:pagecheckerboard="0"
     showgrid="false"
     inkscape:zoom="1.8960771"
     inkscape:cx="1286.3401"
     inkscape:cy="686.94463"
     inkscape:window-width="1850"
     inkscape:window-height="1016"
     inkscape:window-x="70"
     inkscape:window-y="27"
     inkscape:window-maximized="1"
     inkscape:current-layer="g8" />
  <g
     inkscape:groupmode="layer"
     inkscape:label="Image"
     id="g8">
    
    <path
       style="font-variation-settings:normal;opacity:1;vector-effect:none;fill:none;fill-opacity:1;stroke:#c86487;stroke-width:1px;stroke-linecap:butt;stroke-linejoin:miter;stroke-miterlimit:4;stroke-dasharray:none;stroke-dashoffset:0;stroke-opacity:1;-inkscape-stroke:none;stop-color:#000000;stop-opacity:1"
       d="M 1160.5399,862.96619 635.86771,862.59446"
       id="path860"
       inkscape:path-effect="#path-effect862"
       inkscape:original-d="M 1160.5399,862.96619 635.86771,862.59446" />
    <path
       style="font-variation-settings:normal;opacity:1;vector-effect:none;fill:none;fill-opacity:1;stroke:#c86487;stroke-width:1px;stroke-linecap:butt;stroke-linejoin:miter;stroke-miterlimit:4;stroke-dasharray:none;stroke-dashoffset:0;stroke-opacity:1;-inkscape-stroke:none;stop-color:#000000;stop-opacity:1"
       d="m 635.86771,862.59446 c -16.97492,-40.30896 -27.43336,-83.35384 -30.84645,-126.95787 -4.95377,-63.28702 4.83753,-126.65864 12.09747,-189.72273 3.14284,-27.30059 5.87923,-54.94951 14.96283,-80.88574 9.78666,-27.94364 26.56572,-52.82922 39.39577,-79.51284 9.98808,-20.77295 17.56922,-42.61356 24.57817,-64.57151 8.50688,-26.65074 16.2044,-53.55548 23.39098,-80.59216 4.32069,-16.25489 8.48662,-32.79472 8.23103,-49.61211 -0.0726,-4.77497 -0.50254,-9.54413 -0.40641,-14.31868 0.0961,-4.77455 0.74225,-9.6165 2.71371,-13.96609 3.19821,-7.05615 9.5858,-12.17963 16.3528,-15.95129 6.76701,-3.77167 14.09695,-6.45834 20.84308,-10.26723 7.71074,-4.35352 14.56596,-10.12075 22.37053,-14.30373 3.90229,-2.09149 8.0536,-3.78321 12.40588,-4.5955 4.35228,-0.81229 8.92195,-0.71866 13.12373,0.67678 6.86898,2.28123 12.14244,7.74886 16.89008,13.21208 9.41177,10.83033 17.92442,22.40412 26.43928,33.95291 9.80229,13.29493 19.72332,26.68659 32.12122,37.60136 1.15034,1.01273 2.33212,2.01074 3.68296,2.73471 1.35084,0.72396 2.89682,1.16288 4.41861,0.98108 1.56506,-0.18697 3.02191,-1.03707 4.03529,-2.24431 1.01337,-1.20725 1.59256,-2.75204 1.72782,-4.32242 0.16767,-1.94662 -0.33049,-3.91818 -1.23775,-5.64859 -0.90727,-1.73041 -2.21012,-3.23123 -3.67302,-4.52636 -2.9258,-2.59026 -6.46599,-4.37045 -9.65795,-6.6246 -9.25337,-6.53468 -15.14332,-16.6702 -21.81308,-25.82669 -5.99589,-8.23138 -12.83986,-15.91469 -17.68974,-24.8693 -1.76012,-3.24981 -3.27326,-6.77128 -3.29588,-10.46706 -0.0142,-2.32646 0.56346,-4.60926 1.01911,-6.89071 0.45565,-2.28144 0.79057,-4.64926 0.29389,-6.92212 -0.67642,-3.09538 -2.8867,-5.72897 -5.6215,-7.32891 -2.7348,-1.599939 -5.95079,-2.239708 -9.11901,-2.276441 -2.36988,-0.02748 -4.74078,0.267103 -7.10629,0.120786 -1.18276,-0.07316 -2.36447,-0.258131 -3.48615,-0.640344 -1.12169,-0.382213 -2.18399,-0.966785 -3.04613,-1.77979 -1.37027,-1.292167 -2.16796,-3.095972 -2.57336,-4.935261 -0.4054,-1.839288 -0.45032,-3.7358 -0.52367,-5.617807 -0.12548,-3.219467 -0.33849,-6.451854 -0.006,-9.65652 0.33291,-3.204666 1.24939,-6.42224 3.17378,-9.006312 2.51519,-3.377386 6.60574,-5.392684 10.78906,-5.875048 4.18333,-0.482364 8.44298,0.464367 12.29646,2.162485 6.78349,2.989293 12.38096,8.227628 16.84947,14.142358 3.82491,5.062834 6.91354,10.666112 10.94686,15.564539 1.72729,2.097781 3.63261,4.073352 5.02351,6.407792 0.69546,1.167223 1.25787,2.422423 1.56575,3.745773 0.30789,1.32335 0.35556,2.71816 0.0385,4.03936 -0.32826,1.36807 -1.0345,2.61897 -1.85849,3.75932 -0.82399,1.14035 -1.77013,2.1863 -2.64872,3.28513 -0.87859,1.09884 -1.69758,2.26489 -2.22173,3.5705 -0.52415,1.30562 -0.73808,2.76962 -0.38671,4.13193 0.2223,0.86189 0.66497,1.66038 1.24192,2.33817 0.57695,0.67779 1.286,1.23714 2.05589,1.68385 2.13591,1.2393 4.71975,1.59388 7.16382,1.24106 2.44408,-0.35281 4.75642,-1.37922 6.82418,-2.72917 4.13551,-2.6999 7.29206,-6.62389 10.91877,-9.97634 6.79102,-6.27748 15.21916,-10.52546 23.86366,-13.81138 8.6445,-3.285924 17.59955,-5.68546 26.31859,-8.768134 10.15932,-3.591893 19.96633,-8.099557 29.94751,-12.160293 22.85149,-9.296883 46.64899,-16.264588 69.00919,-26.687889 20.9175,-9.750801 40.55,-22.581377 56.7444,-39.024093 1.4767,-1.499368 2.9407,-3.041566 4.7016,-4.193874 1.761,-1.1523078 3.8818,-1.8952199 5.9658,-1.6022986 1.2957,0.1821185 2.5207,0.7591387 3.5485,1.5687493 1.0279,0.8096103 1.8643,1.8460063 2.5251,2.9752773 1.3217,2.258542 1.94,4.847652 2.5652,7.388706 2.57,10.445533 5.5472,20.819214 9.6644,30.757184 8.8357,21.327571 22.7686,40.298334 31.0477,61.848085 6.7795,17.64648 9.5775,36.51565 13.1975,55.06977 6.9704,35.72629 17.1208,70.7537 24.9193,106.30841 9.6072,43.8006 15.6422,88.53416 15.2202,133.37401 -0.2414,25.64678 -2.5596,51.65199 3.0355,76.68218 1.3153,5.88415 3.0683,11.71444 3.4594,17.73111 0.1955,3.00833 0.044,6.05514 -0.6691,8.98432 -0.7129,2.92918 -2.0006,5.74162 -3.9268,8.0607 -1.8746,2.25696 -4.3076,3.99885 -6.8962,5.37976 -2.5887,1.3809 -5.3434,2.41905 -8.0911,3.44783 -6.5611,2.45663 -13.2942,4.97693 -18.5621,9.59565 -6.3239,5.54452 -9.931,13.65589 -11.6186,21.8951 -1.6877,8.23922 -1.6328,16.71967 -1.7463,25.12919 -0.788,58.37658 -10.0024,116.31234 -13.1454,174.60958 -1.8654,34.60084 -1.5882,69.31706 0.8296,103.88369"
       id="path897"
       inkscape:path-effect="#path-effect899"
       inkscape:original-d="m 635.86771,862.59446 c -10.28115,-42.31829 -20.5633,-84.63758 -30.84645,-126.95787 -10.28314,-42.32029 8.06598,-126.48082 12.09747,-189.72273 4.03149,-63.24191 9.97622,-53.92283 14.96283,-80.88574 4.98661,-26.96292 26.26485,-53.00756 39.39577,-79.51284 13.13093,-26.50527 16.38645,-43.04667 24.57817,-64.57151 8.19173,-21.52484 15.59499,-53.72711 23.39098,-80.59216 7.796,-26.86506 5.48836,-33.07374 8.23103,-49.61211 2.74268,-16.53837 1.5392,-18.85551 2.3073,-28.28477 0.7681,-9.42925 24.79825,-17.47801 37.19588,-26.21852 12.39762,-8.74051 31.93442,-12.1473 47.90014,-18.22245 15.96571,-6.07516 11.26105,8.80905 16.89008,13.21208 5.62903,4.40303 17.62719,22.63627 26.43928,33.95291 8.8121,11.31664 21.41515,25.06857 32.12122,37.60136 10.70608,12.53278 5.40205,2.47819 8.10157,3.71579 2.69952,1.23759 3.84307,-4.37682 5.76311,-6.56673 1.92004,-2.18991 -9.71148,-11.1987 -14.56872,-16.79955 -4.85724,-5.60085 -14.54105,-17.21679 -21.81308,-25.82669 -7.27202,-8.6099 -11.79216,-16.57854 -17.68974,-24.8693 -5.89759,-8.29077 -2.19626,-6.97704 -3.29588,-10.46706 -1.09963,-3.49002 0.87633,-9.20755 1.313,-13.81283 0.43666,-4.60527 -9.82601,-6.40257 -14.74051,-9.605351 -4.9145,-3.202785 -9.09138,-1.531899 -13.63857,-2.299348 -4.54718,-0.76745 -2.06369,-7.034379 -3.09703,-10.553068 -1.03335,-3.518689 2.11313,-12.440888 3.1682,-18.662832 1.05507,-6.221944 15.39135,-2.474042 23.08552,-3.712563 7.69417,-1.238521 11.23398,9.429239 16.84947,14.142358 5.61549,4.71312 7.29891,10.377359 10.94686,15.564539 3.64796,5.187179 4.41954,9.462955 6.62781,14.192925 2.20827,4.72998 -4.74277,9.83225 -7.11565,14.74688 -2.37288,4.91462 2.19954,2.68235 3.29781,4.02202 1.09827,1.33968 16.60551,-7.64197 24.90677,-11.46445 8.30126,-3.82248 33.45583,-15.052009 50.18225,-22.579514 16.72641,-7.527505 19.96601,-8.105862 29.94751,-12.160293 9.9815,-4.054432 46.00709,-17.790926 69.00919,-26.687889 23.0021,-8.896963 37.8306,-26.015062 56.7444,-39.024093 18.9139,-13.0090312 7.1126,-3.863115 10.6674,-5.7961726 3.5548,-1.9330576 5.7602,7.9561546 8.6388,11.9327326 2.8786,3.976578 6.444,20.505789 9.6644,30.757184 3.2205,10.251395 20.6995,41.233056 31.0477,61.848085 10.3482,20.61503 8.7994,36.71418 13.1975,55.06977 4.3982,18.35559 16.6139,70.87327 24.9193,106.30841 8.3054,35.43513 10.1478,88.91701 15.2202,133.37401 5.0724,44.45701 2.0247,51.12245 3.0355,76.68218 1.0108,25.55973 -0.7567,23.18509 -1.1365,34.77613 -0.3798,11.59105 -9.9905,5.88606 -14.9873,8.82759 -4.9968,2.94154 -12.3737,6.3981 -18.5621,9.59565 -6.1884,3.19755 -3.6981,35.14007 -13.3649,47.02429 -9.6667,11.88422 -20.2017,148.48939 -13.1454,174.60958 7.0563,26.12018 6.7824,33.38525 0.8296,103.88369"
       sodipodi:nodetypes="cssssssssssssssssssssssssssssssssssssssssssssssssc" />
  </g>
</svg>
