<?xml version="1.0" encoding="UTF-8" standalone="no"?>
<!-- Created with Inkscape (http://www.inkscape.org/) -->

<svg
   version="1.1"
   id="svg2"
   width="1893"
   height="1024"
   viewBox="0 0 1893 1024"
   sodipodi:docname="frame_0104.svg"
   inkscape:version="1.1.2 (0a00cf5339, 2022-02-04)"
   xmlns:inkscape="http://www.inkscape.org/namespaces/inkscape"
   xmlns:sodipodi="http://sodipodi.sourceforge.net/DTD/sodipodi-0.dtd"
   xmlns:xlink="http://www.w3.org/1999/xlink"
   xmlns="http://www.w3.org/2000/svg"
   xmlns:svg="http://www.w3.org/2000/svg">
  <defs
     id="defs6">
    <inkscape:path-effect
       effect="spiro"
       id="path-effect899"
       is_visible="true"
       lpeversion="1" />
    <inkscape:path-effect
       effect="spiro"
       id="path-effect862"
       is_visible="true"
       lpeversion="1" />
  </defs>
  <sodipodi:namedview
     id="namedview4"
     pagecolor="#ffffff"
     bordercolor="#666666"
     borderopacity="1.0"
     inkscape:pageshadow="2"
     inkscape:pageopacity="0.0"
     inkscape:pagecheckerboard="0"
     showgrid="false"
     inkscape:zoom="0.47401928"
     inkscape:cx="1113.8787"
     inkscape:cy="501.03447"
     inkscape:window-width="1850"
     inkscape:window-height="1016"
     inkscape:window-x="70"
     inkscape:window-y="27"
     inkscape:window-maximized="1"
     inkscape:current-layer="g8" />
  <g
     inkscape:groupmode="layer"
     inkscape:label="Image"
     id="g8">
    
    <path
       style="font-variation-settings:normal;opacity:1;vector-effect:none;fill:none;fill-opacity:1;stroke:#c86487;stroke-width:1px;stroke-linecap:butt;stroke-linejoin:miter;stroke-miterlimit:4;stroke-dasharray:none;stroke-dashoffset:0;stroke-opacity:1;-inkscape-stroke:none;stop-color:#000000;stop-opacity:1"
       d="M 1160.52,863.45694 635.907,862.54492"
       id="path860"
       inkscape:path-effect="#path-effect862"
       inkscape:original-d="M 1160.52,863.45694 635.907,862.54492" />
    <path
       style="font-variation-settings:normal;opacity:1;vector-effect:none;fill:none;fill-opacity:1;stroke:#c86487;stroke-width:1px;stroke-linecap:butt;stroke-linejoin:miter;stroke-miterlimit:4;stroke-dasharray:none;stroke-dashoffset:0;stroke-opacity:1;-inkscape-stroke:none;stop-color:#000000;stop-opacity:1"
       d="m 635.907,862.54492 c -6.60634,-27.21997 -10.82493,-55.01901 -12.59147,-82.97344 -3.01225,-47.66694 1.09697,-95.5332 -0.99506,-143.24938 -1.3957,-31.83385 -5.54035,-63.86929 -1.06152,-95.41739 2.67613,-18.85019 8.38335,-37.11547 12.7777,-55.64062 3.87722,-16.3451 6.75037,-32.96876 12.02637,-48.9174 7.95149,-24.0363 21.14391,-45.92164 32.88336,-68.35276 6.91973,-13.22185 13.36785,-26.70943 18.72844,-40.63653 9.19301,-23.88391 15.11973,-48.8697 21.995,-73.52093 3.53377,-12.6703 7.34857,-25.41266 8.01057,-38.54985 0.4292,-8.51735 -0.47839,-17.04727 -0.37459,-25.5748 0.10379,-8.52753 1.30714,-17.29651 5.58037,-24.67682 5.26519,-9.09354 14.48768,-15.01045 22.73402,-21.52294 7.79275,-6.15427 14.9503,-13.09813 22.93327,-19.00357 7.98297,-5.90544 17.01056,-10.82275 26.8514,-12.14934 8.69212,-1.17174 18.01969,0.72131 24.78052,6.30853 5.35233,4.42322 8.72189,10.72409 12.25447,16.70181 13.52947,22.89415 31.16496,43.10286 45.42508,65.54919 0.29153,0.45889 0.58276,0.92024 0.93165,1.33718 0.34889,0.41694 0.75968,0.79084 1.2446,1.03665 0.59113,0.29965 1.27722,0.39655 1.93384,0.30665 0.65661,-0.0899 1.283,-0.36218 1.81827,-0.75296 1.07055,-0.78155 1.75163,-2.00519 2.12203,-3.27787 0.72776,-2.50055 0.35375,-5.19974 -0.39606,-7.69377 -1.53098,-5.09241 -4.54685,-9.59315 -7.63653,-13.92101 -6.22537,-8.72017 -12.93883,-17.11945 -18.42836,-26.32063 -4.80439,-8.05279 -8.67386,-16.72133 -14.49285,-24.07449 -1.25772,-1.58932 -2.6065,-3.11708 -3.66979,-4.84255 -1.06328,-1.72547 -1.83873,-3.69317 -1.80555,-5.71967 0.0301,-1.83745 0.71685,-3.59691 1.47714,-5.26996 0.76029,-1.67304 1.61128,-3.32791 2.00608,-5.12269 0.54835,-2.49285 0.16389,-5.16091 -0.9621,-7.451572 -1.29908,-2.64279 -3.64744,-4.821187 -6.4841,-5.611932 -1.89958,-0.529526 -3.91544,-0.433334 -5.87452,-0.207878 -1.95908,0.225457 -3.91393,0.576414 -5.88566,0.543099 -2.30584,-0.03896 -4.6065,-0.615529 -6.63544,-1.711813 -2.02894,-1.096284 -3.77995,-2.714516 -4.99148,-4.676813 -1.37119,-2.220883 -2.03402,-4.865727 -1.90966,-7.472834 0.12436,-2.607107 1.03024,-5.166849 2.54295,-7.293858 1.51271,-2.127009 3.62382,-3.817512 6.01516,-4.863436 2.39134,-1.045924 5.05542,-1.44859 7.65304,-1.193908 3.31795,0.325307 6.44808,1.689005 9.36874,3.296604 2.92066,1.6076 5.69815,3.47635 8.6926,4.941914 2.84411,1.39198 5.8796,2.418399 8.54917,4.121321 1.33479,0.851462 2.57366,1.874346 3.55239,3.118828 0.97872,1.244481 1.69058,2.719677 1.91632,4.286737 0.24736,1.717141 -0.0916,3.467541 -0.59218,5.128615 -0.50059,1.661075 -1.16359,3.272804 -1.59009,4.954427 -1.23664,4.875879 -0.40579,10.088269 1.38053,14.790669 1.50874,3.97171 3.70115,7.69924 6.56743,10.83535 1.31474,1.43851 2.84583,2.7945 4.72765,3.30103 1.22244,0.32904 2.53062,0.27473 3.75462,-0.0484 1.22401,-0.32317 2.36818,-0.90755 3.41553,-1.61866 2.09472,-1.4222 3.80113,-3.33352 5.69658,-5.01214 7.64495,-6.7704 17.93446,-9.46403 27.43249,-13.21518 14.07334,-5.558128 26.96851,-13.77238 40.98475,-19.472964 18.24794,-7.421671 38.29538,-10.548442 55.34138,-20.422769 13.7336,-7.955543 24.9236,-19.978581 39.2233,-26.864838 8.9497,-4.309858 18.7604,-6.430333 28.3323,-9.085491 9.572,-2.655158 19.216,-5.998442 26.9115,-12.279437 3.2073,-2.617772 6.0145,-5.699255 9.241,-8.2934028 3.2264,-2.5941479 7.0232,-4.734509 11.1549,-4.9964619 2.222,-0.1408767 4.5122,0.29095 6.4155,1.446146 2.1127,1.2822893 3.6365,3.3789243 4.6302,5.6417727 0.9937,2.262849 1.5019,4.704517 1.9624,7.132646 1.4286,7.532106 2.4638,15.14312 4.2268,22.604043 4.2937,18.170808 12.8042,35.054438 22.0143,51.296022 6.1935,10.922034 12.7957,21.775664 16.4824,33.778114 4.0142,13.0685 4.3984,26.92206 5.6982,40.53123 2.4684,25.84393 8.3213,51.22394 13.0847,76.74475 3.1318,16.77939 5.7959,33.64194 8.6485,50.47105 4.4727,26.38719 9.4202,52.79065 10.642,79.52632 0.9188,20.10619 -0.2781,40.25699 0.3813,60.37335 0.6279,19.15433 2.9381,38.26228 2.5334,57.42262 -0.1381,6.53899 -0.5563,13.30572 1.8309,19.39493 0.9904,2.52635 2.452,4.89277 2.9981,7.55082 0.273,1.32902 0.3049,2.72752 -0.079,4.02885 -0.3839,1.30133 -1.2104,2.49809 -2.3844,3.17818 -1.0122,0.58636 -2.2138,0.76181 -3.3836,0.76511 -1.1698,0.003 -2.3345,-0.1536 -3.504,-0.18062 -4.803,-0.11098 -9.3877,1.96178 -13.517,4.41736 -3.6823,2.18981 -7.1975,4.75185 -9.9661,8.02137 -5.5966,6.60923 -7.6517,15.44362 -9.2401,23.95721 -5.7448,30.79196 -7.6983,62.14492 -9.9467,93.38739 -4.9951,69.41041 -11.4992,138.71223 -19.5063,207.83996"
       id="path897"
       inkscape:path-effect="#path-effect899"
       inkscape:original-d="m 635.907,862.54492 c -4.19616,-27.65681 -8.39332,-55.31463 -12.59147,-82.97344 -4.19816,-27.65881 -0.66238,-95.49858 -0.99506,-143.24938 -0.33269,-47.75079 -0.70668,-63.61059 -1.06152,-95.41739 -0.35484,-31.8068 8.51947,-37.09275 12.7777,-55.64062 4.25824,-18.54787 8.01858,-32.6106 12.02637,-48.9174 4.00779,-16.3068 21.92324,-45.56751 32.88336,-68.35276 10.96013,-22.78526 12.48663,-27.09002 18.72844,-40.63653 6.24181,-13.54651 14.66434,-49.01296 21.995,-73.52093 7.33067,-24.50798 5.34138,-25.6989 8.01057,-38.54985 2.6692,-12.85095 3.47152,-33.50008 5.20578,-50.25162 1.73425,-16.75154 15.15701,-14.34762 22.73402,-21.52294 7.57701,-7.17531 33.19078,-20.76761 49.78467,-31.15291 16.59389,-10.38531 16.52135,4.20668 24.78052,6.30853 8.25917,2.10184 8.17065,11.13554 12.25447,16.70181 4.08382,5.56627 30.28438,43.70046 45.42508,65.54919 15.14069,21.84874 1.45183,1.58356 2.17625,2.37383 0.72442,0.79028 3.91709,-2.48179 5.87414,-3.72418 1.95704,-1.2424 -0.26304,-5.12818 -0.39606,-7.69377 -0.13301,-2.56558 -5.09002,-9.27967 -7.63653,-13.92101 -2.54651,-4.64133 -12.28457,-17.54608 -18.42836,-26.32063 -6.14379,-8.77454 -9.6609,-16.04866 -14.49285,-24.07449 -4.83194,-8.02583 -3.64923,-7.04048 -5.47534,-10.56222 -1.82612,-3.52173 2.32315,-6.92743 3.48322,-10.39265 1.16007,-3.46522 -0.6404,-4.96672 -0.9621,-7.451572 -0.3217,-2.484857 -4.32173,-3.740288 -6.4841,-5.611932 -2.16236,-1.871644 -7.83912,0.224481 -11.76018,0.335221 -3.92106,0.11074 -7.75028,-4.258084 -11.62692,-6.388626 -3.87664,-2.130542 9.53533,-13.88169 14.30149,-20.824036 4.76617,-6.942345 12.0419,5.493346 18.06134,8.238518 6.01945,2.745173 9.34626,7.685591 14.01788,11.526886 4.67163,3.841296 -1.45384,6.723028 -2.18227,10.083042 -0.72842,3.360014 0.92135,9.861449 1.38053,14.790669 0.45917,4.92922 4.37929,7.22457 6.56743,10.83535 2.18815,3.61079 3.15277,2.20169 4.72765,3.30103 1.57489,1.09934 8.57882,-4.45183 12.86673,-6.67925 4.2879,-2.22741 18.28933,-8.80912 27.43249,-13.21518 9.14317,-4.40606 27.32417,-12.980976 40.98475,-19.472964 13.66058,-6.491988 36.89527,-13.614179 55.34138,-20.422769 18.4462,-6.808589 26.1499,-17.908892 39.2233,-26.864838 13.0734,-8.955946 36.8302,-14.242285 55.2438,-21.364928 18.4137,-7.122643 13.5983,-8.8589098 20.3959,-13.2898647 6.7977,-4.43095484 4.278,0.9650974 6.4155,1.446146 2.1375,0.4810487 4.3961,8.5172787 6.5926,12.7744187 2.1965,4.257139 2.8189,15.070362 4.2268,22.604043 1.408,7.533681 14.6772,34.198348 22.0143,51.296022 7.3371,17.097674 10.9893,22.519744 16.4824,33.778114 5.4932,11.25837 3.7998,27.02182 5.6982,40.53123 1.8984,13.50941 8.7241,51.16417 13.0847,76.74475 4.3605,25.58058 5.7667,33.64837 8.6485,50.47105 2.8819,16.82269 7.0957,53.01855 10.642,79.52632 3.5463,26.50778 0.2552,40.2499 0.3813,60.37335 0.1261,20.12345 1.69,38.28275 2.5334,57.42262 0.8435,19.13987 1.2216,12.93095 1.8309,19.39493 0.6093,6.46397 0.3575,9.83956 0.5347,14.75785 0.1773,4.91828 -4.5907,0.39066 -6.8876,0.58449 -2.2969,0.19383 -9.0103,2.94591 -13.517,4.41736 -4.5067,1.47146 -6.6431,5.34858 -9.9661,8.02137 -3.3231,2.67279 -6.1591,15.97247 -9.2401,23.95721 -3.081,7.98474 -6.6301,62.25926 -9.9467,93.38739 -3.3166,31.12814 -13.0032,138.56097 -19.5063,207.83996" />
  </g>
</svg>
