<?xml version="1.0" encoding="UTF-8" standalone="no"?>
<!-- Created with Inkscape (http://www.inkscape.org/) -->

<svg
   version="1.1"
   id="svg2"
   width="1893"
   height="1024"
   viewBox="0 0 1893 1024"
   sodipodi:docname="frame_0067.svg"
   inkscape:version="1.1.2 (0a00cf5339, 2022-02-04)"
   xmlns:inkscape="http://www.inkscape.org/namespaces/inkscape"
   xmlns:sodipodi="http://sodipodi.sourceforge.net/DTD/sodipodi-0.dtd"
   xmlns:xlink="http://www.w3.org/1999/xlink"
   xmlns="http://www.w3.org/2000/svg"
   xmlns:svg="http://www.w3.org/2000/svg">
  <defs
     id="defs6">
    <inkscape:path-effect
       effect="spiro"
       id="path-effect899"
       is_visible="true"
       lpeversion="1" />
    <inkscape:path-effect
       effect="spiro"
       id="path-effect862"
       is_visible="true"
       lpeversion="1" />
  </defs>
  <sodipodi:namedview
     id="namedview4"
     pagecolor="#ffffff"
     bordercolor="#666666"
     borderopacity="1.0"
     inkscape:pageshadow="2"
     inkscape:pageopacity="0.0"
     inkscape:pagecheckerboard="0"
     showgrid="false"
     inkscape:zoom="2.681458"
     inkscape:cx="1241.8617"
     inkscape:cy="850.09722"
     inkscape:window-width="1850"
     inkscape:window-height="1016"
     inkscape:window-x="70"
     inkscape:window-y="27"
     inkscape:window-maximized="1"
     inkscape:current-layer="g8" />
  <g
     inkscape:groupmode="layer"
     inkscape:label="Image"
     id="g8">
    
    <path
       style="font-variation-settings:normal;opacity:1;vector-effect:none;fill:none;fill-opacity:1;stroke:#c86487;stroke-width:1px;stroke-linecap:butt;stroke-linejoin:miter;stroke-miterlimit:4;stroke-dasharray:none;stroke-dashoffset:0;stroke-opacity:1;-inkscape-stroke:none;stop-color:#000000;stop-opacity:1"
       d="M 1160.5619,863.0895 635.58221,862.60993"
       id="path860"
       inkscape:path-effect="#path-effect862"
       inkscape:original-d="M 1160.5619,863.0895 635.58221,862.60993" />
    <path
       style="font-variation-settings:normal;opacity:1;vector-effect:none;fill:none;fill-opacity:1;stroke:#c86487;stroke-width:1px;stroke-linecap:butt;stroke-linejoin:miter;stroke-miterlimit:4;stroke-dasharray:none;stroke-dashoffset:0;stroke-opacity:1;-inkscape-stroke:none;stop-color:#000000;stop-opacity:1"
       d="m 635.58221,862.60993 c -27.05203,-65.21153 -39.793,-136.31588 -37.06717,-206.86321 1.75251,-45.35678 9.79136,-90.24999 19.66289,-134.55418 9.48278,-42.55949 20.86008,-85.2157 41.65055,-123.5431 7.85522,-14.48115 17.04315,-28.32461 23.09715,-43.6464 4.04138,-10.22814 6.62426,-20.96625 10.12403,-31.39214 7.17956,-21.38808 18.27688,-41.69155 21.5086,-64.01983 1.909,-13.18948 0.98861,-26.59765 0.79963,-39.92322 -0.18899,-13.32558 0.41403,-26.94626 5.16724,-39.39671 5.46414,-14.31265 16.12047,-26.16258 28.27423,-35.4897 13.16108,-10.10017 28.52057,-17.6733 44.91939,-20.18451 4.18227,-0.64045 8.43937,-0.95113 12.64782,-0.51468 4.20845,0.43645 8.37864,1.64236 11.97508,3.87107 3.89635,2.41457 6.99288,5.93992 9.59027,9.71686 2.59739,3.77693 4.74709,7.8399 7.15204,11.74219 9.03173,14.65492 21.50852,26.81946 33.91522,38.75313 6.88499,6.62249 13.86399,13.31488 18.93333,21.41193 1.09755,1.75308 2.12998,3.60064 3.69646,4.95121 0.78324,0.67528 1.69751,1.21479 2.69798,1.4766 1.00047,0.26181 2.09045,0.23356 3.04161,-0.17236 0.75335,-0.3215 1.40219,-0.87231 1.86897,-1.54537 0.46678,-0.67306 0.75359,-1.4651 0.85888,-2.27738 0.21059,-1.62457 -0.30544,-3.28754 -1.19654,-4.66214 -0.8911,-1.37459 -2.13616,-2.48656 -3.46365,-3.44642 -1.3275,-0.95986 -2.74825,-1.78272 -4.10865,-2.69535 -5.61754,-3.76855 -10.1043,-8.99842 -14.03071,-14.50678 -3.92641,-5.50836 -7.3636,-11.35472 -11.33935,-16.82757 -8.0721,-11.11171 -18.43926,-20.82085 -23.82746,-33.45399 -2.18137,-5.11442 -3.48185,-10.61555 -3.69272,-16.17174 -0.0777,-2.04832 -0.009,-4.10261 -0.17022,-6.14603 -0.16152,-2.04343 -0.56567,-4.10167 -1.52757,-5.91176 -1.33246,-2.50742 -3.65807,-4.37514 -6.20133,-5.63786 -2.54325,-1.26272 -5.31806,-1.975856 -8.07499,-2.655509 -3.50327,-0.863643 -7.05209,-1.700095 -10.28039,-3.311571 -3.22829,-1.611476 -6.15869,-4.102113 -7.55827,-7.427757 -1.14088,-2.710919 -1.17835,-5.836736 -0.26866,-8.633728 0.90968,-2.796993 2.73339,-5.261748 5.03407,-7.094113 2.30068,-1.832366 5.06351,-3.046032 7.93523,-3.68157 2.87172,-0.635538 5.85191,-0.704619 8.77599,-0.387697 9.73826,1.055467 18.57768,6.303287 26.01895,12.673159 3.0781,2.634912 5.98987,5.496094 8.37447,8.771939 2.38459,3.275845 4.23507,6.986825 5.04572,10.956747 0.68138,3.33686 0.61891,6.77364 0.62619,10.17935 0.007,3.4057 0.0942,6.85928 1.05714,10.12603 0.55883,1.89582 1.41656,3.71679 2.63928,5.26966 1.22272,1.55287 2.82055,2.83093 4.66059,3.55251 2.45251,0.96177 5.24004,0.89111 7.74959,0.0899 2.50956,-0.80122 4.75719,-2.29617 6.69401,-4.08182 3.87363,-3.5713 6.52895,-8.24455 9.90472,-12.28972 6.51791,-7.81039 15.62268,-13.12189 25.1719,-16.628735 9.54921,-3.506845 19.61624,-5.337618 29.61506,-7.21086 33.19892,-6.219696 67.57369,-13.653905 94.26489,-34.352496 9.5746,-7.424937 17.8648,-16.353902 25.9691,-25.360704 4.7567,-5.286397 9.5347,-10.675658 15.4401,-14.637838 2.9527,-1.981091 6.1771,-3.588387 9.6053,-4.532232 3.4281,-0.9438448 7.0665,-1.2113652 10.5608,-0.553414 3.3736,0.635233 6.575,2.132019 9.2596,4.27164 3.6502,2.909222 6.2872,6.927337 8.2154,11.1782 1.9282,4.250863 3.1969,8.76432 4.5286,13.238043 6.6082,22.199389 14.9254,43.847508 22.283,65.809906 7.8973,23.57341 14.6881,47.50695 20.854,71.59129 5.6512,22.07389 10.7801,44.28407 15.1968,66.63769 7.9132,40.04995 13.5334,80.52543 18.0119,121.10327 4.0379,36.58575 7.1524,73.30474 7.8365,110.10628 0.2545,13.68887 0.1724,27.3881 -0.5017,41.06273 -0.1451,2.94262 -0.356,6.01478 -1.8681,8.54332 -1.542,2.57847 -4.2323,4.23752 -6.928,5.56386 -2.6958,1.32634 -5.5439,2.44903 -7.8552,4.36838 -1.9601,1.62763 -3.4477,3.76669 -4.5832,6.04742 -1.1354,2.28073 -1.9359,4.71136 -2.6922,7.14425 -10.8096,34.77084 -13.3072,71.49518 -15.7928,107.8226 -4.7512,69.43877 -9.7185,138.86276 -14.9017,208.27062"
       id="path897"
       inkscape:path-effect="#path-effect899"
       inkscape:original-d="m 635.58221,862.60993 c -12.35472,-68.9534 -24.71045,-137.9078 -37.06717,-206.86321 -12.35672,-68.9554 13.10959,-89.70179 19.66289,-134.55418 6.5533,-44.85239 27.76804,-82.36107 41.65055,-123.5431 13.88252,-41.18203 15.3991,-29.0966 23.09715,-43.6464 7.69805,-14.5498 6.75035,-20.9271 10.12403,-31.39214 3.37367,-10.46505 14.34006,-42.67889 21.5086,-64.01983 7.16853,-21.34094 3.97891,-52.87895 5.96687,-79.31993 1.98795,-26.44097 18.85048,-23.6588 28.27423,-35.4897 9.42374,-11.8309 29.94726,-13.45534 44.91939,-20.18451 14.97213,-6.72917 16.41626,2.23859 24.6229,3.35639 8.20663,1.11779 11.16254,14.30703 16.74231,21.45905 5.57977,7.15202 22.61115,25.83642 33.91522,38.75313 11.30408,12.91671 12.62322,14.27562 18.93333,21.41193 6.31011,7.13631 6.2917,4.1713 9.43605,6.25545 3.14435,2.08415 -4.02633,-9.75011 -6.04099,-14.62666 -2.01467,-4.87655 -16.91238,-20.88857 -25.37006,-31.33435 -8.45769,-10.44579 -15.88398,-22.30166 -23.82746,-33.45399 -7.94349,-11.15232 -2.46081,-10.78016 -3.69272,-16.17174 -1.2319,-5.39158 -1.13086,-8.03753 -1.69779,-12.05779 -0.56693,-4.02027 -9.51655,-5.52791 -14.27632,-8.293369 -4.75978,-2.765455 -11.89144,-7.158552 -17.83866,-10.739328 -5.94722,-3.580776 14.31875,-13.197072 21.47663,-19.797108 7.15788,-6.600036 17.34697,8.449773 26.01895,12.673159 8.67199,4.223387 8.94779,13.153457 13.42019,19.728686 4.47239,6.57523 1.12322,13.53792 1.68333,20.30538 0.56011,6.76746 4.86758,5.88245 7.29987,8.82217 2.43229,2.93973 16.23321,-10.85344 24.34832,-16.28166 8.11511,-5.42822 36.52564,-15.892064 54.78696,-23.839595 18.26132,-7.94753 62.84419,-22.900664 94.26489,-34.352496 31.4206,-11.451832 17.3137,-16.906136 25.9691,-25.360704 8.6554,-8.454568 23.7385,-13.14799 35.6062,-19.723484 11.8677,-6.5754952 6.1741,2.84876 9.2596,4.27164 3.0856,1.42288 8.497,16.278495 12.744,24.416243 4.247,8.137748 14.8564,43.874269 22.283,65.809906 7.4267,21.93563 13.9037,47.72853 20.854,71.59129 6.9503,23.86277 10.1322,44.42613 15.1968,66.63769 5.0646,22.21156 12.0089,80.73651 18.0119,121.10327 6.0029,40.36676 5.2253,73.40519 7.8365,110.10628 2.6111,36.70109 -0.3335,27.37615 -0.5017,41.06273 -0.1683,13.68657 -1.2444,5.69655 -1.8681,8.54332 -0.6237,2.84678 -9.8545,6.62249 -14.7832,9.93224 -4.9287,3.30974 -4.8493,8.79545 -7.2754,13.19167 -2.4262,4.39623 -10.5275,71.88273 -15.7928,107.8226 -5.2652,35.93987 -9.9335,138.84808 -14.9017,208.27062" />
  </g>
</svg>
