<?xml version="1.0" encoding="UTF-8" standalone="no"?>
<!-- Created with Inkscape (http://www.inkscape.org/) -->

<svg
   version="1.1"
   id="svg2"
   width="1893"
   height="1024"
   viewBox="0 0 1893 1024"
   sodipodi:docname="frame_0073.svg"
   inkscape:version="1.1.2 (0a00cf5339, 2022-02-04)"
   xmlns:inkscape="http://www.inkscape.org/namespaces/inkscape"
   xmlns:sodipodi="http://sodipodi.sourceforge.net/DTD/sodipodi-0.dtd"
   xmlns:xlink="http://www.w3.org/1999/xlink"
   xmlns="http://www.w3.org/2000/svg"
   xmlns:svg="http://www.w3.org/2000/svg">
  <defs
     id="defs6">
    <inkscape:path-effect
       effect="spiro"
       id="path-effect899"
       is_visible="true"
       lpeversion="1" />
    <inkscape:path-effect
       effect="spiro"
       id="path-effect862"
       is_visible="true"
       lpeversion="1" />
  </defs>
  <sodipodi:namedview
     id="namedview4"
     pagecolor="#ffffff"
     bordercolor="#666666"
     borderopacity="1.0"
     inkscape:pageshadow="2"
     inkscape:pageopacity="0.0"
     inkscape:pagecheckerboard="0"
     showgrid="false"
     inkscape:zoom="0.47401928"
     inkscape:cx="1052.6998"
     inkscape:cy="454.62285"
     inkscape:window-width="1850"
     inkscape:window-height="1016"
     inkscape:window-x="70"
     inkscape:window-y="27"
     inkscape:window-maximized="1"
     inkscape:current-layer="g8" />
  <g
     inkscape:groupmode="layer"
     inkscape:label="Image"
     id="g8">
    
    <path
       style="font-variation-settings:normal;opacity:1;vector-effect:none;fill:none;fill-opacity:1;stroke:#c86487;stroke-width:1px;stroke-linecap:butt;stroke-linejoin:miter;stroke-miterlimit:4;stroke-dasharray:none;stroke-dashoffset:0;stroke-opacity:1;-inkscape-stroke:none;stop-color:#000000;stop-opacity:1"
       d="M 1160.5137,862.96751 635.55026,862.66259"
       id="path860"
       inkscape:path-effect="#path-effect862"
       inkscape:original-d="M 1160.5137,862.96751 635.55026,862.66259" />
    <path
       style="font-variation-settings:normal;opacity:1;vector-effect:none;fill:none;fill-opacity:1;stroke:#c86487;stroke-width:1px;stroke-linecap:butt;stroke-linejoin:miter;stroke-miterlimit:4;stroke-dasharray:none;stroke-dashoffset:0;stroke-opacity:1;-inkscape-stroke:none;stop-color:#000000;stop-opacity:1"
       d="m 635.55026,862.66259 c 0.46505,-73.40292 -3.9058,-146.83611 -13.07483,-219.6656 -3.77892,-30.01591 -8.37801,-60.0032 -9.27973,-90.2426 -0.90173,-30.23941 2.01288,-60.98961 12.80951,-89.25032 11.23133,-29.39853 30.4936,-54.95989 44.83067,-82.97533 9.24654,-18.06826 16.42325,-37.12128 22.9683,-56.33385 7.80372,-22.90734 14.73669,-46.1005 21.62603,-69.29923 5.88,-19.79996 11.79334,-40.22213 9.74091,-60.77451 -0.57958,-5.80371 -1.79196,-11.53638 -2.21245,-17.35378 -0.4205,-5.81739 -6.1e-4,-11.85461 2.51927,-17.11476 2.22442,-4.64338 5.97499,-8.42621 10.1964,-11.37388 4.2214,-2.94766 8.92545,-5.12277 13.63477,-7.20396 15.86773,-7.01242 32.13526,-13.14749 48.78359,-18.02523 3.79147,-1.11085 7.63985,-2.16271 11.58562,-2.36308 3.94576,-0.20038 8.04188,0.51164 11.33977,2.68722 3.46983,2.289 5.77346,5.99172 7.36821,9.83047 1.59476,3.83874 2.58441,7.90211 4.07359,11.78303 3.31627,8.64249 9.03311,16.17445 15.4086,22.88589 6.37549,6.71143 13.45669,12.70994 20.09676,19.15972 10.22623,9.93316 19.38624,20.91875 27.92763,32.33313 1.0757,1.43752 2.18211,2.91937 3.72032,3.84539 0.76911,0.463 1.64046,0.77473 2.53711,0.81858 0.89665,0.0438 1.81827,-0.19246 2.53616,-0.73148 0.61895,-0.46473 1.0671,-1.13828 1.31418,-1.87178 0.24707,-0.73351 0.29933,-1.52464 0.21162,-2.29365 -0.17544,-1.53802 -0.88943,-2.95719 -1.63207,-4.31541 -5.82258,-10.64898 -14.04821,-19.76043 -20.92616,-29.76028 -6.03667,-8.77671 -11.0293,-18.23088 -16.95359,-27.08383 -5.9243,-8.85296 -12.94267,-17.23615 -22.01349,-22.82117 -2.9276,-1.80256 -6.09439,-3.33633 -8.48095,-5.81108 -1.19328,-1.23737 -2.17274,-2.70948 -2.67308,-4.35406 -0.50034,-1.64459 -0.49613,-3.46966 0.18485,-5.04804 0.42364,-0.98191 1.09259,-1.84314 1.85581,-2.59222 0.76321,-0.74909 1.62203,-1.39293 2.48515,-2.02431 1.72625,-1.26277 3.54109,-2.55135 4.56538,-4.42893 1.07677,-1.97378 1.12384,-4.41839 0.37293,-6.53768 -0.5982,-1.68831 -1.67277,-3.19071 -3.0067,-4.386054 -1.33393,-1.195344 -2.9218,-2.090213 -4.5995,-2.717548 -3.35539,-1.254671 -7.00903,-1.441841 -10.59123,-1.415087 -2.91859,0.0218 -5.85922,0.174938 -8.7381,-0.305317 -2.87889,-0.480255 -5.75039,-1.670309 -7.64212,-3.892916 -1.31101,-1.540312 -2.08091,-3.509037 -2.28955,-5.520946 -0.20865,-2.011909 0.12935,-4.062856 0.85282,-5.951743 1.44695,-3.777776 4.35633,-6.822556 7.53998,-9.318478 2.30624,-1.808052 4.80567,-3.392408 7.51576,-4.507424 2.71008,-1.115016 5.63927,-1.752356 8.56793,-1.648665 3.62709,0.12842 7.15462,1.390607 10.2719,3.249318 3.11729,1.858711 5.85107,4.299669 8.37231,6.910344 6.95076,7.197323 12.38578,15.740337 16.90808,24.66577 1.47868,2.918396 2.87328,5.906856 3.67291,9.079246 0.79963,3.1724 0.98005,6.56291 0.0367,9.69557 -0.68491,2.27442 -1.93225,4.33572 -2.79796,6.54766 -0.43285,1.10597 -0.77143,2.25743 -0.88244,3.43989 -0.11102,1.18246 0.0128,2.40055 0.47414,3.49493 0.45204,1.07225 1.22162,2.00167 2.16435,2.68381 0.94273,0.68214 2.05434,1.11982 3.20235,1.30993 2.29601,0.3802 4.68106,-0.23181 6.71116,-1.36977 2.03009,-1.13796 3.73894,-2.77424 5.2693,-4.52758 1.53037,-1.75335 2.9038,-3.63816 4.41729,-5.40609 9.20092,-10.74775 22.8449,-16.45277 36.0724,-21.47317 26.34831,-10.000315 53.27982,-18.817315 78.17308,-32.02963 19.158,-10.168261 36.8793,-22.822049 55.6099,-33.757558 18.7306,-10.935509 38.8911,-20.269699 60.4234,-22.873802 1.03,-0.124562 2.0665,-0.233716 3.103,-0.189584 2.0931,0.08912 4.1397,0.812481 5.8915,1.961485 1.7517,1.149003 3.2138,2.713717 4.3445,4.477387 2.2614,3.52734 3.1769,7.759098 3.5244,11.934648 0.6386,7.67389 -0.5005,15.367889 -1.0086,23.051524 -0.508,7.683635 -0.3345,15.653031 2.7445,22.711084 2.8274,6.481256 7.8833,11.696366 12.9838,16.593817 5.1006,4.897451 10.4299,9.726569 14.0461,15.803079 3.369,5.66117 5.0932,12.16803 5.9855,18.69512 0.8923,6.52708 0.9903,13.13232 1.3326,19.71122 1.9801,38.05509 12.1194,75.13099 20.178,112.37571 9.1813,42.43349 15.7156,85.48792 18.2633,128.82851 2.1234,36.12374 1.4787,72.41139 5.0153,108.42426 0.3964,4.03677 0.8459,8.08851 0.6401,12.13948 -0.2057,4.05097 -1.102,8.14358 -3.2172,11.60458 -2.8874,4.72444 -7.7302,7.84192 -11.6865,11.71554 -6.9487,6.80347 -11.1514,15.99909 -13.5537,25.42251 -2.4022,9.42342 -3.1388,19.17677 -4.081,28.85582 -2.0703,21.26751 -5.1745,42.4186 -7.9048,63.61149 -9.0101,69.93742 -13.952,140.39875 -14.7923,210.90917"
       id="path897"
       inkscape:path-effect="#path-effect899"
       inkscape:original-d="m 635.55026,862.66259 c -4.35728,-73.22087 -8.71555,-146.44273 -13.07483,-219.6656 -4.35928,-73.22286 2.35419,-119.66095 3.52978,-179.49292 1.1756,-59.83197 29.88811,-55.31589 44.83067,-82.97533 14.94255,-27.65945 15.3132,-37.5549 22.9683,-56.33385 7.6551,-18.77895 14.41835,-46.19849 21.62603,-69.29923 7.20768,-23.10074 6.49494,-40.51534 9.74091,-60.77451 3.24597,-20.25917 0.20555,-22.97802 0.30682,-34.46854 0.10127,-11.49051 15.88845,-12.38423 23.83117,-18.57784 7.94272,-6.19361 32.52339,-12.01582 48.78359,-18.02523 16.2602,-6.00941 15.28459,0.21709 22.92539,0.32414 7.64079,0.10704 7.62887,14.41 11.4418,21.6135 3.81294,7.2035 23.67124,28.03141 35.50536,42.04561 11.83411,14.0142 18.61942,21.55642 27.92763,32.33313 9.30821,10.7767 5.8634,2.62266 8.79359,3.93249 2.9302,1.30984 -0.0698,-5.65289 -0.10627,-8.48084 -0.0364,-2.82795 -13.94977,-19.83918 -20.92616,-29.76028 -6.97638,-9.92109 -25.97705,-33.269 -38.96708,-49.905 -12.99002,-16.636 -7.31178,-10.14112 -10.96918,-15.21318 -3.65739,-5.07206 5.93856,-6.02931 8.90634,-9.04546 2.96778,-3.01616 0.24962,-4.35745 0.37293,-6.53768 0.12331,-2.18022 -12.13062,-5.678126 -18.19743,-8.518689 -6.06682,-2.840564 -10.91915,-2.797822 -16.38022,-4.198233 -5.46107,-1.400411 4.06983,-13.859778 6.10325,-20.791167 2.03342,-6.931389 10.72346,-4.10306 16.08369,-6.156089 5.36023,-2.05303 12.43047,6.774108 18.64421,10.159662 6.21373,3.385554 11.27305,16.444847 16.90808,24.66577 5.63503,8.220926 2.47407,12.517546 3.7096,18.774816 1.23554,6.25727 -2.13651,8.98932 -3.20626,13.48248 -1.06976,4.49316 14.51063,-4.87213 21.76445,-7.3097 7.25382,-2.43756 24.04927,-14.31445 36.0724,-21.47317 12.02313,-7.158723 52.11638,-21.352086 78.17308,-32.02963 26.0567,-10.677543 77.3566,-37.75324 116.0333,-56.63136 38.6768,-18.8781201 2.0697,-0.125389 3.103,-0.189584 1.0333,-0.06419 9.1746,12.250013 13.7604,18.37352 4.5859,6.123507 1.1583,30.509405 1.7359,45.762608 0.5777,15.253202 18.0209,21.598929 27.0299,32.396896 9.0089,10.79796 4.8797,25.60522 7.3181,38.40634 2.4384,12.80111 13.453,74.91814 20.178,112.37571 6.7249,37.45757 12.1765,85.88667 18.2633,128.82851 6.0868,42.94184 3.3445,72.28384 5.0153,108.42426 1.6707,36.14042 -1.7171,15.83038 -2.5771,23.74406 -0.86,7.91369 -7.79,7.81136 -11.6865,11.71554 -3.8966,3.90419 -11.7555,36.18655 -17.6347,54.27833 -5.8792,18.09177 -5.2689,42.40866 -7.9048,63.61149 -2.636,21.20283 -9.8605,140.60711 -14.7923,210.90917" />
  </g>
</svg>
