<?xml version="1.0" encoding="UTF-8" standalone="no"?>
<!-- Created with Inkscape (http://www.inkscape.org/) -->

<svg
   version="1.1"
   id="svg2"
   width="1893"
   height="1024"
   viewBox="0 0 1893 1024"
   xmlns:xlink="http://www.w3.org/1999/xlink"
   xmlns="http://www.w3.org/2000/svg"
   xmlns:svg="http://www.w3.org/2000/svg">
  <defs
     id="defs6" />
  <g
     id="g8">
    
    <path
       style="font-variation-settings:normal;opacity:1;vector-effect:none;fill:none;fill-opacity:1;stroke:#c86487;stroke-width:1px;stroke-linecap:butt;stroke-linejoin:miter;stroke-miterlimit:4;stroke-dasharray:none;stroke-dashoffset:0;stroke-opacity:1;-inkscape-stroke:none;stop-color:#000000;stop-opacity:1"
       d="M 1161.2644,863.88288 635.77574,862.88426"
       id="path860" />
    <path
       style="font-variation-settings:normal;opacity:1;vector-effect:none;fill:none;fill-opacity:1;stroke:#c86487;stroke-width:1px;stroke-linecap:butt;stroke-linejoin:miter;stroke-miterlimit:4;stroke-dasharray:none;stroke-dashoffset:0;stroke-opacity:1;-inkscape-stroke:none;stop-color:#000000;stop-opacity:1"
       d="m 635.77574,862.88426 c -26.4629,-52.52283 -40.16586,-111.41872 -39.60613,-170.22875 0.42003,-44.13177 8.71113,-87.82532 10.928,-131.90337 0.94824,-18.85393 0.79436,-37.86299 4.25762,-56.42036 4.78463,-25.63774 16.27328,-49.43509 26.10515,-73.59126 7.75825,-19.06145 14.67758,-38.78137 26.69603,-55.48724 3.5154,-4.88647 7.44803,-9.4841 10.5942,-14.61607 3.14618,-5.13198 5.51082,-10.94586 5.46,-16.96525 -0.0328,-3.89047 -1.06964,-7.71355 -1.19696,-11.60207 -0.19657,-6.00327 1.7804,-11.87263 4.26284,-17.34212 2.48245,-5.4695 5.49702,-10.70561 7.58152,-16.33879 2.87903,-7.78032 3.90691,-16.099 5.07284,-24.31257 1.16593,-8.21357 2.5253,-16.52471 5.9939,-24.06069 2.24851,-4.88519 5.33612,-9.33609 7.79947,-14.11654 2.47553,-4.80409 4.33362,-10.04412 4.42923,-15.44768 0.11356,-6.41791 -2.24046,-12.58957 -4.50067,-18.5974 -2.26021,-6.00782 -4.49476,-12.24956 -4.12803,-18.65799 0.35514,-6.20591 3.16293,-12.07206 6.93129,-17.01564 3.76835,-4.94358 8.47782,-9.0771 13.17522,-13.14821 11.67389,-10.11747 23.87437,-20.29847 38.52826,-25.1879 5.82409,-1.94327 11.97156,-3.00572 18.10753,-2.79085 6.13597,0.21486 12.26053,1.73039 17.63494,4.69889 10.02337,5.5363 16.63953,15.50068 23.37102,24.76382 7.72801,10.63445 16.09213,20.79158 24.62847,30.78881 8.91061,10.43556 18.01868,20.70929 26.55598,31.4524 0.9972,1.25485 1.99442,2.52434 3.2055,3.57425 1.21108,1.04992 2.6654,1.87875 4.25389,2.09266 0.89658,0.12074 1.82311,0.0406 2.67593,-0.26128 0.85281,-0.30189 1.6293,-0.82796 2.20279,-1.52763 0.82682,-1.00874 1.20194,-2.34674 1.15253,-3.6501 -0.0494,-1.30336 -0.50233,-2.57146 -1.17533,-3.68871 -1.34601,-2.2345 -3.49911,-3.83754 -5.52617,-5.47942 -12.11124,-9.80988 -21.24001,-22.72711 -30.35912,-35.36663 -9.75898,-13.52641 -19.70356,-26.94957 -30.72966,-39.46462 -9.66488,-10.97002 -20.38393,-21.59192 -25.78315,-35.178669 -1.35441,-3.408282 -2.35629,-7.000046 -2.45837,-10.666161 -0.10208,-3.666115 0.74513,-7.424994 2.82741,-10.444086 1.58334,-2.29568 3.84876,-4.104956 6.41562,-5.195074 2.56686,-1.090117 5.42546,-1.464495 8.19408,-1.130008 3.96255,0.47873 7.64431,2.368368 10.83015,4.772819 3.18584,2.40445 5.93953,5.323393 8.73747,8.169882 9.1492,9.307962 19.1817,18.330087 24.4699,30.262437 0.85049,1.91905 1.57067,3.90046 2.57262,5.74497 1.00196,1.8445 2.32083,3.57469 4.1033,4.68325 2.10109,1.30672 4.70141,1.64481 7.15577,1.33144 2.45436,-0.31337 4.79057,-1.2349 7.02449,-2.2987 8.79258,-4.18705 16.29814,-10.60312 24.47098,-15.89893 17.65832,-11.442187 38.15547,-17.501333 58.11563,-24.159551 26.82152,-8.946996 53.45108,-19.348649 76.93498,-35.095059 11.5941,-7.774099 22.3237,-16.790136 32.3816,-26.470009 3.1202,-3.002972 6.1943,-6.08509 9.7145,-8.607372 3.5202,-2.522283 7.5532,-4.4834894 11.8601,-4.9357007 3.9116,-0.4107038 7.9225,0.4594656 11.3974,2.3017947 3.4331,1.820196 6.3357,4.555031 8.6173,7.7005 2.2815,3.14547 3.9609,6.696807 5.2493,10.362821 3.6501,10.386395 4.1883,21.586469 6.7472,32.294074 2.801,11.720883 7.9846,22.708251 12.843,33.736422 10.3347,23.45878 19.3522,47.55162 25.7235,72.3816 5.4699,21.31733 8.9671,43.0809 13.002,64.71579 4.8673,26.09816 10.5254,52.04797 15.0533,78.20716 5.3191,30.73017 9.071,61.70599 13.2174,92.61624 4.0686,30.33062 8.53,60.87794 6.4742,91.4111 -0.49,7.27801 -1.4317,14.78304 -5.1637,21.05052 -1.8352,3.08189 -4.3212,5.78551 -7.2916,7.79614 -2.343,1.58595 -4.9519,2.72649 -7.4613,4.03332 -2.5094,1.30683 -4.9751,2.82469 -6.801,4.98595 -1.4731,1.74373 -2.4775,3.8559 -3.0653,6.06163 -0.5877,2.20573 -0.7686,4.50598 -0.7045,6.78777 0.1281,4.56358 1.22,9.03738 1.8901,13.55332 2.2242,14.99051 -0.2308,30.33348 -4.4259,44.8959 -4.1951,14.56241 -10.1068,28.56553 -15.0081,42.90568 -23.9986,70.21463 -22.8304,148.74402 3.2462,218.21372"
       id="path897" />
  </g>
</svg>
