<?xml version="1.0" encoding="UTF-8" standalone="no"?>
<!-- Created with Inkscape (http://www.inkscape.org/) -->

<svg
   version="1.1"
   id="svg2"
   width="1893"
   height="1024"
   viewBox="0 0 1893 1024"
   sodipodi:docname="frame_0133.svg"
   inkscape:version="1.1.2 (0a00cf5339, 2022-02-04)"
   xmlns:inkscape="http://www.inkscape.org/namespaces/inkscape"
   xmlns:sodipodi="http://sodipodi.sourceforge.net/DTD/sodipodi-0.dtd"
   xmlns:xlink="http://www.w3.org/1999/xlink"
   xmlns="http://www.w3.org/2000/svg"
   xmlns:svg="http://www.w3.org/2000/svg">
  <defs
     id="defs6">
    <inkscape:path-effect
       effect="spiro"
       id="path-effect899"
       is_visible="true"
       lpeversion="1" />
    <inkscape:path-effect
       effect="spiro"
       id="path-effect862"
       is_visible="true"
       lpeversion="1" />
  </defs>
  <sodipodi:namedview
     id="namedview4"
     pagecolor="#ffffff"
     bordercolor="#666666"
     borderopacity="1.0"
     inkscape:pageshadow="2"
     inkscape:pageopacity="0.0"
     inkscape:pagecheckerboard="0"
     showgrid="false"
     inkscape:zoom="0.94803857"
     inkscape:cx="1002.0689"
     inkscape:cy="344.39527"
     inkscape:window-width="1850"
     inkscape:window-height="1016"
     inkscape:window-x="70"
     inkscape:window-y="27"
     inkscape:window-maximized="1"
     inkscape:current-layer="g8" />
  <g
     inkscape:groupmode="layer"
     inkscape:label="Image"
     id="g8">
    
    <path
       style="font-variation-settings:normal;opacity:1;vector-effect:none;fill:none;fill-opacity:1;stroke:#c86487;stroke-width:1px;stroke-linecap:butt;stroke-linejoin:miter;stroke-miterlimit:4;stroke-dasharray:none;stroke-dashoffset:0;stroke-opacity:1;-inkscape-stroke:none;stop-color:#000000;stop-opacity:1"
       d="M 1160.8202,863.04364 H 635.49212"
       id="path860"
       inkscape:path-effect="#path-effect862"
       inkscape:original-d="M 1160.8202,863.04364 H 635.49212" />
    <path
       style="font-variation-settings:normal;opacity:1;vector-effect:none;fill:none;fill-opacity:1;stroke:#c86487;stroke-width:1px;stroke-linecap:butt;stroke-linejoin:miter;stroke-miterlimit:4;stroke-dasharray:none;stroke-dashoffset:0;stroke-opacity:1;-inkscape-stroke:none;stop-color:#000000;stop-opacity:1"
       d="m 635.49212,863.04364 c -6.54816,-32.86529 -11.8463,-65.97962 -15.87912,-99.24736 -8.18358,-67.50833 -11.08854,-136.47659 2.59694,-203.0878 5.76704,-28.06989 14.43566,-55.49766 19.73049,-83.66044 2.13763,-11.36987 3.72362,-22.85103 6.38962,-34.10873 6.40764,-27.05753 18.97016,-52.36891 34.30989,-75.56073 5.78358,-8.74408 11.99266,-17.25602 16.71684,-26.61502 10.89669,-21.58728 13.29611,-46.38063 21.10138,-69.26788 6.47449,-18.98503 16.75349,-36.95963 19.10832,-56.8796 0.88158,-7.45749 0.61945,-14.99558 0.77809,-22.50332 0.15865,-7.50773 0.76165,-15.11382 3.28391,-22.18697 3.19315,-8.95451 9.29293,-16.57898 15.9229,-23.39243 6.62996,-6.81345 13.89937,-13.01017 20.14265,-20.17962 4.05225,-4.65339 7.66722,-9.71074 12.15144,-13.94944 4.48422,-4.23869 10.05829,-7.68612 16.20915,-8.17777 5.5709,-0.4453 11.11061,1.58666 15.80933,4.61242 4.69872,3.02576 8.68771,7.01037 12.68106,10.92015 6.45183,6.31681 13.02269,12.52732 19.03869,19.26052 9.44409,10.56997 17.43707,22.33225 25.82937,33.75523 10.02973,13.65172 20.66946,26.86721 32.13675,39.33582 1.23171,1.33927 2.53855,2.71464 4.24582,3.34391 1.44167,0.53137 3.09234,0.46369 4.48919,-0.1763 1.39684,-0.63999 2.52424,-1.84288 3.08033,-3.27519 0.64532,-1.66215 0.51503,-3.56805 -0.15612,-5.21995 -0.67115,-1.65189 -1.8503,-3.06322 -3.22391,-4.20005 -2.74722,-2.27366 -6.20161,-3.47061 -9.34382,-5.15681 -5.86643,-3.14809 -10.64864,-8.02212 -14.64701,-13.34551 -3.99837,-5.32339 -7.28921,-11.13515 -10.8346,-16.77037 -5.42828,-8.62799 -11.52068,-16.96266 -15.21065,-26.4649 -4.13465,-10.64737 -5.04679,-22.21993 -6.30433,-33.57248 -0.38424,-3.46877 -0.81861,-6.98797 -2.18565,-10.199072 -0.7617,-1.789185 -1.81352,-3.466285 -3.18113,-4.848673 -1.36762,-1.382388 -3.05796,-2.463595 -4.92347,-3.012463 -2.37093,-0.697574 -4.90732,-0.518428 -7.35433,-0.171977 -2.44702,0.346451 -4.8903,0.855193 -7.36106,0.797916 -3.32293,-0.07703 -6.67468,-1.249882 -9.07627,-3.547738 -1.71221,-1.638254 -2.89679,-3.802263 -3.44241,-6.108308 -0.54562,-2.306045 -0.46133,-4.746668 0.15428,-7.035025 1.23121,-4.576712 4.54568,-8.420151 8.56678,-10.928721 3.53663,-2.206334 7.6096,-3.464098 11.73847,-4.036933 4.12886,-0.572835 8.32482,-0.479995 12.47865,-0.131587 2.21232,0.185561 4.4349,0.44661 6.55181,1.115556 2.11691,0.668946 4.13903,1.771544 5.61604,3.429031 1.96533,2.205478 2.80954,5.198877 3.15138,8.133122 0.34183,2.934244 0.24201,5.908135 0.61715,8.838308 0.37896,2.959998 1.25189,5.872924 2.72279,8.469392 1.4709,2.596468 3.55249,4.869126 6.1064,6.412739 1.40519,0.849312 2.9394,1.474063 4.32021,2.362467 0.6904,0.444202 1.34266,0.955801 1.8885,1.569017 0.54584,0.613216 0.98369,1.331785 1.21354,2.119909 0.43115,1.47837 0.0909,3.11474 -0.70372,4.43384 -0.79465,1.31909 -2.00783,2.34556 -3.33099,3.13342 -2.64633,1.57571 -5.75217,2.26553 -8.36618,3.8943 -1.6569,1.03241 -3.12938,2.50499 -3.715,4.36731 -0.29281,0.93116 -0.35147,1.94361 -0.10629,2.88842 0.24518,0.94482 0.80299,1.81601 1.59615,2.38494 0.60347,0.43287 1.32781,0.68378 2.06549,0.76974 0.73768,0.086 1.48878,0.0111 2.20979,-0.167 1.44201,-0.35614 2.74811,-1.11106 4.04148,-1.84142 10.65811,-6.01863 21.88503,-10.9528 32.9021,-16.28602 16.00765,-7.749088 31.58995,-16.349962 47.55292,-24.190668 19.15465,-9.408399 38.83805,-17.712312 58.76385,-25.352993 18.6973,-7.169586 37.7844,-13.840635 54.7284,-24.512617 6.7329,-4.240603 13.0718,-9.080775 19.7874,-13.348647 6.7156,-4.267871 13.9023,-7.9941506 21.6716,-9.7122034 2.7134,-0.6000245 5.5511,-0.9481067 8.2614,-0.3340427 2.6357,0.5971759 5.0079,2.0806263 6.9989,3.9080411 1.9911,1.827415 3.6342,3.99679 5.2171,6.187239 3.1014,4.29168 6.0192,8.717778 8.6884,13.29077 18.7737,32.163762 24.4903,69.984406 32.5834,106.336311 9.813,44.07738 23.5744,87.22866 32.5329,131.48762 10.1253,50.02354 14.0456,101.20823 13.3007,152.24079 -0.4003,27.42112 -2.1084,55.19929 3.8356,81.97142 0.635,2.86007 1.3572,5.70651 1.7555,8.60902 0.3983,2.90252 0.4661,5.88481 -0.2029,8.73713 -1.1432,4.87431 -4.3531,9.02701 -8.0138,12.44247 -3.6606,3.41547 -7.8272,6.24489 -11.5856,9.55253 -7.6444,6.72762 -13.5388,15.47289 -16.675,25.16111 -2.874,8.87837 -3.4173,18.31085 -4.2626,27.60444 -1.7555,19.30147 -4.8995,38.44538 -7.8769,57.59646 -10.9036,70.13431 -19.6028,140.61132 -26.0803,211.29195"
       id="path897"
       inkscape:path-effect="#path-effect899"
       inkscape:original-d="m 635.49212,863.04364 c -5.29204,-33.08145 -10.58508,-66.16391 -15.87912,-99.24736 -5.29403,-33.08345 1.73229,-135.39087 2.59694,-203.0878 0.86464,-67.69694 13.15466,-55.77262 19.73049,-83.66044 6.57583,-27.88781 4.26074,-22.73816 6.38962,-34.10873 2.12887,-11.37058 22.87426,-50.37282 34.30989,-75.56073 11.43564,-25.18791 11.14556,-17.74235 16.71684,-26.61502 5.57128,-8.87268 14.06859,-46.17759 21.10138,-69.26788 7.03279,-23.09029 12.73988,-37.91873 19.10832,-56.8796 6.36844,-18.96087 2.709,-29.79253 4.062,-44.69029 1.353,-14.89777 24.0447,-29.04703 36.06555,-43.57205 12.02085,-14.52501 18.90806,-14.75047 28.36059,-22.12721 9.45253,-7.376737 18.99459,10.35605 28.49039,15.53257 9.4958,5.17653 12.69346,12.84135 19.03869,19.26052 6.34523,6.41917 17.22058,22.50449 25.82937,33.75523 8.60879,11.25075 21.4255,26.22488 32.13675,39.33582 10.71124,13.11094 2.83155,2.23027 4.24582,3.34391 1.41428,1.11363 5.04735,-2.29999 7.56952,-3.45149 2.52217,-1.15149 -8.48157,-9.71688 -12.72385,-14.57681 -4.24228,-4.85994 -16.98674,-20.07625 -25.48161,-30.11588 -8.49487,-10.03962 20.89287,32.2554 -15.21065,-26.4649 -9.38718,-15.2677 -8.59345,-28.77896 -6.30433,-33.57248 2.28913,-4.79352 -1.4561,-6.79838 -2.18565,-10.199072 -0.72955,-3.400691 -5.40207,-5.239757 -8.1046,-7.861136 -2.70253,-2.621378 -9.80926,0.418293 -14.71539,0.625939 -4.90613,0.207646 -6.04984,-2.364159 -9.07627,-3.547738 -3.02642,-1.183579 3.5201,-16.047036 5.27865,-24.072054 1.75855,-8.025018 16.14575,-2.778014 24.21712,-4.16852 8.07138,-1.390507 8.1129,3.030724 12.16785,4.544587 4.05495,1.513862 2.51335,11.315287 3.76853,16.97143 1.25518,5.656144 5.88713,9.922421 8.82919,14.882131 2.94207,4.95971 4.94917,4.035263 7.42225,6.051393 2.47308,2.01613 -8.26626,7.64204 -12.40089,11.46156 -4.13464,3.81951 -1.48243,6.42811 -2.22514,9.64067 -0.74271,3.21256 5.54551,-0.82478 8.31676,-1.23868 2.77126,-0.41389 21.93573,-10.85635 32.9021,-16.28602 10.96636,-5.429676 31.70295,-16.126113 47.55292,-24.190668 15.84998,-8.064556 39.17695,-16.900996 58.76385,-25.352993 19.587,-8.451998 36.4866,-16.340745 54.7284,-24.512617 18.2418,-8.171873 27.6404,-15.3729 41.459,-23.0608504 13.8187,-7.68794996 5.5086,-0.2216951 8.2614,-0.3340427 2.7528,-0.1123475 8.145,6.7311861 12.216,10.0952801 4.071,3.364093 5.7933,8.861513 8.6884,13.29077 2.8951,4.429256 21.7233,70.891871 32.5834,106.336311 10.8601,35.44443 21.6896,87.65941 32.5329,131.48762 10.8433,43.8282 8.8682,101.49486 13.3007,152.24079 4.4326,50.74593 2.5581,54.64861 3.8356,81.97142 1.2776,27.3228 1.0361,11.5651 1.5526,17.34615 0.5165,5.78105 -13.0653,14.66434 -19.5994,21.995 -6.5341,7.33067 -11.1157,16.77507 -16.675,25.16111 -5.5593,8.38604 -2.8407,18.40396 -4.2626,27.60444 -1.4219,9.20048 -5.2502,38.39864 -7.8769,57.59646 -2.6266,19.19782 -17.3859,140.8623 -26.0803,211.29195"
       sodipodi:nodetypes="csssssssssssssssssssssssssssssssssssssssssssssssssssc" />
  </g>
</svg>
