<?xml version="1.0" encoding="UTF-8" standalone="no"?>
<!-- Created with Inkscape (http://www.inkscape.org/) -->

<svg
   version="1.1"
   id="svg2"
   width="1893"
   height="1024"
   viewBox="0 0 1893 1024"
   sodipodi:docname="frame_0022.svg"
   inkscape:version="1.1.2 (0a00cf5339, 2022-02-04)"
   xmlns:inkscape="http://www.inkscape.org/namespaces/inkscape"
   xmlns:sodipodi="http://sodipodi.sourceforge.net/DTD/sodipodi-0.dtd"
   xmlns:xlink="http://www.w3.org/1999/xlink"
   xmlns="http://www.w3.org/2000/svg"
   xmlns:svg="http://www.w3.org/2000/svg">
  <defs
     id="defs6">
    <inkscape:path-effect
       effect="spiro"
       id="path-effect899"
       is_visible="true"
       lpeversion="1" />
    <inkscape:path-effect
       effect="spiro"
       id="path-effect862"
       is_visible="true"
       lpeversion="1" />
  </defs>
  <sodipodi:namedview
     id="namedview4"
     pagecolor="#ffffff"
     bordercolor="#666666"
     borderopacity="1.0"
     inkscape:pageshadow="2"
     inkscape:pageopacity="0.0"
     inkscape:pagecheckerboard="0"
     showgrid="false"
     inkscape:zoom="0.94803857"
     inkscape:cx="867.05333"
     inkscape:cy="685.09871"
     inkscape:window-width="1850"
     inkscape:window-height="1016"
     inkscape:window-x="70"
     inkscape:window-y="27"
     inkscape:window-maximized="1"
     inkscape:current-layer="g8" />
  <g
     inkscape:groupmode="layer"
     inkscape:label="Image"
     id="g8">
    
    <path
       style="font-variation-settings:normal;opacity:1;vector-effect:none;fill:none;fill-opacity:1;stroke:#c86487;stroke-width:1px;stroke-linecap:butt;stroke-linejoin:miter;stroke-miterlimit:4;stroke-dasharray:none;stroke-dashoffset:0;stroke-opacity:1;-inkscape-stroke:none;stop-color:#000000;stop-opacity:1"
       d="M 1160.6704,862.81451 635.39204,862.34989"
       id="path860"
       inkscape:path-effect="#path-effect862"
       inkscape:original-d="M 1160.6704,862.81451 635.39204,862.34989" />
    <path
       style="font-variation-settings:normal;opacity:1;vector-effect:none;fill:none;fill-opacity:1;stroke:#c86487;stroke-width:1px;stroke-linecap:butt;stroke-linejoin:miter;stroke-miterlimit:4;stroke-dasharray:none;stroke-dashoffset:0;stroke-opacity:1;-inkscape-stroke:none;stop-color:#000000;stop-opacity:1"
       d="m 635.39204,862.34989 c -28.36768,-50.99139 -44.30423,-108.84116 -46.0512,-167.16608 -1.80246,-60.17769 11.19706,-119.66216 19.40491,-179.30472 5.40252,-39.25753 9.03919,-79.81949 26.98407,-115.1511 8.87526,-17.47447 21.13568,-33.38433 27.10406,-52.05264 5.55374,-17.37137 5.40765,-36.44341 13.04204,-53.00616 3.633,-7.88176 8.89659,-14.8808 13.35867,-22.32464 4.46208,-7.44383 8.20919,-15.67438 8.28701,-24.35279 0.0908,-10.12184 -4.75851,-19.51752 -8.38299,-28.96861 -3.02493,-7.88772 -5.27165,-16.41818 -3.80163,-24.73716 1.16588,-6.59782 4.63879,-12.64895 9.17939,-17.57576 4.5406,-4.92682 10.11913,-8.79726 15.95481,-12.08897 12.61119,-7.11355 26.66986,-11.74403 38.28372,-20.39059 4.25627,-3.1688 8.15381,-6.8575 12.75755,-9.49619 2.30187,-1.31935 4.77942,-2.36793 7.3837,-2.8749 2.60428,-0.50697 5.34313,-0.45699 7.86585,0.3647 3.18775,1.03831 5.88165,3.24901 8.078,5.78197 2.19635,2.53296 3.95795,5.40538 5.84383,8.17725 10.82214,15.9064 25.78797,28.56814 37.3223,43.96592 4.45455,5.94661 8.47179,12.38033 14.2496,17.05175 2.59547,2.09846 5.49406,3.79444 8.12062,5.85384 1.08045,0.84714 2.12063,1.75967 3.31491,2.43697 1.19427,0.67729 2.58365,1.11065 3.94013,0.89853 0.66155,-0.10345 1.3001,-0.3605 1.84126,-0.75485 0.54115,-0.39434 0.98316,-0.92629 1.26002,-1.53597 0.29042,-0.63956 0.39638,-1.35543 0.35095,-2.05637 -0.0454,-0.70093 -0.23882,-1.38764 -0.52233,-2.0303 -0.567,-1.28531 -1.47958,-2.38199 -2.38054,-3.45985 -25.82032,-30.89021 -51.84097,-61.76672 -73.84114,-95.48447 -1.568,-2.40313 -3.14109,-4.85093 -5.27325,-6.77123 -2.0181,-1.81757 -4.45521,-3.08875 -6.75016,-4.54117 -1.57537,-0.997014 -3.1086,-2.100504 -4.32506,-3.513319 -1.21646,-1.412814 -2.10364,-3.16805 -2.20995,-5.029371 -0.12424,-2.17528 0.83767,-4.31961 2.29481,-5.939496 1.45714,-1.619885 3.37436,-2.763411 5.36728,-3.644067 4.52359,-1.998941 9.72149,-2.73232 14.4734,-1.361949 4.6914,1.35292 8.56955,4.58549 12.34311,7.683847 9.2668,7.608688 18.87039,14.964895 26.5961,24.134365 2.34132,2.77886 4.50517,5.71906 7.08468,8.27836 2.57951,2.55929 5.64719,4.75653 9.16818,5.65458 3.56948,0.91042 7.38312,0.42178 10.86992,-0.7666 3.4868,-1.18839 6.70107,-3.04704 9.86756,-4.92941 9.33325,-5.54829 18.47813,-11.40699 27.75508,-17.04891 51.66843,-31.422959 107.28023,-56.031897 158.52629,-88.139058 1.7141,-1.073961 3.4519,-2.169337 5.3941,-2.734641 2.9304,-0.852938 6.1296,-0.416909 8.9526,0.74301 2.823,1.159918 5.3135,3.003031 7.6247,4.99625 5.5685,4.802282 10.3114,10.642669 13.3853,17.322592 3.9239,8.526974 5.001,18.032583 6.966,27.211085 6.7816,31.67737 24.2812,59.859372 36.3754,89.912262 12.2934,30.54789 18.9861,63.0316 24.6032,95.47771 13.6129,78.63203 21.2573,158.1533 30.9074,237.36935 0.8432,6.92207 1.6686,14.15799 -0.7593,20.69492 -1.3917,3.74706 -3.7986,7.05803 -6.6281,9.88141 -4.3778,4.36843 -9.833,7.70626 -13.4373,12.73197 -4.401,6.13668 -5.4841,13.97755 -6.3508,21.47934 -3.4476,29.84235 -5.5513,59.83287 -6.6508,89.85358 -2.7112,74.02518 0.6909,148.27335 10.1604,221.7404"
       id="path897"
       inkscape:path-effect="#path-effect899"
       inkscape:original-d="m 635.39204,862.34989 c -15.3494,-55.72103 -30.6998,-111.44305 -46.0512,-167.16608 -15.35139,-55.72302 12.93761,-119.53548 19.40491,-179.30472 6.46731,-59.76925 17.99038,-76.7664 26.98407,-115.1511 8.99368,-38.3847 18.07037,-34.70076 27.10406,-52.05264 9.03369,-17.35188 8.69569,-35.33644 13.04204,-53.00616 4.34634,-17.66972 14.43145,-31.11728 21.64568,-46.67743 7.21423,-15.56014 -5.58766,-19.3114 -8.38299,-28.96861 -2.79533,-9.6572 -2.53342,-16.49044 -3.80163,-24.73716 -1.26821,-8.24672 16.75713,-19.77549 25.1342,-29.66473 8.37707,-9.88925 25.52348,-13.59273 38.28372,-20.39059 12.76024,-6.79787 18.6724,-8.00326 28.0071,-12.00639 9.3347,-4.00312 9.28222,9.30715 13.92183,13.95922 4.63961,4.65208 24.88254,29.31161 37.3223,43.96592 12.43977,14.65431 9.50073,11.36883 14.2496,17.05175 4.74886,5.68291 5.41475,3.90356 8.12062,5.85384 2.70588,1.95028 4.83769,2.22467 7.25504,3.3355 2.41734,1.11083 2.06852,-1.52621 3.10128,-2.29082 1.03276,-0.7646 -1.70028,-5.03001 -2.55192,-7.54652 -0.85164,-2.51651 -49.22643,-63.65531 -73.84114,-95.48447 -24.61471,-31.829151 -3.5145,-4.51315 -5.27325,-6.77123 -1.75875,-2.25808 -4.49911,-3.02644 -6.75016,-4.54117 -2.25106,-1.514717 -4.35567,-5.694125 -6.53501,-8.54269 -2.17933,-2.848565 5.10906,-6.388042 7.66209,-9.583563 2.55303,-3.195521 9.64993,-0.906966 14.4734,-1.361949 4.82346,-0.454983 8.22974,5.123565 12.34311,7.683847 4.11337,2.560282 17.73174,16.090575 26.5961,24.134365 8.86437,8.04379 10.83624,9.28962 16.25286,13.93294 5.41662,4.64331 13.82598,-3.79634 20.73748,-5.69601 6.91149,-1.89966 18.50439,-11.36494 27.75508,-17.04891 9.2507,-5.68397 105.68519,-58.758372 158.52629,-88.139058 52.8411,-29.380687 3.5971,-1.822094 5.3941,-2.734641 1.7971,-0.912547 11.0526,3.827174 16.5773,5.73926 5.5248,1.912087 8.9245,11.549395 13.3853,17.322592 4.4608,5.773198 4.645,18.141723 6.966,27.211085 2.321,9.069361 24.2513,59.942502 36.3754,89.912262 12.1241,29.96975 16.4032,63.6528 24.6032,95.47771 8.2001,31.8249 20.6059,158.24723 30.9074,237.36935 10.3015,79.12212 -0.5052,13.79761 -0.7593,20.69492 -0.2541,6.8973 -4.4178,6.5886 -6.6281,9.88141 -2.2104,3.2928 -8.9572,8.48898 -13.4373,12.73197 -4.48,4.24299 -4.2329,14.32056 -6.3508,21.47934 -2.118,7.15878 -4.4329,59.90339 -6.6508,89.85358 -2.2179,29.95019 6.7746,147.82793 10.1604,221.7404" />
  </g>
</svg>
