<?xml version="1.0" encoding="UTF-8" standalone="no"?>
<!-- Created with Inkscape (http://www.inkscape.org/) -->

<svg
   version="1.1"
   id="svg2"
   width="1893"
   height="1024"
   viewBox="0 0 1893 1024"
   sodipodi:docname="frame_0059.svg"
   inkscape:version="1.1.2 (0a00cf5339, 2022-02-04)"
   xmlns:inkscape="http://www.inkscape.org/namespaces/inkscape"
   xmlns:sodipodi="http://sodipodi.sourceforge.net/DTD/sodipodi-0.dtd"
   xmlns:xlink="http://www.w3.org/1999/xlink"
   xmlns="http://www.w3.org/2000/svg"
   xmlns:svg="http://www.w3.org/2000/svg">
  <defs
     id="defs6">
    <inkscape:path-effect
       effect="spiro"
       id="path-effect899"
       is_visible="true"
       lpeversion="1" />
    <inkscape:path-effect
       effect="spiro"
       id="path-effect862"
       is_visible="true"
       lpeversion="1" />
  </defs>
  <sodipodi:namedview
     id="namedview4"
     pagecolor="#ffffff"
     bordercolor="#666666"
     borderopacity="1.0"
     inkscape:pageshadow="2"
     inkscape:pageopacity="0.0"
     inkscape:pagecheckerboard="0"
     showgrid="false"
     inkscape:zoom="2.681458"
     inkscape:cx="1237.7595"
     inkscape:cy="835.5529"
     inkscape:window-width="1850"
     inkscape:window-height="1016"
     inkscape:window-x="70"
     inkscape:window-y="27"
     inkscape:window-maximized="1"
     inkscape:current-layer="g8" />
  <g
     inkscape:groupmode="layer"
     inkscape:label="Image"
     id="g8">
    
    <path
       style="font-variation-settings:normal;opacity:1;vector-effect:none;fill:none;fill-opacity:1;stroke:#c86487;stroke-width:1px;stroke-linecap:butt;stroke-linejoin:miter;stroke-miterlimit:4;stroke-dasharray:none;stroke-dashoffset:0;stroke-opacity:1;-inkscape-stroke:none;stop-color:#000000;stop-opacity:1"
       d="m 1160.795,862.30964 -525.01509,0.32171"
       id="path860"
       inkscape:path-effect="#path-effect862"
       inkscape:original-d="m 1160.795,862.30964 -525.01509,0.32171" />
    <path
       style="font-variation-settings:normal;opacity:1;vector-effect:none;fill:none;fill-opacity:1;stroke:#c86487;stroke-width:1px;stroke-linecap:butt;stroke-linejoin:miter;stroke-miterlimit:4;stroke-dasharray:none;stroke-dashoffset:0;stroke-opacity:1;-inkscape-stroke:none;stop-color:#000000;stop-opacity:1"
       d="m 635.77991,862.63135 c 1.57964,-59.93492 -3.58442,-120.04507 -15.36347,-178.83235 -4.99238,-24.91615 -11.1772,-49.65062 -14.03312,-74.901 -2.85593,-25.25039 -2.26375,-51.33978 6.03565,-75.35765 4.28215,-12.39223 10.54932,-24.05513 14.36782,-36.59799 4.18482,-13.74614 5.33589,-28.24173 9.01088,-42.13286 3.65351,-13.80992 9.74924,-26.83531 16.00095,-39.67969 10.26457,-21.08895 21.06014,-41.97941 29.31525,-63.93296 5.47935,-14.57173 9.81308,-29.54371 14.69458,-44.32645 5.59016,-16.92878 11.9445,-33.79735 14.04315,-51.50128 1.49417,-12.60463 0.79302,-25.35428 1.19061,-38.04093 0.39759,-12.68665 1.98558,-25.64038 7.67796,-36.98525 5.25883,-10.48082 13.6859,-18.95522 21.57426,-27.63144 5.41529,-5.95615 10.64682,-12.10134 16.54267,-17.5822 5.89586,-5.48086 12.5271,-10.32109 20.04399,-13.2016 6.03553,-2.31285 12.67588,-3.31231 19.02692,-2.11184 5.85213,1.10616 11.22871,4.01874 16.04297,7.52501 12.72841,9.27021 21.82764,22.55506 31.01145,35.34595 14.2132,19.79566 29.22508,39.02738 45.2353,57.40009 1.16858,1.34101 2.35662,2.69038 3.80591,3.72162 1.44929,1.03123 3.20464,1.73035 4.9787,1.60151 1.51648,-0.11014 2.96298,-0.83145 4.03719,-1.90752 0.95812,-0.95977 1.6297,-2.19208 1.97225,-3.50426 0.34255,-1.31218 0.36093,-2.70129 0.10956,-4.03395 -0.50275,-2.66531 -2.06236,-5.04752 -4.02284,-6.92186 -3.92096,-3.74868 -9.2691,-5.54915 -13.83977,-8.47071 -6.43156,-4.11104 -11.20578,-10.37972 -15.01551,-16.99422 -3.80973,-6.61451 -6.78403,-13.67778 -10.47719,-20.35807 -6.93977,-12.55283 -16.45183,-23.83876 -21.00765,-37.43944 -1.93351,-5.77217 -2.91703,-11.81421 -3.78237,-17.83979 -0.17085,-1.18966 -0.3382,-2.38387 -0.65801,-3.5424 -0.31981,-1.15853 -0.79891,-2.28779 -1.53952,-3.23435 -1.29762,-1.658453 -3.3147,-2.636912 -5.37834,-3.056012 -2.06365,-0.4191 -4.1938,-0.330117 -6.29484,-0.189009 -2.37182,0.159294 -4.77069,0.381468 -7.11278,-0.02537 -1.17104,-0.203419 -2.32123,-0.566361 -3.35778,-1.147995 -1.03654,-0.581634 -1.95752,-1.387641 -2.60246,-2.386031 -0.93351,-1.445118 -1.24707,-3.248238 -1.00167,-4.951056 0.2454,-1.702819 1.02549,-3.304585 2.0997,-4.648415 2.14843,-2.68766 5.34995,-4.296551 8.53198,-5.605726 5.05917,-2.081482 10.42697,-3.629379 15.89759,-3.628464 5.47063,9.15e-4 11.07783,1.673605 15.11182,5.36883 2.32127,2.126336 4.04822,4.839138 5.3409,7.709431 1.29268,2.870294 2.17011,5.907956 2.98016,8.9499 2.32668,8.737317 4.13232,17.603337 5.9649,26.457477 0.36776,1.77682 0.74033,3.56555 1.43292,5.24265 0.69258,1.6771 1.73242,3.25449 3.21013,4.30745 1.65321,1.17802 3.76803,1.61965 5.78823,1.42055 2.02019,-0.1991 3.94887,-1.00568 5.64646,-2.1188 3.39518,-2.22624 5.84638,-5.58663 8.5592,-8.60722 11.40143,-12.69492 27.71251,-19.62988 43.49363,-26.119106 25.54022,-10.502185 51.16394,-20.850768 76.09827,-32.719977 22.4972,-10.709107 44.5915,-22.770087 63.5498,-38.937784 5.2871,-4.508833 10.3757,-9.367939 16.4613,-12.721891 3.0427,-1.676975 6.3262,-2.961571 9.7539,-3.528791 3.4276,-0.5672203 7.0067,-0.3986869 10.2882,0.742672 3.0207,1.050675 5.729,2.902185 7.9891,5.165138 2.26,2.262953 4.0859,4.931211 5.6063,7.744939 5.1655,9.559405 6.7767,20.55911 9.43,31.095936 6.9403,27.560902 21.2992,52.664734 30.2414,79.642664 7.8407,23.65484 11.4278,48.46295 16.1004,72.9414 6.817,35.71227 16.0143,71.02471 20.3303,107.1247 6.966,58.26503 1.145,117.97872 13.7298,175.2933 0.8859,4.03443 1.8641,8.06405 2.2545,12.1761 0.3904,4.11206 0.171,8.35062 -1.2803,12.21781 -1.8591,4.95376 -5.5863,8.95329 -9.3993,12.62165 -10.1529,9.76772 -21.8734,18.60025 -28.0706,31.25267 -4.484,9.15472 -5.6645,19.59759 -5.5161,29.7904 0.1484,10.19282 1.5526,20.32865 1.9387,30.51523 0.4149,10.94463 -0.3468,21.89549 -1.0664,32.82431 -4.624,70.22578 -7.5293,140.56471 -8.7125,210.93261"
       id="path897"
       inkscape:path-effect="#path-effect899"
       inkscape:original-d="M 635.77991,862.63135 C 630.65975,803.02157 625.53859,743.41078 620.41644,683.799 c -5.12216,-59.61179 -5.33065,-100.17143 -7.99747,-150.25865 -2.66683,-50.08721 9.57955,-24.39766 14.36782,-36.59799 4.78827,-12.20033 6.00825,-28.08758 9.01088,-42.13286 3.00263,-14.04529 10.6683,-26.45213 16.00095,-39.67969 5.33265,-13.22757 19.5445,-42.62097 29.31525,-63.93296 9.77075,-21.31198 9.79738,-29.54997 14.69458,-44.32645 4.89719,-14.77649 9.3631,-34.33319 14.04315,-51.50128 4.68005,-17.16809 5.91338,-50.01645 8.86857,-75.02618 2.95519,-25.00972 14.38384,-18.41996 21.57426,-27.63144 7.19042,-9.21148 24.39211,-20.52154 36.58666,-30.7838 12.19455,-10.26227 12.68561,-1.4069 19.02692,-2.11184 6.34131,-0.70495 10.69632,5.01767 16.04297,7.52501 5.34666,2.50734 20.6753,23.56497 31.01145,35.34595 10.33615,11.78099 30.15787,38.26773 45.2353,57.40009 15.07744,19.13236 5.8574,3.54975 8.78461,5.32313 2.9272,1.77337 2.69246,-1.27068 4.03719,-1.90752 1.34473,-0.63684 -10.51954,-15.28618 -15.7808,-22.93078 -5.26127,-7.64459 -16.99414,-24.90052 -25.4927,-37.35229 -8.49857,-12.45176 -14.0041,-24.95863 -21.00765,-37.43944 -7.00354,-12.48082 -2.52058,-11.8922 -3.78237,-17.83979 -1.26179,-5.9476 -1.46402,-4.51683 -2.19753,-6.77675 -0.73351,-2.259917 -7.78112,-2.162347 -11.67318,-3.245021 -3.89206,-1.082673 -8.71434,-2.371931 -13.07302,-3.559396 -4.35867,-1.187466 6.42101,-10.135798 9.63001,-15.205197 3.209,-5.069398 20.67394,1.161244 31.00941,1.740366 10.33548,0.579122 5.54837,11.107221 8.32106,16.659331 2.77268,5.552107 3.9776,17.639317 5.9649,26.457477 1.9873,8.81816 3.09636,6.36773 4.64305,9.5501 1.54668,3.18236 13.33026,-6.20265 19.99389,-9.30547 6.66363,-3.10282 28.99676,-17.41174 43.49363,-26.119106 14.49688,-8.70737 50.7332,-21.812318 76.09827,-32.719977 25.3651,-10.907659 42.3676,-25.957523 63.5498,-38.937784 21.1823,-12.980262 24.3366,-10.337673 36.5034,-15.50801 12.1667,-5.1703364 9.0646,8.607718 13.5954,12.910077 4.5308,4.302359 6.2877,20.731624 9.43,31.095936 3.1424,10.364312 20.162,53.096114 30.2414,79.642664 10.0795,26.54656 10.7346,48.6286 16.1004,72.9414 5.3658,24.3128 13.5546,71.41746 20.3303,107.1247 6.7758,35.70723 9.1542,116.8632 13.7298,175.2933 4.5756,58.4301 0.6505,16.26361 0.9742,24.39391 0.3237,8.13031 -6.2652,8.41543 -9.3993,12.62165 -3.1341,4.20622 -18.7128,20.83612 -28.0706,31.25267 -9.3579,10.41656 -2.3839,40.20475 -3.5774,60.30563 -1.1934,20.10087 -0.7099,21.88387 -1.0664,32.82431 -0.3565,10.94043 -5.8073,140.62274 -8.7125,210.93261" />
  </g>
</svg>
