<?xml version="1.0" encoding="UTF-8" standalone="no"?>
<!-- Created with Inkscape (http://www.inkscape.org/) -->

<svg
   version="1.1"
   id="svg2"
   width="1893"
   height="1024"
   viewBox="0 0 1893 1024"
   sodipodi:docname="frame_0009.svg"
   inkscape:version="1.1.2 (0a00cf5339, 2022-02-04)"
   xmlns:inkscape="http://www.inkscape.org/namespaces/inkscape"
   xmlns:sodipodi="http://sodipodi.sourceforge.net/DTD/sodipodi-0.dtd"
   xmlns:xlink="http://www.w3.org/1999/xlink"
   xmlns="http://www.w3.org/2000/svg"
   xmlns:svg="http://www.w3.org/2000/svg">
  <sodipodi:namedview
     id="namedview9"
     pagecolor="#ffffff"
     bordercolor="#666666"
     borderopacity="1.0"
     inkscape:pageshadow="2"
     inkscape:pageopacity="0.0"
     inkscape:pagecheckerboard="0"
     showgrid="false"
     inkscape:zoom="0.66561014"
     inkscape:cx="892.41429"
     inkscape:cy="211.08452"
     inkscape:window-width="1850"
     inkscape:window-height="1016"
     inkscape:window-x="70"
     inkscape:window-y="27"
     inkscape:window-maximized="1"
     inkscape:current-layer="g8" />
  <defs
     id="defs6" />
  <g
     id="g8">
    
    <path
       style="fill:none;stroke:#c86487;stroke-width:1px;stroke-linecap:butt;stroke-linejoin:miter;stroke-opacity:1"
       d="M 1090.0179,863.47094 635.85856,862.37558"
       id="path860"
       sodipodi:nodetypes="cc" />
    <path
       style="fill:none;stroke:#c86487;stroke-width:1px;stroke-linecap:butt;stroke-linejoin:miter;stroke-opacity:1"
       d="m 635.85856,862.37558 c -17.99833,-26.917 -42.85927,-64.29336 -50.50055,-95.75882 -17.1651,-70.68287 -5.90755,-144.9221 8.22457,-216.27329 11.12595,-56.17341 24.12863,-112.41633 47.36302,-164.75563 7.18119,-16.17683 15.37091,-32.07447 19.58627,-49.26429 2.22875,-9.08863 3.3134,-18.41991 5.31495,-27.56125 2.00156,-9.14135 5.01119,-18.25955 10.60557,-25.7611 2.63511,-3.53345 5.80092,-6.64745 9.19651,-9.45798 1.44157,-1.19319 2.93208,-2.33927 4.21642,-3.70027 1.28434,-1.361 2.36771,-2.96746 2.81692,-4.78406 0.61478,-2.48615 -0.0103,-5.12111 -0.99162,-7.48668 -0.9813,-2.36557 -2.31495,-4.57755 -3.21253,-6.97614 -1.51817,-4.05699 -1.72822,-8.46861 -1.89302,-12.79721 -0.1648,-4.32861 -0.31421,-8.73403 -1.72381,-12.83001 -1.15575,-3.35834 -3.11295,-6.37131 -4.73421,-9.53133 -1.62126,-3.16002 -2.93831,-6.63641 -2.64648,-10.17605 0.31342,-3.80144 2.42699,-7.18545 4.49281,-10.39194 5.45599,-8.4686 10.99625,-16.88588 16.82408,-25.10303 5.62474,-7.9308 11.75062,-15.88481 20.17714,-20.73549 8.44804,-4.86307 18.46511,-6.16402 28.20701,-6.50205 4.82992,-0.16759 9.71337,-0.12842 14.42122,-1.22037 1.77568,-0.41186 3.51476,-0.98256 5.30802,-1.30943 1.79327,-0.32687 3.67788,-0.40028 5.40796,0.17371 1.79736,0.59631 3.30862,1.85189 4.56968,3.26463 1.26105,1.41273 2.31145,2.99853 3.49393,4.47766 2.34191,2.9294 5.18137,5.41629 8.02177,7.86538 6.251,5.38983 12.60131,10.69335 18.30174,16.66246 4.41768,4.6259 8.42275,9.62864 12.75401,14.33554 5.2492,5.70445 10.96594,10.96195 16.26268,16.62228 3.99281,4.26689 7.7402,8.75542 11.54655,13.18944 1.02911,1.19881 2.08715,2.41468 3.44305,3.22568 0.67795,0.4055 1.42667,0.70349 2.20873,0.81501 0.78206,0.11151 1.59854,0.0311 2.32201,-0.28615 1.0134,-0.44437 1.79079,-1.3309 2.26019,-2.33295 0.56309,-1.20206 0.71411,-2.57051 0.57889,-3.89101 -0.13523,-1.32051 -0.54586,-2.5997 -1.06218,-3.82258 -2.474,-5.8596 -7.25293,-10.3655 -11.54185,-15.06238 -7.692,-8.42366 -14.10531,-17.91399 -20.59935,-27.29229 -7.20625,-10.40683 -14.58828,-20.77014 -23.45338,-29.80574 -11.9601,-12.19013 -26.69909,-22.08365 -35.392,-36.78319 -0.44305,-0.74919 -0.87104,-1.513591 -1.15918,-2.334908 -0.28815,-0.821317 -0.43233,-1.708162 -0.29372,-2.56745 0.10801,-0.669569 0.38554,-1.305881 0.76386,-1.868785 0.37832,-0.562903 0.85584,-1.054598 1.37762,-1.487875 1.04357,-0.866554 2.25662,-1.499165 3.40721,-2.217569 4.8218,-3.010645 8.65184,-7.595672 13.88326,-9.819649 1.34514,-0.571845 2.77554,-0.977417 4.23599,-1.036342 1.46046,-0.05893 2.95535,0.243372 4.20425,1.002752 1.00708,0.612345 1.82472,1.499778 2.49017,2.472588 0.66544,0.97281 1.18824,2.034556 1.70495,3.093891 2.37586,4.870895 4.70392,9.827571 8.07376,14.071927 4.98585,6.27975 11.94834,10.63297 17.84236,16.06938 1.87056,1.72533 3.65157,3.58249 4.98389,5.7506 0.85514,1.39159 1.51516,2.89462 2.34705,4.30023 0.83188,1.40562 1.41143,4.72433 2.81579,5.55833 2.56476,0.0787 5.42254,-0.80871 7.8184,-1.39306 5.35627,-1.32824 9.87526,-4.80713 14.31359,-8.08663 7.39162,-5.4617 15.07005,-10.62473 23.44692,-14.4055 7.99809,-3.60981 16.51628,-5.90815 24.73189,-8.991004 18.18888,-6.825254 34.68329,-17.405409 51.91832,-26.370525 17.75061,-9.233307 36.41639,-16.818141 53.23644,-27.654384 7.2185,-4.6505 14.0584,-9.877649 20.5487,-15.499997 4.5141,-3.910477 8.9453,-8.07068 14.3252,-10.664188 2.6321,-1.268858 5.4894,-2.144375 8.41,-2.234069 2.9206,-0.08969 5.9105,0.645292 8.2828,2.351209 3.0626,2.202329 4.8171,5.74277 6.4934,9.122067 6.7241,13.555374 14.069,26.803063 20.472,40.513028 8.9736,19.214132 16.0549,39.243383 23.7796,58.992763 10.5721,27.02906 22.4079,53.69701 29.5865,81.8183 4.5732,17.91484 7.2121,36.25695 10.745,54.40561 6.0627,31.14465 14.7735,61.79665 19.0218,93.24021 3.0118,22.29154 3.7577,44.81818 5.5049,67.2443 1.7626,22.62437 4.5606,45.24118 10.19,67.22478 0.2312,0.90285 0.468,1.80915 0.5564,2.73693 0.088,0.92777 0.022,1.88684 -0.3349,2.74772 -0.3213,0.77464 -0.8696,1.44448 -1.5261,1.96633 -0.6564,0.52185 -1.4188,0.90028 -2.2119,1.17293 -1.5861,0.54532 -3.2793,0.67247 -4.9385,0.91764 -2.6213,0.38733 -5.2116,1.08488 -7.5905,2.25214 -2.3788,1.16725 -4.5441,2.81699 -6.1464,4.92741 -2.7636,3.6399 -3.6656,8.32203 -4.4204,12.82942 -6.8324,40.80088 -8.0524,82.31132 -8.9314,123.67097 -1.5243,71.71935 9.7621,145.3407 10.1998,217.07491"
       id="path916"
       sodipodi:nodetypes="csssssssssssssssssssssssssssssssssssssssssssssssssssssccssssssssssssssssscssssssssc" />
    <path
       style="fill:none;stroke:#c86487;stroke-width:1px;stroke-linecap:butt;stroke-linejoin:miter;stroke-opacity:1"
       d="m 1160.1921,862.25109 -70.1742,1.21985"
       id="path953"
       sodipodi:nodetypes="cc" />
  </g>
</svg>
