<?xml version="1.0" encoding="UTF-8" standalone="no"?>
<!-- Created with Inkscape (http://www.inkscape.org/) -->

<svg
   version="1.1"
   id="svg2"
   width="1893"
   height="1024"
   viewBox="0 0 1893 1024"
   sodipodi:docname="frame_0117.svg"
   inkscape:version="1.1.2 (0a00cf5339, 2022-02-04)"
   xmlns:inkscape="http://www.inkscape.org/namespaces/inkscape"
   xmlns:sodipodi="http://sodipodi.sourceforge.net/DTD/sodipodi-0.dtd"
   xmlns:xlink="http://www.w3.org/1999/xlink"
   xmlns="http://www.w3.org/2000/svg"
   xmlns:svg="http://www.w3.org/2000/svg">
  <defs
     id="defs6">
    <inkscape:path-effect
       effect="spiro"
       id="path-effect899"
       is_visible="true"
       lpeversion="1" />
    <inkscape:path-effect
       effect="spiro"
       id="path-effect862"
       is_visible="true"
       lpeversion="1" />
  </defs>
  <sodipodi:namedview
     id="namedview4"
     pagecolor="#ffffff"
     bordercolor="#666666"
     borderopacity="1.0"
     inkscape:pageshadow="2"
     inkscape:pageopacity="0.0"
     inkscape:pagecheckerboard="0"
     showgrid="false"
     inkscape:zoom="1.8960771"
     inkscape:cx="1185.0784"
     inkscape:cy="803.50107"
     inkscape:window-width="1850"
     inkscape:window-height="1016"
     inkscape:window-x="70"
     inkscape:window-y="27"
     inkscape:window-maximized="1"
     inkscape:current-layer="g8" />
  <g
     inkscape:groupmode="layer"
     inkscape:label="Image"
     id="g8">
    
    <path
       style="font-variation-settings:normal;opacity:1;vector-effect:none;fill:none;fill-opacity:1;stroke:#c86487;stroke-width:1px;stroke-linecap:butt;stroke-linejoin:miter;stroke-miterlimit:4;stroke-dasharray:none;stroke-dashoffset:0;stroke-opacity:1;-inkscape-stroke:none;stop-color:#000000;stop-opacity:1"
       d="M 1161.0151,862.94885 635.73269,862.52733"
       id="path860"
       inkscape:path-effect="#path-effect862"
       inkscape:original-d="M 1161.0151,862.94885 635.73269,862.52733" />
    <path
       style="font-variation-settings:normal;opacity:1;vector-effect:none;fill:none;fill-opacity:1;stroke:#c86487;stroke-width:1px;stroke-linecap:butt;stroke-linejoin:miter;stroke-miterlimit:4;stroke-dasharray:none;stroke-dashoffset:0;stroke-opacity:1;-inkscape-stroke:none;stop-color:#000000;stop-opacity:1"
       d="m 635.73269,862.52733 c -10.92758,-43.2913 -18.3224,-87.47381 -22.08679,-131.96401 -6.00987,-71.0289 -2.69775,-143.09536 13.1649,-212.59068 7.61121,-33.34522 18.09221,-66.03967 31.38554,-97.55351 9.92345,-23.52503 21.39533,-46.35948 32.749,-69.22858 5.44181,-10.96115 10.89382,-22.0276 14.01052,-33.86171 2.9861,-11.33822 3.77428,-23.18999 7.11759,-34.42807 3.39215,-11.40223 9.31415,-21.8519 14.72559,-32.44595 5.41143,-10.59404 10.42053,-21.66598 11.7443,-33.48821 1.24614,-11.12899 -0.83572,-22.3243 -1.56446,-33.4991 -0.36437,-5.5874 -0.38763,-11.22682 0.50865,-16.75388 0.89629,-5.52707 2.7415,-10.95771 5.88509,-15.59124 3.71034,-5.46889 9.08357,-9.62881 14.82581,-12.90022 5.74224,-3.27141 11.90155,-5.73139 17.92984,-8.43973 7.77091,-3.49125 15.36228,-7.41319 23.35593,-10.35895 7.99365,-2.94575 16.50182,-4.90755 24.99788,-4.28073 5.57013,0.41095 11.14501,1.98439 15.72022,5.18794 4.74086,3.31953 8.17491,8.20303 10.8788,13.32006 2.70389,5.11703 4.76992,10.54755 7.38398,15.71105 8.51276,16.81507 22.47136,30.16538 33.11592,45.71873 2.22993,3.25827 4.31889,6.62007 6.76821,9.71679 2.44932,3.09673 5.29437,5.948 8.72607,7.90051 1.30195,0.74076 2.71075,1.35534 4.20252,1.49113 0.74588,0.0679 1.50645,0.0133 2.22453,-0.19954 0.71809,-0.21284 1.39275,-0.58685 1.92651,-1.11226 0.8726,-0.85896 1.32721,-2.09273 1.355,-3.31684 0.0278,-1.22412 -0.34739,-2.43583 -0.94341,-3.5054 -1.19206,-2.13913 -3.19129,-3.68193 -5.03456,-5.29416 -7.01173,-6.13287 -12.33932,-13.97815 -16.72176,-22.19829 -3.48736,-6.54124 -6.42304,-13.36671 -9.96503,-19.87853 -3.54198,-6.51183 -7.75476,-12.77599 -13.36368,-17.62259 -2.73178,-2.3605 -5.75825,-4.35359 -8.59537,-6.58638 -2.83712,-2.23279 -5.5263,-4.75768 -7.31919,-7.8914 -1.51638,-2.65042 -2.34348,-5.67714 -2.4944,-8.72696 -0.15092,-3.04981 0.36616,-6.12019 1.40515,-8.99154 1.15265,-3.18546 2.94011,-6.14033 3.77771,-9.42274 0.4188,-1.641204 0.59134,-3.365597 0.30271,-5.034619 -0.28862,-1.669023 -1.06327,-3.281776 -2.32522,-4.411568 -0.83,-0.743079 -1.84918,-1.261102 -2.92192,-1.561597 -1.07274,-0.300495 -2.19861,-0.387929 -3.31099,-0.327427 -2.22478,0.121005 -4.37216,0.821396 -6.48685,1.523061 -2.11469,0.701664 -4.25534,1.41629 -6.47827,1.567491 -1.11146,0.0756 -2.23804,0.0073 -3.31668,-0.271239 -1.07864,-0.278586 -2.10909,-0.771853 -2.95896,-1.492121 -1.43014,-1.212053 -2.28445,-3.035134 -2.46175,-4.901398 -0.17731,-1.866265 0.29241,-3.764325 1.17594,-5.417734 1.76705,-3.306818 5.03457,-5.537636 8.37445,-7.241378 6.37052,-3.249738 13.58692,-5.065564 20.70734,-4.399277 7.12042,0.666288 14.10723,3.966085 18.5604,9.561946 2.45156,3.080638 4.1077,6.830751 4.4886,10.749347 0.30507,3.138504 -0.20232,6.314759 -1.11452,9.333231 -0.91219,3.018472 -2.22271,5.899462 -3.55937,8.755442 -0.93994,2.00832 -1.8992,4.02109 -2.50498,6.15413 -0.60578,2.13304 -0.84581,4.41498 -0.32696,6.57081 0.50938,2.11646 1.76637,4.05485 3.52577,5.3368 1.31387,0.95732 2.87594,1.54037 4.47483,1.83408 1.59889,0.29371 3.23818,0.30692 4.86021,0.19861 9.94555,-0.66411 19.04979,-5.79779 27.03673,-11.76134 7.98693,-5.96354 15.2829,-12.89443 23.81085,-18.054766 16.96729,-10.267051 37.38387,-12.745273 56.0337,-19.489542 16.65124,-6.021543 31.83944,-15.433997 46.70124,-25.059481 26.3541,-17.068584 52.7968,-35.33573 83.178,-43.2639244 2.2897,-0.597524 4.6049,-1.1356374 6.962,-1.3452794 2.3571,-0.209642 4.7679,-0.082872 7.0255,0.626536 3.048,0.9577983 5.7123,2.9576268 7.7314,5.4337348 2.0191,2.476108 3.4196,5.413907 4.3789,8.461469 1.9187,6.095123 2.1094,12.578056 3.1029,18.890319 3.3845,21.50265 15.924,40.397638 22.3518,61.194334 3.973,12.85438 5.5684,26.29888 8.0231,39.52741 5.8393,31.46797 16.566,61.80212 24.2218,92.87814 9.1919,37.31131 13.9354,75.65395 15.2645,114.05784 1.5433,44.59471 -1.4387,89.82081 8.3803,133.34847 1.5062,6.677 3.316,13.32801 3.8108,20.15488 0.4949,6.82687 -0.4278,13.97031 -4.0291,19.79113 -2.3143,3.7407 -5.6247,6.76839 -9.1486,9.40102 -3.524,2.63262 -7.2959,4.9168 -10.8558,7.50056 -5.6521,4.10226 -10.7823,8.98675 -14.7762,14.71596 -5.5505,7.96204 -8.7728,17.36038 -10.5588,26.90039 -1.7861,9.54001 -2.1949,19.27796 -2.5368,28.97769 -0.592,16.79676 -0.9962,33.59993 -1.6404,50.39477 -2.616,68.20433 -9.1927,136.25653 -19.6858,203.6996"
       id="path897"
       inkscape:path-effect="#path-effect899"
       inkscape:original-d="m 635.73269,862.52733 c -7.36126,-43.987 -14.72353,-87.97501 -22.08679,-131.96401 -7.36327,-43.98901 8.7776,-141.72612 13.1649,-212.59068 4.38731,-70.86456 20.92469,-65.03468 31.38554,-97.55351 10.46084,-32.51884 21.83367,-46.15139 32.749,-69.22858 10.91533,-23.07719 9.34135,-22.57347 14.01052,-33.86171 4.66918,-11.28823 4.74606,-22.95105 7.11759,-34.42807 2.37152,-11.47703 17.64759,-43.95511 26.46989,-65.93416 8.8223,-21.97905 3.22052,-43.89515 4.82928,-65.84422 1.60875,-21.94908 21.8381,-14.22564 32.75565,-21.33995 10.91755,-7.11432 32.23687,-9.75879 48.35381,-14.63968 16.11693,-4.8809 10.48115,3.45962 15.72022,5.18794 5.23908,1.72831 12.17619,19.35507 18.26278,29.03111 6.08659,9.67603 22.07828,30.48015 33.11592,45.71873 11.03764,15.23858 10.33052,11.74586 15.49428,17.6173 5.16376,5.87143 5.57004,0.12055 8.35356,0.17933 2.78352,0.0588 -3.08098,-8.0766 -4.62297,-12.1164 -1.54199,-4.0398 -11.14684,-14.79786 -16.72176,-22.19829 -5.57492,-7.40043 -15.55147,-24.99974 -23.32871,-37.50112 -7.77723,-12.50137 -10.6087,-9.65085 -15.91456,-14.47778 -5.30585,-4.82692 -0.72517,-11.81133 -1.08925,-17.7185 -0.36408,-5.90716 1.17114,-12.578283 1.7552,-18.868927 0.58407,-6.290643 -16.98144,-0.373555 -25.47367,-0.561832 -8.49222,-0.188277 4.72676,-11.706007 7.08864,-17.56051 2.36188,-5.854503 26.17949,3.442779 39.26774,5.162669 13.08824,1.71989 2.9934,7.167231 4.4886,10.749347 1.4952,3.582116 -3.11493,12.060114 -4.67389,18.088673 -1.55896,6.02856 -1.88696,8.48429 -2.83194,12.72494 -0.94497,4.24065 2.35151,3.55887 3.52577,5.3368 1.17425,1.77794 6.22436,1.35613 9.33504,2.03269 3.11067,0.67656 33.89939,-19.87641 50.84758,-29.816106 16.9482,-9.939701 37.3568,-12.992028 56.0337,-19.489542 18.67694,-6.497513 31.13524,-16.70532 46.70124,-25.059481 15.5661,-8.35416 55.453,-28.841616 83.178,-43.2639244 27.725,-14.4223082 9.326,-0.4781623 13.9875,-0.7187434 4.6616,-0.2405812 10.1431,21.8580148 15.2132,32.7855228 5.07,10.927507 14.9022,40.797221 22.3518,61.194334 7.4496,20.39711 5.3497,26.35261 8.0231,39.52741 2.6734,13.1748 16.1489,61.91976 24.2218,92.87814 8.073,30.95839 10.1773,76.03956 15.2645,114.05784 5.0871,38.01828 5.5878,88.89998 8.3803,133.34847 2.7924,44.44849 -0.1445,26.63168 -0.2183,39.94601 -0.074,13.31434 -13.3353,11.26872 -20.0044,16.90158 -6.6692,5.63286 -9.8498,9.81164 -14.7762,14.71596 -4.9264,4.90431 -8.7294,37.25305 -13.0956,55.87808 -4.3662,18.62503 -1.0926,33.59751 -1.6404,50.39477 -0.5478,16.79725 -13.1229,135.80073 -19.6858,203.6996" />
  </g>
</svg>
