<?xml version="1.0" encoding="UTF-8" standalone="no"?>
<!-- Created with Inkscape (http://www.inkscape.org/) -->

<svg
   version="1.1"
   id="svg2"
   width="1893"
   height="1024"
   viewBox="0 0 1893 1024"
   sodipodi:docname="frame_0152.svg"
   inkscape:version="1.1.2 (0a00cf5339, 2022-02-04)"
   xmlns:inkscape="http://www.inkscape.org/namespaces/inkscape"
   xmlns:sodipodi="http://sodipodi.sourceforge.net/DTD/sodipodi-0.dtd"
   xmlns:xlink="http://www.w3.org/1999/xlink"
   xmlns="http://www.w3.org/2000/svg"
   xmlns:svg="http://www.w3.org/2000/svg">
  <defs
     id="defs6">
    <inkscape:path-effect
       effect="spiro"
       id="path-effect899"
       is_visible="true"
       lpeversion="1" />
    <inkscape:path-effect
       effect="spiro"
       id="path-effect862"
       is_visible="true"
       lpeversion="1" />
  </defs>
  <sodipodi:namedview
     id="namedview4"
     pagecolor="#ffffff"
     bordercolor="#666666"
     borderopacity="1.0"
     inkscape:pageshadow="2"
     inkscape:pageopacity="0.0"
     inkscape:pagecheckerboard="0"
     showgrid="false"
     inkscape:zoom="0.47401928"
     inkscape:cx="1483.062"
     inkscape:cy="309.05916"
     inkscape:window-width="1850"
     inkscape:window-height="1016"
     inkscape:window-x="70"
     inkscape:window-y="27"
     inkscape:window-maximized="1"
     inkscape:current-layer="g8" />
  <g
     inkscape:groupmode="layer"
     inkscape:label="Image"
     id="g8">
    
    <path
       style="font-variation-settings:normal;opacity:1;vector-effect:none;fill:none;fill-opacity:1;stroke:#c86487;stroke-width:1px;stroke-linecap:butt;stroke-linejoin:miter;stroke-miterlimit:4;stroke-dasharray:none;stroke-dashoffset:0;stroke-opacity:1;-inkscape-stroke:none;stop-color:#000000;stop-opacity:1"
       d="M 1160.6103,862.48895 H 635.60976"
       id="path860"
       inkscape:path-effect="#path-effect862"
       inkscape:original-d="M 1160.6103,862.48895 H 635.60976" />
    <path
       style="font-variation-settings:normal;opacity:1;vector-effect:none;fill:none;fill-opacity:1;stroke:#c86487;stroke-width:1px;stroke-linecap:butt;stroke-linejoin:miter;stroke-miterlimit:4;stroke-dasharray:none;stroke-dashoffset:0;stroke-opacity:1;-inkscape-stroke:none;stop-color:#000000;stop-opacity:1"
       d="m 635.60976,862.48895 c -0.94096,-60.08052 -3.8751,-120.1298 -8.79595,-180.01585 -4.54314,-55.28939 -10.71567,-111.61068 1.54339,-165.71495 6.16207,-27.19574 16.84863,-53.12258 25.28546,-79.70075 6.84383,-21.55981 12.37504,-43.94442 24.44173,-63.07707 8.09934,-12.84212 18.98862,-23.93766 25.55826,-37.62558 5.20231,-10.83907 7.45767,-22.82115 9.5021,-34.66892 2.04444,-11.84778 3.96431,-23.84782 8.57583,-34.95112 4.00853,-9.65145 9.94268,-18.35943 14.95074,-27.53213 5.00805,-9.17269 9.17626,-19.18632 9.14133,-29.63705 -0.0245,-7.33942 -2.11836,-14.48961 -3.92681,-21.60278 -1.80845,-7.11317 -3.35506,-14.49088 -2.26828,-21.74943 0.91042,-6.08061 3.64581,-11.77777 7.16964,-16.81615 3.52382,-5.03839 7.82928,-9.47511 12.19882,-13.8006 9.4248,-9.32979 19.27526,-18.28292 30.08459,-25.96604 4.51234,-3.20731 9.22056,-6.20679 14.3597,-8.26525 5.13914,-2.05845 10.75687,-3.147454 16.24651,-2.432009 6.06677,0.79066 11.72787,3.769289 16.28415,7.852319 7.02596,6.2962 11.40643,14.92895 16.66979,22.75859 8.66257,12.88622 19.89575,23.79592 29.9785,35.60409 7.37124,8.63265 14.13807,17.75994 20.92363,26.86017 3.27685,4.39464 6.57398,8.80166 10.44377,12.68435 2.27158,2.27916 4.7312,4.36792 6.9466,6.70173 0.78972,0.83193 1.54888,1.69545 2.39751,2.46718 0.84864,0.77174 1.79682,1.45526 2.8686,1.86398 1.73693,0.66237 3.78559,0.53039 5.36124,-0.45602 0.78783,-0.4932 1.4505,-1.18837 1.8908,-2.00695 0.44029,-0.81857 0.65534,-1.75931 0.59784,-2.687 -0.0639,-1.0315 -0.46059,-2.02734 -1.04854,-2.87728 -0.58796,-0.84994 -1.36181,-1.55994 -2.20743,-2.15409 -1.69124,-1.1883 -3.65382,-1.91815 -5.4904,-2.86648 -3.76411,-1.94362 -6.99147,-4.80756 -9.78658,-7.99088 -2.79511,-3.18332 -5.18593,-6.69573 -7.58416,-10.18782 -7.5463,-10.98826 -15.2422,-21.87413 -23.11563,-32.63041 -2.70561,-3.69627 -5.45845,-7.40631 -8.87923,-10.45279 -3.24151,-2.88683 -7.04493,-5.14253 -9.991,-8.3303 -1.57977,-1.70938 -2.9069,-3.70601 -3.52748,-5.94934 -0.71255,-2.57582 -0.45797,-5.32263 0.0687,-7.94277 0.52672,-2.62014 1.31936,-5.18854 1.68105,-7.83651 0.45802,-3.3532 0.20521,-6.82049 -0.89421,-10.02128 -1.09941,-3.200785 -3.06084,-6.124367 -5.71142,-8.228695 -2.7797,-2.20684 -6.22002,-3.457781 -9.70996,-4.103682 -3.48994,-0.6459 -7.0572,-0.719184 -10.60573,-0.788492 -2.40898,-0.04705 -4.84321,-0.09638 -7.17824,-0.690559 -2.33502,-0.594176 -4.5968,-1.79219 -6.01835,-3.737593 -1.33444,-1.826193 -1.82301,-4.20426 -1.51023,-6.444322 0.31277,-2.240062 1.38863,-4.337649 2.8781,-6.039762 2.97893,-3.404228 7.40787,-5.157551 11.77875,-6.322969 12.73056,-3.394376 26.63477,-2.696328 38.68745,2.625492 3.78197,1.669915 7.39435,3.795607 10.44458,6.586295 3.05024,2.790688 5.52614,6.272578 6.80911,10.202703 1.67591,5.133846 1.21515,10.880842 -1.00955,15.801794 -0.69445,1.53609 -1.55119,2.99386 -2.26596,4.5206 -0.71477,1.52674 -1.29211,3.14928 -1.37641,4.83294 -0.0864,1.72486 0.3728,3.49348 1.39513,4.8854 1.02233,1.39192 2.62269,2.3759 4.34236,2.53509 1.2335,0.11418 2.48328,-0.1879 3.59652,-0.73127 1.11324,-0.54337 2.09879,-1.3203 2.99224,-2.17838 1.78691,-1.71614 3.23987,-3.77557 5.16379,-5.33657 2.32865,-1.88938 5.2289,-2.94705 8.15463,-3.60465 2.92574,-0.6576 5.9211,-0.94634 8.87094,-1.48562 17.03347,-3.11399 31.34628,-14.233986 47.13841,-21.336439 8.67039,-3.899476 17.82192,-6.594409 26.85943,-9.544805 22.32982,-7.289829 44.16392,-16.221338 64.79612,-27.449702 11.0929,-6.036932 21.8161,-12.724281 32.6523,-19.210782 8.8949,-5.324476 17.8882,-10.527882 26.2446,-16.6629985 2.0487,-1.5041382 4.0627,-3.0666233 6.2491,-4.3625427 2.1864,-1.2959194 4.5698,-2.3268422 7.0888,-2.6651717 3.9223,-0.5268101 7.9367,0.6761909 11.3215,2.726679 3.3849,2.0504881 6.2089,4.9047009 8.8015,7.8947449 2.4434,2.818018 4.7164,5.785066 6.7773,8.893781 8.467,12.771486 13.182,27.643514 16.8413,42.523349 7.612,30.952735 11.0857,62.776277 17.8303,93.929527 5.8103,26.83775 14.0315,53.10174 20.0695,79.88919 7.927,35.16793 12.0566,71.08537 14.976,107.01722 3.219,39.61911 4.9829,79.34035 6.7437,119.05099 0.6109,13.77607 1.2207,27.5969 0.076,41.33892 -0.3044,3.65376 -0.7555,7.37915 -2.3579,10.67685 -2.0062,4.12862 -5.7846,7.31589 -10.1304,8.79371 -4.3567,1.48151 -9.1877,1.32239 -13.4095,3.15323 -2.8754,1.24696 -5.3221,3.37557 -7.1859,5.89532 -1.8639,2.51975 -3.1656,5.42238 -4.0835,8.41911 -3.0349,9.9079 -1.9139,20.52922 -1.5377,30.88467 0.9478,26.08658 -3.0253,52.07259 -6.9477,77.88001 -10.6893,70.33014 -21.0879,140.70447 -31.1954,211.12058"
       id="path897"
       inkscape:path-effect="#path-effect899"
       inkscape:original-d="m 635.60976,862.48895 c -2.93098,-60.00428 -5.86297,-120.00957 -8.79595,-180.01585 -2.93299,-60.00629 1.02993,-110.47563 1.54339,-165.71495 0.51347,-55.23931 16.85797,-53.13284 25.28546,-79.70075 8.42748,-26.56792 16.29549,-42.05038 24.44173,-63.07707 8.14625,-21.02668 17.03984,-25.08272 25.55826,-37.62558 8.51842,-12.54286 12.05295,-46.41236 18.07793,-69.62004 6.02498,-23.20768 16.06238,-38.11179 24.09207,-57.16918 8.02969,-19.05739 -4.12906,-28.90048 -6.19509,-43.35221 -2.06603,-14.45174 12.91331,-20.41017 19.36846,-30.61675 6.45515,-10.20659 20.05739,-17.3097 30.08459,-25.96604 10.02719,-8.65635 20.40514,-7.13051 30.60621,-10.697259 10.20107,-3.566752 10.8571,5.235879 16.28415,7.852319 5.42705,2.61645 11.11419,15.1734 16.66979,22.75859 5.5556,7.5852 19.98667,23.73706 29.9785,35.60409 9.99184,11.86702 13.95009,17.90778 20.92363,26.86017 6.97355,8.95239 6.96351,8.45723 10.44377,12.68435 3.48025,4.22711 4.63207,4.46882 6.9466,6.70173 2.31454,2.23291 3.51174,2.88844 5.26611,4.33116 1.75438,1.44272 5.23426,-3.43231 7.84988,-5.14997 2.61563,-1.71766 -5.82992,-5.26424 -8.74637,-7.89785 -2.91646,-2.63362 -11.57949,-12.11813 -17.37074,-18.1787 -5.79124,-6.06056 -15.31441,-23.6199 -23.11563,-32.63041 -7.80122,-9.01052 13.84113,57.48371 -8.87923,-10.45279 -2.92091,-8.73387 -6.9164,-8.86385 -9.991,-8.3303 -3.0746,0.53354 -1.79121,-3.77947 -3.52748,-5.94934 -1.73627,-2.16988 0.60809,-10.70428 1.7498,-15.77928 1.14171,-5.07499 -4.40275,-12.165649 -6.60563,-18.249975 -2.20288,-6.084325 -13.5428,-3.260449 -20.31569,-4.892174 -6.7729,-1.631725 -8.79673,-2.951102 -13.19659,-4.428152 -4.39987,-1.477051 8.76541,-12.537035 13.14662,-18.807053 4.38121,-6.270017 25.79263,1.751328 38.68745,2.625492 12.89482,0.874163 11.50346,11.193665 17.25369,16.788998 5.75023,5.595333 -0.67203,10.535526 -1.00955,15.801794 -0.33752,5.26626 -2.42725,6.23669 -3.64237,9.35354 -1.21513,3.11685 3.82599,4.948 5.73749,7.42049 1.91149,2.4725 7.83603,-5.49648 11.75255,-8.24622 3.91652,-2.74974 11.35138,-3.39251 17.02557,-5.09027 5.6742,-1.69776 31.42661,-14.223292 47.13841,-21.336439 15.7118,-7.113146 17.90729,-6.362203 26.85943,-9.544805 8.95212,-3.182601 43.19842,-18.298801 64.79612,-27.449702 21.5978,-9.150901 21.7692,-12.806188 32.6523,-19.210782 10.8831,-6.404594 17.4974,-11.107666 26.2446,-16.6629985 8.7471,-5.5553327 8.8929,-4.6841429 13.3379,-7.0277144 4.4449,-2.34357141 13.4163,7.081949 20.123,10.6214239 6.7067,3.539474 4.5192,5.930187 6.7773,8.893781 2.2581,2.963594 11.2286,28.349899 16.8413,42.523349 5.6128,14.173449 11.8879,62.620687 17.8303,93.929527 5.9425,31.30884 13.3807,53.26046 20.0695,79.88919 6.6888,26.62873 9.985,71.34582 14.976,107.01722 4.9911,35.67141 4.4968,79.36833 6.7437,119.05099 2.2469,39.68266 0.052,27.56028 0.076,41.33892 0.024,13.77864 -1.5709,7.1189 -2.3579,10.67685 -0.7869,3.55795 -6.7526,5.86348 -10.1304,8.79371 -3.3778,2.93024 -8.9386,2.10315 -13.4095,3.15323 -4.4708,1.05007 -7.5119,9.54395 -11.2694,14.31443 -3.7575,4.77048 -1.0241,20.59078 -1.5377,30.88467 -0.5136,10.29388 -4.6308,51.92101 -6.9477,77.88001 -2.3169,25.95901 -20.7959,140.74805 -31.1954,211.12058"
       sodipodi:nodetypes="csssssssssssssssssssssssssssssssssssssssssssssssssssssssssc" />
  </g>
</svg>
