<?xml version="1.0" encoding="UTF-8" standalone="no"?>
<!-- Created with Inkscape (http://www.inkscape.org/) -->

<svg
   version="1.1"
   id="svg2"
   width="1893"
   height="1024"
   viewBox="0 0 1893 1024"
   sodipodi:docname="frame_0024.svg"
   inkscape:version="1.1.2 (0a00cf5339, 2022-02-04)"
   xmlns:inkscape="http://www.inkscape.org/namespaces/inkscape"
   xmlns:sodipodi="http://sodipodi.sourceforge.net/DTD/sodipodi-0.dtd"
   xmlns:xlink="http://www.w3.org/1999/xlink"
   xmlns="http://www.w3.org/2000/svg"
   xmlns:svg="http://www.w3.org/2000/svg">
  <defs
     id="defs6">
    <inkscape:path-effect
       effect="spiro"
       id="path-effect899"
       is_visible="true"
       lpeversion="1" />
    <inkscape:path-effect
       effect="spiro"
       id="path-effect862"
       is_visible="true"
       lpeversion="1" />
  </defs>
  <sodipodi:namedview
     id="namedview4"
     pagecolor="#ffffff"
     bordercolor="#666666"
     borderopacity="1.0"
     inkscape:pageshadow="2"
     inkscape:pageopacity="0.0"
     inkscape:pagecheckerboard="0"
     showgrid="false"
     inkscape:zoom="0.6703645"
     inkscape:cx="1150.1206"
     inkscape:cy="1215.0106"
     inkscape:window-width="1850"
     inkscape:window-height="1016"
     inkscape:window-x="70"
     inkscape:window-y="27"
     inkscape:window-maximized="1"
     inkscape:current-layer="g8" />
  <g
     inkscape:groupmode="layer"
     inkscape:label="Image"
     id="g8">
    
    <path
       style="font-variation-settings:normal;opacity:1;vector-effect:none;fill:none;fill-opacity:1;stroke:#c86487;stroke-width:1px;stroke-linecap:butt;stroke-linejoin:miter;stroke-miterlimit:4;stroke-dasharray:none;stroke-dashoffset:0;stroke-opacity:1;-inkscape-stroke:none;stop-color:#000000;stop-opacity:1"
       d="M 1160.5993,863.26771 635.76297,862.54134"
       id="path860"
       inkscape:path-effect="#path-effect862"
       inkscape:original-d="M 1160.5993,863.26771 635.76297,862.54134" />
    <path
       style="font-variation-settings:normal;opacity:1;vector-effect:none;fill:none;fill-opacity:1;stroke:#c86487;stroke-width:1px;stroke-linecap:butt;stroke-linejoin:miter;stroke-miterlimit:4;stroke-dasharray:none;stroke-dashoffset:0;stroke-opacity:1;-inkscape-stroke:none;stop-color:#000000;stop-opacity:1"
       d="m 635.76297,862.54134 c -38.15178,-47.64851 -60.22302,-107.94658 -61.84738,-168.96543 -1.8302,-68.75137 21.29629,-135.31333 38.55975,-201.88715 10.47526,-40.39621 18.9246,-81.51802 34.42837,-120.26357 7.13079,-17.82058 15.76082,-35.16317 20.3607,-53.79814 1.6771,-6.79427 2.80639,-13.71896 4.63298,-20.47458 1.82658,-6.75561 4.40236,-13.42147 8.64959,-18.98346 2.21686,-2.90311 4.86084,-5.4689 6.96451,-8.45505 2.89115,-4.10398 4.69407,-8.9428 5.36646,-13.91767 0.67238,-4.97486 0.22744,-10.07976 -1.12683,-14.91374 -1.86523,-6.65784 -5.38906,-12.70695 -8.22946,-19.01076 -2.84039,-6.30381 -5.04301,-13.21819 -4.01265,-20.05516 0.8035,-5.33162 3.51333,-10.18251 6.54843,-14.63897 6.08067,-8.92828 13.60742,-16.7581 20.97568,-24.65731 4.35483,-4.66863 8.68037,-9.39005 13.54035,-13.53025 4.85997,-4.1402 10.30168,-7.70876 16.35123,-9.74924 6.34521,-2.14021 13.1353,-2.536 19.65483,-4.06501 3.1756,-0.74477 6.29597,-1.76046 9.52572,-2.21635 3.22976,-0.45589 6.65332,-0.3124 9.56212,1.16342 2.23313,1.13301 4.02996,2.98304 5.5142,4.99987 1.48423,2.01683 2.69255,4.22026 4.04182,6.32977 8.15766,12.75408 21.0511,21.55108 32.2815,31.70451 12.34621,11.16225 22.85376,24.16922 33.63126,36.85268 1.38908,1.63473 2.78926,3.27089 4.39512,4.69324 1.60586,1.42236 3.43462,2.63312 5.47553,3.29385 1.04233,0.33745 2.14505,0.52889 3.23599,0.42809 1.09094,-0.1008 2.17139,-0.50943 2.97359,-1.25561 0.96067,-0.89358 1.44971,-2.18514 1.73304,-3.46619 0.62532,-2.82735 0.38972,-5.81013 -0.457,-8.57925 -0.84672,-2.76911 -2.28873,-5.33292 -4.03599,-7.64204 -3.49452,-4.61824 -8.14749,-8.19592 -12.53497,-11.97611 -20.28218,-17.47482 -35.60324,-40.03908 -55.35208,-58.11446 -5.07656,-4.64639 -10.4446,-8.99508 -15.12963,-14.03599 -4.68503,-5.04092 -8.71798,-10.88706 -10.51482,-17.530235 -1.26309,-4.669823 -1.35574,-9.759773 0.42213,-14.258867 0.88893,-2.249548 2.23901,-4.326191 3.99916,-5.985267 1.76015,-1.659077 3.9341,-2.8924 6.28456,-3.463374 4.16174,-1.010971 8.61421,0.103686 12.36292,2.174739 3.74872,2.071054 6.91228,5.037157 10.01245,7.991998 5.88072,5.605041 11.7204,11.320222 16.50571,17.885286 3.40159,4.66671 6.25599,9.74386 10.03927,14.10686 1.89164,2.1815 4.01765,4.1798 6.44385,5.74531 2.4262,1.5655 5.16357,2.69059 8.02707,3.06157 5.24357,0.67933 10.45172,-1.17165 15.39208,-3.0556 29.24024,-11.15043 57.67697,-24.554787 84.29419,-41.012223 35.42436,-21.902898 67.80198,-49.287085 106.14398,-65.551023 3.1112,-1.319695 6.2975,-2.574076 9.6505,-2.996017 3.8816,-0.488453 7.8791,0.176692 11.4645,1.742078 3.5854,1.565385 6.7608,4.013794 9.3186,6.974006 4.1554,4.809074 6.6231,10.815873 8.8898,16.753598 6.7539,17.692573 12.3446,35.802525 18.0743,53.852812 12.0596,37.991209 24.7659,75.810709 34.7519,114.398869 18.2978,70.70643 27.3214,143.41653 37.915,215.67983 3.8406,26.19828 7.9038,52.68366 5.4199,79.04519 -0.088,0.92865 -0.1854,1.86723 -0.4993,2.74561 -0.327,0.91522 -0.8817,1.73898 -1.5492,2.44548 -0.6674,0.70649 -1.4464,1.3 -2.2621,1.82844 -1.6314,1.05687 -3.4195,1.86442 -5,2.99592 -3.8214,2.73575 -6.1343,7.18388 -7.2262,11.755 -1.0919,4.57112 -1.0895,9.32218 -1.1117,14.02184 -0.1635,34.6756 -1.9735,69.31901 -3.4377,103.96407 -3.1058,73.48841 -4.6567,147.04252 -4.6513,220.59653"
       id="path897"
       inkscape:path-effect="#path-effect899"
       inkscape:original-d="m 635.76297,862.54134 c -20.61479,-56.32081 -41.23059,-112.64262 -61.84738,-168.96543 -20.6168,-56.32281 25.7075,-134.59044 38.55975,-201.88715 12.85225,-67.29672 22.95325,-80.17471 34.42837,-120.26357 11.47513,-40.08885 13.5748,-35.86442 20.3607,-53.79814 6.78589,-17.93371 8.85605,-26.30436 13.28257,-39.45804 4.42652,-13.15368 4.64401,-5.6357 6.96451,-8.45505 2.3205,-2.81935 2.82742,-19.21994 4.23963,-28.83141 1.41221,-9.61146 -8.1604,-26.04295 -12.24211,-39.06592 -4.0817,-13.02298 4.36662,-9.75832 6.54843,-14.63897 2.18181,-4.88066 13.98479,-16.43721 20.97568,-24.65731 6.9909,-8.2201 19.92872,-15.51866 29.89158,-23.27949 9.96286,-7.76083 13.10422,-2.70901 19.65483,-4.06501 6.5506,-1.35601 12.72622,-0.70095 19.08784,-1.05293 6.36161,-0.35197 6.37168,7.55409 9.55602,11.32964 3.18434,3.77555 21.522,21.13734 32.2815,31.70451 10.75951,10.56717 22.42184,24.56945 33.63126,36.85268 11.20942,12.28322 6.58143,5.32572 9.87065,7.98709 3.28922,2.66136 4.14072,-0.55068 6.20958,-0.82752 2.06886,-0.27684 1.15636,-2.30979 1.73304,-3.46619 0.57668,-1.1564 -11.35097,-18.79726 -17.02796,-28.1974 -5.67698,-9.40013 -36.90039,-38.74197 -55.35208,-58.11446 -18.4517,-19.37248 -17.0953,-21.04315 -25.64445,-31.566225 -8.54915,-10.523076 7.13823,-15.804005 10.70585,-23.707508 3.56761,-7.903502 14.91791,6.778825 22.37537,10.166737 7.45745,3.387912 11.00481,11.924523 16.50571,17.885286 5.50091,5.96076 16.34113,15.27683 24.51019,22.91374 8.16906,7.63692 10.26239,-2.03607 15.39208,-3.0556 5.12969,-1.01954 56.19712,-27.340484 84.29419,-41.012223 28.09706,-13.67174 70.76368,-43.699682 106.14398,-65.551023 35.3804,-21.8513404 6.4347,-1.996344 9.6505,-2.996017 3.2159,-0.999672 13.8564,5.811723 20.7831,8.716084 6.9267,2.904361 5.9275,11.170065 8.8898,16.753598 2.9622,5.583532 12.0505,35.902874 18.0743,53.852812 6.0238,17.949939 23.169,76.266919 34.7519,114.398869 11.583,38.13196 25.2777,143.78755 37.915,215.67983 12.6374,71.89228 3.6143,52.69779 5.4199,79.04519 1.8057,26.3474 -0.3318,1.83141 -0.4993,2.74561 -0.1674,0.91421 -5.8732,4.84756 -8.8113,7.26984 -2.9381,2.42228 -5.5576,17.18556 -8.3379,25.77684 -2.7803,8.59128 -2.2908,69.31038 -3.4377,103.96407 -1.1469,34.65369 -3.0999,147.06535 -4.6513,220.59653" />
  </g>
</svg>
