<?xml version="1.0" encoding="UTF-8" standalone="no"?>
<!-- Created with Inkscape (http://www.inkscape.org/) -->

<svg
   version="1.1"
   id="svg2"
   width="1893"
   height="1024"
   viewBox="0 0 1893 1024"
   sodipodi:docname="frame_0026.svg"
   inkscape:version="1.1.2 (0a00cf5339, 2022-02-04)"
   xmlns:inkscape="http://www.inkscape.org/namespaces/inkscape"
   xmlns:sodipodi="http://sodipodi.sourceforge.net/DTD/sodipodi-0.dtd"
   xmlns:xlink="http://www.w3.org/1999/xlink"
   xmlns="http://www.w3.org/2000/svg"
   xmlns:svg="http://www.w3.org/2000/svg">
  <defs
     id="defs6">
    <inkscape:path-effect
       effect="spiro"
       id="path-effect899"
       is_visible="true"
       lpeversion="1" />
    <inkscape:path-effect
       effect="spiro"
       id="path-effect862"
       is_visible="true"
       lpeversion="1" />
  </defs>
  <sodipodi:namedview
     id="namedview4"
     pagecolor="#ffffff"
     bordercolor="#666666"
     borderopacity="1.0"
     inkscape:pageshadow="2"
     inkscape:pageopacity="0.0"
     inkscape:pagecheckerboard="0"
     showgrid="false"
     inkscape:zoom="0.33518225"
     inkscape:cx="1065.0922"
     inkscape:cy="633.98345"
     inkscape:window-width="1850"
     inkscape:window-height="1016"
     inkscape:window-x="70"
     inkscape:window-y="27"
     inkscape:window-maximized="1"
     inkscape:current-layer="g8" />
  <g
     inkscape:groupmode="layer"
     inkscape:label="Image"
     id="g8">
    
    <path
       style="font-variation-settings:normal;opacity:1;vector-effect:none;fill:none;fill-opacity:1;stroke:#c86487;stroke-width:1px;stroke-linecap:butt;stroke-linejoin:miter;stroke-miterlimit:4;stroke-dasharray:none;stroke-dashoffset:0;stroke-opacity:1;-inkscape-stroke:none;stop-color:#000000;stop-opacity:1"
       d="m 1161.1542,861.75608 -525.49756,0.62079"
       id="path860"
       inkscape:path-effect="#path-effect862"
       inkscape:original-d="m 1161.1542,861.75608 -525.49756,0.62079" />
    <path
       style="font-variation-settings:normal;opacity:1;vector-effect:none;fill:none;fill-opacity:1;stroke:#c86487;stroke-width:1px;stroke-linecap:butt;stroke-linejoin:miter;stroke-miterlimit:4;stroke-dasharray:none;stroke-dashoffset:0;stroke-opacity:1;-inkscape-stroke:none;stop-color:#000000;stop-opacity:1"
       d="M 635.65664,862.37687 C 614.4343,799.69192 601.08367,734.34648 596.01747,668.36069 c -4.5984,-59.89287 -2.22865,-121.16977 16.30164,-178.30933 13.88562,-42.81735 36.63578,-82.73398 46.24793,-126.70832 3.17391,-14.52024 4.88958,-29.3917 9.31888,-43.57946 5.36555,-17.18673 14.56213,-32.89664 21.42572,-49.54188 2.29702,-5.57061 4.34366,-11.28739 5.33061,-17.23162 0.98694,-5.94423 0.87722,-12.15787 -1.06474,-17.86197 -1.9057,-5.59759 -5.46457,-10.45311 -8.30433,-15.63968 -1.41987,-2.59329 -2.67163,-5.29903 -3.42141,-8.15893 -0.74978,-2.8599 -0.98417,-5.88939 -0.37142,-8.78175 0.55828,-2.63524 1.80037,-5.08448 3.29629,-7.32465 1.49592,-2.24018 3.24908,-4.29454 4.94315,-6.38889 6.31178,-7.80314 11.83861,-16.20947 17.99274,-24.13754 6.15412,-7.92807 13.03318,-15.458 21.44872,-20.92666 6.79296,-4.41426 14.54533,-7.41286 22.58857,-8.38049 8.04324,-0.96764 16.3699,0.13113 23.75456,3.46231 8.21806,3.70712 14.96826,9.95995 21.6488,16.01384 15.44847,13.99937 31.72541,27.95626 41.33687,46.45647 3.03085,5.83379 5.36974,12.07525 9.21078,17.41056 1.92052,2.66766 4.22057,5.09464 6.9661,6.90209 2.74553,1.80745 5.95618,2.97579 9.24239,3.05069 1.7236,0.0393 3.4857,-0.23177 5.00955,-1.03813 0.76192,-0.40318 1.45742,-0.93824 2.01644,-1.59442 0.55902,-0.65619 0.97944,-1.43481 1.18822,-2.27117 0.27116,-1.08626 0.1787,-2.24684 -0.17255,-3.30991 -0.35126,-1.06306 -0.95325,-2.0324 -1.67945,-2.88452 -1.4524,-1.70425 -3.36957,-2.93121 -5.18813,-4.23765 -15.48186,-11.12212 -24.65316,-28.73731 -35.9884,-44.06383 -17.56593,-23.75112 -41.10894,-42.79861 -57.16761,-67.59371 -1.34865,-2.082361 -2.65161,-4.222243 -3.46415,-6.566357 -0.81254,-2.344113 -1.10949,-4.930219 -0.41892,-7.313118 0.58145,-2.006385 1.84862,-3.787296 3.47482,-5.098461 1.6262,-1.311165 3.59903,-2.16297 5.64614,-2.578902 4.09423,-0.831864 8.36275,0.05736 12.27343,1.527477 8.50911,3.198779 15.76037,9.043397 22.31662,15.340429 6.55625,6.297032 12.59467,13.151282 19.5798,18.968932 3.63498,3.02744 7.55631,5.78549 11.93845,7.56745 4.38214,1.78195 9.27356,2.54378 13.89329,1.52562 5.00167,-1.10233 9.34507,-4.18435 13.12301,-7.64252 3.77794,-3.45818 7.14657,-7.36062 11.10035,-10.6163 7.97019,-6.56295 17.94342,-10.194712 27.93717,-12.787251 9.99375,-2.592539 20.23634,-4.272682 30.02928,-7.542952 24.60182,-8.215573 44.70283,-25.801567 65.46792,-41.343652 14.5035,-10.855435 29.7277,-20.932882 46.3449,-28.148084 2.5294,-1.098283 5.1022,-2.133405 7.7916,-2.743072 2.6893,-0.609668 5.5155,-0.782039 8.2003,-0.15261 4.5039,1.055908 8.2509,4.293841 10.8829,8.098084 2.6321,3.804242 4.295,8.178652 5.9556,12.496363 17.3042,44.99287 37.0811,89.085784 51.7925,134.991874 12.4447,38.8331 21.2071,78.81937 26.6987,119.22634 9.7738,71.91468 9.2545,145.33815 25.5641,216.05762 0.1806,0.78321 0.3639,1.57023 0.4156,2.37233 0.052,0.8021 -0.034,1.62766 -0.3716,2.35721 -0.259,0.56013 -0.6599,1.04847 -1.1302,1.44803 -0.4703,0.39956 -1.0092,0.71286 -1.5714,0.96738 -1.1243,0.50905 -2.3377,0.78539 -3.5054,1.18501 -3.9862,1.36415 -7.3722,4.15778 -9.9931,7.45656 -2.6208,3.29878 -4.5339,7.0992 -6.2428,10.95024 -15.7185,35.42218 -15.1167,75.64775 -13.9508,114.38331 2.165,71.93095 5.3149,143.83225 9.4485,215.67696"
       id="path897"
       inkscape:path-effect="#path-effect899"
       inkscape:original-d="M 635.65664,862.37687 C 622.44458,797.70581 609.23152,733.03375 596.01747,668.36069 582.80341,603.68763 606.88623,549.4888 612.31911,490.05136 c 5.43289,-59.43745 30.83296,-84.47122 46.24793,-126.70832 15.41498,-42.23711 6.21359,-29.05197 9.31888,-43.57946 3.1053,-14.52748 14.28481,-33.02692 21.42572,-49.54188 7.1409,-16.51496 2.84491,-23.39473 4.26587,-35.09359 1.42095,-11.69887 -8.06378,-21.71924 -12.09716,-32.58036 -4.03339,-10.86112 5.49396,-9.14136 8.23944,-13.71354 2.74548,-4.57218 26.29531,-30.0418 39.44146,-45.0642 13.14615,-15.0224 30.89642,-3.27779 46.34313,-4.91818 15.44671,-1.64039 14.43353,10.67689 21.6488,16.01384 7.21527,5.33694 27.55891,30.97198 41.33687,46.45647 13.77796,15.48449 16.94718,18.24323 25.41927,27.36334 8.47209,9.12011 5.47714,-3.26814 8.21421,-4.90372 2.73707,-1.63557 -4.69242,-6.95372 -7.04013,-10.43208 -2.34771,-3.47837 -23.99127,-29.37489 -35.9884,-44.06383 -11.99714,-14.68894 -38.11074,-45.06148 -57.16761,-67.59371 -19.05687,-22.532239 -2.58772,-9.251984 -3.88307,-13.879475 -1.29536,-4.627491 14.26392,-4.098924 21.39439,-6.149886 7.13046,-2.050962 27.93195,22.873911 41.89642,34.309361 13.96448,11.43546 17.22216,6.06305 25.83174,9.09307 8.60958,3.03003 16.14991,-12.17155 24.22336,-18.25882 8.07345,-6.08727 38.6453,-13.552469 57.96645,-20.330203 19.32115,-6.777735 43.64629,-27.561435 65.46792,-41.343652 21.8217,-13.782218 30.8976,-18.76439 46.3449,-28.148084 15.4473,-9.3836951 10.6623,-1.929455 15.9919,-2.895682 5.3297,-0.966227 11.2267,13.730631 16.8385,20.594447 5.6118,6.863816 34.5293,89.995584 51.7925,134.991874 17.2632,44.99629 17.8001,79.48523 26.6987,119.22634 8.8986,39.74112 17.0437,144.03942 25.5641,216.05762 8.5204,72.01821 0.031,3.15403 0.044,4.72954 0.014,1.57552 -4.137,2.40128 -6.207,3.60042 -2.07,1.19914 -10.8229,12.2722 -16.2359,18.4068 -5.413,6.13459 -9.2995,76.25654 -13.9508,114.38331 -4.6513,38.12677 6.3,143.78564 9.4485,215.67696" />
  </g>
</svg>
