<?xml version="1.0" encoding="UTF-8" standalone="no"?>
<!-- Created with Inkscape (http://www.inkscape.org/) -->

<svg
   version="1.1"
   id="svg2"
   width="1893"
   height="1024"
   viewBox="0 0 1893 1024"
   sodipodi:docname="frame_0115.svg"
   inkscape:version="1.1.2 (0a00cf5339, 2022-02-04)"
   xmlns:inkscape="http://www.inkscape.org/namespaces/inkscape"
   xmlns:sodipodi="http://sodipodi.sourceforge.net/DTD/sodipodi-0.dtd"
   xmlns:xlink="http://www.w3.org/1999/xlink"
   xmlns="http://www.w3.org/2000/svg"
   xmlns:svg="http://www.w3.org/2000/svg">
  <defs
     id="defs6">
    <inkscape:path-effect
       effect="spiro"
       id="path-effect899"
       is_visible="true"
       lpeversion="1" />
    <inkscape:path-effect
       effect="spiro"
       id="path-effect862"
       is_visible="true"
       lpeversion="1" />
  </defs>
  <sodipodi:namedview
     id="namedview4"
     pagecolor="#ffffff"
     bordercolor="#666666"
     borderopacity="1.0"
     inkscape:pageshadow="2"
     inkscape:pageopacity="0.0"
     inkscape:pagecheckerboard="0"
     showgrid="false"
     inkscape:zoom="0.6703645"
     inkscape:cx="1020.3404"
     inkscape:cy="871.91371"
     inkscape:window-width="1850"
     inkscape:window-height="1016"
     inkscape:window-x="70"
     inkscape:window-y="27"
     inkscape:window-maximized="1"
     inkscape:current-layer="g8" />
  <g
     inkscape:groupmode="layer"
     inkscape:label="Image"
     id="g8">
    
    <path
       style="font-variation-settings:normal;opacity:1;vector-effect:none;fill:none;fill-opacity:1;stroke:#c86487;stroke-width:1px;stroke-linecap:butt;stroke-linejoin:miter;stroke-miterlimit:4;stroke-dasharray:none;stroke-dashoffset:0;stroke-opacity:1;-inkscape-stroke:none;stop-color:#000000;stop-opacity:1"
       d="M 1160.8553,862.08752 636.00697,861.92937"
       id="path860"
       inkscape:path-effect="#path-effect862"
       inkscape:original-d="M 1160.8553,862.08752 636.00697,861.92937" />
    <path
       style="font-variation-settings:normal;opacity:1;vector-effect:none;fill:none;fill-opacity:1;stroke:#c86487;stroke-width:1px;stroke-linecap:butt;stroke-linejoin:miter;stroke-miterlimit:4;stroke-dasharray:none;stroke-dashoffset:0;stroke-opacity:1;-inkscape-stroke:none;stop-color:#000000;stop-opacity:1"
       d="m 636.00697,861.92937 c -8.06789,-42.84975 -14.51209,-86.00519 -19.31411,-129.34261 -6.31355,-56.97865 -9.75112,-114.968 0.5963,-171.3538 7.6644,-41.76534 22.72869,-81.75993 33.94466,-122.71465 4.53813,-16.57081 8.53026,-33.52279 16.75372,-48.60792 9.21356,-16.90137 23.47814,-30.94498 30.63622,-48.81417 4.38412,-10.94437 5.87759,-22.80307 7.07399,-34.53202 1.1964,-11.72896 2.15312,-23.58246 5.55777,-34.86998 3.16973,-10.50869 8.3816,-20.2605 13.15949,-30.14237 4.7779,-9.88187 9.19811,-20.1337 10.6016,-31.01993 1.33441,-10.35037 -0.11194,-20.82851 -0.45184,-31.259 -0.33989,-10.4305 0.57868,-21.37046 6.06524,-30.24787 3.72204,-6.02237 9.32187,-10.68888 15.36216,-14.38178 6.04028,-3.6929 12.56926,-6.49989 18.95853,-9.54944 6.50615,-3.10534 12.9121,-6.48316 19.7329,-8.81767 6.82079,-2.33451 14.17221,-3.59766 21.26757,-2.32135 4.89323,0.88019 9.54965,2.96085 13.55732,5.90312 6.89788,5.06415 11.67485,12.41999 17.21148,18.94472 9.62716,11.34527 22.02512,20.72424 28.49167,34.12503 1.48865,3.08497 2.62892,6.32516 4.01101,9.45932 1.38208,3.13416 3.03469,6.20158 5.38946,8.68919 1.10295,1.16517 2.39014,2.21408 3.9151,2.71269 0.76248,0.2493 1.57691,0.35489 2.37349,0.2601 0.79659,-0.0948 1.57418,-0.39466 2.1995,-0.89715 0.88705,-0.71281 1.42693,-1.80614 1.58136,-2.93358 0.15443,-1.12743 -0.0552,-2.28488 -0.47388,-3.34302 -0.83733,-2.11629 -2.45238,-3.809 -3.862,-5.59583 -5.32911,-6.75516 -7.93844,-15.24127 -12.51218,-22.5291 -6.34692,-10.11321 -16.30673,-17.65981 -22.11748,-28.09033 -1.94094,-3.48406 -3.39275,-7.27466 -3.9355,-11.22578 -0.76383,-5.56053 0.28543,-11.18957 0.5274,-16.79709 0.0793,-1.83893 0.0527,-3.764318 -0.79308,-5.399119 -0.88084,-1.702515 -2.57928,-2.886534 -4.41232,-3.447259 -1.83304,-0.560725 -3.79646,-0.55244 -5.69929,-0.320807 -1.90284,0.231632 -3.77224,0.679904 -5.66445,0.986508 -1.8922,0.306603 -3.83463,0.470227 -5.72111,0.13017 -2.59664,-0.468071 -5.00302,-1.916281 -6.63913,-3.986253 -1.63611,-2.069972 -2.48906,-4.742501 -2.36311,-7.377985 0.1107,-2.316354 0.96007,-4.574311 2.30093,-6.466354 1.34087,-1.892043 3.16054,-3.423922 5.19401,-4.538701 4.06695,-2.229559 8.87041,-2.770046 13.50109,-2.509738 10.41487,0.585458 20.29612,4.975112 29.05117,10.646209 1.6916,1.095737 3.36658,2.254697 4.73257,3.736661 1.36599,1.481965 2.41488,3.325709 2.63331,5.329315 0.15345,1.407589 -0.10832,2.840721 -0.61653,4.162304 -0.50821,1.321582 -1.25678,2.539205 -2.0911,3.683219 -1.66863,2.288029 -3.69996,4.3216 -5.10219,6.78192 -1.42833,2.50612 -2.15285,5.4235 -1.96664,8.30205 0.18621,2.87856 1.29708,5.70466 3.19362,7.87811 2.29309,2.62792 5.63925,4.2113 9.08564,4.74664 3.13944,0.48766 6.3769,0.15339 9.42555,-0.74085 3.04865,-0.89424 5.91686,-2.33749 8.58945,-4.05539 5.34518,-3.4358 9.90268,-7.94131 14.83211,-11.95084 22.46339,-18.271387 51.56668,-25.563709 78.92342,-35.053515 23.51756,-8.158025 46.42166,-18.297659 67.59226,-31.391026 18.5969,-11.501658 36.2078,-25.439747 57.154,-31.715873 2.5116,-0.7525478 5.0985,-1.3943654 7.7193,-1.3181254 3.3695,0.098021 6.6444,1.4022594 9.3635,3.3946814 2.7191,1.992421 4.9062,4.648188 6.636,7.541469 3.4597,5.786561 5.1124,12.438523 7.4294,18.769765 4.5191,12.348312 11.6127,23.567737 17.2398,35.452129 8.9221,18.843458 14.0922,39.212485 18.8182,59.518765 8.0425,34.55674 14.9531,69.36679 21.5652,104.22551 8.1171,42.79271 15.8008,85.78037 18.6725,129.24135 2.6151,39.57769 1.2235,79.31416 2.8708,118.94392 0.4164,10.0183 1.0271,20.02864 1.3357,30.05084 0.09,2.93182 0.1535,5.88378 -0.3082,8.78043 -0.4617,2.89664 -1.4808,5.76264 -3.3463,8.02615 -1.6676,2.02331 -3.9346,3.47725 -6.3133,4.5801 -2.3787,1.10284 -4.8912,1.88268 -7.3561,2.77654 -4.9624,1.79958 -9.7785,4.08657 -14.0637,7.16904 -4.2851,3.08247 -8.0344,6.98631 -10.5647,11.61898 -3.9359,7.20614 -4.7148,15.66486 -5.2441,23.85874 -1.5169,23.48352 -1.6332,47.03153 -2.2516,70.55586 -1.8378,69.9158 -8.1197,139.71447 -18.7952,208.83488"
       id="path897"
       inkscape:path-effect="#path-effect899"
       inkscape:original-d="m 636.00697,861.92937 c -6.43704,-43.1132 -12.87507,-86.2274 -19.31411,-129.34261 -6.43903,-43.1152 0.39853,-114.23486 0.5963,-171.3538 0.19776,-57.11893 22.63077,-81.80877 33.94466,-122.71465 11.31388,-40.90589 11.17015,-32.40428 16.75372,-48.60792 5.58358,-16.20364 20.42515,-32.54178 30.63622,-48.81417 10.21107,-16.27238 8.42217,-46.267 12.63176,-69.402 4.20959,-23.135 15.84173,-40.77387 23.76109,-61.1623 7.91936,-20.38844 3.74327,-41.00358 5.6134,-61.50687 1.87013,-20.50329 22.88146,-15.95315 34.32069,-23.93122 11.43923,-7.97808 27.33465,-7.42501 41.00047,-11.13902 13.66582,-3.71401 9.03921,3.93641 13.55732,5.90312 4.5181,1.9667 11.47532,12.63081 17.21148,18.94472 5.73617,6.31391 18.99545,22.75102 28.49167,34.12503 9.49622,11.37401 6.26798,12.10001 9.40047,18.14851 3.13248,6.04851 5.65973,1.38476 8.48809,2.07564 2.82837,0.69088 -1.83534,-7.91395 -2.75452,-11.87243 -0.91917,-3.95848 -8.34045,-15.0184 -12.51218,-22.5291 -4.17172,-7.5107 -14.74399,-18.72589 -22.11748,-28.09033 -7.3735,-9.36444 -2.62267,-7.48285 -3.9355,-11.22578 -1.31283,-3.74293 0.3526,-11.19706 0.5274,-16.79709 0.1748,-5.600036 -0.52772,-3.598414 -0.79308,-5.399119 -0.26537,-1.800705 -14.33045,-1.766592 -21.49717,-2.651388 -7.16672,-0.884797 -6.00049,-7.575159 -9.00224,-11.364238 -3.00174,-3.789079 13.99835,-9.008862 20.99603,-13.514793 6.99768,-4.505932 19.36844,7.098473 29.05117,10.646209 9.68272,3.547737 4.91158,6.044984 7.36588,9.065976 2.45429,3.020992 -5.20555,9.752627 -7.80982,14.627443 -2.60427,4.87481 0.81899,10.78777 1.22698,16.18016 0.40799,5.39239 6.0581,3.16543 9.08564,4.74664 3.02755,1.58122 21.89907,-11.16372 32.84711,-16.74708 10.94803,-5.58336 52.61661,-23.368009 78.92342,-35.053515 26.30676,-11.685506 45.06256,-20.92635 67.59226,-31.391026 22.5298,-10.464675 38.1037,-21.142915 57.154,-31.715873 19.0504,-10.5729577 5.1472,-0.8777502 7.7193,-1.3181254 2.572,-0.4403752 15.6202,19.8049434 23.4289,29.7059154 7.8086,9.900972 11.4942,23.635753 17.2398,35.452129 5.7457,11.816376 12.5465,39.680175 18.8182,59.518765 6.2718,19.83859 14.3778,69.48467 21.5652,104.22551 7.1874,34.74083 12.4493,86.1619 18.6725,129.24135 6.2231,43.07945 1.9149,79.29694 2.8708,118.94392 0.956,39.64697 0.8915,20.03489 1.3357,30.05084 0.4442,10.01595 -2.4354,11.20539 -3.6545,16.80658 -1.2192,5.6012 -9.1119,4.90543 -13.6694,7.35664 -4.5574,2.45122 -16.4179,12.52635 -24.6284,18.78802 -8.2105,6.26168 -3.4951,15.90683 -5.2441,23.85874 -1.7491,7.95191 -1.5001,47.03824 -2.2516,70.55586 -0.7515,23.51762 -12.5291,139.22425 -18.7952,208.83488" />
  </g>
</svg>
