<?xml version="1.0" encoding="UTF-8" standalone="no"?>
<!-- Created with Inkscape (http://www.inkscape.org/) -->

<svg
   version="1.1"
   id="svg2"
   width="1893"
   height="1024"
   viewBox="0 0 1893 1024"
   sodipodi:docname="frame_0034.svg"
   inkscape:version="1.1.2 (0a00cf5339, 2022-02-04)"
   xmlns:inkscape="http://www.inkscape.org/namespaces/inkscape"
   xmlns:sodipodi="http://sodipodi.sourceforge.net/DTD/sodipodi-0.dtd"
   xmlns:xlink="http://www.w3.org/1999/xlink"
   xmlns="http://www.w3.org/2000/svg"
   xmlns:svg="http://www.w3.org/2000/svg">
  <defs
     id="defs6">
    <inkscape:path-effect
       effect="spiro"
       id="path-effect899"
       is_visible="true"
       lpeversion="1" />
    <inkscape:path-effect
       effect="spiro"
       id="path-effect862"
       is_visible="true"
       lpeversion="1" />
  </defs>
  <sodipodi:namedview
     id="namedview4"
     pagecolor="#ffffff"
     bordercolor="#666666"
     borderopacity="1.0"
     inkscape:pageshadow="2"
     inkscape:pageopacity="0.0"
     inkscape:pagecheckerboard="0"
     showgrid="false"
     inkscape:zoom="0.6703645"
     inkscape:cx="880.1182"
     inkscape:cy="667.54728"
     inkscape:window-width="1850"
     inkscape:window-height="1016"
     inkscape:window-x="70"
     inkscape:window-y="27"
     inkscape:window-maximized="1"
     inkscape:current-layer="g8" />
  <g
     inkscape:groupmode="layer"
     inkscape:label="Image"
     id="g8">
    
    <path
       style="font-variation-settings:normal;opacity:1;vector-effect:none;fill:none;fill-opacity:1;stroke:#c86487;stroke-width:1px;stroke-linecap:butt;stroke-linejoin:miter;stroke-miterlimit:4;stroke-dasharray:none;stroke-dashoffset:0;stroke-opacity:1;-inkscape-stroke:none;stop-color:#000000;stop-opacity:1"
       d="M 1160.6032,862.82629 635.70895,862.68575"
       id="path860"
       inkscape:path-effect="#path-effect862"
       inkscape:original-d="M 1160.6032,862.82629 635.70895,862.68575" />
    <path
       style="font-variation-settings:normal;opacity:1;vector-effect:none;fill:none;fill-opacity:1;stroke:#c86487;stroke-width:1px;stroke-linecap:butt;stroke-linejoin:miter;stroke-miterlimit:4;stroke-dasharray:none;stroke-dashoffset:0;stroke-opacity:1;-inkscape-stroke:none;stop-color:#000000;stop-opacity:1"
       d="m 635.70895,862.68575 c -25.46185,-43.26766 -41.52909,-92.03173 -46.77445,-141.9605 -6.14442,-58.48655 2.4094,-117.44782 12.27341,-175.42309 6.10084,-35.8574 12.74954,-71.77844 24.4098,-106.23147 14.16081,-41.84151 35.5474,-81.01905 48.68316,-123.1936 8.06823,-25.90438 13.25366,-53.41939 28.5186,-75.84961 0.56507,-0.83031 1.1443,-1.65403 1.62175,-2.53764 0.47744,-0.88361 0.85331,-1.83462 0.98057,-2.83088 0.1609,-1.25962 -0.0847,-2.55182 -0.58512,-3.71893 -0.50037,-1.16712 -1.24789,-2.21583 -2.09779,-3.15934 -1.6998,-1.88702 -3.80383,-3.36589 -5.58665,-5.17467 -2.89914,-2.94135 -4.88674,-6.71566 -5.97586,-10.69942 -1.08913,-3.98376 -1.30412,-8.17454 -0.94436,-12.2888 0.68244,-7.80436 3.4254,-15.37355 7.5705,-22.02124 4.6657,-7.48259 11.1374,-13.85415 18.77861,-18.25527 10.56381,-6.08446 22.88919,-8.25025 34.15453,-12.90933 5.69685,-2.35608 11.11894,-5.3495 16.86725,-7.57709 5.74831,-2.22758 11.9765,-3.68328 18.07391,-2.77395 5.90219,0.88022 11.43949,4.04101 15.17658,8.6934 4.29741,5.34995 6.0999,12.28887 9.89901,18.00345 3.13428,4.71455 7.52404,8.44321 12.00267,11.90624 4.47862,3.46303 9.13506,6.75271 13.0434,10.84851 5.80437,6.08277 9.72439,13.69169 14.8754,20.33684 4.62286,5.9638 10.26672,11.15885 16.71073,15.08472 1.63721,0.99743 3.33072,1.91715 4.84035,3.09883 0.9291,0.72726 1.79305,1.55652 2.83694,2.10645 0.52194,0.27496 1.08783,0.47692 1.67443,0.53966 0.5866,0.0627 1.19529,-0.0187 1.7228,-0.2828 0.69721,-0.34909 1.21374,-0.99854 1.51388,-1.71819 0.30013,-0.71964 0.4002,-1.50805 0.41877,-2.28756 0.0872,-3.66075 -1.57061,-7.18287 -3.83635,-10.05952 -2.26575,-2.87666 -5.12432,-5.21731 -7.87569,-7.63365 -9.09993,-7.99185 -17.25804,-17.05864 -24.21616,-26.9714 -9.52772,-13.5735 -16.8733,-28.79583 -28.24688,-40.86476 -11.47381,-12.17528 -26.73147,-20.78434 -36.17672,-34.59277 -1.17803,-1.72222 -2.26014,-3.522377 -3.04024,-5.457641 -0.7801,-1.935264 -1.2528,-4.015426 -1.18224,-6.10081 0.0954,-2.820576 1.21017,-5.587947 3.05912,-7.720108 1.84896,-2.132161 4.41407,-3.621784 7.17212,-4.22006 2.71846,-0.589689 5.56869,-0.328164 8.25923,0.378079 2.69054,0.706244 5.24581,1.844636 7.76528,3.023641 4.84941,2.269321 9.65994,4.734129 13.82209,8.10208 6.62569,5.361409 11.26868,12.715309 16.14707,19.704289 3.05133,4.37147 6.30212,8.71391 10.57109,11.90707 2.13449,1.59657 4.51386,2.88874 7.06835,3.6501 2.55449,0.76137 5.28863,0.98099 7.90543,0.47361 2.45415,-0.47584 4.75228,-1.57424 6.86049,-2.91763 2.10821,-1.3434 4.04594,-2.9336 6.00285,-4.48916 11.55553,-9.18556 24.23362,-17.41649 38.4779,-21.290135 8.7051,-2.367299 17.79772,-3.052708 26.50908,-5.396853 9.90299,-2.664801 19.09696,-7.41024 28.27018,-11.995254 15.83048,-7.912485 32.02288,-15.554129 45.70123,-26.784202 9.057,-7.435892 16.8372,-16.309727 25.7336,-23.937043 8.8964,-7.627317 19.3341,-14.139021 30.9736,-15.497226 4.0163,-0.468664 8.1222,-0.306424 12.0473,0.665103 3.9252,0.971526 7.6662,2.764693 10.7634,5.36424 3.4553,2.900043 6.0375,6.729775 7.9833,10.799525 1.9459,4.069749 3.2886,8.396948 4.5825,12.718398 6.7109,22.413489 12.2941,45.149859 18.8362,67.613197 8.9921,30.87595 19.7869,61.20542 28.7037,92.10321 20.1621,69.86395 30.5949,142.19592 37.264,214.60453 2.822,30.63939 4.9912,61.41731 10.8479,91.62385 0.2291,1.1816 0.4631,2.40864 0.1704,3.57611 -0.2836,1.1312 -1.0537,2.10549 -2.0122,2.76988 -0.9584,0.66439 -2.0951,1.03771 -3.246,1.22564 -2.302,0.37587 -4.6638,0.0391 -6.9852,0.26607 -2.9467,0.28811 -5.762,1.48976 -8.1802,3.19805 -2.4182,1.70829 -4.4567,3.91049 -6.2117,6.29497 -5.5945,7.60099 -8.3055,16.92137 -10.2396,26.15892 -6.5084,31.08524 -5.3476,63.19446 -4.3195,94.93709 2.3226,71.70835 3.817,143.44352 4.4827,215.18639"
       id="path897"
       inkscape:path-effect="#path-effect899"
       inkscape:original-d="m 635.70895,862.68575 c -15.59048,-47.31917 -31.18197,-94.63934 -46.77445,-141.9605 -15.59249,-47.32117 8.18327,-116.94773 12.27341,-175.42309 4.09014,-58.47537 16.2742,-70.81998 24.4098,-106.23147 8.1356,-35.41149 31.68218,-82.23838 48.68316,-123.1936 17.00097,-40.95522 19.06001,-50.45509 28.5186,-75.84961 9.45859,-25.39452 2.46352,-3.57801 2.60232,-5.36852 0.13879,-1.79051 -5.51204,-8.03429 -8.26956,-12.05294 -2.75752,-4.01865 -4.61248,-15.32448 -6.92022,-22.98822 -2.30775,-7.66375 5.048,-14.67982 7.5705,-22.02124 2.5225,-7.34141 12.52008,-12.16918 18.77861,-18.25527 6.25854,-6.08609 22.77069,-8.60522 34.15453,-12.90933 11.38384,-4.30411 23.2951,-6.8997 34.94116,-10.35104 11.64605,-3.45135 10.11872,5.7966 15.17658,8.6934 5.05786,2.8968 6.60034,12.0033 9.89901,18.00345 3.29867,6.00015 16.69838,15.17083 25.04607,22.75475 8.34769,7.58391 9.91793,13.55889 14.8754,20.33684 4.95746,6.77794 11.14149,10.05748 16.71073,15.08472 5.56925,5.02725 3.2279,2.06689 4.84035,3.09883 1.61245,1.03194 4.15711,1.57654 6.23417,2.36331 2.07706,0.78677 1.28944,-2.6695 1.93265,-4.00575 0.64322,-1.33626 -7.80703,-11.79445 -11.71204,-17.69317 -3.90502,-5.89872 -16.1431,-17.97993 -24.21616,-26.9714 -8.07305,-8.99146 -18.83025,-27.24217 -28.24688,-40.86476 -9.41663,-13.62259 -24.11681,-23.06085 -36.17672,-34.59277 -12.0599,-11.531923 -2.98569,-8.696303 -4.22248,-11.558451 -1.2368,-2.862148 6.82183,-7.959112 10.23124,-11.940168 3.40942,-3.981056 10.85571,3.260483 16.02451,3.40172 5.16881,0.141238 9.21573,5.402387 13.82209,8.10208 4.60636,2.699693 10.76571,13.137189 16.14707,19.704289 5.38136,6.5671 17.03092,10.68819 25.54487,16.03078 8.51396,5.3426 8.57656,-4.93686 12.86334,-7.40679 4.28678,-2.46993 25.65293,-14.19242 38.4779,-21.290135 12.82496,-7.097712 17.67372,-3.596902 26.50908,-5.396853 8.83537,-1.799951 18.84779,-7.995836 28.27018,-11.995254 9.42239,-3.999418 30.46852,-17.855134 45.70123,-26.784202 15.2328,-8.929067 37.8058,-26.288512 56.7072,-39.434269 18.9014,-13.14575632 15.2081,4.020562 22.8107,6.029343 7.6025,2.00878 8.3782,15.679615 12.5658,23.517923 4.1876,7.838308 12.5585,45.076462 18.8362,67.613197 6.2777,22.53673 19.1368,61.40314 28.7037,92.10321 9.5669,30.70007 24.8436,143.07068 37.264,214.60453 12.4203,71.53384 7.2329,61.08356 10.8479,91.62385 3.615,30.54028 0.1146,2.38507 0.1704,3.57611 0.056,1.19104 -8.1613,2.84206 -12.2434,4.26159 -4.0821,1.41953 -9.5936,6.32968 -14.3919,9.49302 -4.7983,3.16334 -6.8254,17.44028 -10.2396,26.15892 -3.4142,8.71864 -2.8787,63.2924 -4.3195,94.93709 -1.4409,31.6447 2.9895,143.45859 4.4827,215.18639"
       sodipodi:nodetypes="csssssssssssssssssssssssssssssssssssssssssssssssc" />
  </g>
</svg>
