<?xml version="1.0" encoding="UTF-8" standalone="no"?>
<!-- Created with Inkscape (http://www.inkscape.org/) -->

<svg
   version="1.1"
   id="svg2"
   width="1893"
   height="1024"
   viewBox="0 0 1893 1024"
   sodipodi:docname="frame_0041.svg"
   inkscape:version="1.1.2 (0a00cf5339, 2022-02-04)"
   xmlns:inkscape="http://www.inkscape.org/namespaces/inkscape"
   xmlns:sodipodi="http://sodipodi.sourceforge.net/DTD/sodipodi-0.dtd"
   xmlns:xlink="http://www.w3.org/1999/xlink"
   xmlns="http://www.w3.org/2000/svg"
   xmlns:svg="http://www.w3.org/2000/svg">
  <defs
     id="defs6">
    <inkscape:path-effect
       effect="spiro"
       id="path-effect899"
       is_visible="true"
       lpeversion="1" />
    <inkscape:path-effect
       effect="spiro"
       id="path-effect862"
       is_visible="true"
       lpeversion="1" />
  </defs>
  <sodipodi:namedview
     id="namedview4"
     pagecolor="#ffffff"
     bordercolor="#666666"
     borderopacity="1.0"
     inkscape:pageshadow="2"
     inkscape:pageopacity="0.0"
     inkscape:pagecheckerboard="0"
     showgrid="false"
     inkscape:zoom="0.94803857"
     inkscape:cx="1181.3865"
     inkscape:cy="759.99018"
     inkscape:window-width="1850"
     inkscape:window-height="1016"
     inkscape:window-x="70"
     inkscape:window-y="27"
     inkscape:window-maximized="1"
     inkscape:current-layer="g8" />
  <g
     inkscape:groupmode="layer"
     inkscape:label="Image"
     id="g8">
    
    <path
       style="font-variation-settings:normal;opacity:1;vector-effect:none;fill:none;fill-opacity:1;stroke:#c86487;stroke-width:1px;stroke-linecap:butt;stroke-linejoin:miter;stroke-miterlimit:4;stroke-dasharray:none;stroke-dashoffset:0;stroke-opacity:1;-inkscape-stroke:none;stop-color:#000000;stop-opacity:1"
       d="m 1160.9338,862.89459 -525.91616,-0.0835"
       id="path860"
       inkscape:path-effect="#path-effect862"
       inkscape:original-d="m 1160.9338,862.89459 -525.91616,-0.0835" />
    <path
       style="font-variation-settings:normal;opacity:1;vector-effect:none;fill:none;fill-opacity:1;stroke:#c86487;stroke-width:1px;stroke-linecap:butt;stroke-linejoin:miter;stroke-miterlimit:4;stroke-dasharray:none;stroke-dashoffset:0;stroke-opacity:1;-inkscape-stroke:none;stop-color:#000000;stop-opacity:1"
       d="M 635.01764,862.81109 C 598.81027,834.47516 574.685,791.18667 569.63188,745.48804 c -6.04956,-54.71007 13.99471,-108.41139 28.54428,-161.49716 9.96235,-36.34877 17.44214,-73.32404 26.1906,-109.98391 4.10859,-17.2168 8.51095,-34.40924 14.75564,-50.97132 10.90162,-28.91315 27.29332,-55.57897 37.2822,-84.82 8.14066,-23.83062 12.02022,-49.32376 23.95967,-71.49623 4.89242,-9.0856 11.15489,-17.66629 13.58558,-27.69503 1.32531,-5.46809 1.43695,-11.2761 -0.0679,-16.69752 -1.13114,-4.07507 -3.13524,-7.84333 -5.0562,-11.61104 -1.92096,-3.76771 -3.79164,-7.62408 -4.62217,-11.77088 -1.06101,-5.2976 -0.35422,-10.8572 1.47151,-15.94218 1.82573,-5.08498 4.73388,-9.72624 8.07167,-13.97471 7.08611,-9.01948 16.19025,-16.40601 26.34474,-21.73987 14.59207,-7.66479 31.09895,-11.0405 47.52877,-12.35902 4.12221,-0.33082 8.27577,-0.5374 12.38725,-0.0927 4.11148,0.44473 8.20204,1.56556 11.725,3.73138 5.95692,3.66215 9.74653,9.89179 13.74456,15.62868 14.93795,21.43491 35.34586,38.45978 51.61405,58.90345 0.57243,0.71936 1.14573,1.4491 1.85706,2.03148 0.71132,0.58239 1.58352,1.01338 2.50267,1.03116 0.65999,0.0128 1.31981,-0.19191 1.86689,-0.56131 0.54707,-0.36939 0.98083,-0.90014 1.25042,-1.50269 0.45091,-1.0078 0.43491,-2.17609 0.16338,-3.24625 -0.27154,-1.07016 -0.78216,-2.06235 -1.30275,-3.03599 -14.45176,-27.02877 -39.06482,-46.98289 -57.78401,-71.2522 -9.28399,-12.03663 -17.10187,-25.11984 -25.29216,-37.925771 -1.95936,-3.06355 -3.96262,-6.157389 -5.08288,-9.617079 -0.56012,-1.729845 -0.89202,-3.543388 -0.85995,-5.361374 0.0321,-1.817987 0.4359,-3.641717 1.28145,-5.251424 1.49436,-2.844891 4.30585,-4.862149 7.37137,-5.826045 3.31424,-1.042102 6.92475,-0.93753 10.28663,-0.06121 3.36189,0.876322 6.49328,2.496696 9.38152,4.42757 6.65178,4.446918 12.0605,10.517047 16.89246,16.894623 5.37286,7.091497 10.13639,14.654457 15.93813,21.399597 2.71295,3.1541 5.68246,6.14927 9.2213,8.33675 3.53883,2.18748 7.70845,3.52942 11.8524,3.16044 3.69197,-0.32873 7.15235,-1.9814 10.23194,-4.04414 3.07959,-2.06274 5.85215,-4.54553 8.80183,-6.79011 11.33496,-8.62539 24.98962,-13.53741 38.4185,-18.285448 12.8865,-4.556272 25.81904,-9.092635 38.10262,-15.087222 12.97068,-6.329903 25.10978,-14.234098 36.93665,-22.506426 21.5305,-15.059561 42.1859,-31.432397 64.6684,-45.029897 1.3392,-0.809984 2.7491,-1.630977 4.3103,-1.742312 1.5311,-0.109192 3.0482,0.492596 4.2902,1.394617 1.2421,0.902021 2.2446,2.08991 3.1975,3.293327 8.3958,10.60289 13.842,23.18801 20.869,34.743621 5.9556,9.793724 13.047,18.845089 19.3651,28.409002 6.3181,9.563913 11.9266,19.811058 14.4564,30.990788 2.7518,12.16063 1.7444,24.85947 3.5441,37.19699 2.8389,19.46165 12.4975,37.19543 18.0974,56.04899 5.0668,17.05886 6.7718,34.90083 9.8013,52.43649 4.5262,26.19934 12.046,51.89061 14.9157,78.32273 3.8467,35.43156 -0.7205,71.68532 6.5211,106.58162 3.7426,18.035 10.6321,35.73503 10.1038,54.14669 -0.097,3.37189 -0.4564,6.78679 -1.6967,9.92378 -1.1727,2.9662 -3.1015,5.59098 -5.3452,7.85802 -2.2437,2.26704 -4.8035,4.19584 -7.4109,6.03295 -4.2466,2.99204 -8.786,5.9051 -11.5217,10.32123 -1.944,3.13819 -2.8285,6.83308 -3.1574,10.50994 -0.3288,3.67686 -0.1312,7.3772 -0.07,11.06823 0.5434,32.60646 -9.4949,64.31034 -16.2499,96.21405 -14.9111,70.42484 -13.837,144.18598 3.1184,214.14678"
       id="path897"
       inkscape:path-effect="#path-effect899"
       inkscape:original-d="m 635.01764,862.81109 c -21.79425,-39.10668 -43.58951,-78.21437 -65.38576,-117.32305 -21.79625,-39.10868 19.03052,-107.66377 28.54428,-161.49716 9.51376,-53.83339 17.4614,-73.32161 26.1906,-109.98391 8.72921,-36.6623 9.8381,-33.97988 14.75564,-50.97132 4.91755,-16.99145 24.8558,-56.54567 37.2822,-84.82 12.42639,-28.27433 15.97411,-47.66315 23.95967,-71.49623 7.98555,-23.83307 9.05805,-18.46235 13.58558,-27.69503 4.52752,-9.23268 -0.0443,-11.13068 -0.0679,-16.69752 -0.0236,-5.56684 -6.45125,-15.58695 -9.67837,-23.38192 -3.22713,-7.79498 6.36312,-19.9436 9.54318,-29.91689 3.18006,-9.9733 17.56416,-14.49225 26.34474,-21.73987 8.78058,-7.24762 31.68685,-8.23834 47.52877,-12.35902 15.84193,-4.12067 16.07584,2.42682 24.11225,3.63872 8.03642,1.21191 9.16404,10.42012 13.74456,15.62868 4.58051,5.20856 34.41037,39.26997 51.61405,58.90345 17.20368,19.63348 2.90749,2.04276 4.35973,3.06264 1.45225,1.01987 2.07921,-1.375 3.11731,-2.064 1.0381,-0.689 -0.75858,-4.18716 -1.13937,-6.28224 -0.38079,-2.09508 -38.52168,-47.50047 -57.78401,-71.2522 -19.26234,-23.75173 -16.86044,-25.28285 -25.29216,-37.925771 -8.43171,-12.642924 -3.10659,-13.485584 -4.66138,-20.229877 -1.5548,-6.744292 4.91524,-3.88303 7.37137,-5.826045 2.45612,-1.943015 13.1131,2.911909 19.66815,4.366363 6.55505,1.454455 11.26264,11.264082 16.89246,16.894623 5.62982,5.630541 10.62642,14.267397 15.93813,21.399597 5.3117,7.1322 14.05013,7.66579 21.0737,11.49719 7.02357,3.8314 12.69018,-7.22183 19.03377,-10.83425 6.3436,-3.61241 25.61333,-12.1893 38.4185,-18.285448 12.80516,-6.09615 25.40274,-10.057148 38.10262,-15.087222 12.69987,-5.030074 24.62548,-15.003284 36.93665,-22.506426 12.3113,-7.503142 43.1133,-30.018931 64.6684,-45.029897 21.5551,-15.01096528 2.8745,-1.160541 4.3103,-1.742312 1.4358,-0.581771 4.9928,3.126296 7.4877,4.687944 2.4949,1.561647 13.9137,23.163414 20.869,34.743621 6.9554,11.580208 22.5487,39.600861 33.8215,59.39979 11.2729,19.79893 2.3637,24.79899 3.5441,37.19699 1.1803,12.39799 12.0659,37.36699 18.0974,56.04899 6.0315,18.682 6.5352,34.95866 9.8013,52.43649 3.2662,17.47782 9.9448,52.21615 14.9157,78.32273 4.9709,26.10658 4.3484,71.05542 6.5211,106.58162 2.1727,35.52621 6.7368,36.09879 10.1038,54.14669 3.3669,18.04789 -1.1301,6.61685 -1.6967,9.92378 -0.5665,3.30693 -8.503,9.26165 -12.7561,13.89097 -4.253,4.62932 -7.6801,6.88182 -11.5217,10.32123 -3.8415,3.43941 -2.1504,14.38644 -3.2271,21.57817 -1.0767,7.19172 -10.8323,64.1437 -16.2499,96.21405 -5.4176,32.07036 2.0799,142.76552 3.1184,214.14678" />
  </g>
</svg>
