<?xml version="1.0" encoding="UTF-8" standalone="no"?>
<!-- Created with Inkscape (http://www.inkscape.org/) -->

<svg
   version="1.1"
   id="svg2"
   width="1893"
   height="1024"
   viewBox="0 0 1893 1024"
   sodipodi:docname="frame_0120.svg"
   inkscape:version="1.1.2 (0a00cf5339, 2022-02-04)"
   xmlns:inkscape="http://www.inkscape.org/namespaces/inkscape"
   xmlns:sodipodi="http://sodipodi.sourceforge.net/DTD/sodipodi-0.dtd"
   xmlns:xlink="http://www.w3.org/1999/xlink"
   xmlns="http://www.w3.org/2000/svg"
   xmlns:svg="http://www.w3.org/2000/svg">
  <defs
     id="defs6">
    <inkscape:path-effect
       effect="spiro"
       id="path-effect866"
       is_visible="true"
       lpeversion="1" />
    <inkscape:path-effect
       effect="spiro"
       id="path-effect862"
       is_visible="true"
       lpeversion="1" />
  </defs>
  <sodipodi:namedview
     id="namedview4"
     pagecolor="#ffffff"
     bordercolor="#666666"
     borderopacity="1.0"
     inkscape:pageshadow="2"
     inkscape:pageopacity="0.0"
     inkscape:pagecheckerboard="0"
     showgrid="false"
     inkscape:zoom="0.47401928"
     inkscape:cx="1301.6348"
     inkscape:cy="699.33864"
     inkscape:window-width="1850"
     inkscape:window-height="1016"
     inkscape:window-x="70"
     inkscape:window-y="27"
     inkscape:window-maximized="1"
     inkscape:current-layer="g8" />
  <g
     inkscape:groupmode="layer"
     inkscape:label="Image"
     id="g8">
    
    <path
       style="font-variation-settings:normal;opacity:1;vector-effect:none;fill:none;fill-opacity:1;stroke:#c86487;stroke-width:1px;stroke-linecap:butt;stroke-linejoin:miter;stroke-miterlimit:4;stroke-dasharray:none;stroke-dashoffset:0;stroke-opacity:1;-inkscape-stroke:none;stop-color:#000000;stop-opacity:1"
       d="m 1160.4177,862.54953 -524.99976,0.13044"
       id="path860"
       inkscape:path-effect="#path-effect862"
       inkscape:original-d="m 1160.4177,862.54953 c -174.9989,0.0445 -349.99883,0.088 -524.99976,0.13044" />
    <path
       style="font-variation-settings:normal;opacity:1;vector-effect:none;fill:none;fill-opacity:1;stroke:#c86487;stroke-width:1px;stroke-linecap:butt;stroke-linejoin:miter;stroke-miterlimit:4;stroke-dasharray:none;stroke-dashoffset:0;stroke-opacity:1;-inkscape-stroke:none;stop-color:#000000;stop-opacity:1"
       d="m 635.41794,862.67997 c 9.43031,-58.42606 9.94465,-118.28283 1.51975,-176.86232 -7.7943,-54.19489 -23.18772,-109.17326 -12.19682,-162.81129 6.00508,-29.30614 19.60684,-56.38817 30.95902,-84.06557 10.16888,-24.79245 18.59348,-50.25769 27.84599,-75.4065 9.72234,-26.42585 20.35953,-52.50397 30.62034,-78.72543 5.13006,-13.10986 10.17051,-26.26829 14.33324,-39.71663 3.99123,-12.89429 7.17743,-26.08588 8.52522,-39.5163 1.15554,-11.51465 0.95571,-23.15279 2.56151,-34.61332 0.95409,-6.8093 2.63308,-13.72988 6.66089,-19.30245 4.59954,-6.36358 11.73332,-10.29438 17.93137,-15.11466 8.84123,-6.8759 15.94931,-15.74458 24.59698,-22.86239 3.72353,-3.0648 7.76322,-5.81652 12.2497,-7.58548 4.48648,-1.76896 9.46055,-2.5151 14.18218,-1.53331 6.00945,1.24958 11.16149,5.17849 15.22918,9.7751 5.00422,5.65491 8.63163,12.36225 12.56247,18.80962 17.27379,28.33249 40.81253,52.19267 63.01356,76.85495 0.31177,0.34634 0.62507,0.69455 0.98818,0.98662 0.36312,0.29206 0.78159,0.52802 1.23891,0.61753 0.45865,0.0898 0.94164,0.0271 1.37429,-0.14962 0.43265,-0.17674 0.8158,-0.46444 1.12928,-0.81107 0.62696,-0.69326 0.96719,-1.59932 1.18916,-2.50729 0.49328,-2.01779 0.46017,-4.1733 -0.17692,-6.1504 -0.5422,-1.68262 -1.50324,-3.20425 -2.61062,-4.58225 -1.10739,-1.37801 -2.36488,-2.62646 -3.58339,-3.90725 -14.59649,-15.34246 -23.48239,-35.15959 -36.17854,-52.10823 -2.20077,-2.9379 -4.52302,-5.79941 -6.40036,-8.95382 -1.87734,-3.1544 -3.31021,-6.65472 -3.5384,-10.31841 -0.20589,-3.30557 0.57031,-6.58101 1.09661,-9.85091 0.5263,-3.26989 0.78829,-6.71634 -0.39106,-9.81123 -0.80835,-2.12128 -2.27129,-3.968237 -4.07083,-5.352033 -1.79955,-1.383796 -3.92658,-2.314292 -6.13648,-2.833502 -3.04102,-0.714477 -6.20117,-0.662053 -9.32491,-0.685095 -3.12373,-0.02304 -6.30372,-0.135299 -9.25665,-1.154342 -2.36782,-0.817122 -4.54305,-2.221403 -6.19171,-4.107179 -1.64867,-1.885776 -2.75719,-4.255818 -3.0543,-6.742977 -0.3703,-3.099811 0.52944,-6.279649 2.20191,-8.915704 1.67247,-2.636054 4.08049,-4.753384 6.74844,-6.374486 6.26799,-3.80856 14.07885,-4.907115 21.20718,-3.180888 9.33142,2.259738 16.89142,8.877543 25.35141,13.417406 1.77481,0.952412 3.60725,1.822783 5.22433,3.023654 1.61708,1.200871 3.03119,2.785103 3.61529,4.712761 0.36257,1.196549 0.38925,2.487329 0.11903,3.708053 -0.27022,1.220723 -0.83308,2.370744 -1.59675,3.360687 -1.08067,1.400865 -2.53102,2.460135 -3.90249,3.577879 -1.37147,1.117745 -2.71585,2.356805 -3.46405,3.960075 -0.52255,1.119749 -0.72662,2.364661 -0.78255,3.599071 -0.0559,1.23441 0.0306,2.47021 0.061,3.70551 0.0334,1.35555 -5e-4,2.71666 0.1651,4.06247 0.1656,1.34582 0.54412,2.69422 1.32663,3.80161 0.83155,1.17679 2.07559,2.01496 3.40582,2.56885 1.33024,0.55388 2.75356,0.84369 4.17169,1.09903 1.60372,0.28875 3.21503,0.53759 4.83422,0.72074 4.75005,0.53728 9.66935,0.48845 14.1714,-1.1188 4.86303,-1.73612 8.92615,-5.17131 12.55865,-8.8412 3.6325,-3.66989 6.97053,-7.65908 10.98654,-10.904817 6.15926,-4.977918 13.67845,-8.00803 21.31788,-10.094974 7.63942,-2.086943 15.48831,-3.29608 23.21014,-5.053773 24.06697,-5.478281 46.59258,-16.204894 68.47378,-27.626039 13.5005,-7.046726 26.8504,-14.392101 40.5662,-21.009989 10.7588,-5.191134 21.8172,-9.978162 31.5128,-16.956362 3.454,-2.485932 6.7509,-5.259089 10.595,-7.0845759 1.9221,-0.9127437 3.9763,-1.5795006 6.093,-1.7965226 2.1167,-0.2170219 4.3,0.028114 6.2546,0.8690134 2.7664,1.1901811 4.9222,3.4957671 6.5395,6.0362531 1.6173,2.540486 2.7659,5.344023 4.0762,8.055612 3.4259,7.089441 7.9778,13.585802 11.4597,20.647869 5.3006,10.750565 8.0118,22.575313 12.4709,33.701278 4.7342,11.812424 11.4369,22.833477 15.1963,34.991307 3.3795,10.92904 4.2773,22.43966 5.7532,33.78367 1.6643,12.79208 4.0849,25.47411 6.7185,38.10231 4.909,23.539 10.5687,46.95516 13.8646,70.77363 2.4783,17.90974 3.612,35.99394 6.4236,53.85439 3.2224,20.47026 8.6462,40.63726 10.0613,61.31124 2.3955,34.99752 -6.7644,70.46339 -0.7087,105.01614 1.0719,6.1159 2.6155,12.15218 3.378,18.31431 0.7624,6.16213 0.7135,12.55225 -1.3359,18.4134 -2.3215,6.63935 -7.3814,12.42722 -13.9489,14.94485 -2.1093,0.80858 -4.3331,1.279 -6.4656,2.02414 -2.1325,0.74515 -4.2305,1.81299 -5.6718,3.55235 -1.6123,1.94564 -2.2289,4.49784 -3.0696,6.88072 -2.2785,6.45822 -6.4242,12.06067 -9.6726,18.08964 -7.9605,14.77469 -10.4161,31.96717 -10.2064,48.74863 0.2097,16.78146 2.9379,33.414 4.7366,50.1001 7.4974,69.55056 -1.3838,140.81347 -25.7222,206.39648"
       id="path864"
       inkscape:path-effect="#path-effect866"
       inkscape:original-d="m 635.41794,862.67997 c 0.50758,-58.95311 1.01416,-117.90722 1.51975,-176.86232 0.50558,-58.95511 -8.13021,-108.53986 -12.19682,-162.81129 -4.0666,-54.27143 20.64035,-56.04271 30.95902,-84.06557 10.31867,-28.02286 18.56499,-50.27 27.84599,-75.4065 9.281,-25.13649 20.41456,-52.48262 30.62034,-78.72543 10.20578,-26.24281 9.55649,-26.47675 14.33324,-39.71663 4.77675,-13.23987 5.68448,-26.3432 8.52522,-39.5163 2.84074,-13.1731 1.70867,-23.07455 2.56151,-34.61332 0.85284,-11.53878 4.4416,-12.8673 6.66089,-19.30245 2.2193,-6.43515 11.95525,-10.07544 17.93137,-15.11466 5.97613,-5.03922 16.39898,-15.24059 24.59698,-22.86239 8.19799,-7.6218 17.62225,-6.07819 26.43188,-9.11879 8.80962,-3.04059 10.15379,6.51773 15.22918,9.7751 5.0754,3.25736 8.37598,12.54075 12.56247,18.80962 4.18649,6.26888 42.01004,51.23764 63.01356,76.85495 21.00351,25.61732 1.48573,1.07043 2.22709,1.60415 0.74137,0.53372 2.46282,-2.31099 3.69273,-3.46798 1.22991,-1.157 -0.11695,-4.09927 -0.17692,-6.1504 -0.06,-2.05114 -4.12834,-5.65867 -6.19401,-8.4895 -2.06567,-2.83083 -24.11803,-34.73782 -36.17854,-52.10823 -12.06052,-17.37041 -6.62484,-12.84716 -9.93876,-19.27223 -3.31392,-6.42508 0.47137,-13.1071 0.70555,-19.66214 0.23419,-6.555051 -6.80387,-5.456025 -10.20731,-8.185535 -3.40344,-2.729511 -12.38671,-1.225292 -18.58156,-1.839437 -6.19486,-0.614146 -6.16301,-7.232438 -9.24601,-10.850156 -3.08301,-3.617719 5.9679,-10.19246 8.95035,-15.29019 2.98245,-5.097729 14.13912,-2.119592 21.20718,-3.180888 7.06806,-1.061296 16.90194,8.945937 25.35141,13.417406 8.44948,4.471468 5.89408,5.15861 8.83962,7.736415 2.94554,2.577805 -0.98415,4.713493 -1.47772,7.06874 -0.49358,2.355247 -4.91003,5.026303 -7.36654,7.537954 -2.45651,2.511651 -0.48002,4.870721 -0.72153,7.304581 -0.24151,2.43385 0.99548,5.24372 1.49173,7.86408 0.49624,2.62036 5.05267,2.44626 7.57751,3.66788 2.52484,1.22163 3.22382,0.48149 4.83422,0.72074 1.61041,0.23924 9.4486,-0.74487 14.1714,-1.1188 4.7228,-0.37393 15.69779,-13.16301 23.54519,-19.746017 7.8474,-6.583006 29.68635,-10.098164 44.52802,-15.148747 14.84168,-5.050582 45.65018,-18.416359 68.47378,-27.626039 22.8237,-9.20968 27.0451,-14.005659 40.5662,-21.009989 13.521,-7.004329 21.0095,-11.303241 31.5128,-16.956362 10.5033,-5.653121 15.296,-5.34039 22.9426,-8.0120851 7.6465,-2.671695 7.0781,9.3955761 10.6157,14.0918651 3.5376,4.696288 7.6408,13.766246 11.4597,20.647869 3.8188,6.881623 8.3149,22.468518 12.4709,33.701278 4.156,11.232759 10.1319,23.328537 15.1963,34.991307 5.0644,11.66277 3.8365,22.52345 5.7532,33.78367 1.9167,11.26022 4.48,25.40254 6.7185,38.10231 2.2384,12.69976 9.244,47.18342 13.8646,70.77363 4.6205,23.59021 4.2834,35.90393 6.4236,53.85439 2.1402,17.95046 6.7086,40.87516 10.0613,61.31124 3.3528,20.43607 -0.4715,70.01176 -0.7087,105.01614 -0.2373,35.00438 1.3624,24.48614 2.0421,36.72771 0.6798,12.24157 -9.2983,9.96423 -13.9489,14.94485 -4.6507,4.98061 -8.0906,3.71866 -12.1374,5.57649 -4.0468,1.85783 -2.0454,4.58815 -3.0696,6.88072 -1.0242,2.29258 -6.4474,12.06076 -9.6726,18.08964 -3.2252,6.02888 -3.6455,65.90015 -5.4698,98.84873 -1.8243,32.94857 -17.1471,137.59865 -25.7222,206.39648" />
  </g>
</svg>
