<?xml version="1.0" encoding="UTF-8" standalone="no"?>
<!-- Created with Inkscape (http://www.inkscape.org/) -->

<svg
   version="1.1"
   id="svg2"
   width="1893"
   height="1024"
   viewBox="0 0 1893 1024"
   sodipodi:docname="frame_0081.svg"
   inkscape:version="1.1.2 (0a00cf5339, 2022-02-04)"
   xmlns:inkscape="http://www.inkscape.org/namespaces/inkscape"
   xmlns:sodipodi="http://sodipodi.sourceforge.net/DTD/sodipodi-0.dtd"
   xmlns:xlink="http://www.w3.org/1999/xlink"
   xmlns="http://www.w3.org/2000/svg"
   xmlns:svg="http://www.w3.org/2000/svg">
  <defs
     id="defs6">
    <inkscape:path-effect
       effect="spiro"
       id="path-effect899"
       is_visible="true"
       lpeversion="1" />
    <inkscape:path-effect
       effect="spiro"
       id="path-effect862"
       is_visible="true"
       lpeversion="1" />
  </defs>
  <sodipodi:namedview
     id="namedview4"
     pagecolor="#ffffff"
     bordercolor="#666666"
     borderopacity="1.0"
     inkscape:pageshadow="2"
     inkscape:pageopacity="0.0"
     inkscape:pagecheckerboard="0"
     showgrid="false"
     inkscape:zoom="0.47401928"
     inkscape:cx="1172.9481"
     inkscape:cy="631.83083"
     inkscape:window-width="1850"
     inkscape:window-height="1016"
     inkscape:window-x="70"
     inkscape:window-y="27"
     inkscape:window-maximized="1"
     inkscape:current-layer="g8" />
  <g
     inkscape:groupmode="layer"
     inkscape:label="Image"
     id="g8">
    
    <path
       style="font-variation-settings:normal;opacity:1;vector-effect:none;fill:none;fill-opacity:1;stroke:#c86487;stroke-width:1px;stroke-linecap:butt;stroke-linejoin:miter;stroke-miterlimit:4;stroke-dasharray:none;stroke-dashoffset:0;stroke-opacity:1;-inkscape-stroke:none;stop-color:#000000;stop-opacity:1"
       d="M 1160.4641,863.33807 635.59086,862.45773"
       id="path860"
       inkscape:path-effect="#path-effect862"
       inkscape:original-d="M 1160.4641,863.33807 635.59086,862.45773" />
    <path
       style="font-variation-settings:normal;opacity:1;vector-effect:none;fill:none;fill-opacity:1;stroke:#c86487;stroke-width:1px;stroke-linecap:butt;stroke-linejoin:miter;stroke-miterlimit:4;stroke-dasharray:none;stroke-dashoffset:0;stroke-opacity:1;-inkscape-stroke:none;stop-color:#000000;stop-opacity:1"
       d="M 635.59086,862.45773 C 624.74528,789.01184 617.41062,715.0476 613.62031,640.90208 c -2.78572,-54.49385 -3.51632,-110.17375 12.38909,-162.36913 10.31089,-33.83634 27.31531,-65.17728 44.06946,-96.3303 11.15702,-20.74559 22.3645,-41.81429 27.82799,-64.72736 2.69339,-11.29566 3.94844,-22.882 6.19286,-34.27537 2.24442,-11.39337 5.56763,-22.78507 11.94471,-32.48967 2.6787,-4.07643 5.85815,-7.79653 8.76278,-11.71518 2.90463,-3.91865 5.56656,-8.10307 7.02316,-12.75828 1.57306,-5.02742 1.67533,-10.42119 1.02994,-15.64928 -0.64539,-5.22809 -2.01682,-10.33502 -3.35017,-15.43126 -1.33334,-5.09624 -2.63689,-10.22623 -3.14165,-15.46977 -0.50475,-5.24354 -0.18309,-10.64402 1.65764,-15.57973 2.05067,-5.49865 5.90862,-10.19257 10.42997,-13.93393 4.52135,-3.74136 9.70487,-6.59515 14.96548,-9.19636 18.34278,-9.06995 38.18168,-15.36372 58.55866,-17.23455 3.54824,-0.32577 7.13079,-0.51724 10.66881,-0.0947 3.53802,0.42255 7.05054,1.48579 9.99239,3.49618 2.49168,1.70276 4.50133,4.03075 6.19614,6.52785 1.69481,2.49709 3.09762,5.1775 4.582,7.80514 8.72926,15.45244 20.28065,29.08515 31.46074,42.86859 6.72435,8.29015 13.35514,16.69306 18.97442,25.7687 2.19387,3.5433 4.34829,7.31197 7.81514,9.62476 1.402,0.93529 3.03849,1.60956 4.72329,1.56648 0.84239,-0.0215 1.68501,-0.22589 2.42198,-0.63451 0.73697,-0.40862 1.36436,-1.02563 1.74448,-1.7777 0.35949,-0.71125 0.49123,-1.5267 0.43438,-2.3216 -0.0568,-0.79491 -0.29704,-1.57019 -0.64484,-2.28723 -0.69559,-1.43408 -1.80063,-2.62085 -2.86898,-3.80367 -8.10274,-8.97095 -14.97141,-18.99307 -21.19899,-29.35404 -7.3777,-12.27445 -14.28337,-25.51569 -25.96252,-33.80364 -3.77838,-2.68128 -8.00891,-4.80006 -11.26525,-8.09577 -1.62817,-1.64785 -2.99486,-3.59363 -3.73958,-5.7872 -0.74471,-2.19357 -0.8338,-4.64881 -1.5e-4,-6.81015 0.73596,-1.90806 2.12499,-3.47742 3.449,-5.03605 1.324,-1.55862 2.64249,-3.21177 3.18739,-5.18291 0.46931,-1.69769 0.32161,-3.53058 -0.2328,-5.20242 -0.55441,-1.67184 -1.49972,-3.19321 -2.60433,-4.56517 -3.06236,-3.80354 -7.38942,-6.51508 -12.07337,-7.895524 -4.52218,-1.332769 -9.29665,-1.457515 -14.00515,-1.695029 -2.28414,-0.115221 -4.58896,-0.262885 -6.78566,-0.899342 -2.1967,-0.636457 -4.30402,-1.807551 -5.67769,-3.636104 -1.09563,-1.458447 -1.67187,-3.27724 -1.73982,-5.100112 -0.0679,-1.822872 0.35787,-3.647354 1.11236,-5.308146 1.50898,-3.321583 4.25514,-5.920785 7.16592,-8.120168 4.35001,-3.286865 9.31328,-5.914892 14.68653,-6.839119 5.37326,-0.924226 11.19156,-0.008 15.59574,3.205965 4.0815,2.978456 6.63553,7.607693 10.37523,11.005407 3.61838,3.287481 8.1873,5.288024 12.39365,7.77938 2.10317,1.245678 4.13984,2.632596 5.88917,4.339903 1.74933,1.707307 3.20873,3.752241 4.00644,6.062804 0.70579,2.044325 0.87565,4.280815 0.41642,6.394225 -0.45924,2.11342 -1.55552,4.09458 -3.15091,5.55476 -2.06456,1.88958 -4.80842,2.82159 -7.19497,4.28355 -1.19327,0.73098 -2.31657,1.61386 -3.14042,2.74501 -0.82385,1.13114 -1.33,2.53283 -1.20817,3.92688 0.0739,0.84555 0.37659,1.66666 0.84655,2.37345 0.46996,0.70679 1.10461,1.29976 1.82749,1.74457 1.44576,0.88962 3.21539,1.16982 4.9024,0.98099 1.687,-0.18884 3.29967,-0.82214 4.78479,-1.64436 1.48513,-0.82221 2.85602,-1.83286 4.22682,-2.83413 10.4732,-7.64995 21.29616,-14.97504 33.18353,-20.16155 16.45095,-7.177621 34.41511,-10.042722 51.53226,-15.442286 19.3549,-6.105457 37.51171,-15.412458 55.84361,-24.120577 20.5534,-9.763428 41.9983,-19.206139 57.7477,-35.629469 4.5269,-4.720606 8.5097,-9.952452 13.1992,-14.511584 4.6894,-4.5591322 10.2624,-8.5027808 16.6598,-9.8629425 1.6555,-0.3519768 3.4119,-0.520343 5.0158,0.020099 1.3295,0.4479825 2.474,1.3676196 3.3085,2.4953496 0.8346,1.1277301 1.3716,2.456265 1.6904,3.8225208 0.6375,2.7325111 0.4216,5.5794641 0.466,8.3849981 0.1403,8.865462 2.9162,17.505176 6.5917,25.574026 3.6756,8.06885 8.2581,15.688109 12.2938,23.582971 7.5099,14.691096 13.0967,30.274281 18.6117,45.824564 7.9212,22.33474 15.7472,44.73239 21.8606,67.62807 10.0488,37.63455 15.3991,76.33528 21.0199,114.88065 4.7298,32.43552 9.6697,64.86173 12.6911,97.50074 2.262,24.43551 3.4463,48.99408 2.7354,73.52377 -0.4589,15.83587 -1.7063,31.70084 -0.5019,47.49751 0.074,0.97165 0.1545,1.9713 -0.1357,2.90155 -0.3722,1.19302 -1.3363,2.1447 -2.4615,2.6885 -1.1252,0.5438 -2.3999,0.71369 -3.6495,0.6964 -2.4992,-0.0346 -4.9853,-0.78464 -7.4666,-0.48391 -1.7845,0.21629 -3.4989,0.98976 -4.8355,2.19182 -1.3365,1.20206 -2.2879,2.8281 -2.6714,4.58429 -0.373,1.70788 -0.2161,3.48168 -0.048,5.2217 1.0388,10.75141 2.4409,21.47688 2.9175,32.26784 1.3433,30.41385 -4.6727,60.60547 -10.0531,90.56975 -12.4009,69.06226 -21.5634,138.70591 -27.4473,208.62555"
       id="path897"
       inkscape:path-effect="#path-effect899"
       inkscape:original-d="m 635.59086,862.45773 c -7.32252,-73.85088 -14.64603,-147.70277 -21.97055,-221.55565 -7.32451,-73.85289 8.26039,-108.24509 12.38909,-162.36913 4.1287,-54.12404 29.38064,-64.2192 44.06946,-96.3303 14.68882,-32.1111 18.55299,-43.15057 27.82799,-64.72736 9.27499,-21.57678 12.09271,-44.50903 18.13757,-66.76504 6.04485,-22.25602 10.52496,-16.31464 15.78594,-24.47346 5.26098,-8.15882 -2.53516,-41.41903 -3.80424,-62.13004 -1.26908,-20.71101 16.9313,-15.41919 25.39545,-23.13029 8.46415,-7.71109 39.04011,-11.4887 58.55866,-17.23455 19.51855,-5.74585 13.77513,2.26866 20.6612,3.40149 6.88607,1.13283 7.18643,9.55633 10.77814,14.33299 3.59171,4.77667 20.97483,28.58006 31.46074,42.86859 10.48591,14.28853 12.65062,17.18013 18.97442,25.7687 6.32381,8.58857 5.21109,6.41751 7.81514,9.62476 2.60405,3.20725 5.9275,-0.56282 8.88975,-0.84573 2.96225,-0.28291 -2.05196,-5.60734 -3.07944,-8.4125 -1.02748,-2.80517 -14.13166,-19.56836 -21.19899,-29.35404 -7.06733,-9.78568 -17.30734,-22.53476 -25.96252,-33.80364 -8.65517,-11.26887 -10.00232,-13.79441 -15.00498,-20.69312 -5.00266,-6.8987 4.42526,-6.81164 6.63639,-10.21896 2.21113,-3.40733 -1.89042,-6.51073 -2.83713,-9.76759 -0.94671,-3.25686 -8.04791,-5.26268 -12.07337,-7.895524 -4.02546,-2.63284 -9.33577,-1.129019 -14.00515,-1.695029 -4.66939,-0.56601 -8.3079,-3.02263 -12.46335,-4.535446 -4.15545,-1.512815 4.35997,-12.351284 6.53846,-18.528426 2.17849,-6.177142 20.18918,-2.421102 30.28227,-3.633154 10.09309,-1.212051 6.91782,7.337938 10.37523,11.005407 3.45741,3.667469 14.86051,12.122391 22.28926,18.182087 7.42876,6.059695 -1.82199,7.966995 -2.73449,11.948985 -0.9125,3.982 -7.69471,7.30463 -11.54356,10.95544 -3.84886,3.65081 11.0597,0.41468 16.58805,0.62052 5.52835,0.20584 22.12335,-13.44003 33.18353,-20.16155 11.06018,-6.72152 34.35584,-10.293858 51.53226,-15.442286 17.17642,-5.148428 37.23011,-16.079385 55.84361,-24.120577 18.6136,-8.041192 38.4994,-23.75198 57.7477,-35.629469 19.2482,-11.87749 19.907,-16.248684 29.859,-24.3745265 9.9521,-8.125842 3.3449,0.014399 5.0158,0.020099 1.671,0.0057 3.6443,9.8029125 5.4649,14.7028685 1.8207,4.899956 12.5913,32.772332 18.8855,49.156997 6.2941,16.384666 12.4088,30.550711 18.6117,45.824564 6.2029,15.27386 14.5747,45.08638 21.8606,67.62807 7.2859,22.54168 14.0143,76.5881 21.0199,114.88065 7.0056,38.29255 8.4617,65.00149 12.6911,97.50074 4.2294,32.49925 1.8246,49.01685 2.7354,73.52377 0.9108,24.50692 -0.3336,31.666 -0.5019,47.49751 -0.1683,15.8315 -0.09,1.93537 -0.1357,2.90155 -0.046,0.96619 -9.0507,1.93499 -13.5776,2.90099 -4.5269,0.96599 -5.0036,4.51841 -7.5069,6.77611 -2.5033,2.2577 -0.031,3.48213 -0.048,5.2217 -0.017,1.73957 1.946,21.51289 2.9175,32.26784 0.9715,10.75494 -6.7011,60.38084 -10.0531,90.56975 -3.3521,30.18892 -18.2972,139.0847 -27.4473,208.62555" />
  </g>
</svg>
