<?xml version="1.0" encoding="UTF-8" standalone="no"?>
<!-- Created with Inkscape (http://www.inkscape.org/) -->

<svg
   version="1.1"
   id="svg2"
   width="1893"
   height="1024"
   viewBox="0 0 1893 1024"
   sodipodi:docname="frame_0027.svg"
   inkscape:version="1.1.2 (0a00cf5339, 2022-02-04)"
   xmlns:inkscape="http://www.inkscape.org/namespaces/inkscape"
   xmlns:sodipodi="http://sodipodi.sourceforge.net/DTD/sodipodi-0.dtd"
   xmlns:xlink="http://www.w3.org/1999/xlink"
   xmlns="http://www.w3.org/2000/svg"
   xmlns:svg="http://www.w3.org/2000/svg">
  <defs
     id="defs6">
    <inkscape:path-effect
       effect="spiro"
       id="path-effect899"
       is_visible="true"
       lpeversion="1" />
    <inkscape:path-effect
       effect="spiro"
       id="path-effect862"
       is_visible="true"
       lpeversion="1" />
  </defs>
  <sodipodi:namedview
     id="namedview4"
     pagecolor="#ffffff"
     bordercolor="#666666"
     borderopacity="1.0"
     inkscape:pageshadow="2"
     inkscape:pageopacity="0.0"
     inkscape:pagecheckerboard="0"
     showgrid="false"
     inkscape:zoom="0.47401928"
     inkscape:cx="1101.221"
     inkscape:cy="600.18655"
     inkscape:window-width="1850"
     inkscape:window-height="1016"
     inkscape:window-x="70"
     inkscape:window-y="27"
     inkscape:window-maximized="1"
     inkscape:current-layer="g8" />
  <g
     inkscape:groupmode="layer"
     inkscape:label="Image"
     id="g8">
    
    <path
       style="font-variation-settings:normal;opacity:1;vector-effect:none;fill:none;fill-opacity:1;stroke:#c86487;stroke-width:1px;stroke-linecap:butt;stroke-linejoin:miter;stroke-miterlimit:4;stroke-dasharray:none;stroke-dashoffset:0;stroke-opacity:1;-inkscape-stroke:none;stop-color:#000000;stop-opacity:1"
       d="m 1160.4542,863.09255 -524.84807,-0.3211"
       id="path860"
       inkscape:path-effect="#path-effect862"
       inkscape:original-d="m 1160.4542,863.09255 -524.84807,-0.3211" />
    <path
       style="font-variation-settings:normal;opacity:1;vector-effect:none;fill:none;fill-opacity:1;stroke:#c86487;stroke-width:1px;stroke-linecap:butt;stroke-linejoin:miter;stroke-miterlimit:4;stroke-dasharray:none;stroke-dashoffset:0;stroke-opacity:1;-inkscape-stroke:none;stop-color:#000000;stop-opacity:1"
       d="m 635.60613,862.77145 c -40.09897,-41.61176 -63.28463,-99.07249 -63.29393,-156.8606 -0.009,-56.20599 20.75032,-110.05502 31.94751,-165.13439 5.13789,-25.27346 8.28365,-50.97 14.81819,-75.91885 10.20402,-38.95894 28.45083,-75.29623 41.48707,-113.40106 10.10975,-29.55072 17.08493,-60.16532 28.60252,-89.19629 1.88082,-4.74076 3.88572,-9.44803 5.25934,-14.3598 1.37361,-4.91177 2.10444,-10.07894 1.3779,-15.12715 -0.77322,-5.37256 -3.14883,-10.36502 -5.5486,-15.23364 -2.39977,-4.86861 -4.88149,-9.78964 -5.89456,-15.12218 -1.70821,-8.99155 1.12899,-18.6763 7.2282,-25.50021 4.2545,-4.76001 9.84311,-8.07473 15.17222,-11.59029 11.7437,-7.7472 22.64626,-16.81298 34.99518,-23.55372 6.40993,-3.4989 13.26456,-6.37289 20.49496,-7.398 7.2304,-1.02511 14.89457,-0.086 21.19072,3.6137 4.92871,2.89621 8.77099,7.29178 12.45669,11.66166 10.06804,11.937 19.68348,24.29422 30.66534,35.3963 10.60108,10.71713 22.53152,20.33483 31.02411,32.78937 1.13695,1.66736 2.21603,3.39033 3.60261,4.85667 1.38657,1.46634 3.13233,2.68051 5.11862,3.03743 0.91725,0.16482 1.87236,0.14128 2.77027,-0.10823 0.89792,-0.24951 1.73641,-0.72855 2.37866,-1.40384 0.85808,-0.90222 1.33805,-2.12883 1.43652,-3.37004 0.0985,-1.24121 -0.16834,-2.4949 -0.65535,-3.64081 -0.97403,-2.29183 -2.77005,-4.11532 -4.49206,-5.91418 -28.26862,-29.53029 -46.85275,-67.60943 -77.03244,-95.18368 -5.53023,-5.0528 -11.52728,-9.84877 -15.32711,-16.304428 -2.32669,-3.952898 -3.75771,-8.593078 -3.124,-13.135908 0.31685,-2.271415 1.15439,-4.483062 2.52067,-6.325071 1.36628,-1.842008 3.27036,-3.301501 5.44481,-4.030524 2.37659,-0.796793 4.98735,-0.703641 7.41647,-0.0852 2.42911,0.61844 4.7008,1.739452 6.88045,2.97726 11.15284,6.333609 20.16848,15.743628 29.38782,24.660143 4.78806,4.63079 9.71547,9.19365 15.39008,12.68197 5.67462,3.48832 12.19449,5.87175 18.85453,5.75511 6.39863,-0.11206 12.56618,-2.5111 18.13367,-5.66673 5.56749,-3.15564 10.6593,-7.07475 16.01252,-10.58161 16.31675,-10.688993 34.83488,-17.417185 52.73965,-25.157351 37.72982,-16.31046 73.44992,-37.535215 104.84792,-64.06319 1.9074,-1.611519 3.8133,-3.252736 5.9829,-4.488923 2.1695,-1.236186 4.6497,-2.055429 7.14,-1.872912 1.5728,0.115273 3.1045,0.628404 4.4789,1.401757 1.3744,0.773353 2.5953,1.802641 3.6635,2.962839 2.1364,2.320394 3.651,5.132158 5.1397,7.912838 5.0646,9.460098 10.0975,18.943484 15.6142,28.147296 12.4328,20.742477 27.3832,40.187573 36.4608,62.602346 10.6627,26.3286 12.6201,55.2165 17.9254,83.12245 7.3527,38.67559 21.2706,75.91947 27.7558,114.74995 6.0738,36.36727 5.526,73.50072 9.3872,110.16897 3.0711,29.1647 8.9416,58.36185 6.3663,87.57451 -0.1621,1.83848 -0.3774,3.7374 -1.3063,5.33222 -0.6256,1.0742 -1.5507,1.95555 -2.5929,2.63309 -1.0422,0.67755 -2.2012,1.15908 -3.3848,1.53907 -2.3672,0.75998 -4.8578,1.12851 -7.1643,2.05669 -3.0038,1.2088 -5.5805,3.33204 -7.6565,5.81676 -2.0761,2.48473 -3.6794,5.32909 -5.1021,8.23767 -8.1889,16.74177 -10.5934,35.80921 -10.0919,54.43966 0.5014,18.63045 3.7738,37.05686 6.4058,55.50727 10.3132,72.29535 10.8325,145.98139 1.5392,218.41491"
       id="path897"
       inkscape:path-effect="#path-effect899"
       inkscape:original-d="m 635.60613,862.77145 c -21.09698,-52.28587 -42.19496,-104.57273 -63.29393,-156.8606 -21.09898,-52.28787 21.29934,-110.08859 31.94751,-165.13439 10.64817,-55.0458 9.8798,-50.61157 14.81819,-75.91885 4.9384,-25.30729 27.65905,-75.59971 41.48707,-113.40106 13.82802,-37.80135 19.06935,-59.46319 28.60252,-89.19629 9.53318,-29.73309 4.42583,-19.65696 6.63724,-29.48695 2.21141,-9.82998 -7.62777,-20.23621 -11.44316,-30.35582 -3.81539,-10.1196 4.8198,-16.99914 7.2282,-25.50021 2.40839,-8.50107 10.11581,-7.72586 15.17222,-11.59029 5.05641,-3.86443 23.33112,-15.70148 34.99518,-23.55372 11.66406,-7.85224 27.79146,-2.52187 41.68568,-3.7843 13.89423,-1.26244 8.30546,7.77544 12.45669,11.66166 4.15123,3.88623 20.44456,23.59853 30.66534,35.3963 10.22078,11.79776 20.68374,21.86058 31.02411,32.78937 10.34037,10.92879 5.81515,5.26374 8.72123,7.8941 2.90608,2.63037 3.43362,-1.00704 5.14893,-1.51207 1.7153,-0.50502 -2.47293,-8.61569 -3.71089,-12.92503 -1.23797,-4.30935 -51.35396,-63.45479 -77.03244,-95.18368 -25.67848,-31.728899 -10.21707,-10.86862 -15.32711,-16.304428 -5.11003,-5.435808 3.22866,-15.660002 4.84148,-23.491503 1.61283,-7.831502 9.53228,1.929039 14.29692,2.892058 4.76463,0.96302 19.59288,16.441097 29.38782,24.660143 9.79495,8.21905 22.83074,12.29239 34.24461,18.43708 11.41387,6.1447 22.76513,-10.83123 34.14619,-16.24834 11.38106,-5.41712 35.16077,-16.770568 52.73965,-25.157351 17.57888,-8.386782 69.89962,-42.707793 104.84792,-64.06319 34.9483,-21.3553965 8.7496,-4.240223 13.1229,-6.361835 4.3733,-2.1216119 8.8558,8.185956 13.2821,12.277434 4.4264,4.091477 10.4105,18.765864 15.6142,28.147296 5.2038,9.381433 24.3082,41.7359 36.4608,62.602346 12.1526,20.86645 11.9513,55.41597 17.9254,83.12245 5.9741,27.70648 18.5049,76.50097 27.7558,114.74995 9.251,38.24899 6.2592,73.44698 9.3872,110.16897 3.1281,36.72199 4.2452,58.38401 6.3663,87.57451 2.1211,29.19051 -0.8699,3.55581 -1.3063,5.33222 -0.4365,1.7764 -8.7603,4.15356 -13.142,6.22885 -4.3816,2.07528 -8.5047,9.37062 -12.7586,14.05443 -4.2538,4.68381 -2.4564,73.29896 -3.6861,109.94693 -1.2297,36.64798 1.0271,145.61094 1.5392,218.41491" />
  </g>
</svg>
