<?xml version="1.0" encoding="UTF-8" standalone="no"?>
<!-- Created with Inkscape (http://www.inkscape.org/) -->

<svg
   version="1.1"
   id="svg2"
   width="1893"
   height="1024"
   viewBox="0 0 1893 1024"
   sodipodi:docname="frame_0095.svg"
   inkscape:version="1.1.2 (0a00cf5339, 2022-02-04)"
   xmlns:inkscape="http://www.inkscape.org/namespaces/inkscape"
   xmlns:sodipodi="http://sodipodi.sourceforge.net/DTD/sodipodi-0.dtd"
   xmlns:xlink="http://www.w3.org/1999/xlink"
   xmlns="http://www.w3.org/2000/svg"
   xmlns:svg="http://www.w3.org/2000/svg">
  <defs
     id="defs6">
    <inkscape:path-effect
       effect="spiro"
       id="path-effect899"
       is_visible="true"
       lpeversion="1" />
    <inkscape:path-effect
       effect="spiro"
       id="path-effect862"
       is_visible="true"
       lpeversion="1" />
  </defs>
  <sodipodi:namedview
     id="namedview4"
     pagecolor="#ffffff"
     bordercolor="#666666"
     borderopacity="1.0"
     inkscape:pageshadow="2"
     inkscape:pageopacity="0.0"
     inkscape:pagecheckerboard="0"
     showgrid="false"
     inkscape:zoom="2.681458"
     inkscape:cx="1169.513"
     inkscape:cy="819.51684"
     inkscape:window-width="1850"
     inkscape:window-height="1016"
     inkscape:window-x="70"
     inkscape:window-y="27"
     inkscape:window-maximized="1"
     inkscape:current-layer="g8" />
  <g
     inkscape:groupmode="layer"
     inkscape:label="Image"
     id="g8">
    
    <path
       style="font-variation-settings:normal;opacity:1;vector-effect:none;fill:none;fill-opacity:1;stroke:#c86487;stroke-width:1px;stroke-linecap:butt;stroke-linejoin:miter;stroke-miterlimit:4;stroke-dasharray:none;stroke-dashoffset:0;stroke-opacity:1;-inkscape-stroke:none;stop-color:#000000;stop-opacity:1"
       d="M 1160.6794,862.85749 H 635.45353"
       id="path860"
       inkscape:path-effect="#path-effect862"
       inkscape:original-d="M 1160.6794,862.85749 H 635.45353" />
    <path
       style="font-variation-settings:normal;opacity:1;vector-effect:none;fill:none;fill-opacity:1;stroke:#c86487;stroke-width:1px;stroke-linecap:butt;stroke-linejoin:miter;stroke-miterlimit:4;stroke-dasharray:none;stroke-dashoffset:0;stroke-opacity:1;-inkscape-stroke:none;stop-color:#000000;stop-opacity:1"
       d="m 635.45353,862.85749 c 6.1246,-52.36275 4.66735,-105.60628 -4.31222,-157.55563 -5.15496,-29.82289 -12.76661,-59.19214 -17.47148,-89.08934 -4.70487,-29.8972 -6.44761,-60.71487 0.13754,-90.25491 6.48453,-29.08867 20.73554,-55.74062 32.11073,-83.28703 9.39043,-22.74008 16.86967,-46.2401 26.50791,-68.87626 9.06791,-21.29671 20.014,-41.7512 29.17075,-63.00986 7.44974,-17.29561 13.70589,-35.10893 18.61357,-53.29 4.21181,-15.60316 7.44294,-31.59377 7.56288,-47.75494 0.057,-7.68178 -0.58927,-15.36018 -0.39421,-23.03969 0.19507,-7.67952 1.2755,-15.47781 4.58616,-22.4098 4.36834,-9.14661 12.36036,-16.17019 21.20905,-21.11421 8.84869,-4.94403 18.60045,-8.00873 28.27838,-11.02212 6.65737,-2.07289 13.34447,-4.14389 20.22864,-5.25102 6.88416,-1.10714 14.02008,-1.22451 20.75347,0.58628 4.68341,1.2595 9.1782,3.49054 12.6168,6.91058 2.78499,2.76996 4.78837,6.21294 6.7073,9.64027 1.91893,3.42733 3.81037,6.91681 6.42578,9.84743 3.88755,4.35608 9.16108,7.24212 13.32067,11.33923 5.12904,5.05201 8.32338,11.684 12.16382,17.77341 8.57156,13.59109 20.50873,24.65241 31.43188,36.4369 0.7847,0.84657 1.56837,1.70101 2.46664,2.42595 0.89828,0.72493 1.92353,1.32115 3.04905,1.57735 1.17367,0.26716 2.43328,0.14742 3.53239,-0.34331 1.09911,-0.49074 2.03074,-1.35084 2.60061,-2.41108 0.70126,-1.3047 0.83976,-2.87198 0.52683,-4.31976 -0.31293,-1.44779 -1.05496,-2.78043 -2.00376,-3.91788 -1.89759,-2.27489 -4.54897,-3.75666 -7.0237,-5.38506 -13.73182,-9.03569 -22.94992,-23.44216 -30.52124,-38.03263 -3.28168,-6.32402 -6.34396,-12.78283 -10.2153,-18.76409 -3.87134,-5.98126 -8.62546,-11.52666 -14.64498,-15.33823 -1.29151,-0.81779 -2.6476,-1.56136 -3.76475,-2.60479 -0.55858,-0.52171 -1.05388,-1.11784 -1.41322,-1.79242 -0.35935,-0.67459 -0.57964,-1.43038 -0.58089,-2.1947 -0.001,-0.78548 0.22825,-1.56079 0.59023,-2.25788 0.36198,-0.6971 0.85338,-1.32025 1.39218,-1.8918 1.07759,-1.14311 2.35258,-2.09474 3.36339,-3.29731 1.76579,-2.10077 2.61849,-4.88084 2.64383,-7.62503 0.0253,-2.7442 -0.73455,-5.45518 -1.89925,-7.94008 -0.78209,-1.66861 -1.75383,-3.25918 -2.99024,-4.62564 -1.23642,-1.366466 -2.74541,-2.505478 -4.45525,-3.192785 -2.19479,-0.882245 -4.6335,-0.991638 -6.98628,-0.74687 -2.35277,0.244768 -4.65476,0.82861 -6.9741,1.293512 -2.31934,0.464902 -4.6922,0.812737 -7.04592,0.577254 -2.35373,-0.235483 -4.70889,-1.103301 -6.37557,-2.781887 -1.74033,-1.752759 -2.5927,-4.283051 -2.5272,-6.752182 0.0655,-2.469132 0.99627,-4.868893 2.39743,-6.903015 2.80232,-4.068244 7.27695,-6.604221 11.5899,-9.012975 4.36185,-2.436069 8.78892,-4.911884 13.64941,-6.067646 2.43025,-0.577881 4.9559,-0.814918 7.43732,-0.527562 2.48143,0.287356 4.919,1.111447 6.97424,2.531316 2.46338,1.70183 4.28879,4.182686 5.76298,6.788684 1.47418,2.605997 2.64136,5.374954 4.0816,7.999866 1.60649,2.927918 3.59117,5.783351 4.05809,9.090238 0.30791,2.180763 -0.0757,4.40094 -0.62018,6.534979 -0.54444,2.134043 -1.25166,4.231863 -1.60867,6.405133 -0.80768,4.91674 0.27385,10.11476 2.95047,14.31742 0.85134,1.33672 1.87904,2.59504 3.20574,3.46192 1.422,0.92915 3.14032,1.36508 4.83883,1.34381 1.69852,-0.0213 3.37631,-0.4867 4.90003,-1.2375 3.34585,-1.64865 5.85234,-4.56329 8.51708,-7.17326 11.50386,-11.26742 26.89227,-17.508674 41.93776,-23.246861 29.23827,-11.151158 58.90532,-21.477756 86.69052,-35.872459 30.4855,-15.79366 58.3721,-36.317336 89.1896,-51.4530554 1.1923,-0.5856069 2.433,-1.1744446 3.7606,-1.2212799 1.0156,-0.03583 2.0299,0.2558017 2.9122,0.7600704 0.8823,0.5042688 1.6366,1.2151657 2.2565,2.0204323 1.2399,1.610533 1.9369,3.5622226 2.6186,5.4769676 6.0347,16.948958 12.367,33.792263 19.0219,50.507434 12.7565,32.040616 26.7464,63.752541 35.331,97.153651 4.9672,19.32642 8.0843,39.07067 11.8755,58.66174 6.8881,35.59403 16.0264,70.80971 20.3791,106.80187 4.6757,38.66322 3.7843,77.88541 9.4346,116.41826 1.7305,11.80123 4.0755,23.54909 4.612,35.46445 0.5365,11.91536 -0.8348,24.18404 -6.1703,34.85155 -1.4664,2.93178 -3.218,5.71537 -5.1331,8.37585 -7.1016,9.86575 -16.3518,17.93798 -25.2209,26.25083 -6.7949,6.36872 -13.6528,13.31433 -16.3991,22.21316 -2.4863,8.05649 -1.294,16.72426 -0.2143,25.08626 2.4757,19.17389 4.2399,38.43909 5.3184,57.74205 3.9304,70.35025 -1.2939,141.20671 -15.4999,210.21973"
       id="path897"
       inkscape:path-effect="#path-effect899"
       inkscape:original-d="m 635.45353,862.85749 c -1.43641,-52.51754 -2.87382,-105.03609 -4.31222,-157.55563 -1.43841,-52.51955 -11.55496,-119.56183 -17.33394,-179.34425 -5.77898,-59.78241 21.40815,-55.52369 32.11073,-83.28703 10.70258,-27.76335 17.67294,-45.9165 26.50791,-68.87626 8.83496,-22.95975 19.44817,-42.00557 29.17075,-63.00986 9.72258,-21.00429 12.41004,-35.52567 18.61357,-53.29 6.20352,-17.76434 5.04292,-31.83563 7.56288,-47.75494 2.51996,-15.91931 2.79563,-30.29866 4.19195,-45.44949 1.39631,-15.15084 32.99262,-21.42322 49.48743,-32.13633 16.49482,-10.71311 27.32241,-3.10883 40.98211,-4.66474 13.6597,-1.55591 8.4122,4.60805 12.6168,6.91058 4.2046,2.30253 8.75639,12.9928 13.13308,19.4877 4.3767,6.49491 8.88145,7.56049 13.32067,11.33923 4.43922,3.77875 8.11021,11.84994 12.16382,17.77341 4.0536,5.92346 20.95558,24.29227 31.43188,36.4369 10.47629,12.14464 3.67813,2.66987 5.51569,4.0033 1.83756,1.33344 4.08966,-1.83526 6.133,-2.75439 2.04333,-0.91914 -5.66609,-9.0808 -8.50063,-13.6227 -2.83454,-4.5419 -20.34649,-25.35409 -30.52124,-38.03263 -10.17475,-12.67855 -16.57252,-22.73388 -24.86028,-34.10232 -8.28776,-11.36844 -3.83824,-4.39361 -5.75886,-6.59191 -1.92062,-2.19831 3.56486,-4.96366 5.3458,-7.44699 1.78093,-2.48333 0.49739,-10.37574 0.74458,-15.56511 0.2472,-5.18937 -4.96266,-5.21128 -7.44549,-7.818425 -2.48283,-2.607143 -18.25358,-1.104327 -27.38187,-1.657991 -9.12829,-0.553663 7.64108,-15.111115 11.46013,-22.668172 3.81904,-7.557058 18.70831,-2.708261 28.06097,-4.063892 9.35266,-1.355631 6.56405,9.860034 9.84458,14.78855 3.28053,4.928517 2.70639,6.061159 4.05809,9.090238 1.35169,3.02908 -1.4849,8.627742 -2.22885,12.940112 -0.74395,4.31237 1.96798,9.54595 2.95047,14.31742 0.98249,4.77148 2.13816,2.30895 3.20574,3.46192 1.06759,1.15297 6.49357,0.0719 9.73886,0.10631 3.24528,0.0344 5.67905,-4.78117 8.51708,-7.17326 2.83802,-2.39209 27.9595,-15.49691 41.93776,-23.246861 13.97825,-7.749954 57.79469,-23.913973 86.69052,-35.872459 28.8959,-11.958486 59.4607,-34.301037 89.1896,-51.4530554 29.7288,-17.1520186 2.5081,-0.8131866 3.7606,-1.2212799 1.2526,-0.4080933 5.1925,5.5059803 7.7873,8.2574703 2.5948,2.75149 12.6822,33.672623 19.0219,50.507434 6.3396,16.834811 23.555,64.770101 35.331,97.153651 11.776,32.38355 7.918,39.10883 11.8755,58.66174 3.9575,19.55292 13.5871,71.20225 20.3791,106.80187 6.792,35.59962 6.2907,77.61317 9.4346,116.41826 3.1438,38.80509 -1.0379,46.87833 -1.5583,70.316 -0.5204,23.43767 -3.4211,5.5849 -5.1331,8.37585 -1.7121,2.79094 -16.8129,17.50155 -25.2209,26.25083 -8.4079,8.74927 -10.9317,14.80977 -16.3991,22.21316 -5.4673,7.40339 -0.1418,16.72517 -0.2143,25.08626 -0.072,8.36109 3.5466,38.4957 5.3184,57.74205 1.7718,19.24635 -10.3323,140.14749 -15.4999,210.21973" />
  </g>
</svg>
