<?xml version="1.0" encoding="UTF-8" standalone="no"?>
<!-- Created with Inkscape (http://www.inkscape.org/) -->

<svg
   version="1.1"
   id="svg2"
   width="1893"
   height="1024"
   viewBox="0 0 1893 1024"
   sodipodi:docname="frame_0066.svg"
   inkscape:version="1.1.2 (0a00cf5339, 2022-02-04)"
   xmlns:inkscape="http://www.inkscape.org/namespaces/inkscape"
   xmlns:sodipodi="http://sodipodi.sourceforge.net/DTD/sodipodi-0.dtd"
   xmlns:xlink="http://www.w3.org/1999/xlink"
   xmlns="http://www.w3.org/2000/svg"
   xmlns:svg="http://www.w3.org/2000/svg">
  <defs
     id="defs6">
    <inkscape:path-effect
       effect="spiro"
       id="path-effect899"
       is_visible="true"
       lpeversion="1" />
    <inkscape:path-effect
       effect="spiro"
       id="path-effect862"
       is_visible="true"
       lpeversion="1" />
  </defs>
  <sodipodi:namedview
     id="namedview4"
     pagecolor="#ffffff"
     bordercolor="#666666"
     borderopacity="1.0"
     inkscape:pageshadow="2"
     inkscape:pageopacity="0.0"
     inkscape:pagecheckerboard="0"
     showgrid="false"
     inkscape:zoom="2.681458"
     inkscape:cx="1112.0816"
     inkscape:cy="881.42346"
     inkscape:window-width="1850"
     inkscape:window-height="1016"
     inkscape:window-x="70"
     inkscape:window-y="27"
     inkscape:window-maximized="1"
     inkscape:current-layer="g8" />
  <g
     inkscape:groupmode="layer"
     inkscape:label="Image"
     id="g8">
    
    <path
       style="font-variation-settings:normal;opacity:1;vector-effect:none;fill:none;fill-opacity:1;stroke:#c86487;stroke-width:1px;stroke-linecap:butt;stroke-linejoin:miter;stroke-miterlimit:4;stroke-dasharray:none;stroke-dashoffset:0;stroke-opacity:1;-inkscape-stroke:none;stop-color:#000000;stop-opacity:1"
       d="M 1160.121,863.1719 635.29275,862.57728"
       id="path860"
       inkscape:path-effect="#path-effect862"
       inkscape:original-d="M 1160.121,863.1719 635.29275,862.57728" />
    <path
       style="font-variation-settings:normal;opacity:1;vector-effect:none;fill:none;fill-opacity:1;stroke:#c86487;stroke-width:1px;stroke-linecap:butt;stroke-linejoin:miter;stroke-miterlimit:4;stroke-dasharray:none;stroke-dashoffset:0;stroke-opacity:1;-inkscape-stroke:none;stop-color:#000000;stop-opacity:1"
       d="m 635.29275,862.57728 c 8.13882,-52.41275 7.96316,-106.10787 -0.51841,-158.46624 -8.6463,-53.37532 -25.91224,-106.23931 -22.2608,-160.18698 1.79814,-26.56628 8.67971,-52.60714 18.18245,-77.48079 15.051,-39.39635 36.6158,-76.02106 52.19091,-115.21316 12.44266,-31.30983 20.97993,-64.06695 27.29176,-97.16205 3.85125,-20.19342 6.8834,-40.53341 9.79621,-60.8834 0.70211,-4.90517 1.40038,-9.82629 2.69951,-14.60812 1.29913,-4.78183 3.22336,-9.44819 6.18334,-13.42213 5.74356,-7.71107 14.75965,-12.11977 22.49022,-17.83706 9.88885,-7.3135 17.92024,-17.00767 28.27038,-23.6523 5.17506,-3.32232 10.95868,-5.85472 17.06452,-6.58815 6.10583,-0.73343 12.55944,0.4471 17.59869,3.97202 4.19108,2.93163 7.16215,7.24528 10.36296,11.23457 4.55832,5.68121 9.72628,10.84242 14.47307,16.36713 4.74679,5.52472 9.12058,11.50199 11.75864,18.29133 1.84981,4.76071 2.80486,9.81113 3.93111,14.79286 1.12626,4.98174 2.45771,9.9877 4.97186,14.43351 2.51415,4.4458 6.35232,8.33061 11.19536,9.95268 2.42152,0.81104 5.05602,1.03221 7.55444,0.50359 2.49842,-0.52862 4.84949,-1.82371 6.53424,-3.74287 1.23557,-1.40748 2.1002,-3.12916 2.54597,-4.9482 0.71974,-2.93703 0.34306,-6.08113 -0.75518,-8.89858 -1.09824,-2.81745 -2.88896,-5.32668 -4.96634,-7.5241 -4.15476,-4.39484 -9.41654,-7.57134 -13.95831,-11.56495 -8.09233,-7.11564 -13.65652,-16.58295 -19.7322,-25.48262 -2.75076,-4.02932 -5.6399,-7.98615 -7.89605,-12.31187 -2.25614,-4.32573 -3.87372,-9.08986 -3.86408,-13.96859 0.006,-3.14653 0.68625,-6.26366 0.67935,-9.41019 -0.003,-1.57326 -0.18237,-3.15875 -0.69077,-4.64761 -0.5084,-1.48886 -1.36,-2.88118 -2.56496,-3.89273 -1.45479,-1.221284 -3.34746,-1.827429 -5.23676,-2.023672 -1.8893,-0.196242 -3.79545,-0.01035 -5.68393,0.193616 -1.88848,0.20397 -3.78723,0.42642 -5.68266,0.30287 -1.89544,-0.123551 -3.81024,-0.616053 -5.35447,-1.722092 -1.37472,-0.984635 -2.39812,-2.42463 -2.9778,-4.013134 -0.57967,-1.588503 -0.72664,-3.319317 -0.53135,-4.998969 0.39057,-3.359304 2.10363,-6.430365 4.13945,-9.130907 2.18502,-2.898468 4.80596,-5.505637 7.90682,-7.392468 3.10086,-1.886831 6.70227,-3.029481 10.33104,-2.943166 2.88537,0.06863 5.73125,0.911326 8.26422,2.294836 2.53298,1.383509 4.75819,3.298192 6.62286,5.501159 4.7526,5.614837 7.16058,13.009551 12.34529,18.228014 2.13128,2.145151 4.66555,3.84949 6.86389,5.925863 1.09917,1.03819 2.11697,2.17424 2.91657,3.45745 0.79961,1.28321 1.37731,2.72041 1.55662,4.22169 0.25449,2.13071 -0.29454,4.26412 -0.76556,6.35764 -0.47102,2.09353 -0.86597,4.2913 -0.31351,6.36482 0.31767,1.19231 0.94242,2.29329 1.75139,3.22501 0.80896,0.93171 1.79907,1.69749 2.87078,2.30902 2.23,1.27246 4.81867,1.87753 7.38588,1.83921 2.56721,-0.0383 5.11018,-0.70897 7.41552,-1.83921 4.39167,-2.15311 7.78948,-5.84601 11.36537,-9.18302 15.68607,-14.63822 36.02205,-23.242051 56.44519,-29.816648 23.76735,-7.65116 48.51901,-13.054184 70.51951,-24.861261 15.6903,-8.420568 29.6292,-19.962632 41.3388,-33.378161 4.4166,-5.060031 8.5894,-10.449507 14.0117,-14.413035 2.7111,-1.981765 5.7275,-3.586654 8.9707,-4.4582 3.2431,-0.8715465 6.7227,-0.9879097 9.952,-0.06648 2.5832,0.737073 4.9524,2.116548 7.0462,3.799558 6.7473,5.423654 10.4698,13.65571 14.1101,21.510022 9.6857,20.897799 20.4373,41.305281 29.4719,62.492717 13.4745,31.599673 23.0503,64.764583 30.1994,98.365063 6.724,31.60259 11.3213,63.62114 15.2104,95.69622 6.322,52.13984 10.784,104.48467 15.3665,156.80609 2.1185,24.18842 4.2642,48.5082 2.3775,72.7158 -0.1301,1.66954 -0.2906,3.37996 -1.0175,4.88858 -0.5065,1.05126 -1.274,1.96491 -2.166,2.71728 -0.892,0.75237 -1.9074,1.34825 -2.9631,1.84543 -2.1115,0.99434 -4.3844,1.60029 -6.5334,2.51054 -3.9531,1.67439 -7.432,4.36646 -10.2911,7.56896 -2.8591,3.2025 -5.1161,6.90869 -6.9483,10.79117 -8.0969,17.15741 -7.7684,36.89139 -8.3386,55.8548 -0.4616,15.35097 -1.615,30.67162 -2.7313,45.9889 -5.0835,69.75253 -9.4038,139.56067 -12.9599,209.40772"
       id="path897"
       inkscape:path-effect="#path-effect899"
       inkscape:original-d="m 635.29275,862.57728 c -0.1718,-52.82108 -0.34461,-105.64316 -0.51841,-158.46624 -0.17381,-52.82308 -14.83954,-106.79032 -22.2608,-160.18698 -7.42127,-53.39666 12.12263,-51.65286 18.18245,-77.48079 6.05982,-25.82793 34.79494,-76.80778 52.19091,-115.21316 17.39597,-38.40539 18.1955,-64.7737 27.29176,-97.16205 9.09625,-32.38835 6.5318,-40.58794 9.79621,-60.8834 3.2644,-20.29547 5.9229,-18.68583 8.88285,-28.03025 2.95995,-9.34442 14.99448,-11.89037 22.49022,-17.83706 7.49574,-5.94668 41.95673,-17.51129 62.93359,-26.26843 20.97687,-8.75715 6.90964,7.49071 10.36296,11.23457 3.45332,3.74385 17.48881,23.10664 26.23171,34.65846 8.74291,11.55182 22.79234,23.96084 34.18701,35.93977 11.39467,11.97892 1.69831,-3.2978 2.54597,-4.9482 0.84765,-1.6504 -13.11889,-18.65742 -19.67983,-27.98763 -6.56094,-9.33021 -13.1538,-16.98741 -19.7322,-25.48262 -6.5784,-8.49521 -7.83909,-17.5193 -11.76013,-26.28046 -3.92105,-8.76115 -1.71659,-11.96602 -2.57638,-17.95053 -0.85979,-5.984513 -14.63755,-2.165186 -21.95782,-3.249278 -7.32027,-1.084092 0.4212,-12.09434 0.6303,-18.14301 0.2091,-6.04867 12.15957,-6.889423 18.23786,-10.335634 6.07829,-3.446211 9.92572,5.19833 14.88708,7.795995 4.96135,2.597665 8.23119,12.153009 12.34529,18.228014 4.1141,6.075003 7.55905,9.071003 11.33708,13.605003 3.77803,4.53399 -0.71838,8.48264 -1.07907,12.72246 -0.3607,4.23982 3.08245,3.69035 4.62217,5.53403 1.53972,1.84367 9.8686,0.001 14.8014,0 4.9328,-0.001 7.57791,-6.12102 11.36537,-9.18302 3.78746,-3.06201 37.63113,-19.876765 56.44519,-29.816648 18.81407,-9.939882 47.01401,-16.573174 70.51951,-24.861261 23.5056,-8.288088 27.5602,-22.251108 41.3388,-33.378161 13.7786,-11.127054 21.9573,-12.624147 32.9344,-18.93772 10.9772,-6.3135735 4.6985,2.534038 7.0462,3.799558 2.3477,1.265519 9.4077,14.341015 14.1101,21.510022 4.7024,7.169008 19.6489,41.662811 29.4719,62.492717 9.823,20.829903 20.1339,65.577703 30.1994,98.365063 10.0655,32.78735 10.1413,63.79848 15.2104,95.69622 5.0692,31.89774 10.2453,104.53839 15.3665,156.80609 5.1211,52.26769 1.586,48.4782 2.3775,72.7158 0.7916,24.2376 -0.6773,3.26006 -1.0175,4.88858 -0.3402,1.62853 -7.774,4.7165 -11.6625,7.07325 -3.8884,2.35675 -11.4919,12.24109 -17.2394,18.36013 -5.7475,6.11905 -5.5581,37.23753 -8.3386,55.8548 -2.7806,18.61726 -1.8199,30.66027 -2.7313,45.9889 -0.9114,15.32864 -8.6389,139.60615 -12.9599,209.40772" />
  </g>
</svg>
