<?xml version="1.0" encoding="UTF-8" standalone="no"?>
<!-- Created with Inkscape (http://www.inkscape.org/) -->

<svg
   version="1.1"
   id="svg2"
   width="1893"
   height="1024"
   viewBox="0 0 1893 1024"
   xmlns:xlink="http://www.w3.org/1999/xlink"
   xmlns="http://www.w3.org/2000/svg"
   xmlns:svg="http://www.w3.org/2000/svg">
  <defs
     id="defs6" />
  <g
     id="g8">
    
    <path
       style="font-variation-settings:normal;opacity:1;vector-effect:none;fill:none;fill-opacity:1;stroke:#c86487;stroke-width:1px;stroke-linecap:butt;stroke-linejoin:miter;stroke-miterlimit:4;stroke-dasharray:none;stroke-dashoffset:0;stroke-opacity:1;-inkscape-stroke:none;stop-color:#000000;stop-opacity:1"
       d="m 1160.3765,862.61965 -524.64688,0.24301"
       id="path860" />
    <path
       style="font-variation-settings:normal;opacity:1;vector-effect:none;fill:none;fill-opacity:1;stroke:#c86487;stroke-width:1px;stroke-linecap:butt;stroke-linejoin:miter;stroke-miterlimit:4;stroke-dasharray:none;stroke-dashoffset:0;stroke-opacity:1;-inkscape-stroke:none;stop-color:#000000;stop-opacity:1"
       d="m 635.72962,862.86266 c -12.51773,-70.64493 -20.29635,-142.1292 -23.26625,-213.81309 -1.5461,-37.31799 -1.78735,-74.76365 1.6923,-111.95122 2.75843,-29.47979 7.90713,-58.93401 18.38267,-86.62751 10.04388,-26.55234 24.81138,-51.05875 35.98249,-77.15688 6.72633,-15.71415 12.12745,-31.95511 17.83582,-48.06698 10.34118,-29.18796 21.7601,-58.17421 27.77324,-88.55051 2.8112,-14.20119 4.42372,-28.68964 3.90012,-43.15693 -0.24532,-6.77836 -0.95772,-13.57651 -0.29501,-20.32686 0.66272,-6.75035 2.85921,-13.60768 7.61001,-18.44879 4.65735,-4.74588 11.17987,-7.03831 17.28866,-9.66452 11.15551,-4.79583 21.63539,-11.15733 33.08898,-15.18978 4.89879,-1.72471 9.97888,-3.0169 15.15832,-3.39911 5.17944,-0.3822 10.47155,0.1673 15.32287,2.02132 7.65734,2.9264 13.7818,8.90683 18.68849,15.47365 5.87197,7.85869 10.29363,16.69918 15.81984,24.80474 11.40298,16.72529 27.20025,29.90871 40.35405,45.2951 2.86031,3.34579 5.63782,6.83671 9.18713,9.44019 0.77191,0.56621 1.59717,1.09651 2.52707,1.32391 0.46495,0.1137 0.95223,0.14864 1.42445,0.0704 0.47222,-0.0782 0.92888,-0.27247 1.29297,-0.58319 0.34161,-0.29153 0.59566,-0.68066 0.7435,-1.10473 0.14783,-0.42406 0.19101,-0.88195 0.14446,-1.32862 -0.0931,-0.89335 -0.53907,-1.72244 -1.12698,-2.40148 -1.17581,-1.35808 -2.87037,-2.14519 -4.22909,-3.32027 -1.24204,-1.07417 -2.18394,-2.45821 -2.93785,-3.91701 -0.75392,-1.4588 -1.33111,-3.00077 -1.943,-4.52461 -6.56192,-16.3418 -17.19097,-30.74774 -28.85027,-43.94524 -11.6593,-13.19751 -24.4399,-25.3671 -36.14904,-38.5204 -6.83813,-7.68151 -13.38397,-15.81944 -17.53384,-25.22923 -1.48211,-3.360681 -2.65481,-6.900155 -2.96303,-10.560187 -0.30822,-3.660032 0.29402,-7.463653 2.16091,-10.626808 1.59768,-2.70702 4.08282,-4.858247 6.93903,-6.170729 2.85621,-1.312482 6.06874,-1.797925 9.19967,-1.518994 4.13193,0.368109 8.08178,2.041626 11.48986,4.406648 3.40809,2.365022 6.30346,5.404279 8.86976,8.663494 6.61824,8.405218 11.10061,18.246236 16.20401,27.648576 2.06288,3.80058 4.28259,7.60262 7.44444,10.55262 1.58092,1.475 3.39098,2.72162 5.39043,3.54452 1.99945,0.82291 4.19308,1.21293 6.3439,0.99171 2.15529,-0.22168 4.22127,-1.04963 6.05119,-2.20972 1.82992,-1.16008 3.43521,-2.64597 4.89462,-4.24738 2.91883,-3.20283 5.29017,-6.89056 8.37709,-9.93171 4.20111,-4.13881 9.56878,-6.91532 15.10108,-8.95808 5.53229,-2.042748 11.28751,-3.406885 16.93301,-5.112008 12.61642,-3.810564 24.64492,-9.310632 36.68153,-14.678535 24.89627,-11.102853 50.12237,-21.767514 73.26387,-36.174751 20.8882,-13.004365 40.2288,-29.125528 63.3614,-37.5106131 1.8568,-0.673065 3.8122,-1.3026535 5.7716,-1.0540368 1.7134,0.217406 3.3059,1.1141882 4.4972,2.3646408 1.1914,1.2504521 1.9964,2.8378941 2.4576,4.5022921 0.9224,3.328796 0.5009,6.864688 0.04,10.288012 -1.3948,10.355051 -3.0946,20.759437 -2.5198,31.192173 0.5749,10.432736 3.6538,21.088054 10.683,28.818686 6.6586,7.323023 16.2188,11.403585 23.2615,18.35802 6.8573,6.77141 10.9411,15.91938 13.3176,25.25892 2.3765,9.33954 3.1844,18.99262 4.4081,28.55177 6.0366,47.15572 22.2846,92.48903 29.263,139.5146 7.6198,51.34751 4.0878,104.03518 14.0377,154.98247 3.4775,17.80632 8.6097,35.95422 5.3435,53.80052 -0.6553,3.58051 -1.6591,7.13211 -3.4037,10.32674 -2.2808,4.17646 -5.7359,7.58498 -9.34,10.69227 -3.6041,3.10729 -7.4202,5.99162 -10.6939,9.44531 -8.2267,8.67912 -12.4798,20.33931 -15.6595,31.86734 -7.5076,27.21855 -10.2017,55.51635 -12.0443,83.69112 -4.6125,70.52909 -4.0778,141.39427 1.5986,211.84572"
       id="path897" />
  </g>
</svg>
