<?xml version="1.0" encoding="UTF-8" standalone="no"?>
<!-- Created with Inkscape (http://www.inkscape.org/) -->

<svg
   version="1.1"
   id="svg2"
   width="1893"
   height="1024"
   viewBox="0 0 1893 1024"
   sodipodi:docname="frame_0135.svg"
   inkscape:version="1.1.2 (0a00cf5339, 2022-02-04)"
   xmlns:inkscape="http://www.inkscape.org/namespaces/inkscape"
   xmlns:sodipodi="http://sodipodi.sourceforge.net/DTD/sodipodi-0.dtd"
   xmlns:xlink="http://www.w3.org/1999/xlink"
   xmlns="http://www.w3.org/2000/svg"
   xmlns:svg="http://www.w3.org/2000/svg">
  <defs
     id="defs6">
    <inkscape:path-effect
       effect="spiro"
       id="path-effect899"
       is_visible="true"
       lpeversion="1" />
    <inkscape:path-effect
       effect="spiro"
       id="path-effect862"
       is_visible="true"
       lpeversion="1" />
  </defs>
  <sodipodi:namedview
     id="namedview4"
     pagecolor="#ffffff"
     bordercolor="#666666"
     borderopacity="1.0"
     inkscape:pageshadow="2"
     inkscape:pageopacity="0.0"
     inkscape:pagecheckerboard="0"
     showgrid="false"
     inkscape:zoom="0.47401928"
     inkscape:cx="1238.3462"
     inkscape:cy="403.992"
     inkscape:window-width="1850"
     inkscape:window-height="1016"
     inkscape:window-x="70"
     inkscape:window-y="27"
     inkscape:window-maximized="1"
     inkscape:current-layer="g8" />
  <g
     inkscape:groupmode="layer"
     inkscape:label="Image"
     id="g8">
    
    <path
       style="font-variation-settings:normal;opacity:1;vector-effect:none;fill:none;fill-opacity:1;stroke:#c86487;stroke-width:1px;stroke-linecap:butt;stroke-linejoin:miter;stroke-miterlimit:4;stroke-dasharray:none;stroke-dashoffset:0;stroke-opacity:1;-inkscape-stroke:none;stop-color:#000000;stop-opacity:1"
       d="M 1160.3028,862.65058 636.02555,862.35892"
       id="path860"
       inkscape:path-effect="#path-effect862"
       inkscape:original-d="M 1160.3028,862.65058 636.02555,862.35892" />
    <path
       style="font-variation-settings:normal;opacity:1;vector-effect:none;fill:none;fill-opacity:1;stroke:#c86487;stroke-width:1px;stroke-linecap:butt;stroke-linejoin:miter;stroke-miterlimit:4;stroke-dasharray:none;stroke-dashoffset:0;stroke-opacity:1;-inkscape-stroke:none;stop-color:#000000;stop-opacity:1"
       d="m 636.02555,862.35892 c -23.50294,-31.85346 -37.29726,-70.7726 -39.10034,-110.31726 -2.37689,-52.12931 15.44802,-102.89 21.63449,-154.70546 3.57876,-29.97433 3.26681,-60.42085 8.89772,-90.07824 5.24921,-27.64701 15.55689,-54.04535 26.08968,-80.14079 7.42586,-18.39788 15.00591,-36.77086 24.22518,-54.33874 5.10644,-9.73063 10.72782,-19.24118 14.65714,-29.5038 5.22533,-13.64754 7.32172,-28.25779 11.00047,-42.40085 4.36546,-16.78316 10.9566,-32.89246 17.63181,-48.89788 3.70127,-8.87468 7.44071,-17.75247 10.30168,-26.93256 3.95528,-12.69143 6.20926,-25.98682 5.75818,-39.27265 -0.17982,-5.29631 -0.78691,-10.57451 -0.85082,-15.87349 -0.0639,-5.29897 0.43683,-10.68741 2.38472,-15.61579 2.25287,-5.70001 6.35768,-10.53223 11.12885,-14.3795 4.77117,-3.84726 10.20981,-6.77653 15.71867,-9.46314 15.22893,-7.42698 31.2508,-13.16862 47.60027,-17.61556 3.00344,-0.81691 6.04442,-1.59461 9.15322,-1.74746 3.10879,-0.15285 6.32322,0.35826 8.98881,1.96532 2.14364,1.29238 3.83427,3.22923 5.20898,5.32102 1.37471,2.09179 2.46293,4.35529 3.65041,6.55877 4.95462,9.19378 11.64846,17.36076 16.6133,26.54902 4.60239,8.51748 7.77641,17.98998 14.21037,25.22417 3.99782,4.49505 9.05919,7.89001 13.55783,11.88379 3.31365,2.94178 6.32078,6.20801 9.453,9.34226 1.7751,1.77626 3.68441,3.56761 6.08276,4.31195 1.19917,0.37216 2.50351,0.46045 3.71356,0.12534 1.21005,-0.33511 2.31481,-1.11583 2.9282,-2.2114 0.48925,-0.87385 0.65046,-1.90789 0.56455,-2.90569 -0.0859,-0.99779 -0.40829,-1.96355 -0.83429,-2.86991 -0.96646,-2.05624 -2.45952,-3.82534 -4.10574,-5.39127 -1.64622,-1.56592 -3.45524,-2.94903 -5.19246,-4.41335 -9.87051,-8.31994 -17.27342,-19.11485 -24.84829,-29.56807 -6.40368,-8.837 -13.14934,-17.79088 -16.08828,-28.30099 -1.78762,-6.39281 -2.08806,-13.12375 -3.8068,-19.53542 -0.56789,-2.11849 -1.29447,-4.20715 -2.36022,-6.1241 -1.06575,-1.91695 -2.48359,-3.663122 -4.27316,-4.931176 -2.95021,-2.090457 -6.6501,-2.738228 -10.20424,-3.402872 -3.55415,-0.664643 -7.25499,-1.474151 -10.03042,-3.791634 -2.56409,-2.141019 -4.01396,-5.303031 -5.30009,-8.385955 -0.74833,-1.793794 -1.47279,-3.61025 -1.87533,-5.511737 -0.40255,-1.901488 -0.47154,-3.907262 0.0847,-5.76961 0.76999,-2.578209 2.7162,-4.717765 5.07064,-6.020327 2.35444,-1.302562 5.08806,-1.816848 7.77873,-1.798009 3.67181,0.02571 7.26028,1.00058 10.8353,1.838504 6.84551,1.604472 13.90746,2.764119 20.17401,5.952489 4.48822,2.283571 8.41269,5.536311 12.06294,9.005393 1.10018,1.045579 2.18325,2.117769 3.10598,3.322845 0.92273,1.205075 1.68516,2.552546 2.07823,4.018537 0.4448,1.658919 0.40346,3.41167 0.19924,5.117002 -0.20421,1.705332 -0.56735,3.389002 -0.75864,5.095832 -0.2574,2.296694 -0.20248,4.624798 -0.55939,6.908148 -0.31598,2.02148 -0.95063,3.98059 -1.31496,5.99392 -0.15776,0.8718 -0.27029,1.77087 -0.67201,2.56052 -0.25432,0.4999 -0.6152,0.93614 -0.9655,1.37418 -0.35029,0.43803 -0.69676,0.88875 -0.91529,1.4053 -0.25741,0.60846 -0.32518,1.29023 -0.22998,1.944 0.0952,0.65377 0.34971,1.27966 0.7059,1.83609 0.71237,1.11285 1.80719,1.9297 2.95917,2.57689 1.93809,1.08883 4.119,1.76641 6.33983,1.86465 2.13485,0.0944 4.26045,-0.34128 6.31269,-0.93695 6.68657,-1.94081 12.77467,-5.57371 18.32421,-9.77842 7.38239,-5.59341 13.97204,-12.267104 21.87995,-17.089017 9.19574,-5.607174 19.75401,-8.461741 30.07553,-11.538807 18.96681,-5.654414 37.8355,-12.371097 54.51544,-23.024362 7.6589,-4.891655 14.7811,-10.566143 22.0203,-16.059896 9.537,-7.23756 19.3792,-14.223712 30.281,-19.17219 8.5046,-3.860355 17.5275,-6.423145 26.4737,-9.10583 8.9521,-2.684454 17.9937,-5.525307 27.3335,-5.8642015 4.6063,-0.1671385 9.3053,0.3000384 13.5674,2.0550285 4.2621,1.75499 8.0655,4.898015 9.9961,9.083526 1.1552,2.50453 1.6089,5.27713 1.8057,8.028206 0.1969,2.751075 0.1489,5.515693 0.36,8.265715 0.5836,7.604501 3.1362,14.935195 6.3377,21.857582 3.2015,6.922387 7.0626,13.518396 10.4662,20.343679 10.9666,21.991377 17.0442,46.057727 22.3441,70.053507 4.2007,19.01905 7.9634,38.13202 12.0419,57.17766 4.8197,22.50679 10.0809,44.92222 14.4258,67.52545 5.014,26.08388 8.8044,52.40756 11.1709,78.86335 2.1859,24.43724 3.1561,48.96942 3.6328,73.4996 0.3036,15.6202 0.4254,31.39735 4.0273,46.59963 1.7937,7.57072 4.4501,15.00243 4.9983,22.76341 0.274,3.8805 0.01,7.83102 -1.1476,11.54631 -1.1533,3.71528 -3.2245,7.1915 -6.188,9.71163 -3.4352,2.92127 -7.8326,4.4093 -12.133,5.76623 -4.9373,1.5579 -10.0578,3.1114 -13.9957,6.47244 -3.3253,2.83818 -5.5403,6.7527 -7.359,10.7283 -7.4198,16.21912 -9.2211,34.35479 -10.97,52.10458 -2.0516,20.82198 -4.1678,41.63756 -6.2201,62.45948 -6.8297,69.29325 -12.9508,138.65634 -18.3621,208.07477"
       id="path897"
       inkscape:path-effect="#path-effect899"
       inkscape:original-d="M 636.02555,862.35892 C 622.9931,825.5875 609.95966,788.81508 596.92521,752.04166 583.89076,715.26823 611.3492,648.90568 618.5597,597.3362 c 7.21049,-51.56949 5.93281,-60.05116 8.89772,-90.07824 2.96491,-30.02708 17.39412,-53.42619 26.08968,-80.14079 8.69556,-26.71459 16.15112,-36.22483 24.22518,-54.33874 8.07406,-18.11392 9.77243,-19.6682 14.65714,-29.5038 4.88472,-9.83559 7.33465,-28.26623 11.00047,-42.40085 3.66582,-14.13462 11.75554,-32.59759 17.63181,-48.89788 5.87627,-16.30029 6.86878,-17.95404 10.30168,-26.93256 3.43289,-8.97853 3.83979,-26.18077 5.75818,-39.27265 1.9184,-13.09188 1.0236,-20.99185 1.5339,-31.48928 0.5103,-10.49743 17.89935,-15.8941 26.84752,-23.84264 8.94817,-7.94855 31.73451,-11.74271 47.60027,-17.61556 15.86576,-5.87285 12.09568,0.14624 18.14203,0.21786 6.04634,0.0716 5.90726,7.92086 8.85939,11.87979 2.95213,3.95893 11.07654,17.70035 16.6133,26.54902 5.53677,8.84868 9.47458,16.81712 14.21037,25.22417 4.73579,8.40706 8.85218,8.38407 13.55783,11.88379 4.70565,3.49972 6.49037,5.76864 9.453,9.34226 2.96263,3.57363 8.48401,1.48493 12.72452,2.22589 4.24051,0.74097 -0.17883,-3.8494 -0.26974,-5.7756 -0.0909,-1.9262 -6.1978,-6.53541 -9.2982,-9.80462 -3.1004,-3.26921 -16.56453,-19.71105 -24.84829,-29.56807 -8.28376,-9.85703 -10.72452,-18.86633 -16.08828,-28.30099 -5.36376,-9.43466 -2.53686,-13.02261 -3.8068,-19.53542 -1.26993,-6.5128 -4.42125,-7.369183 -6.63338,-11.055276 -2.21213,-3.686094 -13.48877,-4.795337 -20.23466,-7.194506 -6.74589,-2.399168 -3.53239,-5.589637 -5.30009,-8.385955 -1.7677,-2.796319 -1.19278,-7.519898 -1.79067,-11.281347 -0.59788,-3.761449 8.56725,-5.211224 12.84937,-7.818336 4.28212,-2.607111 7.22453,1.22667 10.8353,1.838504 3.61077,0.611835 13.45034,3.969326 20.17401,5.952489 6.72367,1.983163 7.6117,6.313829 12.06294,9.005393 4.45124,2.691564 3.8884,4.586021 5.18421,7.341382 1.29581,2.755362 -0.37193,6.809556 -0.5594,10.212834 -0.18746,3.403278 -0.37193,4.606428 -0.55939,6.908148 -0.18747,2.30171 -0.87564,3.99694 -1.31496,5.99392 -0.43932,1.99697 -0.44701,1.70801 -0.67201,2.56052 -0.22501,0.85251 -1.25286,1.85399 -1.88079,2.77948 -0.62792,0.9255 2.29106,4.23898 3.43509,6.35698 1.14402,2.11799 4.22755,1.2441 6.33983,1.86465 2.11228,0.62056 4.20946,-0.62363 6.31269,-0.93695 2.10323,-0.31331 12.21714,-6.51794 18.32421,-9.77842 6.10707,-3.26047 14.58763,-11.39168 21.87995,-17.089017 7.29232,-5.69734 20.05135,-7.691538 30.07553,-11.538807 10.02417,-3.847269 36.34464,-15.348575 54.51544,-23.024362 18.1708,-7.675788 14.6812,-10.705597 22.0203,-16.059896 7.3392,-5.354298 20.1883,-12.78046 30.281,-19.17219 10.0926,-6.39173 17.6501,-6.069554 26.4737,-9.10583 8.8235,-3.036277 18.2233,-3.908468 27.3335,-5.8642015 9.1101,-1.9557337 15.71,7.4267035 23.5635,11.1385545 7.8535,3.711852 1.4448,10.863614 2.1657,16.293921 0.7209,5.430307 11.2036,28.135174 16.8039,42.201261 5.6003,14.066087 14.8971,46.703337 22.3441,70.053507 7.447,23.35016 8.029,38.11944 12.0419,57.17766 4.013,19.05823 9.6182,45.01796 14.4258,67.52545 4.8076,22.50748 7.4482,52.57657 11.1709,78.86335 3.7226,26.28679 2.4229,49.00073 3.6328,73.4996 1.21,24.49886 2.6859,31.06742 4.0273,46.59963 1.3414,15.53222 -1.5572,29.34857 -2.3373,44.02135 -0.7801,14.67278 -8.0877,3.84515 -12.133,5.76623 -4.0453,1.92108 -9.3294,4.31596 -13.9957,6.47244 -4.6662,2.15648 -4.905,7.1532 -7.359,10.7283 -2.454,3.5751 -7.3123,34.73739 -10.97,52.10458 -3.6577,17.3672 -4.1457,41.64065 -6.2201,62.45948 -2.0743,20.81882 -12.2404,138.71751 -18.3621,208.07477"
       sodipodi:nodetypes="csssssssssssssssssssssssssssssssssssssssssssssssssssssssssssssssssc" />
  </g>
</svg>
