<?xml version="1.0" encoding="UTF-8" standalone="no"?>
<!-- Created with Inkscape (http://www.inkscape.org/) -->

<svg
   version="1.1"
   id="svg2"
   width="1893"
   height="1024"
   viewBox="0 0 1893 1024"
   sodipodi:docname="frame_0148.svg"
   inkscape:version="1.1.2 (0a00cf5339, 2022-02-04)"
   xmlns:inkscape="http://www.inkscape.org/namespaces/inkscape"
   xmlns:sodipodi="http://sodipodi.sourceforge.net/DTD/sodipodi-0.dtd"
   xmlns:xlink="http://www.w3.org/1999/xlink"
   xmlns="http://www.w3.org/2000/svg"
   xmlns:svg="http://www.w3.org/2000/svg">
  <defs
     id="defs6">
    <inkscape:path-effect
       effect="spiro"
       id="path-effect866"
       is_visible="true"
       lpeversion="1" />
    <inkscape:path-effect
       effect="spiro"
       id="path-effect862"
       is_visible="true"
       lpeversion="1" />
  </defs>
  <sodipodi:namedview
     id="namedview4"
     pagecolor="#ffffff"
     bordercolor="#666666"
     borderopacity="1.0"
     inkscape:pageshadow="2"
     inkscape:pageopacity="0.0"
     inkscape:pagecheckerboard="0"
     showgrid="false"
     inkscape:zoom="0.6703645"
     inkscape:cx="1230.6738"
     inkscape:cy="812.24468"
     inkscape:window-width="1850"
     inkscape:window-height="1016"
     inkscape:window-x="70"
     inkscape:window-y="27"
     inkscape:window-maximized="1"
     inkscape:current-layer="g8" />
  <g
     inkscape:groupmode="layer"
     inkscape:label="Image"
     id="g8">
    
    <path
       style="font-variation-settings:normal;opacity:1;vector-effect:none;fill:none;fill-opacity:1;stroke:#c86487;stroke-width:1px;stroke-linecap:butt;stroke-linejoin:miter;stroke-miterlimit:4;stroke-dasharray:none;stroke-dashoffset:0;stroke-opacity:1;-inkscape-stroke:none;stop-color:#000000;stop-opacity:1"
       d="M 1160.7645,862.90829 H 635.47558"
       id="path860"
       inkscape:path-effect="#path-effect862"
       inkscape:original-d="m 1160.7645,862.90829 c -175.09532,0.001 -350.19162,0.001 -525.28892,0" />
    <path
       style="font-variation-settings:normal;opacity:1;vector-effect:none;fill:none;fill-opacity:1;stroke:#c86487;stroke-width:1px;stroke-linecap:butt;stroke-linejoin:miter;stroke-miterlimit:4;stroke-dasharray:none;stroke-dashoffset:0;stroke-opacity:1;-inkscape-stroke:none;stop-color:#000000;stop-opacity:1"
       d="m 635.47558,862.90829 c 5.71527,-88.247 4.14144,-176.96498 -4.70019,-264.95374 -2.44019,-24.28386 -5.4249,-48.90114 -1.37284,-72.96857 3.40122,-20.20177 11.63173,-39.20882 18.97686,-58.33286 7.09663,-18.47704 13.42987,-37.27196 21.64199,-55.28096 12.5668,-27.5587 29.50623,-53.22666 38.83151,-82.04412 5.28555,-16.33368 8.03867,-33.44545 14.04912,-49.52652 6.17415,-16.51905 15.68802,-31.68093 21.23958,-48.41948 3.1021,-9.35318 4.93728,-19.21098 4.46636,-29.0539 -0.29552,-6.17686 -1.49066,-12.27201 -2.17833,-18.41758 -0.68766,-6.14557 -0.85284,-12.46974 0.86919,-18.40906 2.32638,-8.02374 7.92211,-14.72302 14.18925,-20.24709 6.26714,-5.52408 13.30817,-10.10775 19.66891,-15.52378 6.97599,-5.9399 13.12704,-12.87419 20.63292,-18.12858 3.75294,-2.6272 7.84786,-4.82246 12.24959,-6.0919 4.40173,-1.26945 9.12781,-1.58581 13.58019,-0.50735 3.83842,0.92974 7.37989,2.86558 10.52896,5.24913 3.14906,2.38354 5.93159,5.21313 8.61914,8.10708 16.3308,17.58499 29.50109,37.81484 44.24717,56.7484 3.85662,4.9518 7.87114,9.89613 10.35224,15.66137 0.21027,0.4886 0.41003,0.98412 0.68153,1.44154 0.2715,0.45742 0.62122,0.87987 1.07379,1.15938 0.36797,0.22726 0.79566,0.35321 1.22749,0.37707 0.43184,0.0239 0.8673,-0.0531 1.27071,-0.20896 0.80684,-0.31181 1.47034,-0.93181 1.94178,-1.65703 0.6161,-0.94774 0.92636,-2.10023 0.81856,-3.22547 -0.13514,-1.41073 -0.9009,-2.69169 -1.83233,-3.7598 -0.93144,-1.06811 -2.03692,-1.96915 -3.03029,-2.97991 -2.15238,-2.19006 -3.74292,-4.85528 -5.42372,-7.42511 -5.58864,-8.54465 -12.35462,-16.25967 -18.14745,-24.66723 -5.79283,-8.40756 -10.68512,-17.77094 -11.81811,-27.91787 -0.76141,-6.81913 0.20244,-13.7475 -0.61333,-20.56034 -0.24873,-2.077248 -0.66702,-4.149625 -1.47337,-6.080073 -0.80635,-1.930449 -2.01855,-3.720928 -3.66768,-5.008244 -1.35021,-1.053975 -2.95885,-1.745654 -4.62004,-2.163231 -1.66119,-0.417577 -3.37875,-0.569304 -5.09092,-0.618424 -3.42434,-0.09824 -6.8881,0.20535 -10.25198,-0.442727 -3.17428,-0.611548 -6.19932,-2.09384 -8.51543,-4.348987 -2.31611,-2.255147 -3.89415,-5.292217 -4.24741,-8.505509 -0.29185,-2.654678 0.24982,-5.378343 1.42684,-7.775659 1.17701,-2.397316 2.97548,-4.470279 5.11066,-6.074494 4.27036,-3.20843 9.7596,-4.482643 15.10077,-4.438838 10.61166,0.08703 20.64796,5.029414 29.1878,11.329097 2.22536,1.641609 4.38717,3.390013 6.25759,5.426834 1.87043,2.036821 3.44879,4.376937 4.37729,6.981743 1.31427,3.687026 1.27239,7.695924 1.32129,11.609881 0.0349,2.795458 0.12327,5.603661 -0.23899,8.375767 -0.36226,2.772104 -1.20308,5.537544 -2.86062,7.788844 -0.80991,1.10003 -1.8008,2.06007 -2.57833,3.18322 -0.38876,0.56158 -0.72379,1.16533 -0.9372,1.81414 -0.21342,0.64882 -0.30228,1.34531 -0.19881,2.02044 0.12191,0.79544 0.51002,1.53965 1.05197,2.13453 0.54196,0.59487 1.23298,1.04426 1.97628,1.35265 1.74937,0.7258 3.74617,0.6672 5.57914,0.19046 1.83298,-0.47673 3.53605,-1.34656 5.21451,-2.22398 9.99058,-5.22261 19.71977,-10.95154 29.88601,-15.82338 14.88444,-7.132885 30.59911,-12.378067 45.69045,-19.062084 10.16921,-4.503985 20.05805,-9.662341 30.45325,-13.616893 14.5261,-5.526036 30.2914,-8.839252 42.7234,-18.166121 5.8963,-4.423555 10.8337,-10.067622 16.9694,-14.152531 5.0065,-3.333114 10.6731,-5.535336 15.8827,-8.541138 5.5784,-3.218612 10.5813,-7.327351 15.8195,-11.0743 5.2382,-3.746948 10.8369,-7.1899666 17.0689,-8.8149194 6.0472,-1.5767636 12.567,-1.3466653 18.4572,0.7414704 5.8902,2.0881358 11.1195,6.038274 14.6616,11.186856 3.2416,4.711749 5.0173,10.244916 7.079,15.579524 6.0776,15.725731 14.9147,30.251522 21.313,45.849516 12.3977,30.2236 15.2443,63.36649 22.6294,95.18834 4.8689,20.97962 11.7352,41.45884 16.4891,62.46482 10.9232,48.26686 10.4953,98.27906 15.595,147.50303 2.8925,27.91959 7.5779,56.03794 4.149,83.89675 -1.681,13.65755 -5.3171,27.07922 -10.8402,39.68279 -9.4421,21.54677 -24.3565,40.73546 -30.7218,63.38275 -4.2311,15.05371 -4.4617,30.96953 -3.1435,46.55088 1.3182,15.58134 4.1477,30.99408 5.9425,46.52774 7.7895,67.41578 -4.4531,137.02086 -34.7786,197.7327"
       id="path864"
       inkscape:path-effect="#path-effect866"
       inkscape:original-d="m 635.47558,862.90829 c -1.56573,-88.31691 -3.13246,-176.63483 -4.70019,-264.95374 -1.56774,-88.31891 -0.91423,-48.64471 -1.37284,-72.96857 -0.45861,-24.32386 12.65224,-38.88758 18.97686,-58.33286 6.32462,-19.44529 14.429,-36.85297 21.64199,-55.28096 7.213,-18.42799 25.88867,-54.69508 38.83151,-82.04412 12.94284,-27.34904 9.36708,-33.01668 14.04912,-49.52652 4.68204,-16.50984 14.16072,-32.27865 21.23958,-48.41948 7.07886,-16.14082 2.97857,-19.36827 4.46636,-29.0539 1.48779,-9.68563 -0.87176,-24.55009 -1.30914,-36.82664 -0.43739,-12.27654 22.57311,-23.84625 33.85816,-35.77087 11.28506,-11.92463 30.97613,-16.48422 46.4627,-24.72783 15.48657,-8.243605 12.7664,8.90514 19.1481,13.35621 6.3817,4.45107 29.49912,37.83327 44.24717,56.7484 14.74806,18.91513 6.90249,10.44191 10.35224,15.66137 3.44975,5.21946 1.17121,1.73495 1.75532,2.60092 0.5841,0.86598 2.96099,-0.99161 4.43998,-1.48892 1.47899,-0.49731 0.54671,-2.14931 0.81856,-3.22547 0.27186,-1.07616 -3.24074,-4.49214 -4.86262,-6.73971 -1.62187,-2.24757 -3.61482,-4.94907 -5.42372,-7.42511 -1.80891,-2.47604 -19.97604,-35.05574 -29.96556,-52.5851 -9.98951,-17.52937 -0.40789,-13.70589 -0.61333,-20.56034 -0.20545,-6.854443 -3.42637,-7.391211 -5.14105,-11.088317 -1.71468,-3.697106 -13.30762,-2.148588 -19.96294,-3.224382 -6.65531,-1.075794 -8.50756,-8.568664 -12.76284,-12.854496 -4.25528,-4.285832 14.42651,-12.191661 21.63827,-18.288991 7.21176,-6.09733 19.45953,7.553732 29.1878,11.329097 9.72826,3.775366 7.09092,8.273385 10.63488,12.408577 3.54396,4.135192 0.88186,7.74092 1.32129,11.609881 0.43943,3.86896 -2.06541,10.777411 -3.09961,16.164611 -1.03421,5.38721 -2.47523,4.67953 -3.71434,7.0178 -1.23912,2.33827 2.01983,2.32579 3.02825,3.48718 1.00842,1.1614 7.19677,-1.35468 10.79365,-2.03352 3.59688,-0.67884 19.92501,-10.54792 29.88601,-15.82338 9.961,-5.275457 30.4613,-12.707055 45.69045,-19.062084 15.22915,-6.355029 20.30314,-9.076929 30.45325,-13.616893 10.15,-4.539965 28.4832,-12.109748 42.7234,-18.166121 14.2401,-6.056374 11.3139,-9.434021 16.9694,-14.152531 5.6555,-4.71851 10.5895,-5.693092 15.8827,-8.541138 5.2932,-2.848046 21.9266,-13.25848 32.8884,-19.8892194 10.9617,-6.63073985 22.0802,7.9532174 33.1188,11.9283264 11.0386,3.975109 4.7203,10.387349 7.079,15.579524 2.3587,5.192174 14.2097,30.567344 21.313,45.849516 7.1034,15.282172 15.0873,63.45989 22.6294,95.18834 7.5421,31.72845 10.9937,41.64421 16.4891,62.46482 5.4953,20.8206 10.3977,98.33635 15.595,147.50303 5.1974,49.16667 2.3415,46.27741 4.149,83.89675 1.8075,37.61935 -6.8003,36.11095 -10.8402,39.68279 -4.0399,3.57184 -17.8953,54.60801 -30.7218,63.38275 -12.8265,8.77474 2.8944,52.83598 2.799,93.07862 -0.095,40.24263 -26.7971,128.68839 -34.7786,197.7327"
       sodipodi:nodetypes="csssssssssssssssssssssssssssssssssssssssssssssssscc" />
  </g>
</svg>
