<?xml version="1.0" encoding="UTF-8" standalone="no"?>
<!-- Created with Inkscape (http://www.inkscape.org/) -->

<svg
   version="1.1"
   id="svg2"
   width="1893"
   height="1024"
   viewBox="0 0 1893 1024"
   sodipodi:docname="frame_0015.svg"
   inkscape:version="1.1.2 (0a00cf5339, 2022-02-04)"
   xmlns:inkscape="http://www.inkscape.org/namespaces/inkscape"
   xmlns:sodipodi="http://sodipodi.sourceforge.net/DTD/sodipodi-0.dtd"
   xmlns:xlink="http://www.w3.org/1999/xlink"
   xmlns="http://www.w3.org/2000/svg"
   xmlns:svg="http://www.w3.org/2000/svg">
  <sodipodi:namedview
     id="namedview8"
     pagecolor="#ffffff"
     bordercolor="#666666"
     borderopacity="1.0"
     inkscape:pageshadow="2"
     inkscape:pageopacity="0.0"
     inkscape:pagecheckerboard="0"
     showgrid="false"
     inkscape:zoom="5.3248811"
     inkscape:cx="808.84435"
     inkscape:cy="129.48646"
     inkscape:window-width="1850"
     inkscape:window-height="1016"
     inkscape:window-x="70"
     inkscape:window-y="27"
     inkscape:window-maximized="1"
     inkscape:current-layer="g8" />
  <defs
     id="defs6" />
  <g
     id="g8">
    
    <path
       style="fill:none;stroke:#c86487;stroke-width:1px;stroke-linecap:butt;stroke-linejoin:miter;stroke-opacity:1"
       d="M 1160.5957,862.61601 635.63601,862.18052"
       id="path860"
       sodipodi:nodetypes="cc" />
    <path
       style="fill:none;stroke:#c86487;stroke-width:1px;stroke-linecap:butt;stroke-linejoin:miter;stroke-opacity:1"
       d="m 635.63601,862.18052 c -12.99489,-21.88991 -13.18255,-45.78312 -19.56214,-70.42731 -16.53078,-63.85796 -9.22894,-131.06386 -9.97751,-197.02252 -0.26436,-23.29377 -1.54762,-46.61762 -0.0324,-69.86356 1.62294,-24.89846 6.48728,-49.64653 15.24317,-73.01107 11.28963,-30.12565 28.96268,-57.84045 37.15625,-88.95116 4.31553,-16.38593 5.91625,-33.43982 10.9957,-49.60527 4.54491,-14.46426 11.79051,-27.94296 16.7357,-42.2753 2.61803,-7.58768 4.58359,-15.39734 5.93827,-23.30883 1.02883,-6.00849 1.70704,-12.12118 1.23239,-18.19861 -0.47465,-6.07743 -2.15176,-12.14903 -5.52673,-17.22544 -1.94476,-2.92518 -4.45917,-5.55033 -5.63588,-8.86003 -1.3075,-3.67756 -0.77266,-7.83821 0.84371,-11.39086 1.61637,-3.55265 4.23555,-6.56184 7.10093,-9.21205 10.29383,-9.52084 23.80176,-14.79429 34.90042,-23.36336 7.73097,-5.96895 14.22645,-13.48781 22.34713,-18.91468 4.06034,-2.71343 8.54102,-4.8891 13.32816,-5.85466 4.78715,-0.96556 9.90401,-0.66502 14.34638,1.36339 4.60911,2.10454 8.20465,5.8817 11.692,9.55749 8.37827,8.831 16.8665,17.62829 23.9392,27.5358 5.40931,7.57741 9.9499,15.74926 15.42445,23.27968 5.47454,7.53042 12.05661,14.53313 20.38245,18.69945 1.35609,0.6786 2.75114,1.27824 4.09558,1.97965 1.49389,0.77938 2.92113,1.68225 4.42121,2.44964 1.50009,0.7674 3.09329,1.40341 4.76701,1.59788 1.4267,0.16577 2.89771,7.4e-4 4.23163,-0.53182 1.33391,-0.53255 2.5253,-1.43777 3.34923,-2.61424 1.08869,-1.55452 1.49701,-3.53 1.30926,-5.41852 -0.18776,-1.88853 -0.94211,-3.69225 -1.98991,-5.27461 -2.09561,-3.16473 -5.27128,-5.4171 -8.20568,-7.82466 -16.4089,-13.46284 -26.42667,-33.06346 -40.58131,-48.87947 -13.28983,-14.84969 -30.39405,-26.56649 -40.4685,-43.76063 -1.57025,-2.67996 -2.96235,-5.49531 -3.73314,-8.504256 -0.77079,-3.008944 -0.89454,-6.236596 0.0447,-9.197298 1.06547,-3.358746 3.49942,-6.240463 6.58022,-7.950756 3.0808,-1.710293 6.77057,-2.255224 10.23634,-1.618951 3.66498,0.672846 6.99816,2.598129 9.90613,4.928049 2.90797,2.329919 5.45169,5.073864 8.11688,7.678008 6.37598,6.229936 13.5898,11.815504 18.32793,19.366354 1.71977,2.74068 3.07945,5.69267 4.76072,8.45712 1.68127,2.76446 1.2739,11.40238 4.03211,13.09388 3.61214,2.21518 10.56823,-3.39919 14.76388,-3.99173 8.2959,-1.1716 15.64791,-5.86053 22.34911,-10.8893 6.70119,-5.02878 13.16018,-10.57895 20.82985,-13.95101 4.06865,-1.78883 8.38788,-2.92159 12.63731,-4.22396 16.27193,-4.987053 31.63067,-12.502415 47.11813,-19.558277 15.8357,-7.214518 31.92894,-14.002982 46.85635,-22.946687 14.2316,-8.526766 27.2748,-18.943713 39.3186,-30.353801 4.2716,-4.046818 8.529,-8.297255 13.8412,-10.82775 2.6561,-1.265248 5.5596,-2.073102 8.5016,-2.094927 2.942,-0.02182 5.9233,0.772671 8.3237,2.473791 1.8627,1.320085 3.333,3.148052 4.4047,5.163988 1.0716,2.015935 1.7575,4.219007 2.2221,6.45431 0.9292,4.470606 0.9902,9.081727 1.8237,13.571151 2.3472,12.642395 10.5268,23.264419 16.707,34.54026 11.6316,21.221866 16.3843,45.389532 23.0247,68.661112 10.1102,35.43184 24.8439,69.40049 35.2263,104.75352 13.8123,47.03208 19.7752,95.99241 24.0419,144.8247 2.3605,27.01528 4.229,54.15133 9.4851,80.75529 1.5709,7.95106 3.4531,16.01015 2.6266,24.07265 -0.4132,4.03125 -1.5231,8.02725 -3.573,11.52292 -2.0498,3.49567 -5.0753,6.47195 -8.7658,8.14581 -2.0706,0.93915 -4.306,1.45814 -6.4212,2.29204 -4.8264,1.90273 -8.8809,5.3908 -12.3001,9.29251 -4.4169,5.04018 -7.923,10.85756 -10.476,17.05391 -6.5393,15.87162 -6.6848,33.74699 -3.9015,50.68582 2.7834,16.93883 8.3483,33.27178 12.9757,49.8023 19.3921,69.27476 17.2024,143.70904 3.2477,214.28038"
       id="path992"
       sodipodi:nodetypes="cssssssssssssssssssssssssssssssssssssssssssssssssssssssssssssssssssc" />
  </g>
</svg>
