<?xml version="1.0" encoding="UTF-8" standalone="no"?>
<!-- Created with Inkscape (http://www.inkscape.org/) -->

<svg
   version="1.1"
   id="svg2"
   width="1893"
   height="1024"
   viewBox="0 0 1893 1024"
   sodipodi:docname="frame_0140.svg"
   inkscape:version="1.1.2 (0a00cf5339, 2022-02-04)"
   xmlns:inkscape="http://www.inkscape.org/namespaces/inkscape"
   xmlns:sodipodi="http://sodipodi.sourceforge.net/DTD/sodipodi-0.dtd"
   xmlns:xlink="http://www.w3.org/1999/xlink"
   xmlns="http://www.w3.org/2000/svg"
   xmlns:svg="http://www.w3.org/2000/svg">
  <defs
     id="defs6">
    <inkscape:path-effect
       effect="spiro"
       id="path-effect899"
       is_visible="true"
       lpeversion="1" />
    <inkscape:path-effect
       effect="spiro"
       id="path-effect862"
       is_visible="true"
       lpeversion="1" />
  </defs>
  <sodipodi:namedview
     id="namedview4"
     pagecolor="#ffffff"
     bordercolor="#666666"
     borderopacity="1.0"
     inkscape:pageshadow="2"
     inkscape:pageopacity="0.0"
     inkscape:pagecheckerboard="0"
     showgrid="false"
     inkscape:zoom="0.6703645"
     inkscape:cx="1082.9929"
     inkscape:cy="495.99882"
     inkscape:window-width="1850"
     inkscape:window-height="1016"
     inkscape:window-x="70"
     inkscape:window-y="27"
     inkscape:window-maximized="1"
     inkscape:current-layer="g8" />
  <g
     inkscape:groupmode="layer"
     inkscape:label="Image"
     id="g8">
    
    <path
       style="font-variation-settings:normal;opacity:1;vector-effect:none;fill:none;fill-opacity:1;stroke:#c86487;stroke-width:1px;stroke-linecap:butt;stroke-linejoin:miter;stroke-miterlimit:4;stroke-dasharray:none;stroke-dashoffset:0;stroke-opacity:1;-inkscape-stroke:none;stop-color:#000000;stop-opacity:1"
       d="M 1161.3229,862.32341 H 635.85567"
       id="path860"
       inkscape:path-effect="#path-effect862"
       inkscape:original-d="M 1161.3229,862.32341 H 635.85567" />
    <path
       style="font-variation-settings:normal;opacity:1;vector-effect:none;fill:none;fill-opacity:1;stroke:#c86487;stroke-width:1px;stroke-linecap:butt;stroke-linejoin:miter;stroke-miterlimit:4;stroke-dasharray:none;stroke-dashoffset:0;stroke-opacity:1;-inkscape-stroke:none;stop-color:#000000;stop-opacity:1"
       d="m 635.85567,862.32341 c -9.01959,-43.70386 -16.81172,-87.66104 -23.36412,-131.80225 -8.11478,-54.6664 -14.20632,-111.35095 0.99592,-164.48434 7.34476,-25.67068 19.46151,-49.70427 28.30569,-74.89772 9.45525,-26.93416 15.14423,-55.12097 25.47136,-81.73302 10.9269,-28.15758 26.89925,-54.16715 37.46609,-82.46182 7.28262,-19.50054 11.92977,-39.91071 19.32096,-59.37036 5.13732,-13.52562 11.60248,-26.6022 15.2552,-40.60192 2.97948,-11.41942 4.03077,-23.41544 2.31298,-35.09147 -1.35537,-9.21261 -4.42003,-18.4405 -2.94937,-27.63541 0.95914,-5.99675 3.84913,-11.60262 7.82029,-16.19728 6.77302,-7.83643 16.38417,-12.6388 26.08311,-16.27391 9.69894,-3.63511 19.78862,-6.32468 29.0579,-10.94678 5.16539,-2.57571 10.05044,-5.74 15.42414,-7.84685 2.68686,-1.05343 5.49516,-1.83731 8.36868,-2.10517 2.87352,-0.26785 5.81825,-0.008 8.53393,0.96834 2.68987,0.96743 5.09846,2.615 7.19795,4.55496 2.0995,1.93996 3.90683,4.17262 5.62976,6.45359 6.29007,8.32734 11.53997,17.38015 16.98432,26.28344 11.59412,18.96017 24.20807,37.42938 39.49236,53.56326 2.4128,2.54691 4.89393,5.03779 7.09255,7.77173 0.76031,0.94543 1.51736,1.94631 2.58057,2.53067 0.76497,0.42044 1.66286,0.59735 2.52914,0.49001 0.86627,-0.10733 1.69614,-0.49974 2.32289,-1.10731 0.62674,-0.60757 1.04553,-1.42771 1.16178,-2.29283 0.11625,-0.86512 -0.0724,-1.76952 -0.53201,-2.51161 -0.44559,-0.71943 -1.11721,-1.26391 -1.75928,-1.81515 -4.49322,-3.85763 -8.06822,-8.65706 -11.4697,-13.50476 -12.94428,-18.44784 -23.95806,-38.22346 -37.4803,-56.25194 -3.45078,-4.60075 -7.12402,-9.1966 -8.9822,-14.63921 -1.23543,-3.61858 -1.61563,-7.49776 -1.38019,-11.31417 0.0945,-1.53175 0.28827,-3.06569 0.73127,-4.53503 0.44299,-1.46933 1.14386,-2.87716 2.16961,-4.01867 0.81762,-0.90989 1.82474,-1.634942 2.63519,-2.551227 0.40522,-0.458142 0.76135,-0.966522 0.99367,-1.532319 0.23232,-0.565796 0.33656,-1.192674 0.23588,-1.795967 -0.13723,-0.822305 -0.64572,-1.547649 -1.27804,-2.09096 -0.63233,-0.54331 -1.38538,-0.924808 -2.14094,-1.277157 -6.46256,-3.01377 -13.64629,-4.254602 -20.77526,-4.413344 -3.07651,-0.06851 -6.23847,0.04524 -9.13014,-1.007318 -3.00284,-1.093019 -5.50445,-3.436347 -6.9041,-6.309103 -1.39964,-2.872756 -1.70945,-6.238578 -0.98043,-9.349889 0.72902,-3.111311 2.47253,-5.957384 4.82821,-8.116674 2.35567,-2.159289 5.30647,-3.638169 8.41932,-4.360593 3.90499,-0.906263 8.01478,-0.6362 11.91713,0.281366 3.90234,0.917566 7.62654,2.464845 11.27876,4.117581 7.53313,3.408961 14.91042,7.337104 21.2487,12.647029 3.83222,3.210467 7.29187,6.957122 9.62373,11.37928 1.98779,3.769659 3.12552,8.110531 2.47098,12.321612 -0.51173,3.292343 -2.12452,6.396503 -4.49052,8.742443 -0.80869,0.80183 -1.70196,1.51763 -2.47437,2.35445 -0.77241,0.83683 -1.43238,1.82425 -1.64601,2.94285 -0.15146,0.79307 -0.068,1.62938 0.23624,2.37726 0.30428,0.74787 0.82821,1.40469 1.4892,1.86836 1.03869,0.72861 2.36846,0.95626 3.63196,0.84088 1.2635,-0.11538 2.47608,-0.54879 3.64301,-1.0468 6.58447,-2.81003 12.03435,-7.68941 18.10086,-11.49059 6.93681,-4.34649 14.65083,-7.264222 22.07439,-10.714168 5.41057,-2.514451 10.68098,-5.319294 15.91655,-8.18033 2.76458,-1.510734 5.52883,-3.04164 8.45202,-4.216436 2.9232,-1.174796 6.02791,-1.990475 9.1783,-2.00573 4.38967,-0.02126 8.69132,1.503553 13.07864,1.358375 4.69116,-0.155233 9.13257,-2.218492 13.02374,-4.843347 3.89118,-2.624854 7.35738,-5.825685 11.11308,-8.640991 8.8282,-6.617704 19.0877,-10.991984 28.9065,-16.023999 12.2297,-6.267549 23.9077,-13.633545 36.4912,-19.156519 5.1986,-2.281716 10.5398,-4.243175 15.6418,-6.733472 5.102,-2.490297 10.0088,-5.553288 13.8713,-9.714219 3.1176,-3.358508 5.5318,-7.4028589 9.1241,-10.2479434 2.2117,-1.7516501 4.8338,-2.995804 7.6046,-3.527366 2.7708,-0.5315621 5.6864,-0.3418382 8.3405,0.6148975 2.7201,0.9805138 5.0948,2.7201399 7.3475,4.5327958 2.2527,1.8126561 4.4434,3.7335101 6.9553,5.1655841 2.2793,1.299468 4.7727,2.167516 7.2088,3.142023 2.436,0.974506 4.8623,2.083266 6.8647,3.778628 1.8322,1.551242 3.2497,3.549351 4.3381,5.68911 1.0885,2.139758 1.8603,4.425756 2.5406,6.728006 1.5798,5.346049 2.6843,10.81843 3.9327,16.251419 4.3674,19.006431 10.5037,37.559277 15.3697,56.444212 3.1875,12.37089 5.8278,24.87597 8.3387,37.40174 5.4771,27.32268 10.3453,54.77269 16.4924,81.95248 3.6484,16.13184 7.7479,32.17145 10.6974,48.4456 3.4163,18.84961 5.277,37.94346 6.9611,57.02598 0.7672,8.69255 1.4984,17.38841 2.1499,26.0904 1.8975,25.34659 3.1175,50.73871 4.2573,76.13065 1.0582,23.57267 2.0475,47.1484 3.1052,70.72109 0.1051,2.34216 0.1961,4.7731 -0.7043,6.9378 -0.5936,1.42702 -1.5988,2.66409 -2.8026,3.63336 -1.2039,0.96928 -2.6025,1.67874 -4.0595,2.19437 -2.6302,0.93082 -5.4318,1.23771 -8.1936,1.63419 -2.7617,0.39648 -5.5596,0.905 -8.0361,2.19005 -3.0533,1.58434 -5.4495,4.29795 -6.9287,7.40353 -2.5113,5.27242 -2.4212,11.35609 -2.3867,17.19596 0.1498,25.35073 -1.6944,50.67003 -3.8963,75.9254 -7.0623,81.00333 -17.819,161.68448 -32.2254,241.70868"
       id="path897"
       inkscape:path-effect="#path-effect899"
       inkscape:original-d="m 635.85567,862.32341 c -7.78704,-43.93308 -15.57508,-87.86717 -23.36412,-131.80225 -7.78904,-43.93508 0.66495,-109.65523 0.99592,-164.48434 0.33098,-54.82912 18.87146,-49.93081 28.30569,-74.89772 9.43423,-24.96691 16.98191,-54.48768 25.47136,-81.73302 8.48945,-27.24534 24.97839,-54.97355 37.46609,-82.46182 12.4877,-27.48828 12.88164,-39.57924 19.32096,-59.37036 6.43932,-19.79112 10.17113,-27.06694 15.2552,-40.60192 5.08406,-13.53497 1.54298,-23.39331 2.31298,-35.09147 0.76999,-11.69815 -1.96525,-18.4226 -2.94937,-27.63541 -0.98412,-9.2128 5.21453,-10.79719 7.82029,-16.19728 2.60577,-5.4001 36.76168,-18.14613 55.14101,-27.22069 18.37934,-9.07456 21.55217,-5.98812 32.32675,-8.98368 10.77458,-2.99556 8.55281,7.34003 12.82771,11.00855 4.2749,3.66851 11.32388,17.52329 16.98432,26.28344 5.66044,8.76015 26.32924,35.70984 39.49236,53.56326 13.16312,17.85342 4.72936,5.18215 7.09255,7.77173 2.36318,2.58958 1.72138,1.68811 2.58057,2.53067 0.8592,0.84256 3.65554,-3.6135 5.4818,-5.42174 1.82627,-1.80825 -1.17185,-1.2091 -1.75928,-1.81515 -0.58742,-0.60605 -7.64546,-9.00217 -11.4697,-13.50476 -3.82423,-4.50258 -24.98587,-37.50029 -37.4803,-56.25194 -12.49444,-18.75165 -5.98713,-9.75847 -8.9822,-14.63921 -2.99507,-4.88074 -0.91913,-7.54178 -1.38019,-11.31417 -0.46107,-3.77239 1.93492,-5.70147 2.90088,-8.5537 0.96596,-2.852239 2.57749,-3.918677 3.86474,-5.879513 1.28724,-1.960836 -2.27832,-2.244411 -3.41898,-3.368117 -1.14066,-1.123705 -13.84917,-2.941229 -20.77526,-4.413344 -6.92608,-1.472115 -6.08576,-0.670545 -9.13014,-1.007318 -3.04438,-0.336773 3.57633,-18.756506 5.363,-28.136259 1.78666,-9.379753 15.46493,2.933631 23.19589,4.398947 7.73097,1.465316 14.1668,8.432353 21.2487,12.647029 7.08189,4.214676 6.41682,7.587186 9.62373,11.37928 3.20691,3.792093 1.64832,8.215408 2.47098,12.321612 0.82266,4.106203 -2.99268,5.829303 -4.49052,8.742443 -1.49784,2.91315 -2.74592,3.53253 -4.12038,5.2973 -1.37446,1.76476 1.15129,2.83141 1.72544,4.24562 0.57414,1.41421 4.85098,-0.13628 7.27497,-0.20592 2.42399,-0.0696 12.06824,-7.65939 18.10086,-11.49059 6.03261,-3.8312 14.71726,-7.141779 22.07439,-10.714168 7.35714,-3.572388 10.61203,-5.452553 15.91655,-8.18033 5.30452,-2.727776 11.75455,-4.147111 17.63032,-6.222166 5.87577,-2.075056 8.72009,0.906583 13.07864,1.358375 4.35855,0.451791 16.09221,-8.988559 24.13682,-13.484338 8.0446,-4.495779 19.272,-10.681666 28.9065,-16.023999 9.6345,-5.342334 24.3285,-12.770013 36.4912,-19.156519 12.1628,-6.386507 19.6764,-10.964127 29.5131,-16.447691 9.8367,-5.483563 6.0837,-6.830962 9.1241,-10.2479434 3.0403,-3.4169813 10.631,-1.9406457 15.9451,-2.9124685 5.314,-0.9718228 9.5362,6.4665869 14.3028,9.6983799 4.7666,3.231793 9.3833,4.614767 14.0735,6.920651 4.6901,2.305883 4.5868,8.279077 6.8787,12.417116 2.2919,4.138038 2.6228,10.835279 3.9327,16.251419 1.3099,5.41614 10.2474,37.630475 15.3697,56.444212 5.1222,18.81374 5.5601,24.93549 8.3387,37.40174 2.7786,12.46625 10.996,54.63599 16.4924,81.95248 5.4965,27.3165 7.1326,32.29807 10.6974,48.4456 3.5649,16.14754 4.6418,38.01832 6.9611,57.02598 2.3194,19.00765 1.4343,17.3946 2.1499,26.0904 0.7156,8.6958 2.8392,50.75477 4.2573,76.13065 1.418,25.37589 2.0711,47.14839 3.1052,70.72109 1.0341,23.57269 -0.4686,4.6262 -0.7043,6.9378 -0.2358,2.3116 -4.5737,3.88615 -6.8621,5.82773 -2.2884,1.94157 -10.8188,2.55049 -16.2297,3.82424 -5.4109,1.27375 -4.6181,4.93669 -6.9287,7.40353 -2.3106,2.46685 -1.5901,11.46497 -2.3867,17.19596 -0.7965,5.73098 -2.5965,50.61794 -3.8963,75.9254 -1.2998,25.30747 -21.4826,161.14012 -32.2254,241.70868" />
  </g>
</svg>
