<?xml version="1.0" encoding="UTF-8" standalone="no"?>
<!-- Created with Inkscape (http://www.inkscape.org/) -->

<svg
   version="1.1"
   id="svg2"
   width="1893"
   height="1024"
   viewBox="0 0 1893 1024"
   sodipodi:docname="frame_0029.svg"
   inkscape:version="1.1.2 (0a00cf5339, 2022-02-04)"
   xmlns:inkscape="http://www.inkscape.org/namespaces/inkscape"
   xmlns:sodipodi="http://sodipodi.sourceforge.net/DTD/sodipodi-0.dtd"
   xmlns:xlink="http://www.w3.org/1999/xlink"
   xmlns="http://www.w3.org/2000/svg"
   xmlns:svg="http://www.w3.org/2000/svg">
  <sodipodi:namedview
     id="namedview8"
     pagecolor="#ffffff"
     bordercolor="#666666"
     borderopacity="1.0"
     inkscape:pageshadow="2"
     inkscape:pageopacity="0.0"
     inkscape:pagecheckerboard="0"
     showgrid="false"
     inkscape:zoom="0.66561014"
     inkscape:cx="1044.1548"
     inkscape:cy="466.48929"
     inkscape:window-width="1850"
     inkscape:window-height="1016"
     inkscape:window-x="70"
     inkscape:window-y="27"
     inkscape:window-maximized="1"
     inkscape:current-layer="svg2" />
  <defs
     id="defs6" />
  <g
     id="g8">
    
    <path
       style="font-variation-settings:normal;opacity:1;vector-effect:none;fill:none;fill-opacity:1;stroke:#c86487;stroke-width:1px;stroke-linecap:butt;stroke-linejoin:miter;stroke-miterlimit:4;stroke-dasharray:none;stroke-dashoffset:0;stroke-opacity:1;-inkscape-stroke:none;stop-color:#000000;stop-opacity:1"
       d="m 1160.4439,862.56448 -524.96018,0.21243"
       id="path860" />
    <path
       style="font-variation-settings:normal;opacity:1;vector-effect:none;fill:none;fill-opacity:1;stroke:#c86487;stroke-width:1px;stroke-linecap:butt;stroke-linejoin:miter;stroke-miterlimit:4;stroke-dasharray:none;stroke-dashoffset:0;stroke-opacity:1;-inkscape-stroke:none;stop-color:#000000;stop-opacity:1"
       d="m 635.48372,862.77691 c -41.09886,-42.77466 -65.80775,-100.92326 -68.073,-160.19936 -2.61175,-68.34318 23.22171,-134.08043 45.42215,-198.77009 15.03006,-43.79595 28.57504,-88.14749 38.86872,-133.29201 5.72671,-25.11537 10.58148,-50.85417 22.5471,-73.66648 4.18887,-7.98603 9.20174,-15.51125 13.5734,-23.3987 4.37167,-7.88746 8.13613,-16.25791 9.54063,-25.16581 1.2816,-8.1284 0.51591,-16.64092 -2.68834,-24.22024 -1.68075,-3.97564 -3.99683,-7.64456 -6.02773,-11.45324 -2.0309,-3.80868 -3.8039,-7.85 -4.25827,-12.14234 -0.53956,-5.09716 0.83554,-10.26983 3.21064,-14.81198 2.37509,-4.54215 5.71234,-8.5121 9.27072,-12.20129 12.80211,-13.2727 28.65603,-23.26581 45.19548,-31.42089 5.4893,-2.7066 11.12704,-5.24412 17.11438,-6.5129 5.98734,-1.26877 12.40325,-1.19735 18.03525,1.1982 5.06631,2.15494 9.20992,6.048 12.69382,10.31107 3.48389,4.26306 6.41112,8.95195 9.78385,13.30349 3.93913,5.08232 8.46508,9.67802 13.06634,14.16969 11.34068,11.07057 23.25498,21.63837 33.27036,33.92091 1.73009,2.12173 3.41757,4.30894 5.51902,6.06361 2.10144,1.75467 4.69515,3.06716 7.43267,3.09742 1.38246,0.0153 2.78174,-0.30645 3.9654,-1.02085 1.18366,-0.7144 2.13836,-1.8345 2.55528,-3.15268 0.29928,-0.94625 0.31845,-1.97015 0.12382,-2.94333 -0.19463,-0.97318 -0.59794,-1.89746 -1.11891,-2.74218 -1.04196,-1.68943 -2.53117,-3.04699 -3.97938,-4.40439 -29.21762,-27.38559 -48.82927,-63.2835 -74.25686,-94.22017 -1.60083,-1.94766 -3.22552,-3.87656 -4.76705,-5.87149 -2.85506,-3.694793 -5.47941,-7.751593 -6.34008,-12.340941 -0.43034,-2.294674 -0.39874,-4.695207 0.26492,-6.933572 0.66366,-2.238364 1.97969,-4.30587 3.8373,-5.720081 1.56528,-1.191659 3.47705,-1.894956 5.4306,-2.12696 1.95354,-0.232004 3.94744,-0.0038 5.83752,0.541878 3.78015,1.091371 7.08466,3.402352 10.14413,5.876277 7.36433,5.954898 13.75073,13.067478 19.25263,20.776129 3.45372,4.83897 6.59405,9.95096 10.73751,14.21424 2.07173,2.13164 -5.0258,17.30148 4.78143,12.85576 2.70735,-1.22728 7.27588,-2.99478 10.24197,-2.79915 5.17002,0.341 10.67291,-3.62486 15.08732,-6.3375 4.4144,-2.71265 8.3315,-6.15309 12.56362,-9.14216 10.08698,-7.12426 21.8064,-11.57775 33.6167,-15.185937 11.8103,-3.608186 23.86674,-6.451148 35.44814,-10.737561 14.26482,-5.279576 27.65631,-12.69598 40.45321,-20.917798 28.21957,-18.130681 53.69107,-40.204196 81.24137,-59.3365859 1.027,-0.7131751 2.1032,-1.4413234 3.3385,-1.6342416 0.945,-0.147576 1.927,0.036818 2.7912,0.4466413 0.8642,0.4098233 1.6145,1.0374525 2.2349,1.7653785 1.2408,1.455852 1.9563,3.2741789 2.6805,5.0446877 4.0614,9.929605 9.0465,19.449694 13.6686,29.13103 14.5224,30.418155 25.4506,62.404526 36.088,94.389016 22.5039,67.66432 44.0081,136.42286 49.7992,207.4957 4.386,53.82812 -0.2638,108.70932 11.8601,161.3374 0.5067,2.1995 1.045,4.47229 0.6277,6.69049 -0.3087,1.64089 -1.1295,3.15023 -2.1443,4.47606 -1.0149,1.32583 -2.2246,2.48758 -3.4182,3.65513 -9.2234,9.02219 -18.0044,19.09976 -22.0486,31.3519 -3.655,11.07326 -3.1542,23.02465 -2.7423,34.67827 0.7273,20.57768 1.0544,41.16722 1.3564,61.75553 1.0564,72.0179 1.8067,144.04029 2.2507,216.06457"
       id="path897"
       sodipodi:nodetypes="csssssssssssssssssssssssssssssssssssssssssssssssssssssssssc" />
  </g>
</svg>
