<?xml version="1.0" encoding="UTF-8" standalone="no"?>
<!-- Created with Inkscape (http://www.inkscape.org/) -->

<svg
   version="1.1"
   id="svg2"
   width="1893"
   height="1024"
   viewBox="0 0 1893 1024"
   xmlns:xlink="http://www.w3.org/1999/xlink"
   xmlns="http://www.w3.org/2000/svg"
   xmlns:svg="http://www.w3.org/2000/svg">
  <defs
     id="defs6" />
  <g
     id="g8">
    
    <path
       style="font-variation-settings:normal;opacity:1;vector-effect:none;fill:none;fill-opacity:1;stroke:#c86487;stroke-width:1px;stroke-linecap:butt;stroke-linejoin:miter;stroke-miterlimit:4;stroke-dasharray:none;stroke-dashoffset:0;stroke-opacity:1;-inkscape-stroke:none;stop-color:#000000;stop-opacity:1"
       d="m 1161.2241,862.30763 -525.54952,0.10499"
       id="path860" />
    <path
       style="font-variation-settings:normal;opacity:1;vector-effect:none;fill:none;fill-opacity:1;stroke:#c86487;stroke-width:1px;stroke-linecap:butt;stroke-linejoin:miter;stroke-miterlimit:4;stroke-dasharray:none;stroke-dashoffset:0;stroke-opacity:1;-inkscape-stroke:none;stop-color:#000000;stop-opacity:1"
       d="m 635.67458,862.41262 c -20.93155,-37.55514 -35.14196,-78.84354 -41.75727,-121.32596 -8.97748,-57.65184 -3.99744,-116.51556 2.92751,-174.44979 5.03652,-42.13554 11.20089,-84.57944 26.46304,-124.17536 10.67493,-27.6949 25.66719,-53.62413 35.43443,-81.65202 7.20583,-20.6777 11.49163,-42.28777 18.81471,-62.92424 4.37345,-12.32439 9.80828,-24.23941 14.90649,-36.28208 2.29209,-5.41423 4.52794,-10.8908 5.78993,-16.63318 1.26198,-5.74238 1.51451,-11.81148 -0.14741,-17.45112 -1.14788,-3.89528 -3.16512,-7.46647 -5.09521,-11.03937 -1.93009,-3.5729 -3.80934,-7.241 -4.64223,-11.21556 -1.20673,-5.75854 -0.11035,-11.83697 2.27705,-17.21445 2.3874,-5.37748 6.00643,-10.12167 9.94593,-14.49172 8.93955,-9.91655 19.69448,-18.1619 31.47437,-24.44582 10.19291,-5.43735 21.12797,-9.40988 32.30751,-12.3216 3.86181,-1.00581 7.78143,-1.89049 11.76767,-2.07779 3.98624,-0.1873 8.06829,0.35129 11.66612,2.07779 3.54699,1.7021 6.47971,4.48388 8.93283,7.55966 2.45313,3.07579 4.47495,6.46665 6.63135,9.75727 8.99608,13.72784 20.34356,25.7246 31.47449,37.78633 7.32803,7.94082 14.60781,15.96673 20.89395,24.75542 1.28216,1.79259 2.52974,3.62503 4.06873,5.20263 1.539,1.57759 3.40838,2.90522 5.54552,3.44368 0.69952,0.17625 1.42424,0.26624 2.14414,0.22005 0.7199,-0.0462 1.43543,-0.23123 2.06659,-0.58054 1.06738,-0.59074 1.84784,-1.63661 2.22754,-2.79597 0.3797,-1.15935 0.37762,-2.4232 0.11595,-3.61475 -0.52335,-2.38311 -2.01873,-4.41765 -3.46229,-6.38469 -11.21449,-15.28122 -21.52548,-31.24107 -33.48154,-45.94934 -18.63841,-22.92885 -41.20371,-42.73293 -57.33819,-67.487753 -0.95304,-1.462233 -1.88582,-2.946399 -2.59601,-4.540778 -0.71019,-1.594379 -1.19485,-3.311292 -1.20935,-5.05663 -0.0243,-2.927906 1.30765,-5.780559 3.34471,-7.883803 2.03705,-2.103244 4.73295,-3.494706 7.55539,-4.273844 4.64181,-1.281378 9.6557,-0.954714 14.22705,0.558918 4.57136,1.513631 8.71366,4.176072 12.26619,7.4269 7.23747,6.622817 11.9773,15.51397 15.88344,24.51312 2.03834,4.69603 3.93675,9.55425 7.1819,13.51362 1.62257,1.97969 3.57952,3.71219 5.85226,4.8897 2.27274,1.17752 4.8729,1.78123 7.41804,1.5089 2.76009,-0.29533 5.32634,-1.59127 7.59051,-3.19714 2.26418,-1.60587 4.28175,-3.52944 6.42902,-5.28857 12.00905,-9.83825 27.45562,-14.12714 42.01442,-19.5169 26.74421,-9.90088 51.61796,-24.148437 76.81871,-37.497681 9.64826,-5.110838 19.39974,-10.121071 28.28123,-16.471556 9.6315,-6.88673 18.1104,-15.258085 27.5386,-22.420513 9.4283,-7.162428 20.1867,-13.225343 31.9662,-14.423311 1.8212,-0.185213 3.7024,-0.246187 5.4398,0.330435 1.6279,0.540286 3.047,1.625422 4.1194,2.964087 1.0724,1.338664 1.8108,2.923249 2.2996,4.567368 0.9774,3.288239 0.9739,6.773028 1.2534,10.192075 1.1611,14.205346 7.2751,27.542213 14.4377,39.864422 7.1626,12.322209 15.4764,23.999309 21.7029,36.820034 6.5194,13.42392 10.6353,27.86332 14.7013,42.22203 12.9674,45.79346 25.7722,91.7104 34.4959,138.49813 13.0348,69.90974 16.851,141.15055 22.7959,212.01617 0.3702,4.41243 0.746,8.88723 -0.056,13.24193 -1.0703,5.81154 -4.1824,11.05952 -7.8173,15.71862 -3.6348,4.6591 -7.8306,8.8548 -11.5216,13.46953 -11.2172,14.02435 -17.4188,31.53278 -20.3395,49.25222 -2.9206,17.71943 -2.7392,35.78885 -2.3629,53.74343 1.5323,73.10736 6.1668,146.14963 13.8869,218.86437"
       id="path897" />
  </g>
</svg>
