<?xml version="1.0" encoding="UTF-8" standalone="no"?>
<!-- Created with Inkscape (http://www.inkscape.org/) -->

<svg
   version="1.1"
   id="svg2"
   width="1893"
   height="1024"
   viewBox="0 0 1893 1024"
   sodipodi:docname="frame_0048.svg"
   inkscape:version="1.1.2 (0a00cf5339, 2022-02-04)"
   xmlns:inkscape="http://www.inkscape.org/namespaces/inkscape"
   xmlns:sodipodi="http://sodipodi.sourceforge.net/DTD/sodipodi-0.dtd"
   xmlns:xlink="http://www.w3.org/1999/xlink"
   xmlns="http://www.w3.org/2000/svg"
   xmlns:svg="http://www.w3.org/2000/svg">
  <defs
     id="defs6">
    <inkscape:path-effect
       effect="spiro"
       id="path-effect899"
       is_visible="true"
       lpeversion="1" />
    <inkscape:path-effect
       effect="spiro"
       id="path-effect862"
       is_visible="true"
       lpeversion="1" />
  </defs>
  <sodipodi:namedview
     id="namedview4"
     pagecolor="#ffffff"
     bordercolor="#666666"
     borderopacity="1.0"
     inkscape:pageshadow="2"
     inkscape:pageopacity="0.0"
     inkscape:pagecheckerboard="0"
     showgrid="false"
     inkscape:zoom="0.6703645"
     inkscape:cx="1460.3995"
     inkscape:cy="406.49527"
     inkscape:window-width="1850"
     inkscape:window-height="1016"
     inkscape:window-x="70"
     inkscape:window-y="27"
     inkscape:window-maximized="1"
     inkscape:current-layer="g8" />
  <g
     inkscape:groupmode="layer"
     inkscape:label="Image"
     id="g8">
    
    <path
       style="font-variation-settings:normal;opacity:1;vector-effect:none;fill:none;fill-opacity:1;stroke:#c86487;stroke-width:1px;stroke-linecap:butt;stroke-linejoin:miter;stroke-miterlimit:4;stroke-dasharray:none;stroke-dashoffset:0;stroke-opacity:1;-inkscape-stroke:none;stop-color:#000000;stop-opacity:1"
       d="M 1160.641,862.21806 635.66549,862.11601"
       id="path860"
       inkscape:path-effect="#path-effect862"
       inkscape:original-d="M 1160.641,862.21806 635.66549,862.11601" />
    <path
       style="font-variation-settings:normal;opacity:1;vector-effect:none;fill:none;fill-opacity:1;stroke:#c86487;stroke-width:1px;stroke-linecap:butt;stroke-linejoin:miter;stroke-miterlimit:4;stroke-dasharray:none;stroke-dashoffset:0;stroke-opacity:1;-inkscape-stroke:none;stop-color:#000000;stop-opacity:1"
       d="M 635.66549,862.11601 C 625.19615,826.63834 616.76216,790.56015 610.4188,754.11795 600.16216,695.19416 595.4104,634.58745 605.55464,575.6442 c 6.31618,-36.70024 18.30647,-72.20816 25.36369,-108.77314 3.66283,-18.97789 6.09446,-38.54851 14.53604,-55.93576 6.50951,-13.40774 16.32102,-24.91762 23.84685,-37.78243 10.75417,-18.3834 16.62944,-39.13486 22.61221,-59.57521 6.19447,-21.16363 12.63898,-42.32236 21.54207,-62.49674 3.71678,-8.42223 7.91724,-16.87295 8.82484,-26.03399 0.64821,-6.54288 -0.42679,-13.13481 -1.8745,-19.54836 -1.71006,-7.57579 -3.96238,-15.23375 -3.21109,-22.96373 0.75319,-7.74959 4.61273,-15.08916 10.32025,-20.38517 5.46422,-5.07025 12.37977,-8.2311 19.12135,-11.41171 13.02705,-6.14602 25.9245,-12.70492 37.72346,-20.96701 2.85955,-2.00237 5.69657,-4.12728 8.96415,-5.35587 1.63379,-0.6143 3.36772,-0.99509 5.11316,-0.98539 1.74543,0.01 3.50388,0.42084 5.00945,1.30395 2.2884,1.34229 3.82022,3.63364 5.42,5.75006 6.17856,8.17389 14.35766,14.63674 20.7972,22.60665 4.49779,5.56671 8.08929,11.79636 12.07103,17.74313 10.6712,15.93755 24.14096,29.82646 38.43098,42.62002 2.67362,2.39363 5.44161,4.83183 7.07738,8.02588 0.98714,1.92751 1.53337,4.08279 2.74735,5.87611 0.60699,0.89667 1.38765,1.6963 2.3485,2.19551 0.96085,0.4992 2.11395,0.67591 3.14584,0.34783 0.80745,-0.25672 1.50278,-0.80681 2.02031,-1.47766 0.51753,-0.67085 0.86669,-1.45874 1.11575,-2.26859 0.63493,-2.06456 0.63526,-4.29838 0.15671,-6.40468 -0.47855,-2.10631 -1.42358,-4.08969 -2.62482,-5.88485 -2.40248,-3.5903 -5.77415,-6.39977 -9.03675,-9.23131 -10.49818,-9.11114 -20.40319,-19.05141 -28.19472,-30.563 -7.02415,-10.37783 -12.26239,-21.92874 -19.8519,-31.90058 -2.76499,-3.63291 -5.84372,-7.05929 -8.09419,-11.03152 -1.12523,-1.98611 -2.03724,-4.10628 -2.54207,-6.33248 -0.50484,-2.22619 -0.59419,-4.56364 -0.0974,-6.79164 0.30808,-1.38158 0.83504,-2.70315 1.25373,-4.05532 0.41869,-1.35217 0.73173,-2.76735 0.59219,-4.17597 -0.21271,-2.14731 -1.48635,-4.09962 -3.17377,-5.44453 -1.68741,-1.34492 -3.75922,-2.13299 -5.86332,-2.61147 -2.72243,-0.61909 -5.52963,-0.75009 -8.29074,-1.16388 -2.7611,-0.41378 -5.55552,-1.147021 -7.80433,-2.801638 -1.92818,-1.418703 -3.36235,-3.473846 -4.11867,-5.745097 -0.75631,-2.27125 -0.84446,-4.747777 -0.34452,-7.088855 0.9999,-4.682156 4.31262,-8.670983 8.40363,-11.158149 3.09782,-1.883343 6.66661,-2.990688 10.28765,-3.168225 3.62104,-0.177536 7.2868,0.577513 10.53254,2.192627 5.30808,2.641351 9.2195,7.354697 13.26336,11.69055 4.92023,5.275511 10.40666,10.392708 12.95983,17.139637 1.42829,3.77435 1.84634,7.85044 2.9658,11.72763 1.62181,5.61702 4.9019,10.94906 9.89287,13.99396 4.97914,3.03768 11.46931,3.47948 16.78052,1.069 3.77027,-1.71112 6.81778,-4.68643 9.51321,-7.82928 2.69543,-3.14285 5.13392,-6.52232 8.12419,-9.38608 4.26764,-4.08708 9.53782,-6.9995 15.0049,-9.24183 5.46707,-2.242325 11.16747,-3.852545 16.79926,-5.641342 19.56836,-6.215394 38.38796,-14.618258 56.6246,-24.05101 15.79606,-8.170388 31.18886,-17.125602 47.22266,-24.81902 22.0457,-10.578085 45.9782,-19.240468 62.7966,-36.990113 0.5475,-0.5778574 1.1112,-1.1817795 1.8492,-1.4801311 0.4196,-0.1696085 0.8805,-0.2310544 1.3314,-0.191916 0.4508,0.039138 0.8913,0.1776938 1.2906,0.3907193 0.7986,0.426051 1.4191,1.1417068 1.8333,1.9464548 0.8285,1.609494 0.8544,3.49335 0.9839,5.298917 0.8011,11.169016 6.1445,21.433092 11.3216,31.362135 11.4246,21.910741 22.6157,44.087799 30.1236,67.629936 6.8213,21.38906 10.5127,43.62274 14.9192,65.63648 8.86,44.26256 20.6899,87.96575 27.157,132.64069 7.9354,54.81791 7.7078,110.4657 12.4719,165.64974 0.7539,8.73252 1.6335,17.50792 0.9406,26.24549 -0.1956,2.46678 -0.5191,4.9365 -1.2318,7.30616 -0.7128,2.36966 -1.8294,4.6458 -3.4767,6.49229 -1.9077,2.13837 -4.4388,3.61482 -7.001,4.89826 -2.5622,1.28345 -5.2157,2.41903 -7.5815,4.03609 -4.5688,3.12282 -7.819,7.90204 -9.9031,13.02873 -2.0841,5.12669 -3.0849,10.62292 -3.8784,16.09984 -1.184,8.17233 -1.9356,16.40085 -2.6133,24.63065 -1.9132,23.23353 -3.2418,46.51153 -4.3845,69.79568 -3.4383,70.06031 -5.1953,140.20313 -5.269,210.34773"
       id="path897"
       inkscape:path-effect="#path-effect899"
       inkscape:original-d="m 635.66549,862.11601 c -8.41456,-35.99835 -16.83013,-71.9977 -25.24669,-107.99806 -8.41656,-36.00035 -3.24177,-118.9815 -4.86416,-178.47375 -1.62238,-59.49226 16.91013,-72.51443 25.36369,-108.77314 8.45356,-36.25871 9.69169,-37.2895 14.53604,-55.93576 4.84435,-18.64625 15.8989,-25.18728 23.84685,-37.78243 7.94796,-12.59514 15.07581,-39.7158 22.61221,-59.57521 7.5364,-19.8594 14.36238,-41.66349 21.54207,-62.49674 7.17969,-20.83325 5.88423,-17.355 8.82484,-26.03399 2.94061,-8.679 -1.24867,-13.03124 -1.8745,-19.54836 -0.62584,-6.51712 -2.13973,-15.30816 -3.21109,-22.96373 -1.07136,-7.65558 6.88117,-13.58911 10.32025,-20.38517 3.43909,-6.79605 12.74857,-7.60681 19.12135,-11.41171 6.37279,-3.80491 25.14997,-13.97701 37.72346,-20.96701 12.57348,-6.99001 12.7255,-3.35721 19.08676,-5.03731 6.36125,-1.6801 3.61433,3.83438 5.42,5.75006 1.80566,1.91569 13.8658,15.0721 20.7972,22.60665 6.9314,7.53455 8.04835,11.82975 12.07103,17.74313 4.02268,5.91337 25.62165,28.41435 38.43098,42.62002 12.80933,14.20568 4.71925,5.35159 7.07738,8.02588 2.35812,2.67429 5.49546,5.61397 8.24169,8.41945 2.74624,2.80548 2.09171,-2.4965 3.13606,-3.74625 1.04435,-1.24975 -7.66891,-14.34623 -11.50486,-21.52084 -3.83595,-7.17462 -18.79548,-20.37433 -28.19472,-30.563 -9.39924,-10.18866 -13.2336,-21.26605 -19.8519,-31.90058 -6.6183,-10.63453 -7.15474,-16.10276 -10.73362,-24.15564 -3.57887,-8.05289 1.23161,-5.48653 1.84592,-8.23129 0.6143,-2.74476 -6.02373,-5.36967 -9.03709,-8.056 -3.01336,-2.686339 -10.72905,-2.64268 -16.09507,-3.965518 -5.36603,-1.322838 2.62796,-15.993734 3.94044,-23.992101 1.31248,-7.998368 13.88113,-0.649399 20.82019,-0.975598 6.93907,-0.326199 8.84324,7.7947 13.26336,11.69055 4.42012,3.895849 8.64089,11.427426 12.95983,17.139637 4.31895,5.71221 1.9782,7.81942 2.9658,11.72763 0.9876,3.9082 6.59624,9.3303 9.89287,13.99396 3.29662,4.66365 11.18801,0.71367 16.78052,1.069 5.59251,0.35534 11.75926,-11.47591 17.6374,-17.21536 5.87813,-5.73946 21.20377,-9.92112 31.80416,-14.883172 10.60039,-4.962056 37.75073,-16.033006 56.6246,-24.05101 18.87386,-8.018003 31.48276,-16.545013 47.22266,-24.81902 15.7399,-8.274007 41.8654,-24.659075 62.7966,-36.990113 20.9312,-12.3310381 1.2338,-0.9857542 1.8492,-1.4801311 0.6154,-0.494377 3.6271,4.9637831 5.4392,7.4441751 1.812,2.480392 7.5487,20.90909 11.3216,31.362135 3.7729,10.453045 20.0834,45.087621 30.1236,67.629936 10.0402,22.54231 9.9472,43.75865 14.9192,65.63648 4.9721,21.87783 18.1057,88.42813 27.157,132.64069 9.0513,44.21257 8.3156,110.43416 12.4719,165.64974 4.1563,55.21558 0.6281,17.49799 0.9406,26.24549 0.3125,8.74749 -3.138,9.19997 -4.7085,13.79845 -1.5705,4.59848 -9.7206,5.95723 -14.5825,8.93435 -4.8618,2.97712 -9.1866,19.42004 -13.7815,29.12857 -4.5948,9.70852 -1.7412,16.42143 -2.6133,24.63065 -0.8721,8.20922 -2.922,46.53145 -4.3845,69.79568 -1.4624,23.26423 -3.5117,140.23282 -5.269,210.34773" />
  </g>
</svg>
