<?xml version="1.0" encoding="UTF-8" standalone="no"?>
<!-- Created with Inkscape (http://www.inkscape.org/) -->

<svg
   version="1.1"
   id="svg2"
   width="1893"
   height="1024"
   viewBox="0 0 1893 1024"
   xmlns:xlink="http://www.w3.org/1999/xlink"
   xmlns="http://www.w3.org/2000/svg"
   xmlns:svg="http://www.w3.org/2000/svg">
  <defs
     id="defs6" />
  <g
     id="g8">
    
    <path
       style="font-variation-settings:normal;opacity:1;vector-effect:none;fill:none;fill-opacity:1;stroke:#c86487;stroke-width:1px;stroke-linecap:butt;stroke-linejoin:miter;stroke-miterlimit:4;stroke-dasharray:none;stroke-dashoffset:0;stroke-opacity:1;-inkscape-stroke:none;stop-color:#000000;stop-opacity:1"
       d="M 1160.9148,862.60064 635.55559,862.29518"
       id="path860" />
    <path
       style="font-variation-settings:normal;opacity:1;vector-effect:none;fill:none;fill-opacity:1;stroke:#c86487;stroke-width:1px;stroke-linecap:butt;stroke-linejoin:miter;stroke-miterlimit:4;stroke-dasharray:none;stroke-dashoffset:0;stroke-opacity:1;-inkscape-stroke:none;stop-color:#000000;stop-opacity:1"
       d="m 635.55559,862.29518 c -15.7593,-67.12644 -25.61811,-135.63703 -29.42555,-204.48336 -2.89417,-52.33255 -2.19103,-105.62035 12.21494,-156.0142 2.83904,-9.9313 6.19832,-19.70507 9.57451,-29.46684 8.8696,-25.64519 17.87384,-51.26121 28.24482,-76.33686 11.50462,-27.81666 24.70774,-55.01543 33.62413,-83.76645 7.93094,-25.57344 12.5162,-52.47245 24.93635,-76.1925 2.49282,-4.7608 5.33254,-9.485 6.25922,-14.77846 0.89753,-5.12696 -0.0777,-10.392 -1.37741,-15.43205 -1.29968,-5.04005 -2.9337,-10.03637 -3.38088,-15.22205 -0.52304,-6.06531 0.62126,-12.23101 3.01936,-17.8266 2.3981,-5.59559 6.02773,-10.62804 10.37803,-14.88673 12.21872,-11.96142 29.2141,-17.31428 44.53959,-24.89728 6.27914,-3.1069 12.40611,-6.65882 19.12991,-8.62633 3.36189,-0.98375 6.8637,-1.55997 10.36448,-1.43875 3.50077,0.12121 7.00449,0.957 10.0642,2.66238 5.36567,2.99064 8.94431,8.34383 12.03868,13.65035 6.27972,10.76906 11.44933,22.20032 18.47115,32.50088 9.5716,14.04092 22.30313,25.58073 33.46863,38.39067 2.35606,2.70306 4.68049,5.49848 7.62194,7.54918 0.89893,0.62671 1.87135,1.18757 2.94429,1.41038 0.53647,0.11141 1.09392,0.13558 1.63332,0.0394 0.53941,-0.0962 1.06031,-0.31529 1.4873,-0.65865 0.41498,-0.33371 0.7344,-0.77903 0.94731,-1.26713 0.2129,-0.4881 0.3215,-1.01821 0.35033,-1.54994 0.0576,-1.06347 -0.19825,-2.11798 -0.49771,-3.14004 -1.7931,-6.1198 -5.19736,-11.67097 -9.22916,-16.61179 -4.03181,-4.94083 -8.69726,-9.32098 -13.34192,-13.69069 -7.82867,-7.36523 -15.6781,-14.78704 -22.23145,-23.30692 -6.55335,-8.51988 -11.8092,-18.25665 -13.77036,-28.82493 -1.08437,-5.84343 -1.1532,-11.86708 -2.64666,-17.61956 -0.93496,-3.60127 -2.46454,-7.12042 -4.96805,-9.87282 -1.25175,-1.3762 -2.73968,-2.54694 -4.40915,-3.367724 -1.66947,-0.820785 -3.52246,-1.286165 -5.38273,-1.271289 -2.3672,0.01893 -4.65842,0.800378 -7.00754,1.093022 -1.17456,0.146322 -2.37669,0.168719 -3.53247,-0.08659 -1.15578,-0.255314 -2.26707,-0.803368 -3.07026,-1.672785 -0.82993,-0.898361 -1.29213,-2.103128 -1.39233,-3.322061 -0.1002,-1.218934 0.14634,-2.450696 0.59858,-3.58706 0.90446,-2.272727 2.58214,-4.133077 4.14139,-6.017775 2.19419,-2.652162 4.22204,-5.458203 6.69105,-7.856631 2.46901,-2.398427 5.46334,-4.403751 8.84915,-5.024031 3.01891,-0.553064 6.18055,0.0405 8.96235,1.337144 2.7818,1.296649 5.2077,3.266999 7.32875,5.485289 4.24212,4.436581 7.32835,9.869633 11.54368,14.331665 2.00799,2.12551 4.25722,4.014194 6.23913,6.164047 1.98191,2.149853 3.72142,4.626513 4.43252,7.462733 0.48522,1.93528 0.4727,3.95437 0.54226,5.94834 0.0696,1.99396 0.23504,4.03102 1.0411,5.85612 1.17387,2.65791 3.64281,4.61277 6.38535,5.57243 2.74254,0.95966 5.73781,1.00193 8.61219,0.57717 5.06448,-0.7484 9.82512,-2.89122 14.2678,-5.43515 4.44268,-2.54393 8.63462,-5.50515 13.05919,-8.08046 16.6675,-9.7013 35.98231,-13.595567 54.01651,-20.428452 15.83886,-6.001103 30.71258,-14.284861 46.33975,-20.81742 15.427,-6.448894 31.9842,-11.423662 44.5989,-22.39867 6.6019,-5.743804 11.8274,-12.902206 18.1941,-18.905722 3.1834,-3.001758 6.6714,-5.72333 10.5771,-7.695569 3.9057,-1.972239 8.2533,-3.176165 12.6272,-3.060378 6.7081,0.177578 13.0486,3.451657 18.0648,7.908913 8.8629,7.875277 13.9348,19.127506 17.7631,30.348706 3.6939,10.827298 6.4755,21.970691 10.7203,32.594104 6.22,15.566668 15.491,29.789718 21.459,45.454708 8.6116,22.60407 9.9981,47.18696 13.6709,71.09542 5.7569,37.47488 17.2998,73.96934 21.4169,111.65963 5.5159,50.49543 -2.3086,102.78717 12.1492,151.482 2.3907,8.05211 5.3821,15.95695 6.9013,24.21794 1.5193,8.26098 1.4693,17.08969 -2.0563,24.71346 -1.8665,4.03615 -4.6739,7.63013 -8.1202,10.44042 -3.4688,2.82865 -7.525,4.83961 -11.6237,6.63792 -6.454,2.83165 -13.1333,5.20917 -19.2572,8.69764 -6.1239,3.48847 -11.774,8.25498 -14.8521,14.59511 -2.6754,5.51068 -3.2292,11.84592 -2.7333,17.95161 0.4959,6.10569 1.9863,12.07907 3.2249,18.07835 4.1196,19.9542 5.4759,40.36727 6.4613,60.71843 3.3655,69.50564 2.5213,139.21488 -2.5266,208.61863"
       id="path897" />
  </g>
</svg>
