<?xml version="1.0" encoding="UTF-8" standalone="no"?>
<!-- Created with Inkscape (http://www.inkscape.org/) -->

<svg
   version="1.1"
   id="svg2"
   width="1893"
   height="1024"
   viewBox="0 0 1893 1024"
   sodipodi:docname="frame_0025.svg"
   inkscape:version="1.1.2 (0a00cf5339, 2022-02-04)"
   xmlns:inkscape="http://www.inkscape.org/namespaces/inkscape"
   xmlns:sodipodi="http://sodipodi.sourceforge.net/DTD/sodipodi-0.dtd"
   xmlns:xlink="http://www.w3.org/1999/xlink"
   xmlns="http://www.w3.org/2000/svg"
   xmlns:svg="http://www.w3.org/2000/svg">
  <defs
     id="defs6">
    <inkscape:path-effect
       effect="spiro"
       id="path-effect899"
       is_visible="true"
       lpeversion="1" />
    <inkscape:path-effect
       effect="spiro"
       id="path-effect862"
       is_visible="true"
       lpeversion="1" />
  </defs>
  <sodipodi:namedview
     id="namedview4"
     pagecolor="#ffffff"
     bordercolor="#666666"
     borderopacity="1.0"
     inkscape:pageshadow="2"
     inkscape:pageopacity="0.0"
     inkscape:pagecheckerboard="0"
     showgrid="false"
     inkscape:zoom="0.47401928"
     inkscape:cx="1029.494"
     inkscape:cy="716.21559"
     inkscape:window-width="1850"
     inkscape:window-height="1016"
     inkscape:window-x="70"
     inkscape:window-y="27"
     inkscape:window-maximized="1"
     inkscape:current-layer="g8" />
  <g
     inkscape:groupmode="layer"
     inkscape:label="Image"
     id="g8">
    
    <path
       style="font-variation-settings:normal;opacity:1;vector-effect:none;fill:none;fill-opacity:1;stroke:#c86487;stroke-width:1px;stroke-linecap:butt;stroke-linejoin:miter;stroke-miterlimit:4;stroke-dasharray:none;stroke-dashoffset:0;stroke-opacity:1;-inkscape-stroke:none;stop-color:#000000;stop-opacity:1"
       d="M 1160.9213,862.41937 635.64088,862.4045"
       id="path860"
       inkscape:path-effect="#path-effect862"
       inkscape:original-d="M 1160.9213,862.41937 635.64088,862.4045" />
    <path
       style="font-variation-settings:normal;opacity:1;vector-effect:none;fill:none;fill-opacity:1;stroke:#c86487;stroke-width:1px;stroke-linecap:butt;stroke-linejoin:miter;stroke-miterlimit:4;stroke-dasharray:none;stroke-dashoffset:0;stroke-opacity:1;-inkscape-stroke:none;stop-color:#000000;stop-opacity:1"
       d="M 635.64088,862.4045 C 604.85439,796.88027 588.39959,724.66765 587.7593,652.27412 c -0.47866,-54.11903 7.84206,-108.37772 25.34177,-159.59158 15.38326,-45.01997 37.82189,-87.80212 47.79727,-134.32023 3.70406,-17.27312 5.67362,-35.00342 11.47205,-51.69051 4.84538,-13.94436 12.26179,-26.85054 17.75838,-40.55129 2.49423,-6.21708 4.60325,-12.64979 5.34888,-19.30692 0.74563,-6.65712 0.0661,-13.58704 -2.80454,-19.63953 -1.94685,-4.10475 -4.82641,-7.68117 -7.31924,-11.4792 -2.49282,-3.79803 -4.65976,-8.01029 -4.88588,-12.5477 -0.23171,-4.64963 1.62014,-9.20162 4.24051,-13.04953 2.62038,-3.8479 5.99016,-7.1125 9.22069,-10.46458 6.22174,-6.45584 12.00536,-13.33038 18.38629,-19.62893 6.38092,-6.29855 13.44113,-12.06484 21.57723,-15.83204 10.61409,-4.91457 22.59119,-6.20238 34.2805,-5.78791 7.05783,0.25025 14.30478,1.16109 20.4754,4.59607 5.34714,2.97658 9.52022,7.64088 13.53543,12.25933 14.8335,17.06205 28.98718,34.70283 43.64793,51.91355 5.38039,6.31621 10.83675,12.58265 16.77499,18.3775 1.24918,1.21901 2.55919,2.44307 4.1745,3.10431 0.80765,0.33062 1.68481,0.51158 2.55558,0.45351 0.87077,-0.0581 1.73419,-0.36393 2.40338,-0.9241 0.78374,-0.65607 1.26532,-1.63432 1.40924,-2.64623 0.14392,-1.01191 -0.0335,-2.05358 -0.40759,-3.00477 -0.74809,-1.90238 -2.22537,-3.40719 -3.62874,-4.89355 -13.41647,-14.20993 -23.11908,-31.427 -33.32661,-48.09223 -10.20753,-16.66523 -21.32281,-33.25279 -36.72298,-45.28435 -4.10635,-3.20813 -8.48548,-6.06471 -12.47435,-9.4178 -3.98887,-3.35308 -7.6303,-7.28253 -9.76814,-12.03478 -1.29513,-2.878988 -2.01159,-6.028455 -1.98658,-9.185244 0.025,-3.156789 0.80033,-6.317196 2.32896,-9.079302 1.17423,-2.121728 2.80461,-4.015213 4.8404,-5.332826 2.03579,-1.317613 4.48803,-2.035882 6.90476,-1.836035 1.73721,0.143655 3.41805,0.751909 4.9215,1.634065 1.50344,0.882157 2.83639,2.033205 4.03676,3.297189 2.40074,2.527967 4.27968,5.50096 6.52839,8.165067 5.63163,6.671931 13.40269,11.212516 19.35165,17.603116 3.68742,3.96117 6.62164,8.57756 10.34987,12.50036 1.86411,1.9614 3.93404,3.75059 6.2808,5.09769 2.34677,1.3471 4.98386,2.24218 7.68743,2.35492 2.49313,0.10397 4.98802,-0.45883 7.28467,-1.43448 2.29665,-0.97566 4.40435,-2.35609 6.35594,-3.91101 3.90318,-3.10985 7.20064,-6.91516 11.02486,-10.12161 9.94615,-8.33945 22.79347,-12.15168 35.11051,-16.245944 28.76248,-9.560829 56.79122,-21.817933 82.04023,-38.586282 20.3239,-13.497482 38.7906,-29.869817 60.2912,-41.400932 1.7897,-0.959834 3.6092,-1.889378 5.5472,-2.496491 1.9379,-0.607112 4.0138,-0.882258 6.0102,-0.509834 2.5382,0.4735 4.7988,1.969112 6.5918,3.827027 1.793,1.857914 3.167,4.073168 4.4787,6.297153 10.021,16.990697 17.195,35.482059 24.1308,53.94824 10.4202,27.743083 20.4071,55.647293 30.178,83.625653 12.6658,36.26795 25.0079,72.8073 32.1956,110.54488 14.1576,74.33229 8.0375,151.79265 26.3362,225.2153 0.4918,1.97342 1.0042,4.02083 0.6215,6.01828 -0.3886,2.02815 -1.669,3.78256 -3.1516,5.22001 -1.4826,1.43745 -3.1883,2.62457 -4.7245,4.00457 -6.152,5.52633 -9.1491,13.6835 -11.5293,21.60318 -10.6284,35.36387 -13.3927,72.58032 -14.694,109.48388 -2.5808,73.19109 0.3496,146.57588 8.7581,219.32815"
       id="path897"
       inkscape:path-effect="#path-effect899"
       inkscape:original-d="M 635.64088,862.4045 C 619.68135,792.36204 603.72083,722.31858 587.7593,652.27412 c -15.96153,-70.04446 16.89551,-106.39339 25.34177,-159.59158 8.44625,-53.19819 31.86585,-89.54582 47.79727,-134.32023 15.93142,-44.77442 7.64903,-34.45934 11.47205,-51.69051 3.82301,-17.23117 11.83992,-27.03319 17.75838,-40.55129 5.91846,-13.51809 1.69723,-25.9633 2.54434,-38.94645 0.84711,-12.98315 -8.13574,-16.01693 -12.20512,-24.0269 -4.06937,-8.00996 8.97513,-15.67507 13.4612,-23.51411 4.48607,-7.83904 26.64334,-23.63965 39.96352,-35.46097 13.32017,-11.82132 22.85466,-3.85761 34.2805,-5.78791 11.42583,-1.93031 13.65126,3.06505 20.4754,4.59607 6.82413,1.53102 9.02462,8.17388 13.53543,12.25933 4.5108,4.08544 29.09962,34.61003 43.64793,51.91355 14.54832,17.30351 11.18433,12.25266 16.77499,18.3775 5.59066,6.12483 6.08998,1.75681 9.13346,2.63372 3.04349,0.87691 -1.75039,-7.0287 -2.62709,-10.54455 -0.8767,-3.51585 -46.69873,-62.25006 -70.04959,-93.37658 -23.35086,-31.126527 -14.82733,-14.30072 -22.24249,-21.45258 -7.41516,-7.151859 0.22926,-12.175364 0.34238,-18.264546 0.11313,-6.089182 7.8311,-4.77824 11.74516,-7.168861 3.91405,-2.39062 10.32543,8.731881 15.48665,13.096321 5.16122,4.364441 12.9021,11.736406 19.35165,17.603116 6.44956,5.8667 16.21307,13.30298 24.3181,19.95297 8.10503,6.64999 16.44465,-10.3104 24.66547,-15.4671 8.22082,-5.1567 23.40801,-10.82963 35.11051,-16.245944 11.7025,-5.416314 54.69448,-25.723188 82.04023,-38.586282 27.3457,-12.863094 40.1952,-27.599621 60.2912,-41.400932 20.0961,-13.80131 7.706,-2.003217 11.5574,-3.006325 3.8515,-1.003109 7.3813,6.750453 11.0705,10.12418 3.6891,3.373727 16.0882,35.966494 24.1308,53.94824 8.0427,17.981747 20.1197,55.751433 30.178,83.625653 10.0583,27.87421 21.4648,73.69759 32.1956,110.54488 10.7309,36.84729 17.5585,150.14453 26.3362,225.2153 8.7777,75.07076 0.4153,4.01319 0.6215,6.01828 0.2062,2.0051 -5.2497,6.15072 -7.8761,9.22458 -2.6263,3.07386 -7.6852,14.40312 -11.5293,21.60318 -3.8442,7.20006 -9.795,72.99025 -14.694,109.48388 -4.899,36.49362 5.8397,146.21977 8.7581,219.32815" />
  </g>
</svg>
