<?xml version="1.0" encoding="UTF-8" standalone="no"?>
<!-- Created with Inkscape (http://www.inkscape.org/) -->

<svg
   version="1.1"
   id="svg2"
   width="1893"
   height="1024"
   viewBox="0 0 1893 1024"
   sodipodi:docname="frame_0005.svg"
   inkscape:version="1.1.2 (0a00cf5339, 2022-02-04)"
   xmlns:inkscape="http://www.inkscape.org/namespaces/inkscape"
   xmlns:sodipodi="http://sodipodi.sourceforge.net/DTD/sodipodi-0.dtd"
   xmlns:xlink="http://www.w3.org/1999/xlink"
   xmlns="http://www.w3.org/2000/svg"
   xmlns:svg="http://www.w3.org/2000/svg">
  <sodipodi:namedview
     id="namedview8"
     pagecolor="#ffffff"
     bordercolor="#666666"
     borderopacity="1.0"
     inkscape:pageshadow="2"
     inkscape:pageopacity="0.0"
     inkscape:pagecheckerboard="0"
     showgrid="false"
     inkscape:zoom="2.6624406"
     inkscape:cx="941.61725"
     inkscape:cy="110.98839"
     inkscape:window-width="1850"
     inkscape:window-height="1016"
     inkscape:window-x="70"
     inkscape:window-y="27"
     inkscape:window-maximized="1"
     inkscape:current-layer="g8" />
  <defs
     id="defs6" />
  <g
     id="g8">
    
    <path
       style="fill:none;stroke:#c86487;stroke-width:1px;stroke-linecap:butt;stroke-linejoin:miter;stroke-opacity:1"
       d="m 635.71271,862.59762 525.07039,0.005"
       id="path860"
       sodipodi:nodetypes="cc" />
    <path
       style="fill:none;stroke:#c86487;stroke-width:1px;stroke-linecap:butt;stroke-linejoin:miter;stroke-opacity:1"
       d="m 635.71271,862.59762 c -9.26006,-47.38478 -38.97124,-69.65266 -36.12436,-117.84977 2.51101,-42.51099 -7.12585,-105.15827 -5.94691,-147.72704 0.97684,-35.27144 -2.13302,-71.26688 7.24708,-105.28221 5.70303,-20.68106 15.83562,-39.83763 23.2464,-59.96997 7.05476,-19.16516 11.69934,-39.35128 21.38697,-57.32967 2.02068,-3.75 4.25528,-7.39176 6.01526,-11.27096 5.09135,-11.22194 7.2522,-21.48321 10.05063,-33.48415 3.68732,-15.81297 1.6045,-16.74481 8.51096,-35.82376 1.35783,-3.75096 13.57759,-20.59431 16.18603,-23.6125 2.60844,-3.01819 4.95028,-6.35832 6.18492,-10.15161 1.14551,-3.51946 1.2917,-7.31711 0.75966,-10.97986 -0.53204,-3.66275 -1.72495,-7.20359 -3.20114,-10.59765 -2.95239,-6.78813 -7.04638,-13.05602 -9.67859,-19.9746 -1.71094,-4.49708 -2.7913,-9.31396 -2.41926,-14.1111 0.6076,-7.83445 5.00876,-14.89396 10.19285,-20.7993 6.70363,-7.63628 14.85941,-13.89283 21.56148,-21.53047 2.63121,-2.9985 5.02801,-6.19856 7.70679,-9.15464 2.67878,-2.95608 5.67963,-5.69277 9.22425,-7.52304 4.00991,-2.07052 8.56232,-2.89808 13.07101,-3.09323 4.5087,-0.19516 9.01819,0.21518 13.52292,0.48691 6.8354,0.41232 13.82823,0.53212 20.25764,2.88911 5.45649,2.00032 10.24455,5.53562 14.38606,9.61269 2.17938,2.14547 4.1982,4.44796 6.1681,6.78723 1.59324,1.89199 3.15803,3.81191 4.87774,5.58972 3.32653,3.4389 7.19617,6.30885 10.61061,9.66048 4.00776,3.93404 7.34786,8.49079 11.16186,12.61296 3.45477,3.73391 7.32656,7.14632 10.08285,11.42187 1.99404,3.09314 3.40898,6.63981 6.08955,9.16138 1.65442,1.55629 3.69632,2.6261 5.54797,3.94161 1.51047,1.07313 2.90365,2.31682 4.49862,3.2598 1.36268,0.80564 2.84784,1.37704 4.30521,1.99511 0.44384,0.18823 0.88986,0.38241 1.36273,0.47633 0.47287,0.0939 0.98211,0.0804 1.41393,-0.13396 0.26775,-0.13293 0.49692,-0.3396 0.66578,-0.58628 0.16885,-0.24668 0.278,-0.53253 0.32736,-0.82736 0.0987,-0.58966 -0.0425,-1.20289 -0.31694,-1.73406 -0.54882,-1.06235 -1.57029,-1.77975 -2.47507,-2.56152 -3.32095,-2.86947 -5.32171,-6.92852 -7.37805,-10.8059 -4.0084,-7.55811 -8.54021,-14.83139 -13.38386,-21.88343 -9.7332,-14.1709 -20.71243,-27.43584 -31.06291,-41.16235 -4.14608,-5.49842 -8.19574,-11.07741 -11.86056,-16.90764 -1.67361,-2.66248 -3.27169,-5.38406 -5.22257,-7.8506 -1.95088,-2.46654 -4.29,-4.69235 -7.11394,-6.07623 -2.2888,-1.12164 -4.81309,-1.65417 -7.22902,-2.46657 -2.41592,-0.81239 -4.83205,-1.98728 -6.36126,-4.02645 -0.84671,-1.12907 -1.37909,-2.47752 -1.62924,-3.866446 -0.25016,-1.38893 -0.22452,-2.818689 -0.023,-4.2155 0.4962,-3.438769 2.15572,-6.801707 4.95567,-8.858795 1.66552,-1.223637 3.65922,-1.942805 5.68768,-2.33852 3.95802,-0.772136 8.11624,-0.346674 11.90586,1.032065 2.93038,1.066129 5.64414,2.688029 8.06824,4.649534 4.31463,3.49127 7.68385,8.00703 11.78915,11.742202 3.39415,3.08814 7.28556,5.63756 10.37536,9.0302 2.56404,2.81535 4.50453,6.13473 6.31416,9.48521 0.87585,1.62162 1.73994,3.30018 1.98224,5.12721 0.17834,1.34475 0.01,2.71684 -0.32165,4.03232 -0.21473,0.85303 -0.49715,1.6882 -0.69988,2.54416 -0.20273,0.85596 -0.32524,1.74332 -0.21305,2.61577 0.15762,1.2258 0.79295,2.38206 1.73642,3.18037 0.94347,0.79831 2.18487,1.23299 3.42052,1.20808 1.64019,-0.0331 3.17544,-0.84069 4.46644,-1.85292 1.291,-1.01224 2.39889,-2.23773 3.64757,-3.30174 4.54158,-3.86993 10.59464,-5.35463 15.87791,-8.12761 6.00542,-3.15201 10.95658,-7.93823 16.21408,-12.22295 5.82782,-4.74952 12.2042,-8.9815 19.3268,-11.38774 4.67878,-1.58064 9.5893,-2.344594 14.36371,-3.607275 8.46636,-2.239082 16.42679,-6.022509 24.50003,-9.415962 7.64891,-3.215093 15.43451,-6.092451 23.15734,-9.125695 10.36863,-4.072417 20.67407,-8.451163 30.15198,-14.304556 6.73547,-4.159708 12.99836,-9.030495 19.44316,-13.627693 6.74171,-4.80896 13.68831,-9.322385 20.61281,-13.864098 5.1786,-3.396603 10.4128,-6.867112 14.5033,-11.517189 1.8269,-2.076869 3.4063,-4.368972 5.3295,-6.357054 1.9232,-1.988083 4.2789,-3.698386 6.9975,-4.208455 1.6408,-0.307856 3.3399,-0.163537 4.971,0.192318 1.6312,0.355855 3.2083,0.918978 4.7889,1.456558 2.6779,0.910812 5.4068,1.764602 7.8309,3.22219 2.7791,1.671028 5.0574,4.084465 6.9016,6.751771 1.8442,2.667307 3.277,5.594386 4.6269,8.542834 4.8738,10.645723 8.7553,21.719534 13.4866,32.429352 4.4942,10.173154 9.7479,20.000965 14.1142,30.229663 9.1559,21.448751 14.2874,44.349521 20.7037,66.770731 7.0666,24.69387 15.7288,48.91295 22.6075,73.65983 6.8944,24.80342 11.9791,50.072 16.66,75.38664 3.8318,20.72222 7.4,41.51231 9.5976,62.47092 3.6944,35.23291 3.5065,70.85203 8.7469,105.88837 1.0375,6.93642 2.2875,14.00336 1.0921,20.91432 -1.2005,6.94043 -4.839,13.29896 -9.536,18.54768 -4.7896,5.35217 -10.6939,9.67941 -15.0573,15.38434 -7.279,9.51686 -9.5529,21.84351 -11.2955,33.69752 -14.5682,99.10086 -13.176,195.59577 16.0419,291.40561"
       id="path954"
       sodipodi:nodetypes="cssssssssssssssssssssssssssssssssssssssssssssssssssssssscssssssssssssssssssssssssssssssssssc" />
  </g>
</svg>
