<?xml version="1.0" encoding="UTF-8" standalone="no"?>
<!-- Created with Inkscape (http://www.inkscape.org/) -->

<svg
   version="1.1"
   id="svg2"
   width="1893"
   height="1024"
   viewBox="0 0 1893 1024"
   sodipodi:docname="frame_0144.svg"
   inkscape:version="1.1.2 (0a00cf5339, 2022-02-04)"
   xmlns:inkscape="http://www.inkscape.org/namespaces/inkscape"
   xmlns:sodipodi="http://sodipodi.sourceforge.net/DTD/sodipodi-0.dtd"
   xmlns:xlink="http://www.w3.org/1999/xlink"
   xmlns="http://www.w3.org/2000/svg"
   xmlns:svg="http://www.w3.org/2000/svg">
  <defs
     id="defs6">
    <inkscape:path-effect
       effect="spiro"
       id="path-effect866"
       is_visible="true"
       lpeversion="1" />
    <inkscape:path-effect
       effect="spiro"
       id="path-effect862"
       is_visible="true"
       lpeversion="1" />
  </defs>
  <sodipodi:namedview
     id="namedview4"
     pagecolor="#ffffff"
     bordercolor="#666666"
     borderopacity="1.0"
     inkscape:pageshadow="2"
     inkscape:pageopacity="0.0"
     inkscape:pagecheckerboard="0"
     showgrid="false"
     inkscape:zoom="1.340729"
     inkscape:cx="969.62175"
     inkscape:cy="356.89539"
     inkscape:window-width="1850"
     inkscape:window-height="1016"
     inkscape:window-x="70"
     inkscape:window-y="27"
     inkscape:window-maximized="1"
     inkscape:current-layer="g8" />
  <g
     inkscape:groupmode="layer"
     inkscape:label="Image"
     id="g8">
    
    <path
       style="font-variation-settings:normal;opacity:1;vector-effect:none;fill:none;fill-opacity:1;stroke:#c86487;stroke-width:1px;stroke-linecap:butt;stroke-linejoin:miter;stroke-miterlimit:4;stroke-dasharray:none;stroke-dashoffset:0;stroke-opacity:1;-inkscape-stroke:none;stop-color:#000000;stop-opacity:1"
       d="M 1161.2666,861.84557 H 635.96124"
       id="path860"
       inkscape:path-effect="#path-effect862"
       inkscape:original-d="m 1161.2666,861.84557 c -175.10078,0.001 -350.20257,0.001 -525.30536,0" />
    <path
       style="font-variation-settings:normal;opacity:1;vector-effect:none;fill:none;fill-opacity:1;stroke:#c86487;stroke-width:1px;stroke-linecap:butt;stroke-linejoin:miter;stroke-miterlimit:4;stroke-dasharray:none;stroke-dashoffset:0;stroke-opacity:1;-inkscape-stroke:none;stop-color:#000000;stop-opacity:1"
       d="m 635.96124,861.84557 c -2.157,-41.51651 -9.35645,-82.76867 -21.3898,-122.56152 -9.357,-30.94248 -21.7535,-61.75305 -21.80324,-94.07933 -0.0371,-24.0801 6.84006,-47.65436 15.40922,-70.15818 8.56915,-22.50383 18.89312,-44.35616 26.22731,-67.2922 5.83677,-18.25319 9.73681,-37.05995 14.68382,-55.5741 6.84091,-25.60207 15.83408,-50.95099 30.43906,-73.0634 6.35662,-9.62412 13.75961,-18.61292 18.97134,-28.90215 7.64464,-15.09241 10.18061,-32.15243 14.20005,-48.5861 6.77289,-27.69126 17.93318,-54.07293 27.86392,-80.79479 3.06189,-8.23901 6.05121,-16.76634 5.76706,-25.55131 -0.16568,-5.12233 -1.44326,-10.13305 -2.55684,-15.13561 -1.11358,-5.00257 -2.07389,-10.1242 -1.59299,-15.2266 0.5448,-5.78047 2.94927,-11.30102 6.40007,-15.97035 3.45079,-4.66932 7.91869,-8.52194 12.76816,-11.71462 16.30859,-10.73686 36.54113,-14.02149 53.26247,-24.10351 4.64957,-2.80343 9.06333,-6.14845 14.21101,-7.87446 2.57383,-0.86301 5.3208,-1.30035 8.01785,-0.99161 2.69706,0.30874 5.34252,1.39841 7.29119,3.28841 2.06276,2.00066 3.22635,4.7399 4.15469,7.45943 0.92833,2.71953 1.68901,5.5315 3.15246,8.00454 1.41844,2.39698 3.43932,4.37465 5.51224,6.2349 2.07291,1.86025 4.2333,3.64493 6.02808,5.77478 3.85327,4.57265 5.77241,10.41151 8.33789,15.81291 4.94766,10.41685 12.41776,19.38156 19.31044,28.62716 5.63189,7.55442 10.91792,15.36047 16.47385,22.97094 1.41739,1.94153 2.86598,3.88539 4.66206,5.48308 1.28314,1.14142 2.79595,2.11846 4.4966,2.35737 0.85032,0.11945 1.7346,0.0462 2.5333,-0.26909 0.7987,-0.31527 1.50686,-0.87977 1.94202,-1.62001 0.31826,-0.5414 0.48584,-1.16352 0.53565,-1.78955 0.0498,-0.62604 -0.0151,-1.25711 -0.13879,-1.87282 -0.38215,-1.90253 -1.31197,-3.6457 -2.27764,-5.32889 -8.64051,-15.06058 -20.93228,-27.63634 -31.45499,-41.44764 -7.61688,-9.99733 -14.42693,-20.90028 -17.60205,-33.06096 -1.08035,-4.13773 -1.72817,-8.38085 -2.09453,-12.64157 -0.31524,-3.66623 -0.43479,-7.40889 -1.65204,-10.88149 -1.27646,-3.641512 -3.7829,-6.862824 -7.07276,-8.879453 -3.37692,-2.069996 -7.41661,-2.82146 -11.37623,-2.920674 -2.6085,-0.06536 -5.21807,0.134676 -7.82672,0.07563 -2.60865,-0.05904 -5.25674,-0.390246 -7.63689,-1.459566 -2.01017,-0.9031 -3.78297,-2.324276 -5.11382,-4.080757 -1.33084,-1.756481 -2.21833,-3.843982 -2.57476,-6.018682 -0.62951,-3.840788 0.44673,-7.906285 2.7948,-11.01023 1.51865,-2.00752 3.53526,-3.6167 5.77115,-4.773077 2.2359,-1.156377 4.68792,-1.86776 7.17996,-2.222961 3.91746,-0.558372 7.89827,-0.24711 11.8533,-0.120643 3.01069,0.09627 6.03019,0.08506 9.02434,0.414538 2.99416,0.329482 5.98713,1.013434 8.6509,2.419788 4.20763,2.22144 7.27992,6.048862 10.58696,9.469737 3.29444,3.407837 7.02092,6.631227 8.87011,10.995536 1.30545,3.081005 1.57483,6.529011 2.93376,9.586801 0.47058,1.058867 1.06771,2.060524 1.48848,3.140151 0.42077,1.079627 0.65957,2.276069 0.37553,3.399442 -0.26304,1.040325 -0.94295,1.915685 -1.57034,2.786235 -0.63766,0.8848 -1.25039,1.82872 -1.45784,2.89944 -0.24347,1.25665 0.0996,2.55867 0.61577,3.73001 0.51615,1.17134 1.20452,2.26132 1.70769,3.4383 0.40667,0.95124 0.70723,1.98316 1.40266,2.74907 0.64494,0.7103 1.58426,1.11786 2.5389,1.21342 0.95464,0.0956 1.92291,-0.10376 2.81166,-0.46514 1.7775,-0.72277 3.22389,-2.05409 4.79154,-3.16059 3.16523,-2.23412 6.86234,-3.56974 10.51858,-4.85108 3.65625,-1.28133 7.36669,-2.55579 10.59967,-4.6907 3.03003,-2.00089 5.53565,-4.689275 8.37154,-6.956945 7.71946,-6.172732 17.51939,-8.981127 27.02954,-11.67366 19.40399,-5.493696 38.88458,-11.134946 57.05608,-19.880837 13.9738,-6.725544 27.0234,-15.217547 39.7286,-24.110152 9.0664,-6.345736 18.1139,-12.981496 28.452,-16.930164 10.3271,-3.944473 21.7664,-5.135273 31.2721,-10.778888 2.5802,-1.531897 4.9694,-3.3673832 7.5396,-4.9160395 2.5702,-1.5486563 5.3852,-2.8242935 8.3754,-3.0749572 3.1625,-0.2651098 6.3174,0.6334021 9.2364,1.8788379 9.1777,3.9157388 16.6,11.2686418 21.9142,19.7138678 3.913,6.218505 6.8049,13.145813 7.8929,20.412033 0.8276,5.527646 0.6057,11.167157 -0.053,16.717476 -0.6835,5.759848 -1.8351,11.577399 -0.97,17.31278 0.6347,4.207667 2.3359,8.185235 4.3438,11.937005 2.0078,3.751771 4.3341,7.325943 6.3458,11.075653 6.5221,12.15669 9.5806,25.83798 12.0678,39.40766 3.3414,18.22986 5.7817,36.61172 8.767,54.90328 5.8047,35.56686 13.6653,70.76671 19.9256,106.25621 3.1457,17.8332 5.8887,35.75143 7.5106,53.78717 1.7164,19.0858 2.1739,38.26452 2.2013,57.42732 0.036,25.22311 -0.6715,50.44042 -1.1853,75.65832 -0.1433,7.03455 -0.3012,14.23081 -2.785,20.81385 -2.7376,7.25584 -8.0829,13.18867 -13.5214,18.71716 -3.6112,3.67093 -7.3206,7.25244 -10.7119,11.12742 -4.3812,5.00606 -8.2252,10.5045 -11.1795,16.46503 -8.7475,17.64885 -9.2297,38.15454 -8.5234,57.83958 0.4685,13.05715 1.3814,26.0949 1.8954,39.15034 2.7413,69.62853 -5.9658,139.69474 -25.6661,206.53444"
       id="path864"
       inkscape:path-effect="#path-effect866"
       inkscape:original-d="m 635.96124,861.84557 c -7.12893,-40.85284 -14.25887,-81.70668 -21.3898,-122.56152 -7.13093,-40.85484 -14.53449,-62.71855 -21.80324,-94.07933 -7.26875,-31.36078 27.75869,-91.63259 41.63653,-137.45038 13.87785,-45.81779 9.79021,-37.0484 14.68382,-55.5741 4.8936,-18.52569 20.29371,-48.70793 30.43906,-73.0634 10.14536,-24.35546 12.64856,-19.2671 18.97134,-28.90215 6.32279,-9.63506 9.4677,-32.38974 14.20005,-48.5861 4.73235,-16.19637 18.57695,-53.86219 27.86392,-80.79479 9.28698,-26.93259 3.84571,-17.03321 5.76706,-25.55131 1.92135,-8.51811 -2.76556,-20.24048 -4.14983,-30.36221 -1.38428,-10.12174 12.77982,-18.45564 19.16823,-27.68497 6.38841,-9.22932 35.50931,-16.068 53.26247,-24.10351 17.75315,-8.0355 19.68103,-3.71744 29.52005,-5.57766 9.83901,-1.86023 4.87243,10.31031 7.30715,15.46397 2.43471,5.15366 7.69455,8.00745 11.54032,12.00968 3.84578,4.00222 5.55959,10.54294 8.33789,15.81291 2.77829,5.26997 12.87463,19.08578 19.31044,28.62716 6.43582,9.54139 10.98357,15.31496 16.47385,22.97094 5.49028,7.65598 3.10904,3.65639 4.66206,5.48308 1.55302,1.82669 5.98228,0.31318 8.97192,0.46827 2.98964,0.15509 0.26557,-2.44058 0.39686,-3.66237 0.13128,-1.22179 -1.51743,-3.55159 -2.27764,-5.32889 -0.76021,-1.7773 -20.969,-27.63076 -31.45499,-41.44764 -10.486,-13.81688 -11.7337,-22.03964 -17.60205,-33.06096 -5.86835,-11.02132 -1.39536,-8.42671 -2.09453,-12.64157 -0.69918,-4.21485 -1.10036,-7.25332 -1.65204,-10.88149 -0.55168,-3.628158 -4.71417,-5.918634 -7.07276,-8.879453 -2.35859,-2.960819 -7.58315,-1.946116 -11.37623,-2.920674 -3.79308,-0.974558 -10.30807,-0.92162 -15.46361,-1.383931 -5.15554,-0.46231 -5.12472,-6.731959 -7.68858,-10.099439 -2.56386,-3.36748 1.8642,-7.339153 2.7948,-11.01023 0.9306,-3.671076 8.63508,-4.663025 12.95111,-6.996038 4.31604,-2.333013 7.9032,0.241655 11.8533,-0.120643 3.9501,-0.362299 11.41122,2.45214 17.67524,2.834326 6.26402,0.382185 4.24295,8.262145 10.58696,9.469737 6.34401,1.207592 13.0374,7.720523 8.87011,10.995536 -24.8197,19.505449 2.99692,5.644964 2.93376,9.586801 -0.0632,3.941835 2.23794,3.598033 1.86401,6.539593 -0.37393,2.941555 -1.0459,1.858495 -1.57034,2.786235 -0.52445,0.92775 -0.97089,1.93396 -1.45784,2.89944 -0.48694,0.96549 1.54997,4.77987 2.32346,7.16831 0.77349,2.38843 0.93611,1.83371 1.40266,2.74907 0.46655,0.91535 6.7624,-1.60721 10.1421,-2.41231 3.3797,-0.80511 14.07984,-6.36019 21.11825,-9.54178 7.03842,-3.181593 5.58203,-4.636963 8.37154,-6.956945 2.78951,-2.319981 18.02069,-7.78144 27.02954,-11.67366 9.00885,-3.89222 38.0384,-13.252891 57.05608,-19.880837 19.0177,-6.627946 26.4867,-16.072435 39.7286,-24.110152 13.2418,-8.037718 18.969,-11.285776 28.452,-16.930164 9.483,-5.644388 20.8491,-7.184926 31.2721,-10.778888 10.4231,-3.5939633 10.611,-5.3263313 15.915,-7.9909967 5.304,-2.6646654 6.1586,1.2535586 9.2364,1.8788379 3.0777,0.6252793 14.6105,13.1435788 21.9142,19.7138678 7.3038,6.570289 5.2629,13.609022 7.8929,20.412033 2.6299,6.803011 -0.034,11.145984 -0.053,16.717476 -0.019,5.571492 -0.6457,11.542853 -0.97,17.31278 -0.3243,5.769926 7.1274,15.342775 10.6896,23.012658 3.5621,7.66989 8.0462,26.27278 12.0678,39.40766 4.0216,13.13489 5.8457,36.60319 8.767,54.90328 2.9214,18.30009 13.2848,70.83847 19.9256,106.25621 6.6409,35.41774 5.0081,35.85911 7.5106,53.78717 2.5026,17.92805 1.4685,38.28588 2.2013,57.42732 0.7328,19.14144 -0.7892,50.43988 -1.1853,75.65832 -0.3961,25.21844 -1.8556,13.8769 -2.785,20.81385 -0.9293,6.93695 -9.0133,12.47911 -13.5214,18.71716 -4.5081,6.23806 -7.1402,7.41928 -10.7119,11.12742 -3.5716,3.70814 -7.452,10.97769 -11.1795,16.46503 -3.7275,5.48734 -5.6812,38.56072 -8.5234,57.83958 -2.8421,19.27887 1.2646,26.10123 1.8954,39.15034 0.6308,13.04911 -17.1097,137.69063 -25.6661,206.53444"
       sodipodi:nodetypes="csssssssssssssssssssssssssssssssssssssssssssssssssssssssssssssssssssssc" />
  </g>
</svg>
