<?xml version="1.0" encoding="UTF-8" standalone="no"?>
<!-- Created with Inkscape (http://www.inkscape.org/) -->

<svg
   version="1.1"
   id="svg2"
   width="1893"
   height="1024"
   viewBox="0 0 1893 1024"
   sodipodi:docname="frame_0109.svg"
   inkscape:version="1.1.2 (0a00cf5339, 2022-02-04)"
   xmlns:inkscape="http://www.inkscape.org/namespaces/inkscape"
   xmlns:sodipodi="http://sodipodi.sourceforge.net/DTD/sodipodi-0.dtd"
   xmlns:xlink="http://www.w3.org/1999/xlink"
   xmlns="http://www.w3.org/2000/svg"
   xmlns:svg="http://www.w3.org/2000/svg">
  <defs
     id="defs6">
    <inkscape:path-effect
       effect="spiro"
       id="path-effect899"
       is_visible="true"
       lpeversion="1" />
    <inkscape:path-effect
       effect="spiro"
       id="path-effect862"
       is_visible="true"
       lpeversion="1" />
  </defs>
  <sodipodi:namedview
     id="namedview4"
     pagecolor="#ffffff"
     bordercolor="#666666"
     borderopacity="1.0"
     inkscape:pageshadow="2"
     inkscape:pageopacity="0.0"
     inkscape:pagecheckerboard="0"
     showgrid="false"
     inkscape:zoom="0.33518225"
     inkscape:cx="1441.0071"
     inkscape:cy="866.69267"
     inkscape:window-width="1850"
     inkscape:window-height="1016"
     inkscape:window-x="70"
     inkscape:window-y="27"
     inkscape:window-maximized="1"
     inkscape:current-layer="g8" />
  <g
     inkscape:groupmode="layer"
     inkscape:label="Image"
     id="g8">
    
    <path
       style="font-variation-settings:normal;opacity:1;vector-effect:none;fill:none;fill-opacity:1;stroke:#c86487;stroke-width:1px;stroke-linecap:butt;stroke-linejoin:miter;stroke-miterlimit:4;stroke-dasharray:none;stroke-dashoffset:0;stroke-opacity:1;-inkscape-stroke:none;stop-color:#000000;stop-opacity:1"
       d="M 1160.7614,862.64223 H 635.42791"
       id="path860"
       inkscape:path-effect="#path-effect862"
       inkscape:original-d="M 1160.7614,862.64223 H 635.42791" />
    <path
       style="font-variation-settings:normal;opacity:1;vector-effect:none;fill:none;fill-opacity:1;stroke:#c86487;stroke-width:1px;stroke-linecap:butt;stroke-linejoin:miter;stroke-miterlimit:4;stroke-dasharray:none;stroke-dashoffset:0;stroke-opacity:1;-inkscape-stroke:none;stop-color:#000000;stop-opacity:1"
       d="m 635.42791,862.64223 c 7.39736,-39.45369 9.78683,-79.84358 7.09295,-119.89427 -3.95299,-58.77027 -18.78454,-116.86573 -16.68304,-175.73129 1.0523,-29.47611 6.35377,-58.66344 13.38452,-87.30811 3.76271,-15.33002 8.03542,-30.57203 13.88538,-45.23305 10.05073,-25.18889 24.60545,-48.30479 36.30712,-72.77044 8.2601,-17.27007 15.09485,-35.21244 20.6233,-53.54058 5.94629,-19.71337 10.39467,-39.90155 17.56954,-59.20172 4.21292,-11.33263 9.38368,-22.42572 11.56121,-34.31839 1.50848,-8.23862 1.53095,-16.79206 -0.37836,-24.94711 -1.01168,-4.32107 -2.55551,-8.50927 -3.44188,-12.85777 -0.88638,-4.34851 -1.0794,-8.99099 0.56715,-13.11216 1.87324,-4.68857 5.91457,-8.18539 10.22639,-10.81218 4.31181,-2.62678 9.01626,-4.57186 13.27433,-7.28489 10.95387,-6.97925 18.22492,-18.5269 28.60356,-26.33594 4.46073,-3.35632 9.50417,-6.00126 14.91753,-7.36456 5.41336,-1.3633 11.20731,-1.40888 16.53425,0.26048 7.02975,2.203 12.82159,7.18634 18.02894,12.3973 8.41294,8.41876 15.92482,17.83317 21.43918,28.38045 5.98653,11.45041 9.5373,24.05713 15.64295,35.44448 3.05282,5.69367 6.76626,11.09112 11.4825,15.5064 4.71624,4.41529 10.48409,7.82279 16.7995,9.1841 0.78967,0.17022 1.6027,0.30889 2.40239,0.19467 0.6693,-0.0956 1.30895,-0.36883 1.85828,-0.76296 0.54932,-0.39413 1.00936,-0.90714 1.36692,-1.48094 0.71512,-1.1476 1.01269,-2.51517 1.07062,-3.86611 0.16219,-3.78262 -1.46518,-7.44391 -3.63828,-10.54426 -2.1731,-3.10034 -4.89418,-5.77056 -7.31451,-8.682 -8.81253,-10.6007 -13.46195,-24.16215 -22.23325,-34.79699 -3.84682,-4.66411 -8.41608,-8.67626 -12.50151,-13.13285 -4.08543,-4.45659 -7.76173,-9.51684 -9.2859,-15.36738 -0.86411,-3.31689 -0.9981,-6.87406 0,-10.15313 0.97392,-3.19964 2.98519,-6.05231 3.61828,-9.33642 0.54128,-2.80786 -0.0373,-5.880437 -1.83243,-8.106288 -1.30215,-1.614546 -3.16321,-2.714038 -5.13221,-3.366266 -1.969,-0.652228 -4.05254,-0.883659 -6.12399,-0.990589 -4.14291,-0.213861 -8.46655,0.02167 -12.24292,-1.695447 -2.98271,-1.356241 -5.38407,-3.896344 -6.68308,-6.904425 -1.299,-3.008081 -1.50831,-6.452865 -0.70193,-9.628666 0.80638,-3.1758 2.60654,-6.073821 5.01307,-8.297454 2.40654,-2.223633 5.40423,-3.778708 8.57912,-4.588652 4.59294,-1.171699 9.50623,-0.788258 14.01796,0.665103 4.51173,1.453361 8.64207,3.941392 12.33888,6.908131 3.33116,2.673296 6.3646,5.779899 8.56171,9.442661 2.19712,3.662762 3.52738,7.91406 3.34588,12.181399 -0.22028,5.179161 -2.61037,10.064773 -2.96308,15.236603 -0.16197,2.37496 0.11799,4.79363 0.95189,7.02327 0.83391,2.22963 2.23387,4.26414 4.10716,5.73297 1.92604,1.51019 4.29648,2.3868 6.71256,2.77775 3.76894,0.60985 7.65257,0.0779 11.31171,-1.01181 3.65914,-1.08974 7.129,-2.72423 10.57681,-4.36419 22.98346,-10.93217 45.73378,-22.397635 69.2313,-32.176109 13.77066,-5.730648 27.78132,-10.874748 41.50842,-16.708917 23.3589,-9.927797 46.0548,-21.971802 65.4615,-38.329694 6.1382,-5.173841 11.957,-10.784656 18.6883,-15.159065 6.7313,-4.374408 14.6092,-7.4926478 22.6196,-6.9640718 4.3939,0.289937 8.7425,1.7041217 12.3232,4.2671848 4.7106,3.371873 7.879,8.543312 9.8915,13.975552 2.0124,5.43224 2.9767,11.184191 4.084,16.870397 6.2932,32.31668 17.467,63.452103 26.0159,95.246573 6.811,25.33109 11.954,51.076 17.0507,76.80687 8.959,45.23006 17.7976,90.52599 23.6134,136.26656 4.3382,34.12 6.9901,68.5158 6.1851,102.90107 -0.3947,16.85966 -1.6128,33.84022 0.9562,50.50768 0.487,3.15937 1.1103,6.3096 1.2359,9.50381 0.1256,3.19422 -0.2739,6.47945 -1.7291,9.3257 -1.4746,2.88423 -3.9482,5.15178 -6.6536,6.93353 -2.7053,1.78174 -5.6668,3.13015 -8.5457,4.61517 -5.8873,3.03682 -11.5246,6.71718 -16.0387,11.5654 -4.6616,5.00664 -8.002,11.13559 -10.3703,17.55342 -2.3682,6.41783 -3.7982,13.1421 -4.9739,19.88114 -2.7429,15.72194 -4.1434,31.72976 -3.2299,47.66301 0.491,8.56481 1.6474,17.07525 2.5985,25.60124 7.6987,69.01582 1.8187,139.51998 -17.206,206.30707"
       id="path897"
       inkscape:path-effect="#path-effect899"
       inkscape:original-d="m 635.42791,862.64223 c 2.36532,-39.96376 4.72963,-79.92851 7.09295,-119.89427 2.36332,-39.96576 -11.12103,-117.15319 -16.68304,-175.73129 -5.56201,-58.57809 8.92401,-58.20441 13.38452,-87.30811 4.4605,-29.1037 9.25792,-30.15437 13.88538,-45.23305 4.62746,-15.07869 24.20575,-48.51263 36.30712,-72.77044 12.10137,-24.25781 13.74987,-35.69272 20.6233,-53.54058 6.87343,-17.84785 11.71402,-39.46681 17.56954,-59.20172 5.85551,-19.73491 7.70848,-22.87793 11.56121,-34.31839 3.85274,-11.44046 -0.25124,-16.6304 -0.37836,-24.94711 -0.12712,-8.3167 -1.91549,-17.31229 -2.87473,-25.96993 -0.95925,-8.65764 15.66814,-12.06371 23.50072,-18.09707 7.83257,-6.03336 19.07004,-17.55629 28.60356,-26.33594 9.53352,-8.77964 20.96885,-4.73505 31.45178,-7.10408 10.48293,-2.36902 12.0203,8.26587 18.02894,12.3973 6.00865,4.13143 14.29379,18.9213 21.43918,28.38045 7.14539,9.45915 29.2843,40.09099 43.92495,60.13498 14.64065,20.044 1.60259,0.13078 2.40239,0.19467 0.7998,0.0639 2.86488,-4.07234 4.29582,-6.11001 1.43094,-2.03767 -7.30086,-12.8165 -10.95279,-19.22626 -3.65193,-6.40975 -14.82117,-23.19699 -22.23325,-34.79699 -7.41208,-11.6 -14.52394,-18.99915 -21.78741,-28.50023 -7.26346,-9.50108 10e-4,-6.76775 0,-10.15313 -10e-4,-3.38537 2.41319,-6.22328 3.61828,-9.33642 1.2051,-3.11314 -1.22062,-5.403192 -1.83243,-8.106288 -0.61181,-2.703096 -15.66508,-4.033868 -23.49912,-6.052302 -7.83404,-2.018434 4.13912,-19.611798 6.20718,-29.419197 2.06806,-9.807399 17.57223,5.049823 26.35684,7.573234 8.78462,2.523412 7.93939,14.41704 11.90759,21.62406 3.96819,7.20702 -1.97439,10.158733 -2.96308,15.236603 -0.9887,5.07786 3.3737,8.50516 5.05905,12.75624 1.68535,4.25109 4.47604,1.85283 6.71256,2.77775 2.23652,0.92491 14.59335,-3.583 21.88852,-5.376 7.29517,-1.79299 46.1552,-21.449738 69.2313,-32.176109 23.07612,-10.726371 27.67332,-11.138278 41.50842,-16.708917 13.8352,-5.570639 43.642,-25.552129 65.4615,-38.329694 21.8196,-12.777564 27.5396,-14.747758 41.3079,-22.1231368 13.7682,-7.37537898 8.2165,2.84579 12.3232,4.2671848 4.1068,1.421395 9.318,20.564966 13.9755,30.845949 4.6575,10.280982 17.3449,63.498713 26.0159,95.246573 8.671,31.74786 11.3681,51.20558 17.0507,76.80687 5.6825,25.60129 15.7433,90.84537 23.6134,136.26656 7.8702,45.42119 4.1244,68.60171 6.1851,102.90107 2.0607,34.29936 0.6384,33.67279 0.9562,50.50768 0.3177,16.83489 -0.3278,12.55401 -0.4932,18.82951 -0.1654,6.27551 -10.1319,7.70013 -15.1993,11.5487 -5.0675,3.84856 -10.6915,7.71126 -16.0387,11.5654 -5.3472,3.85413 -10.2285,24.95737 -15.3442,37.43456 -5.1158,12.47719 -2.1522,31.77634 -3.2299,47.66301 -1.0776,15.88667 1.7333,17.0685 2.5985,25.60124 0.8651,8.53275 -11.4697,137.53905 -17.206,206.30707" />
  </g>
</svg>
