<?xml version="1.0" encoding="UTF-8" standalone="no"?>
<!-- Created with Inkscape (http://www.inkscape.org/) -->

<svg
   version="1.1"
   id="svg2"
   width="1893"
   height="1024"
   viewBox="0 0 1893 1024"
   sodipodi:docname="frame_0076.svg"
   inkscape:version="1.1.2 (0a00cf5339, 2022-02-04)"
   xmlns:inkscape="http://www.inkscape.org/namespaces/inkscape"
   xmlns:sodipodi="http://sodipodi.sourceforge.net/DTD/sodipodi-0.dtd"
   xmlns:xlink="http://www.w3.org/1999/xlink"
   xmlns="http://www.w3.org/2000/svg"
   xmlns:svg="http://www.w3.org/2000/svg">
  <defs
     id="defs6">
    <inkscape:path-effect
       effect="spiro"
       id="path-effect899"
       is_visible="true"
       lpeversion="1" />
    <inkscape:path-effect
       effect="spiro"
       id="path-effect862"
       is_visible="true"
       lpeversion="1" />
  </defs>
  <sodipodi:namedview
     id="namedview4"
     pagecolor="#ffffff"
     bordercolor="#666666"
     borderopacity="1.0"
     inkscape:pageshadow="2"
     inkscape:pageopacity="0.0"
     inkscape:pagecheckerboard="0"
     showgrid="false"
     inkscape:zoom="0.6703645"
     inkscape:cx="1030.7825"
     inkscape:cy="472.13121"
     inkscape:window-width="1850"
     inkscape:window-height="1016"
     inkscape:window-x="70"
     inkscape:window-y="27"
     inkscape:window-maximized="1"
     inkscape:current-layer="g8" />
  <g
     inkscape:groupmode="layer"
     inkscape:label="Image"
     id="g8">
    
    <path
       style="font-variation-settings:normal;opacity:1;vector-effect:none;fill:none;fill-opacity:1;stroke:#c86487;stroke-width:1px;stroke-linecap:butt;stroke-linejoin:miter;stroke-miterlimit:4;stroke-dasharray:none;stroke-dashoffset:0;stroke-opacity:1;-inkscape-stroke:none;stop-color:#000000;stop-opacity:1"
       d="m 1160.9594,862.54279 -525.39719,0.37794"
       id="path860"
       inkscape:path-effect="#path-effect862"
       inkscape:original-d="m 1160.9594,862.54279 -525.39719,0.37794" />
    <path
       style="font-variation-settings:normal;opacity:1;vector-effect:none;fill:none;fill-opacity:1;stroke:#c86487;stroke-width:1px;stroke-linecap:butt;stroke-linejoin:miter;stroke-miterlimit:4;stroke-dasharray:none;stroke-dashoffset:0;stroke-opacity:1;-inkscape-stroke:none;stop-color:#000000;stop-opacity:1"
       d="m 635.56221,862.92073 c 1.2963,-88.43335 -1.84302,-176.93157 -9.4022,-265.05078 -3.75523,-43.77566 -8.42052,-89.13139 6.04804,-130.61718 8.04337,-23.06281 21.63723,-43.71825 32.32091,-65.68295 8.76786,-18.02595 15.58185,-36.96047 21.10166,-56.2307 7.29704,-25.47473 12.44455,-51.8246 24.12745,-75.60944 4.74812,-9.66655 10.53976,-18.82426 14.70379,-28.75642 4.16402,-9.93215 6.65594,-20.97495 4.37777,-31.50095 -0.983,-4.54182 -2.82018,-8.8448 -4.38311,-13.22106 -1.56293,-4.37626 -2.87079,-8.94199 -2.72474,-13.58667 0.13755,-4.37445 1.57153,-8.63743 3.64415,-12.49217 2.07262,-3.85473 4.7724,-7.33542 7.58759,-10.68646 9.47044,-11.27303 20.48754,-21.36642 33.17296,-28.83973 12.68542,-7.47332 27.0968,-12.2643 41.8123,-12.73795 2.87289,-0.0925 5.81115,-0.0115 8.5169,0.95855 4.04699,1.45086 7.17812,4.75961 9.48525,8.38731 2.30714,3.6277 3.93405,7.64024 5.9917,11.41505 4.8051,8.8151 11.84855,16.15622 18.16418,23.96056 8.24169,10.18441 15.50058,21.45834 25.95633,29.35295 5.4007,4.0778 11.59728,7.20344 16.20181,12.1627 1.32705,1.42929 2.52252,3.0114 4.10182,4.15585 0.78965,0.57222 1.67412,1.02861 2.62421,1.24842 0.95009,0.21982 1.96919,0.19388 2.87707,-0.16213 0.88334,-0.34639 1.63617,-0.9983 2.14403,-1.79977 0.50785,-0.80148 0.77449,-1.7468 0.80626,-2.6951 0.0635,-1.8966 -0.80264,-3.74048 -2.0627,-5.15941 -1.26007,-1.41893 -2.88986,-2.45858 -4.5652,-3.34986 -1.67534,-0.89127 -3.41983,-1.65415 -5.05025,-2.62516 -5.443,-3.24162 -9.28561,-8.59344 -12.42844,-14.09408 -3.14282,-5.50064 -5.76974,-11.33268 -9.5833,-16.39145 -3.0378,-4.02972 -6.76227,-7.47921 -10.34046,-11.03778 -3.5782,-3.55857 -7.067,-7.29921 -9.49368,-11.72393 -4.53654,-8.27176 -4.95439,-18.08266 -7.04043,-27.28324 -0.67507,-2.97744 -1.54608,-5.94506 -3.05796,-8.59744 -1.51187,-2.65237 -3.71865,-4.988433 -6.5154,-6.212788 -2.9574,-1.294684 -6.3052,-1.262125 -9.53113,-1.136404 -3.22593,0.125721 -6.54085,0.310606 -9.6005,-0.719416 -3.12161,-1.050878 -5.7747,-3.361667 -7.36005,-6.248782 -1.58536,-2.887116 -2.11435,-6.316644 -1.60367,-9.570563 0.51068,-3.25392 2.03865,-6.321975 4.22886,-8.782008 2.19021,-2.460033 5.02686,-4.317408 8.11218,-5.47049 6.89272,-2.576028 14.84855,-1.534807 21.31782,1.971479 5.02188,2.721815 9.18372,6.789698 12.93577,11.096629 3.75206,4.306931 7.16866,8.907915 11.11071,13.041657 3.20142,3.357095 6.8416,6.544704 8.54033,10.861356 1.01415,2.57706 1.25898,5.39938 1.16469,8.1672 -0.0943,2.76783 -0.51551,5.51271 -0.78814,8.26869 -0.14815,1.49768 -0.25225,3.01139 -0.0662,4.50483 0.18608,1.49345 0.67952,2.97791 1.61955,4.15321 0.71506,0.89403 1.67275,1.58507 2.73051,2.02296 1.05775,0.43789 2.21307,0.62576 3.35733,0.59014 2.28852,-0.0713 4.48729,-1.02815 6.32615,-2.39232 3.67774,-2.72834 5.92868,-6.91351 8.80339,-10.47801 6.66722,-8.26703 16.70707,-13.14125 26.88851,-16.16344 10.18145,-3.022195 20.77512,-4.446277 31.00978,-7.283029 26.21122,-7.264991 48.89396,-23.389693 71.64316,-38.298857 15.2161,-9.972197 30.8502,-19.629253 43.7455,-32.462267 4.7823,-4.759179 9.2038,-9.967937 14.7409,-13.822856 2.7685,-1.9274601 5.8117,-3.5008942 9.0706,-4.3722997 3.2589,-0.8714056 6.744,-1.0209627 10.0052,-0.1582651 1.6583,0.4386795 3.2447,1.1330492 4.7218,2.0052121 3.2375,1.9115787 5.9231,4.6555757 8.1551,7.6810557 2.232,3.02548 4.0362,6.340929 5.7969,9.662851 8.5791,16.185905 16.3119,32.817298 23.2607,49.767182 8.5324,20.81242 15.8852,42.111973 21.8982,63.786883 6.8408,24.65901 11.9381,49.76075 17.3896,74.76364 11.024,50.56044 23.5673,101.14905 26.0715,152.83672 1.5403,31.79302 -0.7248,63.90822 4.6154,95.28737 1.3644,8.01723 3.2214,15.95388 4.2431,24.02195 1.0216,8.06808 1.1888,16.3561 -0.8032,24.24087 -0.7529,2.9801 -1.8089,5.88007 -3.0824,8.67759 -4.46,9.79754 -11.4808,18.16576 -17.237,27.26241 -20.2226,31.95821 -24.0441,71.28685 -26.8345,109.00285 -5.1177,69.17291 -8.5582,138.46989 -10.3176,207.80954"
       id="path897"
       inkscape:path-effect="#path-effect899"
       inkscape:original-d="m 635.56221,862.92073 c -3.13307,-88.34926 -6.26713,-176.69952 -9.4022,-265.05078 -3.13507,-88.35126 4.81145,-81.33171 6.04804,-130.61718 1.23658,-49.28547 20.76985,-49.53305 32.32091,-65.68295 11.55106,-16.14991 14.06877,-37.48613 21.10166,-56.2307 7.03289,-18.74456 16.08597,-50.4053 24.12745,-75.60944 8.04149,-25.20415 12.72204,-40.17058 19.08156,-60.25737 6.35951,-20.08679 -4.73757,-17.87082 -7.10785,-26.80773 -2.37028,-8.93691 7.48883,-15.45142 11.23174,-23.17863 3.74291,-7.72721 49.99117,-27.71746 74.98526,-41.57768 24.99408,-13.86023 5.67893,0.64003 8.5169,0.95855 2.83796,0.31851 10.31896,13.20257 15.47695,19.80236 5.15798,6.59979 12.11045,15.9747 18.16418,23.96056 6.05372,7.98585 17.30522,19.56963 25.95633,29.35295 8.65112,9.78332 10.80221,8.10947 16.20181,12.1627 5.3996,4.05323 6.40306,3.49576 9.6031,5.24214 3.20003,1.74638 -5.81757,-10.41853 -8.72786,-15.6293 -2.91029,-5.21076 -14.67349,-20.32268 -22.01174,-30.48553 -7.33825,-10.16284 -13.22176,-15.17347 -19.83414,-22.76171 -6.61238,-7.58824 -4.69262,-18.18783 -7.04043,-27.28324 -2.3478,-9.09542 -6.38124,-9.87249 -9.57336,-14.810228 -3.19212,-4.937742 -12.75342,-1.236214 -19.13163,-1.85582 -6.37821,-0.619607 2.25255,-20.046895 3.37732,-30.071843 1.12477,-10.024948 14.21288,1.315319 21.31782,1.971479 7.10494,0.65616 16.03199,16.09319 24.04648,24.138286 8.0145,8.045096 5.69455,7.241903 8.54033,10.861356 2.84577,3.61945 0.25203,10.95826 0.37655,16.43589 0.12451,5.47763 1.03659,5.77303 1.55338,8.65804 0.5168,2.88502 14.14592,-6.83715 21.21738,-10.25723 7.07145,-3.42007 38.59986,-15.62998 57.89829,-23.446469 19.29843,-7.81649 47.76306,-25.531572 71.64316,-38.298857 23.88,-12.767286 29.1646,-21.640511 43.7455,-32.462267 14.5808,-10.821755 22.5455,-12.234614 33.8167,-18.3534208 11.2713,-6.11880711 3.1489,1.3378081 4.7218,2.0052121 1.5729,0.667404 9.3024,11.5636047 13.952,17.3439067 4.6497,5.780303 15.5081,33.179122 23.2607,49.767182 7.7526,16.588061 14.5998,42.525583 21.8982,63.786883 7.2985,21.26129 11.5941,49.84342 17.3896,74.76364 5.7956,24.92021 17.382,101.89214 26.0715,152.83672 8.6895,50.94457 3.0779,63.52592 4.6154,95.28737 1.5374,31.76146 2.2942,32.17621 3.4399,48.26282 1.1456,16.0866 -2.0539,5.78606 -3.0824,8.67759 -1.0284,2.89154 -11.4903,18.17594 -17.237,27.26241 -5.7466,9.08647 -17.8886,72.66957 -26.8345,109.00285 -8.9458,36.33328 -6.8774,138.54069 -10.3176,207.80954"
       sodipodi:nodetypes="csssssssssssssssssssssssssssssssssssssssssssc" />
  </g>
</svg>
