<?xml version="1.0" encoding="UTF-8" standalone="no"?>
<!-- Created with Inkscape (http://www.inkscape.org/) -->

<svg
   version="1.1"
   id="svg2"
   width="1893"
   height="1024"
   viewBox="0 0 1893 1024"
   xmlns:xlink="http://www.w3.org/1999/xlink"
   xmlns="http://www.w3.org/2000/svg"
   xmlns:svg="http://www.w3.org/2000/svg">
  <defs
     id="defs6" />
  <g
     id="g8">
    
    <path
       style="font-variation-settings:normal;opacity:1;vector-effect:none;fill:none;fill-opacity:1;stroke:#c86487;stroke-width:1px;stroke-linecap:butt;stroke-linejoin:miter;stroke-miterlimit:4;stroke-dasharray:none;stroke-dashoffset:0;stroke-opacity:1;-inkscape-stroke:none;stop-color:#000000;stop-opacity:1"
       d="m 1160.6446,862.45877 -525.04429,0.37521"
       id="path860" />
    <path
       style="font-variation-settings:normal;opacity:1;vector-effect:none;fill:none;fill-opacity:1;stroke:#c86487;stroke-width:1px;stroke-linecap:butt;stroke-linejoin:miter;stroke-miterlimit:4;stroke-dasharray:none;stroke-dashoffset:0;stroke-opacity:1;-inkscape-stroke:none;stop-color:#000000;stop-opacity:1"
       d="m 635.60031,862.83398 c -26.01376,-76.84354 -36.60763,-158.87233 -30.97022,-239.80357 3.0507,-43.79606 10.78766,-87.15724 20.58243,-129.95285 6.72513,-29.38362 14.52221,-58.80455 28.13827,-85.69744 9.72585,-19.2094 22.39048,-37.07528 29.28369,-57.47325 6.3118,-18.67748 7.49969,-38.65526 11.76576,-57.90332 4.59198,-20.71854 12.7769,-40.71943 14.75027,-61.84879 0.96462,-10.32839 0.42129,-20.7407 1.0444,-31.09531 0.62311,-10.3546 2.5152,-20.90916 7.88002,-29.7875 3.70529,-6.13196 8.93691,-11.23081 14.67651,-15.51883 5.7396,-4.28802 12.00525,-7.81218 18.2605,-11.30531 10.8722,-6.07139 21.88722,-12.13646 33.842,-15.62208 4.36303,-1.27212 8.86237,-2.19579 13.40701,-2.22057 4.54463,-0.0248 9.15326,0.88322 13.12579,3.09079 4.1434,2.30253 7.42458,5.90839 10.13942,9.79414 2.71483,3.88574 4.93122,8.09391 7.45925,12.1037 8.12068,12.88047 19.30112,23.49284 30.33415,33.98685 4.77035,4.53729 9.55185,9.09712 13.66861,14.23478 4.11675,5.13766 7.57396,10.90385 9.36252,17.2398 0.70786,2.50758 1.18081,5.15853 2.6472,7.3123 0.7332,1.07688 1.71934,2.00653 2.91337,2.52763 1.19403,0.52109 2.60541,0.60273 3.79664,0.0753 0.67386,-0.29838 1.26009,-0.78015 1.71619,-1.35902 0.45611,-0.57886 0.7845,-1.25295 0.99918,-1.95795 0.42936,-1.41 0.4055,-2.91849 0.25356,-4.38456 -0.83646,-8.07092 -5.33148,-15.24684 -9.89261,-21.95769 -15.01798,-22.09614 -32.09303,-42.79514 -50.95133,-61.71982 -0.42613,-0.42763 -0.85471,-0.85611 -1.21823,-1.3381 -0.36352,-0.48198 -0.66231,-1.02279 -0.79722,-1.61123 -0.20861,-0.90989 -0.007,-1.88296 0.4314,-2.70692 0.43875,-0.82396 1.10098,-1.51081 1.82856,-2.09565 1.45516,-1.16968 3.2009,-1.97682 4.50308,-3.31472 1.66976,-1.71557 2.44211,-4.20116 2.27842,-6.58956 -0.16369,-2.38841 -1.20889,-4.66902 -2.72444,-6.52222 -2.08156,-2.54531 -5.00611,-4.30418 -8.10135,-5.41367 -3.09524,-1.10949 -6.37396,-1.608 -9.64241,-1.96672 -3.63451,-0.3989 -7.31147,-0.63691 -10.83759,-1.604 -3.52611,-0.967097 -6.9566,-2.750079 -9.1583,-5.669198 -1.68482,-2.233807 -2.55648,-5.040971 -2.57821,-7.838833 -0.0217,-2.797863 0.78635,-5.578221 2.17826,-8.005381 2.86288,-4.992198 8.20247,-8.392374 13.89585,-9.231169 6.47303,-0.953659 12.9738,1.186771 19.0709,3.560586 4.06275,1.581771 8.15976,3.330696 11.42601,6.218525 2.71531,2.400719 4.73661,5.48914 6.4342,8.691409 1.69759,3.202269 3.10338,6.552362 4.79562,9.757464 1.57565,2.984287 3.40603,5.857357 4.54633,9.033577 0.57015,1.58811 0.96324,3.24925 1.03844,4.93493 0.0752,1.68568 -0.17474,3.39864 -0.8451,4.94712 -0.74327,1.71688 -1.97132,3.17663 -2.85587,4.82517 -0.44228,0.82427 -0.80027,1.70383 -0.94646,2.62777 -0.14619,0.92393 -0.0712,1.8974 0.31901,2.74756 0.54582,1.18921 1.6666,2.04326 2.8886,2.51109 1.222,0.46783 2.54736,0.58939 3.85501,0.63629 3.42819,0.12296 6.87296,-0.23902 10.20234,-1.06536 7.37167,-1.82962 14.00251,-5.87125 20.13307,-10.35514 6.13057,-4.48388 11.9024,-9.47097 18.30158,-13.56236 14.60604,-9.338542 31.77353,-13.600595 47.96262,-19.802063 17.25245,-6.608805 33.53009,-15.491678 49.66359,-24.493531 22.3536,-12.472433 44.55,-25.229196 66.5001,-38.398749 9.7859,-5.871296 19.5257,-11.826454 29.0218,-18.1557334 1.9558,-1.3035847 3.9278,-2.6365505 6.1426,-3.42347785 1.1074,-0.39346366 2.2709,-0.64585831 3.4459,-0.67074151 1.1749,-0.0248832 2.3623,0.18229635 3.4304,0.67258926 1.2944,0.5941827 2.3829,1.5919836 3.1862,2.7680936 0.8033,1.17611 1.3304,2.5261426 1.6538,3.913182 0.6468,2.7740789 0.4924,5.6613019 0.4982,8.5097849 0.035,16.929472 5.8229,33.268821 11.8934,49.072545 7.9202,20.619227 16.45,41.014391 23.6013,61.912741 18.6628,54.53894 27.7256,111.86597 34.6709,169.08973 6.5292,53.79546 11.2611,107.79703 15.077,161.85276 1.4065,19.92413 2.6888,39.85859 3.5778,59.8125 0.089,2.0048 0.1745,4.01794 -0.025,6.01479 -0.1995,1.99685 -0.6951,3.99074 -1.6991,5.72831 -1.5003,2.59636 -4.0231,4.44312 -6.6476,5.89372 -2.6244,1.4506 -5.4232,2.5862 -7.9537,4.19511 -6.1302,3.89765 -10.2863,10.36029 -12.6992,17.21219 -2.4129,6.85191 -3.2448,14.145 -3.97,21.37305 -2.539,25.30573 -3.9713,50.70764 -5.4599,76.09683 -4.0684,69.39085 -8.5621,138.75676 -13.4809,208.09252"
       id="path897" />
  </g>
</svg>
