<?xml version="1.0" encoding="UTF-8" standalone="no"?>
<!-- Created with Inkscape (http://www.inkscape.org/) -->

<svg
   version="1.1"
   id="svg2"
   width="1893"
   height="1024"
   viewBox="0 0 1893 1024"
   sodipodi:docname="frame_0156.svg"
   inkscape:version="1.1.2 (0a00cf5339, 2022-02-04)"
   xmlns:inkscape="http://www.inkscape.org/namespaces/inkscape"
   xmlns:sodipodi="http://sodipodi.sourceforge.net/DTD/sodipodi-0.dtd"
   xmlns:xlink="http://www.w3.org/1999/xlink"
   xmlns="http://www.w3.org/2000/svg"
   xmlns:svg="http://www.w3.org/2000/svg">
  <defs
     id="defs6">
    <inkscape:path-effect
       effect="spiro"
       id="path-effect866"
       is_visible="true"
       lpeversion="1" />
    <inkscape:path-effect
       effect="spiro"
       id="path-effect862"
       is_visible="true"
       lpeversion="1" />
  </defs>
  <sodipodi:namedview
     id="namedview4"
     pagecolor="#ffffff"
     bordercolor="#666666"
     borderopacity="1.0"
     inkscape:pageshadow="2"
     inkscape:pageopacity="0.0"
     inkscape:pagecheckerboard="0"
     showgrid="false"
     inkscape:zoom="0.94803857"
     inkscape:cx="986.2468"
     inkscape:cy="148.20072"
     inkscape:window-width="1850"
     inkscape:window-height="1016"
     inkscape:window-x="70"
     inkscape:window-y="27"
     inkscape:window-maximized="1"
     inkscape:current-layer="g8" />
  <g
     inkscape:groupmode="layer"
     inkscape:label="Image"
     id="g8">
    
    <path
       style="font-variation-settings:normal;opacity:1;vector-effect:none;fill:none;fill-opacity:1;stroke:#c86487;stroke-width:1px;stroke-linecap:butt;stroke-linejoin:miter;stroke-miterlimit:4;stroke-dasharray:none;stroke-dashoffset:0;stroke-opacity:1;-inkscape-stroke:none;stop-color:#000000;stop-opacity:1"
       d="M 1160.6085,862.11397 H 635.5952"
       id="path860"
       inkscape:path-effect="#path-effect862"
       inkscape:original-d="m 1160.6085,862.11397 c -175.00342,10e-4 -350.00786,10e-4 -525.0133,0" />
    <path
       style="font-variation-settings:normal;opacity:1;vector-effect:none;fill:none;fill-opacity:1;stroke:#c86487;stroke-width:1px;stroke-linecap:butt;stroke-linejoin:miter;stroke-miterlimit:4;stroke-dasharray:none;stroke-dashoffset:0;stroke-opacity:1;-inkscape-stroke:none;stop-color:#000000;stop-opacity:1"
       d="m 635.5952,862.11397 c -6.35566,-42.50196 -11.69848,-85.15538 -16.0224,-127.91184 -4.41744,-43.68121 -7.75575,-87.96139 -0.92505,-131.33078 4.6407,-29.46469 13.90033,-57.99128 20.13089,-87.1612 5.04839,-23.63531 8.11949,-47.74097 15.06495,-70.88994 5.44741,-18.156 13.2272,-35.53705 21.88035,-52.40233 6.62162,-12.90577 13.76539,-25.54064 20.25488,-38.51335 5.00044,-9.99604 9.61012,-20.18887 13.76068,-30.56664 7.8236,-19.56157 13.9993,-39.73423 20.9298,-59.62975 4.72198,-13.55548 9.80661,-27.02133 13.2196,-40.96405 4.07985,-16.66696 5.72887,-33.92139 4.95557,-51.063 -0.21021,-4.6596 -0.59825,-9.32279 -0.37626,-13.98184 0.22199,-4.65906 1.08189,-9.36247 3.22867,-13.50341 3.2772,-6.32141 9.20788,-10.76926 14.97658,-14.94327 12.94377,-9.36562 26.08583,-18.49938 39.9429,-26.4516 4.71033,-2.70314 9.56312,-5.292821 14.83014,-6.616713 5.26702,-1.323891 11.04835,-1.284733 15.91367,1.128327 3.30138,1.637391 6.01798,4.275676 8.2699,7.192696 2.25193,2.91702 4.08252,6.13085 6.01094,9.27113 3.66405,5.96663 7.70306,11.69926 12.00088,17.22689 18.73082,24.09061 42.65143,44.72864 55.60853,72.35679 0.3918,0.83542 0.79929,1.71 1.53017,2.27325 0.42813,0.32994 0.95204,0.53344 1.4904,0.58172 0.53835,0.0483 1.08937,-0.0585 1.57198,-0.30185 0.48262,-0.24339 0.89554,-0.62238 1.18163,-1.08097 0.2861,-0.4586 0.44485,-0.99533 0.45698,-1.53571 0.0168,-0.74689 -0.2387,-1.47074 -0.50947,-2.16702 -2.30719,-5.93286 -5.93873,-11.23893 -9.39961,-16.58162 -9.91655,-15.30854 -18.7631,-31.49375 -31.12263,-44.9076 -4.60478,-4.99759 -9.81499,-9.80022 -12.15526,-16.18012 -1.51038,-4.1175 -1.65874,-8.85174 0.23438,-12.8079 1.29125,-2.69839 3.46264,-4.94765 4.4474,-7.77234 1.0502,-3.012408 0.56412,-6.531899 -1.31851,-9.107404 -1.81299,-2.480235 -4.70564,-3.95701 -7.64085,-4.86424 -2.93521,-0.90723 -6.00085,-1.332123 -8.94577,-2.207318 -3.60623,-1.071727 -7.02939,-2.834619 -9.85521,-5.318207 -2.82582,-2.483588 -5.03799,-5.702268 -6.13812,-9.299931 -1.29251,-4.226816 -0.9917,-8.92666 0.86155,-12.939393 1.85325,-4.012732 5.24825,-7.296449 9.33417,-8.982209 3.82808,-1.57938 8.146,-1.753821 12.20859,-0.951302 4.06258,0.802519 7.89238,2.541983 11.44788,4.664968 2.31103,1.379912 4.53456,2.936742 6.43689,4.840992 1.90232,1.90425 3.47996,4.172341 4.35283,6.718535 0.78829,2.299466 0.98477,4.757922 1.0409,7.188105 0.0561,2.430184 -0.0214,4.869103 0.24472,7.285322 0.83409,7.572574 4.95653,14.379039 6.72323,21.789732 0.72928,3.05908 1.0511,6.19769 1.46534,9.31509 0.18457,1.389 0.39072,2.78736 0.87324,4.10287 0.48253,1.3155 1.26571,2.55723 2.41051,3.3652 1.26962,0.89607 2.91019,1.19018 4.44699,0.95972 1.5368,-0.23047 2.97209,-0.95561 4.18929,-1.92168 2.4344,-1.93214 3.98074,-4.7336 5.68437,-7.33304 5.33642,-8.14242 12.94657,-14.976295 22.06838,-18.377623 9.18771,-3.4259 19.30734,-3.240635 28.83514,-5.558351 9.32909,-2.269377 17.88689,-6.881816 26.45739,-11.20945 17.58516,-8.879537 35.66886,-16.729088 53.78236,-24.474102 15.0661,-6.442005 30.2445,-12.859112 44.0402,-21.70019 10.0543,-6.443372 19.5575,-14.257658 31.0068,-17.651737 6.9803,-2.0692818 14.4038,-2.3801132 21.6393,-1.5708349 3.9745,0.4445439 7.9472,1.2328789 11.6095,2.8397719 3.6622,1.606893 7.0159,4.078975 9.2252,7.412671 2.4166,3.646527 3.3361,8.097051 3.5815,12.464754 0.2455,4.367703 -0.1319,8.746491 -0.064,13.120555 0.1698,10.898721 3.1019,21.581824 6.8797,31.806256 3.7778,10.224431 8.4145,20.114938 12.1908,30.33995 9.563,25.89392 13.4547,53.47069 17.5827,80.76365 10.0296,66.31219 21.811,132.40739 28.632,199.126 3.3634,32.89913 5.5163,65.91163 7.1973,98.9395 0.4724,9.28256 0.9055,18.62526 -0.2936,27.84216 -1.199,9.2169 -4.1286,18.39143 -9.783,25.76819 -4.5363,5.91808 -10.6155,10.43805 -16.6736,14.78559 -6.0581,4.34754 -12.2475,8.66509 -17.1266,14.30393 -5.5204,6.38008 -9.1421,14.22631 -11.501,22.32672 -2.3588,8.1004 -3.5118,16.49662 -4.559,24.86823 -1.6305,13.0339 -3.0233,26.09643 -4.3412,39.16563 -6.9278,68.69882 -11.7896,137.60598 -14.5765,206.59696"
       id="path864"
       inkscape:path-effect="#path-effect866"
       inkscape:original-d="m 635.5952,862.11397 c -5.3398,-42.63628 -10.6806,-85.27356 -16.0224,-127.91184 -5.34181,-42.63827 -0.6157,-87.55285 -0.92505,-131.33078 -0.30936,-43.77793 13.42159,-58.10647 20.13089,-87.1612 6.7093,-29.05473 10.0443,-47.25896 15.06495,-70.88994 5.02065,-23.63098 14.5879,-34.93388 21.88035,-52.40233 7.29245,-17.46844 13.50425,-25.67457 20.25488,-38.51335 6.75063,-12.83878 9.17479,-20.37676 13.76068,-30.56664 4.58589,-10.18988 13.9542,-39.75216 20.9298,-59.62975 6.9756,-19.87758 8.81407,-27.30836 13.2196,-40.96405 4.40554,-13.65568 3.30471,-34.041 4.95557,-51.063 1.65086,-17.02201 1.90261,-18.3225 2.85241,-27.48525 0.9498,-9.16275 9.98538,-9.96118 14.97658,-14.94327 4.99119,-4.9821 26.6296,-17.6334 39.9429,-26.4516 13.3133,-8.818193 20.49687,-3.657923 30.74381,-5.488386 10.24694,-1.830464 9.52156,10.976886 14.28084,16.463826 4.75927,5.48694 8.00159,11.48559 12.00088,17.22689 3.9993,5.7413 37.07335,48.23886 55.60853,72.35679 18.53517,24.11793 1.02111,1.5165 1.53017,2.27325 0.50905,0.75676 3.13499,-1.55687 4.70099,-2.33681 1.56599,-0.77994 -0.33865,-1.44368 -0.50947,-2.16702 -0.17082,-0.72335 -6.26541,-11.05341 -9.39961,-16.58162 -3.13421,-5.5282 -20.74742,-29.9374 -31.12263,-44.9076 -10.37521,-14.9702 -8.10251,-10.78575 -12.15526,-16.18012 -4.05275,-5.39438 0.15725,-8.5376 0.23438,-12.8079 0.0771,-4.2703 2.96593,-5.18056 4.4474,-7.77234 1.48147,-2.59178 -0.87801,-6.070603 -1.31851,-9.107404 -0.44051,-3.036802 -11.05675,-4.713372 -16.58662,-7.071558 -5.52987,-2.358185 -9.53385,-12.756127 -15.99333,-14.618138 -6.45949,-1.862011 5.67077,-11.601699 10.19572,-21.921602 4.52494,-10.319902 13.49097,3.187262 23.65647,3.713666 10.1655,0.526405 7.344,7.728911 10.78972,11.559527 3.44573,3.830617 2.98924,8.917908 1.28562,14.473427 -1.70362,5.555519 4.48316,14.52749 6.72323,21.789732 2.24008,7.26225 0.97789,6.21106 1.46534,9.31509 0.48744,3.10403 2.19017,4.97971 3.28375,7.46807 1.09359,2.48836 9.5481,-5.529 14.32065,-8.295 4.77255,-2.76601 14.71325,-12.25075 22.06838,-18.377623 7.35513,-6.126873 19.22442,-3.704567 28.83514,-5.558351 9.61071,-1.853784 17.63926,-7.471967 26.45739,-11.20945 8.81816,-3.737484 35.85586,-16.315068 53.78236,-24.474102 17.9264,-8.159034 29.3611,-14.465793 44.0402,-21.70019 14.6791,-7.234396 20.6722,-11.766825 31.0068,-17.651737 10.3345,-5.8849124 14.4272,-1.046223 21.6393,-1.5708349 7.2121,-0.5246116 13.8908,6.8359619 20.8347,10.2524429 6.9439,3.416481 2.3462,17.057872 3.5178,25.585309 1.1716,8.527436 12.7147,41.431806 19.0705,62.146206 6.3559,20.71441 11.7228,53.84344 17.5827,80.76365 5.8599,26.92022 19.089,132.75167 28.632,199.126 9.543,66.37433 4.7992,65.96067 7.1973,98.9395 2.3981,32.97884 -6.7167,35.74124 -10.0766,53.61035 -3.3599,17.86912 -22.5324,19.39402 -33.8002,29.08952 -11.2677,9.69551 -10.7056,31.4643 -16.06,47.19495 -5.3543,15.73065 -2.8931,26.11142 -4.3412,39.16563 -1.448,13.05421 -9.7167,137.73231 -14.5765,206.59696"
       sodipodi:nodetypes="csssssssssssssssssssssssssssssssssssssssssssssssssssssc" />
  </g>
</svg>
