<?xml version="1.0" encoding="UTF-8" standalone="no"?>
<!-- Created with Inkscape (http://www.inkscape.org/) -->

<svg
   version="1.1"
   id="svg2"
   width="1893"
   height="1024"
   viewBox="0 0 1893 1024"
   sodipodi:docname="frame_0132.svg"
   inkscape:version="1.1.2 (0a00cf5339, 2022-02-04)"
   xmlns:inkscape="http://www.inkscape.org/namespaces/inkscape"
   xmlns:sodipodi="http://sodipodi.sourceforge.net/DTD/sodipodi-0.dtd"
   xmlns:xlink="http://www.w3.org/1999/xlink"
   xmlns="http://www.w3.org/2000/svg"
   xmlns:svg="http://www.w3.org/2000/svg">
  <defs
     id="defs6">
    <inkscape:path-effect
       effect="spiro"
       id="path-effect866"
       is_visible="true"
       lpeversion="1" />
    <inkscape:path-effect
       effect="spiro"
       id="path-effect862"
       is_visible="true"
       lpeversion="1" />
  </defs>
  <sodipodi:namedview
     id="namedview4"
     pagecolor="#ffffff"
     bordercolor="#666666"
     borderopacity="1.0"
     inkscape:pageshadow="2"
     inkscape:pageopacity="0.0"
     inkscape:pagecheckerboard="0"
     showgrid="false"
     inkscape:zoom="0.94803857"
     inkscape:cx="627.6116"
     inkscape:cy="150.31034"
     inkscape:window-width="1850"
     inkscape:window-height="1016"
     inkscape:window-x="70"
     inkscape:window-y="27"
     inkscape:window-maximized="1"
     inkscape:current-layer="g8" />
  <g
     inkscape:groupmode="layer"
     inkscape:label="Image"
     id="g8">
    
    <path
       style="font-variation-settings:normal;opacity:1;vector-effect:none;fill:none;fill-opacity:1;stroke:#c86487;stroke-width:1px;stroke-linecap:butt;stroke-linejoin:miter;stroke-miterlimit:4;stroke-dasharray:none;stroke-dashoffset:0;stroke-opacity:1;-inkscape-stroke:none;stop-color:#000000;stop-opacity:1"
       d="M 1161.0664,862.51601 H 635.92817"
       id="path860"
       inkscape:path-effect="#path-effect862"
       inkscape:original-d="m 1161.0664,862.51601 c -175.04507,10e-4 -350.09115,10e-4 -525.13823,0" />
    <path
       style="font-variation-settings:normal;opacity:1;vector-effect:none;fill:none;fill-opacity:1;stroke:#c86487;stroke-width:1px;stroke-linecap:butt;stroke-linejoin:miter;stroke-miterlimit:4;stroke-dasharray:none;stroke-dashoffset:0;stroke-opacity:1;-inkscape-stroke:none;stop-color:#000000;stop-opacity:1"
       d="m 635.92817,862.51601 c 5.57848,-39.6636 5.7136,-80.08906 0.40041,-119.78907 -5.33225,-39.84242 -16.09792,-78.82459 -21.00129,-118.72206 -4.31377,-35.10004 -3.80095,-71.94082 10.60253,-104.23882 7.46112,-16.73062 18.4633,-31.81436 24.68649,-49.04381 8.06846,-22.33822 7.66064,-47.05483 15.81487,-69.36189 7.10453,-19.43543 20.32957,-36.01979 28.97016,-54.82273 5.6203,-12.23044 9.24072,-25.26715 12.7703,-38.25613 7.57516,-27.87685 14.87602,-55.94066 25.98942,-82.60514 2.51565,-6.03581 5.22898,-12.00636 7.17276,-18.24985 1.94379,-6.2435 3.10732,-12.8265 2.4236,-19.32973 -0.61715,-5.87002 -2.70761,-11.46646 -4.27012,-17.15826 -1.5625,-5.6918 -2.59912,-11.75845 -1.08453,-17.46319 1.02012,-3.8423 3.1677,-7.33164 5.88094,-10.23719 2.71324,-2.90555 5.98125,-5.25094 9.4308,-7.22693 6.89908,-3.95199 14.53478,-6.46603 21.51925,-10.26507 5.82575,-3.16878 11.13474,-7.1963 16.75791,-10.71204 5.62318,-3.51575 11.70807,-6.56664 18.27878,-7.46459 5.37398,-0.73441 10.90765,0.0173 16.00159,1.88033 5.09393,1.86301 9.75597,4.81617 13.82423,8.4034 6.59509,5.81529 11.60119,13.2195 15.88166,20.90002 8.9044,15.97731 15.2428,33.8626 28.11582,46.85676 5.04057,5.088 10.92886,9.24904 16.27454,14.01546 2.19562,1.9577 4.34867,4.0514 7.00977,5.30516 0.89491,0.42163 1.84776,0.74434 2.83344,0.82847 0.98568,0.0841 2.00898,-0.0821 2.86237,-0.58246 0.70496,-0.41334 1.27329,-1.04347 1.65487,-1.76612 0.38158,-0.72265 0.58035,-1.53508 0.62417,-2.35111 0.0877,-1.63206 -0.43253,-3.24141 -1.13333,-4.71795 -1.79906,-3.7905 -4.77277,-6.89942 -7.95176,-9.63776 -3.17899,-2.73835 -6.61319,-5.17931 -9.67178,-8.05151 -6.8229,-6.4071 -11.52481,-14.70855 -15.87444,-22.9961 -4.34963,-8.28755 -8.51226,-16.78948 -14.53689,-23.95235 -1.34642,-1.6008 -2.79516,-3.1486 -3.76944,-4.9996 -1.67494,-3.18214 -1.78793,-6.96938 -1.30897,-10.53338 0.47895,-3.56399 1.50612,-7.03695 1.98572,-10.60086 0.33126,-2.46164 0.39599,-4.9897 -0.171,-7.40795 -0.56698,-2.418246 -1.80735,-4.729858 -3.74673,-6.281689 -2.00646,-1.605504 -4.60329,-2.294154 -7.15916,-2.560759 -2.55586,-0.266604 -5.13765,-0.152394 -7.69904,-0.359232 -3.85242,-0.31109 -7.6041,-1.342459 -11.39135,-2.113595 -1.96048,-0.39918 -3.94849,-0.733072 -5.81623,-1.450264 -1.86774,-0.717192 -3.63788,-1.86334 -4.71083,-3.552009 -1.00723,-1.585232 -1.32434,-3.559813 -1.03253,-5.415159 0.29181,-1.855346 1.1645,-3.591905 2.34628,-5.051651 2.36356,-2.919492 5.83342,-4.688651 9.24215,-6.266749 5.72214,-2.649107 11.64536,-5.019695 17.87406,-6.001522 5.81244,-0.916212 11.88956,-0.575411 17.38614,1.524946 5.49657,2.100358 10.37047,6.038716 13.10475,11.249046 3.10731,5.921154 3.27888,12.879836 4.67145,19.420188 0.42723,2.006523 0.975,3.993295 1.20888,6.03142 0.23389,2.038125 0.13753,4.164099 -0.68148,6.045019 -0.70281,1.61405 -1.89473,2.9599 -2.79105,4.47506 -0.44816,0.75758 -0.82534,1.56658 -1.01105,2.42698 -0.18572,0.8604 -0.17178,1.77779 0.14209,2.60014 0.27497,0.72042 0.77196,1.34559 1.37481,1.82641 0.60285,0.48082 1.309,0.82189 2.04344,1.05688 1.46887,0.46999 3.03254,0.52117 4.56845,0.66058 2.32752,0.21126 4.65029,0.63382 6.98441,0.51606 3.62726,-0.18301 7.07908,-1.66701 10.17146,-3.57166 3.09238,-1.90464 5.89645,-4.23612 8.85681,-6.34011 13.35233,-9.489802 29.45194,-14.09607 45.06711,-19.046573 16.3296,-5.176999 32.51506,-10.912826 48.03674,-18.160906 18.3876,-8.586343 35.7343,-19.243484 52.6524,-30.450926 15.5533,-10.303347 30.8816,-21.148913 47.8336,-28.939483 2.2517,-1.0348225 4.5286,-2.0139686 6.8103,-2.9809757 3.6241,-1.5359415 7.3349,-3.0601495 11.2575,-3.3865245 1.9613,-0.1631875 3.9611,-0.017826 5.8403,0.5670858 1.8791,0.5849122 3.6347,1.621451 4.9526,3.083141 1.1373,1.2613809 1.9267,2.8094354 2.4431,4.4274134 0.5163,1.617977 0.7684,3.309274 0.9184,5.001009 0.2999,3.383468 0.2044,6.833312 1.0787,10.115601 1.4249,5.349331 5.2565,9.684932 9.096,13.67287 3.8396,3.987938 7.9087,7.992119 10.0268,13.106729 2.5717,6.209973 1.9426,13.264021 3.5538,19.78949 1.6032,6.493229 5.3648,12.233455 9.4123,17.557946 4.0475,5.32449 8.4698,10.414973 11.7152,16.263043 7.7232,13.91704 8.04,30.56158 9.0488,46.44599 2.6167,41.2013 11.1189,81.76448 17.5944,122.53779 4.6957,29.56692 8.3316,59.29497 13.0778,88.85382 4.0846,25.43798 8.9977,50.80261 10.7759,76.505 1.7782,25.70239 0.3253,51.98205 -8.0353,76.3516 -1.0451,3.0463 -2.2124,6.08874 -4.026,8.75012 -2.3359,3.42782 -5.6373,6.07043 -8.9901,8.51276 -3.3528,2.44234 -6.8349,4.76142 -9.722,7.73985 -2.636,2.71941 -4.7149,5.92836 -6.5746,9.22766 -5.5821,9.90324 -9.3191,20.77832 -11.7248,31.88896 -4.8185,22.25407 -4.3455,45.256 -4.5854,68.02448 -0.7434,70.55371 -8.57,141.03091 -23.3239,210.02875"
       id="path864"
       inkscape:path-effect="#path-effect866"
       inkscape:original-d="m 635.92817,862.51601 c 0.13447,-39.92869 0.26794,-79.85838 0.40041,-119.78907 0.13247,-39.93068 -13.99986,-79.14704 -21.00129,-118.72206 -7.00143,-39.57503 7.06935,-69.49155 10.60253,-104.23882 3.53317,-34.74727 16.45866,-32.69487 24.68649,-49.04381 8.22783,-16.34894 10.54425,-46.24026 15.81487,-69.36189 5.27062,-23.12164 19.31444,-36.54749 28.97016,-54.82273 9.65572,-18.27524 8.51453,-25.50308 12.7703,-38.25613 4.25576,-12.75304 17.32728,-55.06909 25.98942,-82.60514 8.66214,-27.53605 6.39857,-25.05206 9.59636,-37.57958 3.19778,-12.52753 -3.56877,-23.07997 -5.35465,-34.62145 -1.78589,-11.54148 24.555,-18.48513 36.83099,-27.72919 12.276,-9.24407 23.35879,-12.11676 35.03669,-18.17663 11.67789,-6.05988 19.88488,6.85682 29.82582,10.28373 9.94094,3.42691 10.58877,13.93435 15.88166,20.90002 5.29289,6.96567 18.74488,31.23884 28.11582,46.85676 9.37093,15.61792 10.85069,9.34464 16.27454,14.01546 5.42385,4.67082 4.67418,3.53777 7.00977,5.30516 2.3356,1.76739 3.79821,0.16501 5.69581,0.24601 1.8976,0.081 0.76481,-5.88912 1.14571,-8.83518 0.38091,-2.94607 -11.74802,-11.79185 -17.62354,-17.68927 -5.87551,-5.89743 -20.27322,-31.29797 -30.41133,-46.94845 -10.13811,-15.65048 -2.51196,-3.33206 -3.76944,-4.9996 -1.25748,-1.66753 0.45217,-14.08849 0.67675,-21.13424 0.22458,-7.045741 -2.61082,-9.125424 -3.91773,-13.689639 -1.30691,-4.564214 -9.90447,-1.945661 -14.8582,-2.919991 -4.95374,-0.974331 -7.59324,-1.408063 -11.39135,-2.113595 -3.79812,-0.705531 -7.01704,-3.333848 -10.52706,-5.002273 -3.51002,-1.668424 7.03827,-11.154706 10.5559,-16.733559 3.51763,-5.578853 11.91704,-4.000014 17.87406,-6.001522 5.95702,-2.001507 20.32826,8.516995 30.49089,12.773992 10.16263,4.256998 3.1153,12.947792 4.67145,19.420188 1.55614,6.472396 0.3526,8.051959 0.5274,12.076439 0.1748,4.02448 -2.43901,6.33579 -3.66001,9.50218 -1.22101,3.1664 5.32547,2.36358 7.9867,3.54387 2.66123,1.18029 4.65727,0.34504 6.98441,0.51606 2.32714,0.17102 12.68651,-6.60685 19.02827,-9.91177 6.34176,-3.30493 30.04574,-12.696716 45.06711,-19.046573 15.02137,-6.349858 32.02547,-12.106271 48.03674,-18.160906 16.0112,-6.054636 35.1026,-20.299618 52.6524,-30.450926 17.5498,-10.151309 31.89,-19.291989 47.8336,-28.939483 15.9435,-9.64749367 4.5412,-1.986317 6.8103,-2.9809757 2.2692,-0.9946587 14.7013,0.1768016 22.0504,0.2637023 7.3491,0.086901 2.9611,13.0303494 4.4402,19.5440234 1.4791,6.513675 12.7495,17.854066 19.1228,26.779599 6.3732,8.925532 2.3702,13.193993 3.5538,19.78949 1.1837,6.595497 14.086,22.548323 21.1275,33.820989 7.0415,11.27266 6.0335,30.96499 9.0488,46.44599 3.0152,15.481 11.7306,81.69286 17.5944,122.53779 5.8638,40.84492 8.7195,59.23688 13.0778,88.85382 4.3583,29.61695 1.828,101.9054 2.7406,152.8566 0.9125,50.9512 -2.683,5.83441 -4.026,8.75012 -1.343,2.9157 -12.4737,10.83607 -18.7121,16.25261 -6.2383,5.41653 -4.3821,6.15277 -6.5746,9.22766 -2.1925,3.07489 -7.8156,21.26031 -11.7248,31.88896 -3.9093,10.62866 -3.0559,45.35065 -4.5854,68.02448 -1.5294,22.67383 -15.5483,140.02017 -23.3239,210.02875" />
  </g>
</svg>
