<?xml version="1.0" encoding="UTF-8" standalone="no"?>
<!-- Created with Inkscape (http://www.inkscape.org/) -->

<svg
   version="1.1"
   id="svg2"
   width="1893"
   height="1024"
   viewBox="0 0 1893 1024"
   sodipodi:docname="frame_0146.save.svg"
   inkscape:version="1.1.2 (0a00cf5339, 2022-02-04)"
   xmlns:inkscape="http://www.inkscape.org/namespaces/inkscape"
   xmlns:sodipodi="http://sodipodi.sourceforge.net/DTD/sodipodi-0.dtd"
   xmlns:xlink="http://www.w3.org/1999/xlink"
   xmlns="http://www.w3.org/2000/svg"
   xmlns:svg="http://www.w3.org/2000/svg">
  <defs
     id="defs6">
    <inkscape:path-effect
       effect="spiro"
       id="path-effect866"
       is_visible="true"
       lpeversion="1" />
    <inkscape:path-effect
       effect="spiro"
       id="path-effect862"
       is_visible="true"
       lpeversion="1" />
  </defs>
  <sodipodi:namedview
     id="namedview4"
     pagecolor="#ffffff"
     bordercolor="#666666"
     borderopacity="1.0"
     inkscape:pageshadow="2"
     inkscape:pageopacity="0.0"
     inkscape:pagecheckerboard="0"
     showgrid="false"
     inkscape:zoom="0.47401928"
     inkscape:cx="1499.939"
     inkscape:cy="-30.589473"
     inkscape:window-width="1850"
     inkscape:window-height="1016"
     inkscape:window-x="70"
     inkscape:window-y="27"
     inkscape:window-maximized="1"
     inkscape:current-layer="g8" />
  <g
     inkscape:groupmode="layer"
     inkscape:label="Image"
     id="g8">
    
    <path
       style="font-variation-settings:normal;opacity:1;vector-effect:none;fill:none;fill-opacity:1;stroke:#c86487;stroke-width:1px;stroke-linecap:butt;stroke-linejoin:miter;stroke-miterlimit:4;stroke-dasharray:none;stroke-dashoffset:0;stroke-opacity:1;-inkscape-stroke:none;stop-color:#000000;stop-opacity:1"
       d="M 1160.7772,862.6812 H 635.5554"
       id="path860"
       inkscape:path-effect="#path-effect862"
       inkscape:original-d="m 1160.7772,862.6812 c -175.07295,10e-4 -350.14687,10e-4 -525.2218,0" />
    <path
       style="font-variation-settings:normal;opacity:1;vector-effect:none;fill:none;fill-opacity:1;stroke:#c86487;stroke-width:1px;stroke-linecap:butt;stroke-linejoin:miter;stroke-miterlimit:4;stroke-dasharray:none;stroke-dashoffset:0;stroke-opacity:1;-inkscape-stroke:none;stop-color:#000000;stop-opacity:1"
       d="m 635.5554,862.6812 c 1.47899,-47.65011 0.13283,-95.38774 -4.02905,-142.87878 -4.74149,-54.10489 -13.13834,-108.45294 -7.45156,-162.46666 3.0529,-28.99677 10.13269,-57.42241 18.2572,-85.42464 5.10516,-17.59561 10.63058,-35.06838 16.49634,-52.42525 6.07188,-17.96677 12.60363,-36.00386 23.01451,-51.85586 6.23978,-9.50093 13.82278,-18.13429 19.2329,-28.13095 9.06074,-16.74217 11.4588,-36.16463 17.18806,-54.31877 4.71416,-14.93763 11.71007,-29.06629 16.64137,-43.93365 3.58321,-10.80301 6.06333,-21.97074 7.40506,-33.27314 0.93453,-7.87227 1.31126,-15.90734 -0.24476,-23.68068 -1.3245,-6.61673 -4.0459,-13.09472 -3.6436,-19.83071 0.32888,-5.50679 2.76846,-10.73381 6.12454,-15.11212 3.35608,-4.37832 7.60216,-7.98914 11.9632,-11.36763 10.56503,-8.18471 22.03683,-15.24384 31.84219,-24.32483 5.35548,-4.95985 10.24333,-10.5441 16.4439,-14.395616 3.10029,-1.925758 6.52327,-3.394949 10.12861,-3.962244 3.60534,-0.567295 7.40347,-0.197193 10.69544,1.378641 2.98272,1.427798 5.43754,3.772219 7.5389,6.325549 2.10137,2.55332 3.89693,5.34274 5.91643,7.96129 3.74345,4.85388 8.2235,9.08046 12.39783,13.56916 9.68219,10.41136 17.71074,22.2233 25.78225,33.92766 8.51208,12.34322 17.15662,24.69131 23.62783,38.21662 1.25306,2.61899 2.44824,5.3187 4.34817,7.51404 0.94997,1.09767 2.07427,2.05815 3.36483,2.72282 1.29056,0.66466 2.75306,1.02492 4.20099,0.92089 1.45007,-0.10418 2.86365,-0.68095 3.96721,-1.62738 1.10355,-0.94643 1.88999,-2.2583 2.19642,-3.67945 0.28027,-1.29984 0.16242,-2.66891 -0.23397,-3.93816 -0.3964,-1.26926 -1.06396,-2.44289 -1.86706,-3.50269 -1.60619,-2.11959 -3.72907,-3.77687 -5.69518,-5.56766 -9.529,-8.6793 -15.41495,-20.52888 -22.72713,-31.14321 -6.95801,-10.10021 -15.2977,-19.18419 -22.35978,-29.21191 -1.52736,-2.16876 -3.00247,-4.39582 -4.0515,-6.83219 -1.04902,-2.43637 -1.66002,-5.1095 -1.38896,-7.74823 0.2199,-2.14071 1.00753,-4.18207 1.91378,-6.13392 0.90625,-1.95186 1.94007,-3.84847 2.69996,-5.86182 0.65569,-1.73727 1.10577,-3.580734 1.03065,-5.436102 -0.0751,-1.855367 -0.71395,-3.730154 -2.00232,-5.067361 -1.33404,-1.384608 -3.24454,-2.086452 -5.14806,-2.357445 -1.90351,-0.270993 -3.8374,-0.154345 -5.76008,-0.143446 -5.28732,0.02997 -10.67156,-0.780009 -15.39227,-3.161507 -3.78764,-1.910782 -7.1415,-4.916587 -8.828,-8.809274 -0.84325,-1.946343 -1.25414,-4.090072 -1.0982,-6.205493 0.15594,-2.11542 0.8887,-4.197772 2.1657,-5.891467 2.03837,-2.703513 5.30829,-4.250172 8.62315,-4.939824 3.31486,-0.689652 6.7326,-0.619118 10.11793,-0.678208 6.57896,-0.114835 13.22508,-0.725418 19.69382,0.479325 3.23436,0.602371 6.40714,1.667391 9.21149,3.387745 2.80435,1.720354 5.23135,4.118541 6.74336,7.040493 1.39595,2.697658 1.97548,5.737733 2.37893,8.748258 0.40345,3.010526 0.65079,6.057545 1.45009,8.98793 0.55761,2.044297 1.37845,4.009957 1.92338,6.05767 0.54493,2.047713 0.80539,4.237384 0.22555,6.275486 -0.70164,2.4662 -2.54868,4.43875 -4.52164,6.07639 -0.87858,0.72926 -1.80022,1.41885 -2.55368,2.27676 -0.75346,0.85792 -1.3379,1.91906 -1.38767,3.05978 -0.029,0.66441 0.12603,1.33164 0.41312,1.93152 0.2871,0.59988 0.70375,1.13354 1.19219,1.58488 0.97688,0.90268 2.21909,1.46683 3.48022,1.88952 3.63029,1.21676 7.56556,1.36561 11.35135,0.79353 3.78579,-0.57208 7.43692,-1.84526 10.93125,-3.41025 12.55431,-5.62265 23.03911,-14.88981 33.93644,-23.284636 7.54594,-5.813063 15.70391,-11.403135 25.07496,-13.110839 4.15356,-0.75691 8.4039,-0.720015 12.62492,-0.808808 4.22103,-0.08879 8.49341,-0.314847 12.52478,-1.569036 4.10095,-1.275837 7.80537,-3.570603 11.33507,-6.017437 3.5296,-2.446835 6.9488,-5.077573 10.7147,-7.142459 6.9458,-3.808506 14.7954,-5.551532 22.3916,-7.798228 20.1935,-5.972585 39.052,-15.695957 58.7406,-23.166439 6.6711,-2.531225 13.4821,-4.8238 19.6738,-8.369742 4.1626,-2.383879 7.9991,-5.309504 12.1958,-7.632693 4.1968,-2.32319 8.9044,-4.054313 13.691,-3.741151 3.4068,0.222889 6.718,1.493781 9.4883,3.489163 2.7703,1.995383 5.0045,4.699128 6.577,7.72955 2.6621,5.130396 3.405,11.028153 3.7152,16.799775 0.3102,5.771622 0.2366,11.604755 1.4377,17.258533 1.4498,6.824353 4.6987,13.116868 8.0522,19.234691 6.6501,12.131811 14.0069,24.409096 15.6203,38.149596 0.9119,7.76658 -0.073,15.61089 -0.5405,23.41684 -0.4675,7.80596 -0.3746,15.86849 2.544,23.12338 1.2723,3.16269 3.0513,6.09085 4.669,9.09159 6.7089,12.44444 10.6624,26.18648 13.6695,40.00062 5.3124,24.40406 7.8099,49.31611 10.9743,74.09041 2.7281,21.35808 5.9579,42.64977 8.6742,64.00936 3.0113,23.6789 5.3941,47.5118 4.8639,71.37552 -0.4054,18.24686 -2.5115,36.52892 -0.8499,54.70448 0.6865,7.50868 2.0151,14.97967 1.9863,22.5196 -0.029,7.53994 -1.5433,15.33563 -5.9875,21.42664 -3.1163,4.27101 -7.5585,7.50377 -12.4676,9.46678 -3.5111,1.404 -7.2434,2.17722 -10.794,3.47838 -3.5505,1.30115 -7.034,3.24217 -9.168,6.36394 -1.9331,2.82786 -2.5721,6.36862 -2.5278,9.79375 0.044,3.42514 0.7195,6.80571 1.196,10.19783 3.1294,22.27717 -2.324,44.83019 -8.9603,66.32494 -2.7908,9.03914 -5.7981,18.01071 -8.539,27.0651 -20.6123,68.09187 -25.8632,140.78625 -15.2508,211.13357"
       id="path864"
       inkscape:path-effect="#path-effect866"
       inkscape:original-d="m 635.5554,862.6812 c -1.34202,-47.62526 -2.68504,-95.25152 -4.02905,-142.87878 -1.34402,-47.62727 -4.96671,-108.31011 -7.45156,-162.46666 -2.48485,-54.15656 12.17247,-56.94876 18.2572,-85.42464 6.08474,-28.47588 10.99856,-34.94917 16.49634,-52.42525 5.49777,-17.47608 15.34401,-34.56958 23.01451,-51.85586 7.67051,-17.28629 12.82293,-18.75297 19.2329,-28.13095 6.40997,-9.37798 11.4597,-36.21151 17.18806,-54.31877 5.72835,-18.10726 11.09524,-29.2881 16.64137,-43.93365 5.54612,-14.64555 4.9377,-22.18109 7.40506,-33.27314 2.46735,-11.09204 -0.16218,-15.78612 -0.24476,-23.68068 -0.0826,-7.89456 -2.42807,-13.21948 -3.6436,-19.83071 -1.21553,-6.61124 12.05949,-17.65217 18.08774,-26.47975 6.02824,-8.82759 21.22913,-16.21556 31.84219,-24.32483 10.61307,-8.10928 24.8463,-11.31848 37.26795,-16.979219 12.42165,-5.660738 8.97122,9.525559 13.45533,14.286839 4.48411,4.76129 8.26622,9.04711 12.39783,13.56916 4.13161,4.52206 17.18916,22.61944 25.78225,33.92766 8.59308,11.30822 12.6229,23.40863 23.62783,38.21662 11.00494,14.80799 11.07365,9.50962 11.91399,11.15775 0.84034,1.64813 4.11009,-3.53689 6.16363,-5.30683 2.05354,-1.76995 -5.95811,-10.45797 -7.79621,-13.00851 -1.8381,-2.55054 -14.38879,-18.97451 -22.72713,-31.14321 -8.33834,-12.1687 -14.90552,-19.4736 -22.35978,-29.21191 -7.45426,-9.7383 -3.62597,-9.71928 -5.44046,-14.58042 -1.81448,-4.86114 3.07683,-7.99616 4.61374,-11.99574 1.53691,-3.999583 -0.64678,-7.001309 -0.97167,-10.503463 -0.32489,-3.502154 -7.2711,-1.666261 -10.90814,-2.500891 -3.63705,-0.834631 -10.26051,-2.106672 -15.39227,-3.161507 -5.13175,-1.054836 -5.17266,-13.936489 -7.7605,-20.906234 -2.58783,-6.969744 12.49505,-3.744354 18.74108,-5.618032 6.24603,-1.873677 23.76678,7.272709 35.64867,10.907563 11.88189,3.634854 2.55368,11.825125 3.82902,17.736188 1.27535,5.911063 1.43362,8.223103 2.14893,12.333156 0.7153,4.11005 -3.01342,4.05192 -4.52164,6.07639 -1.50821,2.02446 -2.62657,3.55869 -3.94135,5.33654 -1.31479,1.77785 3.39135,3.60494 5.08553,5.40592 1.69418,1.80097 14.85607,-1.74348 22.2826,-2.61672 7.42653,-0.87323 22.62529,-15.522089 33.93644,-23.284636 11.31114,-7.762547 16.71764,-8.739559 25.07496,-13.110839 8.35732,-4.37128 16.76746,-1.584229 25.1497,-2.377844 8.38227,-0.793615 14.70087,-8.772264 22.04977,-13.159896 7.3489,-4.387633 14.9287,-5.197819 22.3916,-7.798228 7.4629,-2.600409 39.1614,-15.443292 58.7406,-23.166439 19.5792,-7.723146 12.8203,-6.269038 19.6738,-8.369742 6.8534,-2.100704 17.5554,-6.891353 25.8868,-11.373844 8.3313,-4.4824919 10.7112,7.480142 16.0653,11.218713 5.3541,3.738571 3.4363,22.706538 5.1529,34.058308 1.7167,11.351769 5.3692,12.824127 8.0522,19.234691 2.6831,6.410564 7.9913,23.343016 15.6203,38.149596 7.6291,14.80659 3.76,33.11886 2.0035,46.54022 -1.7564,13.42136 3.1137,6.06206 4.669,9.09159 1.5553,3.02952 9.114,26.66808 13.6695,40.00062 4.5556,13.33254 7.3172,49.39461 10.9743,74.09041 3.6571,24.69581 5.7838,42.67391 8.6742,64.00936 2.8904,21.33545 3.2436,47.58468 4.8639,71.37552 1.6203,23.79084 -0.5656,36.47065 -0.8499,54.70448 -0.2843,18.23382 -2.6665,29.29849 -4.0012,43.94624 -1.3348,14.64775 -8.3108,6.31219 -12.4676,9.46678 -4.1569,3.1546 -13.307,6.56255 -19.962,9.84232 -6.655,3.27977 -0.8868,13.32872 -1.3318,19.99158 -0.4449,6.66287 -5.9725,44.21763 -8.9603,66.32494 -2.9878,22.10731 -5.6917,18.0444 -8.539,27.0651 -2.8473,9.02069 -10.1662,140.75671 -15.2508,211.13357"
       sodipodi:nodetypes="cssssssssssssssssssssssssssssssssssssssssssssssssssssssssssssssc" />
  </g>
</svg>
