<?xml version="1.0" encoding="UTF-8" standalone="no"?>
<!-- Created with Inkscape (http://www.inkscape.org/) -->

<svg
   version="1.1"
   id="svg2"
   width="1893"
   height="1024"
   viewBox="0 0 1893 1024"
   sodipodi:docname="frame_0105.svg"
   inkscape:version="1.1.2 (0a00cf5339, 2022-02-04)"
   xmlns:inkscape="http://www.inkscape.org/namespaces/inkscape"
   xmlns:sodipodi="http://sodipodi.sourceforge.net/DTD/sodipodi-0.dtd"
   xmlns:xlink="http://www.w3.org/1999/xlink"
   xmlns="http://www.w3.org/2000/svg"
   xmlns:svg="http://www.w3.org/2000/svg">
  <defs
     id="defs6">
    <inkscape:path-effect
       effect="spiro"
       id="path-effect899"
       is_visible="true"
       lpeversion="1" />
    <inkscape:path-effect
       effect="spiro"
       id="path-effect862"
       is_visible="true"
       lpeversion="1" />
  </defs>
  <sodipodi:namedview
     id="namedview4"
     pagecolor="#ffffff"
     bordercolor="#666666"
     borderopacity="1.0"
     inkscape:pageshadow="2"
     inkscape:pageopacity="0.0"
     inkscape:pagecheckerboard="0"
     showgrid="false"
     inkscape:zoom="0.94803857"
     inkscape:cx="967.26023"
     inkscape:cy="614.42648"
     inkscape:window-width="1850"
     inkscape:window-height="1016"
     inkscape:window-x="70"
     inkscape:window-y="27"
     inkscape:window-maximized="1"
     inkscape:current-layer="g8" />
  <g
     inkscape:groupmode="layer"
     inkscape:label="Image"
     id="g8">
    
    <path
       style="font-variation-settings:normal;opacity:1;vector-effect:none;fill:none;fill-opacity:1;stroke:#c86487;stroke-width:1px;stroke-linecap:butt;stroke-linejoin:miter;stroke-miterlimit:4;stroke-dasharray:none;stroke-dashoffset:0;stroke-opacity:1;-inkscape-stroke:none;stop-color:#000000;stop-opacity:1"
       d="M 1160.6369,862.82538 635.52426,862.55035"
       id="path860"
       inkscape:path-effect="#path-effect862"
       inkscape:original-d="M 1160.6369,862.82538 635.52426,862.55035" />
    <path
       style="font-variation-settings:normal;opacity:1;vector-effect:none;fill:none;fill-opacity:1;stroke:#c86487;stroke-width:1px;stroke-linecap:butt;stroke-linejoin:miter;stroke-miterlimit:4;stroke-dasharray:none;stroke-dashoffset:0;stroke-opacity:1;-inkscape-stroke:none;stop-color:#000000;stop-opacity:1"
       d="m 635.52426,862.55035 c 10.22921,-40.03494 9.0703,-82.91348 -3.3065,-122.33743 -9.41903,-30.00253 -25.18313,-58.11488 -30.52882,-89.10348 -4.40495,-25.53516 -1.47365,-51.86537 4.57539,-77.06174 6.04904,-25.19638 15.15857,-49.53296 23.31132,-74.12932 6.1268,-18.48418 11.7244,-37.15426 16.285,-56.08581 5.05431,-20.98101 9.01868,-42.75313 20.22566,-61.19635 6.12151,-10.07411 14.22033,-18.81533 20.58177,-28.73967 8.03877,-12.54111 13.14474,-26.71755 17.53834,-40.95123 8.97655,-29.08078 15.32774,-59.15631 28.1771,-86.74551 2.73407,-5.87039 5.76571,-11.63674 7.71195,-17.81321 1.94624,-6.17646 2.75834,-12.90212 0.96032,-19.12335 -1.20363,-4.16464 -3.50917,-7.90687 -5.43505,-11.79067 -1.92588,-3.8838 -3.51573,-8.13585 -3.11187,-12.45208 0.2312,-2.47091 1.11642,-4.85572 2.38733,-6.98731 1.27091,-2.13158 2.92065,-4.0195 4.73069,-5.71732 3.62009,-3.39565 7.87009,-6.04132 11.70514,-9.19218 6.55954,-5.38929 11.8071,-12.16903 17.6525,-18.32559 5.84541,-6.15655 12.60086,-11.8723 20.75898,-14.22113 8.93325,-2.572 18.61105,-0.80501 27.26447,2.59152 8.78776,3.44926 17.03763,8.66815 22.99697,15.98993 5.60573,6.88733 8.95198,15.2909 12.21927,23.54828 3.26728,8.25738 6.62293,16.65868 12.24284,23.53445 5.14039,6.28909 11.91519,10.98316 18.29306,16.01298 4.32655,3.41208 8.50323,7.01 12.80037,10.45904 1.22175,0.98062 2.48023,1.9646 3.95026,2.50618 0.73501,0.27079 1.51822,0.42581 2.30101,0.39731 0.78279,-0.0285 1.56528,-0.24559 2.22153,-0.67326 0.95702,-0.62368 1.59465,-1.66501 1.88147,-2.77073 0.28683,-1.10571 0.24761,-2.27434 0.0603,-3.4012 -0.71827,-4.32191 -3.52443,-8.02254 -6.71778,-11.02209 -3.19336,-2.99954 -6.846,-5.48625 -9.96862,-8.55936 -4.50415,-4.43273 -7.77241,-9.95049 -10.76202,-15.51814 -2.98961,-5.56764 -5.77219,-11.28401 -9.50652,-16.38217 -4.04728,-5.52541 -9.25028,-10.40115 -11.65385,-16.8147 -2.50083,-6.67308 -1.59146,-14.24217 1.00995,-20.87668 0.59273,-1.51166 1.27116,-2.99414 1.72478,-4.5532 0.45362,-1.55907 0.67622,-3.22193 0.33509,-4.80941 -0.44584,-2.074766 -1.83921,-3.867659 -3.57334,-5.090861 -1.73413,-1.223202 -3.79027,-1.920826 -5.8694,-2.345838 -3.10054,-0.633807 -6.28516,-0.692184 -9.43633,-0.984047 -4.24106,-0.392808 -8.44811,-1.214386 -12.49351,-2.546907 -1.65346,-0.544635 -3.29685,-1.183417 -4.72786,-2.174767 -1.431,-0.991349 -2.64671,-2.369606 -3.17289,-4.029031 -0.39306,-1.239616 -0.38478,-2.58989 -0.0677,-3.851074 0.31711,-1.261184 0.93451,-2.435765 1.71842,-3.473369 1.56783,-2.075208 3.75645,-3.581008 5.93124,-5.007497 2.93328,-1.923997 5.9303,-3.780819 9.15515,-5.161483 3.22484,-1.380664 6.70211,-2.277268 10.20928,-2.202216 5.03158,0.107674 9.90344,2.241382 13.77029,5.462539 3.50815,2.922345 6.21406,6.668764 9.25546,10.074211 2.71257,3.037257 5.73563,5.854785 7.83313,9.34527 1.04875,1.745243 1.85482,3.655211 2.19089,5.663393 0.33608,2.008183 0.18619,4.120092 -0.60111,5.99783 -0.60734,1.448527 -1.57076,2.719157 -2.60076,3.904987 -1.02999,1.18583 -2.13794,2.30601 -3.09679,3.55007 -2.23857,2.90444 -3.62929,6.59697 -3.20076,10.23885 0.21426,1.82094 0.88482,3.59744 1.9974,5.0548 1.11257,1.45736 2.67319,2.58389 4.43264,3.09971 2.42495,0.71092 5.03264,0.24731 7.47043,-0.41826 10.59892,-2.89375 19.78196,-9.38194 28.96467,-15.41425 13.01633,-8.55069 26.50615,-16.409742 40.57897,-23.080185 31.70481,-15.027914 66.19632,-23.952436 96.85612,-41.011518 20.0669,-11.165227 38.3888,-25.758533 59.8824,-33.843575 2.5658,-0.965169 5.1683,-1.833709 7.7102,-2.8604078 1.7718,-0.7156449 3.5244,-1.5114756 5.3855,-1.9444526 1.8612,-0.432977 3.875,-0.4793611 5.6278,0.2816503 1.6479,0.7154733 2.9422,2.0961786 3.8304,3.6577731 0.8881,1.561594 1.4041,3.305079 1.8293,5.050521 0.8827,3.623305 1.4058,7.326963 2.296,10.948427 4.1909,17.04878 16.1053,31.030907 23.4559,46.974364 8.5139,18.466741 10.7131,39.092753 14.8746,58.997233 4.482,21.43724 11.3317,42.32195 15.8828,63.74462 4.2238,19.88189 6.4471,40.12642 9.6739,60.19425 3.0767,19.13459 7.0668,38.1132 10.1541,57.24608 3.7035,22.95132 6.103,46.09329 8.1649,69.24988 1.9134,21.48894 3.5388,43.02707 3.6047,64.60092 0.049,16.06431 -0.7646,32.18147 0.9145,48.15785 0.9045,8.60585 2.5074,17.48326 0,25.76528 -1.5584,5.14767 -4.6354,9.72804 -8.2408,13.71903 -5.609,6.20883 -12.5434,11.15249 -17.8509,17.62097 -4.2818,5.2184 -7.4192,11.36256 -9.1965,17.87459 -1.9285,7.06594 -2.2573,14.45682 -2.5157,21.77665 -0.7093,20.0941 -0.9704,40.2022 -1.7059,60.29535 -2.5755,70.35993 -10.9803,140.5056 -25.1001,209.4823"
       id="path897"
       inkscape:path-effect="#path-effect899"
       inkscape:original-d="m 635.52426,862.55035 c -1.10117,-40.77814 -2.20333,-81.55729 -3.3065,-122.33743 -1.10316,-40.78015 -20.35154,-59.40132 -30.52882,-89.10348 -10.17727,-29.70216 18.59214,-100.79304 27.88671,-151.19106 9.29457,-50.39802 10.85767,-37.38954 16.285,-56.08581 5.42733,-18.69626 13.48477,-40.79657 20.22566,-61.19635 6.74088,-20.39979 13.72218,-19.15878 20.58177,-28.73967 6.85959,-9.58089 11.69322,-27.29982 17.53834,-40.95123 5.84511,-13.65142 18.78573,-57.82934 28.1771,-86.74551 9.39137,-28.91617 5.78252,-24.62337 8.67227,-36.93656 2.88976,-12.31318 -5.69695,-16.16083 -8.54692,-24.24275 -2.84997,-8.08192 12.54977,-14.59688 18.82316,-21.89681 6.27339,-7.29994 25.60866,-21.69681 38.41148,-32.54672 12.80283,-10.849902 18.17731,1.72868 27.26447,2.59152 9.08715,0.86283 15.33231,10.66095 22.99697,15.98993 7.66465,5.32898 16.30907,31.38949 24.46211,47.08273 8.15303,15.69325 17.04034,8.84991 18.29306,16.01298 7.81302,44.67498 18.22823,6.25781 12.80037,10.45904 -14.14709,10.95002 6.36019,1.36351 8.4728,2.23023 2.11261,0.86672 1.29554,-4.11362 1.94181,-6.17193 0.64627,-2.05831 -11.12327,-13.0533 -16.6864,-19.58145 -5.56313,-6.52815 -13.51136,-21.26588 -20.26854,-31.90031 -6.75719,-10.63444 -7.76823,-11.2088 -11.65385,-16.8147 -3.88561,-5.6059 0.6743,-13.91679 1.00995,-20.87668 0.33565,-6.9599 1.37425,-6.24074 2.05987,-9.36261 0.68563,-3.121869 -6.29416,-4.956799 -9.44274,-7.436699 -3.14859,-2.4799 -6.28989,-0.655032 -9.43633,-0.984047 -3.14644,-0.329016 -8.328,-1.696938 -12.49351,-2.546907 -4.1655,-0.849969 -5.26617,-4.134865 -7.90075,-6.203798 -2.63459,-2.068932 5.05566,-8.220293 7.58199,-12.33194 2.52633,-4.111646 12.91062,-4.908133 19.36443,-7.363699 6.45381,-2.455567 8.6432,4.670699 13.77029,5.462539 5.12709,0.791839 6.7093,5.689134 9.25546,10.074211 2.54616,4.385077 4.67217,15.272112 9.42291,21.006493 4.75073,5.734387 -2.1866,3.704257 -5.69755,7.455057 -3.51094,3.75081 2.15385,12.26324 3.22928,18.39336 1.07542,6.13011 4.98129,-0.27784 7.47043,-0.41826 2.48915,-0.14042 19.31078,-10.27517 28.96467,-15.41425 9.65389,-5.13908 27.05365,-15.38579 40.57897,-23.080185 13.52533,-7.694395 64.57172,-27.340012 96.85612,-41.011518 32.2844,-13.671506 39.9226,-22.561384 59.8824,-33.843575 19.9598,-11.28219184 5.1411,-1.905939 7.7102,-2.8604078 2.569,-0.9544692 7.3432,-1.1075349 11.0133,-1.6628023 3.6701,-0.5552675 3.7741,5.8065291 5.6597,8.7082941 1.8856,2.901764 1.5317,7.299952 2.296,10.948427 0.7643,3.648476 15.6383,31.317243 23.4559,46.974364 7.8176,15.657121 9.9174,39.332493 14.8746,58.997233 4.9572,19.66475 10.5895,42.49742 15.8828,63.74462 5.2933,21.24721 6.4503,40.1305 9.6739,60.19425 3.2236,20.06375 6.7704,38.16505 10.1541,57.24608 3.3837,19.08103 5.4443,46.16759 8.1649,69.24988 2.7207,23.08229 2.4042,43.06828 3.6047,64.60092 1.2006,21.53264 0.6107,32.10623 0.9145,48.15785 0.3039,16.05161 0,17.17785 0,25.76528 -10e-4,8.58743 -5.4928,9.14702 -8.2408,13.71903 -2.7479,4.57201 -11.8996,11.74832 -17.8509,17.62097 -5.9513,5.87266 -6.13,11.9174 -9.1965,17.87459 -3.0666,5.9572 -1.6762,14.51877 -2.5157,21.77665 -0.8396,7.25788 -1.1363,40.1979 -1.7059,60.29535 -0.5696,20.09745 -16.7324,139.65587 -25.1001,209.4823"
       sodipodi:nodetypes="csssssssssssssssssssssssssssssssssssssssssssssssssssscsssssc" />
  </g>
</svg>
