<?xml version="1.0" encoding="UTF-8" standalone="no"?>
<!-- Created with Inkscape (http://www.inkscape.org/) -->

<svg
   version="1.1"
   id="svg2"
   width="1893"
   height="1024"
   viewBox="0 0 1893 1024"
   sodipodi:docname="frame_0111.svg"
   inkscape:version="1.1.2 (0a00cf5339, 2022-02-04)"
   xmlns:inkscape="http://www.inkscape.org/namespaces/inkscape"
   xmlns:sodipodi="http://sodipodi.sourceforge.net/DTD/sodipodi-0.dtd"
   xmlns:xlink="http://www.w3.org/1999/xlink"
   xmlns="http://www.w3.org/2000/svg"
   xmlns:svg="http://www.w3.org/2000/svg">
  <defs
     id="defs6">
    <inkscape:path-effect
       effect="spiro"
       id="path-effect899"
       is_visible="true"
       lpeversion="1" />
    <inkscape:path-effect
       effect="spiro"
       id="path-effect862"
       is_visible="true"
       lpeversion="1" />
  </defs>
  <sodipodi:namedview
     id="namedview4"
     pagecolor="#ffffff"
     bordercolor="#666666"
     borderopacity="1.0"
     inkscape:pageshadow="2"
     inkscape:pageopacity="0.0"
     inkscape:pagecheckerboard="0"
     showgrid="false"
     inkscape:zoom="2.681458"
     inkscape:cx="1252.3038"
     inkscape:cy="847.85963"
     inkscape:window-width="1850"
     inkscape:window-height="1016"
     inkscape:window-x="70"
     inkscape:window-y="27"
     inkscape:window-maximized="1"
     inkscape:current-layer="g8" />
  <g
     inkscape:groupmode="layer"
     inkscape:label="Image"
     id="g8">
    
    <path
       style="font-variation-settings:normal;opacity:1;vector-effect:none;fill:none;fill-opacity:1;stroke:#c86487;stroke-width:1px;stroke-linecap:butt;stroke-linejoin:miter;stroke-miterlimit:4;stroke-dasharray:none;stroke-dashoffset:0;stroke-opacity:1;-inkscape-stroke:none;stop-color:#000000;stop-opacity:1"
       d="M 1160.7899,863.19604 635.73928,862.22467"
       id="path860"
       inkscape:path-effect="#path-effect862"
       inkscape:original-d="M 1160.7899,863.19604 635.73928,862.22467" />
    <path
       style="font-variation-settings:normal;opacity:1;vector-effect:none;fill:none;fill-opacity:1;stroke:#c86487;stroke-width:1px;stroke-linecap:butt;stroke-linejoin:miter;stroke-miterlimit:4;stroke-dasharray:none;stroke-dashoffset:0;stroke-opacity:1;-inkscape-stroke:none;stop-color:#000000;stop-opacity:1"
       d="m 635.73928,862.22467 c 0.15091,-46.27868 -1.90773,-92.5645 -6.16656,-138.64705 -5.09919,-55.17565 -13.35318,-110.71229 -6.82732,-165.73744 3.36013,-28.3321 10.60038,-56.05727 18.62465,-83.43627 7.88684,-26.91011 16.59557,-53.70193 28.95444,-78.87363 8.9209,-18.16947 19.7342,-35.47893 26.77025,-54.45803 2.65091,-7.15058 4.74755,-14.49342 6.73599,-21.85577 4.31538,-15.97805 8.14657,-32.12784 13.92318,-47.63756 6.54366,-17.56919 15.60965,-34.42652 18.69548,-52.91905 2.5502,-15.28267 0.87993,-30.97522 2.62341,-46.3708 0.88475,-7.81263 2.70721,-15.66891 6.75551,-22.40917 5.56829,-9.27099 14.92096,-15.70695 24.76681,-20.18092 9.84584,-4.47397 20.36461,-7.24908 30.5096,-10.99557 5.50559,-2.03318 10.95785,-4.36907 16.74547,-5.34308 2.89382,-0.487 5.86189,-0.62527 8.76541,-0.19997 2.90352,0.42531 5.74407,1.42722 8.16039,3.09237 3.27734,2.2585 5.64105,5.62913 7.43705,9.18106 1.796,3.55192 3.0878,7.33372 4.67564,10.98345 4.64242,10.67087 11.75891,20.08511 19.4563,28.81264 8.6324,9.78768 18.14591,18.94337 25.03093,30.03 2.69013,4.33178 4.97844,8.95721 8.30198,12.8244 1.66177,1.9336 3.58285,3.66709 5.79359,4.93709 2.21074,1.27 4.72267,2.06447 7.27217,2.08264 0.87524,0.006 1.75574,-0.0791 2.59705,-0.32055 0.84131,-0.24142 1.64382,-0.64293 2.29836,-1.22401 0.69605,-0.61793 1.21096,-1.4287 1.52083,-2.30637 0.30988,-0.87767 0.41843,-1.82059 0.36556,-2.74985 -0.10576,-1.85853 -0.84356,-3.62872 -1.77158,-5.24244 -1.97022,-3.42596 -4.8034,-6.27747 -7.81462,-8.83707 -3.01122,-2.55961 -6.23054,-4.86857 -9.20395,-7.47199 -8.14188,-7.12877 -14.25652,-16.31077 -19.20413,-25.93525 -2.25125,-4.37932 -4.28368,-8.87656 -6.77835,-13.12193 -2.49467,-4.24537 -5.49047,-8.2702 -9.35542,-11.32122 -1.85784,-1.46659 -3.89568,-2.69227 -5.75919,-4.15165 -1.86351,-1.45938 -3.58375,-3.20356 -4.52672,-5.37456 -0.72724,-1.67432 -0.95839,-3.53724 -0.84618,-5.35923 0.1122,-1.82199 0.55768,-3.60984 1.13748,-5.34075 1.15961,-3.46183 2.86441,-6.74966 3.65396,-10.31414 0.47854,-2.16039 0.60858,-4.42438 0.12626,-6.583932 -0.48233,-2.15955 -1.60929,-4.210468 -3.3389,-5.590596 -1.98196,-1.581491 -4.58496,-2.177222 -7.1167,-2.317194 -2.53173,-0.139973 -5.06991,0.128966 -7.60451,0.05755 -3.4963,-0.09852 -7.06075,-0.88953 -9.94016,-2.875173 -1.85475,-1.279032 -3.3796,-3.033024 -4.38503,-5.049238 -1.00542,-2.016214 -1.48892,-4.290459 -1.3871,-6.541155 0.10182,-2.250697 0.78912,-4.472839 1.97881,-6.386122 1.18968,-1.913282 2.87937,-3.513153 4.85644,-4.593531 3.55284,-1.94147 7.84344,-2.133537 11.82815,-1.416522 3.98471,0.717014 7.75922,2.27572 11.55143,3.693876 6.24053,2.333744 12.85094,4.453911 17.60109,9.125804 3.11683,3.065476 5.2094,7.048495 6.59775,11.193884 1.75959,5.25386 2.42459,11.108637 0.45515,16.28749 -1.10867,2.91537 -2.99732,5.4847 -4.10034,8.40222 -0.5515,1.45875 -0.90239,3.0144 -0.82196,4.57185 0.0804,1.55745 0.61806,3.11996 1.66891,4.27228 1.04169,1.14228 2.51706,1.8155 4.02547,2.15408 1.50841,0.33859 3.06637,0.36965 4.61184,0.40806 2.71712,0.0675 5.44208,0.16199 8.14818,-0.0916 2.70611,-0.25362 5.4116,-0.86823 7.81187,-2.14339 3.60268,-1.91396 6.26921,-5.15798 9.11879,-8.07731 14.40859,-14.761289 34.62577,-22.054365 54.19582,-28.574822 19.35879,-6.450068 38.87489,-12.620327 57.39179,-21.192903 18.5087,-8.568738 35.8342,-19.452177 53.1883,-30.167944 20.2535,-12.506082 40.9874,-24.9833562 64.0111,-31.0262956 2.2779,-0.5978738 4.6795,-1.1317649 6.9652,-0.5642568 2.1408,0.5315486 3.9779,2.017126 5.1736,3.8707578 1.1957,1.8536318 1.7862,4.0516106 1.9544,6.2510316 0.3362,4.398841 -0.9439,8.738077 -1.5735,13.104597 -1.3109,9.09183 0.2166,18.395822 2.9171,27.175737 2.7006,8.779915 6.5532,17.152461 10.0383,25.651524 9.3085,22.700694 16.0224,46.388274 21.6231,70.275544 9.0783,38.71938 15.271,78.04701 22.7737,117.10229 4.1375,21.53778 8.6782,43.01944 11.5385,64.76372 4.3788,33.28798 4.7906,66.96197 7.6781,100.41231 1.5636,18.11368 3.852,36.37792 1.4719,54.4025 -0.9116,6.90356 -2.5044,13.71029 -4.6094,20.34798 -2.0638,6.5075 -4.6529,12.91854 -8.544,18.52796 -5.1026,7.35586 -12.2134,13.02736 -18.8992,18.98099 -4.5501,4.05178 -8.9732,8.31214 -12.5016,13.2791 -5.3173,7.48535 -8.4343,16.37016 -10.0249,25.41309 -1.5906,9.04294 -1.7104,18.28085 -1.4487,27.45887 0.4325,15.16533 1.8934,30.28008 2.8832,45.41926 4.5468,69.54775 -0.9116,139.74189 -16.1551,207.75071"
       id="path897"
       inkscape:path-effect="#path-effect899"
       inkscape:original-d="m 635.73928,862.22467 c -2.05452,-46.21468 -4.11004,-92.43037 -6.16656,-138.64705 -2.05652,-46.21668 -4.55055,-110.49063 -6.82732,-165.73744 -2.27677,-55.24682 12.41744,-55.62318 18.62465,-83.43627 6.20722,-27.81309 19.30396,-52.58142 28.95444,-78.87363 9.65048,-26.29221 17.84783,-36.30435 26.77025,-54.45803 8.92241,-18.15367 4.49166,-14.56951 6.73599,-21.85577 2.24433,-7.28626 9.28312,-31.75737 13.92318,-47.63756 4.64005,-15.88018 12.46465,-35.27836 18.69548,-52.91905 6.23083,-17.64068 1.74994,-30.91287 2.62341,-46.3708 0.87346,-15.45794 4.50467,-14.93844 6.75551,-22.40917 2.25084,-7.47072 36.85194,-20.78332 55.27641,-31.17649 18.42447,-10.39316 22.44851,-1.63279 33.67127,-2.45068 11.22275,-0.8179 8.07612,13.444 12.11269,20.16451 4.03656,6.7205 12.97187,19.20942 19.4563,28.81264 6.48444,9.60321 16.68829,20.021 25.03093,30.03 8.34265,10.00901 14.24616,13.23042 21.36774,19.84413 7.12158,6.6137 3.26461,-1.02871 4.89541,-1.54456 1.6308,-0.51585 0.0775,-6.86477 0.11481,-10.29866 0.0373,-3.43388 -11.34471,-10.8717 -17.01857,-16.30906 -5.67386,-5.43735 -12.80175,-17.28916 -19.20413,-25.93525 -6.40237,-8.64608 -10.75484,-16.29443 -16.13377,-24.44315 -5.37892,-8.14872 -6.85627,-6.34981 -10.28591,-9.52621 -3.42963,-3.17641 2.63118,-14.00842 3.94526,-21.01412 1.31409,-7.005709 -2.14076,-8.115353 -3.21264,-12.174528 -1.07188,-4.059175 -9.81314,-1.50543 -14.72121,-2.259645 -4.90807,-0.754215 -6.62577,-1.915782 -9.94016,-2.875173 -3.31438,-0.959391 0.70975,-15.045697 1.06312,-22.570046 0.35337,-7.524348 15.58738,1.519236 23.37958,2.277354 7.79219,0.758118 11.73506,6.084869 17.60109,9.125804 5.86603,3.040934 4.3995,7.463589 6.59775,11.193884 2.19825,3.730295 0.30443,10.859328 0.45515,16.28749 0.15071,5.42817 -2.16793,11.49857 -3.25339,17.24635 -1.08546,5.74778 5.75921,1.70909 8.63731,2.56214 2.8781,0.85305 10.64103,-1.48902 15.96005,-2.23503 5.31902,-0.74601 6.0802,-5.38387 9.11879,-8.07731 3.0386,-2.69343 36.13155,-19.04888 54.19582,-28.574822 18.06427,-9.525941 38.26219,-14.127602 57.39179,-21.192903 19.1295,-7.065301 35.4598,-20.110963 53.1883,-30.167944 17.7284,-10.056981 42.6751,-20.683197 64.0111,-31.0262956 21.3361,-10.3430986 4.6444,-0.3751712 6.9652,-0.5642568 2.3207,-0.1890856 3.704,15.4852574 5.5545,23.2263864 1.8505,7.741128 8.6379,35.219174 12.9554,52.827261 4.3174,17.608087 14.4164,46.851364 21.6231,70.275544 7.2068,23.42418 15.1835,78.0692 22.7737,117.10229 7.5902,39.0331 7.6933,43.17682 11.5385,64.76372 3.8452,21.58691 5.1197,66.94254 7.6781,100.41231 2.5583,33.46976 0.9822,36.26933 1.4719,54.4025 0.4896,18.13316 -3.0719,13.56632 -4.6094,20.34798 -1.5374,6.78166 -5.695,12.35297 -8.544,18.52796 -2.849,6.17498 -12.5985,12.65499 -18.8992,18.98099 -6.3008,6.32599 -8.3334,8.85373 -12.5016,13.2791 -4.1682,4.42537 -7.6481,35.24897 -11.4736,52.87196 -3.8255,17.62298 1.9231,30.28051 2.8832,45.41926 0.96,15.13876 -10.7691,138.50147 -16.1551,207.75071" />
  </g>
</svg>
