<?xml version="1.0" encoding="UTF-8" standalone="no"?>
<!-- Created with Inkscape (http://www.inkscape.org/) -->

<svg
   version="1.1"
   id="svg2"
   width="1893"
   height="1024"
   viewBox="0 0 1893 1024"
   sodipodi:docname="frame_0040.svg"
   inkscape:version="1.1.2 (0a00cf5339, 2022-02-04)"
   xmlns:inkscape="http://www.inkscape.org/namespaces/inkscape"
   xmlns:sodipodi="http://sodipodi.sourceforge.net/DTD/sodipodi-0.dtd"
   xmlns:xlink="http://www.w3.org/1999/xlink"
   xmlns="http://www.w3.org/2000/svg"
   xmlns:svg="http://www.w3.org/2000/svg">
  <defs
     id="defs6">
    <inkscape:path-effect
       effect="spiro"
       id="path-effect899"
       is_visible="true"
       lpeversion="1" />
    <inkscape:path-effect
       effect="spiro"
       id="path-effect862"
       is_visible="true"
       lpeversion="1" />
  </defs>
  <sodipodi:namedview
     id="namedview4"
     pagecolor="#ffffff"
     bordercolor="#666666"
     borderopacity="1.0"
     inkscape:pageshadow="2"
     inkscape:pageopacity="0.0"
     inkscape:pagecheckerboard="0"
     showgrid="false"
     inkscape:zoom="0.47401928"
     inkscape:cx="1307.9637"
     inkscape:cy="403.992"
     inkscape:window-width="1850"
     inkscape:window-height="1016"
     inkscape:window-x="70"
     inkscape:window-y="27"
     inkscape:window-maximized="1"
     inkscape:current-layer="g8" />
  <g
     inkscape:groupmode="layer"
     inkscape:label="Image"
     id="g8">
    
    <path
       style="font-variation-settings:normal;opacity:1;vector-effect:none;fill:none;fill-opacity:1;stroke:#c86487;stroke-width:1px;stroke-linecap:butt;stroke-linejoin:miter;stroke-miterlimit:4;stroke-dasharray:none;stroke-dashoffset:0;stroke-opacity:1;-inkscape-stroke:none;stop-color:#000000;stop-opacity:1"
       d="m 1160.7674,862.4534 -525.04685,0.30144"
       id="path860"
       inkscape:path-effect="#path-effect862"
       inkscape:original-d="m 1160.7674,862.4534 -525.04685,0.30144" />
    <path
       style="font-variation-settings:normal;opacity:1;vector-effect:none;fill:none;fill-opacity:1;stroke:#c86487;stroke-width:1px;stroke-linecap:butt;stroke-linejoin:miter;stroke-miterlimit:4;stroke-dasharray:none;stroke-dashoffset:0;stroke-opacity:1;-inkscape-stroke:none;stop-color:#000000;stop-opacity:1"
       d="m 635.72055,862.75484 c -16.51079,-36.24728 -27.08394,-75.19112 -31.171,-114.81141 -6.40275,-62.06876 3.03796,-124.58364 3.63969,-186.97887 0.19855,-20.58812 -0.55898,-41.29758 2.51347,-61.65611 3.81109,-25.25286 13.42483,-49.28684 24.70204,-72.20093 10.22459,-20.77528 21.89294,-40.88986 30.44622,-62.4072 6.54533,-16.46596 11.20976,-33.61697 15.32342,-50.85202 5.25533,-22.01834 9.99271,-45.0459 23.66157,-63.08996 2.51704,-3.32271 5.31884,-6.44538 7.49771,-9.99903 2.17886,-3.55366 3.7279,-7.66335 3.39879,-11.81878 -0.19247,-2.43022 -1.0216,-4.78015 -2.17577,-6.92746 -1.15417,-2.1473 -2.62904,-4.10578 -4.17981,-5.98677 -3.10155,-3.76199 -6.58238,-7.3301 -8.6077,-11.76521 -2.6447,-5.79146 -2.50577,-12.60946 -0.48215,-18.64605 2.02362,-6.03659 5.80628,-11.35719 10.18782,-15.97645 9.21067,-9.71041 21.09869,-16.55422 33.53353,-21.50428 12.21166,-4.86122 25.06402,-8.01402 37.15985,-13.15668 3.32924,-1.41546 6.6315,-2.9912 10.17746,-3.70783 1.77297,-0.35831 3.60041,-0.49611 5.39607,-0.27828 1.79566,0.21782 3.56055,0.79957 5.06686,1.80101 2.77504,1.84493 4.43966,4.90407 6.21507,7.7241 6.3839,10.14004 15.321,18.3594 23.78702,26.83885 9.64784,9.66315 18.82335,19.83435 26.87367,30.86384 4.344,5.95158 8.41528,12.21412 13.93413,17.09613 1.3811,1.22174 2.86197,2.35943 4.53902,3.12598 0.87947,0.40199 1.81917,0.70077 2.78513,0.74539 0.96596,0.0446 1.9629,-0.18009 2.74745,-0.74539 0.64003,-0.46116 1.1144,-1.1306 1.40888,-1.86244 0.29448,-0.73184 0.41592,-1.52495 0.43168,-2.31366 0.0489,-2.44845 -0.9057,-4.83119 -2.25729,-6.87337 -1.35159,-2.04218 -3.0904,-3.79303 -4.79893,-5.54752 -30.74938,-31.57652 -55.17728,-68.62489 -82.02733,-103.577363 -0.87522,-1.139335 -1.75556,-2.280133 -2.48766,-3.516309 -2.09178,-3.532045 -2.88726,-7.841872 -2.0465,-11.859832 0.84076,-4.01796 3.34408,-7.689681 6.85593,-9.815197 3.36788,-2.038382 7.50999,-2.605795 11.3966,-1.979824 3.88662,0.625972 7.53032,2.383401 10.72919,4.67792 4.60841,3.305562 8.32131,7.680598 12.03178,11.969719 5.4593,6.310672 11.09949,12.655356 14.57132,20.243166 1.80773,3.95086 2.99359,8.17329 4.95616,12.04957 0.98128,1.93814 2.16067,3.78991 3.64539,5.37575 1.48473,1.58584 3.28578,2.9019 5.32006,3.66412 3.58125,1.34185 7.66875,0.86646 11.16658,-0.67987 3.49783,-1.54633 6.47092,-4.08369 9.10325,-6.858 3.53755,-3.72836 6.54586,-7.93056 10.06728,-11.67416 3.52143,-3.7436 7.69605,-7.09197 12.64113,-8.49238 5.24304,-1.484791 10.83668,-0.655 16.19126,0.35623 5.35457,1.01124 10.81442,2.1993 16.20433,1.3975 6.25617,-0.93066 11.83096,-4.472659 16.65374,-8.564916 4.82278,-4.092257 9.10191,-8.806759 14.0582,-12.736255 11.47458,-9.097386 25.86586,-13.481941 39.02794,-19.89973 13.4622,-6.564131 25.7364,-15.324029 37.4831,-24.615604 15.4997,-12.260119 30.5044,-25.707071 48.6371,-33.5655368 2.9425,-1.2752607 5.9992,-2.4062879 9.194,-2.6863795 3.1947,-0.28009159 6.5733,0.3695667 9.0946,2.3515174 1.3705,1.0773052 2.4438,2.5133515 3.1658,4.0999905 0.722,1.586639 1.0982,3.3208894 1.1829,5.0620214 0.1695,3.482262 -0.8117,6.932963 -2.204,10.129263 -1.5098,3.465972 -3.5036,6.703343 -5.0383,10.158359 -1.5347,3.455017 -2.6134,7.243924 -2.135,10.994069 0.3391,2.65861 1.4473,5.168962 2.8419,7.457643 1.3947,2.288681 3.078,4.385093 4.6884,6.527468 12.8981,17.158627 21.1661,37.340333 27.8184,57.7493 13.2314,40.59334 20.5626,82.82125 29.3805,124.59605 6.8807,32.59771 14.7072,65.12524 17.5971,98.31566 1.6329,18.7536 1.6783,37.61101 2.9721,56.39105 1.6195,23.50751 5.197,46.8709 10.4666,69.83735 1.8023,7.85512 3.8107,15.7195 4.2659,23.76587 0.4553,8.04636 -0.7544,16.41286 -4.9752,23.27844 -2.8791,4.68324 -7.0015,8.44383 -10.6558,12.55092 -3.4137,3.83666 -6.4516,8.02277 -8.8659,12.55537 -5.0464,9.47417 -7.2392,20.17189 -9.1383,30.73691 -4.9465,27.51807 -8.3104,55.30486 -10.7139,83.16047 -6.0734,70.38688 -6.0157,141.30172 0.1723,211.67862"
       id="path897"
       inkscape:path-effect="#path-effect899"
       inkscape:original-d="m 635.72055,862.75484 c -10.38933,-38.26947 -20.77967,-76.53994 -31.171,-114.81141 -10.39133,-38.27146 2.42746,-124.65158 3.63969,-186.97887 1.21222,-62.32729 1.67665,-41.10307 2.51347,-61.65611 0.83683,-20.55304 16.46903,-48.13295 24.70204,-72.20093 8.23302,-24.06798 20.29848,-41.6038 30.44622,-62.4072 10.14774,-20.8034 10.21662,-33.90034 15.32342,-50.85202 5.10681,-16.95167 15.77538,-42.05897 23.66157,-63.08996 7.8862,-21.03099 7.26534,-14.54421 10.8965,-21.81781 3.63117,-7.27361 -9.97452,-16.45196 -14.96328,-24.67944 -4.98876,-8.22748 6.47145,-23.08067 9.70567,-34.6225 3.23423,-11.54183 22.35669,-14.33518 33.53353,-21.50428 11.17684,-7.16909 24.77423,-8.77012 37.15985,-13.15668 12.38562,-4.38656 13.76126,-1.45573 20.64039,-2.1851 6.87913,-0.72937 4.14438,5.1504 6.21507,7.7241 2.07069,2.57369 15.85901,17.89357 23.78702,26.83885 7.92801,8.94529 17.91678,20.57689 26.87367,30.86384 8.95689,10.28694 9.29042,11.39842 13.93413,17.09613 4.64372,5.69772 3.02701,2.08499 4.53902,3.12598 1.512,1.04099 3.68938,0.001 5.53258,0 1.84319,-0.001 1.22804,-2.78307 1.84056,-4.1761 0.61252,-1.39303 -4.70314,-8.27959 -7.05622,-12.42089 -2.35307,-4.14129 -54.68388,-69.05057 -82.02733,-103.577363 -27.34344,-34.526789 -1.65744,-2.343206 -2.48766,-3.516309 -0.83022,-1.173102 3.20729,-14.449019 4.80943,-21.675029 1.60215,-7.22601 14.75153,1.799731 22.12579,2.698096 7.37427,0.898366 8.02218,7.980813 12.03178,11.969719 4.00959,3.988906 9.71521,13.496446 14.57132,20.243166 4.8561,6.74672 9.28208,14.06063 13.92161,21.08944 4.63954,7.02881 13.51422,-5.02425 20.26983,-7.53787 6.75561,-2.51363 15.13994,-13.44336 22.70841,-20.16654 7.56847,-6.723175 21.59806,1.17015 32.39559,1.75373 10.79753,0.58358 20.47563,-14.199781 30.71194,-21.301171 10.23632,-7.10139 26.01961,-13.265487 39.02794,-19.89973 13.0083,-6.634244 24.9898,-16.409403 37.4831,-24.615604 12.4934,-8.206201 32.4257,-22.376024 48.6371,-33.5655368 16.2113,-11.1895123 12.1934,-0.2222414 18.2886,-0.3348621 6.0953,-0.1126207 1.4308,12.8618499 2.1447,19.2912749 0.7139,6.429426 -4.7812,14.102619 -7.1733,21.152428 -2.3922,7.049809 5.0212,9.324407 7.5303,13.985111 2.5091,4.660704 18.5466,38.500534 27.8184,57.7493 9.2718,19.24877 19.588,83.06503 29.3805,124.59605 9.7925,41.53101 9.5874,54.78681 17.5971,98.31566 8.0096,43.52885 4.1273,48.353 2.9721,56.39105 -1.1553,8.03806 8.227,59.74434 10.4666,69.83735 2.2396,10.09301 -1.7202,18.17876 -0.7093,47.04431 1.0108,28.86554 -7.1029,8.36828 -10.6558,12.55092 -3.5529,4.18265 -5.9096,8.37125 -8.8659,12.55537 -2.9564,4.18412 -6.0912,20.49227 -9.1383,30.73691 -3.0471,10.24464 -7.1416,55.44131 -10.7139,83.16047 -3.5723,27.71916 0.1159,141.12008 0.1723,211.67862"
       sodipodi:nodetypes="csssssssssssssssssssssssssssssssssssssssssssssssssc" />
  </g>
</svg>
