<?xml version="1.0" encoding="UTF-8" standalone="no"?>
<!-- Created with Inkscape (http://www.inkscape.org/) -->

<svg
   version="1.1"
   id="svg2"
   width="1893"
   height="1024"
   viewBox="0 0 1893 1024"
   xmlns:xlink="http://www.w3.org/1999/xlink"
   xmlns="http://www.w3.org/2000/svg"
   xmlns:svg="http://www.w3.org/2000/svg">
  <defs
     id="defs6" />
  <g
     id="g8">
    
    <path
       style="font-variation-settings:normal;opacity:1;vector-effect:none;fill:none;fill-opacity:1;stroke:#c86487;stroke-width:1px;stroke-linecap:butt;stroke-linejoin:miter;stroke-miterlimit:4;stroke-dasharray:none;stroke-dashoffset:0;stroke-opacity:1;-inkscape-stroke:none;stop-color:#000000;stop-opacity:1"
       d="M 1160.5299,863.24822 635.27484,862.78307"
       id="path860" />
    <path
       style="font-variation-settings:normal;opacity:1;vector-effect:none;fill:none;fill-opacity:1;stroke:#c86487;stroke-width:1px;stroke-linecap:butt;stroke-linejoin:miter;stroke-miterlimit:4;stroke-dasharray:none;stroke-dashoffset:0;stroke-opacity:1;-inkscape-stroke:none;stop-color:#000000;stop-opacity:1"
       d="m 635.27484,862.78307 c -26.32832,-37.48148 -42.67101,-81.91001 -46.90657,-127.51814 -6.41538,-69.08027 14.37076,-137.33682 27.42876,-205.47439 6.70061,-34.96425 11.47636,-70.60673 24.19543,-103.85763 4.05814,-10.609 8.90529,-20.91121 14.37749,-30.86482 7.7709,-14.1348 16.86176,-27.69972 22.16975,-42.93142 4.9097,-14.08878 6.40212,-29.09089 8.66961,-43.83733 2.26749,-14.74643 5.47542,-29.71614 13.32278,-42.40541 5.58391,-9.02925 13.46571,-16.83033 16.83687,-26.89724 2.56144,-7.64895 2.26049,-16.04233 0.33503,-23.87559 -1.19865,-4.87643 -3.00271,-9.58016 -4.47058,-14.38242 -1.46787,-4.80225 -2.60747,-9.77903 -2.41611,-14.79696 0.30591,-8.02166 4.04385,-15.64228 9.26092,-21.74333 8.71073,-10.18668 21.21407,-16.37086 33.88276,-20.74688 12.66869,-4.37603 25.85599,-7.22389 38.29518,-12.21507 1.92202,-0.7712 3.83199,-1.59548 5.83681,-2.11468 2.00483,-0.51919 4.13225,-0.72366 6.14589,-0.23976 2.90082,0.6971 5.31644,2.76977 7.05201,5.19639 1.73558,2.42663 2.88254,5.21396 4.06726,7.95205 13.13512,30.35747 33.57387,58.57507 62.20812,75.13367 0.9611,0.55579 1.94396,1.1035 3.01873,1.38188 1.07477,0.27837 2.26694,0.26303 3.24023,-0.27114 0.54703,-0.30022 1.00491,-0.75457 1.33002,-1.28719 0.3251,-0.53261 0.51894,-1.14166 0.58557,-1.76209 0.13326,-1.24085 -0.24173,-2.49999 -0.87883,-3.5731 -1.2742,-2.14624 -3.47668,-3.53224 -5.37459,-5.1533 -5.01778,-4.28584 -8.05641,-10.41355 -10.54677,-16.52458 -2.49037,-6.11103 -4.60731,-12.45952 -8.3108,-17.92127 -3.98953,-5.88359 -9.61208,-10.43187 -15.13101,-14.91232 -5.51892,-4.48046 -11.10894,-9.08251 -14.9993,-15.03214 -3.40283,-5.20405 -5.39317,-11.5124 -4.58906,-17.67801 0.33324,-2.5552 1.13003,-5.02552 1.62766,-7.55385 0.49762,-2.52833 0.68355,-5.20727 -0.18448,-7.63351 -0.59249,-1.65609 -1.65986,-3.12397 -2.97859,-4.28785 -1.31873,-1.16389 -2.88341,-2.0311 -4.53176,-2.6448 -3.29669,-1.22739 -6.87234,-1.44542 -10.38793,-1.56935 -2.79899,-0.0987 -5.63501,-0.15077 -8.33079,-0.910302 -1.34789,-0.379765 -2.65306,-0.937904 -3.8076,-1.730398 -1.15455,-0.792495 -2.15608,-1.825021 -2.83258,-3.051141 -0.91981,-1.667108 -1.20616,-3.644606 -0.97048,-5.533987 0.23569,-1.88938 0.97312,-3.694103 1.97876,-5.310888 2.01128,-3.233568 5.02555,-5.687922 7.84404,-8.24865 1.49593,-1.359119 2.95479,-2.767602 4.5819,-3.966568 1.62711,-1.198966 3.44513,-2.191586 5.42374,-2.604015 2.3233,-0.484276 4.77617,-0.13854 6.97658,0.750535 2.2004,0.889074 4.16159,2.301541 5.8823,3.935974 3.44143,3.268868 5.93607,7.390768 8.99788,11.01764 3.14987,3.731179 6.88408,6.919757 10.27623,10.432113 3.39216,3.512357 6.5055,7.463947 8.01887,12.106477 0.65243,2.00144 0.99312,4.08841 1.45757,6.14163 0.46445,2.05321 1.06751,4.1084 2.18398,5.89303 1.47217,2.3532 3.8174,4.13321 6.46073,4.98036 2.64333,0.84714 5.56347,0.76732 8.17928,-0.16133 2.1167,-0.75146 4.01077,-2.02779 5.74564,-3.45444 1.73487,-1.42665 3.3319,-3.01248 5.02622,-4.48706 8.46885,-7.37051 19.08963,-11.74351 29.65419,-15.54297 13.74096,-4.941829 27.75625,-9.134555 41.29911,-14.595927 25.83753,-10.419392 49.62519,-25.322582 72.47029,-41.267559 19.1484,-13.364796 37.8953,-27.607402 59.0163,-37.56631 1.4002,-0.6602396 2.8681,-1.3140685 4.4161,-1.2971113 1.6977,0.018597 3.3251,0.8749002 4.473,2.1257302 1.148,1.25083 1.8465,2.8660281 2.2011,4.5263391 0.7094,3.320623 0.1056,6.762833 0.1119,10.158366 0.017,8.881588 4.2295,17.264666 9.5156,24.401898 5.2861,7.137232 11.6992,13.374289 17.0856,20.436098 16.4059,21.508702 22.2179,49.016496 27.8195,75.481556 8.8951,42.02518 18.3701,83.93236 28.9074,125.57615 8.2431,32.57724 17.1971,65.43696 17.2753,99.04082 0.041,17.44677 -2.3208,34.80389 -3.234,52.22678 -0.9133,17.4229 -0.3181,35.24639 5.4145,51.7245 1.8776,5.39701 4.2906,10.60173 6.0167,16.04911 1.726,5.44738 2.7548,11.2569 1.7579,16.88356 -0.8488,4.79099 -3.1543,9.26579 -6.289,12.98708 -3.172,3.76559 -7.1411,6.76088 -10.7392,10.12164 -13.3552,12.4742 -21.3609,29.87873 -25.1335,47.75987 -4.9942,23.67156 -3.0531,48.17499 -1.5964,72.32376 4.3212,71.63462 4.1675,143.53889 -0.4601,215.15437"
       id="path897" />
  </g>
</svg>
