<?xml version="1.0" encoding="UTF-8" standalone="no"?>
<!-- Created with Inkscape (http://www.inkscape.org/) -->

<svg
   version="1.1"
   id="svg2"
   width="1893"
   height="1024"
   viewBox="0 0 1893 1024"
   sodipodi:docname="frame_0063.svg"
   inkscape:version="1.1.2 (0a00cf5339, 2022-02-04)"
   xmlns:inkscape="http://www.inkscape.org/namespaces/inkscape"
   xmlns:sodipodi="http://sodipodi.sourceforge.net/DTD/sodipodi-0.dtd"
   xmlns:xlink="http://www.w3.org/1999/xlink"
   xmlns="http://www.w3.org/2000/svg"
   xmlns:svg="http://www.w3.org/2000/svg">
  <defs
     id="defs6">
    <inkscape:path-effect
       effect="spiro"
       id="path-effect932"
       is_visible="true"
       lpeversion="1" />
    <inkscape:path-effect
       effect="spiro"
       id="path-effect895"
       is_visible="true"
       lpeversion="1" />
  </defs>
  <sodipodi:namedview
     id="namedview4"
     pagecolor="#ffffff"
     bordercolor="#666666"
     borderopacity="1.0"
     inkscape:pageshadow="2"
     inkscape:pageopacity="0.0"
     inkscape:pagecheckerboard="0"
     showgrid="false"
     inkscape:zoom="0.6703645"
     inkscape:cx="954.70449"
     inkscape:cy="581.02719"
     inkscape:window-width="1850"
     inkscape:window-height="1016"
     inkscape:window-x="70"
     inkscape:window-y="27"
     inkscape:window-maximized="1"
     inkscape:current-layer="g8" />
  <g
     inkscape:groupmode="layer"
     inkscape:label="Image"
     id="g8">
    
    <path
       style="font-variation-settings:normal;opacity:1;vector-effect:none;fill:none;fill-opacity:1;stroke:#c86487;stroke-width:1px;stroke-linecap:butt;stroke-linejoin:miter;stroke-miterlimit:4;stroke-dasharray:none;stroke-dashoffset:0;stroke-opacity:1;-inkscape-stroke:none;stop-color:#000000;stop-opacity:1"
       d="m 1160.3982,863.07869 -524.90799,-0.0733"
       id="path893"
       inkscape:path-effect="#path-effect895"
       inkscape:original-d="m 1160.3982,863.07869 -524.90799,-0.0733" />
    <path
       style="font-variation-settings:normal;opacity:1;vector-effect:none;fill:none;fill-opacity:1;stroke:#c86487;stroke-width:1px;stroke-linecap:butt;stroke-linejoin:miter;stroke-miterlimit:4;stroke-dasharray:none;stroke-dashoffset:0;stroke-opacity:1;-inkscape-stroke:none;stop-color:#000000;stop-opacity:1"
       d="m 635.49021,863.00539 c -19.11197,-68.61399 -29.54267,-139.64117 -30.96484,-210.853 -1.13377,-56.77122 3.63597,-114.52153 23.73737,-167.627 14.68603,-38.79873 37.27067,-74.38463 50.07559,-113.84417 5.09002,-15.68538 8.59159,-31.86301 13.99843,-47.44202 5.59277,-16.11474 13.21744,-31.57418 17.14222,-48.17418 3.56687,-15.0862 3.98141,-30.7087 4.71878,-46.19328 0.73738,-15.48458 1.85048,-31.14959 6.72179,-45.86646 6.50439,-19.65061 19.96523,-37.13612 37.92974,-47.41864 13.1808,-7.54442 28.30376,-11.09581 43.39523,-12.79857 4.6863,-0.52875 9.5569,-0.8691 14.00603,0.69493 2.95217,1.03779 5.58186,2.88176 7.77741,5.11153 2.19556,2.22977 3.97404,4.84039 5.50756,7.56814 3.06705,5.4555 5.19222,11.41459 8.46282,16.75054 4.52538,7.38312 11.05196,13.27944 17.28993,19.28588 6.23797,6.00643 12.40055,12.41145 15.88377,20.33968 3.01202,6.85571 3.8856,14.5699 7.4567,21.15172 1.78555,3.29091 4.28906,6.28205 7.56129,8.1016 1.63611,0.90978 3.45029,1.51433 5.31421,1.68862 1.86392,0.17428 3.77671,-0.0885 5.49476,-0.8321 2.54019,-1.09937 4.55915,-3.20767 5.90144,-5.6283 2.6095,-4.70588 2.73891,-10.54148 1.05848,-15.65331 -1.68044,-5.11184 -5.03251,-9.54914 -8.97843,-13.20762 -7.89183,-7.31696 -18.07644,-11.69985 -26.36638,-18.56249 -13.12466,-10.86495 -20.55409,-27.12643 -25.60633,-43.39846 -1.84593,-5.94527 -3.43361,-11.96981 -4.79969,-18.04332 -0.49047,-2.1806 -0.97331,-4.41971 -2.17326,-6.30536 -1.43837,-2.260299 -3.81125,-3.8156 -6.34992,-4.671753 -2.53867,-0.856153 -5.24958,-1.06729 -7.92864,-1.088958 -2.24279,-0.01814 -4.53123,0.08598 -6.68026,-0.555953 -1.07452,-0.320969 -2.10341,-0.832413 -2.9401,-1.57911 -0.83669,-0.746697 -1.47313,-1.738322 -1.70213,-2.836122 -0.16045,-0.769194 -0.11888,-1.576366 0.0935,-2.332863 0.2124,-0.756497 0.59336,-1.462283 1.08805,-2.072762 0.98938,-1.220957 2.41362,-2.040714 3.91883,-2.492325 3.01042,-0.903222 6.2327,-0.401635 9.37318,-0.27582 5.59109,0.223992 11.15809,-0.772316 16.75151,-0.927505 2.79671,-0.07759 5.61357,0.0575 8.34699,0.654197 2.73341,0.596701 5.38827,1.668162 7.62908,3.343387 2.97014,2.220466 5.10081,5.41599 6.56905,8.821343 1.46825,3.405353 2.31902,7.039624 3.12186,10.660074 0.83549,3.76769 1.63395,7.56784 3.08536,11.14372 0.94884,2.33769 2.21843,4.6204 4.16542,6.22487 2.5669,2.11533 6.08895,2.8242 9.3967,2.47436 3.30775,-0.34985 6.43988,-1.66674 9.37339,-3.23458 11.79969,-6.30646 21.03072,-16.7402 32.96662,-22.78491 10.22603,-5.178776 21.80313,-6.827455 32.97028,-9.413223 23.843,-5.520877 46.48677,-15.571699 67.52387,-28.07812 19.5702,-11.634388 37.9771,-25.539594 52.941,-42.698664 4.3401,-4.976777 8.4904,-10.3121466 14.0969,-13.8010948 2.8032,-1.7444741 5.9572,-2.9913525 9.2439,-3.3052934 3.2868,-0.313941 6.7104,0.3478762 9.4814,2.1430177 1.9296,1.2500471 3.4989,3.0120496 4.6822,4.9832855 1.1833,1.971235 1.9922,4.149959 2.5681,6.3758 1.1517,4.451683 1.3861,9.085588 2.2177,13.608042 2.6165,14.22954 10.9395,26.622318 17.4355,39.550106 15.1907,30.231176 20.6525,64.229184 27.7599,97.307354 14.334,66.71072 36.137,132.2529 40.9095,200.31909 3.6423,51.94734 -2.7309,104.48418 4.6825,156.02866 0.3768,2.61982 0.7863,5.31472 0.1638,7.88727 -0.5327,2.20145 -1.8066,4.18142 -3.4241,5.76696 -1.6174,1.58555 -3.5694,2.79676 -5.6095,3.78063 -4.0803,1.96775 -8.5503,3.06763 -12.5412,5.21088 -6.6829,3.58899 -11.5878,9.91906 -14.6908,16.84102 -3.103,6.92196 -4.5585,14.45843 -5.6968,21.95819 -3.7184,24.4984 -4.3038,49.35019 -4.9132,74.12167 -1.6744,68.06423 -3.5797,136.12278 -5.7161,204.17407"
       id="path930"
       inkscape:path-effect="#path-effect932"
       inkscape:original-d="m 635.49021,863.00539 c -10.32061,-70.28333 -20.64222,-140.56767 -30.96484,-210.853 -10.32261,-70.28534 15.82592,-111.75034 23.73737,-167.627 7.91146,-55.87667 33.38473,-75.89512 50.07559,-113.84417 16.69086,-37.94906 9.33329,-31.62701 13.99843,-47.44202 4.66515,-15.815 11.42915,-32.11512 17.14222,-48.17418 5.71307,-16.05906 7.62804,-61.37216 11.44057,-92.05974 3.81252,-30.68758 25.28749,-31.61142 37.92974,-47.41864 12.64225,-15.80721 28.93115,-8.53138 43.39523,-12.79857 14.46408,-4.2672 9.33836,0.46429 14.00603,0.69493 4.66768,0.23065 14.49953,19.62114 21.74779,29.43021 7.24826,9.80907 22.1168,26.41804 33.1737,39.62556 11.0569,13.20752 17.21897,20.07423 25.82696,30.10984 8.60799,10.03561 3.93529,-3.7512 5.90144,-5.6283 1.96614,-1.8771 -22.85656,-31.61461 -34.28633,-47.42342 -11.42978,-15.80881 -17.06989,-28.93131 -25.60633,-43.39846 -8.53644,-14.46716 -3.1988,-12.02788 -4.79969,-18.04332 -1.6009,-6.01544 -1.44784,-4.20257 -2.17326,-6.30536 -0.72542,-2.102782 -9.51804,-3.839472 -14.27856,-5.760711 -4.76052,-1.921238 -7.54733,-3.313123 -11.32249,-4.971185 -3.77517,-1.658062 9.65006,-4.781513 14.47359,-7.17377 4.82354,-2.392256 21.81939,2.04772 32.72758,3.070079 10.9082,1.02236 6.46161,12.988607 9.69091,19.481417 3.2293,6.4928 2.05791,7.43015 3.08536,11.14372 1.02746,3.71358 2.77795,4.15091 4.16542,6.22487 1.38747,2.07395 12.51439,-0.50582 18.77009,-0.76022 6.2557,-0.25441 21.97875,-15.18894 32.96662,-22.78491 10.98788,-7.595963 21.98119,-6.274481 32.97028,-9.413223 10.9891,-3.138743 45.01697,-18.717747 67.52387,-28.07812 22.507,-9.360373 35.295,-28.464776 52.941,-42.698664 17.646,-14.2338883 21.8825,-9.97458 32.8222,-14.9633705 10.9397,-4.98879003 6.313,16.6457515 9.468,24.9671275 3.155,8.321376 11.6247,26.367737 17.4355,39.550106 5.8109,13.182368 18.5076,64.872574 27.7599,97.307354 9.2523,32.43479 27.274,133.54706 40.9095,200.31909 13.6355,66.77203 3.1227,104.02011 4.6825,156.02866 1.5598,52.00855 0.1102,5.25918 0.1638,7.88727 0.054,2.62808 -14.3822,9.83998 -21.5748,14.75847 -7.1926,4.9185 -13.5907,25.86714 -20.3876,38.79921 -6.7968,12.93207 -3.2745,49.41545 -4.9132,74.12167 -1.6387,24.70622 -3.8097,136.11705 -5.7161,204.17407" />
  </g>
</svg>
