<?xml version="1.0" encoding="UTF-8" standalone="no"?>
<!-- Created with Inkscape (http://www.inkscape.org/) -->

<svg
   version="1.1"
   id="svg2"
   width="1893"
   height="1024"
   viewBox="0 0 1893 1024"
   sodipodi:docname="frame_0126.svg"
   inkscape:version="1.1.2 (0a00cf5339, 2022-02-04)"
   xmlns:inkscape="http://www.inkscape.org/namespaces/inkscape"
   xmlns:sodipodi="http://sodipodi.sourceforge.net/DTD/sodipodi-0.dtd"
   xmlns:xlink="http://www.w3.org/1999/xlink"
   xmlns="http://www.w3.org/2000/svg"
   xmlns:svg="http://www.w3.org/2000/svg">
  <defs
     id="defs6">
    <inkscape:path-effect
       effect="spiro"
       id="path-effect899"
       is_visible="true"
       lpeversion="1" />
    <inkscape:path-effect
       effect="spiro"
       id="path-effect862"
       is_visible="true"
       lpeversion="1" />
  </defs>
  <sodipodi:namedview
     id="namedview4"
     pagecolor="#ffffff"
     bordercolor="#666666"
     borderopacity="1.0"
     inkscape:pageshadow="2"
     inkscape:pageopacity="0.0"
     inkscape:pagecheckerboard="0"
     showgrid="false"
     inkscape:zoom="0.6703645"
     inkscape:cx="936.80378"
     inkscape:cy="431.85461"
     inkscape:window-width="1850"
     inkscape:window-height="1016"
     inkscape:window-x="70"
     inkscape:window-y="27"
     inkscape:window-maximized="1"
     inkscape:current-layer="g8" />
  <g
     inkscape:groupmode="layer"
     inkscape:label="Image"
     id="g8">
    
    <path
       style="font-variation-settings:normal;opacity:1;vector-effect:none;fill:none;fill-opacity:1;stroke:#c86487;stroke-width:1px;stroke-linecap:butt;stroke-linejoin:miter;stroke-miterlimit:4;stroke-dasharray:none;stroke-dashoffset:0;stroke-opacity:1;-inkscape-stroke:none;stop-color:#000000;stop-opacity:1"
       d="M 1160.491,862.95028 635.75842,862.57671"
       id="path860"
       inkscape:path-effect="#path-effect862"
       inkscape:original-d="M 1160.491,862.95028 635.75842,862.57671" />
    <path
       style="font-variation-settings:normal;opacity:1;vector-effect:none;fill:none;fill-opacity:1;stroke:#c86487;stroke-width:1px;stroke-linecap:butt;stroke-linejoin:miter;stroke-miterlimit:4;stroke-dasharray:none;stroke-dashoffset:0;stroke-opacity:1;-inkscape-stroke:none;stop-color:#000000;stop-opacity:1"
       d="m 635.75842,862.57671 c -20.28974,-38.15256 -31.56889,-81.05976 -32.66409,-124.25804 -1.35884,-53.59674 12.65313,-106.33122 16.9397,-159.77354 2.46305,-30.70779 1.81452,-62.22687 11.8301,-91.35973 6.88045,-20.01355 18.5317,-38.03932 26.57292,-57.61536 5.87586,-14.30455 9.78458,-29.34026 15.29051,-43.79122 6.62649,-17.39199 15.51705,-33.81389 24.16237,-50.29571 18.17264,-34.64511 35.65782,-70.74771 39.72435,-109.65776 1.60323,-15.34025 1.07853,-30.83453 2.44964,-46.19727 0.98018,-10.98254 3.15136,-22.39112 10.01411,-31.02127 6.89563,-8.6715 17.50654,-13.31763 27.42181,-18.2605 6.38872,-3.18484 12.66709,-6.62526 19.30348,-9.25533 6.63639,-2.63006 13.70987,-4.44433 20.84427,-4.20078 6.18461,0.21113 12.20575,1.95372 18.10871,3.81087 5.786,1.82036 11.74744,3.89095 16.07711,8.13895 2.4233,2.37759 4.20966,5.32663 5.73977,8.35715 1.53012,3.03052 2.83056,6.1753 4.43617,9.1665 5.39517,10.05102 14.13327,18.19237 18.36501,28.78591 1.17076,2.93082 1.97897,6.01394 3.42078,8.82135 0.72091,1.4037 1.60235,2.73561 2.71159,3.85797 1.10924,1.12235 2.45427,2.03137 3.95498,2.51919 2.22053,0.7218 4.73198,0.46646 6.78195,-0.6513 2.04997,-1.11776 3.61738,-3.07435 4.30091,-5.30696 0.56384,-1.84167 0.53905,-3.83599 0.093,-5.70967 -0.4461,-1.87368 -1.30103,-3.63306 -2.35752,-5.2435 -2.11298,-3.22088 -5.00162,-5.84183 -7.54871,-8.73165 -7.01595,-7.95998 -11.39714,-17.90806 -17.9937,-26.21891 -2.67042,-3.36441 -5.69469,-6.44813 -8.18253,-9.9497 -2.48785,-3.50158 -4.45399,-7.54346 -4.61497,-11.83583 -0.1125,-2.9998 0.65753,-5.95402 1.40217,-8.8621 0.74464,-2.90809 1.47547,-5.87836 1.28277,-8.874079 -0.0927,-1.440431 -0.40366,-2.876534 -1.01811,-4.182629 -0.96986,-2.061575 -2.6767,-3.733055 -4.6672,-4.841486 -1.9905,-1.108431 -4.25381,-1.674754 -6.52586,-1.84359 -4.5441,-0.337673 -9.04099,0.86662 -13.48123,1.889907 -1.1298,0.260372 -2.26861,0.510515 -3.42651,0.569755 -1.15791,0.05924 -2.3452,-0.0805 -3.39633,-0.569755 -1.60299,-0.746125 -2.77349,-2.282317 -3.24546,-3.986286 -0.47197,-1.703968 -0.28357,-3.552265 0.34789,-5.203785 0.63146,-1.651521 1.68686,-3.11708 2.91908,-4.385117 1.23221,-1.268036 2.64181,-2.349597 4.07735,-3.38182 4.68683,-3.370056 9.77096,-6.29228 15.31394,-7.904447 5.54298,-1.612167 11.59201,-1.850277 17.04175,0.05341 3.64772,1.274212 6.95549,3.487143 9.57031,6.331828 2.61481,2.844684 4.53657,6.312852 5.62087,10.02146 1.17317,4.012573 1.36943,8.260274 1.05481,12.428977 -0.33217,4.401278 -1.2231,8.757716 -1.31851,13.170476 -0.0612,2.83269 0.253,5.80696 1.82511,8.16415 1.19859,1.79714 3.13496,3.12704 5.27404,3.42813 1.29199,0.18186 2.61503,-0.005 3.86611,-0.3748 1.25108,-0.37029 2.44041,-0.92066 3.61865,-1.48107 12.05617,-5.73433 23.47439,-12.71603 35.33594,-18.842813 12.73028,-6.575502 25.9789,-12.166315 39.6368,-16.497468 16.42558,-5.208831 33.45622,-8.605227 49.39342,-15.157879 17.507,-7.198079 33.2822,-18.042549 48.1252,-29.789619 7.9299,-6.275896 15.7406,-12.899336 24.8662,-17.257414 9.4596,-4.517552 19.9517,-6.41484 29.6849,-10.3079956 3.2666,-1.3066144 6.4511,-2.8392985 9.8154,-3.8686505 3.3643,-1.029352 6.9785,-1.5400643 10.4061,-0.7466638 2.3293,0.5391739 4.5132,1.6768712 6.3134,3.2503914 1.8001,1.5735202 3.2157,3.5779095 4.1295,5.7873135 1.1902,2.877731 1.5224,6.043887 1.4953,9.157916 -0.027,3.11403 -0.3998,6.21404 -0.5619,9.323966 -0.8101,15.540744 3.7195,31.080464 11.3281,44.655436 5.2596,9.383928 12.0119,18.027057 15.7051,28.13061 5.0742,13.88176 3.9119,29.13622 5.1836,43.86149 2.3502,27.21298 13.1097,52.93065 18.7728,79.65141 3.3375,15.74762 4.8967,31.81382 7.6037,47.68197 4.7825,28.03422 13.1692,55.64177 13.8387,84.07312 0.3675,15.60572 -1.6058,31.17623 -1.7635,46.78548 -0.3235,32.02444 6.9905,63.78932 6.2875,95.80768 -0.1493,6.79844 -0.6822,13.69382 -3.0173,20.0804 -2.6286,7.1894 -7.6356,13.59393 -14.3025,17.35544 -5.5384,3.12479 -12.0244,4.38404 -17.3468,7.86402 -5.5779,3.64701 -9.4315,9.47968 -11.9258,15.65961 -2.3806,5.8983 -3.6478,12.18918 -4.4912,18.49363 -3.1254,23.3629 -0.5741,47.0529 0.7361,70.58749 3.9347,70.67988 -3.466,141.97878 -21.8335,210.34371"
       id="path897"
       inkscape:path-effect="#path-effect899"
       inkscape:original-d="m 635.75842,862.57671 c -10.88703,-41.41835 -21.77506,-82.83769 -32.66409,-124.25804 -10.88903,-41.42035 11.29413,-106.51469 16.9397,-159.77354 5.64557,-53.25884 7.88774,-60.90549 11.8301,-91.35973 3.94237,-30.45425 17.71628,-38.40924 26.57292,-57.61536 8.85663,-19.20612 10.19467,-29.19315 15.29051,-43.79122 5.09583,-14.59807 16.10925,-33.52947 24.16237,-50.29571 8.05313,-16.76624 26.4839,-73.10417 39.72435,-109.65776 13.24045,-36.55358 1.63409,-30.79718 2.44964,-46.19727 0.81555,-15.40009 6.67707,-20.67985 10.01411,-31.02127 3.33704,-10.34143 18.28221,-12.17267 27.42181,-18.2605 9.13961,-6.08784 26.76617,-8.96974 40.14775,-13.45611 13.38159,-4.48636 12.07348,2.54158 18.10871,3.81087 6.03524,1.26929 10.71907,5.42697 16.07711,8.13895 5.35803,2.71199 6.78496,11.68344 10.17594,17.52365 3.39098,5.84022 12.24434,19.19161 18.36501,28.78591 6.12067,9.5943 5.1613,7.91511 10.08735,15.19851 4.92605,7.2834 -27.02337,-15.41447 11.08286,-5.95826 4.97489,1.23453 -4.52752,-11.93594 -9.81327,-19.68482 -5.28575,-7.74888 -11.9948,-17.47827 -17.9937,-26.21891 -5.9989,-8.74064 -8.53066,-14.52269 -12.7975,-21.78553 -4.26683,-7.26284 1.79096,-11.82312 2.68494,-17.736179 0.89398,-5.91306 -0.67774,-2.787419 -1.01811,-4.182629 -0.34037,-1.39521 -16.44853,-3.19578 -24.67429,-4.795169 -8.22577,-1.59939 -4.54756,0.001 -6.82284,0 -2.27527,-0.001 2.73357,-11.303672 4.09886,-16.957008 1.36528,-5.653336 21.57146,-5.233024 32.35569,-7.851036 10.78423,-2.618012 10.12846,10.903192 15.19118,16.353288 5.06273,5.450096 0.70421,8.286985 1.05481,12.428977 0.35061,4.141993 -0.878,8.781316 -1.31851,13.170476 -0.4405,4.38916 1.21774,5.44377 1.82511,8.16415 0.60737,2.72039 3.51703,2.28642 5.27404,3.42813 1.75702,1.14171 4.99084,-1.23624 7.48476,-1.85587 2.49392,-0.61962 23.5583,-12.56087 35.33594,-18.842813 11.77765,-6.281938 26.42554,-10.997312 39.6368,-16.497468 13.21127,-5.500156 32.92992,-10.104253 49.39342,-15.157879 16.4634,-5.053627 32.0844,-19.858746 48.1252,-29.789619 16.0407,-9.930872 16.5785,-11.503943 24.8662,-17.257414 8.2878,-5.753472 19.7909,-6.870997 29.6849,-10.3079956 9.894,-3.4369984 13.482,-3.0758762 20.2215,-4.6153143 6.7395,-1.5394381 6.9629,6.0261359 10.4429,9.0377049 3.4799,3.011568 0.6233,12.322255 0.9334,18.481882 0.3102,6.159628 7.5531,29.771291 11.3281,44.655436 3.7751,14.884145 10.4711,18.754738 15.7051,28.13061 5.2341,9.37587 3.4567,29.24199 5.1836,43.86149 1.7268,14.6195 12.5162,53.10194 18.7728,79.65141 6.2565,26.54947 5.0701,31.78898 7.6037,47.68197 2.5335,15.89299 9.2268,56.04974 13.8387,84.07312 4.6119,28.02337 -1.1746,31.19132 -1.7635,46.78548 -0.5888,15.59417 4.1927,63.87278 6.2875,95.80768 2.0948,31.93489 -2.0105,13.38793 -3.0173,20.0804 -1.0067,6.69247 -9.534,11.57129 -14.3025,17.35544 -4.7685,5.78414 -11.5635,5.24368 -17.3468,7.86402 -5.7833,2.62034 -7.9495,10.44074 -11.9258,15.65961 -3.9763,5.21887 -2.9931,12.33009 -4.4912,18.49363 -1.498,6.16354 0.4918,47.05933 0.7361,70.58749 0.2444,23.52816 -14.5547,140.23014 -21.8335,210.34371"
       sodipodi:nodetypes="csssssssssssssssssssssssssssssssssssssssssssssssssssssssc" />
  </g>
</svg>
