<?xml version="1.0" encoding="UTF-8" standalone="no"?>
<!-- Created with Inkscape (http://www.inkscape.org/) -->

<svg
   version="1.1"
   id="svg2"
   width="1893"
   height="1024"
   viewBox="0 0 1893 1024"
   sodipodi:docname="frame_0125.svg"
   inkscape:version="1.1.2 (0a00cf5339, 2022-02-04)"
   xmlns:inkscape="http://www.inkscape.org/namespaces/inkscape"
   xmlns:sodipodi="http://sodipodi.sourceforge.net/DTD/sodipodi-0.dtd"
   xmlns:xlink="http://www.w3.org/1999/xlink"
   xmlns="http://www.w3.org/2000/svg"
   xmlns:svg="http://www.w3.org/2000/svg">
  <defs
     id="defs6">
    <inkscape:path-effect
       effect="spiro"
       id="path-effect899"
       is_visible="true"
       lpeversion="1" />
    <inkscape:path-effect
       effect="spiro"
       id="path-effect862"
       is_visible="true"
       lpeversion="1" />
  </defs>
  <sodipodi:namedview
     id="namedview4"
     pagecolor="#ffffff"
     bordercolor="#666666"
     borderopacity="1.0"
     inkscape:pageshadow="2"
     inkscape:pageopacity="0.0"
     inkscape:pagecheckerboard="0"
     showgrid="false"
     inkscape:zoom="0.6703645"
     inkscape:cx="1117.3026"
     inkscape:cy="618.32033"
     inkscape:window-width="1850"
     inkscape:window-height="1016"
     inkscape:window-x="70"
     inkscape:window-y="27"
     inkscape:window-maximized="1"
     inkscape:current-layer="g8" />
  <g
     inkscape:groupmode="layer"
     inkscape:label="Image"
     id="g8">
    
    <path
       style="font-variation-settings:normal;opacity:1;vector-effect:none;fill:none;fill-opacity:1;stroke:#c86487;stroke-width:1px;stroke-linecap:butt;stroke-linejoin:miter;stroke-miterlimit:4;stroke-dasharray:none;stroke-dashoffset:0;stroke-opacity:1;-inkscape-stroke:none;stop-color:#000000;stop-opacity:1"
       d="M 1161.0449,863.00818 H 635.66181"
       id="path860"
       inkscape:path-effect="#path-effect862"
       inkscape:original-d="M 1161.0449,863.00818 H 635.66181" />
    <path
       style="font-variation-settings:normal;opacity:1;vector-effect:none;fill:none;fill-opacity:1;stroke:#c86487;stroke-width:1px;stroke-linecap:butt;stroke-linejoin:miter;stroke-miterlimit:4;stroke-dasharray:none;stroke-dashoffset:0;stroke-opacity:1;-inkscape-stroke:none;stop-color:#000000;stop-opacity:1"
       d="m 635.66181,863.00818 c 1.49894,-42.09896 0.30262,-84.2937 -3.57921,-126.2401 -4.05874,-43.85805 -11.0573,-87.61181 -10.23203,-131.64953 0.66415,-35.43998 6.40563,-70.65069 14.87053,-105.0713 3.23481,-13.15362 6.86845,-26.21022 10.95531,-39.12452 10.63909,-33.61908 24.33044,-66.21194 39.50322,-98.04305 5.04289,-10.57953 10.26034,-21.10137 14.33924,-32.08863 5.33527,-14.37151 8.669,-29.39207 12.88916,-44.12963 5.62837,-19.65528 12.83769,-38.81809 20.22378,-57.88257 2.75396,-7.10834 5.5431,-14.23659 7.27263,-21.66098 1.72954,-7.42439 2.37266,-15.21369 0.79925,-22.67273 -1.02139,-4.8421 -2.95039,-9.44394 -4.22654,-14.22522 -1.27614,-4.78128 -1.87344,-9.9519 -0.22502,-14.61793 1.58037,-4.47341 5.07637,-8.03347 8.94526,-10.7795 3.86889,-2.74603 8.17092,-4.81473 12.20799,-7.30693 5.96434,-3.68197 11.31272,-8.26367 16.94777,-12.43217 5.63505,-4.16851 11.68773,-7.98513 18.45071,-9.82694 7.86042,-2.14068 16.16369,-1.49067 24.30868,-1.65786 3.93223,-0.0807 7.87434,-0.35553 11.79188,-0.006 3.91755,0.34903 7.86848,1.36626 11.08137,3.63481 2.53742,1.79161 4.50772,4.28771 6.0935,6.95859 1.58579,2.67088 2.81562,5.53397 4.12421,8.35105 11.80821,25.42019 30.06381,47.1818 47.63989,69.01529 1.52023,1.88847 3.07699,3.81609 5.13103,5.10384 1.02703,0.64387 2.17256,1.11667 3.37272,1.28686 1.20016,0.17018 2.45665,0.0277 3.54989,-0.49588 1.35932,-0.65106 2.40666,-1.86814 2.99357,-3.25637 0.58691,-1.38822 0.73526,-2.93675 0.58184,-4.43611 -0.19708,-1.92603 -0.87981,-3.78494 -1.85296,-5.45868 -0.97314,-1.67374 -2.23206,-3.16882 -3.6162,-4.52254 -2.76829,-2.70745 -6.02718,-4.85451 -8.99124,-7.34609 -12.43265,-10.45084 -18.88861,-26.12741 -26.42484,-40.51477 -3.28991,-6.28073 -6.86592,-12.42336 -10.97635,-18.20051 -1.67781,-2.35813 -3.45045,-4.66479 -4.8101,-7.21963 -1.35965,-2.55483 -2.29978,-5.4099 -2.16104,-8.30067 0.0947,-1.9734 0.68488,-3.88652 0.98237,-5.83966 0.14875,-0.97657 0.22421,-1.97 0.12641,-2.952983 -0.0978,-0.982981 -0.37418,-1.95815 -0.89117,-2.7999 -0.52789,-0.859507 -1.2953,-1.55939 -2.16329,-2.073207 -0.86799,-0.513816 -1.83501,-0.846707 -2.82242,-1.052721 -1.97482,-0.412027 -4.01376,-0.323658 -6.03077,-0.360571 -2.05588,-0.03762 -4.12176,-0.209621 -6.10931,-0.7366 -1.98755,-0.526979 -3.90184,-1.422573 -5.4412,-2.785816 -1.62445,-1.438596 -2.78975,-3.374743 -3.36428,-5.467182 -0.57454,-2.092439 -0.5645,-4.333618 -0.0356,-6.438052 0.81831,-3.255872 2.85529,-6.133099 5.43695,-8.279108 2.58166,-2.146009 5.6871,-3.596334 8.90145,-4.564978 9.21959,-2.77832 19.68841,-1.513359 27.69764,3.831925 4.46087,2.977141 8.09619,7.116735 10.74235,11.781559 1.85534,3.270706 3.23771,6.799819 4.22228,10.428926 1.21505,4.478685 1.81955,9.267428 0.5899,13.742128 -0.48865,1.77819 -1.25663,3.46895 -1.76661,5.24114 -0.50997,1.77219 -0.7519,3.69463 -0.17391,5.44582 0.46732,1.4159 1.48587,2.6575 2.82142,3.32043 0.93541,0.46431 1.99988,0.64072 3.04273,0.58552 1.04285,-0.0552 2.06571,-0.33569 3.02703,-0.74367 1.92264,-0.81597 3.58704,-2.12264 5.3074,-3.307 10.69229,-7.36099 23.94575,-10.21402 34.79528,-17.341218 3.92649,-2.579361 7.49557,-5.693062 11.54825,-8.069237 10.39319,-6.093756 22.94082,-6.829025 34.62649,-9.761172 23.13529,-5.805073 42.93709,-20.271046 63.73609,-31.947602 15.3872,-8.638329 31.6342,-15.897156 45.9139,-26.264233 4.2676,-3.098305 8.3484,-6.467074 12.8197,-9.263518 4.4712,-2.7964427 9.4143,-5.0301694 14.6604,-5.5688141 3.2046,-0.3290282 6.4715,-0.013687 9.5614,0.8974475 6.5693,1.9371227 12.1127,6.4747986 16.5112,11.7246626 5.6289,6.718444 9.6911,14.857697 10.9852,23.526454 1.1296,7.566383 0.1592,15.358515 1.6114,22.869661 1.6534,8.551959 6.3407,16.200592 11.4801,23.233116 5.1394,7.032524 10.8448,13.709613 15.0078,21.360703 7.7121,14.17389 9.6232,30.67329 11.4793,46.70234 1.9859,17.15027 4.0706,34.29801 7.0031,51.31201 3.0294,17.5762 6.9589,34.984 10.2872,52.50606 5.6606,29.8011 9.5794,59.92857 11.8839,90.17486 3.0043,39.43195 3.266,79.03077 6.0806,118.47671 0.694,9.7256 1.5436,19.44525 2.8878,29.10248 0.4297,3.08733 0.9112,6.19567 0.7159,9.30665 -0.1953,3.11097 -1.1313,6.2756 -3.2125,8.59614 -1.3161,1.46749 -3.0242,2.53039 -4.7909,3.40478 -1.7667,0.87439 -3.6132,1.57958 -5.3794,2.45487 -4.1023,2.03295 -7.6955,4.9427 -11.2355,7.84613 -3.8339,3.1445 -7.7222,6.39262 -10.3026,10.62686 -3.3513,5.49928 -4.1895,12.19671 -3.9093,18.63056 0.2802,6.43385 1.5931,12.77639 2.2158,19.18617 2.3721,24.4187 -5.283,48.53627 -11.6704,72.22385 -18.5825,68.91307 -27.0358,140.54858 -25.0044,211.89417"
       id="path897"
       inkscape:path-effect="#path-effect899"
       inkscape:original-d="m 635.66181,863.00818 c -1.19207,-42.07903 -2.38514,-84.15906 -3.57921,-126.2401 -1.19407,-42.08103 -6.82035,-87.76535 -10.23203,-131.64953 -3.41168,-43.88418 9.91468,-70.04653 14.87053,-105.0713 4.95584,-35.02476 7.30454,-26.08201 10.95531,-39.12452 3.65078,-13.04251 26.33648,-65.36103 39.50322,-98.04305 13.16674,-32.68201 9.56049,-21.39142 14.33924,-32.08863 4.77875,-10.69721 8.59377,-29.41875 12.88916,-44.12963 4.29538,-14.71088 13.48352,-38.58738 20.22378,-57.88257 6.74026,-19.29519 5.38225,-29.55481 8.07188,-44.33371 2.68962,-14.7789 -2.96671,-19.22777 -4.45156,-28.84315 -1.48485,-9.61538 14.10317,-12.05662 21.15325,-18.08643 7.05008,-6.02981 23.59999,-14.8384 35.39848,-22.25911 11.7985,-7.4207 16.20679,-1.10424 24.30868,-1.65786 8.10189,-0.55362 15.24983,2.41988 22.87325,3.62832 7.62341,1.20844 6.8128,10.20743 10.21771,15.30964 3.4049,5.10222 31.76093,46.0112 47.63989,69.01529 15.87897,23.0041 8.03676,3.93088 12.05364,5.89482 4.01687,1.96394 2.38461,-5.12732 3.57541,-7.69248 1.19081,-2.56516 -9.63926,-11.55054 -14.4604,-17.32731 -4.82113,-5.77677 -17.61556,-27.00884 -26.42484,-40.51477 -8.80928,-13.50592 -7.31657,-12.13267 -10.97635,-18.20051 -3.65979,-6.06784 -4.64643,-10.34587 -6.97114,-15.5203 -2.32471,-5.17443 0.14607,-7.72736 0.21761,-11.592543 0.0715,-3.865182 -7.34332,-2.323333 -11.01648,-3.486499 -3.67316,-1.163167 -7.69934,-2.347277 -11.55051,-3.522416 -3.85117,-1.175138 -2.26558,-7.935823 -3.39987,-11.905234 -1.13429,-3.969411 9.55993,-8.561724 14.3384,-12.844086 4.77846,-4.282362 18.4661,2.555616 27.69764,3.831925 9.23155,1.276308 7.16257,7.855372 10.74235,11.781559 3.57978,3.926186 2.81585,6.953617 4.22228,10.428926 1.40643,3.475308 0.39427,9.162418 0.5899,13.742128 0.19564,4.57971 -1.29268,7.12564 -1.94052,10.68696 -0.64784,3.56132 1.88195,2.21462 2.82142,3.32043 0.93948,1.1058 7.58577,-2.3091 11.37716,-3.46515 3.79138,-1.15605 23.19786,-11.55981 34.79528,-17.341218 11.59743,-5.781404 7.69983,-5.378491 11.54825,-8.069237 3.84841,-2.690746 23.08533,-6.506448 34.62649,-9.761172 11.54116,-3.254724 42.49169,-21.297402 63.73609,-31.947602 21.2443,-10.650201 30.6103,-17.508489 45.9139,-26.264233 15.3036,-8.755744 18.3211,-9.887221 27.4801,-14.8323321 9.159,-4.9451106 6.3753,0.5992984 9.5614,0.8974475 3.1862,0.2981492 11.0085,7.8174416 16.5112,11.7246626 5.5028,3.907221 7.3245,15.685303 10.9852,23.526454 3.6607,7.841152 1.0753,15.247441 1.6114,22.869661 0.5361,7.62222 17.6596,29.73021 26.4879,44.593819 8.8283,14.8636 7.6539,31.1359 11.4793,46.70234 3.8255,15.56645 4.6697,34.20901 7.0031,51.31201 2.3333,17.103 6.8591,35.00504 10.2872,52.50606 3.428,17.50102 7.9236,60.11757 11.8839,90.17486 3.9603,30.05728 4.0548,78.98547 6.0806,118.47671 2.0259,39.49124 1.9262,19.40265 2.8878,29.10248 0.9616,9.69983 -1.6634,11.93619 -2.4966,17.90279 -0.8332,5.9666 -6.7792,3.90743 -10.1703,5.85965 -3.3911,1.95222 -7.4893,5.23175 -11.2355,7.84613 -3.7462,2.61437 -6.8674,7.08557 -10.3026,10.62686 -3.4352,3.54129 -1.128,25.21215 -1.6935,37.81673 -0.5655,12.60457 -7.7793,48.15023 -11.6704,72.22385 -3.8911,24.07361 -16.6686,141.26378 -25.0044,211.89417" />
  </g>
</svg>
