<?xml version="1.0" encoding="UTF-8" standalone="no"?>
<!-- Created with Inkscape (http://www.inkscape.org/) -->

<svg
   version="1.1"
   id="svg2"
   width="1893"
   height="1024"
   viewBox="0 0 1893 1024"
   sodipodi:docname="frame_0056.svg"
   inkscape:version="1.1.2 (0a00cf5339, 2022-02-04)"
   xmlns:inkscape="http://www.inkscape.org/namespaces/inkscape"
   xmlns:sodipodi="http://sodipodi.sourceforge.net/DTD/sodipodi-0.dtd"
   xmlns:xlink="http://www.w3.org/1999/xlink"
   xmlns="http://www.w3.org/2000/svg"
   xmlns:svg="http://www.w3.org/2000/svg">
  <defs
     id="defs6">
    <inkscape:path-effect
       effect="spiro"
       id="path-effect866"
       is_visible="true"
       lpeversion="1" />
    <inkscape:path-effect
       effect="spiro"
       id="path-effect862"
       is_visible="true"
       lpeversion="1" />
  </defs>
  <sodipodi:namedview
     id="namedview4"
     pagecolor="#ffffff"
     bordercolor="#666666"
     borderopacity="1.0"
     inkscape:pageshadow="2"
     inkscape:pageopacity="0.0"
     inkscape:pagecheckerboard="0"
     showgrid="false"
     inkscape:zoom="0.6703645"
     inkscape:cx="938.29551"
     inkscape:cy="370.69385"
     inkscape:window-width="1850"
     inkscape:window-height="1016"
     inkscape:window-x="70"
     inkscape:window-y="27"
     inkscape:window-maximized="1"
     inkscape:current-layer="g8" />
  <g
     inkscape:groupmode="layer"
     inkscape:label="Image"
     id="g8">
    
    <path
       style="font-variation-settings:normal;opacity:1;vector-effect:none;fill:none;fill-opacity:1;stroke:#c86487;stroke-width:1px;stroke-linecap:butt;stroke-linejoin:miter;stroke-miterlimit:4;stroke-dasharray:none;stroke-dashoffset:0;stroke-opacity:1;-inkscape-stroke:none;stop-color:#000000;stop-opacity:1"
       d="M 1160.6378,862.67976 635.73731,862.50535"
       id="path860"
       inkscape:path-effect="#path-effect862"
       inkscape:original-d="m 1160.6378,862.67976 c -174.96586,-0.0571 -349.93267,-0.11527 -524.90049,-0.17441" />
    <path
       style="font-variation-settings:normal;opacity:1;vector-effect:none;fill:none;fill-opacity:1;stroke:#c86487;stroke-width:1px;stroke-linecap:butt;stroke-linejoin:miter;stroke-miterlimit:4;stroke-dasharray:none;stroke-dashoffset:0;stroke-opacity:1;-inkscape-stroke:none;stop-color:#000000;stop-opacity:1"
       d="m 635.73731,862.50535 c -11.27303,-58.02002 -20.38544,-116.45981 -27.31202,-175.15757 -4.45698,-37.76972 -8.01346,-75.82076 -5.92341,-113.79507 2.09006,-37.97431 10.01659,-76.07268 27.46112,-109.86773 9.23284,-17.88666 20.98987,-34.32983 31.42555,-51.54246 10.43568,-17.21263 19.67854,-35.5636 23.13408,-55.39381 1.71426,-9.83759 1.97498,-19.88476 3.69246,-29.72179 2.16549,-12.40308 6.6079,-24.27252 10.16493,-36.35032 4.83553,-16.4189 8.04601,-33.27618 10.61505,-50.19843 2.65084,-17.46106 4.63231,-35.05344 8.57075,-52.26984 2.40381,-10.50798 5.6796,-21.13892 12.41126,-29.558 4.8338,-6.04548 11.22652,-10.65635 17.85702,-14.65009 6.6305,-3.99374 13.58128,-7.45026 20.08512,-11.64711 5.29194,-3.41483 10.3063,-7.32949 16.02057,-9.97765 2.85714,-1.32408 5.8852,-2.32211 9.01016,-2.71073 3.12497,-0.38862 6.35351,-0.15312 9.31487,0.91774 3.96782,1.43481 7.26761,4.2793 10.15344,7.35733 9.70456,10.35088 15.63576,23.73281 25.03811,34.35895 3.96428,4.48026 8.49862,8.41591 12.70099,12.67365 4.20236,4.25775 8.12874,8.92588 10.54078,14.4004 1.4559,3.3044 2.34182,6.86234 4.09965,10.0165 0.87891,1.57708 1.98115,3.04895 3.37799,4.19285 1.39683,1.14391 3.1031,1.94797 4.9012,2.11085 1.16857,0.10586 2.36707,-0.0628 3.44206,-0.53302 1.07499,-0.47027 2.02158,-1.24659 2.65225,-2.23604 0.70679,-1.10886 0.99962,-2.45528 0.93264,-3.76853 -0.067,-1.31325 -0.48056,-2.59441 -1.09107,-3.75906 -1.22102,-2.32928 -3.18158,-4.16648 -5.04393,-6.02339 -8.22989,-8.20588 -15.19563,-17.67576 -20.59062,-27.96953 -4.64657,-8.86578 -8.11604,-18.29586 -12.40029,-27.3423 -4.28425,-9.04643 -9.50771,-17.85877 -16.97935,-24.51965 -4.88982,-4.35922 -10.60786,-7.67764 -15.76997,-11.710735 -2.90519,-2.269785 -5.6834,-4.828215 -7.46947,-8.053425 -0.89303,-1.612605 -1.52474,-3.381142 -1.74579,-5.211209 -0.22104,-1.830067 -0.0225,-3.722704 0.67559,-5.428754 0.9027,-2.205928 2.60805,-4.023779 4.59817,-5.335414 1.99013,-1.311634 4.25922,-2.147164 6.56366,-2.755883 4.10103,-1.083288 8.40366,-1.477592 12.61148,-0.942602 4.20781,0.53499 8.31763,2.015598 11.78109,4.464351 5.41268,3.826902 8.93166,9.705966 12.50456,15.289574 4.19347,6.553406 8.79015,13.233267 9.85037,20.940937 0.34111,2.47979 0.3018,5.00315 0.70226,7.47405 0.20023,1.23545 0.51213,2.45904 1.02265,3.60175 0.51052,1.14272 1.22517,2.2049 2.16101,3.03595 1.20973,1.07427 2.75255,1.72849 4.3391,2.04532 1.58654,0.31683 3.22171,0.31109 4.83449,0.18286 6.36772,-0.50628 12.45539,-2.8913 18.08383,-5.91203 5.62844,-3.02073 10.88158,-6.68623 16.3386,-10.00663 20.72492,-12.610357 44.07832,-20.077718 66.88548,-28.346739 19.48391,-7.064135 38.77332,-14.807889 57.06162,-24.557856 10.7034,-5.70623 21.0448,-12.09076 30.9455,-19.097885 12.5788,-8.902546 24.5469,-18.870298 38.3781,-25.665884 2.5754,-1.265372 5.3431,-2.44166 8.2051,-2.234772 1.9241,0.139088 3.7777,0.91402 5.3157,2.078504 1.5381,1.164483 2.7688,2.706913 3.6895,4.402153 2.5982,4.783982 2.6803,10.470553 3.0934,15.898866 1.0945,14.381931 4.9198,28.406216 9.0621,42.222138 8.732,29.124255 18.9575,57.795515 30.44,85.949065 8.5148,20.87716 17.7475,41.54697 23.8315,63.25738 7.5236,26.84744 10.0962,54.78687 13.1909,82.49632 3.2865,29.42734 7.1972,58.78838 9.9005,88.27501 2.0727,22.60803 3.4347,45.28733 3.7551,67.98791 0.2598,18.40708 -0.1652,36.82311 0.3975,55.22342 0.032,1.04206 0.064,2.10851 -0.2563,3.10074 -0.3119,0.9673 -0.9489,1.81164 -1.7319,2.45961 -0.7831,0.64797 -1.7081,1.10815 -2.6675,1.44339 -1.919,0.67049 -3.9722,0.85342 -5.935,1.38181 -4.3515,1.17142 -8.1242,4.03008 -10.9544,7.53688 -2.8302,3.50679 -4.7836,7.64279 -6.3354,11.87357 -4.1534,11.32338 -5.5675,23.43848 -6.8611,35.42998 -10.0408,93.07548 -14.6689,186.73459 -13.8529,280.34654"
       id="path864"
       inkscape:path-effect="#path-effect866"
       inkscape:original-d="m 635.73731,862.50535 c -9.10301,-58.38486 -18.20702,-116.77072 -27.31202,-175.15757 -9.10501,-58.38686 14.35947,-149.10753 21.53771,-223.6628 7.17823,-74.55526 36.37409,-71.28985 54.55963,-106.93627 18.18555,-35.64643 2.46264,-19.81353 3.69246,-29.72179 1.22981,-9.90826 6.77762,-24.23254 10.16493,-36.35032 3.38731,-12.11777 7.0777,-33.46462 10.61505,-50.19843 3.53735,-16.73381 5.71484,-34.84556 8.57075,-52.26984 2.85592,-17.42428 8.27518,-19.70434 12.41126,-29.558 4.13609,-9.85367 25.29576,-17.53047 37.94214,-26.2972 12.64637,-8.76673 22.89806,-7.84609 34.3456,-11.77064 11.44753,-3.92455 6.76996,4.90589 10.15344,7.35733 3.38349,2.45144 16.69308,22.90696 25.03811,34.35895 8.34504,11.45198 15.49551,18.05036 23.24177,27.07405 7.74625,9.02368 8.25356,10.88113 12.37884,16.3202 4.12529,5.43907 4.06387,-1.84504 6.09431,-2.76906 2.03043,-0.92402 -3.46724,-9.03299 -5.20236,-13.55098 -1.73511,-4.518 -13.72608,-18.64535 -20.59062,-27.96953 -6.86454,-9.32417 -17.96312,-35.47085 -29.37964,-51.86195 -11.41652,-16.391097 -12.13462,-6.90894 -15.76997,-11.710735 -3.63534,-4.801797 -5.69211,-12.461259 -8.53967,-18.693388 -2.84756,-6.232129 7.44222,-5.393198 11.16183,-8.091297 3.7196,-2.698099 16.26271,2.348832 24.39257,3.521749 8.12985,1.172916 8.33737,10.194049 12.50456,15.289574 4.16718,5.095525 6.56791,13.961627 9.85037,20.940937 3.28246,6.97932 2.59161,9.40884 3.88592,14.11175 1.2943,4.70292 6.11672,1.48645 9.17359,2.22818 3.05686,0.74172 22.94929,-10.61144 34.42243,-15.91866 11.47315,-5.30722 44.59132,-18.896826 66.88548,-28.346739 22.29416,-9.449913 38.04202,-16.370904 57.06162,-24.557856 19.0195,-8.186952 20.6313,-12.730923 30.9455,-19.097885 10.3142,-6.366961 25.5864,-17.109589 38.3781,-25.665884 12.7916,-8.5562947 5.471,-1.488848 8.2051,-2.234772 2.734,-0.745924 6.0045,4.321438 9.0052,6.480657 3.0008,2.159219 2.0633,10.600244 3.0934,15.898866 1.0301,5.298622 6.0424,28.149092 9.0621,42.222138 3.0197,14.073045 20.2943,57.300375 30.44,85.949065 10.1456,28.64869 15.8887,42.17258 23.8315,63.25738 7.9429,21.08479 8.7949,54.99855 13.1909,82.49632 4.396,27.49778 6.6013,58.85101 9.9005,88.27501 3.2992,29.42401 2.5044,45.32627 3.7551,67.98791 1.2507,22.66164 0.266,36.81661 0.3975,55.22342 0.1315,18.40681 -0.1699,2.06816 -0.2563,3.10074 -0.087,1.03259 -6.8886,3.52421 -10.3344,5.28481 -3.4457,1.76061 -11.5255,12.9413 -17.2898,19.41045 -5.7643,6.46915 -4.5731,23.62099 -6.8611,35.42998 -2.2881,11.80899 -9.2343,186.89869 -13.8529,280.34654"
       sodipodi:nodetypes="cssssssssssssssssssssssssssssssssssssssssscsssc" />
  </g>
</svg>
