<?xml version="1.0" encoding="UTF-8" standalone="no"?>
<!-- Created with Inkscape (http://www.inkscape.org/) -->

<svg
   version="1.1"
   id="svg2"
   width="1893"
   height="1024"
   viewBox="0 0 1893 1024"
   sodipodi:docname="frame_0151.svg"
   inkscape:version="1.1.2 (0a00cf5339, 2022-02-04)"
   xmlns:inkscape="http://www.inkscape.org/namespaces/inkscape"
   xmlns:sodipodi="http://sodipodi.sourceforge.net/DTD/sodipodi-0.dtd"
   xmlns:xlink="http://www.w3.org/1999/xlink"
   xmlns="http://www.w3.org/2000/svg"
   xmlns:svg="http://www.w3.org/2000/svg">
  <defs
     id="defs6">
    <inkscape:path-effect
       effect="spiro"
       id="path-effect866"
       is_visible="true"
       lpeversion="1" />
    <inkscape:path-effect
       effect="spiro"
       id="path-effect862"
       is_visible="true"
       lpeversion="1" />
  </defs>
  <sodipodi:namedview
     id="namedview4"
     pagecolor="#ffffff"
     bordercolor="#666666"
     borderopacity="1.0"
     inkscape:pageshadow="2"
     inkscape:pageopacity="0.0"
     inkscape:pagecheckerboard="0"
     showgrid="false"
     inkscape:zoom="0.94803857"
     inkscape:cx="916.62937"
     inkscape:cy="646.07076"
     inkscape:window-width="1850"
     inkscape:window-height="1016"
     inkscape:window-x="70"
     inkscape:window-y="27"
     inkscape:window-maximized="1"
     inkscape:current-layer="g8" />
  <g
     inkscape:groupmode="layer"
     inkscape:label="Image"
     id="g8">
    
    <path
       style="font-variation-settings:normal;opacity:1;vector-effect:none;fill:none;fill-opacity:1;stroke:#c86487;stroke-width:1px;stroke-linecap:butt;stroke-linejoin:miter;stroke-miterlimit:4;stroke-dasharray:none;stroke-dashoffset:0;stroke-opacity:1;-inkscape-stroke:none;stop-color:#000000;stop-opacity:1"
       d="M 1160.6318,862.75654 H 635.68108"
       id="path860"
       inkscape:path-effect="#path-effect862"
       inkscape:original-d="m 1160.6318,862.75654 c -174.98257,10e-4 -349.96614,10e-4 -524.95072,0" />
    <path
       style="font-variation-settings:normal;opacity:1;vector-effect:none;fill:none;fill-opacity:1;stroke:#c86487;stroke-width:1px;stroke-linecap:butt;stroke-linejoin:miter;stroke-miterlimit:4;stroke-dasharray:none;stroke-dashoffset:0;stroke-opacity:1;-inkscape-stroke:none;stop-color:#000000;stop-opacity:1"
       d="m 635.68108,862.75654 c -19.73951,-42.40098 -31.61883,-88.44583 -34.85616,-135.10428 -3.87287,-55.81816 4.56715,-112.01077 19.87457,-165.82851 10.75706,-37.81962 24.89241,-74.67212 34.08134,-112.90301 4.98304,-20.73212 8.59706,-42.10741 18.16623,-61.16214 7.19659,-14.33029 17.53945,-26.86902 25.09788,-41.0118 11.19209,-20.94182 15.90291,-44.62229 23.34703,-67.17019 6.4999,-19.68791 15.18536,-38.81283 18.61501,-59.26033 2.68959,-16.03533 2.07399,-32.52423 5.30388,-48.45952 2.90691,-14.34184 9.08084,-28.24264 19.12141,-38.88808 8.02966,-8.51339 18.23116,-14.68124 28.74846,-19.81345 9.67361,-4.7205 20.0373,-8.7187 30.80119,-8.69412 8.23687,0.0188 16.67283,2.59484 22.69474,8.21472 6.18216,5.76943 9.25045,14.02825 13.60454,21.27721 2.32405,3.86922 5.04243,7.48504 7.78332,11.07107 13.99194,18.30627 28.77362,36.13467 40.362,56.04958 0.7477,1.28494 1.51625,2.61729 2.7169,3.49397 1.24634,0.91003 2.88795,1.23125 4.40159,0.93053 1.51363,-0.30073 2.88629,-1.20218 3.82506,-2.42702 0.63305,-0.82595 1.07983,-1.80822 1.19627,-2.84233 0.11644,-1.03411 -0.11241,-2.11877 -0.71099,-2.97003 -0.60162,-0.85558 -1.52584,-1.42725 -2.46881,-1.87975 -0.94297,-0.4525 -1.93468,-0.81238 -2.82239,-1.36548 -1.37471,-0.85654 -2.43791,-2.141 -3.27997,-3.52461 -0.84207,-1.38362 -1.48309,-2.87772 -2.18294,-4.33843 -3.65442,-7.6274 -8.93426,-14.37413 -14.71925,-20.54389 -5.80091,-6.18674 -12.15784,-11.86996 -17.48068,-18.47252 -5.32283,-6.60256 -9.64449,-14.34682 -10.49396,-22.78511 -0.41279,-4.10054 0.005,-8.24223 0.67086,-12.30935 0.49305,-3.01156 1.12426,-6.02584 1.08051,-9.07718 -0.0438,-3.051347 -0.83584,-6.209016 -2.85897,-8.493649 -2.01277,-2.272931 -5.02266,-3.439234 -8.01919,-3.927337 -2.86974,-0.46745 -5.7966,-0.385817 -8.69938,-0.55238 -2.90279,-0.166562 -5.86581,-0.606983 -8.41065,-2.013294 -2.99866,-1.657097 -5.21943,-4.634365 -6.02536,-7.964289 -0.54432,-2.249002 -0.46383,-4.637439 0.16707,-6.863704 0.6309,-2.226266 1.80521,-4.288716 3.34853,-6.012806 3.08662,-3.448179 7.5907,-5.464637 12.18977,-5.9801 4.59907,-0.515463 9.28286,0.391029 13.58246,2.102922 4.29961,1.711893 8.24595,4.207797 11.98292,6.937672 4.93286,3.603476 9.61258,7.712411 12.92325,12.84638 1.76867,2.742746 3.13283,5.778326 3.71953,8.988722 0.5867,3.210397 0.3687,6.604166 -0.8958,9.612803 -0.56873,1.35319 -1.33981,2.61565 -1.88097,3.9801 -0.54116,1.36445 -0.84401,2.89284 -0.42746,4.30034 0.37191,1.25665 1.29066,2.29964 2.37471,3.03608 1.08405,0.73643 2.33067,1.1954 3.58203,1.58475 2.91291,0.90632 5.95966,1.47598 9.00708,1.3357 4.96807,-0.22869 9.68158,-2.32934 13.87324,-5.0059 4.19166,-2.67656 7.97291,-5.94111 12.01223,-8.84247 5.83532,-4.191397 12.1993,-7.615261 18.78981,-10.476019 14.62503,-6.34832 30.31057,-9.925084 45.08997,-15.905224 21.01306,-8.502432 39.76886,-21.67782 59.95126,-31.998149 15.9741,-8.168413 32.9652,-14.617766 47.5585,-25.05475 5.9026,-4.221451 11.425,-9.1015033 17.9964,-12.1801382 3.9522,-1.8515712 8.2713,-3.0174859 12.6356,-2.9971788 4.3644,0.020307 8.7747,1.2748775 12.2735,3.8838103 3.4481,2.571102 5.8634,6.3132307 7.6124,10.2427187 1.7489,3.929488 2.8962,8.0941 4.2858,12.164561 4.3785,12.825192 11.1603,24.705552 15.8895,37.405594 3.167,8.504737 5.3942,17.3248 8.0951,25.988812 4.5565,14.616083 10.4889,28.889883 13.0864,43.977763 2.2971,13.3428 1.9251,26.98252 2.868,40.48874 2.7273,39.0683 16.3761,76.43993 24.445,114.76307 5.0902,24.17586 7.9641,48.79103 9.2354,73.46422 1.4676,28.48382 0.808,57.07359 3.2389,85.49141 1.3668,15.97756 3.7101,32.02085 2.1454,47.98024 -0.443,4.51881 -1.2183,9.07141 -3.1339,13.18801 -1.9156,4.1166 -5.0874,7.79297 -9.2724,9.55411 -3.1165,1.31149 -6.5687,1.49607 -9.912,2.00056 -1.6717,0.25225 -3.3394,0.59073 -4.9204,1.18963 -1.5809,0.5989 -3.079,1.46858 -4.2582,2.68003 -1.8867,1.93829 -2.8373,4.62693 -3.1954,7.30804 -0.3582,2.68111 -0.1773,5.40025 -0.1019,8.10412 0.6242,22.38954 -6.0044,44.25848 -9.514,66.38006 -2.26,14.24522 -3.2297,28.65852 -4.3295,43.03991 -5.3802,70.35138 -13.9355,140.45986 -25.6312,210.04056"
       id="path864"
       inkscape:path-effect="#path-effect866"
       inkscape:original-d="M 635.68108,862.75654 C 624.06336,817.72278 612.44464,772.68802 600.82492,727.65226 589.2052,682.6165 614.07563,617.10092 620.69949,561.82375 c 6.62385,-55.27717 22.72189,-75.26767 34.08134,-112.90301 11.35944,-37.63533 12.11182,-40.77376 18.16623,-61.16214 6.05441,-20.38838 16.73292,-27.3402 25.09788,-41.0118 8.36496,-13.6716 15.56569,-44.77913 23.34703,-67.17019 7.78134,-22.39106 12.41101,-39.50589 18.61501,-59.26033 6.20401,-19.75444 3.53692,-32.30535 5.30388,-48.45952 1.76696,-16.15418 12.74861,-25.92439 19.12141,-38.88808 6.3728,-12.9637 19.16664,-13.20797 28.74846,-19.81345 9.58183,-6.60548 20.53513,-5.79508 30.80119,-8.69412 10.26606,-2.89904 15.13083,5.47748 22.69474,8.21472 7.56391,2.73724 9.07069,14.18581 13.60454,21.27721 4.53385,7.09141 5.18988,7.38171 7.78332,11.07107 2.59345,3.68935 26.909,37.36738 40.362,56.04958 13.45299,18.68219 1.81227,2.33031 2.7169,3.49397 0.90463,1.16366 5.48543,-0.99666 8.22665,-1.49649 2.74121,-0.49983 0.32452,-3.87391 0.48528,-5.81236 0.16076,-1.93846 -3.52647,-2.16249 -5.2912,-3.24523 -1.76474,-1.08274 -3.64094,-5.24103 -5.46291,-7.86304 -1.82197,-2.62202 -9.81183,-13.69493 -14.71925,-20.54389 -4.90741,-6.84897 -18.64876,-27.50409 -27.97464,-41.25763 -9.32588,-13.75354 0.44824,-8.20524 0.67086,-12.30935 0.22262,-4.10412 -1.18464,-11.71289 -1.77846,-17.570829 -0.59382,-5.857943 -5.34512,-2.617225 -8.01919,-3.927337 -2.67406,-1.310112 -11.40568,-1.709449 -17.11003,-2.565674 -5.70434,-0.856224 -4.0159,-5.308526 -6.02536,-7.964289 -2.00945,-2.655763 27.51483,-6.54301 41.27075,-9.816016 13.75592,-3.273005 8.6165,8.565253 12.92325,12.84638 4.30675,4.281127 1.88348,12.402017 2.82373,18.601525 0.94024,6.19951 -1.53795,5.52129 -2.30843,8.28044 -0.77047,2.75914 3.97216,3.08155 5.95674,4.62083 1.98458,1.53927 6.00572,0.89146 9.00708,1.3357 3.00136,0.44423 17.25798,-9.23125 25.88547,-13.84837 8.62749,-4.61712 12.52754,-6.983012 18.78981,-10.476019 6.26226,-3.493006 30.06098,-10.602482 45.08997,-15.905224 15.02896,-5.302741 39.96846,-21.331099 59.95126,-31.998149 19.9827,-10.66705 31.7066,-16.702166 47.5585,-25.05475 15.8518,-8.352583 11.9986,-8.119092 17.9964,-12.1801382 5.9979,-4.0610463 16.6071,0.5920877 24.9091,0.8866315 8.302,0.2945439 8.8087,15.7676777 11.8982,22.4072797 3.0895,6.639603 8.7794,25.608022 15.8895,37.405594 7.1102,11.797572 6.3369,15.828425 8.0951,25.988812 1.7583,10.160383 8.7253,29.319503 13.0864,43.977763 4.3612,14.65825 1.913,26.99349 2.868,40.48874 0.9549,13.49524 16.2976,76.50971 24.445,114.76307 8.1473,38.25336 6.1579,48.97715 9.2354,73.46422 3.0775,24.48707 2.1602,56.99527 3.2389,85.49141 1.0786,28.49614 1.4312,31.98782 2.1454,47.98024 0.7141,15.99241 -8.2699,15.16241 -12.4063,22.74212 -4.1364,7.57971 -12.7261,3.91448 -19.0906,5.87022 -6.3646,1.95574 -2.1972,10.27578 -3.2973,15.41216 -1.1001,5.13639 -6.3417,44.25438 -9.514,66.38006 -3.1724,22.12569 -2.8854,28.69428 -4.3295,43.03991 -1.4442,14.34564 -17.0865,140.02804 -25.6312,210.04056"
       sodipodi:nodetypes="cssssssssssssssssssssssssssssssssssssssssssssssssssssssc" />
  </g>
</svg>
