<?xml version="1.0" encoding="UTF-8" standalone="no"?>
<!-- Created with Inkscape (http://www.inkscape.org/) -->

<svg
   version="1.1"
   id="svg2"
   width="1893"
   height="1024"
   viewBox="0 0 1893 1024"
   sodipodi:docname="frame_0004.svg"
   inkscape:version="1.1.2 (0a00cf5339, 2022-02-04)"
   xmlns:inkscape="http://www.inkscape.org/namespaces/inkscape"
   xmlns:sodipodi="http://sodipodi.sourceforge.net/DTD/sodipodi-0.dtd"
   xmlns:xlink="http://www.w3.org/1999/xlink"
   xmlns="http://www.w3.org/2000/svg"
   xmlns:svg="http://www.w3.org/2000/svg">
  <sodipodi:namedview
     id="namedview8"
     pagecolor="#ffffff"
     bordercolor="#666666"
     borderopacity="1.0"
     inkscape:pageshadow="2"
     inkscape:pageopacity="0.0"
     inkscape:pagecheckerboard="0"
     showgrid="false"
     inkscape:zoom="7.5305191"
     inkscape:cx="710.97357"
     inkscape:cy="305.49023"
     inkscape:window-width="1850"
     inkscape:window-height="1016"
     inkscape:window-x="70"
     inkscape:window-y="27"
     inkscape:window-maximized="1"
     inkscape:current-layer="g8" />
  <defs
     id="defs6" />
  <g
     id="g8">
    
    <path
       style="fill:none;stroke:#c86487;stroke-width:1px;stroke-linecap:butt;stroke-linejoin:miter;stroke-opacity:1"
       d="m 635.4446,862.86152 525.1639,-0.42063"
       id="path860"
       sodipodi:nodetypes="cc" />
    <path
       style="fill:none;stroke:#c86487;stroke-width:1px;stroke-linecap:butt;stroke-linejoin:miter;stroke-opacity:1"
       d="m 635.4446,862.86152 c 0.046,-20.84074 -62.47505,-59.85973 -63.24068,-80.68645 -0.98233,-26.72148 1.29034,-29.19402 2.25819,-55.91603 2.34968,-64.87365 9.3636,-127.20845 23.4196,-190.58463 8.82648,-39.79717 16.36255,-80.23584 32.36009,-117.72984 5.90906,-13.84928 12.93425,-27.19707 18.98104,-40.98677 2.33405,-5.32279 4.54502,-10.79932 5.17226,-16.57742 0.45963,-4.23409 0.0546,-8.50675 -0.13159,-12.76164 -0.18616,-4.2549 -0.14028,-8.60163 1.17672,-12.65185 1.40256,-4.31335 4.15611,-8.02934 6.52487,-11.8973 1.18438,-1.93398 2.28471,-3.93149 3.07019,-6.05894 0.78549,-2.12746 1.25075,-4.39604 1.1351,-6.66092 -1.4421,-7.03619 0.33042,-9.70286 3.37181,-18.07513 7.53613,-10.14686 12.56128,-10.8356 14.55809,-25.97505 0.59763,-4.86851 3.15879,-9.66451 2.72942,-14.55073 -0.86044,-9.79178 -1.64746,-19.67543 -4.45608,-29.09514 -1.86984,-6.27118 -4.65253,-12.46939 -4.47518,-19.01099 0.13517,-4.98591 2.01418,-9.79842 4.61236,-14.05601 2.59818,-4.25759 5.90459,-8.03068 9.17705,-11.7948 6.05514,-6.96488 12.1017,-14.02605 19.33557,-19.75714 8.25581,-6.54072 17.94957,-11.21911 28.15364,-13.82993 5.93309,-1.51805 12.04147,-2.34685 18.16429,-2.47755 4.72385,-0.10084 9.68566,0.283 13.6857,2.79789 2.58457,1.62496 4.58303,4.03307 6.29309,6.56214 1.71006,2.52908 3.1786,5.2193 4.97489,7.68788 5.67556,7.79974 14.25408,12.93302 20.94434,19.882 5.73066,5.95227 10.09872,13.25984 16.64206,18.30511 3.13107,2.41422 6.675,4.23866 9.89394,6.53442 3.21893,2.29577 6.20027,5.20852 7.49855,8.94302 0.37199,1.07003 0.59796,2.18618 0.96397,3.25827 0.366,1.0721 0.89287,2.12451 1.7462,2.86961 0.54416,0.47515 1.20311,0.80773 1.8921,1.02491 0.68899,0.21719 1.40904,0.3222 2.12947,0.37569 1.44085,0.10698 2.89786,0.0115 4.32532,0.23484 0.85347,0.13351 1.68595,0.37958 2.53815,0.52093 0.85221,0.14136 1.7465,0.17361 2.56139,-0.11306 0.65223,-0.22945 1.2283,-0.65912 1.65733,-1.20132 0.42903,-0.5422 0.71276,-1.194 0.84627,-1.8724 0.26701,-1.3568 -0.0684,-2.78379 -0.72128,-4.00278 -0.65288,-1.21899 -1.60567,-2.25175 -2.62195,-3.1895 -1.01628,-0.93774 -2.10577,-1.79463 -3.1047,-2.75084 -2.8083,-2.68819 -4.83116,-6.0948 -6.48555,-9.61274 -1.65439,-3.51795 -2.97346,-7.18481 -4.593,-10.71893 -3.72724,-8.13347 -9.05669,-15.53236 -15.61245,-21.62067 -5.06793,-4.70656 -10.83107,-8.61383 -15.93021,-13.28656 -4.25706,-3.90107 -4.47069,-4.19899 -7.25109,-9.25965 -2.55349,-4.64765 -7.8037,-13.90045 -10.40381,-18.52218 -1.81995,-3.23497 -4.1604,-6.28108 -7.3139,-8.23881 -2.06765,-1.28362 -4.40484,-2.05273 -6.62647,-3.04632 -5.28611,-2.36412 -10.11668,-6.24645 -12.45211,-11.5453 -1.40569,-3.189366 -1.83499,-6.89266 -0.70973,-10.191416 1.1051,-3.239644 3.55787,-5.804121 5.84984,-8.346441 0.9705,-1.076504 1.93126,-2.175154 3.07406,-3.066635 1.1428,-0.891481 2.49603,-1.573523 3.94129,-1.682806 1.08367,-0.08194 2.17476,0.16191 3.17711,0.58185 1.00234,0.419939 1.92356,1.011811 2.80558,1.646707 2.59885,1.870707 4.89175,4.128581 7.36356,6.164193 2.80967,2.313847 5.85817,4.346963 8.47537,6.876469 3.32843,3.216908 5.86618,7.144319 8.74321,10.770559 2.05389,2.58874 4.30602,5.04846 6.94981,7.03099 1.65726,1.24276 3.45471,2.28791 5.12516,3.51288 1.67046,1.22497 3.23839,2.66327 4.23559,4.47891 1.1668,2.12443 1.4621,4.75664 0.594,7.01961 -0.66462,1.73254 -1.93656,3.14968 -2.93995,4.71065 -0.69049,1.07419 -1.26753,2.25647 -1.40845,3.52564 -0.0705,0.63459 -0.0289,1.28499 0.15686,1.89585 0.18577,0.61087 0.51873,1.18105 0.98469,1.61757 0.7636,0.71535 1.83708,1.02972 2.88318,1.05174 1.0461,0.022 2.07851,-0.22281 3.08719,-0.50097 2.61656,-0.72156 5.16191,-1.67651 7.70363,-2.62872 2.96812,-1.11195 5.98309,-2.24693 8.51411,-4.15484 2.39765,-1.80737 4.25202,-4.22698 6.41917,-6.30514 5.17559,-4.96306 11.9562,-7.83167 18.57588,-10.58821 11.9734,-4.98591 23.95675,-9.94967 35.85408,-15.11447 10.76976,-4.675306 21.46794,-9.514878 32.25928,-14.140157 9.1621,-3.926969 18.39893,-7.702232 27.85469,-10.857177 2.71913,-0.907248 5.49483,-1.781476 7.88533,-3.36334 3.93666,-2.605001 6.44716,-6.861787 9.95709,-10.018323 3.64328,-3.276466 8.2447,-5.267249 12.24025,-8.103496 3.68219,-2.613803 6.80957,-5.915762 10.07541,-9.034211 2.7997,-2.673302 5.7154,-5.223783 8.7105,-7.676163 4.5588,-3.732741 9.3136,-7.246499 14.4064,-10.209388 3.3122,-1.926928 6.7822,-3.625226 10.4621,-4.69377 4.1408,-1.202368 8.5031,-1.588345 12.804,-1.282169 3.8989,0.277557 7.8001,1.136543 11.2652,2.945261 2.8887,1.507827 5.4118,3.640658 7.6781,5.982015 3.1178,3.221117 5.8133,6.903098 7.5486,11.0365 1.4947,3.560207 2.2507,7.378591 3.3615,11.076593 1.3874,4.61885 3.3284,9.048497 5.0641,13.548055 1.8515,4.799632 3.4794,9.703593 5.8264,14.281388 1.6866,3.289669 3.7295,6.381138 5.6191,9.55855 2.3149,3.892696 4.4277,7.955586 7.4238,11.351992 2.1882,2.48058 4.8374,4.59403 6.5631,7.41599 1.7833,2.91611 2.4431,6.36769 2.9215,9.75219 0.8778,6.21098 1.2556,12.5004 2.5484,18.63845 1.2273,5.82729 3.2653,11.4498 5.3968,17.0104 1.7837,4.65325 3.6385,9.28167 5.2358,14.00215 3.1088,9.18743 5.2273,18.67784 8.0215,27.96581 3.3895,11.26695 7.769,22.22176 11.0069,33.53323 3.1937,11.15709 5.2595,22.60011 7.3748,34.01088 7.1128,38.36924 14.8596,76.74856 17.4676,115.68427 1.6527,24.67377 1.2976,49.87391 8.7206,73.46258 3.6332,11.54555 5.3148,23.73448 7.5111,35.63726 1.8752,10.16248 -0.4975,22.52615 -4.1074,32.20917 -4.1971,11.25819 -6.6027,17.80296 -14.2143,27.09954 -8.7964,10.74366 -17.5442,22.06951 -21.3027,35.43649 -3.8691,13.7603 -2.0979,28.38275 -0.673,42.60545 2.9293,29.23859 4.264,58.62439 4.5231,88.00821 0.4621,52.40711 17.2567,97.49756 10.9,149.51978"
       id="path954"
       sodipodi:nodetypes="csssssssssscccssssssssssssssssssssssssssssssssssssssssssssssssssssssssssssssssssssssssssssssssssssssssssssssc" />
  </g>
</svg>
