<?xml version="1.0" encoding="UTF-8" standalone="no"?>
<!-- Created with Inkscape (http://www.inkscape.org/) -->

<svg
   version="1.1"
   id="svg2"
   width="1893"
   height="1024"
   viewBox="0 0 1893 1024"
   sodipodi:docname="frame_0121.svg"
   inkscape:version="1.1.2 (0a00cf5339, 2022-02-04)"
   xmlns:inkscape="http://www.inkscape.org/namespaces/inkscape"
   xmlns:sodipodi="http://sodipodi.sourceforge.net/DTD/sodipodi-0.dtd"
   xmlns:xlink="http://www.w3.org/1999/xlink"
   xmlns="http://www.w3.org/2000/svg"
   xmlns:svg="http://www.w3.org/2000/svg">
  <defs
     id="defs6">
    <inkscape:path-effect
       effect="spiro"
       id="path-effect899"
       is_visible="true"
       lpeversion="1" />
    <inkscape:path-effect
       effect="spiro"
       id="path-effect862"
       is_visible="true"
       lpeversion="1" />
  </defs>
  <sodipodi:namedview
     id="namedview4"
     pagecolor="#ffffff"
     bordercolor="#666666"
     borderopacity="1.0"
     inkscape:pageshadow="2"
     inkscape:pageopacity="0.0"
     inkscape:pagecheckerboard="0"
     showgrid="false"
     inkscape:zoom="0.94803857"
     inkscape:cx="857.56005"
     inkscape:cy="225.20181"
     inkscape:window-width="1850"
     inkscape:window-height="1016"
     inkscape:window-x="70"
     inkscape:window-y="27"
     inkscape:window-maximized="1"
     inkscape:current-layer="g8" />
  <g
     inkscape:groupmode="layer"
     inkscape:label="Image"
     id="g8">
    
    <path
       style="font-variation-settings:normal;opacity:1;vector-effect:none;fill:none;fill-opacity:1;stroke:#c86487;stroke-width:1px;stroke-linecap:butt;stroke-linejoin:miter;stroke-miterlimit:4;stroke-dasharray:none;stroke-dashoffset:0;stroke-opacity:1;-inkscape-stroke:none;stop-color:#000000;stop-opacity:1"
       d="m 1161.5654,862.38851 -525.9847,0.20525"
       id="path860"
       inkscape:path-effect="#path-effect862"
       inkscape:original-d="m 1161.5654,862.38851 -525.9847,0.20525" />
    <path
       style="font-variation-settings:normal;opacity:1;vector-effect:none;fill:none;fill-opacity:1;stroke:#c86487;stroke-width:1px;stroke-linecap:butt;stroke-linejoin:miter;stroke-miterlimit:4;stroke-dasharray:none;stroke-dashoffset:0;stroke-opacity:1;-inkscape-stroke:none;stop-color:#000000;stop-opacity:1"
       d="m 635.5807,862.59376 c 25.50236,-42.4461 32.17263,-95.75817 17.91419,-143.17904 -8.11324,-26.9831 -22.51535,-51.72815 -30.85076,-78.64344 -9.66898,-31.22143 -10.85511,-64.99076 -3.6598,-96.87327 7.93649,-35.16671 25.63351,-67.34966 36.09615,-101.84921 5.05049,-16.65352 8.42157,-33.86585 15.05034,-49.95643 7.93977,-19.27288 20.3514,-36.43712 28.44726,-55.64495 8.40415,-19.93927 11.94694,-41.56112 18.79446,-62.08709 3.77564,-11.31778 8.54644,-22.27306 12.91755,-33.37446 4.65825,-11.83065 8.9012,-23.99081 10.09492,-36.64935 0.95282,-10.10401 -0.0632,-20.30213 -1.78147,-30.30446 -0.61912,-3.6041 -1.33105,-7.20744 -1.48646,-10.86103 -0.15542,-3.65359 0.27168,-7.40068 1.83395,-10.70707 2.29947,-4.8666 6.84457,-8.33698 11.687,-10.68692 4.84243,-2.34994 10.0798,-3.7552 15.1019,-5.69166 13.2786,-5.12005 25.04072,-13.94552 38.75395,-17.75125 9.41483,-2.61283 19.75073,-2.66915 28.73184,1.17866 5.83204,2.49865 10.91304,6.5485 15.16011,11.26214 5.21711,5.79025 9.21469,12.55234 13.20836,19.2453 7.88698,13.21773 15.91306,26.38376 22.62019,40.23754 1.23989,2.56103 2.50556,5.23724 4.72253,7.02085 1.10849,0.8918 2.44767,1.52956 3.86358,1.66828 1.41591,0.13873 2.90601,-0.2537 3.97442,-1.19314 0.78043,-0.68622 1.30959,-1.63444 1.56708,-2.64125 0.25749,-1.0068 0.2523,-2.07006 0.0702,-3.09319 -0.36417,-2.04627 -1.40667,-3.89845 -2.42335,-5.71124 -8.29653,-14.7931 -15.96543,-29.92756 -23.88507,-44.92581 -2.43407,-4.60965 -4.89662,-9.21456 -7.76868,-13.56483 -1.61453,-2.4455 -3.35828,-4.81031 -4.81061,-7.35549 -1.45233,-2.54517 -2.61737,-5.30491 -2.9553,-8.21575 -0.47964,-4.13142 0.72593,-8.30614 0.37293,-12.450307 -0.11079,-1.300641 -0.37789,-2.595794 -0.88937,-3.796761 -0.51149,-1.200968 -1.27445,-2.306924 -2.28423,-3.134138 -1.32762,-1.087585 -3.02136,-1.648753 -4.72091,-1.887368 -1.69955,-0.238615 -3.42481,-0.176216 -5.14074,-0.144897 -4.08262,0.07452 -8.32835,-0.06758 -11.97343,-1.907876 -3.09006,-1.560077 -5.5557,-4.324383 -6.73684,-7.578186 -1.1493,-3.166102 -1.07193,-6.754984 0.18591,-9.879557 1.25783,-3.124574 3.67936,-5.759649 6.67354,-7.302376 3.43397,-1.769326 7.47314,-2.084701 11.30061,-1.5621 3.82747,0.5226 7.49776,1.834029 11.11643,3.18601 6.21151,2.320695 12.46721,4.84111 17.67189,8.949609 3.4475,2.721404 6.37985,6.121976 8.40783,10.017946 2.43205,4.672241 3.51347,9.912932 4.47518,15.091716 0.33407,1.798945 0.65776,3.606705 0.73546,5.434755 0.0777,1.82805 -0.0976,3.68785 -0.73546,5.40276 -0.48671,1.30853 -1.23081,2.50499 -1.79433,3.78232 -0.56352,1.27733 -0.94769,2.70124 -0.65524,4.06638 0.24899,1.16226 0.97781,2.18574 1.89518,2.94157 0.91737,0.75583 2.01579,1.26332 3.14099,1.64641 5.26317,1.79193 11.1515,0.92993 16.24994,-1.2877 9.86987,-4.29301 16.9247,-13.09459 25.49599,-19.60437 16.52192,-12.548183 37.90652,-16.115301 57.50281,-22.928237 14.48856,-5.037174 28.25086,-11.982661 41.52006,-19.678108 11.3648,-6.590979 22.4685,-13.779317 34.6498,-18.700205 11.1806,-4.516638 23.3417,-7.168601 33.1484,-14.185382 4.5221,-3.2356 8.3924,-7.304305 12.8591,-10.616001 2.2333,-1.655848 4.6244,-3.124545 7.2127,-4.139532 2.5884,-1.014988 5.3851,-1.566744 8.158,-1.365655 3.3016,0.239425 6.4224,1.519097 9.5539,2.591975 2.8679,0.982541 5.8038,1.807049 8.5323,3.128155 2.7285,1.321105 5.284,3.202367 6.8169,5.81775 0.9732,1.660467 1.4981,3.55809 1.7038,5.471727 0.2057,1.913636 0.1012,3.848817 -0.1207,5.760639 -0.4439,3.823644 -1.3576,7.622062 -1.2026,11.468265 0.2623,6.509664 3.5308,12.465408 6.6836,18.166679 11.486,20.77048 22.5477,41.89761 30.3581,64.31052 6.061,17.39291 10.1168,35.43458 13.0907,53.61164 4.7449,29.00132 6.7581,58.38047 10.8075,87.48705 2.4458,17.58043 5.633,35.0506 8.1388,52.62259 2.9217,20.48874 4.9143,41.09712 6.9065,61.69702 3.8988,40.31487 7.7986,80.98047 3.2795,121.23052 -3.3607,29.93276 -11.3264,59.13047 -19.2605,88.18756 -5.8104,21.27935 -11.6195,42.5626 -16.8326,63.99611 -16.4529,67.64608 -26.9405,136.74192 -31.3012,206.22339"
       id="path897"
       inkscape:path-effect="#path-effect899"
       inkscape:original-d="m 635.5807,862.59376 c 5.9724,-47.72535 11.94379,-95.4517 17.91419,-143.17904 5.9704,-47.72735 -20.56617,-52.42796 -30.85076,-78.64344 -10.28459,-26.21547 -2.43887,-64.58118 -3.6598,-96.87327 -1.22094,-32.29209 24.0651,-67.89847 36.09615,-101.84921 12.03106,-33.95073 10.03456,-33.30329 15.05034,-49.95643 5.01577,-16.65314 18.96584,-37.09563 28.44726,-55.64495 9.48142,-18.54931 12.53064,-41.39039 18.79446,-62.08709 6.26382,-20.6967 8.6127,-22.24864 12.91755,-33.37446 4.30485,-11.12582 6.73095,-24.4319 10.09492,-36.64935 3.36397,-12.21745 -1.18665,-20.20197 -1.78147,-30.30446 -0.59483,-10.10249 0.23266,-14.37773 0.34749,-21.5681 0.11483,-7.19036 17.86027,-10.91805 26.7889,-16.37858 8.92864,-5.46053 25.83697,-11.83317 38.75395,-17.75125 12.91698,-5.91809 19.15556,0.78677 28.73184,1.17866 9.57628,0.39189 10.10774,7.50909 15.16011,11.26214 5.05238,3.75304 8.80657,12.8312 13.20836,19.2453 4.40179,6.4141 -385.45856,-146.2108994 22.62019,40.23754 17.83287,8.14771 11.66902,7.92799 12.56053,7.49599 0.89151,-0.432 -0.52304,-7.62945 -0.78605,-11.44568 -0.26302,-3.81622 -15.92238,-29.94954 -23.88507,-44.92581 -7.96269,-14.97628 -5.17812,-9.04222 -7.76868,-13.56483 -2.59056,-4.52261 -5.17627,-10.37983 -7.76591,-15.57124 -2.58963,-5.19142 0.24962,-8.29921 0.37293,-12.450307 0.12331,-4.151101 -2.11473,-4.6196 -3.1736,-6.930899 -1.05887,-2.3113 -6.57343,-1.353843 -9.86165,-2.032265 -3.28822,-0.678421 -7.98128,-1.270918 -11.97343,-1.907876 -3.99214,-0.636959 -4.49023,-5.051124 -6.73684,-7.578186 -2.24662,-2.527062 4.57397,-11.453622 6.85945,-17.181933 2.28549,-5.728311 14.9457,1.083606 22.41704,1.62391 7.47135,0.540303 11.78226,5.967406 17.67189,8.949609 5.88962,2.982203 5.60622,6.679631 8.40783,10.017946 2.80161,3.338315 2.98445,10.062144 4.47518,15.091716 1.49072,5.029575 10e-4,7.226015 0,10.837515 -10e-4,3.61151 -1.63205,5.23347 -2.44957,7.8487 -0.81753,2.61524 3.35844,3.05965 5.03617,4.58798 1.67772,1.52832 10.83429,-0.85747 16.24994,-1.2877 5.41565,-0.43024 16.99833,-13.06858 25.49599,-19.60437 8.49766,-6.535794 38.33621,-15.284492 57.50281,-22.928237 19.16656,-7.643744 27.68106,-13.117739 41.52006,-19.678108 13.8391,-6.56037 23.1009,-12.465804 34.6498,-18.700205 11.5489,-6.234402 22.1,-9.455922 33.1484,-14.185382 11.0485,-4.729461 18.8209,-10.746458 28.2298,-16.121188 9.4089,-5.3747287 6.3703,1.728984 9.5539,2.591975 3.1837,0.862992 10.2338,5.964937 15.3492,8.945905 5.1153,2.980968 0.2547,15.134754 0.3805,22.700631 0.1259,7.565877 4.4568,12.112119 6.6836,18.166679 2.2269,6.054559 20.2397,42.87468 30.3581,64.31052 10.1184,21.43584 8.7282,35.74209 13.0907,53.61164 4.3626,17.86954 7.206,58.3257 10.8075,87.48705 3.6015,29.16135 5.4269,35.08273 8.1388,52.62259 2.712,17.53986 4.6053,41.13234 6.9065,61.69702 2.3011,20.56467 2.1873,80.82135 3.2795,121.23052 1.0921,40.40918 -12.8394,58.79271 -19.2605,88.18756 -6.4212,29.39486 -11.2207,42.66507 -16.8326,63.99611 -5.6118,21.33103 -20.8665,137.48326 -31.3012,206.22339"
       sodipodi:nodetypes="cssssssssssssssssssssssssssssssssssssssssssssssssssssssc" />
  </g>
</svg>
