<?xml version="1.0" encoding="UTF-8" standalone="no"?>
<!-- Created with Inkscape (http://www.inkscape.org/) -->

<svg
   version="1.1"
   id="svg2"
   width="1893"
   height="1024"
   viewBox="0 0 1893 1024"
   sodipodi:docname="frame_0119.svg"
   inkscape:version="1.1.2 (0a00cf5339, 2022-02-04)"
   xmlns:inkscape="http://www.inkscape.org/namespaces/inkscape"
   xmlns:sodipodi="http://sodipodi.sourceforge.net/DTD/sodipodi-0.dtd"
   xmlns:xlink="http://www.w3.org/1999/xlink"
   xmlns="http://www.w3.org/2000/svg"
   xmlns:svg="http://www.w3.org/2000/svg">
  <defs
     id="defs6">
    <inkscape:path-effect
       effect="spiro"
       id="path-effect866"
       is_visible="true"
       lpeversion="1" />
    <inkscape:path-effect
       effect="spiro"
       id="path-effect862"
       is_visible="true"
       lpeversion="1" />
  </defs>
  <sodipodi:namedview
     id="namedview4"
     pagecolor="#ffffff"
     bordercolor="#666666"
     borderopacity="1.0"
     inkscape:pageshadow="2"
     inkscape:pageopacity="0.0"
     inkscape:pagecheckerboard="0"
     showgrid="false"
     inkscape:zoom="2.681458"
     inkscape:cx="1137.4409"
     inkscape:cy="812.05822"
     inkscape:window-width="1850"
     inkscape:window-height="1016"
     inkscape:window-x="70"
     inkscape:window-y="27"
     inkscape:window-maximized="1"
     inkscape:current-layer="g8" />
  <g
     inkscape:groupmode="layer"
     inkscape:label="Image"
     id="g8">
    
    <path
       style="font-variation-settings:normal;opacity:1;vector-effect:none;fill:none;fill-opacity:1;stroke:#c86487;stroke-width:1px;stroke-linecap:butt;stroke-linejoin:miter;stroke-miterlimit:4;stroke-dasharray:none;stroke-dashoffset:0;stroke-opacity:1;-inkscape-stroke:none;stop-color:#000000;stop-opacity:1"
       d="M 1160.7173,863.09415 635.50234,862.75451"
       id="path860"
       inkscape:path-effect="#path-effect862"
       inkscape:original-d="M 1160.7173,863.09415 C 985.64667,862.98193 810.57501,862.86872 635.50234,862.75451" />
    <path
       style="font-variation-settings:normal;opacity:1;vector-effect:none;fill:none;fill-opacity:1;stroke:#c86487;stroke-width:1px;stroke-linecap:butt;stroke-linejoin:miter;stroke-miterlimit:4;stroke-dasharray:none;stroke-dashoffset:0;stroke-opacity:1;-inkscape-stroke:none;stop-color:#000000;stop-opacity:1"
       d="m 635.50234,862.75451 c -11.62457,-57.87025 -18.62038,-116.66964 -20.89865,-175.65189 -2.70461,-70.01997 1.39591,-141.14167 22.58324,-207.93394 7.07139,-22.29228 16.00784,-43.98485 22.32409,-66.50273 2.80436,-9.99775 5.09147,-20.15544 8.55342,-29.94494 3.46195,-9.7895 8.18332,-19.30256 15.24509,-26.9151 3.09874,-3.34043 6.60653,-6.27192 9.89054,-9.43039 3.28401,-3.15847 6.38477,-6.60171 8.44007,-10.66821 2.43953,-4.82671 3.28945,-10.29771 3.66227,-15.69303 0.37283,-5.39532 0.30319,-10.82867 1.05444,-16.18442 1.96243,-13.99041 9.37031,-26.60186 13.00881,-40.25265 2.4008,-9.00726 3.2375,-18.66752 8.04976,-26.65105 1.74805,-2.90002 3.96935,-5.47961 6.05226,-8.1493 2.08292,-2.6697 4.05898,-5.4852 5.21143,-8.66917 1.9229,-5.31253 1.39353,-11.21442 0.054,-16.70315 -1.33952,-5.48874 -3.45403,-10.76986 -4.69168,-16.28246 -1.92244,-8.56267 -1.57911,-17.92017 2.62168,-25.62527 2.24902,-4.12515 5.49891,-7.61651 8.93025,-10.82601 3.43134,-3.20949 7.08177,-6.18857 10.35215,-9.56193 5.3919,-5.56168 9.66047,-12.09933 14.64107,-18.03217 4.98059,-5.93283 10.93322,-11.41588 18.29061,-13.83945 4.76088,-1.56827 9.88509,-1.77107 14.87334,-1.27825 4.98824,0.49281 9.88126,1.66112 14.76591,2.7861 3.73527,0.86027 7.48845,1.7006 11.08623,3.02283 3.59777,1.32223 7.05999,3.1513 9.85167,5.77785 3.44093,3.23739 5.69299,7.50341 8.0157,11.6175 17.28729,30.62008 41.45608,56.65974 63.39557,84.1388 0.71112,0.89068 1.43087,1.7937 2.3444,2.47522 0.45676,0.34076 0.96043,0.62327 1.50187,0.80101 0.54144,0.17774 1.12177,0.24872 1.68629,0.17086 0.68397,-0.0943 1.33141,-0.40752 1.85233,-0.86068 0.52093,-0.45315 0.91693,-1.04264 1.17114,-1.68458 0.50843,-1.28389 0.4443,-2.73968 0.0689,-4.06856 -0.53639,-1.89858 -1.67204,-3.57996 -2.99152,-5.04669 -1.31948,-1.46673 -2.83011,-2.74642 -4.26958,-4.09558 -8.19973,-7.68529 -13.99387,-17.51485 -20.40343,-26.74614 -9.78889,-14.09833 -21.3766,-27.33057 -27.38273,-43.40887 -1.29591,-3.46912 -2.3157,-7.03495 -3.26031,-10.61571 -1.27997,-4.85204 -2.4275,-9.75688 -2.93321,-14.74936 -0.2195,-2.16698 -0.31837,-4.35188 -0.73581,-6.48957 -0.41744,-2.137694 -1.1782,-4.257216 -2.56909,-5.933348 -1.94334,-2.341877 -4.92533,-3.591403 -7.90585,-4.205761 -2.98052,-0.614359 -6.04593,-0.677927 -9.05704,-1.11855 -3.05268,-0.446706 -6.12308,-1.31901 -8.59573,-3.164113 -2.02444,-1.510644 -3.56669,-3.6307 -4.49896,-5.978307 -0.93227,-2.347607 -1.26542,-4.915327 -1.0905,-7.435207 0.19971,-2.877097 1.06559,-5.720071 2.6067,-8.157805 1.54111,-2.437734 3.76597,-4.457509 6.39227,-5.649205 3.13464,-1.42236 6.71852,-1.628526 10.12281,-1.118748 3.40429,0.509777 6.66695,1.70018 9.86107,2.983405 5.69777,2.289056 11.50035,5.079211 15.2149,9.968632 3.04417,4.007008 4.37134,9.010846 6.10809,13.733854 1.30583,3.551133 2.87334,7.001099 4.20035,10.544372 1.89632,5.063411 3.30842,10.553351 2.21244,15.847971 -0.25633,1.23833 -0.64794,2.45256 -0.77714,3.71052 -0.0646,0.62899 -0.0624,1.26822 0.0558,1.88936 0.11817,0.62115 0.35527,1.22474 0.73186,1.73265 0.4058,0.5473 0.96602,0.97191 1.58542,1.25573 0.6194,0.28382 1.2968,0.4301 1.97682,0.4724 1.36003,0.0846 2.71008,-0.2387 4.02477,-0.59707 13.14079,-3.58207 24.95702,-10.81289 36.34522,-18.2842 11.7842,-7.731108 23.45559,-15.884447 36.5499,-21.097556 12.6088,-5.019817 26.14081,-7.154705 39.32899,-10.356632 23.209,-5.634858 45.6484,-14.702738 65.8259,-27.480795 14.7065,-9.313404 28.2255,-20.586198 43.7987,-28.364095 3.9364,-1.96598 8.0122,-3.70767 12.2908,-4.7344407 4.2785,-1.0267703 8.7821,-1.3205958 13.0838,-0.3955517 7.2647,1.5622294 13.4842,6.5388194 17.7175,12.6458674 5.3365,7.698557 7.7513,16.987398 10.156,26.040785 5.347,20.13123 11.1166,40.155077 15.9217,60.422478 5.8703,24.76025 10.2908,49.83923 15.6468,74.7158 8.5846,39.87202 19.5889,79.31236 24.8464,119.75779 5.6222,43.25093 4.5976,87.08503 8.1981,130.55098 1.7184,20.74485 4.47,41.85018 0.052,62.19184 -5.4923,25.28815 -21.5477,47.0073 -29.5667,71.61121 -3.1148,9.55696 -4.9906,19.47818 -6.3392,29.43905 -2.7701,20.46021 -3.3425,41.14346 -4.3998,61.76325 -3.5312,68.86671 -12.5191,137.45291 -26.8517,204.90416"
       id="path864"
       inkscape:path-effect="#path-effect866"
       inkscape:original-d="m 635.50234,862.75451 c -6.96522,-58.54963 -13.93144,-117.10026 -20.89865,-175.65189 -6.96722,-58.55164 15.0565,-138.62163 22.58324,-207.93394 7.52675,-69.31232 14.88373,-44.33415 22.32409,-66.50273 7.44036,-22.16858 15.86667,-37.90569 23.79851,-56.86004 7.93184,-18.95434 12.22141,-13.39806 18.33061,-20.0986 6.10921,-6.70053 3.14547,-21.25063 4.71671,-31.87745 1.57123,-10.62682 8.67354,-26.8341 13.00881,-40.25265 4.33526,-13.41855 5.36751,-17.76637 8.04976,-26.65105 2.68226,-8.88468 7.51013,-11.21131 11.26369,-16.81847 3.75356,-5.60715 -3.09079,-21.9894 -4.63768,-32.98561 -1.54689,-10.9962 1.74878,-17.08251 2.62168,-25.62527 0.87289,-8.54276 12.85593,-13.59096 19.2824,-20.38794 6.42647,-6.79698 21.95546,-21.24675 32.93168,-31.87162 10.97623,-10.624872 19.7605,1.00623 29.63925,1.50785 9.87874,0.50161 13.9596,5.86812 20.9379,8.80068 6.9783,2.93255 5.3448,7.746 8.0157,11.6175 2.6709,3.8715 42.26471,56.09353 63.39557,84.1388 21.13086,28.04527 3.68937,2.29906 5.53256,3.44709 1.84319,1.14803 2.06256,-4.40821 3.09234,-6.61382 1.02979,-2.20561 -4.83973,-6.09385 -7.2611,-9.14227 -2.42136,-3.04843 -13.60128,-17.82976 -20.40343,-26.74614 -6.80214,-8.91639 -18.25415,-28.93825 -27.38273,-43.40887 -9.12858,-14.47062 -2.17254,-7.07614 -3.26031,-10.61571 -1.08777,-3.53957 -1.95447,-9.83191 -2.93321,-14.74936 -0.97874,-4.91746 -2.20227,-8.280947 -3.3049,-12.422918 -1.10263,-4.141972 -11.3076,-3.548541 -16.96289,-5.324311 -5.6553,-1.77577 -5.72949,-2.108409 -8.59573,-3.164113 -2.86624,-1.055704 -3.72531,-8.941342 -5.58946,-13.413514 -1.86416,-4.472171 6.00031,-9.203673 8.99897,-13.80701 2.99866,-4.603337 13.32359,1.244105 19.98388,1.864657 6.6603,0.620552 10.14426,6.646755 15.2149,9.968632 5.07063,3.321878 4.07306,9.156903 6.10809,13.733854 2.03503,4.576951 2.80123,7.030582 4.20035,10.544372 1.39912,3.513791 1.47596,10.566311 2.21244,15.847971 0.73648,5.28166 0.008,4.88935 0.0105,7.33253 0.002,2.44317 5.059,0.75504 7.58701,1.13106 2.528,0.37602 24.23115,-12.18847 36.34522,-18.2842 12.11407,-6.095736 24.3676,-14.064038 36.5499,-21.097556 12.1823,-7.033518 26.22033,-6.903421 39.32899,-10.356632 13.1087,-3.45321 43.8849,-18.31953 65.8259,-27.480795 21.9409,-9.161265 29.2001,-18.908397 43.7987,-28.364095 14.5986,-9.4556982 16.9174,-3.418995 25.3746,-5.1299924 8.4572,-1.7109975 11.8127,8.4315784 17.7175,12.6458674 5.9048,4.214289 6.7717,17.361523 10.156,26.040785 3.3843,8.679261 10.6155,40.282649 15.9217,60.422478 5.3063,20.13982 10.4322,49.81153 15.6468,74.7158 5.2145,24.90427 16.5652,79.83953 24.8464,119.75779 8.2811,39.91826 5.4664,87.03498 8.1981,130.55098 2.7318,43.51599 0.036,41.46223 0.052,62.19184 0.016,20.72962 -19.7101,47.74181 -29.5667,71.61121 -9.8565,23.8694 -4.2251,19.62703 -6.3392,29.43905 -2.114,9.81201 -2.9322,41.1765 -4.3998,61.76325 -1.4676,20.58675 -17.9001,136.60377 -26.8517,204.90416" />
  </g>
</svg>
