<?xml version="1.0" encoding="UTF-8" standalone="no"?>
<!-- Created with Inkscape (http://www.inkscape.org/) -->

<svg
   version="1.1"
   id="svg2"
   width="1893"
   height="1024"
   viewBox="0 0 1893 1024"
   sodipodi:docname="frame_0108.svg"
   inkscape:version="1.1.2 (0a00cf5339, 2022-02-04)"
   xmlns:inkscape="http://www.inkscape.org/namespaces/inkscape"
   xmlns:sodipodi="http://sodipodi.sourceforge.net/DTD/sodipodi-0.dtd"
   xmlns:xlink="http://www.w3.org/1999/xlink"
   xmlns="http://www.w3.org/2000/svg"
   xmlns:svg="http://www.w3.org/2000/svg">
  <defs
     id="defs6">
    <inkscape:path-effect
       effect="spiro"
       id="path-effect899"
       is_visible="true"
       lpeversion="1" />
    <inkscape:path-effect
       effect="spiro"
       id="path-effect862"
       is_visible="true"
       lpeversion="1" />
  </defs>
  <sodipodi:namedview
     id="namedview4"
     pagecolor="#ffffff"
     bordercolor="#666666"
     borderopacity="1.0"
     inkscape:pageshadow="2"
     inkscape:pageopacity="0.0"
     inkscape:pagecheckerboard="0"
     showgrid="false"
     inkscape:zoom="0.47401928"
     inkscape:cx="1326.9502"
     inkscape:cy="349.14191"
     inkscape:window-width="1850"
     inkscape:window-height="1016"
     inkscape:window-x="70"
     inkscape:window-y="27"
     inkscape:window-maximized="1"
     inkscape:current-layer="g8" />
  <g
     inkscape:groupmode="layer"
     inkscape:label="Image"
     id="g8">
    
    <path
       style="font-variation-settings:normal;opacity:1;vector-effect:none;fill:none;fill-opacity:1;stroke:#c86487;stroke-width:1px;stroke-linecap:butt;stroke-linejoin:miter;stroke-miterlimit:4;stroke-dasharray:none;stroke-dashoffset:0;stroke-opacity:1;-inkscape-stroke:none;stop-color:#000000;stop-opacity:1"
       d="m 1160.4991,862.90656 -524.99935,0.29756"
       id="path860"
       inkscape:path-effect="#path-effect862"
       inkscape:original-d="m 1160.4991,862.90656 -524.99935,0.29756" />
    <path
       style="font-variation-settings:normal;opacity:1;vector-effect:none;fill:none;fill-opacity:1;stroke:#c86487;stroke-width:1px;stroke-linecap:butt;stroke-linejoin:miter;stroke-miterlimit:4;stroke-dasharray:none;stroke-dashoffset:0;stroke-opacity:1;-inkscape-stroke:none;stop-color:#000000;stop-opacity:1"
       d="m 635.49975,863.20412 c -23.93667,-44.77987 -37.91133,-94.85003 -40.6242,-145.55349 -2.57703,-48.16452 4.94262,-96.6509 19.99361,-142.47589 10.86741,-33.08745 25.72004,-65.2618 30.24272,-99.79331 2.5405,-19.39716 1.8218,-39.50686 8.45927,-57.90925 5.18845,-14.38497 14.56566,-26.81749 23.89869,-38.9312 9.33303,-12.1137 18.88353,-24.37066 24.51033,-38.58989 4.23099,-10.69195 6.09876,-22.14183 8.16829,-33.45271 2.06954,-11.31089 4.41664,-22.72753 9.4968,-33.0431 4.1378,-8.40205 9.97049,-15.83061 15.05904,-23.69334 5.08855,-7.86273 9.53865,-16.48027 10.37317,-25.80869 0.7825,-8.74692 -1.6614,-17.41498 -3.74515,-25.94603 -2.08375,-8.53106 -3.82463,-17.50727 -1.66615,-26.01972 1.78179,-7.02687 6.10195,-13.16008 11.02413,-18.4821 4.92217,-5.32202 10.5072,-9.99348 15.50602,-15.24357 7.10863,-7.46596 13.0409,-16.10787 21.0231,-22.63148 5.8576,-4.78724 12.87219,-8.36559 20.38235,-9.27478 5.31467,-0.6434 10.98517,0.1514 15.36517,3.2296 3.78746,2.66177 6.27612,6.74126 8.87469,10.57236 6.01416,8.86673 13.11994,16.92873 20.06407,25.08765 18.82302,22.11588 36.58868,45.11382 53.82398,68.48822 0.6777,0.91909 1.36325,1.84813 2.23689,2.5835 0.87363,0.73537 1.96725,1.26971 3.10911,1.25703 0.61789,-0.007 1.23097,-0.17464 1.77601,-0.46579 0.54504,-0.29115 1.0223,-0.70398 1.40503,-1.18912 0.76545,-0.97028 1.14001,-2.21159 1.19592,-3.44618 0.11136,-2.45902 -0.96781,-4.80934 -2.18528,-6.94872 -6.20114,-10.89684 -16.38852,-18.98194 -23.36082,-29.40222 -4.03286,-6.02721 -6.9213,-12.7328 -10.41285,-19.08892 -3.49155,-6.35612 -7.74332,-12.52552 -13.74354,-16.59843 -1.86924,-1.26883 -3.88347,-2.31638 -5.72543,-3.62449 -1.84197,-1.30811 -3.54228,-2.92833 -4.4662,-4.98997 -0.95922,-2.14039 -1.00489,-4.58724 -0.68061,-6.91021 0.32428,-2.32298 0.99761,-4.58251 1.42647,-6.88847 0.83742,-4.50277 0.7373,-9.15022 1.71941,-13.62366 0.41448,-1.88794 1.02236,-3.75167 1.10453,-5.682824 0.0411,-0.965579 -0.0529,-1.944488 -0.3625,-2.860023 -0.30956,-0.915534 -0.84241,-1.766588 -1.58882,-2.380516 -0.58346,-0.479905 -1.28573,-0.806263 -2.01921,-0.987197 -0.73349,-0.180934 -1.49801,-0.219229 -2.25102,-0.158252 -1.50601,0.121954 -2.95025,0.632626 -4.36717,1.157309 -2.81965,1.044112 -5.66794,2.174453 -8.66865,2.365083 -1.50035,0.09531 -3.02782,-0.05212 -4.4453,-0.552998 -1.41749,-0.500879 -2.72176,-1.366941 -3.63917,-2.557947 -0.71747,-0.931429 -1.1867,-2.045158 -1.40108,-3.201168 -0.21438,-1.156011 -0.17745,-2.353093 0.0589,-3.504822 0.4726,-2.303459 1.72533,-4.388219 3.26161,-6.168419 4.50694,-5.222523 11.34402,-7.931916 18.15962,-8.997244 3.51773,-0.549846 7.12616,-0.710811 10.6321,-0.09021 3.50593,0.620601 6.91451,2.055116 9.57301,4.423465 3.82037,3.403401 5.77554,8.360852 8.3252,12.796791 1.0824,1.883179 2.2902,3.696953 3.25646,5.64228 0.96626,1.945327 1.69238,4.055371 1.72503,6.227212 0.0418,2.782759 -1.05176,5.459749 -2.37901,7.905959 -1.32724,2.44621 -2.91006,4.76316 -3.98614,7.32979 -0.74683,1.78131 -1.24467,3.73482 -0.93599,5.64152 0.15434,0.95335 0.51385,1.88042 1.09516,2.65164 0.58131,0.77121 1.38982,1.38057 2.31196,1.66756 1.17095,0.36442 2.45419,0.19582 3.60775,-0.22037 1.15357,-0.41619 2.20513,-1.06669 3.26162,-1.68939 10.31288,-6.07842 21.91262,-9.90192 31.71413,-16.77456 4.49268,-3.15019 8.53401,-6.892162 12.82317,-10.314289 4.28916,-3.422128 8.91186,-6.56792 14.12649,-8.275408 4.86673,-1.593572 10.05908,-1.873526 15.17993,-1.912842 5.12084,-0.03932 10.26787,0.14741 15.33968,-0.560605 13.47773,-1.881465 25.20907,-9.83633 36.51767,-17.406343 14.2283,-9.524494 28.6764,-18.801616 44.0305,-26.378731 14.0793,-6.947989 28.938,-12.478502 42.0721,-21.080597 6.8581,-4.491668 13.3253,-9.858164 21.0848,-12.5037644 8.3535,-2.8481341 17.9147,-2.175459 25.6219,2.1246444 4.9177,2.743727 8.9996,6.852711 12.12,11.540472 3.1203,4.687761 5.3102,9.947289 6.9121,15.345946 3.2039,10.797314 4.0957,22.135597 6.5322,33.13153 3.3984,15.337077 9.7634,29.852359 13.9643,44.989307 5.4743,19.72515 7.2124,40.25707 10.2445,60.50196 4.4267,29.55699 11.6368,58.61728 17.3339,87.95591 6.4811,33.3761 11.0062,67.14432 13.1547,101.0759 2.0889,32.99034 1.9306,66.08347 3.5125,99.102 0.7537,15.7315 1.8921,31.63353 -0.9414,47.12609 -0.8783,4.80244 -2.1474,9.56819 -4.2833,13.95827 -2.3851,4.90227 -5.8309,9.26754 -9.9422,12.84779 -3.5284,3.07264 -7.5181,5.55965 -11.3339,8.26699 -3.8159,2.70735 -7.5214,5.69869 -10.218,9.52221 -4.2022,5.95844 -5.618,13.48417 -5.6705,20.77517 -0.053,7.291 1.1437,14.52761 1.6674,21.79997 1.4485,20.11588 -2.2529,40.19994 -5.632,60.08282 -11.5206,67.78925 -19.4634,136.1864 -23.7842,204.81174"
       id="path897"
       inkscape:path-effect="#path-effect899"
       inkscape:original-d="m 635.49975,863.20412 c -13.5404,-48.51683 -27.0818,-97.03466 -40.6242,-145.55349 -13.5424,-48.51883 13.33007,-94.98292 19.99361,-142.47589 6.66354,-47.49296 20.16281,-66.52787 30.24272,-99.79331 10.07991,-33.26544 5.64051,-38.60517 8.45927,-57.90925 2.81876,-19.30409 32.27368,-51.67973 48.40902,-77.52109 16.13534,-25.84136 11.77773,-44.32954 17.66509,-66.49581 5.88737,-22.16627 16.95581,-33.00036 25.43221,-49.50203 8.47641,-16.50168 -3.60653,-34.64284 -5.4113,-51.96575 -1.80477,-17.32292 17.68777,-22.48278 26.53015,-33.72567 8.84239,-11.24289 14.0164,-15.08666 21.0231,-22.63148 7.0067,-7.54483 13.58923,-6.18219 20.38235,-9.27478 6.79312,-3.0926 10.24445,2.15406 15.36517,3.2296 5.12072,1.07553 5.91746,7.04924 8.87469,10.57236 2.95723,3.52311 13.37705,16.7261 20.06407,25.08765 6.68703,8.36155 35.88365,45.65981 53.82398,68.48822 17.94032,22.8284 3.565,2.56135 5.346,3.84053 1.781,1.27917 2.91897,-3.39973 4.37696,-5.10109 1.45799,-1.70136 -1.45586,-4.63148 -2.18528,-6.94872 -0.72943,-2.31723 -15.57288,-19.60048 -23.36082,-29.40222 -7.78794,-9.80174 -16.10326,-23.79057 -24.15639,-35.68735 -8.05313,-11.89679 -6.79342,-5.74198 -10.19163,-8.61446 -3.39821,-2.87249 0.49824,-9.19812 0.74586,-13.79868 0.24762,-4.60056 1.14727,-9.08144 1.71941,-13.62366 0.57214,-4.542225 -0.56352,-7.281243 -0.84679,-10.923363 -0.28326,-3.642119 -5.75726,0.0089 -8.6374,0.01186 -2.88013,0.003 -11.16775,-0.496242 -16.75312,-0.745862 -5.58537,-0.249621 1.28059,-8.58194 1.91938,-12.874409 0.63879,-4.29247 12.10741,-5.997163 18.15962,-8.997244 6.05221,-3.000082 13.47107,2.889837 20.20511,4.333256 6.73403,1.443419 5.55113,8.532194 8.3252,12.796791 2.77406,4.264597 3.32199,7.913995 4.98149,11.869492 1.6595,3.955499 -4.24243,10.158169 -6.36515,15.235749 -2.12271,5.07759 1.64842,6.64148 2.47113,9.96072 0.82271,3.31923 4.58058,-1.27218 6.86937,-1.90976 2.28879,-0.63759 21.14375,-11.18204 31.71413,-16.77456 10.57037,-5.59251 17.96744,-12.392129 26.94966,-18.589697 8.98223,-6.197567 20.34741,-1.647965 30.51961,-2.473447 10.1722,-0.825483 24.34617,-11.603229 36.51767,-17.406343 12.1716,-5.803115 29.3547,-17.584821 44.0305,-26.378731 14.6758,-8.793911 28.049,-14.052731 42.0721,-21.080597 14.023,-7.027865 14.0576,-8.334843 21.0848,-12.5037644 7.0273,-4.1689216 17.0823,1.4174293 25.6219,2.1246444 8.5396,0.707214 10.2362,45.08026 25.5643,60.017948 15.328,14.937688 16.1181,24.926575 13.9643,44.989307 -2.1539,20.06273 6.8306,40.33564 10.2445,60.50196 3.4138,20.16631 11.5569,58.63827 17.3339,87.95591 5.7769,29.31764 8.7708,67.38493 13.1547,101.0759 4.3838,33.69096 2.3426,66.069 3.5125,99.102 1.1698,33.033 -0.6266,31.41839 -0.9414,47.12609 -0.3148,15.7077 -2.8546,9.30652 -4.2833,13.95827 -1.4288,4.65176 -6.6272,8.5662 -9.9422,12.84779 -3.3151,4.2816 -14.3669,11.86047 -21.5519,17.7892 -7.1849,5.92873 -2.6677,28.38443 -4.0031,42.57514 -1.3354,14.19072 -3.7537,40.05622 -5.632,60.08282 -1.8784,20.02661 -15.8551,136.54216 -23.7842,204.81174"
       sodipodi:nodetypes="cssssssssssssssssssssssssssssssssssssssssssssssssssssssc" />
  </g>
</svg>
