<?xml version="1.0" encoding="UTF-8" standalone="no"?>
<!-- Created with Inkscape (http://www.inkscape.org/) -->

<svg
   version="1.1"
   id="svg2"
   width="1893"
   height="1024"
   viewBox="0 0 1893 1024"
   sodipodi:docname="frame_0123.svg"
   inkscape:version="1.1.2 (0a00cf5339, 2022-02-04)"
   xmlns:inkscape="http://www.inkscape.org/namespaces/inkscape"
   xmlns:sodipodi="http://sodipodi.sourceforge.net/DTD/sodipodi-0.dtd"
   xmlns:xlink="http://www.w3.org/1999/xlink"
   xmlns="http://www.w3.org/2000/svg"
   xmlns:svg="http://www.w3.org/2000/svg">
  <defs
     id="defs6">
    <inkscape:path-effect
       effect="spiro"
       id="path-effect899"
       is_visible="true"
       lpeversion="1" />
    <inkscape:path-effect
       effect="spiro"
       id="path-effect862"
       is_visible="true"
       lpeversion="1" />
  </defs>
  <sodipodi:namedview
     id="namedview4"
     pagecolor="#ffffff"
     bordercolor="#666666"
     borderopacity="1.0"
     inkscape:pageshadow="2"
     inkscape:pageopacity="0.0"
     inkscape:pagecheckerboard="0"
     showgrid="false"
     inkscape:zoom="0.6703645"
     inkscape:cx="1072.5508"
     inkscape:cy="340.85934"
     inkscape:window-width="1850"
     inkscape:window-height="1016"
     inkscape:window-x="70"
     inkscape:window-y="27"
     inkscape:window-maximized="1"
     inkscape:current-layer="g8" />
  <g
     inkscape:groupmode="layer"
     inkscape:label="Image"
     id="g8">
    
    <path
       style="font-variation-settings:normal;opacity:1;vector-effect:none;fill:none;fill-opacity:1;stroke:#c86487;stroke-width:1px;stroke-linecap:butt;stroke-linejoin:miter;stroke-miterlimit:4;stroke-dasharray:none;stroke-dashoffset:0;stroke-opacity:1;-inkscape-stroke:none;stop-color:#000000;stop-opacity:1"
       d="M 1160.2401,862.64232 H 635.85813"
       id="path860"
       inkscape:path-effect="#path-effect862"
       inkscape:original-d="M 1160.2401,862.64232 H 635.85813" />
    <path
       style="font-variation-settings:normal;opacity:1;vector-effect:none;fill:none;fill-opacity:1;stroke:#c86487;stroke-width:1px;stroke-linecap:butt;stroke-linejoin:miter;stroke-miterlimit:4;stroke-dasharray:none;stroke-dashoffset:0;stroke-opacity:1;-inkscape-stroke:none;stop-color:#000000;stop-opacity:1"
       d="m 635.85813,862.64232 c -14.01892,-60.0878 -22.03427,-121.57463 -23.88801,-183.24827 -1.5203,-50.58 1.1307,-101.51864 11.93553,-150.95448 7.79771,-35.6772 19.80081,-70.36755 34.59076,-103.75802 13.51807,-30.51902 29.38547,-60.03609 40.96127,-91.34344 12.09964,-32.72409 19.37184,-67.03303 30.47725,-100.10775 3.50173,-10.42903 7.39743,-20.78299 9.44918,-31.59118 2.05175,-10.8082 2.16736,-22.26112 -1.7803,-32.52965 -1.15513,-3.00468 -2.65183,-5.89853 -3.3822,-9.03365 -0.36519,-1.56756 -0.53341,-3.19259 -0.35446,-4.79215 0.17895,-1.59955 0.71608,-3.17517 1.6676,-4.47333 0.86198,-1.17599 2.04241,-2.09734 3.33743,-2.76734 1.29502,-0.67 2.70448,-1.09696 4.13264,-1.39076 2.85633,-0.5876 5.80194,-0.65389 8.65243,-1.26917 5.65556,-1.22075 10.62411,-4.52391 15.22309,-8.03461 4.59897,-3.5107 9.03885,-7.33184 14.23999,-9.86636 5.25103,-2.55883 11.06304,-3.69987 16.81346,-4.72631 5.75043,-1.02643 11.5739,-1.97955 16.97375,-4.20722 3.43427,-1.41678 6.65724,-3.33442 10.1661,-4.55482 1.75443,-0.6102 3.58189,-1.04327 5.43757,-1.12578 1.85569,-0.0825 3.74385,0.19465 5.43954,0.95293 2.34465,1.04849 4.21208,2.96189 5.65582,5.08612 1.44374,2.12423 2.51064,4.47608 3.66051,6.77271 4.12363,8.23611 9.36925,15.85483 14.75909,23.32393 15.24324,21.12368 31.77342,41.28044 48.05676,61.61315 0.4768,0.59537 0.95535,1.19304 1.50931,1.71737 0.55397,0.52433 1.18968,0.97643 1.90782,1.23346 0.74881,0.26801 1.58231,0.31313 2.34487,0.0872 0.76257,-0.22594 1.44705,-0.72907 1.85576,-1.41135 0.33512,-0.55943 0.47943,-1.22261 0.45948,-1.87443 -0.0199,-0.65182 -0.19902,-1.29278 -0.47191,-1.88506 -0.54578,-1.18456 -1.44741,-2.1613 -2.31394,-3.13607 -11.03754,-12.41634 -18.40429,-27.569 -26.44637,-42.10577 -8.04208,-14.53677 -17.22491,-29.01139 -30.69454,-38.73568 -0.83833,-0.60522 -1.69949,-1.19764 -2.38908,-1.96806 -0.34479,-0.38521 -0.64446,-0.81403 -0.85756,-1.28506 -0.21309,-0.47102 -0.3381,-0.98546 -0.33185,-1.50241 0.01,-0.81403 0.34613,-1.60173 0.83984,-2.24903 0.49372,-0.64729 1.13829,-1.16519 1.81742,-1.61412 1.35825,-0.89785 2.90397,-1.56627 4.0062,-2.76464 1.03756,-1.12806 1.58948,-2.65859 1.65151,-4.19 0.062,-1.5314 -0.34452,-3.06059 -1.03191,-4.43046 -1.37479,-2.73974 -3.78589,-4.791668 -6.15529,-6.736449 -3.75262,-3.080116 -7.73789,-6.177931 -12.47333,-7.24792 -4.27478,-0.965902 -8.71922,-0.179357 -13.09438,0.07502 -2.18758,0.127187 -4.39932,0.118233 -6.5485,-0.309242 -2.14917,-0.427476 -4.24402,-1.293194 -5.90036,-2.72784 -2.16817,-1.877968 -3.46657,-4.667947 -3.7225,-7.524909 -0.25592,-2.856963 0.49021,-5.761762 1.902,-8.258682 1.41178,-2.496919 3.46703,-4.597594 5.80823,-6.254849 2.34121,-1.657255 4.96576,-2.884142 7.67045,-3.839341 10.91715,-3.855549 23.5643,-3.121724 33.5183,2.791593 9.05062,5.376651 15.39803,14.622944 18.66201,24.631367 2.02012,6.194351 2.94959,12.691854 3.54107,19.180384 0.20846,2.28686 0.38067,4.60141 1.07949,6.78883 0.69882,2.18743 1.99241,4.27404 3.96768,5.44515 1.32747,0.78704 2.89964,1.11844 4.44179,1.06036 1.54216,-0.0581 3.05572,-0.49327 4.45311,-1.14818 2.79478,-1.30982 5.09559,-3.45306 7.40997,-5.49514 13.24298,-11.68486 28.4468,-21.059937 44.55445,-28.302599 18.5158,-8.325466 38.1453,-13.837344 57.30263,-20.556263 19.1574,-6.718918 38.1623,-14.825991 53.9726,-27.561111 9.2105,-7.419018 17.1997,-16.302608 26.722,-23.316883 4.7612,-3.507138 9.9161,-6.5414564 15.4931,-8.5074795 5.5771,-1.9660232 11.5997,-2.8373421 17.4553,-2.0124771 7.3308,1.0326744 14.2012,4.745455 19.3279,10.0863416 5.3687,5.593077 8.7998,12.799032 11.0692,20.212225 2.2695,7.413193 3.4556,15.105273 4.9008,22.722168 8.9696,47.273128 27.9962,91.970328 41.3746,138.189578 19.8529,68.58699 27.1692,140.2676 28.8302,211.65075 0.8277,35.57052 0.2788,71.25301 4.211,106.61521 0.2024,1.81977 0.4132,3.6901 -0.061,5.45862 -0.4156,1.5502 -1.3465,2.93454 -2.5203,4.02904 -1.1739,1.09449 -2.5842,1.91206 -4.0595,2.54408 -2.9505,1.26405 -6.1595,1.80528 -9.1729,2.91099 -6.0879,2.23382 -11.1748,6.73158 -14.8972,12.04166 -3.7224,5.31007 -6.1679,11.41516 -8.0406,17.62371 -9.0897,30.13548 -5.1267,62.39767 -3.5605,93.83518 3.5316,70.88627 -5.7141,142.39003 -27.1597,210.04667"
       id="path897"
       inkscape:path-effect="#path-effect899"
       inkscape:original-d="m 635.85813,862.64232 c -7.96167,-61.08176 -15.92434,-122.16452 -23.88801,-183.24827 -7.96367,-61.08376 7.95802,-100.63532 11.93553,-150.95448 3.97752,-50.31915 23.06151,-69.17101 34.59076,-103.75802 11.52925,-34.58701 27.30851,-60.89463 40.96127,-91.34344 13.65275,-30.44882 20.31917,-66.7375 30.47725,-100.10775 10.15809,-33.37025 5.11359,-42.74622 7.66888,-64.12083 2.55529,-21.37461 -1.37838,-12.19842 -2.06906,-18.29913 -0.69069,-6.10071 10.74934,-3.61718 16.1225,-5.42727 5.37317,-1.81009 19.64305,-11.93298 29.46308,-17.90097 9.82002,-5.96799 22.52581,-5.95469 33.78721,-8.93353 11.26141,-2.97884 14.02981,-3.15078 21.04321,-4.72767 7.0134,-1.57689 6.21189,7.90689 9.31633,11.85883 3.10445,3.95195 9.8404,15.55029 14.75909,23.32393 4.9187,7.77365 32.03884,41.07644 48.05676,61.61315 16.01792,20.53672 2.27909,1.96822 3.41713,2.95083 1.13804,0.98261 2.80142,-0.88176 4.20063,-1.32415 1.39921,-0.44238 -1.54992,-4.59604 -2.32637,-6.89556 -0.77646,-2.29951 -38.09294,-53.8933 -57.14091,-80.84145 -19.04797,-26.94815 -2.38466,-3.16935 -3.57849,-4.75553 -1.19383,-1.58617 4.4433,-4.41752 6.66346,-6.62779 2.22015,-2.21026 -3.68946,-10.23694 -5.53569,-15.356909 -1.84623,-5.119971 -8.31456,-4.830946 -12.47333,-7.24792 -4.15878,-2.416973 -17.02783,-1.973709 -25.54324,-2.962064 -8.51541,-0.988355 7.77312,-17.250854 11.65818,-25.877781 3.88506,-8.626927 22.34653,1.862062 33.5183,2.791593 11.17176,0.929531 12.44234,16.421912 18.66201,24.631367 6.21967,8.209456 2.36171,12.787924 3.54107,19.180384 1.17936,6.39247 3.36578,8.15699 5.04717,12.23398 1.68139,4.07699 10.87091,-3.72097 16.30487,-5.58296 5.43395,-1.86199 29.70397,-18.8674 44.55445,-28.302599 14.85049,-9.4352 74.18443,-32.07725 111.27523,-48.117374 37.0907,-16.040125 39.7813,-22.556893 59.6704,-33.8368396 19.8892,-11.2799463 12.8863,6.7252276 19.3279,10.0863416 6.4416,3.361114 10.6477,28.623929 15.97,42.934393 5.3223,14.310464 27.584,92.127388 41.3746,138.189578 13.7905,46.06219 19.2211,141.1015 28.8302,211.65075 9.609,70.54925 2.8083,71.07781 4.211,106.61521 1.4027,35.5374 -0.039,3.64008 -0.061,5.45862 -0.021,1.81853 -10.5008,6.32374 -15.7527,9.48411 -5.2519,3.16037 -15.2909,19.77791 -22.9378,29.66537 -7.647,9.88745 -2.3727,62.55779 -3.5605,93.83518 -1.1878,31.2774 -18.1055,140.03211 -27.1597,210.04667" />
  </g>
</svg>
