<?xml version="1.0" encoding="UTF-8" standalone="no"?>
<!-- Created with Inkscape (http://www.inkscape.org/) -->

<svg
   version="1.1"
   id="svg2"
   width="1893"
   height="1024"
   viewBox="0 0 1893 1024"
   sodipodi:docname="frame_0087.svg"
   inkscape:version="1.1.2 (0a00cf5339, 2022-02-04)"
   xmlns:inkscape="http://www.inkscape.org/namespaces/inkscape"
   xmlns:sodipodi="http://sodipodi.sourceforge.net/DTD/sodipodi-0.dtd"
   xmlns:xlink="http://www.w3.org/1999/xlink"
   xmlns="http://www.w3.org/2000/svg"
   xmlns:svg="http://www.w3.org/2000/svg">
  <defs
     id="defs6">
    <inkscape:path-effect
       effect="spiro"
       id="path-effect899"
       is_visible="true"
       lpeversion="1" />
    <inkscape:path-effect
       effect="spiro"
       id="path-effect862"
       is_visible="true"
       lpeversion="1" />
  </defs>
  <sodipodi:namedview
     id="namedview4"
     pagecolor="#ffffff"
     bordercolor="#666666"
     borderopacity="1.0"
     inkscape:pageshadow="2"
     inkscape:pageopacity="0.0"
     inkscape:pagecheckerboard="0"
     showgrid="false"
     inkscape:zoom="0.47401928"
     inkscape:cx="1010.5074"
     inkscape:cy="612.84426"
     inkscape:window-width="1850"
     inkscape:window-height="1016"
     inkscape:window-x="70"
     inkscape:window-y="27"
     inkscape:window-maximized="1"
     inkscape:current-layer="g8" />
  <g
     inkscape:groupmode="layer"
     inkscape:label="Image"
     id="g8">
    
    <path
       style="font-variation-settings:normal;opacity:1;vector-effect:none;fill:none;fill-opacity:1;stroke:#c86487;stroke-width:1px;stroke-linecap:butt;stroke-linejoin:miter;stroke-miterlimit:4;stroke-dasharray:none;stroke-dashoffset:0;stroke-opacity:1;-inkscape-stroke:none;stop-color:#000000;stop-opacity:1"
       d="m 1161.0074,862.69108 -525.52906,0.0337"
       id="path860"
       inkscape:path-effect="#path-effect862"
       inkscape:original-d="m 1161.0074,862.69108 -525.52906,0.0337" />
    <path
       style="font-variation-settings:normal;opacity:1;vector-effect:none;fill:none;fill-opacity:1;stroke:#c86487;stroke-width:1px;stroke-linecap:butt;stroke-linejoin:miter;stroke-miterlimit:4;stroke-dasharray:none;stroke-dashoffset:0;stroke-opacity:1;-inkscape-stroke:none;stop-color:#000000;stop-opacity:1"
       d="m 635.47834,862.72478 c -11.048,-66.74382 -16.83053,-134.35852 -17.27617,-202.00907 -0.21034,-31.93143 0.76594,-63.86005 2.15362,-95.76201 0.89353,-20.54168 1.97003,-41.17499 6.1736,-61.30181 6.9748,-33.39552 22.31913,-64.36462 33.36041,-96.64463 5.79432,-16.94013 10.43675,-34.33815 17.96244,-50.58334 7.32624,-15.81464 17.32319,-30.3953 23.25625,-46.78357 6.72782,-18.58354 8.01462,-38.92495 15.96556,-57.01898 4.51384,-10.27218 11.11741,-19.66998 14.21342,-30.45456 3.1204,-10.86957 2.46066,-22.5344 0,-33.57204 -0.95241,-4.27215 -2.17102,-8.49909 -2.68747,-12.84554 -0.51645,-4.34645 -0.29044,-8.89723 1.5419,-12.87226 1.5805,-3.42868 4.27019,-6.24274 7.25478,-8.5549 2.98459,-2.31215 6.2856,-4.17511 9.49147,-6.16916 13.70187,-8.52259 25.77335,-19.5148 39.71697,-27.63584 5.62145,-3.27405 11.62677,-6.09783 18.05345,-7.10672 6.42668,-1.00889 13.35817,-0.0418 18.66548,3.72021 3.52027,2.49528 6.13269,6.043 8.62682,9.56408 9.25015,13.05885 17.75271,26.63135 26.85322,39.79492 9.69958,14.03011 20.08775,27.60524 31.52063,40.26284 3.75472,4.15693 7.65633,8.24438 12.2542,11.444 1.06409,0.74049 2.17814,1.43866 3.41285,1.83379 1.2347,0.39512 2.61296,0.46519 3.80776,-0.0379 1.07731,-0.4536 1.93935,-1.3532 2.44122,-2.40889 0.50187,-1.05569 0.65771,-2.2573 0.54696,-3.42096 -0.2215,-2.3273 -1.45429,-4.42834 -2.77952,-6.35427 -4.31408,-6.26958 -9.87332,-11.55761 -15.20711,-16.9862 -8.09339,-8.23726 -15.78744,-16.9451 -21.99742,-26.68119 -5.47691,-8.58678 -9.84561,-18.02748 -16.90442,-25.36932 -2.73111,-2.84062 -5.83589,-5.33193 -8.29772,-8.40885 -1.23092,-1.53846 -2.29682,-3.22457 -3.0024,-5.06418 -0.70558,-1.83962 -1.04202,-3.84016 -0.81064,-5.79681 0.38341,-3.24229 2.27145,-6.1414 2.79032,-9.36479 0.27686,-1.71996 0.14348,-3.53044 -0.56204,-5.12329 -0.83859,-1.89327 -2.43453,-3.3738 -4.22568,-4.41278 -1.79115,-1.038977 -3.78272,-1.676694 -5.7687,-2.262851 -4.6635,-1.376421 -9.39406,-2.511687 -14.09628,-3.749379 -2.89631,-0.762351 -5.81738,-1.577993 -8.41714,-3.064948 -2.59976,-1.486954 -4.88345,-3.733516 -5.82158,-6.577756 -0.91047,-2.76038 -0.4535,-5.876287 0.94582,-8.423947 1.39931,-2.54766 3.67837,-4.547521 6.25032,-5.901663 5.14392,-2.708283 11.19718,-2.879477 17.00826,-3.040672 6.72252,-0.186478 13.70876,-0.391115 19.86536,2.315047 3.60171,1.583146 6.74372,4.109187 9.32518,7.078144 2.58146,2.968958 4.62139,6.376162 6.3322,9.919008 2.73107,5.655651 4.67033,11.826713 4.54005,18.105897 -0.0678,3.26931 -0.69291,6.49835 -1.0432,9.74955 -0.35029,3.2512 -0.41514,6.60887 0.60328,9.71625 0.68917,2.10279 1.9214,4.09652 3.77295,5.30831 1.48415,0.97134 3.29574,1.38715 5.06815,1.31801 1.7724,-0.0691 3.50704,-0.6052 5.08959,-1.4063 3.16508,-1.6022 5.68778,-4.20155 8.2562,-6.64859 5.67978,-5.41135 11.86698,-10.28371 18.40676,-14.61659 16.76557,-11.107881 35.6402,-18.560689 54.43246,-25.724508 20.59674,-7.85171 41.37644,-15.495733 60.67364,-26.149029 28.5054,-15.736808 53.1964,-37.721482 81.7688,-53.3364122 1.0601,-0.5793326 2.1373,-1.1545619 3.3047,-1.4651626 2.0583,-0.547609 4.2997,-0.2210496 6.2137,0.7132896 1.9139,0.9343391 3.5115,2.4466988 4.7275,4.1953337 2.4319,3.4972695 3.3367,7.7998855 4.2035,11.9704855 2.0709,9.964201 4.2402,19.940637 7.6125,29.542787 7.1614,20.391084 19.5375,38.534766 28.0388,58.404586 7.6106,17.78791 12.0303,36.75173 16.1578,55.65398 7.4654,34.18889 14.0974,68.55891 19.9578,103.05916 3.7217,21.90927 7.1333,43.87856 9.6507,65.95863 5.0384,44.19115 6.4842,88.72223 11.0444,132.96529 1.5346,14.8893 3.412,30.03932 0.4912,44.71975 -0.7367,3.70298 -1.8152,7.43004 -4.0198,10.49509 -1.6869,2.34527 -3.9655,4.20462 -6.3656,5.81262 -2.4,1.608 -4.9437,2.99103 -7.364,4.56844 -12.1722,7.93329 -20.7797,20.60253 -25.6204,34.30172 -5.2134,14.75412 -6.3209,30.68241 -5.5915,46.31353 0.7293,15.63113 3.2399,31.11598 5.0715,46.65655 8.0949,68.68403 2.8042,138.92033 -15.4886,205.61665"
       id="path897"
       inkscape:path-effect="#path-effect899"
       inkscape:original-d="m 635.47834,862.72478 c -5.75772,-67.33536 -11.51645,-134.67172 -17.27617,-202.00907 -5.75973,-67.33736 1.43675,-63.84034 2.15362,-95.76201 0.71688,-31.92166 4.11674,-40.86687 6.1736,-61.30181 2.05687,-20.43494 22.24128,-64.42875 33.36041,-96.64463 11.11914,-32.21587 11.97596,-33.72122 17.96244,-50.58334 5.98648,-16.86211 15.50517,-31.18804 23.25625,-46.78357 7.75109,-15.59552 10.64471,-38.01165 15.96556,-57.01898 5.32086,-19.00733 9.47661,-20.30204 14.21342,-30.45456 4.7368,-10.15253 10e-4,-22.38036 0,-33.57204 -10e-4,-11.19168 -0.76271,-17.1442 -1.14557,-25.7178 -0.38285,-8.57361 11.16517,-9.81504 16.74625,-14.72406 5.58108,-4.90902 26.47898,-18.42289 39.71697,-27.63584 13.23799,-9.21294 24.48029,-2.25667 36.71893,-3.38651 12.23864,-1.12983 5.75221,6.37705 8.62682,9.56408 2.8746,3.18702 17.90315,26.53094 26.85322,39.79492 8.95008,13.26397 21.01476,26.84289 31.52063,40.26284 10.50588,13.41995 8.17047,7.63033 12.2542,11.444 4.08374,3.81366 4.81474,1.19827 7.22061,1.79591 2.40587,0.59764 0.14011,-8.12174 0.20866,-12.18412 0.0685,-4.06237 -10.13707,-11.32313 -15.20711,-16.9862 -5.07003,-5.66307 -14.66395,-17.78646 -21.99742,-26.68119 -7.33348,-8.89473 -11.26861,-16.91188 -16.90442,-25.36932 -5.63581,-8.45744 -8.07284,-12.84556 -12.11076,-19.26984 -4.03792,-6.42428 1.86121,-6.24219 2.79032,-9.36479 0.9291,-3.1226 -0.37369,-3.41453 -0.56204,-5.12329 -0.18835,-1.70876 -6.66192,-4.44942 -9.99438,-6.675631 -3.33245,-2.22621 -9.39652,-2.498586 -14.09628,-3.749379 -4.69976,-1.250793 -9.49148,-6.42747 -14.23872,-9.642704 -4.74724,-3.215235 16.13726,-11.576522 24.2044,-17.366282 8.06713,-5.789761 13.24457,1.544365 19.86536,2.315047 6.62078,0.770683 10.43925,11.332435 15.65738,16.997152 5.21813,5.664717 3.0277,12.071598 4.54005,18.105897 1.51235,6.0343 -0.29228,12.9782 -0.43992,19.4658 -0.14764,6.4876 2.5163,3.53987 3.77295,5.30831 1.25665,1.76843 12.27696,-4.49025 18.41394,-6.73688 6.13699,-2.24662 12.27217,-9.74339 18.40676,-14.61659 6.13458,-4.8732 36.28931,-17.148672 54.43246,-25.724508 18.14316,-8.575836 40.45014,-17.431686 60.67364,-26.149029 20.2236,-8.717343 54.5136,-35.556608 81.7688,-53.3364122 27.2553,-17.7798038 2.2041,-0.9757751 3.3047,-1.4651626 1.1006,-0.4893876 10.0975,11.2537388 15.1447,16.8791088 5.0472,5.625369 5.076,19.696191 7.6125,29.542787 2.5365,9.846595 18.6936,38.937388 28.0388,58.404586 9.3453,19.46719 10.7729,37.10365 16.1578,55.65398 5.385,18.55033 13.3062,68.70711 19.9578,103.05916 6.6516,34.35206 6.4348,43.97342 9.6507,65.95863 3.2159,21.98521 7.364,88.64453 11.0444,132.96529 3.6805,44.32076 0.3285,29.81417 0.4912,44.71975 0.1628,14.90558 -2.6789,6.99773 -4.0198,10.49509 -1.341,3.49737 -9.1521,6.92171 -13.7296,10.38106 -4.5775,3.45935 -17.0793,22.86881 -25.6204,34.30172 -8.5412,11.43291 -0.3457,61.98105 -0.52,92.97008 -0.1743,30.98902 -10.3247,137.07877 -15.4886,205.61665" />
  </g>
</svg>
