<?xml version="1.0" encoding="UTF-8" standalone="no"?>
<!-- Created with Inkscape (http://www.inkscape.org/) -->

<svg
   version="1.1"
   id="svg2"
   width="1893"
   height="1024"
   viewBox="0 0 1893 1024"
   sodipodi:docname="frame_0101.svg"
   inkscape:version="1.1.2 (0a00cf5339, 2022-02-04)"
   xmlns:inkscape="http://www.inkscape.org/namespaces/inkscape"
   xmlns:sodipodi="http://sodipodi.sourceforge.net/DTD/sodipodi-0.dtd"
   xmlns:xlink="http://www.w3.org/1999/xlink"
   xmlns="http://www.w3.org/2000/svg"
   xmlns:svg="http://www.w3.org/2000/svg">
  <defs
     id="defs6">
    <inkscape:path-effect
       effect="spiro"
       id="path-effect899"
       is_visible="true"
       lpeversion="1" />
    <inkscape:path-effect
       effect="spiro"
       id="path-effect862"
       is_visible="true"
       lpeversion="1" />
  </defs>
  <sodipodi:namedview
     id="namedview4"
     pagecolor="#ffffff"
     bordercolor="#666666"
     borderopacity="1.0"
     inkscape:pageshadow="2"
     inkscape:pageopacity="0.0"
     inkscape:pagecheckerboard="0"
     showgrid="false"
     inkscape:zoom="0.6703645"
     inkscape:cx="1032.2742"
     inkscape:cy="604.8948"
     inkscape:window-width="1850"
     inkscape:window-height="1016"
     inkscape:window-x="70"
     inkscape:window-y="27"
     inkscape:window-maximized="1"
     inkscape:current-layer="g8" />
  <g
     inkscape:groupmode="layer"
     inkscape:label="Image"
     id="g8">
    
    <path
       style="font-variation-settings:normal;opacity:1;vector-effect:none;fill:none;fill-opacity:1;stroke:#c86487;stroke-width:1px;stroke-linecap:butt;stroke-linejoin:miter;stroke-miterlimit:4;stroke-dasharray:none;stroke-dashoffset:0;stroke-opacity:1;-inkscape-stroke:none;stop-color:#000000;stop-opacity:1"
       d="m 1160.787,862.51272 -525.19031,0.12102"
       id="path860"
       inkscape:path-effect="#path-effect862"
       inkscape:original-d="m 1160.787,862.51272 -525.19031,0.12102" />
    <path
       style="font-variation-settings:normal;opacity:1;vector-effect:none;fill:none;fill-opacity:1;stroke:#c86487;stroke-width:1px;stroke-linecap:butt;stroke-linejoin:miter;stroke-miterlimit:4;stroke-dasharray:none;stroke-dashoffset:0;stroke-opacity:1;-inkscape-stroke:none;stop-color:#000000;stop-opacity:1"
       d="m 635.59669,862.63374 c -31.09101,-55.24487 -45.6339,-119.66669 -41.2911,-182.91056 2.94442,-42.87946 14.27803,-84.66228 23.01149,-126.74606 5.84253,-28.15328 10.55244,-56.60787 18.82654,-84.14479 9.76782,-32.50814 24.37384,-63.31468 38.5828,-94.14153 5.82396,-12.63529 11.5947,-25.30795 16.54089,-38.31196 6.38564,-16.78844 11.37445,-34.06904 17.07035,-51.10385 6.17931,-18.48052 13.23363,-36.83618 16.07752,-56.11378 1.08595,-7.36123 1.54776,-14.80536 1.63501,-22.24575 0.15499,-13.21738 -0.80875,-26.83837 3.69183,-39.26688 3.11985,-8.61558 8.70108,-16.11891 14.7325,-23.017 6.71484,-7.67971 14.14813,-14.83534 22.77144,-20.28562 8.62331,-5.45028 18.51481,-9.14845 28.70862,-9.53999 10.47471,-0.40233 21.13575,2.82615 29.32688,9.36732 10.14891,8.10458 15.82616,20.37476 22.99016,31.20812 7.37631,11.15441 16.53615,21.01277 24.41256,31.81985 6.092,8.35872 11.56242,17.44325 19.7167,23.8063 3.14423,2.45355 6.62811,4.44939 9.73861,6.94557 1.29043,1.03557 2.53515,2.16895 4.03597,2.86548 0.75041,0.34827 1.56176,0.58163 2.38854,0.61049 0.82679,0.0289 1.67003,-0.15408 2.37508,-0.58688 0.64398,-0.39531 1.15678,-0.98973 1.49332,-1.66628 0.33653,-0.67655 0.50054,-1.43272 0.5193,-2.18813 0.0375,-1.5108 -0.49385,-2.98377 -1.1958,-4.32213 -1.35178,-2.57736 -3.33708,-4.77008 -5.46739,-6.75299 -2.13031,-1.9829 -4.4241,-3.78444 -6.54928,-5.77284 -9.91086,-9.27298 -15.69017,-22.1217 -24.64977,-32.31674 -5.10716,-5.81139 -11.17862,-10.68187 -16.76491,-16.03431 -5.5863,-5.35244 -10.80096,-11.3669 -13.57824,-18.58784 -1.14969,-2.9892 -1.86395,-6.16763 -1.86473,-9.37029 -7.7e-4,-3.20267 0.73091,-6.43191 2.31977,-9.21266 1.2355,-2.16232 2.95487,-4.01146 4.2616,-6.1315 0.65337,-1.06002 1.20455,-2.19392 1.50853,-3.40145 0.30399,-1.20753 0.35278,-2.49467 0.0158,-3.6934 -0.39401,-1.401493 -1.30566,-2.629906 -2.45607,-3.522088 -1.1504,-0.892183 -2.52993,-1.461104 -3.95156,-1.774759 -2.84327,-0.62731 -5.79694,-0.258217 -8.69831,-0.01378 -2.71374,0.228628 -5.45948,0.344389 -8.14931,-0.08156 -2.68984,-0.425946 -5.34097,-1.425704 -7.39602,-3.212719 -2.82309,-2.454882 -4.29841,-6.294739 -4.12637,-10.031945 0.17204,-3.737205 1.91118,-7.327651 4.53655,-9.99293 2.62538,-2.665279 6.09112,-4.431162 9.73352,-5.285091 3.6424,-0.853929 7.45745,-0.82426 11.14891,-0.216483 10.28219,1.692898 19.44734,7.790574 26.53408,15.430435 1.90572,2.054462 3.69947,4.249527 4.96244,6.751022 1.26298,2.501494 1.97344,5.343255 1.62021,8.123149 -0.43249,3.403657 -2.38093,6.395457 -4.24847,9.273687 -1.37716,2.12246 -2.75034,4.28057 -3.5808,6.6705 -0.83046,2.38992 -1.08073,5.06639 -0.1937,7.4359 0.59315,1.58447 1.67557,2.96788 3.01332,4.00363 1.33776,1.03574 2.92391,1.73073 4.57282,2.10951 3.29781,0.75755 6.76651,0.26091 10.02018,-0.6681 11.40003,-3.25502 20.57969,-11.46099 30.34608,-18.1821 19.38437,-13.340081 41.89585,-21.205484 63.64282,-30.193312 21.4479,-8.864226 42.38973,-18.945358 62.74603,-30.090202 24.567,-13.450148 48.3481,-28.481074 74.0178,-39.6842747 2.1586,-0.9420761 4.4278,-1.8745913 6.7786,-1.7311261 2.0404,0.1245202 3.9833,1.0779287 5.4841,2.4658201 1.5008,1.3878917 2.5801,3.1891407 3.3081,5.0992817 1.456,3.820284 1.54,7.99912 2.0239,12.058737 1.8428,15.461393 9.5584,29.486206 16.186,43.576106 9.428,20.043303 16.8841,40.97347 23.1201,62.22748 10.858,37.00705 18.0302,74.98026 24.9769,112.91656 8.7942,48.02594 17.2692,96.22095 20.6794,144.92619 1.6094,22.98612 2.0869,46.03856 3.5684,69.03328 0.9471,14.69919 2.3021,29.49555 0.5004,44.11461 -0.6704,5.43922 -1.8025,10.90078 -4.2921,15.78303 -4.2907,8.41436 -12.1371,14.30993 -19.0797,20.714 -3.9385,3.63297 -7.6679,7.53122 -10.7099,11.94217 -3.042,4.41096 -5.388,9.36128 -6.3792,14.62697 -1.0801,5.73754 -0.5288,11.66536 0.5407,17.40487 1.0695,5.73951 2.651,11.37631 3.6485,17.12877 2.9382,16.94367 0.7368,34.30579 -1.4066,51.36823 -8.8042,70.08387 -16.5527,140.30035 -23.242,210.61759"
       id="path897"
       inkscape:path-effect="#path-effect899"
       inkscape:original-d="m 635.59669,862.63374 c -13.7627,-60.96919 -27.5264,-121.93937 -41.2911,-182.91056 -13.76471,-60.97118 15.34199,-84.49638 23.01149,-126.74606 7.66949,-42.24969 12.55202,-56.09553 18.82654,-84.14479 6.27451,-28.04926 25.72287,-62.76002 38.5828,-94.14153 12.85994,-31.38151 11.02826,-25.54031 16.54089,-38.31196 5.51263,-12.77165 11.38123,-34.06823 17.07035,-51.10385 5.68911,-17.03562 10.71935,-37.40819 16.07752,-56.11378 5.35817,-18.7056 1.091,-14.8295 1.63501,-22.24575 0.544,-7.41625 2.46222,-26.17692 3.69183,-39.26688 1.22961,-13.08996 9.82267,-15.34367 14.7325,-23.017 4.90983,-7.67333 34.32104,-19.88274 51.48006,-29.82561 17.15902,-9.94287 19.55225,6.24588 29.32688,9.36732 9.77462,3.12144 15.32777,20.80642 22.99016,31.20812 7.66239,10.40171 16.27604,21.21423 24.41256,31.81985 8.13651,10.60562 13.14547,15.87187 19.7167,23.8063 6.57124,7.93443 6.49341,4.63138 9.73861,6.94557 3.2452,2.31419 5.86739,1.92706 8.79959,2.88909 2.93219,0.96203 0.54555,-5.45003 0.81682,-8.17654 0.27128,-2.72652 -8.01011,-8.34955 -12.01667,-12.52583 -4.00656,-4.17628 -16.43218,-21.54349 -24.64977,-32.31674 -8.21759,-10.77324 -20.22777,-23.08043 -30.34315,-34.62215 -10.11539,-11.54172 0.30436,-12.38763 0.45504,-18.58295 0.15068,-6.19532 3.85827,-8.81657 5.7859,-13.22635 1.92764,-4.409779 -10.06962,-3.539418 -15.10594,-5.310628 -5.03631,-1.771211 -10.36255,-2.195184 -15.54533,-3.294276 -5.18278,-1.099092 14.19607,-17.016632 21.29261,-25.526449 7.09654,-8.509816 17.69039,10.287957 26.53408,15.430435 8.8437,5.142478 4.38943,9.917114 6.58265,14.874171 2.19321,4.957057 -2.83131,6.183457 -4.24847,9.273687 -1.41716,3.09022 -2.51533,9.40526 -3.7745,14.1064 -1.25916,4.70113 11.73855,3.63103 17.60632,5.44504 5.86777,1.81401 20.23172,-12.1204 30.34608,-18.1821 10.11436,-6.06171 42.42955,-20.127876 63.64282,-30.193312 21.21327,-10.065436 41.83163,-20.059135 62.74603,-30.090202 20.9143,-10.031068 49.3462,-26.455183 74.0178,-39.6842747 24.6716,-13.2290916 4.5201,-1.1530841 6.7786,-1.7311261 2.2586,-0.5780421 7.2117,13.0835598 10.8161,19.6238388 3.6043,6.54028 10.7917,29.051737 16.186,43.576106 5.3943,14.524368 15.4144,41.48599 23.1201,62.22748 7.7057,20.74149 16.6523,75.27871 24.9769,112.91656 8.3246,37.63785 13.7872,96.61846 20.6794,144.92619 6.8921,48.30773 2.3799,46.02318 3.5684,69.03328 1.1885,23.01009 0.3346,29.41074 0.5004,44.11461 0.1658,14.70387 -2.8604,10.52302 -4.2921,15.78303 -1.4317,5.26001 -12.7188,13.81033 -19.0797,20.714 -6.3608,6.90366 -11.3917,17.71376 -17.0891,26.56914 -5.6973,8.85537 2.7938,23.02343 4.1892,34.53364 1.3954,11.51022 -0.9367,34.24649 -1.4066,51.36823 -0.4698,17.12175 -15.4937,140.41273 -23.242,210.61759" />
  </g>
</svg>
