<?xml version="1.0" encoding="UTF-8" standalone="no"?>
<!-- Created with Inkscape (http://www.inkscape.org/) -->

<svg
   version="1.1"
   id="svg2"
   width="1893"
   height="1024"
   viewBox="0 0 1893 1024"
   sodipodi:docname="frame_0083.svg"
   inkscape:version="1.1.2 (0a00cf5339, 2022-02-04)"
   xmlns:inkscape="http://www.inkscape.org/namespaces/inkscape"
   xmlns:sodipodi="http://sodipodi.sourceforge.net/DTD/sodipodi-0.dtd"
   xmlns:xlink="http://www.w3.org/1999/xlink"
   xmlns="http://www.w3.org/2000/svg"
   xmlns:svg="http://www.w3.org/2000/svg">
  <defs
     id="defs6">
    <inkscape:path-effect
       effect="spiro"
       id="path-effect866"
       is_visible="true"
       lpeversion="1" />
    <inkscape:path-effect
       effect="spiro"
       id="path-effect862"
       is_visible="true"
       lpeversion="1" />
  </defs>
  <sodipodi:namedview
     id="namedview4"
     pagecolor="#ffffff"
     bordercolor="#666666"
     borderopacity="1.0"
     inkscape:pageshadow="2"
     inkscape:pageopacity="0.0"
     inkscape:pagecheckerboard="0"
     showgrid="false"
     inkscape:zoom="0.6703645"
     inkscape:cx="1339.5697"
     inkscape:cy="925.61584"
     inkscape:window-width="1850"
     inkscape:window-height="1016"
     inkscape:window-x="70"
     inkscape:window-y="27"
     inkscape:window-maximized="1"
     inkscape:current-layer="g8" />
  <g
     inkscape:groupmode="layer"
     inkscape:label="Image"
     id="g8">
    
    <path
       style="font-variation-settings:normal;opacity:1;vector-effect:none;fill:none;fill-opacity:1;stroke:#c86487;stroke-width:1px;stroke-linecap:butt;stroke-linejoin:miter;stroke-miterlimit:4;stroke-dasharray:none;stroke-dashoffset:0;stroke-opacity:1;-inkscape-stroke:none;stop-color:#000000;stop-opacity:1"
       d="m 1161.5439,862.47886 -525.75711,0.22995"
       id="path860"
       inkscape:path-effect="#path-effect862"
       inkscape:original-d="m 1161.5439,862.47886 c -175.25134,0.0776 -350.50372,0.1543 -525.75711,0.22995" />
    <path
       style="font-variation-settings:normal;opacity:1;vector-effect:none;fill:none;fill-opacity:1;stroke:#c86487;stroke-width:1px;stroke-linecap:butt;stroke-linejoin:miter;stroke-miterlimit:4;stroke-dasharray:none;stroke-dashoffset:0;stroke-opacity:1;-inkscape-stroke:none;stop-color:#000000;stop-opacity:1"
       d="m 635.78679,862.70881 c -13.78507,-39.7988 -23.2332,-81.09813 -28.12335,-122.93184 -7.93191,-67.855 -3.8235,-136.91483 9.83299,-203.85299 7.74719,-37.97334 18.57265,-75.38429 33.5783,-111.11697 12.86571,-30.63689 28.76511,-59.96334 40.78744,-90.9409 10.61567,-27.35306 18.14663,-55.83777 29.08622,-83.0629 5.24655,-13.05697 11.38688,-26.40224 10.73175,-40.45861 -0.28447,-6.1036 -1.85432,-12.06161 -3.0915,-18.04527 -1.23719,-5.98367 -2.14729,-12.16587 -1.10231,-18.18608 0.87649,-5.04954 3.11476,-9.8052 6.09363,-13.97562 2.97887,-4.17043 6.68599,-7.7797 10.66185,-11.01368 14.88789,-12.10986 33.45834,-18.97226 52.28157,-22.71174 4.87759,-0.969 9.82009,-1.74446 14.79296,-1.72624 4.97288,0.0182 10.00067,0.85571 14.49436,2.98564 7.50585,3.55764 12.89774,10.35038 17.77261,17.07572 9.36784,12.9238 17.87783,26.46987 25.44314,40.52502 3.38531,6.28936 6.59171,12.69732 10.59202,18.61457 4.00031,5.91725 8.8634,11.38037 14.93715,15.13881 0.72591,0.44919 1.47077,0.87469 2.26511,1.18732 0.79433,0.31263 1.64274,0.51067 2.49616,0.49085 1.62063,-0.0376 3.16082,-0.87556 4.25317,-2.07332 1.09235,-1.19775 1.76875,-2.72835 2.15884,-4.30178 0.82962,-3.34622 0.4116,-6.93249 -0.83491,-10.14677 -1.24652,-3.21428 -3.28837,-6.07675 -5.66516,-8.574 -4.75359,-4.99451 -10.79014,-8.55303 -16.08438,-12.97035 -13.09843,-10.92886 -21.12603,-26.58815 -29.24109,-41.59331 -3.56171,-6.58578 -7.24897,-13.24195 -8.86939,-20.55171 -1.10436,-4.98178 -1.22559,-10.18273 -2.82756,-15.02746 -1.10904,-3.35399 -3.00996,-6.569537 -5.93867,-8.54485 -2.57911,-1.73952 -5.72671,-2.383621 -8.79942,-2.869643 -3.07271,-0.486021 -6.22007,-0.867628 -9.03904,-2.183357 -2.98793,-1.394592 -5.4892,-3.850091 -6.8319,-6.8617 -1.3427,-3.011608 -1.48872,-6.559946 -0.28917,-9.631383 1.34386,-3.440942 4.25805,-6.106197 7.56396,-7.754519 3.30591,-1.648323 6.99547,-2.371321 10.66516,-2.794913 6.89019,-0.795334 14.13771,-0.534085 20.36874,2.512473 4.60726,2.252641 8.41768,5.925917 11.3881,10.106565 2.97042,4.180647 5.14824,8.870267 7.05871,13.629609 2.09204,5.211677 3.91103,10.753148 3.33954,16.339888 -0.35458,3.46628 -1.61839,6.78638 -2.02803,10.24658 -0.20483,1.7301 -0.19095,3.50509 0.2552,5.18918 0.44615,1.68409 1.34798,3.27694 2.70429,4.37039 1.74234,1.40467 4.12282,1.87867 6.33751,1.55619 2.2147,-0.32248 4.27265,-1.38218 6.04448,-2.74947 3.54366,-2.73457 5.99618,-6.63584 9.26784,-9.69062 4.4304,-4.13672 10.15118,-6.54475 15.65989,-9.07359 12.09001,-5.55007 23.72696,-12.05089 35.84339,-17.543042 18.52574,-8.397371 38.06794,-14.390048 56.59331,-22.788242 12.9331,-5.863028 25.3528,-12.897505 36.8404,-21.244641 9.3036,-6.760188 17.9701,-14.359116 27.2018,-21.217207 9.2317,-6.858091 19.1549,-13.029491 30.127,-16.4747379 2.8594,-0.8978541 5.8087,-1.6104649 8.8054,-1.6513223 2.9968,-0.040857 6.0634,0.6291211 8.5474,2.3060351 2.338,1.5783231 4.0423,3.9636881 5.2152,6.5291271 1.1729,2.565439 1.8531,5.324412 2.4851,8.073549 2.5353,11.027661 4.4023,22.206967 7.2063,33.169377 3.2565,12.731426 7.8149,25.225454 14.6956,36.421431 8.1026,13.184153 19.3377,24.449773 25.7756,38.521973 8.0774,17.65598 7.79,37.79426 10.1382,57.06768 2.4529,20.1327 7.9038,39.75811 12.9765,59.39505 5.7338,22.19596 11.0124,44.5489 14.262,67.24201 3.3729,23.55439 4.5442,47.3592 6.4456,71.07777 1.6403,20.46151 3.8278,40.91378 3.8771,61.44088 0.04,16.55373 -1.3079,33.19222 0.8092,49.61006 0.4341,3.36652 1.0144,6.73128 0.9923,10.1256 -0.022,3.39433 -0.6908,6.87603 -2.5595,9.70976 -1.3967,2.11805 -3.3957,3.77546 -5.5231,5.15783 -2.1275,1.38238 -4.404,2.51812 -6.5888,3.80798 -8.2701,4.88258 -15.1674,11.99015 -20.074,20.24598 -3.5473,5.96857 -6.0652,12.50252 -8.0042,19.1694 -8.5653,29.44997 -5.8935,60.80522 -4.4531,91.44163 3.2276,68.65138 -0.1342,137.61103 -10.0244,205.6229"
       id="path864"
       inkscape:path-effect="#path-effect866"
       inkscape:original-d="m 635.78679,862.70881 c -9.37345,-40.97628 -18.7479,-81.95356 -28.12335,-122.93184 -9.37545,-40.97828 6.55633,-135.901 9.83299,-203.85299 3.27666,-67.952 22.38653,-74.07698 33.5783,-111.11697 11.19177,-37.03999 27.19263,-60.62627 40.78744,-90.9409 13.59481,-30.31464 19.39181,-55.37427 29.08622,-83.0629 9.6944,-27.68863 7.1555,-26.97141 10.73175,-40.45861 3.57626,-13.4872 -2.79487,-24.15323 -4.19381,-36.23135 -1.39894,-12.07811 11.17132,-16.65853 16.75548,-24.9893 5.58417,-8.33077 34.85538,-15.14016 52.28157,-22.71174 17.42619,-7.57158 19.52588,0.8406 29.28732,1.2594 9.76144,0.41881 11.8494,11.38481 17.77261,17.07572 5.9232,5.6909 16.96309,27.01768 25.44314,40.52502 8.48005,13.50734 17.02045,22.50325 25.52917,33.75338 8.50872,11.25012 3.17518,1.11978 4.76127,1.67817 1.58609,0.55839 4.27567,-4.24907 6.41201,-6.3751 2.13634,-2.12603 -15.0553,-21.12641 -22.58445,-31.69112 -7.52915,-10.56471 -19.49306,-27.72787 -29.24109,-41.59331 -9.74803,-13.86543 -5.91193,-13.70014 -8.86939,-20.55171 -2.95746,-6.85157 -1.88404,-10.01731 -2.82756,-15.02746 -0.94351,-5.01015 -3.95812,-5.695566 -5.93867,-8.54485 -1.98056,-2.849284 -11.89131,-3.367667 -17.83846,-5.053 -5.94715,-1.685334 -4.74638,-10.994389 -7.12107,-16.493083 -2.37469,-5.498695 12.15375,-7.031955 18.22912,-10.549432 6.07537,-3.517477 13.58016,1.675982 20.36874,2.512473 6.78858,0.836491 12.29887,15.825116 18.44681,23.736174 6.14794,7.911058 2.22736,10.894258 3.33954,16.339888 1.11218,5.44563 0.62198,13.2051 0.93146,19.80615 0.30949,6.60104 14.43422,-7.25494 21.64983,-10.8839 7.21561,-3.62897 10.44093,-6.04806 15.65989,-9.07359 5.21896,-3.02553 23.89659,-11.694362 35.84339,-17.543042 11.9468,-5.84868 37.72985,-15.191161 56.59331,-22.788242 18.8634,-7.59708 24.5612,-14.162094 36.8404,-21.244641 12.2791,-7.082547 38.2202,-25.126963 57.3288,-37.6919449 19.1086,-12.5649815 11.5695,0.4374752 17.3528,0.6547128 5.7833,0.2172376 5.1346,9.7361181 7.7003,14.6026761 2.5658,4.866559 4.8052,22.113918 7.2063,33.169377 2.4011,11.055459 9.7981,24.281954 14.6956,36.421431 4.8976,12.139473 17.1848,25.682313 25.7756,38.521973 8.5909,12.83965 6.7598,38.04612 10.1382,57.06768 3.3784,19.02156 8.652,39.5977 12.9765,59.39505 4.3244,19.79734 9.509,44.82901 14.262,67.24201 4.753,22.41301 4.298,47.38618 6.4456,71.07777 2.1475,23.69158 2.5857,40.96159 3.8771,61.44088 1.2914,20.4793 0.5405,33.07437 0.8092,49.61006 0.2687,16.53569 -1.0438,13.22457 -1.5672,19.83536 -0.5234,6.61079 -8.0736,5.97821 -12.1119,8.96581 -4.0383,2.9876 -13.3817,13.49832 -20.074,20.24598 -6.6924,6.74767 -5.3351,12.7806 -8.0042,19.1694 -2.669,6.38879 -2.9677,60.96208 -4.4531,91.44163 -1.4854,30.47954 -6.6819,137.08293 -10.0244,205.6229" />
  </g>
</svg>
