<?xml version="1.0" encoding="UTF-8" standalone="no"?>
<!-- Created with Inkscape (http://www.inkscape.org/) -->

<svg
   version="1.1"
   id="svg2"
   width="1893"
   height="1024"
   viewBox="0 0 1893 1024"
   sodipodi:docname="frame_0001.svg"
   inkscape:version="1.1.2 (0a00cf5339, 2022-02-04)"
   xmlns:inkscape="http://www.inkscape.org/namespaces/inkscape"
   xmlns:sodipodi="http://sodipodi.sourceforge.net/DTD/sodipodi-0.dtd"
   xmlns:xlink="http://www.w3.org/1999/xlink"
   xmlns="http://www.w3.org/2000/svg"
   xmlns:svg="http://www.w3.org/2000/svg">
  <sodipodi:namedview
     id="namedview8"
     pagecolor="#ffffff"
     bordercolor="#666666"
     borderopacity="1.0"
     inkscape:pageshadow="2"
     inkscape:pageopacity="0.0"
     inkscape:pagecheckerboard="0"
     showgrid="false"
     inkscape:zoom="0.47065745"
     inkscape:cx="830.75282"
     inkscape:cy="417.5011"
     inkscape:window-width="1850"
     inkscape:window-height="1016"
     inkscape:window-x="70"
     inkscape:window-y="27"
     inkscape:window-maximized="1"
     inkscape:current-layer="svg2" />
  <defs
     id="defs6" />
  <g
     id="g8">
    
    <path
       style="fill:none;stroke:#c86487;stroke-width:1px;stroke-linecap:butt;stroke-linejoin:miter;stroke-opacity:1"
       d="M 1160.5008,865.06765 635.41113,864.39513"
       id="path860" />
    <path
       style="fill:none;stroke:#c86487;stroke-width:1px;stroke-linecap:butt;stroke-linejoin:miter;stroke-opacity:1"
       d="m 635.41113,864.39513 c -2.49211,-78.25362 -11.92968,-156.28478 -28.16549,-232.87615 -5.79328,-27.32945 -12.48042,-54.71326 -13.08899,-82.64336 -0.68114,-31.26022 6.31608,-62.3004 16.80864,-91.75497 11.81663,-33.17147 28.08339,-64.75163 37.73006,-98.61785 3.91346,-13.73884 6.71668,-27.78907 11.06645,-41.39607 3.63216,-11.36218 8.36418,-22.43411 14.87189,-32.43118 4.4568,-6.84649 9.83545,-13.39112 11.82136,-21.31537 1.71097,-6.82715 0.7015,-14.11178 -1.64504,-20.74737 -2.34654,-6.6356 -5.9731,-12.73241 -9.61691,-18.75404 -1.93334,-3.19497 -3.89004,-6.40686 -5.19784,-9.90477 -1.3078,-3.4979 -1.94043,-7.34231 -1.14046,-10.99001 0.81934,-3.73603 3.07969,-7.01528 5.73075,-9.77229 2.65106,-2.75701 5.71466,-5.07821 8.57236,-7.62041 7.04269,-6.26516 12.79342,-13.83296 19.40862,-20.54794 7.10924,-7.21647 15.20378,-13.42801 23.8174,-18.75946 4.77999,-2.9586 9.77556,-5.6727 15.1782,-7.22612 5.40264,-1.55342 11.27552,-1.88866 16.61068,-0.1173 6.16308,2.04624 11.08435,6.66612 15.64455,11.28945 10.30764,10.45032 19.87711,21.59807 29.55845,32.63112 11.29423,12.87113 22.76991,25.61677 35.25855,37.33255 1.16954,1.09716 2.40247,2.21752 3.93401,2.69289 1.34443,0.41729 2.83764,0.28662 4.12104,-0.29175 1.2834,-0.57836 2.35531,-1.58892 3.07369,-2.79952 0.66106,-1.11401 1.0283,-2.3854 1.19123,-3.6705 0.16293,-1.28511 0.12728,-2.58785 0.0241,-3.87913 -0.94348,-11.81241 -7.47536,-22.5574 -15.58737,-31.1956 -8.11201,-8.63821 -17.83658,-15.56468 -26.92563,-23.16812 -18.60864,-15.56705 -34.58815,-34.01007 -49.89631,-52.83225 -1.35875,-1.67065 -2.72436,-3.36262 -3.68012,-5.292342 -0.95575,-1.929722 -1.48081,-4.143549 -1.05716,-6.254902 0.44541,-2.219809 1.91254,-4.144898 3.73487,-5.488427 1.82233,-1.34353 3.98284,-2.156657 6.16873,-2.746441 4.26987,-1.152074 8.92205,-1.483614 13.04263,0.122584 3.56651,1.390223 6.46033,4.121401 8.8236,7.132664 2.36327,3.011262 4.28149,6.344839 6.52043,9.449654 5.54038,7.68302 25.40145,12.83304 19.71169,20.4061 -9.9579,13.25394 -2.01272,13.62417 -0.39427,16.45758 19.26422,-4.51063 12.19029,-1.28573 26.51022,-5.74294 3.33826,-0.97078 6.44246,-2.63763 9.30677,-4.60795 5.72862,-3.94064 10.53537,-9.08337 16.14482,-13.19187 8.8068,-6.45031 19.27763,-10.14042 29.54622,-13.84478 11.51223,-4.152998 22.99213,-8.437748 34.10567,-13.562988 16.66808,-7.686829 32.4303,-17.228527 47.56114,-27.619392 23.56884,-16.185531 46.38124,-34.82423 73.82524,-42.842093 1.131,-0.330421 2.2749,-0.643267 3.4482,-0.751453 1.1733,-0.108186 2.387,-0.0028 3.4639,0.475396 0.8652,0.384182 1.618,0.999616 2.2196,1.730544 0.6016,0.730928 1.0559,1.57549 1.3985,2.458025 0.685,1.76507 0.9256,3.664527 1.2474,5.530319 2.6055,15.107752 10.6852,28.602819 17.9354,42.110889 9.386,17.487366 17.599,35.593083 24.8778,54.057203 16.5498,41.98197 28.2372,85.70361 39.082,129.5074 7.4263,29.99604 14.4873,60.14983 18.4675,90.79409 3.6031,27.74071 4.6726,55.81817 9.699,83.33661 2.1213,11.61393 4.947,23.12626 6.0748,34.87834 1.1278,11.75209 0.4761,23.93639 -4.1271,34.80809 -3.8402,9.06956 -10.2274,16.79632 -15.1219,25.34311 -9.577,16.72326 -13.2306,36.29616 -13.6254,55.56349 -0.3948,19.26732 2.3052,38.44458 4.6677,57.5706 9.4298,76.34207 13.5609,153.33815 12.3538,230.25093"
       id="path897"
       sodipodi:nodetypes="csssssssssssssssssssssssscsssssssssssccsssssssssssssssssssssc" />
  </g>
</svg>
