<?xml version="1.0" encoding="UTF-8" standalone="no"?>
<!-- Created with Inkscape (http://www.inkscape.org/) -->

<svg
   version="1.1"
   id="svg2"
   width="1893"
   height="1024"
   viewBox="0 0 1893 1024"
   xmlns:xlink="http://www.w3.org/1999/xlink"
   xmlns="http://www.w3.org/2000/svg"
   xmlns:svg="http://www.w3.org/2000/svg">
  <defs
     id="defs6" />
  <g
     id="g8">
    
    <path
       style="font-variation-settings:normal;opacity:1;vector-effect:none;fill:none;fill-opacity:1;stroke:#c86487;stroke-width:1px;stroke-linecap:butt;stroke-linejoin:miter;stroke-miterlimit:4;stroke-dasharray:none;stroke-dashoffset:0;stroke-opacity:1;-inkscape-stroke:none;stop-color:#000000;stop-opacity:1"
       d="m 1161.0975,861.9718 -525.80467,0.59641"
       id="path860" />
    <path
       style="font-variation-settings:normal;opacity:1;vector-effect:none;fill:none;fill-opacity:1;stroke:#c86487;stroke-width:1px;stroke-linecap:butt;stroke-linejoin:miter;stroke-miterlimit:4;stroke-dasharray:none;stroke-dashoffset:0;stroke-opacity:1;-inkscape-stroke:none;stop-color:#000000;stop-opacity:1"
       d="m 635.29283,862.56821 c -30.32807,-43.10661 -49.55608,-93.95475 -55.339,-146.343 -3.87899,-35.14031 -1.79316,-70.77828 4.04229,-105.64712 6.40552,-38.27519 17.27469,-75.63383 26.9986,-113.20331 11.79245,-45.56152 22.03853,-91.88284 41.39666,-134.78012 16.53315,-36.63718 39.90748,-71.54114 44.11146,-111.51556 0.83163,-7.90773 0.86982,-16.01704 -1.25722,-23.6786 -2.44794,-8.81744 -7.66383,-16.70689 -9.80397,-25.60405 -0.83708,-3.47997 -1.18649,-7.13134 -0.49225,-10.6426 1.12456,-5.6877 4.89299,-10.54074 9.28412,-14.32658 4.39113,-3.78584 9.45193,-6.69899 14.1835,-10.04963 12.97107,-9.18541 23.5589,-21.71991 37.57363,-29.21709 4.88443,-2.61292 10.16218,-4.57827 15.65344,-5.30697 5.49127,-0.7287 11.20972,-0.18123 16.28892,2.02936 5.83362,2.53894 10.52474,7.08871 14.9491,11.66062 10.5334,10.8847 20.35476,22.44548 29.6578,34.39883 7.20524,9.25791 14.1039,18.75582 21.51004,27.85381 2.941,3.61284 5.96145,7.16182 9.09419,10.60972 1.13902,1.25361 2.30062,2.50091 3.6519,3.52216 1.35128,1.02125 2.9133,1.81423 4.59142,2.04408 1.28699,0.17628 2.65061,0.002 3.76383,-0.66784 0.72403,-0.4354 1.32246,-1.06808 1.75155,-1.79587 0.4291,-0.72778 0.69144,-1.54864 0.80388,-2.38599 0.26138,-1.94645 -0.28428,-3.93113 -1.17373,-5.68209 -0.88946,-1.75096 -2.11088,-3.30736 -3.30071,-4.86983 -13.03937,-17.12314 -23.19467,-36.39856 -37.28995,-52.66356 -16.47665,-19.01294 -38.19918,-33.77258 -50.67983,-55.6176 -0.75756,-1.325959 -1.48245,-2.68447 -1.92688,-4.145478 -0.91484,-3.007449 -0.56419,-6.343579 0.77949,-9.185444 1.34369,-2.841865 3.64037,-5.190192 6.35482,-6.775585 3.92394,-2.291807 8.68127,-2.994643 13.17027,-2.288528 4.48899,0.706115 8.70864,2.76681 12.26767,5.592229 3.83389,3.043627 6.9182,6.94311 9.50789,11.097134 4.70234,7.542852 7.89541,16.036142 13.39324,23.020452 2.74891,3.49215 6.09164,6.58711 10.06251,8.58305 3.97088,1.99595 8.60878,2.83242 12.938,1.82769 2.89933,-0.67288 5.56075,-2.13116 8.01491,-3.8152 2.45415,-1.68404 4.73698,-3.60498 7.1577,-5.33675 14.58237,-10.43214 33.02885,-13.3432 50.00289,-19.11878 18.249,-6.209393 35.08035,-15.884137 52.05813,-25.013063 18.99721,-10.214766 38.77206,-20.148074 53.30486,-36.086466 4.2854,-4.699852 8.0565,-9.866972 12.5762,-14.341936 4.5197,-4.474964 9.9718,-8.310311 16.2175,-9.511974 2.7883,-0.536456 5.6619,-0.532625 8.4826,-0.2076 7.3749,0.849783 14.6594,4.073494 19.4135,9.77519 4.5782,5.490679 6.4445,12.671041 8.4536,19.531829 10.6789,36.466235 28.7131,70.32215 41.668,106.04321 14.4356,39.80379 22.4508,81.58529 31.2322,123.00527 15.7964,74.50791 34.3527,150.57446 23.6481,225.98247 -0.7341,5.17102 -1.6182,10.3713 -3.5713,15.21522 -4.4191,10.95987 -13.8946,19.16521 -19.0216,29.81234 -4.9934,10.36964 -5.508,22.24466 -6.0503,33.74115 -0.9965,21.12395 -2.3878,42.2285 -3.2773,63.35723 -3.0978,73.58803 -0.091,147.43211 8.9783,220.52476"
       id="path897" />
  </g>
</svg>
