<?xml version="1.0" encoding="UTF-8" standalone="no"?>
<!-- Created with Inkscape (http://www.inkscape.org/) -->

<svg
   version="1.1"
   id="svg2"
   width="1893"
   height="1024"
   viewBox="0 0 1893 1024"
   sodipodi:docname="frame_0061.svg"
   inkscape:version="1.1.2 (0a00cf5339, 2022-02-04)"
   xmlns:inkscape="http://www.inkscape.org/namespaces/inkscape"
   xmlns:sodipodi="http://sodipodi.sourceforge.net/DTD/sodipodi-0.dtd"
   xmlns:xlink="http://www.w3.org/1999/xlink"
   xmlns="http://www.w3.org/2000/svg"
   xmlns:svg="http://www.w3.org/2000/svg">
  <defs
     id="defs6">
    <inkscape:path-effect
       effect="spiro"
       id="path-effect899"
       is_visible="true"
       lpeversion="1" />
    <inkscape:path-effect
       effect="spiro"
       id="path-effect862"
       is_visible="true"
       lpeversion="1" />
  </defs>
  <sodipodi:namedview
     id="namedview4"
     pagecolor="#ffffff"
     bordercolor="#666666"
     borderopacity="1.0"
     inkscape:pageshadow="2"
     inkscape:pageopacity="0.0"
     inkscape:pagecheckerboard="0"
     showgrid="false"
     inkscape:zoom="0.6703645"
     inkscape:cx="824.92435"
     inkscape:cy="525.83333"
     inkscape:window-width="1850"
     inkscape:window-height="1016"
     inkscape:window-x="70"
     inkscape:window-y="27"
     inkscape:window-maximized="1"
     inkscape:current-layer="g8" />
  <g
     inkscape:groupmode="layer"
     inkscape:label="Image"
     id="g8">
    
    <path
       style="font-variation-settings:normal;opacity:1;vector-effect:none;fill:none;fill-opacity:1;stroke:#c86487;stroke-width:1px;stroke-linecap:butt;stroke-linejoin:miter;stroke-miterlimit:4;stroke-dasharray:none;stroke-dashoffset:0;stroke-opacity:1;-inkscape-stroke:none;stop-color:#000000;stop-opacity:1"
       d="m 1160.7988,862.59037 -525.41395,-0.0743"
       id="path860"
       inkscape:path-effect="#path-effect862"
       inkscape:original-d="m 1160.7988,862.59037 -525.41395,-0.0743" />
    <path
       style="font-variation-settings:normal;opacity:1;vector-effect:none;fill:none;fill-opacity:1;stroke:#c86487;stroke-width:1px;stroke-linecap:butt;stroke-linejoin:miter;stroke-miterlimit:4;stroke-dasharray:none;stroke-dashoffset:0;stroke-opacity:1;-inkscape-stroke:none;stop-color:#000000;stop-opacity:1"
       d="M 635.38485,862.51607 C 589.38884,819.66295 566.8725,753.01653 577.45493,691.04852 c 9.675,-56.65436 44.49264,-106.84575 52.70424,-163.73065 4.18197,-28.97013 1.32054,-58.96057 9.02019,-87.20013 3.87948,-14.22854 10.35769,-27.63177 17.79023,-40.36986 8.66527,-14.85077 18.75215,-29.088 24.43214,-45.31668 3.80958,-10.8846 5.52819,-22.37924 8.62374,-33.48802 6.18356,-22.19049 17.88474,-42.98259 20.27194,-65.89449 1.21199,-11.6324 -0.0406,-23.35937 -0.41014,-35.0489 -0.36955,-11.68953 0.21428,-23.71789 4.83844,-34.46027 4.42529,-10.28037 12.2202,-18.65472 19.23205,-27.37843 5.9071,-7.34925 11.36208,-15.10122 17.99048,-21.80716 6.6284,-6.70593 14.63974,-12.41222 23.82787,-14.52968 7.80602,-1.79894 16.12122,-0.88482 23.59344,2.00241 5.04141,1.94798 9.71221,4.75909 14.10378,7.90941 11.41596,8.1893 21.05058,18.71909 28.92265,30.35606 4.48514,6.6302 8.41742,13.62889 13.07832,20.13674 4.6609,6.50785 10.14926,12.5939 17.02741,16.68866 2.3412,1.39378 4.83202,2.5505 7.02897,4.16209 1.06031,0.7778 2.04994,1.66003 3.18829,2.31835 0.56917,0.32916 1.17521,0.60095 1.81313,0.76019 0.63793,0.15923 1.30934,0.20372 1.95557,0.0825 0.83147,-0.15593 1.60368,-0.58703 2.19876,-1.18831 0.59508,-0.60128 1.01473,-1.36793 1.23584,-2.18449 0.44223,-1.63311 0.0825,-3.41364 -0.72686,-4.89942 -0.80937,-1.48578 -2.03703,-2.70528 -3.36689,-3.75127 -1.32987,-1.04599 -2.77321,-1.93747 -4.15152,-2.91874 -5.9143,-4.2106 -10.52043,-9.98903 -14.70773,-15.91984 -4.18731,-5.93082 -8.05876,-12.11851 -12.88734,-17.54003 -4.15259,-4.66251 -8.97823,-8.71715 -12.85248,-13.61339 -1.93713,-2.44811 -3.63266,-5.11053 -4.78666,-8.01122 -1.154,-2.9007 -1.75429,-6.05143 -1.48443,-9.16156 0.19354,-2.23049 0.8253,-4.39548 1.32621,-6.5776 0.50091,-2.18211 0.87385,-4.44024 0.54055,-6.65416 -0.33025,-2.1937 -1.35525,-4.25715 -2.79283,-5.94674 -1.43759,-1.68959 -3.27652,-3.01448 -5.27228,-3.98314 -3.29667,-1.60007 -6.96658,-2.2323 -10.58602,-2.80498 -3.61943,-0.57269 -7.29204,-1.11657 -10.65904,-2.562809 -3.60076,-1.546649 -6.78612,-4.156823 -8.75452,-7.54548 -1.9684,-3.388657 -2.65142,-7.563626 -1.58074,-11.333405 0.71612,-2.521411 2.18824,-4.808916 4.11962,-6.58095 1.93139,-1.772034 4.31146,-3.033456 6.83672,-3.735858 5.05054,-1.404804 10.55284,-0.550991 15.31957,1.630669 5.23527,2.396104 9.63173,6.27536 13.82789,10.217649 4.19615,3.942288 8.32625,8.042323 13.25159,11.023999 2.41971,1.464829 5.01479,2.648493 7.30437,4.309366 1.1448,0.830436 2.21111,1.781376 3.08197,2.895727 0.87087,1.114352 1.54319,2.397642 1.85824,3.776382 0.45383,1.98607 0.14994,4.08094 -0.48113,6.018 -0.63107,1.93706 -1.57838,3.75257 -2.44794,5.59493 -0.94855,2.00973 -1.81683,4.09025 -2.13031,6.29037 -0.31348,2.20011 -0.0256,4.55404 1.19354,6.41212 0.79608,1.21328 1.96033,2.16765 3.27166,2.7891 1.31133,0.62145 2.76546,0.91714 4.21632,0.94483 2.90174,0.0554 5.72823,-0.93815 8.33447,-2.21511 7.12943,-3.49317 12.97533,-9.07881 19.39053,-13.75601 15.078,-10.99308 33.15391,-16.876287 50.36657,-24.081705 28.04627,-11.740488 54.40989,-27.323037 82.82213,-38.147867 13.8729,-5.285457 28.2102,-9.427 41.6262,-15.783431 13.416,-6.35643 26.1204,-15.236232 34.0078,-27.8132442 0.4763,-0.7594117 0.9391,-1.5374276 1.5593,-2.1846333 0.6202,-0.6472058 1.4254,-1.1622265 2.3176,-1.248712 0.8026,-0.077804 1.6182,0.203336 2.2595,0.6922018 0.6413,0.4888658 1.1167,1.1732991 1.4371,1.9133322 0.6408,1.4800665 0.6765,3.1381395 0.834,4.7432535 0.8729,8.895559 5.6601,16.846097 10.0131,24.652774 18.3307,32.874305 30.7786,68.745221 40.2377,105.176811 10.3773,39.96803 17.2456,80.74588 24.8149,121.33944 9.8137,52.62994 20.8724,105.54206 19.8924,159.07017 -0.5401,29.50152 -4.6665,59.69863 3.5282,88.04432 0.5172,1.78896 1.0881,3.65331 0.7344,5.48164 -0.3056,1.57969 -1.2842,2.96299 -2.4661,4.05473 -1.1819,1.09174 -2.5694,1.93085 -3.9246,2.79815 -6.176,3.95249 -11.922,8.68868 -16.4046,14.49139 -5.236,6.77799 -8.6059,14.81467 -11.1987,22.97765 -9.3461,29.42428 -9.1563,60.89573 -9.2593,91.7685 -0.2331,69.83793 -2.4094,139.66937 -6.5256,209.38628"
       id="path897"
       inkscape:path-effect="#path-effect899"
       inkscape:original-d="m 635.38485,862.51607 c -19.30897,-57.15485 -38.61895,-114.3107 -57.92992,-171.46755 -19.31097,-57.15685 35.13716,-109.15277 52.70424,-163.73065 17.56709,-54.57789 6.01446,-58.13242 9.02019,-87.20013 3.00573,-29.06771 11.86115,-26.91224 17.79023,-40.36986 5.92907,-13.45762 16.28909,-30.21012 24.43214,-45.31668 8.14304,-15.10656 5.75016,-22.32435 8.62374,-33.48802 2.87359,-11.16368 13.51563,-43.92866 20.27194,-65.89449 6.75632,-21.96584 2.9532,-46.33845 4.4283,-69.50917 1.4751,-23.17072 12.82237,-18.25128 19.23205,-27.37843 6.40969,-9.12714 27.8799,-24.22356 41.81835,-36.33684 13.93844,-12.11328 15.72996,1.33594 23.59344,2.00241 7.86348,0.66647 9.40352,5.27394 14.10378,7.90941 4.70026,2.63547 19.28277,20.23838 28.92265,30.35606 9.63989,10.11769 20.07148,24.55127 30.10573,36.8254 10.03424,12.27413 4.68698,2.77573 7.02897,4.16209 2.342,1.38637 4.63899,2.10838 6.95699,3.16107 2.31799,1.05268 -3.20611,-9.96049 -4.81067,-14.94223 -1.60456,-4.98175 -18.39572,-22.30558 -27.59507,-33.45987 -9.19936,-11.15429 -12.74805,-20.52312 -19.12357,-30.78617 -6.37553,-10.26306 1.2455,-8.82018 1.86676,-13.23176 0.62125,-4.41159 -5.37574,-6.61892 -8.06511,-9.92988 -2.68936,-3.31096 -14.16237,-3.57753 -21.24506,-5.367789 -7.08269,-1.790262 -6.88918,-12.584924 -10.33526,-18.878885 -3.44609,-6.293962 17.51827,-5.78976 26.27591,-8.686139 8.75763,-2.89638 18.05398,14.162098 27.07948,21.241648 9.02549,7.079549 8.16405,7.321986 12.24458,10.981475 4.08053,3.6595 -1.95171,7.74296 -2.92907,11.61293 -0.97735,3.86998 -0.62351,8.46933 -0.93677,12.70249 -0.31325,4.23317 10.5493,1.01355 15.82245,1.51882 5.27315,0.50527 12.92802,-9.16967 19.39053,-13.75601 6.4625,-4.58634 33.57871,-16.053471 50.36657,-24.081705 16.78785,-8.028234 55.21576,-25.430911 82.82213,-38.147867 27.6064,-12.716956 50.4237,-29.06345 75.634,-43.5966752 25.2103,-14.533225 2.5856,-2.2878969 3.8769,-3.4333453 1.2913,-1.1454485 3.0214,4.9001915 4.5306,7.3487875 1.5092,2.448596 6.6764,16.436183 10.0131,24.652774 3.3367,8.216591 26.8262,70.118871 40.2377,105.176811 13.4116,35.05793 16.5443,80.89396 24.8149,121.33944 8.2707,40.44548 13.2626,106.04778 19.8924,159.07017 6.6298,53.02239 2.3531,58.69721 3.5282,88.04432 1.175,29.34711 0.4906,3.65543 0.7344,5.48164 0.2438,1.82622 -4.2594,4.56959 -6.3907,6.85288 -2.1312,2.28329 -10.9354,9.66193 -16.4046,14.49139 -5.4692,4.82947 -7.4648,15.31943 -11.1987,22.97765 -3.7339,7.65821 -6.1719,61.18 -9.2593,91.7685 -3.0874,30.58851 -4.3494,139.59185 -6.5256,209.38628" />
  </g>
</svg>
