<?xml version="1.0" encoding="UTF-8" standalone="no"?>
<!-- Created with Inkscape (http://www.inkscape.org/) -->

<svg
   version="1.1"
   id="svg2"
   width="1893"
   height="1024"
   viewBox="0 0 1893 1024"
   sodipodi:docname="frame_0008.svg"
   inkscape:version="1.1.2 (0a00cf5339, 2022-02-04)"
   xmlns:inkscape="http://www.inkscape.org/namespaces/inkscape"
   xmlns:sodipodi="http://sodipodi.sourceforge.net/DTD/sodipodi-0.dtd"
   xmlns:xlink="http://www.w3.org/1999/xlink"
   xmlns="http://www.w3.org/2000/svg"
   xmlns:svg="http://www.w3.org/2000/svg">
  <sodipodi:namedview
     id="namedview8"
     pagecolor="#ffffff"
     bordercolor="#666666"
     borderopacity="1.0"
     inkscape:pageshadow="2"
     inkscape:pageopacity="0.0"
     inkscape:pagecheckerboard="0"
     showgrid="false"
     inkscape:zoom="0.66561014"
     inkscape:cx="787.24762"
     inkscape:cy="340.28929"
     inkscape:window-width="1850"
     inkscape:window-height="1016"
     inkscape:window-x="70"
     inkscape:window-y="27"
     inkscape:window-maximized="1"
     inkscape:current-layer="g8" />
  <defs
     id="defs6" />
  <g
     id="g8">
    
    <path
       style="fill:none;stroke:#c86487;stroke-width:1px;stroke-linecap:butt;stroke-linejoin:miter;stroke-opacity:1"
       d="m 1085.8994,858.40754 -449.83872,4.96762"
       id="path860"
       sodipodi:nodetypes="cc" />
    <path
       style="fill:none;stroke:#c86487;stroke-width:1px;stroke-linecap:butt;stroke-linejoin:miter;stroke-opacity:1"
       d="m 636.06068,860.89135 c 4.48476,-61.02079 -53.01762,-124.61775 -51.04925,-185.77145 1.99475,-61.97335 2.83911,-124.92862 20.86357,-184.25647 11.785,-38.79053 30.70619,-75.22387 41.00374,-114.4355 4.65926,-17.74181 7.51624,-35.92504 12.37422,-53.61347 4.85797,-17.68843 11.90905,-35.16008 23.81503,-49.11458 1.81177,-2.1235 3.73339,-4.16286 5.34044,-6.44522 1.60705,-2.28236 2.90438,-4.85077 3.28422,-7.61618 0.51357,-3.73903 -0.67238,-7.47242 -1.6437,-11.11942 -1.63071,-6.12283 -2.69092,-12.39751 -4.60303,-18.43838 -1.46051,-4.61416 -3.40873,-9.06139 -4.90009,-13.66567 -1.49136,-4.60428 -2.52773,-9.44843 -2.07945,-14.26741 0.38466,-4.13499 1.85478,-8.11315 3.82916,-11.76662 1.97439,-3.65348 4.44869,-7.01048 6.97076,-10.30976 7.00659,-9.16578 14.65935,-18.17463 24.60056,-24.0292 9.21252,-5.42544 19.89455,-7.84541 29.39686,-12.74561 4.4401,-2.28969 8.63172,-5.12458 13.34325,-6.78549 2.35577,-0.83046 4.8383,-1.35796 7.33595,-1.32603 2.49766,0.0319 5.01459,0.64205 7.13985,1.95451 2.12177,1.3103 3.77489,3.2585 5.19558,5.30799 1.4207,2.04948 2.64678,4.23198 4.13482,6.23311 4.23748,5.69861 10.36244,9.64135 15.59836,14.4388 5.59084,5.12264 10.18018,11.23807 15.54778,16.59417 4.07567,4.06693 8.5814,7.67757 12.76507,11.63331 5.5582,5.25538 10.57886,11.17376 14.12575,17.95109 1.037,1.98148 1.96043,4.05406 3.3966,5.76842 0.71808,0.85718 1.56382,1.61788 2.54137,2.16084 0.97754,0.54295 2.09185,0.86194 3.20949,0.8261 0.97334,-0.0312 1.92368,-0.32797 2.8032,-0.74605 0.87952,-0.41809 1.6958,-0.95623 2.50523,-1.49769 1.84716,-1.23564 3.6761,-2.49849 5.48605,-3.78802 m 0,0 -26.34885,-41.19997 m 0,0 c -4.36689,-5.75689 -9.3251,-11.06496 -14.77134,-15.81363 -9.00774,-7.854 -19.28268,-14.13087 -28.47093,-21.77291 -9.18824,-7.64203 -17.50169,-17.07879 -20.68438,-28.59812 -1.31014,-4.741861 -1.70192,-9.811262 -0.52741,-14.588523 0.55812,-2.270135 1.48863,-4.492755 3.03138,-6.249156 0.77137,-0.8782 1.69145,-1.6314 2.72872,-2.17022 1.03727,-0.538821 2.193,-0.860027 3.36162,-0.884211 1.88647,-0.03904 3.71946,0.690685 5.31585,1.696597 1.59638,1.005913 2.99872,2.284936 4.45391,3.48607 3.89748,3.217027 8.22408,5.912731 11.90746,9.372837 7.29547,6.853246 16.50744,13.867366 24.11949,20.367176 5.51191,4.70653 1.04219,18.9229 8.28717,19.12973 9.38475,0.26792 25.13432,-12.63241 33.17907,-17.4726 8.04474,-4.84019 15.65111,-10.54627 24.34974,-14.07886 7.28174,-2.95718 15.09669,-4.294679 22.73976,-6.12554 22.6186,-5.418175 43.97003,-15.245258 64.24471,-26.642403 17.27321,-9.709908 34.09666,-20.781071 47.28216,-35.572552 3.3704,-3.780949 6.4959,-7.796938 10.1877,-11.264812 3.6917,-3.467875 8.053,-6.411377 12.996,-7.516835 3.674,-0.821652 7.5508,-0.588111 11.1658,0.463301 3.6149,1.051412 6.9726,2.903971 9.9302,5.233307 6.4113,5.049354 10.8533,12.200392 14.2585,19.616919 7.0112,15.270141 10.0851,31.991249 14.636,48.166013 7.674,27.274862 19.5991,53.125132 29.9872,79.486012 5.7163,14.50578 10.9796,29.20305 15.2603,44.19536 9.3218,32.64751 13.9149,66.42311 18.8689,100.012 7.9672,54.01872 16.9489,107.98922 20.3161,162.48839 0.4435,7.17877 0.7587,14.58617 -1.6731,21.35506 -1.5481,4.30928 -4.221,8.24603 -7.8236,11.07231 -2.9355,2.30294 -6.3984,3.82411 -9.5362,5.8429 -1.5688,1.0094 -3.0656,2.15199 -4.3186,3.53405 -1.2531,1.38205 -2.2587,3.0151 -2.7521,4.81421 -0.798,2.90999 -0.2094,6.03559 0.8396,8.86483 1.0489,2.82924 2.5442,5.47392 3.6435,8.28399 3.0318,7.75023 2.9119,16.3565 2.1233,24.64118 -1.1142,11.70506 -3.4704,23.25369 -5.0592,34.90382 -1.6691,12.23861 -2.4896,24.57679 -3.1337,36.91189 -3.8724,74.16308 -1.29,151.14049 7.5025,224.88227 h -74.1099"
       id="path916"
       sodipodi:nodetypes="csssssssssssssssssssssssssssssccccssssssssssssssssssssssssssssssssssssscc" />
  </g>
</svg>
