<?xml version="1.0" encoding="UTF-8" standalone="no"?>
<!-- Created with Inkscape (http://www.inkscape.org/) -->

<svg
   version="1.1"
   id="svg2"
   width="1893"
   height="1024"
   viewBox="0 0 1893 1024"
   sodipodi:docname="frame_0014.svg"
   inkscape:version="1.1.2 (0a00cf5339, 2022-02-04)"
   xmlns:inkscape="http://www.inkscape.org/namespaces/inkscape"
   xmlns:sodipodi="http://sodipodi.sourceforge.net/DTD/sodipodi-0.dtd"
   xmlns:xlink="http://www.w3.org/1999/xlink"
   xmlns="http://www.w3.org/2000/svg"
   xmlns:svg="http://www.w3.org/2000/svg">
  <sodipodi:namedview
     id="namedview8"
     pagecolor="#ffffff"
     bordercolor="#666666"
     borderopacity="1.0"
     inkscape:pageshadow="2"
     inkscape:pageopacity="0.0"
     inkscape:pagecheckerboard="0"
     showgrid="false"
     inkscape:zoom="5.3248811"
     inkscape:cx="830.06548"
     inkscape:cy="157.8439"
     inkscape:window-width="1850"
     inkscape:window-height="1016"
     inkscape:window-x="70"
     inkscape:window-y="27"
     inkscape:window-maximized="1"
     inkscape:current-layer="g8" />
  <defs
     id="defs6" />
  <g
     id="g8">
    
    <path
       style="fill:none;stroke:#c86487;stroke-width:1px;stroke-linecap:butt;stroke-linejoin:miter;stroke-opacity:1"
       d="M 1161.0774,862.53923 639.67409,861.26296"
       id="path860"
       sodipodi:nodetypes="cc" />
    <path
       style="fill:none;stroke:#c86487;stroke-width:1px;stroke-linecap:butt;stroke-linejoin:miter;stroke-opacity:1"
       d="m 635.23358,862.63034 c -17.97389,-35.85482 -20.06152,-71.69487 -32.84988,-109.70916 -10.76265,-31.99273 -19.68973,-64.9472 -21.27106,-98.66468 -2.38952,-50.95 12.01302,-100.98789 25.13062,-150.27826 9.6346,-36.20275 18.73098,-72.81524 34.49033,-106.80211 5.97186,-12.879 12.93745,-25.49062 16.08218,-39.33412 0.81336,-3.58049 1.36393,-7.21859 2.24874,-10.78209 2.54845,-10.26373 7.80968,-19.68895 10.45184,-29.92896 1.67083,-6.47549 2.28209,-13.23272 4.56786,-19.51753 3.46996,-9.54079 10.58764,-17.42041 14.04013,-26.96754 2.20279,-6.09136 2.82907,-12.67444 2.47217,-19.14202 -0.3569,-6.46757 -1.67331,-12.84587 -3.26248,-19.12532 -2.42836,-9.59541 -5.53168,-19.39105 -4.15036,-29.19211 0.91163,-6.46844 3.75677,-12.54155 7.38439,-17.97405 3.62762,-5.43251 8.03591,-10.29148 12.40878,-15.14429 8.80426,-9.77056 17.71699,-19.75888 28.98051,-26.54947 6.33907,-3.82172 13.39207,-6.56836 20.73983,-7.46261 7.34777,-0.89424 14.998,0.12299 21.62158,3.42715 8.27693,4.12893 14.42643,11.44388 20.43613,18.47518 10.44464,12.22014 21.2175,24.19097 32.94976,35.1808 9.34088,8.74978 19.45695,17.08152 25.88248,28.15054 1.28599,2.21534 2.46192,4.58527 4.43008,6.22473 0.98408,0.81973 2.16287,1.43443 3.42953,1.62401 1.26666,0.18957 2.62229,-0.0734 3.64604,-0.84298 1.08957,-0.81909 1.72356,-2.14286 1.9252,-3.49098 0.20165,-1.34811 0.009,-2.72634 -0.30621,-4.05258 -0.93992,-3.95837 -2.9519,-7.59538 -5.36565,-10.87042 -2.41375,-3.27505 -5.23415,-6.22471 -7.99355,-9.21433 -17.37718,-18.82702 -32.60309,-39.56831 -46.29067,-61.2264 -6.19928,-9.80923 -12.3685,-20.11627 -21.89968,-26.73507 -2.46223,-1.70986 -5.11028,-3.14186 -7.54741,-4.88733 -2.43712,-1.74546 -4.70039,-3.86207 -6.03013,-6.54871 -1.4515,-2.932645 -1.67778,-6.415838 -0.78735,-9.564553 0.89043,-3.148715 2.86022,-5.953494 5.41005,-8.004252 4.28909,-3.449587 10.25957,-4.702636 15.5703,-3.256242 4.21656,1.148392 7.87602,3.856102 10.82883,7.077756 2.95282,3.221654 5.2717,6.961826 7.57387,10.676412 5.91501,9.543939 11.38774,23.196119 19.60697,30.845849 3.03015,2.8202 7.0443,1.42381 11.09734,2.26533 2.67837,0.5561 5.48727,0.30559 8.10932,-0.474 2.62205,-0.77959 5.06867,-2.07409 7.3439,-3.59273 4.55045,-3.03726 8.44516,-6.96682 12.94447,-10.07934 6.07472,-4.20235 13.1052,-6.81462 20.20103,-8.86673 7.09584,-2.0521 14.34001,-3.58778 21.36504,-5.87052 17.73846,-5.764004 33.57283,-16.105948 50.37881,-24.195181 10.40044,-5.006049 21.19916,-9.159462 31.5282,-14.31122 10.32904,-5.151758 20.29504,-11.401646 28.07644,-19.926863 5.7404,-6.28911 10.2072,-13.721651 16.4529,-19.509292 3.1228,-2.89382 6.7041,-5.362042 10.7164,-6.786002 4.0123,-1.42396 8.4835,-1.753092 12.5403,-0.461217 3.2064,1.02108 6.0491,3.011555 8.3869,5.431968 2.3378,2.420413 4.1965,5.264712 5.8191,8.212738 7.7793,14.133919 10.2141,30.49887 15.3749,45.78455 7.0416,20.85658 19.1538,39.658209 26.9365,60.249729 3.8896,10.29124 6.6714,20.96033 9.5396,31.58165 12.4401,46.06754 26.6443,91.67782 37.4045,138.16644 4.5803,19.7888 8.5361,39.74312 11.0142,59.90334 5.143,41.84001 3.8862,84.22733 8.011,126.17996 0.4419,4.4943 0.9461,8.99961 0.8092,13.51351 -0.1369,4.5139 -0.9417,9.0758 -2.9877,13.10172 -2.4778,4.87561 -6.5977,8.66881 -10.339,12.65802 -4.1638,4.43976 -7.9571,9.25981 -10.9332,14.56941 -3.7845,6.75187 -6.1952,14.20146 -7.856,21.76136 -5.5385,25.21081 -2.8855,51.39609 -0.7314,77.11805 6.0818,72.62299 12.4088,144.22973 10.0873,217.06995"
       id="path1034"
       sodipodi:nodetypes="csssssssssssssssssssssssscssssssssssssssssssssssssssssssssssssssc" />
  </g>
</svg>
