<?xml version="1.0" encoding="UTF-8" standalone="no"?>
<!-- Created with Inkscape (http://www.inkscape.org/) -->

<svg
   version="1.1"
   id="svg2"
   width="1893"
   height="1024"
   viewBox="0 0 1893 1024"
   sodipodi:docname="frame_0047.svg"
   inkscape:version="1.1.2 (0a00cf5339, 2022-02-04)"
   xmlns:inkscape="http://www.inkscape.org/namespaces/inkscape"
   xmlns:sodipodi="http://sodipodi.sourceforge.net/DTD/sodipodi-0.dtd"
   xmlns:xlink="http://www.w3.org/1999/xlink"
   xmlns="http://www.w3.org/2000/svg"
   xmlns:svg="http://www.w3.org/2000/svg">
  <defs
     id="defs6">
    <inkscape:path-effect
       effect="spiro"
       id="path-effect899"
       is_visible="true"
       lpeversion="1" />
    <inkscape:path-effect
       effect="spiro"
       id="path-effect862"
       is_visible="true"
       lpeversion="1" />
  </defs>
  <sodipodi:namedview
     id="namedview4"
     pagecolor="#ffffff"
     bordercolor="#666666"
     borderopacity="1.0"
     inkscape:pageshadow="2"
     inkscape:pageopacity="0.0"
     inkscape:pagecheckerboard="0"
     showgrid="false"
     inkscape:zoom="0.6703645"
     inkscape:cx="866.69267"
     inkscape:cy="446.77187"
     inkscape:window-width="1850"
     inkscape:window-height="1016"
     inkscape:window-x="70"
     inkscape:window-y="27"
     inkscape:window-maximized="1"
     inkscape:current-layer="g8" />
  <g
     inkscape:groupmode="layer"
     inkscape:label="Image"
     id="g8">
    
    <path
       style="font-variation-settings:normal;opacity:1;vector-effect:none;fill:none;fill-opacity:1;stroke:#c86487;stroke-width:1px;stroke-linecap:butt;stroke-linejoin:miter;stroke-miterlimit:4;stroke-dasharray:none;stroke-dashoffset:0;stroke-opacity:1;-inkscape-stroke:none;stop-color:#000000;stop-opacity:1"
       d="M 1160.0502,863.23432 635.61231,862.85194"
       id="path860"
       inkscape:path-effect="#path-effect862"
       inkscape:original-d="M 1160.0502,863.23432 635.61231,862.85194" />
    <path
       style="font-variation-settings:normal;opacity:1;vector-effect:none;fill:none;fill-opacity:1;stroke:#c86487;stroke-width:1px;stroke-linecap:butt;stroke-linejoin:miter;stroke-miterlimit:4;stroke-dasharray:none;stroke-dashoffset:0;stroke-opacity:1;-inkscape-stroke:none;stop-color:#000000;stop-opacity:1"
       d="m 635.61231,862.85194 c -22.83728,-35.96607 -38.56273,-76.42859 -46.00643,-118.37726 -11.47991,-64.69462 -3.2304,-131.53802 13.26948,-195.13783 9.46422,-36.48041 21.60491,-72.20684 34.11458,-107.75821 7.60973,-21.62617 15.38831,-43.26785 25.72629,-63.73064 5.23681,-10.36563 11.14225,-20.45743 15.00794,-31.40855 4.45733,-12.62718 6.07988,-26.04097 8.50856,-39.20968 2.42867,-13.16871 5.81904,-26.48973 13.28276,-37.60757 3.80261,-5.66431 8.57393,-10.61724 12.52077,-16.18203 3.94684,-5.56478 7.12348,-12.02988 7.04915,-18.85182 -0.0555,-5.09262 -1.91614,-9.99168 -4.11174,-14.58703 -2.1956,-4.59535 -4.761,-9.0395 -6.38739,-13.86575 -2.48018,-7.35983 -2.66084,-15.4219 -0.89225,-22.98433 1.7686,-7.56244 5.44513,-14.62556 10.32176,-20.67013 7.23585,-8.96883 17.00663,-15.65262 27.46353,-20.49521 10.4569,-4.8426 21.63213,-7.93409 32.83914,-10.61743 5.11103,-1.22375 10.27963,-2.37225 15.53271,-2.53147 5.25308,-0.15922 10.64528,0.72513 15.20355,3.34091 6.21243,3.56502 10.23239,9.88221 14.27994,15.79161 15.47777,22.5975 34.65437,42.36962 53.56607,62.18265 1.69457,1.77534 3.39344,3.55868 4.83499,5.54497 0.6773,0.93325 1.32137,1.93454 2.28166,2.57291 0.48015,0.31919 1.03662,0.53798 1.61254,0.56516 0.57592,0.0272 1.17061,-0.14892 1.59898,-0.53482 0.46824,-0.42181 0.70295,-1.05613 0.75584,-1.68412 0.0529,-0.62799 -0.0587,-1.25751 -0.18824,-1.87426 -0.64369,-3.0647 -1.74749,-6.03571 -3.2987,-8.75609 -2.87502,-5.04196 -7.17971,-9.08173 -10.94216,-13.50113 -8.16104,-9.586 -13.7987,-21.00398 -20.2118,-31.83755 -6.4131,-10.83356 -13.96748,-21.46552 -24.65688,-28.11613 -1.96016,-1.21955 -4.07443,-2.35079 -5.43263,-4.21756 -0.6791,-0.93339 -1.14431,-2.04581 -1.18667,-3.19933 -0.0424,-1.15351 0.36902,-2.3441 1.21454,-3.1299 0.44634,-0.41481 0.99754,-0.70755 1.57747,-0.89457 0.57993,-0.18702 1.18907,-0.27123 1.79769,-0.30086 1.21723,-0.0593 2.43695,0.0965 3.65451,0.0445 1.60594,-0.0686 3.24301,-0.52982 4.46178,-1.57783 0.60938,-0.52401 1.10305,-1.18937 1.3889,-1.94052 0.28585,-0.75115 0.35847,-1.58833 0.16577,-2.36859 -0.18589,-0.75269 -0.61313,-1.43593 -1.17092,-1.97441 -0.55779,-0.53849 -1.24242,-0.93619 -1.96835,-1.20844 -1.45187,-0.54449 -3.03746,-0.59081 -4.58806,-0.58537 -7.16627,0.0252 -14.45324,1.00794 -21.42231,-0.66185 -3.48453,-0.83489 -6.85518,-2.35823 -9.51,-4.76467 -2.65483,-2.40643 -4.54589,-5.74674 -4.82749,-9.318813 -0.26633,-3.378327 0.89779,-6.744754 2.65546,-9.642097 1.75768,-2.897344 4.08912,-5.39566 6.39133,-7.882392 2.00567,-2.166426 4.05773,-4.384465 6.67447,-5.751512 2.3914,-1.249327 5.14112,-1.712705 7.83797,-1.631267 2.69684,0.08144 5.35371,0.68759 7.93304,1.479212 2.09024,0.641515 4.23205,1.465523 5.68467,3.099707 0.7263,0.817092 1.25385,1.82981 1.39792,2.913509 0.14407,1.0837 -0.11774,2.23602 -0.80218,3.088491 -0.45372,0.565116 -1.06806,0.979454 -1.70344,1.328044 -0.63538,0.34859 -1.30155,0.640546 -1.92374,1.012175 -0.62218,0.371629 -1.2085,0.833845 -1.5975,1.445318 -0.1945,0.305736 -0.33696,0.646591 -0.39926,1.003556 -0.0623,0.356965 -0.0429,0.730185 0.074,1.07319 0.1792,0.526053 0.58258,0.959818 1.06578,1.234331 0.48321,0.274513 1.04161,0.398381 1.59689,0.421002 1.11056,0.04524 2.19513,-0.297778 3.29216,-0.476398 2.89808,-0.471869 5.90125,0.222602 8.53004,1.53066 2.62879,1.308057 4.92169,3.202302 7.05362,5.221321 3.83299,3.629996 7.21684,7.704633 10.48276,11.852223 2.3306,2.95977 4.67165,6.10164 5.41993,9.79379 0.36398,1.79595 0.33563,3.66702 0.8537,5.42473 0.25903,0.87885 0.65974,1.72801 1.26546,2.41546 0.60571,0.68746 1.42894,1.20453 2.3347,1.34264 0.77178,0.11768 1.57003,-0.0428 2.2795,-0.3686 0.70948,-0.32579 1.33624,-0.81069 1.8995,-1.35128 1.12652,-1.08117 2.02193,-2.39604 3.22477,-3.3916 1.55853,-1.28995 3.53979,-1.96359 5.5235,-2.36093 1.98371,-0.39735 4.01043,-0.54443 5.99741,-0.92507 5.5163,-1.05674 10.5369,-3.87297 15.1805,-7.03261 4.64359,-3.15964 9.03268,-6.70994 13.90266,-9.50807 13.83547,-7.949407 30.36954,-9.243683 45.67044,-13.770916 20.95277,-6.19951 39.4983,-18.447161 57.9183,-30.201162 25.9216,-16.540851 52.2839,-32.430332 79.5293,-46.685649 1.8535,-0.969769 3.7788,-1.9516495 5.8659,-2.0918981 1.5725,-0.1056654 3.1599,0.2842477 4.5594,1.0091021 1.3994,0.724855 2.6159,1.775769 3.6263,2.985224 2.021,2.418909 3.2044,5.41351 4.2753,8.378069 4.7864,13.250297 7.9841,27.020376 12.4207,40.391864 6.0961,18.373071 14.5044,35.914689 20.5665,54.299016 8.2246,24.94258 12.0216,51.08157 16.9691,76.87496 6.9822,36.40157 16.3054,72.30822 24.2943,108.50218 8.822,39.9681 16.0468,80.64858 14.9159,121.56309 -0.8398,30.38383 -6.2055,61.4938 2.1875,90.70749 0.4452,1.54954 0.9293,3.09334 1.1972,4.68315 0.2679,1.58981 0.3133,3.24247 -0.115,4.79676 -0.4054,1.47103 -1.2251,2.80798 -2.2491,3.93917 -1.0241,1.13118 -2.2493,2.06545 -3.5378,2.88279 -2.577,1.63467 -5.4269,2.82387 -7.9162,4.5892 -4.9854,3.53546 -8.1278,9.07746 -10.7538,14.59632 -15.4144,32.39559 -18.2083,69.17071 -20.1349,104.99482 -3.7427,69.59342 -5.1457,139.31263 -4.2059,209.00028"
       id="path897"
       inkscape:path-effect="#path-effect899"
       inkscape:original-d="m 635.61231,862.85194 c -15.33448,-39.45809 -30.66995,-78.91717 -46.00643,-118.37726 -15.33647,-39.46009 8.84732,-130.09089 13.26948,-195.13783 4.42216,-65.04695 22.74405,-71.83781 34.11458,-107.75821 11.37052,-35.9204 17.15186,-42.48609 25.72629,-63.73064 8.57443,-21.24455 10.00629,-20.93803 15.00794,-31.40855 5.00165,-10.47052 14.52855,-51.2105 21.79132,-76.81725 7.26277,-25.60675 13.04761,-23.3549 19.56992,-35.03385 6.52231,-11.67895 -6.99842,-18.96752 -10.49913,-28.45278 -3.50071,-9.48526 6.28734,-29.10197 9.42951,-43.65446 3.14218,-14.55248 40.20278,-20.74076 60.30267,-31.11264 20.09988,-10.37188 20.49184,0.54062 30.73626,0.80944 10.24442,0.26881 9.52096,10.52874 14.27994,15.79161 4.75898,5.26286 35.71171,41.4561 53.56607,62.18265 17.85435,20.72656 3.22432,3.69765 4.83499,5.54497 1.61066,1.84732 3.66312,1.7365 5.49318,2.60325 1.83006,0.86675 0.3794,-2.37125 0.5676,-3.55838 0.1882,-1.18712 -2.19813,-5.83639 -3.2987,-8.75609 -1.10057,-2.91969 -7.29377,-8.99975 -10.94216,-13.50113 -3.64838,-4.50137 -29.91145,-39.96812 -44.86868,-59.95368 -14.95723,-19.98556 -3.60217,-7.03019 -5.40476,-10.54679 -1.80258,-3.51659 4.68745,-0.76627 7.02967,-1.1509 2.34223,-0.38464 4.01197,-3.92363 6.01645,-5.88694 2.00449,-1.96332 -5.15055,-2.51115 -7.72733,-3.76822 -2.57677,-1.25708 -23.83886,-9.82922 -35.7598,-14.745333 -11.92093,-4.916109 6.0322,-11.681992 9.04679,-17.524489 3.0146,-5.842496 4.45065,-3.833341 6.67447,-5.751512 2.22382,-1.918171 10.515,-0.10037 15.77101,-0.152055 5.256,-0.05168 4.18794,6.068805 6.28041,9.101707 2.09247,3.032902 -3.69899,3.909189 -5.54999,5.862283 -1.85099,1.953094 3.97089,0.786957 5.95483,1.178935 1.98394,0.391978 10.3901,4.50232 15.58366,6.751981 5.19355,2.24966 6.98951,7.902483 10.48276,11.852223 3.49325,3.94974 3.61429,6.53019 5.41993,9.79379 1.80565,3.2636 2.97024,6.12288 4.45386,9.18283 1.48362,3.05994 4.93685,-3.40666 7.40377,-5.11148 2.46692,-1.70483 7.68161,-2.18967 11.52091,-3.286 3.83931,-1.09634 19.38977,-11.02612 29.08316,-16.54068 9.69338,-5.514559 30.44796,-9.17961 45.67044,-13.770916 15.22248,-4.591305 38.6132,-20.133108 57.9183,-30.201162 19.3051,-10.068054 53.0205,-31.122766 79.5293,-46.685649 26.5087,-15.5628831 3.9116,-1.3935987 5.8659,-2.0918981 1.9543,-0.6982994 8.3083,8.2492631 12.461,12.3723951 4.1526,4.123131 8.2814,26.928909 12.4207,40.391864 4.1392,13.462955 13.712,36.200344 20.5665,54.299016 6.8545,18.09867 11.3137,51.25097 16.9691,76.87496 5.6553,25.62398 16.1972,72.33579 24.2943,108.50218 8.0971,36.1664 9.9449,81.04306 14.9159,121.56309 4.971,40.52002 1.4593,60.47266 2.1875,90.70749 0.7282,30.23483 0.7224,6.32094 1.0822,9.47991 0.3597,3.15897 -9.1344,7.60844 -13.7031,11.41116 -4.5687,3.80272 -7.1682,9.73188 -10.7538,14.59632 -3.5856,4.86444 -13.4223,69.99755 -20.1349,104.99482 -6.7126,34.99728 -2.8029,139.33452 -4.2059,209.00028" />
  </g>
</svg>
