<?xml version="1.0" encoding="UTF-8" standalone="no"?>
<!-- Created with Inkscape (http://www.inkscape.org/) -->

<svg
   version="1.1"
   id="svg2"
   width="1893"
   height="1024"
   viewBox="0 0 1893 1024"
   sodipodi:docname="frame_0122.svg"
   inkscape:version="1.1.2 (0a00cf5339, 2022-02-04)"
   xmlns:inkscape="http://www.inkscape.org/namespaces/inkscape"
   xmlns:sodipodi="http://sodipodi.sourceforge.net/DTD/sodipodi-0.dtd"
   xmlns:xlink="http://www.w3.org/1999/xlink"
   xmlns="http://www.w3.org/2000/svg"
   xmlns:svg="http://www.w3.org/2000/svg">
  <defs
     id="defs6">
    <inkscape:path-effect
       effect="spiro"
       id="path-effect899"
       is_visible="true"
       lpeversion="1" />
    <inkscape:path-effect
       effect="spiro"
       id="path-effect862"
       is_visible="true"
       lpeversion="1" />
  </defs>
  <sodipodi:namedview
     id="namedview4"
     pagecolor="#ffffff"
     bordercolor="#666666"
     borderopacity="1.0"
     inkscape:pageshadow="2"
     inkscape:pageopacity="0.0"
     inkscape:pagecheckerboard="0"
     showgrid="false"
     inkscape:zoom="0.94803857"
     inkscape:cx="867.05333"
     inkscape:cy="337.01161"
     inkscape:window-width="1850"
     inkscape:window-height="1016"
     inkscape:window-x="70"
     inkscape:window-y="27"
     inkscape:window-maximized="1"
     inkscape:current-layer="g8" />
  <g
     inkscape:groupmode="layer"
     inkscape:label="Image"
     id="g8">
    
    <path
       style="font-variation-settings:normal;opacity:1;vector-effect:none;fill:none;fill-opacity:1;stroke:#c86487;stroke-width:1px;stroke-linecap:butt;stroke-linejoin:miter;stroke-miterlimit:4;stroke-dasharray:none;stroke-dashoffset:0;stroke-opacity:1;-inkscape-stroke:none;stop-color:#000000;stop-opacity:1"
       d="m 1161.4588,862.98705 -525.70835,-0.7996"
       id="path860"
       inkscape:path-effect="#path-effect862"
       inkscape:original-d="m 1161.4588,862.98705 -525.70835,-0.7996" />
    <path
       style="font-variation-settings:normal;opacity:1;vector-effect:none;fill:none;fill-opacity:1;stroke:#c86487;stroke-width:1px;stroke-linecap:butt;stroke-linejoin:miter;stroke-miterlimit:4;stroke-dasharray:none;stroke-dashoffset:0;stroke-opacity:1;-inkscape-stroke:none;stop-color:#000000;stop-opacity:1"
       d="m 635.75045,862.18745 c 0.40643,-48.85614 -2.93171,-97.74298 -9.9755,-146.09039 -8.41192,-57.73801 -22.06521,-116.89743 -8.4395,-173.63171 9.8494,-41.01061 33.38711,-77.65568 43.91764,-118.4967 4.25637,-16.50767 6.45941,-33.87471 14.66458,-48.81778 7.10366,-12.93703 18.37865,-23.38091 24.37479,-36.86702 4.31889,-9.71375 5.64495,-20.44519 8.33494,-30.72983 3.47373,-13.2811 9.23224,-25.83509 13.83313,-38.769 4.59422,-12.91516 8.05264,-26.26159 13.67256,-38.76458 1.80803,-4.02244 3.83606,-7.9484 5.46714,-12.04578 1.63109,-4.09738 2.86759,-8.40784 3.00073,-12.81593 0.21956,-7.26933 -2.54082,-14.24606 -4.86866,-21.13609 -1.16392,-3.44502 -2.23287,-6.93911 -2.77965,-10.53409 -0.54679,-3.59498 -0.55872,-7.31096 0.37326,-10.82582 1.31298,-4.95177 4.43908,-9.26949 8.16249,-12.78804 3.72342,-3.51855 8.05075,-6.32258 12.33399,-9.13288 5.71294,-3.74835 11.39766,-7.54682 16.87276,-11.63474 8.26032,-6.16748 16.13303,-13.04906 25.44869,-17.46372 4.65783,-2.20732 9.66299,-3.77095 14.80262,-4.16065 5.13963,-0.3897 10.4232,0.43182 15.01984,2.76389 3.80026,1.92804 7.02931,4.81797 9.96699,7.90493 5.98866,6.29296 10.93005,13.49872 15.61659,20.8132 6.11083,9.53743 11.84804,19.33631 18.64204,28.39978 12.48413,16.65433 28.32556,30.54773 40.99308,47.063 0.44039,0.57415 0.87829,1.15304 1.38416,1.67042 0.50587,0.51739 1.08508,0.97476 1.74882,1.26292 1.08771,0.47222 2.36613,0.45355 3.4638,0.005 1.09767,-0.44856 2.00982,-1.31033 2.57492,-2.3528 0.52126,-0.96159 0.7537,-2.06608 0.74607,-3.15985 -0.008,-1.09376 -0.24921,-2.17795 -0.62951,-3.20349 -0.76061,-2.05109 -2.05568,-3.85118 -3.26304,-5.6754 -2.35664,-3.5607 -4.42762,-7.30587 -6.83365,-10.83338 -7.8914,-11.5697 -19.11184,-20.42869 -28.11336,-31.15738 -4.60752,-5.49159 -8.64185,-11.49607 -11.63562,-18.00945 -3.01312,-6.55548 -4.94373,-13.55274 -7.66135,-20.23613 -2.39501,-5.88998 -5.42378,-11.60847 -6.57023,-17.86255 -0.30228,-1.64898 -0.47037,-3.32195 -0.82438,-4.960604 -0.35401,-1.638654 -0.90767,-3.26466 -1.89868,-4.616848 -1.13808,-1.552861 -2.8062,-2.667336 -4.60543,-3.352454 -1.79922,-0.685118 -3.73063,-0.962756 -5.65346,-1.059224 -3.84567,-0.192937 -7.75193,0.315689 -11.52173,-0.468559 -1.58928,-0.330625 -3.1391,-0.893437 -4.51709,-1.751492 -1.37799,-0.858056 -2.58093,-2.018183 -3.39996,-3.419723 -1.47956,-2.531866 -1.59877,-5.734658 -0.62598,-8.501086 0.97279,-2.766429 2.95856,-5.107545 5.33734,-6.822438 3.46025,-2.494538 7.70689,-3.715994 11.95013,-4.152913 4.24325,-0.436919 8.52386,-0.133129 12.77874,0.170293 6.58889,0.469864 13.29244,0.962907 19.45301,3.346533 1.3251,0.512703 2.62866,1.117267 3.76172,1.974554 1.13305,0.857287 2.09346,1.985962 2.57268,3.323535 0.38708,1.080404 0.44768,2.260903 0.28629,3.397152 -0.16138,1.13625 -0.53828,2.232848 -1.00445,3.281558 -0.93233,2.097421 -2.22643,4.030431 -3.01115,6.18743 -1.09876,3.020205 -1.14057,6.302364 -1.49482,9.496641 -0.51117,4.609185 -1.69556,9.250275 -0.93233,13.824485 0.58109,3.48256 2.28702,6.72429 4.59077,9.39985 1.13933,1.32321 2.43606,2.52697 3.93216,3.42731 1.4961,0.90034 3.20097,1.48939 4.94625,1.54348 1.66342,0.0515 3.32124,-0.3836 4.81634,-1.11456 1.4951,-0.73096 2.83513,-1.75077 4.04741,-2.89095 2.42457,-2.28036 4.35119,-5.03731 6.67554,-7.41974 6.0176,-6.16797 14.28935,-9.46689 22.11184,-13.0813 15.58642,-7.201769 30.3274,-16.279834 46.42687,-22.247172 16.83761,-6.240932 34.89986,-8.977251 51.31356,-16.260399 13.8436,-6.142748 26.0771,-15.32501 39.0143,-23.199601 13.0658,-7.952861 26.8952,-14.593975 41.0014,-20.508168 8.1243,-3.406218 16.4287,-6.618574 23.6691,-11.6369223 0.9608,-0.6659155 1.9364,-1.3786689 3.0782,-1.629242 1.0625,-0.2331605 2.1941,-0.035802 3.1724,0.4397995 0.9782,0.4756017 1.8109,1.2163982 2.4966,2.0607674 1.3715,1.6887383 2.1637,3.7609694 3.2197,5.6629644 1.6264,2.929237 3.8786,5.45229 6.0474,8.006097 2.1688,2.553808 4.2991,5.207744 5.6161,8.288497 1.6414,3.839543 1.9212,8.096048 2.5245,12.227913 1.4991,10.267151 5.0893,20.09616 8.6833,29.829872 3.318,8.986426 6.6585,17.965663 9.7829,27.021232 7.8195,22.663622 14.2912,45.844022 18.1412,69.507552 1.3053,8.02316 2.3083,16.0942 3.689,24.10474 4.6447,26.94804 13.5483,53.13242 16.428,80.32576 1.1708,11.05573 1.3348,22.19405 2.2649,33.27263 2.6549,31.62408 11.5366,62.63716 12.0135,94.3689 0.2961,19.69865 -2.6491,39.57791 0.629,59.00413 1.6872,9.99836 5.0185,20.05367 3.3584,30.05656 -1.3681,8.243 -5.9909,15.51572 -10.265,22.6956 -5.7991,9.74167 -11.1522,19.81167 -14.8775,30.51923 -5.4553,15.67989 -7.2997,32.34864 -9.0753,48.8552 -2.0442,19.00306 -4.0454,38.01081 -6.1619,57.00595 -7.9928,71.73441 -17.6291,143.28571 -28.8986,214.57883"
       id="path897"
       inkscape:path-effect="#path-effect899"
       inkscape:original-d="m 635.75045,862.18745 c -3.32417,-48.6958 -6.64933,-97.39259 -9.9755,-146.09039 -3.32616,-48.69779 -5.62534,-115.75347 -8.4395,-173.63171 -2.81417,-57.87823 29.27943,-78.9968 43.91764,-118.4967 14.63821,-39.4999 9.77739,-32.54419 14.66458,-48.81778 4.8872,-16.2736 16.25086,-24.57702 24.37479,-36.86702 8.12392,-12.29001 5.55762,-20.48556 8.33494,-30.72983 2.77731,-10.24428 9.22308,-25.845 13.83313,-38.769 4.61004,-12.924 9.11604,-25.84205 13.67256,-38.76458 4.55653,-12.92252 5.64625,-16.57347 8.46787,-24.86171 2.82163,-8.28824 -4.84903,-28.32967 -7.27505,-42.496 -2.42602,-14.16633 13.66532,-14.61295 20.49648,-21.92092 6.83116,-7.30797 11.2495,-7.75549 16.87276,-11.63474 5.62325,-3.87924 36.84843,-12.57265 55.27115,-18.86048 18.42272,-6.28782 6.64566,5.27096 9.96699,7.90493 3.32134,2.63398 10.41206,13.87647 15.61659,20.8132 5.20453,6.93673 12.42903,18.93419 18.64204,28.39978 6.21301,9.4656 27.32972,31.37633 40.99308,47.063 13.66337,15.68666 2.08965,1.95656 3.13298,2.93334 1.04332,0.97678 4.02681,-1.56421 6.03872,-2.34781 2.0119,-0.78361 -2.09665,-8.02483 -3.14648,-12.03874 -1.04982,-4.01391 -4.55477,-7.22126 -6.83365,-10.83338 -2.27889,-3.61213 -18.74124,-20.77059 -28.11336,-31.15738 -9.37212,-10.3868 -7.75608,-12.0053 -11.63562,-18.00945 -3.87953,-6.00414 -5.10657,-13.48975 -7.66135,-20.23613 -2.55479,-6.74637 -4.37916,-11.90737 -6.57023,-17.86255 -2.19108,-5.955185 -1.81437,-6.383968 -2.72306,-9.577452 -0.90868,-3.193484 -14.51941,-3.252491 -21.78062,-4.880237 -7.2612,-1.627746 -5.27703,-3.446476 -7.91705,-5.171215 -2.64002,-1.724738 3.1419,-10.214682 4.71136,-15.323524 1.56945,-5.108841 16.48691,-2.65408 24.72887,-3.98262 8.24196,-1.32854 12.96967,2.232022 19.45301,3.346533 6.48333,1.114511 4.22394,3.533059 6.3344,5.298089 2.11047,1.76503 -2.48521,8.578427 -3.72931,12.86614 -1.24411,4.287714 -0.99555,6.332094 -1.49482,9.496641 -0.49928,3.164545 -0.62055,9.217325 -0.93233,13.824485 -0.31178,4.60716 3.06152,6.26757 4.59077,9.39985 1.52926,3.13229 5.91994,3.31486 8.87841,4.97079 2.95847,1.65593 10.36053,-7.61583 15.53929,-11.42525 5.17877,-3.80942 14.74223,-8.71987 22.11184,-13.0813 7.36961,-4.361438 30.95225,-14.830449 46.42687,-22.247172 15.47462,-7.416722 34.21006,-10.839266 51.31356,-16.260399 17.1035,-5.421133 26.0106,-15.465401 39.0143,-23.199601 13.0038,-7.7342 27.3353,-13.671112 41.0014,-20.508168 13.6661,-6.837056 15.7804,-7.756948 23.6691,-11.6369223 7.8887,-3.8799741 2.0531,-1.0851613 3.0782,-1.629242 1.025,-0.5440806 5.9268,5.4433543 8.8887,8.1635313 2.9619,2.720178 7.7767,10.864063 11.6635,16.294594 3.8869,5.430531 1.684,8.152942 2.5245,12.227913 0.8404,4.074971 5.7899,19.887581 8.6833,29.829872 2.8935,9.94229 6.523,18.015155 9.7829,27.021232 3.26,9.006082 12.0951,46.339372 18.1412,69.507552 6.046,23.16819 2.4604,16.07083 3.689,24.10474 1.2287,8.03391 10.953,53.55151 16.428,80.32576 5.4749,26.77426 1.5109,22.18275 2.2649,33.27263 0.754,11.08987 8.01,62.9136 12.0135,94.3689 4.0035,31.4553 0.4203,39.33708 0.629,59.00413 0.2086,19.66704 2.2399,20.0387 3.3584,30.05656 1.1185,10.01785 -6.8424,15.1314 -10.265,22.6956 -3.4227,7.5642 -9.9173,20.34715 -14.8775,30.51923 -4.9601,10.17207 -6.0492,32.57114 -9.0753,48.8552 -3.0262,16.28407 -4.1069,38.00497 -6.1619,57.00595 -2.0549,19.00099 -19.2647,143.05355 -28.8986,214.57883" />
  </g>
</svg>
