<?xml version="1.0" encoding="UTF-8" standalone="no"?>
<!-- Created with Inkscape (http://www.inkscape.org/) -->

<svg
   version="1.1"
   id="svg2"
   width="1893"
   height="1024"
   viewBox="0 0 1893 1024"
   sodipodi:docname="frame_0092.svg"
   inkscape:version="1.1.2 (0a00cf5339, 2022-02-04)"
   xmlns:inkscape="http://www.inkscape.org/namespaces/inkscape"
   xmlns:sodipodi="http://sodipodi.sourceforge.net/DTD/sodipodi-0.dtd"
   xmlns:xlink="http://www.w3.org/1999/xlink"
   xmlns="http://www.w3.org/2000/svg"
   xmlns:svg="http://www.w3.org/2000/svg">
  <defs
     id="defs6">
    <inkscape:path-effect
       effect="spiro"
       id="path-effect903"
       is_visible="true"
       lpeversion="1" />
    <inkscape:path-effect
       effect="spiro"
       id="path-effect866"
       is_visible="true"
       lpeversion="1" />
    <inkscape:path-effect
       effect="spiro"
       id="path-effect862"
       is_visible="true"
       lpeversion="1" />
  </defs>
  <sodipodi:namedview
     id="namedview4"
     pagecolor="#ffffff"
     bordercolor="#666666"
     borderopacity="1.0"
     inkscape:pageshadow="2"
     inkscape:pageopacity="0.0"
     inkscape:pagecheckerboard="0"
     showgrid="false"
     inkscape:zoom="0.94803857"
     inkscape:cx="975.6987"
     inkscape:cy="491.01378"
     inkscape:window-width="1850"
     inkscape:window-height="1016"
     inkscape:window-x="70"
     inkscape:window-y="27"
     inkscape:window-maximized="1"
     inkscape:current-layer="g8" />
  <g
     inkscape:groupmode="layer"
     inkscape:label="Image"
     id="g8">
    
    <path
       style="font-variation-settings:normal;opacity:1;vector-effect:none;fill:none;fill-opacity:1;stroke:#c86487;stroke-width:1px;stroke-linecap:butt;stroke-linejoin:miter;stroke-miterlimit:4;stroke-dasharray:none;stroke-dashoffset:0;stroke-opacity:1;-inkscape-stroke:none;stop-color:#000000;stop-opacity:1"
       d="m 1161.1884,862.79976 -1.8858,0.975"
       id="path860"
       inkscape:path-effect="#path-effect862"
       inkscape:original-d="m 1161.1884,862.79976 c -0.6286,0.325 -1.2572,0.65 -1.8858,0.975" />
    <path
       style="font-variation-settings:normal;opacity:1;vector-effect:none;fill:none;fill-opacity:1;stroke:#c86487;stroke-width:1px;stroke-linecap:butt;stroke-linejoin:miter;stroke-miterlimit:4;stroke-dasharray:none;stroke-dashoffset:0;stroke-opacity:1;-inkscape-stroke:none;stop-color:#000000;stop-opacity:1"
       d="m 635.17927,863.12604 526.00913,-0.32628"
       id="path864"
       inkscape:path-effect="#path-effect866"
       inkscape:original-d="m 635.17927,863.12604 526.00913,-0.32628" />
    <path
       style="font-variation-settings:normal;opacity:1;vector-effect:none;fill:none;fill-opacity:1;stroke:#c86487;stroke-width:1px;stroke-linecap:butt;stroke-linejoin:miter;stroke-miterlimit:4;stroke-dasharray:none;stroke-dashoffset:0;stroke-opacity:1;-inkscape-stroke:none;stop-color:#000000;stop-opacity:1"
       d="m 635.17927,863.12604 c -19.14949,-47.4026 -30.68457,-97.87182 -34.02908,-148.88676 -4.63199,-70.65344 6.3863,-141.58246 24.1426,-210.12499 5.86601,-22.64386 12.48762,-45.15127 21.51175,-66.73181 8.88249,-21.24181 20.03278,-41.44615 30.16481,-62.12113 10.48872,-21.40283 19.89578,-43.33293 28.27096,-65.64774 9.88945,-26.34941 18.3648,-53.33544 23.08446,-81.08102 2.36169,-13.8837 3.77774,-27.95077 3.69468,-42.03366 -0.0235,-3.9911 -0.16698,-7.99165 0.1937,-11.96648 0.36068,-3.97484 1.24743,-7.95885 3.16155,-11.46107 2.12285,-3.88415 5.42549,-7.01818 9.06073,-9.54367 3.63524,-2.5255 7.62219,-4.49144 11.56244,-6.50825 15.6789,-8.02523 30.89748,-17.01728 47.13272,-23.84732 3.24544,-1.36533 6.55666,-2.65078 10.02744,-3.24296 3.47078,-0.59218 7.1427,-0.45482 10.37156,0.94926 2.28023,0.99157 4.26245,2.57778 5.98002,4.37572 1.71757,1.79795 3.18947,3.81257 4.6614,5.81659 21.51144,29.28776 44.19105,57.70942 67.70018,85.41927 0.75471,0.88957 1.51679,1.78475 2.43184,2.50836 1.46397,1.15769 3.27149,1.82973 5.11416,2.12638 0.99271,0.15982 2.01874,0.21409 2.99657,-0.0202 0.97782,-0.23426 1.90821,-0.7831 2.4504,-1.62988 0.55521,-0.86712 0.65451,-1.98102 0.38694,-2.97528 -0.26757,-0.99427 -0.87565,-1.87392 -1.62192,-2.5833 -1.49256,-1.41876 -3.47903,-2.16752 -5.26814,-3.18719 -2.80915,-1.60102 -5.16774,-3.90341 -7.1781,-6.43581 -2.01037,-2.53239 -3.69488,-5.3038 -5.39236,-8.05574 -12.70864,-20.60314 -26.4739,-40.58654 -41.85897,-59.27607 -0.67427,-0.81909 -1.37239,-1.67666 -1.60883,-2.71089 -0.18841,-0.82415 -0.0611,-1.70004 0.25468,-2.48425 0.31581,-0.78421 0.81202,-1.48439 1.36612,-2.1229 1.10821,-1.27701 2.47148,-2.34896 3.35742,-3.7891 1.01196,-1.64499 1.31268,-3.64939 1.19086,-5.57688 -0.12182,-1.92749 -0.63909,-3.80547 -1.16256,-5.66451 -0.8223,-2.92032 -1.67453,-5.85408 -3.04097,-8.56281 -1.36644,-2.70874 -3.2903,-5.20705 -5.8673,-6.808143 -2.70366,-1.679787 -5.96374,-2.273846 -9.14673,-2.276467 -3.183,-0.0026 -6.33623,0.549755 -9.48674,1.003367 -2.1599,0.310983 -4.37456,0.574645 -6.51027,0.126752 -1.06785,-0.223946 -2.10555,-0.62872 -2.99856,-1.255625 -0.893,-0.626905 -1.63708,-1.482338 -2.06166,-2.487425 -0.52429,-1.24114 -0.5391,-2.667393 -0.15891,-3.959975 0.38019,-1.292582 1.13789,-2.455422 2.07867,-3.419922 1.88154,-1.929001 4.41827,-3.048841 6.87795,-4.149404 3.42637,-1.533103 6.84123,-3.119523 10.4188,-4.255931 3.57757,-1.136408 7.3495,-1.816371 11.08824,-1.481341 3.99584,0.358069 7.82774,1.868417 11.26179,3.942604 3.43405,2.074188 6.49933,4.703389 9.42502,7.448439 1.53219,1.437592 3.03809,2.918501 4.29131,4.604839 1.25321,1.686339 2.25233,3.595298 2.66395,5.655604 0.41179,2.061148 0.22265,4.207658 -0.27927,6.248738 -0.50192,2.04108 -1.30897,3.99287 -2.14291,5.92224 -0.81773,1.89189 -1.67169,3.79499 -2.02681,5.82522 -0.17756,1.01512 -0.22725,2.05765 -0.0801,3.07762 0.14711,1.01997 0.49511,2.01769 1.07045,2.87266 0.74211,1.10279 1.84129,1.93607 3.04708,2.49551 1.20578,0.55943 2.5181,0.85786 3.8358,1.0326 6.69205,0.88744 13.45395,-1.36274 19.35935,-4.63343 5.9054,-3.27069 11.18425,-7.54997 16.86024,-11.20433 13.17895,-8.48498 28.24497,-13.456612 42.64644,-19.643488 28.49844,-12.242941 54.58417,-29.350437 81.36897,-44.991019 27.0729,-15.80886 55.0412,-30.207471 84.2814,-41.5155122 0.3517,-0.1360232 0.7041,-0.2717691 1.0662,-0.3772534 1.2642,-0.3683065 2.6259,-0.3555966 3.9049,-0.042675 1.279,0.3129214 2.4769,0.9191876 3.5379,1.6989961 2.1219,1.5596169 3.6703,3.7693861 5.0195,6.0309628 5.3134,8.906574 8.0614,19.063098 10.967,29.018832 6.609,22.645425 14.3383,44.985495 19.7261,67.952117 4.5672,19.4684 7.4284,39.2885 10.856,58.98949 7.0497,40.52044 16.5076,80.59808 23.2675,121.16787 10.1227,60.75144 14.154,122.34858 16.9379,183.87464 0.5752,12.71307 1.0979,25.44354 0.6539,38.16187 -0.062,1.78765 -0.1483,3.60003 -0.6972,5.30246 -0.557,1.72752 -1.5789,3.2844 -2.8351,4.59452 -1.2563,1.31012 -2.7435,2.38233 -4.3097,3.29973 -3.1324,1.83481 -6.5839,3.06452 -9.7612,4.82039 -8.1017,4.47726 -14.1093,12.34 -17.0178,21.12772 -3.4754,10.50036 -2.6962,21.85316 -2.4551,32.91108 0.5183,23.7694 -1.6304,47.50688 -3.7509,71.18717 -6.2326,69.59966 -12.2413,139.21936 -18.026,208.85767"
       id="path901"
       inkscape:path-effect="#path-effect903"
       inkscape:original-d="m 635.17927,863.12604 c -11.34203,-49.62792 -22.68505,-99.25684 -34.02908,-148.88676 -11.34403,-49.62992 16.09607,-140.08233 24.1426,-210.12499 8.04653,-70.04267 14.34217,-44.48687 21.51175,-66.73181 7.16958,-22.24493 20.11088,-41.41308 30.16481,-62.12113 10.05394,-20.70804 18.84831,-43.76416 28.27096,-65.64774 9.42265,-21.88359 15.39064,-54.05302 23.08446,-81.08102 7.69382,-27.02801 2.46412,-28.02144 3.69468,-42.03366 1.23056,-14.01223 2.23784,-15.61737 3.35525,-23.42755 1.11742,-7.81019 13.74978,-10.70028 20.62317,-16.05192 6.87338,-5.35164 31.42281,-15.89721 47.13272,-23.84732 15.70991,-7.9501 13.60033,-1.52813 20.399,-2.2937 6.79866,-0.76556 7.09528,6.79587 10.64142,10.19231 3.54615,3.39643 45.13445,56.94718 67.70018,85.41927 22.56572,28.47209 1.62222,1.67324 2.43184,2.50836 0.80961,0.83512 3.41044,1.41858 5.11416,2.12638 1.70372,0.70779 3.63231,-1.09903 5.44697,-1.65004 1.81466,-0.55102 -4.33441,-5.82951 -6.50312,-8.74577 -2.1687,-2.91625 -8.37931,-9.66004 -12.57046,-14.49155 -4.19115,-4.83152 -27.90498,-39.51638 -41.85897,-59.27607 -13.954,-19.75969 -1.07156,-1.80626 -1.60883,-2.71089 -0.53728,-0.90463 3.31981,-5.5965 4.97822,-8.39625 1.6584,-2.79975 0.0199,-7.49326 0.0283,-11.24139 0.008,-3.74813 -5.93785,-10.2463 -8.90827,-15.370953 -2.97043,-5.124652 -12.42131,-0.847733 -18.63347,-1.2731 -6.21215,-0.425366 -7.71266,-2.409865 -11.57049,-3.616298 -3.85783,-1.206433 5.86614,-7.685201 8.79771,-11.529301 2.93157,-3.8441 14.33903,-3.823848 21.50704,-5.737272 7.16802,-1.913424 13.79221,7.595029 20.68681,11.391043 6.89461,3.796015 4.63784,6.841295 6.95526,10.260443 2.31743,3.419148 -1.61379,8.114988 -2.42218,12.170978 -0.8084,4.056 -0.69,7.85134 -1.03649,11.7755 -0.3465,3.92417 4.58958,2.35308 6.88288,3.52811 2.29329,1.17504 24.14739,-10.5575 36.21959,-15.83776 12.0722,-5.28025 28.43196,-13.094657 42.64644,-19.643488 14.21448,-6.54883 54.24697,-29.993013 81.36897,-44.991019 27.122,-14.998006 56.1886,-27.676008 84.2814,-41.5155122 28.0928,-13.8395041 0.7118,-0.2505023 1.0662,-0.3772534 0.3543,-0.1267511 8.3092,5.1258561 12.4623,7.6872836 4.1531,2.561429 7.3124,19.346888 10.967,29.018832 3.6547,9.671943 13.1518,45.30241 19.7261,67.952117 6.5744,22.6497 7.2383,39.32733 10.856,58.98949 3.6176,19.66217 15.5126,80.77958 23.2675,121.16787 7.7548,40.38829 11.2929,122.58409 16.9379,183.87464 5.645,61.29055 0.4369,25.44225 0.6539,38.16187 0.217,12.71962 -0.4638,3.53597 -0.6972,5.30246 -0.2334,1.76648 -11.2697,8.47742 -16.906,12.71464 -5.6363,4.23721 -11.3442,14.08614 -17.0178,21.12772 -5.6737,7.04157 -1.6358,21.94172 -2.4551,32.91108 -0.8194,10.96936 -2.4996,47.45911 -3.7509,71.18717 -1.2513,23.72806 -12.0163,139.23945 -18.026,208.85767" />
  </g>
</svg>
