<?xml version="1.0" encoding="UTF-8" standalone="no"?>
<!-- Created with Inkscape (http://www.inkscape.org/) -->

<svg
   version="1.1"
   id="svg2"
   width="1893"
   height="1024"
   viewBox="0 0 1893 1024"
   sodipodi:docname="frame_0033.svg"
   inkscape:version="1.1.2 (0a00cf5339, 2022-02-04)"
   xmlns:inkscape="http://www.inkscape.org/namespaces/inkscape"
   xmlns:sodipodi="http://sodipodi.sourceforge.net/DTD/sodipodi-0.dtd"
   xmlns:xlink="http://www.w3.org/1999/xlink"
   xmlns="http://www.w3.org/2000/svg"
   xmlns:svg="http://www.w3.org/2000/svg">
  <defs
     id="defs6">
    <inkscape:path-effect
       effect="spiro"
       id="path-effect969"
       is_visible="true"
       lpeversion="1" />
    <inkscape:path-effect
       effect="spiro"
       id="path-effect932"
       is_visible="true"
       lpeversion="1" />
    <inkscape:path-effect
       effect="spiro"
       id="path-effect895"
       is_visible="true"
       lpeversion="1" />
  </defs>
  <sodipodi:namedview
     id="namedview4"
     pagecolor="#ffffff"
     bordercolor="#666666"
     borderopacity="1.0"
     inkscape:pageshadow="2"
     inkscape:pageopacity="0.0"
     inkscape:pagecheckerboard="0"
     showgrid="false"
     inkscape:zoom="0.6703645"
     inkscape:cx="1163.5461"
     inkscape:cy="490.03191"
     inkscape:window-width="1850"
     inkscape:window-height="1016"
     inkscape:window-x="70"
     inkscape:window-y="27"
     inkscape:window-maximized="1"
     inkscape:current-layer="g8" />
  <g
     inkscape:groupmode="layer"
     inkscape:label="Image"
     id="g8">
    
    <path
       style="font-variation-settings:normal;opacity:1;vector-effect:none;fill:none;fill-opacity:1;stroke:#c86487;stroke-width:1px;stroke-linecap:butt;stroke-linejoin:miter;stroke-miterlimit:4;stroke-dasharray:none;stroke-dashoffset:0;stroke-opacity:1;-inkscape-stroke:none;stop-color:#000000;stop-opacity:1"
       d="m 635.49152,862.73769 525.27018,0.16848"
       id="path893"
       inkscape:path-effect="#path-effect895"
       inkscape:original-d="m 635.49152,862.73769 525.27018,0.16848" />
    <path
       style="font-variation-settings:normal;opacity:1;vector-effect:none;fill:none;fill-opacity:1;stroke:#c86487;stroke-width:1px;stroke-linecap:butt;stroke-linejoin:miter;stroke-miterlimit:4;stroke-dasharray:none;stroke-dashoffset:0;stroke-opacity:1;-inkscape-stroke:none;stop-color:#000000;stop-opacity:1"
       d="m 635.49152,862.73769 c -25.92625,-37.06238 -42.33969,-80.72171 -47.25035,-125.68476 -3.69684,-33.84905 -0.97715,-68.03022 1.59361,-101.98337 2.83471,-37.43932 5.49441,-74.96851 11.95748,-111.95455 6.09454,-34.87702 15.58158,-69.20959 29.10762,-101.92955 11.49844,-27.81513 25.9268,-54.52689 34.44734,-83.39376 3.23064,-10.94512 5.58944,-22.13196 8.79399,-33.08475 3.73665,-12.77142 8.65803,-25.27932 15.72211,-36.55631 2.96475,-4.73288 6.34514,-9.3342 7.93846,-14.68689 1.78,-5.97984 1.17623,-12.36881 0.75831,-18.59394 -0.52576,-7.83147 -0.76059,-15.83525 -3.47941,-23.19843 -1.19868,-3.2463 -2.85979,-6.30328 -4.13022,-9.52218 -1.27043,-3.2189 -2.15273,-6.69858 -1.68627,-10.12753 0.47175,-3.46781 2.28595,-6.61479 4.40128,-9.40291 2.11533,-2.78813 4.56335,-5.317 6.58934,-8.17071 1.568,-2.20861 2.87346,-4.59845 4.506,-6.7598 1.63253,-2.16135 3.66135,-4.12979 6.19242,-5.09432 2.02304,-0.77093 4.24345,-0.85474 6.40443,-0.72369 2.16098,0.13105 4.30925,0.46727 6.47393,0.5015 5.74723,0.0909 11.3564,-1.96184 16.32731,-4.84785 5.96672,-3.46416 11.14692,-8.10279 16.52608,-12.42329 5.37915,-4.32051 11.11904,-8.41287 17.69291,-10.50724 1.36581,-0.43513 2.76715,-0.78226 4.19589,-0.89828 1.42875,-0.11601 2.88983,0.005 4.24105,0.48322 2.10989,0.74716 3.83671,2.32149 5.21239,4.0871 1.37569,1.76561 2.4514,3.7419 3.6687,5.62021 5.59724,8.63663 14.00621,14.97333 21.66833,21.84446 19.4917,17.47949 34.73462,39.10549 52.38694,58.44081 0.51889,0.56836 1.04065,1.13553 1.60652,1.65713 1.1412,1.05191 2.4873,1.92468 3.99481,2.29386 0.75375,0.18458 1.54196,0.24029 2.31026,0.1311 0.76831,-0.10918 1.51605,-0.38555 2.15277,-0.82918 0.93638,-0.65242 1.61094,-1.66517 1.86964,-2.77672 0.2587,-1.11154 0.10299,-2.31157 -0.41477,-3.32862 -0.40583,-0.79719 -1.01849,-1.47268 -1.68884,-2.065 -0.67036,-0.59232 -1.40266,-1.10967 -2.10662,-1.66163 -5.04337,-3.95439 -8.48212,-9.54272 -12.12912,-14.81265 -15.63568,-22.59363 -36.7241,-41.10126 -51.53236,-64.24564 -4.88824,-7.64002 -9.1127,-15.81017 -15.29237,-22.44917 -4.55492,-4.89349 -10.17997,-8.97415 -13.35641,-14.85665 -1.58822,-2.941244 -2.49771,-6.329543 -2.07707,-9.64563 0.21033,-1.658044 0.75371,-3.280146 1.64198,-4.695888 0.88826,-1.415742 2.12557,-2.620322 3.59712,-3.412713 2.07774,-1.118807 4.54536,-1.377964 6.88158,-1.045072 2.33621,0.332892 4.55959,1.226165 6.66011,2.301602 5.63846,2.886818 10.48285,7.077099 15.66474,10.720441 7.47497,5.25558 15.72931,9.42315 22.70089,15.33021 3.28713,2.78521 6.26907,5.94161 9.77527,8.44543 1.75311,1.25191 3.63779,2.33728 5.66198,3.07438 2.02419,0.73709 4.19399,1.11959 6.3422,0.95879 3.8904,-0.29121 7.44365,-2.32314 10.53054,-4.70876 3.08689,-2.38562 5.86315,-5.17228 9.09384,-7.35921 6.75651,-4.57363 14.99667,-6.22133 22.86312,-8.38637 19.23438,-5.293776 37.30536,-14.165968 54.60199,-24.106404 35.86089,-20.609386 68.94881,-46.010806 105.99771,-64.399053 0.9833,-0.488013 1.9712,-0.971879 3.0013,-1.351161 1.7295,-0.636792 3.5826,-0.972864 5.4218,-0.856324 1.8393,0.11654 3.6637,0.697849 5.162,1.771026 1.4694,1.052495 2.5834,2.539022 3.4378,4.131779 0.8544,1.592756 1.4673,3.301244 2.0978,4.995172 11.2177,30.138976 28.8177,57.499376 41.292,87.140335 22.0721,52.44711 27.4076,110.13506 39.6361,165.70791 5.9716,27.13835 13.6437,54.00046 16.7124,81.61809 2.6818,24.13553 1.808,48.5068 2.6051,72.77778 0.797,24.27098 3.365,48.88151 12.5193,71.37404 0.3711,0.91176 0.7537,1.8223 1.0126,2.77203 0.259,0.94973 0.3918,1.94707 0.2533,2.92166 -0.1891,1.33058 -0.8825,2.55961 -1.8189,3.52364 -0.9364,0.96404 -2.1063,1.6774 -3.3363,2.21898 -2.46,1.08314 -5.1636,1.50339 -7.6618,2.49529 -3.7327,1.48204 -6.8831,4.20574 -9.3351,7.38646 -2.4519,3.18073 -4.2493,6.81559 -5.8125,10.51497 -5.9626,14.11037 -8.7008,29.42102 -9.5924,44.71351 -1.3769,23.6176 1.5472,47.24223 3.751,70.79706 6.6529,71.10798 6.7587,142.82717 0.3155,213.95446"
       id="path967"
       inkscape:path-effect="#path-effect969"
       inkscape:original-d="m 635.49152,862.73769 c -15.74912,-41.89392 -31.49923,-83.78884 -47.25035,-125.68476 -15.75112,-41.89593 1.06341,-67.98792 1.59361,-101.98337 0.5302,-33.99546 7.97265,-74.63536 11.95748,-111.95455 3.98482,-37.31918 19.40608,-67.95203 29.10762,-101.92955 9.70154,-33.97752 22.96589,-55.59484 34.44734,-83.39376 11.48144,-27.79892 5.86366,-22.0555 8.79399,-33.08475 2.93033,-11.02925 10.4824,-24.36987 15.72211,-36.55631 5.2397,-12.18644 5.2933,-9.79026 7.93846,-14.68689 2.64515,-4.89663 0.50654,-12.39496 0.75831,-18.59394 0.25177,-6.19899 -2.31861,-15.46462 -3.47941,-23.19843 -1.1608,-7.73381 -3.87666,-13.09881 -5.81649,-19.64971 -1.93983,-6.55091 7.32808,-11.71475 10.99062,-17.57362 3.66254,-5.85887 7.13328,-7.90175 10.69842,-11.85412 3.56515,-3.95237 8.58658,-0.14712 12.87836,-0.22219 4.29179,-0.0751 10.88588,-3.2309 16.32731,-4.84785 5.44144,-1.61694 22.81366,-15.28602 34.21899,-22.93053 11.40533,-7.64452 5.62563,-0.2757 8.43694,-0.41506 2.81131,-0.13935 5.92172,6.47254 8.88109,9.70731 2.95936,3.23476 14.44655,14.56397 21.66833,21.84446 7.22178,7.28049 34.92563,38.96154 52.38694,58.44081 17.46132,19.47927 1.07201,1.10576 1.60652,1.65713 0.5345,0.55138 5.63956,1.06485 8.45784,1.59578 2.81829,0.53092 0.97091,-4.06923 1.45487,-6.10534 0.48395,-2.03611 -2.52931,-2.48342 -3.79546,-3.72663 -1.26615,-1.24321 -8.08508,-9.8741 -12.12912,-14.81265 -4.04404,-4.93856 -34.35391,-42.82943 -51.53236,-64.24564 -17.17845,-21.41621 -10.19391,-14.96511 -15.29237,-22.44917 -5.09846,-7.48405 -6.79525,-21.739586 -10.19438,-32.610881 -3.39912,-10.871294 9.02879,0.838687 13.54169,1.25653 4.5129,0.417843 10.44416,7.14796 15.66474,10.720441 5.22058,3.57248 15.13492,10.22114 22.70089,15.33021 7.56596,5.10907 14.52064,8.32007 21.77945,12.4786 7.25882,4.15853 13.08392,-8.04431 19.62438,-12.06797 6.54046,-4.02365 15.24308,-5.58991 22.86312,-8.38637 7.62004,-2.79646 36.40232,-16.069937 54.60199,-24.106404 18.19966,-8.036468 70.66621,-42.931702 105.99771,-64.399053 35.3316,-21.4673511 2.0019,-0.899774 3.0013,-1.351161 0.9994,-0.451387 7.0569,0.610801 10.5838,0.914702 3.5269,0.3039 3.6914,6.085634 5.5356,9.126951 1.8443,3.041318 27.529,58.094558 41.292,87.140335 13.763,29.04578 26.4251,110.47294 39.6361,165.70791 13.211,55.23497 11.1426,54.41306 16.7124,81.61809 5.5698,27.20503 10.0839,96.10221 15.1244,144.15182 5.0404,48.04961 0.8449,3.79679 1.2659,5.69369 0.4209,1.8969 -8.5437,5.49294 -12.817,8.23791 -4.2734,2.74497 -10.0974,11.93529 -15.1476,17.90143 -5.0502,5.96615 -6.3939,29.81001 -9.5924,44.71351 -3.1984,14.90351 2.5017,47.19904 3.751,70.79706 1.2493,23.59802 0.2113,142.63731 0.3155,213.95446" />
  </g>
</svg>
