<?xml version="1.0" encoding="UTF-8" standalone="no"?>
<!-- Created with Inkscape (http://www.inkscape.org/) -->

<svg
   version="1.1"
   id="svg2"
   width="1893"
   height="1024"
   viewBox="0 0 1893 1024"
   sodipodi:docname="frame_0072.svg"
   inkscape:version="1.1.2 (0a00cf5339, 2022-02-04)"
   xmlns:inkscape="http://www.inkscape.org/namespaces/inkscape"
   xmlns:sodipodi="http://sodipodi.sourceforge.net/DTD/sodipodi-0.dtd"
   xmlns:xlink="http://www.w3.org/1999/xlink"
   xmlns="http://www.w3.org/2000/svg"
   xmlns:svg="http://www.w3.org/2000/svg">
  <defs
     id="defs6">
    <inkscape:path-effect
       effect="spiro"
       id="path-effect899"
       is_visible="true"
       lpeversion="1" />
    <inkscape:path-effect
       effect="spiro"
       id="path-effect862"
       is_visible="true"
       lpeversion="1" />
  </defs>
  <sodipodi:namedview
     id="namedview4"
     pagecolor="#ffffff"
     bordercolor="#666666"
     borderopacity="1.0"
     inkscape:pageshadow="2"
     inkscape:pageopacity="0.0"
     inkscape:pagecheckerboard="0"
     showgrid="false"
     inkscape:zoom="0.33518225"
     inkscape:cx="930.83688"
     inkscape:cy="431.10875"
     inkscape:window-width="1850"
     inkscape:window-height="1016"
     inkscape:window-x="70"
     inkscape:window-y="27"
     inkscape:window-maximized="1"
     inkscape:current-layer="g8" />
  <g
     inkscape:groupmode="layer"
     inkscape:label="Image"
     id="g8">
    
    <path
       style="font-variation-settings:normal;opacity:1;vector-effect:none;fill:none;fill-opacity:1;stroke:#c86487;stroke-width:1px;stroke-linecap:butt;stroke-linejoin:miter;stroke-miterlimit:4;stroke-dasharray:none;stroke-dashoffset:0;stroke-opacity:1;-inkscape-stroke:none;stop-color:#000000;stop-opacity:1"
       d="M 1160.9292,862.69594 635.73099,863.0093"
       id="path860"
       inkscape:path-effect="#path-effect862"
       inkscape:original-d="M 1160.9292,862.69594 635.73099,863.0093" />
    <path
       style="font-variation-settings:normal;opacity:1;vector-effect:none;fill:none;fill-opacity:1;stroke:#c86487;stroke-width:1px;stroke-linecap:butt;stroke-linejoin:miter;stroke-miterlimit:4;stroke-dasharray:none;stroke-dashoffset:0;stroke-opacity:1;-inkscape-stroke:none;stop-color:#000000;stop-opacity:1"
       d="M 635.73099,863.0093 C 617.5866,775.07574 608.79283,685.21583 609.54573,595.43296 c 0.48235,-57.51955 5.33486,-116.75657 31.16542,-168.15223 12.89007,-25.64766 30.68864,-48.64894 42.79017,-74.67795 9.89714,-21.28762 15.78448,-44.16659 22.84202,-66.55648 5.1754,-16.41884 11.04211,-32.81718 12.68266,-49.95403 1.19612,-12.4944 0.11177,-25.08682 0.38893,-37.63528 0.27715,-12.54846 2.04984,-25.45393 8.39294,-36.28471 4.67254,-7.97831 11.61386,-14.43383 19.21657,-19.69547 7.60271,-5.26163 15.90274,-9.41593 24.12662,-13.64131 7.11248,-3.65435 14.29364,-7.41358 22.09877,-9.15188 3.90256,-0.86914 7.94244,-1.218 11.91454,-0.76212 3.9721,0.45588 7.8776,1.73435 11.2114,3.94142 3.80644,2.51997 6.7487,6.1513 9.2414,9.97566 2.49269,3.82436 4.59605,7.89245 7.11111,11.70214 7.97439,12.07923 19.71132,21.0596 30.43027,30.786 5.35947,4.8632 10.52852,9.98514 14.85318,15.7879 4.32465,5.80276 7.79885,12.32653 9.48117,19.36531 1.03386,4.32564 1.44257,8.95627 3.8647,12.68632 1.21107,1.86502 2.9445,3.4491 5.04665,4.17433 1.05108,0.36261 2.1827,0.50472 3.28629,0.36927 1.10359,-0.13545 2.17703,-0.5526 3.05644,-1.23295 1.32731,-1.02686 2.15472,-2.60631 2.50606,-4.24727 0.35134,-1.64096 0.26067,-3.34751 0.009,-5.00668 -0.66277,-4.3688 -2.42652,-8.52303 -4.76763,-12.27068 -2.34111,-3.74765 -5.2525,-7.10955 -8.33896,-10.27173 -6.17293,-6.32436 -13.13489,-11.96385 -18.30116,-19.13409 -6.37386,-8.84625 -9.80694,-19.7477 -17.31432,-27.65475 -2.48446,-2.61672 -5.35629,-4.83585 -7.92209,-7.37286 -2.5658,-2.53701 -4.873,-5.49167 -5.83621,-8.96903 -0.73177,-2.64182 -0.64763,-5.44639 -0.26937,-8.16146 0.37826,-2.71507 1.04289,-5.38284 1.46163,-8.09197 0.41874,-2.70912 0.58699,-5.50195 -0.0258,-8.17388 -0.61278,-2.67192 -2.08183,-5.22896 -4.38552,-6.71479 -2.1298,-1.373671 -4.76422,-1.725686 -7.29847,-1.70044 -2.53424,0.02525 -5.06138,0.391672 -7.59428,0.305366 -5.66749,-0.193115 -11.21358,-2.762267 -15.03814,-6.94921 -2.19105,-2.398656 -3.83703,-5.331466 -4.51506,-8.508655 -0.67803,-3.177189 -0.35242,-6.597404 1.12071,-9.492942 1.19696,-2.352713 3.11232,-4.303502 5.33879,-5.721532 2.22647,-1.418031 4.75674,-2.31923 7.34535,-2.836016 5.17722,-1.033571 10.51794,-0.555277 15.78961,-0.269898 3.3679,0.18232 6.75866,0.28632 10.06085,0.973008 3.3022,0.686687 6.55407,2.001808 9.01383,4.309538 3.2431,3.042654 4.79538,7.499977 5.46884,11.895642 0.67346,4.395664 0.58417,8.876084 1.14641,13.287353 0.72141,5.660116 2.51579,11.257076 2.07102,16.945616 -0.16066,2.05487 -0.61317,4.08162 -0.71122,6.14043 -0.0981,2.05881 0.19677,4.22448 1.38239,5.91048 0.62654,0.89097 1.4805,1.61183 2.43498,2.13657 0.95447,0.52474 2.00797,0.85718 3.08186,1.03922 2.14778,0.36406 4.34907,0.13288 6.50614,-0.17138 16.96269,-2.3926 33.01718,-9.22033 48.01785,-17.49302 15.00067,-8.27268 29.1302,-18.024074 43.81511,-26.845127 24.4214,-14.669651 50.30404,-26.723245 76.13444,-38.739636 19.342,-8.997959 38.8721,-18.103873 55.7099,-31.202166 2.9827,-2.3203 5.9,-4.7780575 9.2578,-6.511858 3.3577,-1.7338005 7.2728,-2.7022317 10.9462,-1.8154644 3.3997,0.8206909 6.2855,3.1653473 8.3565,5.9836134 2.071,2.818267 3.4107,6.100224 4.5884,9.393337 6.0605,16.9464 8.344,35.045697 14.2113,52.059937 5.5576,16.116152 14.2608,31.052914 19.2052,47.367664 4.2266,13.94655 5.6068,28.56409 7.7319,42.98126 7.716,52.34807 25.4491,102.95301 31.2266,155.55033 6.8329,62.20497 -3.1675,126.19213 11.527,187.02156 0.4178,1.7294 0.8564,3.46097 1.0416,5.23045 0.1852,1.76947 0.1083,3.59355 -0.4838,5.27126 -0.7471,2.1169 -2.2769,3.88689 -4.0426,5.27314 -1.7658,1.38625 -3.7728,2.42649 -5.7646,3.46193 -5.1146,2.65879 -10.2348,5.3529 -14.929,8.69846 -4.6942,3.34555 -8.9778,7.38308 -11.9962,12.29401 -2.9908,4.86589 -4.6555,10.45108 -5.5615,16.09029 -0.906,5.63921 -1.0817,11.3666 -1.2859,17.07447 -0.9535,26.64719 -2.5669,53.26564 -4.0176,79.89039 -3.7017,67.94005 -6.344,135.93782 -7.9256,203.96025"
       id="path897"
       inkscape:path-effect="#path-effect899"
       inkscape:original-d="m 635.73099,863.0093 c -8.72742,-89.19111 -17.45584,-178.38323 -26.18526,-267.57634 -8.72942,-89.19312 20.77795,-112.10049 31.16542,-168.15223 10.38748,-56.05174 28.52778,-49.7843 42.79017,-74.67795 14.26239,-24.89365 15.22902,-44.36999 22.84202,-66.55648 7.61301,-22.1865 8.45611,-33.30169 12.68266,-49.95403 4.22656,-16.65234 5.85558,-49.27899 8.78187,-73.91999 2.92629,-24.641 28.89646,-22.22352 43.34319,-33.33678 14.44673,-11.11326 30.15081,-3.98072 45.22471,-5.97258 15.07391,-1.99185 10.90267,14.45287 16.35251,21.6778 5.44984,7.22494 36.51075,43.96047 54.76462,65.93921 18.25388,21.97873 10.17039,10.66564 15.25408,15.99697 5.0837,5.33132 1.67769,-6.1683 2.51503,-9.25395 0.83734,-3.08565 -20.9375,-27.78334 -31.40775,-41.6765 -10.47025,-13.89317 -11.54188,-18.4355 -17.31432,-27.65475 -5.77244,-9.21926 -9.1712,-10.89359 -13.7583,-16.34189 -4.5871,-5.44829 -2.14503,-20.7604 -3.21905,-31.1421 -1.07402,-10.381697 -9.9275,-0.929048 -14.89275,-1.395074 -4.96525,-0.466025 -10.02443,-4.631807 -15.03814,-6.94921 -5.01372,-2.317404 -2.2619,-12.000065 -3.39435,-18.001597 -1.13245,-6.001532 18.9835,-5.883964 28.47375,-8.827446 9.49025,-2.943482 12.71745,3.522697 19.07468,5.282546 6.35722,1.759848 4.41116,16.789663 6.61525,25.182995 2.20408,8.393336 1.38168,11.298076 2.07102,16.945616 0.68934,5.64753 0.44845,8.03494 0.67117,12.05091 0.22272,4.01597 8.01632,2.00394 12.02298,3.00441 4.00667,1.00047 61.22298,-29.557766 91.83296,-44.338147 30.60999,-14.780382 50.75724,-25.825424 76.13444,-38.739636 25.3771,-12.914213 37.141,-20.800444 55.7099,-31.202166 18.569,-10.4017218 13.4704,-5.5505483 20.204,-8.3273224 6.7337,-2.7767741 8.631,10.2523004 12.9449,15.3769504 4.314,5.12465 9.4752,34.707624 14.2113,52.059937 4.7361,17.352312 12.8044,31.579444 19.2052,47.367664 6.4007,15.78822 5.1556,28.65517 7.7319,42.98126 2.5764,14.32609 20.8187,103.70122 31.2266,155.55033 10.4078,51.84911 7.6857,124.68204 11.527,187.02156 3.8414,62.33952 0.3729,7.00214 0.5578,10.50171 0.1849,3.49957 -6.5371,5.82438 -9.8072,8.73507 -3.2701,2.9107 -17.9491,13.99598 -26.9252,20.99247 -8.976,6.9965 -4.5639,22.11084 -6.8474,33.16476 -2.2835,11.05392 -2.6774,53.26126 -4.0176,79.89039 -1.3402,26.62912 -5.2827,135.9745 -7.9256,203.96025" />
  </g>
</svg>
