<?xml version="1.0" encoding="UTF-8" standalone="no"?>
<!-- Created with Inkscape (http://www.inkscape.org/) -->

<svg
   version="1.1"
   id="svg2"
   width="1893"
   height="1024"
   viewBox="0 0 1893 1024"
   sodipodi:docname="frame_0028.svg"
   inkscape:version="1.1.2 (0a00cf5339, 2022-02-04)"
   xmlns:inkscape="http://www.inkscape.org/namespaces/inkscape"
   xmlns:sodipodi="http://sodipodi.sourceforge.net/DTD/sodipodi-0.dtd"
   xmlns:xlink="http://www.w3.org/1999/xlink"
   xmlns="http://www.w3.org/2000/svg"
   xmlns:svg="http://www.w3.org/2000/svg">
  <defs
     id="defs6">
    <inkscape:path-effect
       effect="spiro"
       id="path-effect899"
       is_visible="true"
       lpeversion="1" />
    <inkscape:path-effect
       effect="spiro"
       id="path-effect862"
       is_visible="true"
       lpeversion="1" />
  </defs>
  <sodipodi:namedview
     id="namedview4"
     pagecolor="#ffffff"
     bordercolor="#666666"
     borderopacity="1.0"
     inkscape:pageshadow="2"
     inkscape:pageopacity="0.0"
     inkscape:pagecheckerboard="0"
     showgrid="false"
     inkscape:zoom="0.33518225"
     inkscape:cx="1238.1324"
     inkscape:cy="965.14657"
     inkscape:window-width="1850"
     inkscape:window-height="1016"
     inkscape:window-x="70"
     inkscape:window-y="27"
     inkscape:window-maximized="1"
     inkscape:current-layer="g8" />
  <g
     inkscape:groupmode="layer"
     inkscape:label="Image"
     id="g8">
    
    <path
       style="font-variation-settings:normal;opacity:1;vector-effect:none;fill:none;fill-opacity:1;stroke:#c86487;stroke-width:1px;stroke-linecap:butt;stroke-linejoin:miter;stroke-miterlimit:4;stroke-dasharray:none;stroke-dashoffset:0;stroke-opacity:1;-inkscape-stroke:none;stop-color:#000000;stop-opacity:1"
       d="m 1161.0649,862.24112 -525.39267,-0.0575"
       id="path860"
       inkscape:path-effect="#path-effect862"
       inkscape:original-d="m 1161.0649,862.24112 -525.39267,-0.0575" />
    <path
       style="font-variation-settings:normal;opacity:1;vector-effect:none;fill:none;fill-opacity:1;stroke:#c86487;stroke-width:1px;stroke-linecap:butt;stroke-linejoin:miter;stroke-miterlimit:4;stroke-dasharray:none;stroke-dashoffset:0;stroke-opacity:1;-inkscape-stroke:none;stop-color:#000000;stop-opacity:1"
       d="m 635.67223,862.18362 c -19.79876,-38.21224 -35.25378,-78.67298 -45.9722,-120.35369 -11.27002,-43.8257 -17.29492,-89.71268 -10.26135,-134.41429 5.547,-35.25377 19.00327,-68.67877 30.42933,-102.48768 17.13071,-50.68858 29.85525,-102.84302 48.67238,-152.93003 11.03661,-29.37699 24.16279,-58.02676 32.96212,-88.14961 2.93706,-10.05449 5.4011,-20.61521 3.58518,-30.93129 -1.08108,-6.14151 -3.63411,-11.90642 -5.80778,-17.75124 -2.17367,-5.84483 -4.00498,-11.99923 -3.54116,-18.21789 0.48654,-6.52323 3.49583,-12.65724 7.4922,-17.83588 3.99636,-5.17865 8.96203,-9.51485 13.92019,-13.78169 10.26852,-8.83677 20.79001,-17.62344 32.95048,-23.59451 12.16048,-5.97108 26.28106,-8.94605 39.40031,-5.56726 6.78449,1.74731 13.08412,5.13212 18.63525,9.40616 14.14267,10.88902 23.09486,26.97553 33.69293,41.33752 7.14778,9.68632 15.1652,18.71478 23.71496,27.18928 1.34434,1.3325 2.75607,2.68672 4.5278,3.35287 1.10728,0.41633 2.3118,0.54167 3.49162,0.45563 1.17983,-0.0861 2.3376,-0.37887 3.45211,-0.77542 0.86803,-0.30885 1.72144,-0.68569 2.46167,-1.23425 0.74023,-0.54856 1.36533,-1.28139 1.67006,-2.15087 0.33508,-0.95609 0.26101,-2.02901 -0.10011,-2.97557 -0.36112,-0.94656 -0.99458,-1.77293 -1.74123,-2.45768 -1.49332,-1.36951 -3.40097,-2.17704 -5.15319,-3.19451 -3.83161,-2.22491 -6.94794,-5.47774 -9.92206,-8.76195 -26.52176,-29.28701 -45.9555,-64.34062 -71.77219,-94.25101 -1.56592,-1.81422 -3.15811,-3.613075 -4.53669,-5.573435 -1.44137,-2.04964 -2.6584,-4.313733 -3.11199,-6.778041 -0.2268,-1.232155 -0.25806,-2.505433 -0.0322,-3.737761 0.22585,-1.232328 0.71287,-2.422832 1.4642,-3.4254 1.04273,-1.391405 2.56159,-2.378374 4.19129,-2.984463 1.62971,-0.606089 3.37265,-0.851822 5.10829,-0.956007 4.93705,-0.296356 9.95009,0.541324 14.48335,2.519159 8.8794,3.874034 15.32554,11.725801 20.93572,19.623758 4.14746,5.83874 8.08469,11.91584 13.30561,16.81833 2.61046,2.45124 5.53704,4.59304 8.77866,6.11456 3.24161,1.52151 6.80837,2.4105 10.38859,2.33913 6.35545,-0.1267 12.30225,-3.23514 17.36096,-7.08446 5.0587,-3.84933 9.4761,-8.48424 14.50481,-12.37267 8.80573,-6.808989 19.26047,-11.157013 29.84219,-14.611069 10.58172,-3.454056 21.4276,-6.094592 31.88087,-9.919815 38.30701,-14.017891 68.9382,-42.872516 102.6307,-65.866986 2.8679,-1.957299 5.872,-3.919878 9.2911,-4.52461 3.3673,-0.595561 6.8801,0.204341 9.9238,1.762881 3.0436,1.55854 5.6621,3.838816 8.0366,6.299516 10.5129,10.894766 16.4992,25.278046 21.9239,39.412734 12.4863,32.534308 23.2451,65.701409 33.8484,98.897169 20.7464,64.9507 41.0561,130.75627 46.3629,198.73306 3.717,47.61326 0.061,96.1174 10.8264,142.64631 0.724,3.12903 1.5143,6.38771 0.7708,9.51216 -0.6284,2.64056 -2.3241,4.93985 -4.4043,6.68344 -2.0802,1.74358 -4.5359,2.97911 -7.0289,4.05268 -2.493,1.07357 -5.051,2.0029 -7.4779,3.21842 -2.4269,1.21553 -4.745,2.74271 -6.4939,4.81848 -1.8158,2.15525 -2.9457,4.8203 -3.6339,7.55321 -0.6881,2.73291 -0.9567,5.55147 -1.2158,8.35775 -3.1976,34.63312 -5.2861,69.36771 -6.3204,104.13275 -2.1285,71.54337 0.2116,143.2194 7.0022,214.47158"
       id="path897"
       inkscape:path-effect="#path-effect899"
       inkscape:original-d="m 635.67223,862.18362 c -15.32307,-40.1169 -30.64713,-80.2348 -45.9722,-120.35369 -15.32507,-40.1189 -6.8399,-89.60853 -10.26135,-134.41429 -3.42145,-44.80577 20.28722,-68.32412 30.42933,-102.48768 10.14211,-34.16356 32.44925,-101.95235 48.67238,-152.93003 16.22312,-50.97767 21.97574,-58.76541 32.96212,-88.14961 10.98637,-29.38421 2.39112,-20.61986 3.58518,-30.93129 1.19406,-10.31142 -6.23163,-23.97842 -9.34894,-35.96913 -3.11732,-11.99071 14.27593,-21.07738 21.41239,-31.61757 7.13647,-10.54018 48.23486,-19.44018 72.35079,-29.16177 24.11593,-9.72159 12.4245,6.27178 18.63525,9.40616 6.21074,3.13439 22.46295,27.55935 33.69293,41.33752 11.22998,13.77817 15.81097,18.12719 23.71496,27.18928 7.90399,9.0621 3.01953,2.23625 4.5278,3.35287 1.50826,1.11663 4.63016,-0.2122 6.94373,-0.31979 2.31358,-0.1076 2.75549,-2.25575 4.13173,-3.38512 1.37625,-1.12937 -4.66202,-5.75084 -6.99453,-8.62776 -2.33251,-2.87692 -6.61371,-5.8403 -9.92206,-8.76195 -3.30835,-2.92166 -47.84712,-62.83301 -71.77219,-94.25101 -23.92506,-31.418001 -3.02346,-3.714623 -4.53669,-5.573435 -1.51324,-1.858813 -1.119,-9.293135 -1.68,-13.941202 -0.56099,-4.648067 6.20072,-2.62598 9.29958,-3.94047 3.09886,-1.31449 9.65657,1.680439 14.48335,2.519159 4.82679,0.838719 13.95815,13.083506 20.93572,19.623758 6.97758,6.54025 21.64958,16.84901 32.47286,25.27202 10.82329,8.423 21.24485,-12.97042 31.86577,-19.45713 10.62092,-6.48671 41.1497,-16.352922 61.72306,-24.530884 20.57335,-8.177962 68.4215,-43.910324 102.6307,-65.866986 34.2092,-21.9566615 6.1951,-3.015406 9.2911,-4.52461 3.0961,-1.509203 11.9746,5.375931 17.9604,8.062397 5.9858,2.686466 14.6169,26.276156 21.9239,39.412734 7.307,13.136578 22.5666,65.932449 33.8484,98.897169 11.2817,32.96472 30.9096,132.4897 46.3629,198.73306 15.4533,66.24335 7.2186,95.09854 10.8264,142.64631 3.6078,47.54777 0.5148,6.34244 0.7708,9.51216 0.2559,3.16973 -16.9357,12.51635 -25.405,18.77302 -8.4694,6.25668 -3.2322,10.60831 -4.8497,15.91096 -1.6176,5.30265 -4.2126,69.42283 -6.3204,104.13275 -2.1078,34.70991 4.6691,142.98205 7.0022,214.47158" />
  </g>
</svg>
