<?xml version="1.0" encoding="UTF-8" standalone="no"?>
<!-- Created with Inkscape (http://www.inkscape.org/) -->

<svg
   version="1.1"
   id="svg2"
   width="1893"
   height="1024"
   viewBox="0 0 1893 1024"
   sodipodi:docname="frame_0037.svg"
   inkscape:version="1.1.2 (0a00cf5339, 2022-02-04)"
   xmlns:inkscape="http://www.inkscape.org/namespaces/inkscape"
   xmlns:sodipodi="http://sodipodi.sourceforge.net/DTD/sodipodi-0.dtd"
   xmlns:xlink="http://www.w3.org/1999/xlink"
   xmlns="http://www.w3.org/2000/svg"
   xmlns:svg="http://www.w3.org/2000/svg">
  <defs
     id="defs6">
    <inkscape:path-effect
       effect="spiro"
       id="path-effect899"
       is_visible="true"
       lpeversion="1" />
    <inkscape:path-effect
       effect="spiro"
       id="path-effect862"
       is_visible="true"
       lpeversion="1" />
  </defs>
  <sodipodi:namedview
     id="namedview4"
     pagecolor="#ffffff"
     bordercolor="#666666"
     borderopacity="1.0"
     inkscape:pageshadow="2"
     inkscape:pageopacity="0.0"
     inkscape:pagecheckerboard="0"
     showgrid="false"
     inkscape:zoom="1.8960771"
     inkscape:cx="1239.9285"
     inkscape:cy="772.38419"
     inkscape:window-width="1850"
     inkscape:window-height="1016"
     inkscape:window-x="70"
     inkscape:window-y="27"
     inkscape:window-maximized="1"
     inkscape:current-layer="g8" />
  <g
     inkscape:groupmode="layer"
     inkscape:label="Image"
     id="g8">
    
    <path
       style="font-variation-settings:normal;opacity:1;vector-effect:none;fill:none;fill-opacity:1;stroke:#c86487;stroke-width:1px;stroke-linecap:butt;stroke-linejoin:miter;stroke-miterlimit:4;stroke-dasharray:none;stroke-dashoffset:0;stroke-opacity:1;-inkscape-stroke:none;stop-color:#000000;stop-opacity:1"
       d="m 1160.7466,862.71929 -525.25701,0.10826"
       id="path860"
       inkscape:path-effect="#path-effect862"
       inkscape:original-d="m 1160.7466,862.71929 -525.25701,0.10826" />
    <path
       style="font-variation-settings:normal;opacity:1;vector-effect:none;fill:none;fill-opacity:1;stroke:#c86487;stroke-width:1px;stroke-linecap:butt;stroke-linejoin:miter;stroke-miterlimit:4;stroke-dasharray:none;stroke-dashoffset:0;stroke-opacity:1;-inkscape-stroke:none;stop-color:#000000;stop-opacity:1"
       d="M 635.48959,862.82755 C 617.08418,810.68348 605.16619,756.2532 600.0974,701.18896 c -4.68874,-50.93561 -3.5236,-102.37397 2.85226,-153.12601 3.91399,-31.15548 9.80222,-62.12675 19.07841,-92.12567 7.16868,-23.18331 16.32905,-45.69308 25.42605,-68.18975 9.4909,-23.47077 18.93679,-46.99398 26.49662,-71.156 4.32622,-13.82705 8.06239,-27.93335 14.42936,-40.94739 2.62074,-5.35677 5.70503,-10.57897 7.08064,-16.38164 1.64446,-6.93676 0.73054,-14.18536 0.85734,-21.31325 0.0787,-4.42232 0.56188,-8.83061 0.6201,-13.25324 0.0582,-4.42264 -0.3254,-8.92001 -1.91162,-13.04881 -0.88428,-2.3017 -2.12518,-4.44576 -3.26115,-6.63421 -1.13598,-2.18845 -2.18072,-4.46006 -2.62675,-6.8851 -0.71377,-3.88078 0.16874,-7.93425 1.88656,-11.48658 1.71781,-3.55233 4.2319,-6.65867 6.90056,-9.56525 7.79364,-8.48847 17.06009,-15.53102 26.87361,-21.5717 10.75728,-6.62161 22.21379,-12.08254 34.04457,-16.50944 5.80499,-2.17214 11.77195,-4.11175 17.94981,-4.61189 6.17786,-0.50013 12.64238,0.54304 17.82379,3.94438 3.23634,2.1245 5.85085,5.07569 8.12502,8.20867 2.27418,3.13297 4.24453,6.47549 6.45761,9.65192 6.43022,9.22927 14.79345,16.90403 22.53393,25.06566 10.43737,11.00525 19.80218,22.96946 29.29787,34.7968 2.0175,2.5129 4.07833,5.05525 6.71607,6.90654 1.31887,0.92564 2.77663,1.66886 4.33252,2.08774 1.55588,0.41888 3.21295,0.50624 4.78379,0.14751 0.94812,-0.21652 1.86898,-0.59952 2.63128,-1.20342 0.76231,-0.6039 1.35859,-1.43914 1.58654,-2.38457 0.20884,-0.86618 0.1017,-1.79248 -0.22249,-2.62241 -0.32419,-0.82994 -0.85731,-1.56769 -1.48507,-2.19999 -1.25553,-1.26461 -2.86249,-2.10545 -4.36374,-3.06556 -6.97005,-4.45762 -11.74661,-11.55394 -16.30242,-18.46022 -21.49517,-32.58513 -42.87079,-65.8141 -71.42923,-92.42704 -2.54151,-2.36838 -5.21143,-4.783755 -6.58263,-7.975671 -1.01314,-2.358422 -1.2382,-5.025864 -0.77525,-7.5506 0.46294,-2.524736 1.59707,-4.906093 3.15155,-6.948688 1.90148,-2.498548 4.4588,-4.517585 7.38657,-5.651827 2.92777,-1.134241 6.22336,-1.359939 9.2419,-0.495778 2.72817,0.781032 5.14664,2.404278 7.28732,4.267189 2.14067,1.862912 4.04462,3.979074 6.08666,5.949603 6.18634,5.969699 13.77716,10.765078 18.14125,18.172022 2.5852,4.38771 3.85701,9.41751 6.06591,14.0062 1.10445,2.29434 2.45763,4.49441 4.23923,6.31367 1.78161,1.81926 4.01657,3.2469 6.49924,3.81275 2.7948,0.637 5.74983,0.15453 8.43557,-0.84723 2.68573,-1.00176 5.1518,-2.50209 7.61525,-3.96773 9.47486,-5.63709 19.17347,-10.88879 28.70657,-16.42681 4.19564,-2.43735 8.3725,-4.93699 12.82173,-6.873068 4.44923,-1.936077 9.21269,-3.304123 14.06466,-3.35314 3.46448,-0.035 6.89627,0.599858 10.34526,0.928971 3.44899,0.329113 7.02383,0.336043 10.26149,-0.897411 3.69849,-1.409015 6.62324,-4.304814 9.1721,-7.332597 2.54885,-3.027782 4.8688,-6.294025 7.89936,-8.839581 3.28033,-2.755356 7.26506,-4.551026 11.33465,-5.889288 4.0696,-1.338262 8.26582,-2.250611 12.37857,-3.449725 16.77002,-4.889476 31.7863,-14.426603 45.9322,-24.675233 14.1459,-10.24863 27.7387,-21.365174 42.9019,-30.037999 1.3795,-0.789053 2.7999,-1.568077 4.3589,-1.876932 1.4724,-0.291703 3.0168,-0.144818 4.4406,0.330437 1.4237,0.475254 2.7295,1.271403 3.8691,2.248337 2.2791,1.953868 3.8691,4.580849 5.2624,7.239938 5.437,10.376386 8.4253,21.820843 11.9983,32.977199 11.2642,35.17182 28.5983,68.095802 41.1758,102.819652 19.666,54.29374 27.3926,112.02362 38.2138,168.74632 9.8886,51.83404 22.5137,104.42286 15.9031,156.77601 -0.5903,4.67517 -1.3331,9.32979 -1.9583,14.00043 -0.4823,3.60362 -0.8971,7.22958 -1.8154,10.74744 -0.9184,3.51786 -2.3698,6.95581 -4.7121,9.73656 -3.6289,4.30832 -9.0255,6.66284 -13.4,10.21173 -4.0338,3.27247 -7.1718,7.55641 -9.534,12.18242 -2.3623,4.62601 -3.9759,9.59972 -5.2812,14.62728 -7.6822,29.58814 -4.8367,60.73995 -2.5929,91.22666 5.2802,71.74168 6.9257,143.75075 4.9282,215.65874"
       id="path897"
       inkscape:path-effect="#path-effect899"
       inkscape:original-d="M 635.48959,862.82755 C 623.69319,808.94902 611.8958,755.06949 600.0974,701.18896 c -11.79839,-53.88053 1.90251,-102.08301 2.85226,-153.12601 0.94975,-51.043 12.71994,-61.41611 19.07841,-92.12567 6.35847,-30.70956 16.9517,-45.45884 25.42605,-68.18975 8.47435,-22.73092 17.66541,-47.43634 26.49662,-71.156 8.8312,-23.71967 9.62057,-27.29726 14.42936,-40.94739 4.80879,-13.65013 4.72143,-10.92009 7.08064,-16.38164 2.35922,-5.46155 0.57256,-14.20783 0.85734,-21.31325 0.28478,-7.10541 -0.86001,-17.5337 -1.29152,-26.30205 -0.4315,-8.76835 -3.92426,-9.01187 -5.8879,-13.51931 -1.96363,-4.50743 5.85908,-14.03355 8.78712,-21.05183 2.92803,-7.01827 17.91674,-14.38013 26.87361,-21.5717 8.95687,-7.19156 22.69738,-11.00529 34.04457,-16.50944 11.3472,-5.50415 23.85007,-0.44401 35.7736,-0.66751 11.92353,-0.22351 9.72275,11.90806 14.58263,17.86059 4.85987,5.95253 15.02362,16.71144 22.53393,25.06566 7.51031,8.35423 19.53291,23.19887 29.29787,34.7968 9.76496,11.59794 10.55592,6.09553 15.83238,9.14179 5.27646,3.04626 2.81288,-2.39099 4.21782,-3.58799 1.40494,-1.19699 -4.04654,-5.25764 -6.0713,-7.88796 -2.02477,-2.63032 -10.86728,-12.30582 -16.30242,-18.46022 -5.43514,-6.15441 -47.61849,-61.61703 -71.42923,-92.42704 -23.81075,-30.810016 -4.38742,-5.316115 -6.58263,-7.975671 -2.19521,-2.659556 1.5852,-9.665192 2.3763,-14.499288 0.7911,-4.834096 11.08665,-4.097403 16.62847,-6.147605 5.54182,-2.050202 8.91699,6.812195 13.37398,10.216792 4.45699,3.404598 12.09517,12.11568 18.14125,18.172022 6.04609,6.05634 11.20392,16.08941 16.80438,24.13262 5.60046,8.0432 10.70155,-3.20897 16.05082,-4.81496 5.34927,-1.60599 19.13871,-10.95021 28.70657,-16.42681 9.56786,-5.4766 17.92526,-6.816472 26.88639,-10.226208 8.96113,-3.409736 13.73883,0.02204 20.60675,0.03156 6.86792,0.0095 11.38197,-10.780452 17.07146,-16.172178 5.68949,-5.391725 15.80982,-6.225008 23.71322,-9.339013 7.90341,-3.114004 59.2237,-36.474488 88.8341,-54.713232 29.6104,-18.2387441 2.9069,-1.250288 4.3589,-1.876932 1.452,-0.626644 9.0491,6.546808 13.5721,9.818712 4.5231,3.271904 7.9999,21.985799 11.9983,32.977199 3.9984,10.9914 27.4515,68.547432 41.1758,102.819652 13.7243,34.27221 25.4768,112.49855 38.2138,168.74632 12.7369,56.24778 10.603,104.51834 15.9031,156.77601 5.3,52.25767 -1.3045,9.33462 -1.9583,14.00043 -0.6537,4.66581 -4.3507,13.657 -6.5275,20.484 -2.1769,6.82699 -8.9323,6.80882 -13.4,10.21173 -4.4677,3.40292 -9.8758,17.87413 -14.8152,26.8097 -4.9394,8.93557 -1.7276,60.81877 -2.5929,91.22666 -0.8653,30.40788 3.2865,143.77349 4.9282,215.65874" />
  </g>
</svg>
