<?xml version="1.0" encoding="UTF-8" standalone="no"?>
<!-- Created with Inkscape (http://www.inkscape.org/) -->

<svg
   version="1.1"
   id="svg2"
   width="1893"
   height="1024"
   viewBox="0 0 1893 1024"
   xmlns:xlink="http://www.w3.org/1999/xlink"
   xmlns="http://www.w3.org/2000/svg"
   xmlns:svg="http://www.w3.org/2000/svg">
  <defs
     id="defs6" />
  <g
     id="g8">
    
    <path
       style="font-variation-settings:normal;opacity:1;vector-effect:none;fill:none;fill-opacity:1;stroke:#c86487;stroke-width:1px;stroke-linecap:butt;stroke-linejoin:miter;stroke-miterlimit:4;stroke-dasharray:none;stroke-dashoffset:0;stroke-opacity:1;-inkscape-stroke:none;stop-color:#000000;stop-opacity:1"
       d="m 1160.4751,862.68824 -524.91919,0.10357"
       id="path860" />
    <path
       style="font-variation-settings:normal;opacity:1;vector-effect:none;fill:none;fill-opacity:1;stroke:#c86487;stroke-width:1px;stroke-linecap:butt;stroke-linejoin:miter;stroke-miterlimit:4;stroke-dasharray:none;stroke-dashoffset:0;stroke-opacity:1;-inkscape-stroke:none;stop-color:#000000;stop-opacity:1"
       d="m 635.55591,862.79181 c -1.09977,-86.88501 -7.76716,-173.69917 -19.94769,-259.73317 -5.55297,-39.22192 -12.1451,-79.98107 -0.29838,-117.78119 5.52719,-17.63596 14.85294,-33.78662 23.25468,-50.24832 18.63077,-36.50361 32.91929,-75.02822 47.85017,-113.1948 11.41068,-29.16819 23.3813,-58.91136 24.5252,-90.21117 0.30849,-8.4409 -0.18021,-16.89339 0.033,-25.33723 0.21318,-8.44385 1.1562,-16.98206 4.20244,-24.86016 3.3729,-8.72289 9.2121,-16.31742 15.89898,-22.85583 6.68688,-6.53842 14.24245,-12.10919 21.71338,-17.73506 8.62594,-6.49562 17.35945,-13.19673 27.53725,-16.804 5.08889,-1.80364 10.50728,-2.7966 15.89716,-2.48162 5.38987,0.31498 10.75154,1.97846 15.14027,5.12315 3.99009,2.85905 7.05731,6.82807 9.65065,10.99575 2.59334,4.16769 4.76895,8.5834 7.3478,12.76007 9.24634,14.97528 23.31303,26.34638 33.73608,40.52785 3.70141,5.0361 6.92938,10.40881 10.67539,15.41182 3.74602,5.00301 8.08769,9.69216 13.48143,12.84974 1.15278,0.67486 2.38424,1.28744 3.71354,1.41895 0.66465,0.0657 1.34662,0.007 1.97514,-0.21916 0.62853,-0.22592 1.20147,-0.62369 1.59493,-1.16339 0.51686,-0.70896 0.69779,-1.63216 0.58241,-2.50191 -0.11539,-0.86975 -0.51027,-1.68708 -1.04286,-2.3843 -1.06517,-1.39446 -2.62862,-2.2989 -4.07498,-3.29244 -5.53086,-3.7993 -9.71741,-9.2613 -13.19072,-15.00248 -3.47332,-5.74118 -6.32459,-11.84001 -9.78093,-17.59143 -8.54825,-14.22447 -20.56171,-25.968 -31.83136,-38.15009 -12.33916,-13.33818 -24.05995,-27.59467 -31.59919,-44.12712 -1.18969,-2.608826 -2.28071,-5.299422 -2.70435,-8.135242 -0.42364,-2.835821 -0.13175,-5.856745 1.30552,-8.337794 1.37443,-2.372581 3.71015,-4.09252 6.26616,-5.085004 2.55601,-0.992484 5.32978,-1.306398 8.07161,-1.330212 10.20998,-0.08868 20.52745,3.988845 27.41624,11.525167 6.0827,6.654469 9.20436,15.409315 12.41697,23.833115 1.26009,3.30407 2.56882,6.61941 4.48328,9.59254 1.91446,2.97314 4.49355,5.61438 7.72371,7.05339 2.36804,1.05494 5.01503,1.42693 7.59928,1.22168 2.58425,-0.20525 5.1072,-0.97562 7.43939,-2.10761 4.66437,-2.26397 8.50722,-5.90793 12.04465,-9.69852 3.32665,-3.56473 6.46533,-7.31928 10.07742,-10.59444 3.61209,-3.27517 7.77099,-6.090395 12.47408,-7.376795 6.33828,-1.733661 13.10761,-0.572365 19.60954,-1.523322 8.20057,-1.199396 15.4901,-5.655197 22.84275,-9.479636 17.36302,-9.031268 36.19002,-14.914812 53.84678,-23.357375 16.6259,-7.949671 32.2561,-18.23728 45.1946,-31.3603 5.1096,-5.182421 9.8531,-10.847412 15.9041,-14.891114 3.0254,-2.021851 6.3711,-3.616479 9.93,-4.374694 3.559,-0.758216 7.342,-0.651964 10.7548,0.610589 2.9898,1.106073 5.6161,3.062267 7.8036,5.381138 2.1875,2.318871 3.9591,4.998153 5.5606,7.754519 6.1797,10.635749 9.9279,22.494634 15.385,33.518575 5.0898,10.281902 11.6446,19.793545 16.5899,30.14573 9.1186,19.088405 12.4584,40.320485 16.5196,61.081575 13.3825,68.41265 35.679,135.28242 41.8957,204.71394 4.6686,52.14165 0.2248,105.34661 11.9301,156.37145 0.3995,1.74137 0.8191,3.54723 0.4528,5.29588 -0.2627,1.25411 -0.9238,2.40405 -1.7811,3.35628 -0.8574,0.95223 -1.9064,1.71625 -3.0133,2.36176 -2.2137,1.29101 -4.6738,2.12862 -6.847,3.48663 -4.6776,2.92291 -7.5799,7.94291 -10.0374,12.8809 -9.1427,18.37083 -14.7222,38.38156 -17.816,58.66713 -2.7246,17.86452 -3.5524,35.95752 -4.3326,54.01176 -3.0423,70.39955 -5.4194,140.82783 -7.131,211.27229"
       id="path897" />
  </g>
</svg>
