<?xml version="1.0" encoding="UTF-8" standalone="no"?>
<!-- Created with Inkscape (http://www.inkscape.org/) -->

<svg
   version="1.1"
   id="svg2"
   width="1893"
   height="1024"
   viewBox="0 0 1893 1024"
   sodipodi:docname="frame_0006.svg"
   inkscape:version="1.1.2 (0a00cf5339, 2022-02-04)"
   xmlns:inkscape="http://www.inkscape.org/namespaces/inkscape"
   xmlns:sodipodi="http://sodipodi.sourceforge.net/DTD/sodipodi-0.dtd"
   xmlns:xlink="http://www.w3.org/1999/xlink"
   xmlns="http://www.w3.org/2000/svg"
   xmlns:svg="http://www.w3.org/2000/svg">
  <sodipodi:namedview
     id="namedview8"
     pagecolor="#ffffff"
     bordercolor="#666666"
     borderopacity="1.0"
     inkscape:pageshadow="2"
     inkscape:pageopacity="0.0"
     inkscape:pagecheckerboard="0"
     showgrid="false"
     inkscape:zoom="1.8826298"
     inkscape:cx="777.63564"
     inkscape:cy="321.0934"
     inkscape:window-width="1850"
     inkscape:window-height="1016"
     inkscape:window-x="70"
     inkscape:window-y="27"
     inkscape:window-maximized="1"
     inkscape:current-layer="g8" />
  <defs
     id="defs6" />
  <g
     id="g8">
    
    <path
       style="fill:none;stroke:#c86487;stroke-width:1px;stroke-linecap:butt;stroke-linejoin:miter;stroke-opacity:1"
       d="m 635.75533,862.66001 524.81507,-0.22399"
       id="path896"
       sodipodi:nodetypes="cc" />
    <path
       style="fill:none;stroke:#c86487;stroke-width:1px;stroke-linecap:butt;stroke-linejoin:miter;stroke-opacity:1"
       d="m 635.75533,862.66001 c -8.07556,-52.35666 -35.15665,-58.04101 -38.82476,-109.36575 -2.767,-38.71634 0.57193,-122.21585 2.55691,-160.98016 2.03649,-39.77007 -2.8745,-80.64584 8.79316,-118.72039 10.52596,-34.3489 33.98258,-64.15832 40.94224,-99.40326 2.24965,-11.39263 7.88849,-21.07285 11.03028,-32.25239 2.9733,-10.58 4.38868,-21.80773 7.67321,-33.45553 2.26931,-8.04756 6.05877,-14.95843 11.46869,-21.33382 5.40991,-6.3754 10.36848,-13.51999 11.96429,-21.72768 1.5529,-7.987 -0.22613,-16.25755 -2.84023,-23.96275 -2.6141,-7.70521 -6.07105,-15.13954 -8.03273,-23.03609 -2.05868,-8.28703 -2.37485,-17.26063 0.8045,-25.18558 2.21006,-5.50886 5.99145,-10.25021 10.12857,-14.50651 4.13713,-4.2563 8.67445,-8.11027 12.7807,-12.39637 5.56453,-5.80825 10.48693,-12.52886 17.52625,-16.42087 7.81866,-4.3229 17.25884,-4.59173 25.48091,-8.08696 2.88453,-1.22622 5.58966,-2.83807 8.44407,-4.13285 2.85441,-1.29478 5.93476,-2.2807 9.06588,-2.13859 3.96005,0.17974 7.62386,2.14037 10.85615,4.43527 6.579,4.67105 11.95737,10.86061 16.55372,17.49201 3.51439,5.0704 6.62269,10.44827 10.6509,15.12089 5.3169,6.16747 12.13675,10.98736 16.92837,17.57124 2.29853,3.15827 4.08012,6.65711 6.15093,9.96915 2.07081,3.31205 4.49907,6.50325 7.74718,8.67296 2.16414,1.44563 3.76526,3.24971 6.13083,4.3348 2.36557,1.08508 4.2332,2.78515 5.95847,4.73368 1.6559,1.87019 3.95955,2.94621 4.95863,5.23564 0.8717,1.99754 1.81448,4.0191 3.33473,5.58078 0.76013,0.78084 1.66143,1.43552 2.67337,1.83985 1.01194,0.40433 2.1377,0.55052 3.20623,0.33663 1.59099,-0.31846 2.96146,-1.42645 3.79711,-2.81726 0.83565,-1.39081 1.17208,-3.04035 1.17439,-4.6629 0.005,-3.66743 -1.62957,-7.17853 -3.84708,-10.09962 -2.2175,-2.92109 -5.0064,-5.34766 -7.69668,-7.84014 -6.18649,-5.73164 -11.98864,-11.96961 -16.42544,-19.14172 -4.50641,-7.28464 -7.60995,-15.52821 -13.33667,-21.89833 -5.5982,-6.22715 -13.37757,-10.27493 -18.57291,-16.84193 -2.85468,-3.60836 -4.8078,-7.82991 -6.77374,-11.98978 -1.96595,-4.15987 -4.00412,-8.35273 -6.99249,-11.85118 -4.20332,-4.92078 -10.01273,-8.15581 -15.81343,-11.02528 -3.34004,-1.65223 -6.76084,-3.24342 -9.63545,-5.61458 -1.4373,-1.18558 -2.72817,-2.5641 -3.7097,-4.14777 -0.98153,-1.58368 -1.64767,-3.378329 -1.8112,-5.234317 -0.21618,-2.453512 0.45917,-4.944416 1.7053,-7.068941 1.24613,-2.124525 3.04209,-3.895537 5.06672,-5.298158 2.51328,-1.74115 5.42635,-2.945361 8.46561,-3.278655 2.74565,-0.301095 5.54012,0.110297 8.1693,0.956856 2.62917,0.846559 5.10379,2.119915 7.46247,3.557228 4.31479,2.629311 8.31525,5.860659 11.39206,9.868638 2.59763,3.383777 4.50393,7.271849 7.25226,10.534409 2.12104,2.51789 4.69515,4.60578 7.13001,6.82164 2.43485,2.21587 4.77978,4.62309 6.27104,7.55817 0.60638,1.19348 1.06578,2.46945 1.26735,3.79288 0.20158,1.32342 0.13986,2.69654 -0.26826,3.9715 -0.48017,1.50006 -1.41327,2.80773 -2.09617,4.22703 -0.34145,0.70965 -0.62258,1.4554 -0.74212,2.2338 -0.11953,0.77839 -0.0713,1.59372 0.22618,2.32291 0.24739,0.60649 0.66278,1.13993 1.1741,1.5493 0.51133,0.40938 1.11664,0.6961 1.75123,0.85837 1.26918,0.32453 2.62852,0.14918 3.85983,-0.29806 1.56688,-0.56912 2.9494,-1.55836 4.19759,-2.66337 1.24818,-1.10501 2.38057,-2.33374 3.59457,-3.4762 6.53923,-6.1539 15.11621,-9.54317 23.11763,-13.61863 9.54387,-4.8611 18.56337,-10.88201 28.67071,-14.42566 6.95277,-2.43765 14.26322,-3.64528 21.45623,-5.2402 7.19301,-1.594923 14.41158,-3.634254 20.66527,-7.529697 5.89521,-3.672147 10.73102,-8.870314 16.67063,-12.470205 4.20157,-2.546497 8.8551,-4.232699 13.4353,-6.010222 8.47936,-3.290739 16.92045,-7.007933 24.07602,-12.62277 5.92009,-4.645383 10.80033,-10.464522 16.32735,-15.571299 7.6486,-7.067091 16.4921,-12.730456 24.2738,-19.650806 2.8481,-2.532816 5.5571,-5.23659 8.6233,-7.50042 3.0662,-2.263831 6.5575,-4.096078 10.3358,-4.597368 3.2459,-0.430663 6.5684,0.143555 9.6472,1.258382 3.0788,1.114826 5.9391,2.756191 8.7058,4.507435 6.583,4.166811 12.9021,9.19175 16.7181,15.98409 3.5126,6.252248 4.6436,13.508673 6.4354,20.452633 3.187,12.350912 8.5792,23.997135 13.4152,35.800322 6.2168,15.173415 11.5434,30.692955 16.9797,46.163185 7.243,20.61162 14.6924,41.16893 20.7583,62.15713 5.639,19.51115 10.069,39.34853 14.3794,59.19556 7.2222,33.25478 14.1318,66.65823 17.463,100.5248 2.7106,27.55699 3.0459,55.36514 7.3185,82.7235 2.3414,14.99265 5.872,29.97621 5.1772,45.13468 -0.6502,14.18432 -5.0413,28.08086 -11.8994,40.51404 -3.0707,5.56699 -6.6364,10.87074 -9.3029,16.64228 -2.1454,4.64361 -3.6878,9.54905 -4.863,14.52746 -5.4627,23.14074 -2.9812,47.30732 -1.0563,71.00606 6.3452,78.1216 13.3986,153.08757 6.9396,231.19984"
       id="path1108"
       sodipodi:nodetypes="csssssssssssssssssssssssssssssscssssssssssssssssssssssssssssssssssssssssssssssssssssssssc" />
  </g>
</svg>
