<?xml version="1.0" encoding="UTF-8" standalone="no"?>
<!-- Created with Inkscape (http://www.inkscape.org/) -->

<svg
   version="1.1"
   id="svg2"
   width="1893"
   height="1024"
   viewBox="0 0 1893 1024"
   sodipodi:docname="frame_0060.svg"
   inkscape:version="1.1.2 (0a00cf5339, 2022-02-04)"
   xmlns:inkscape="http://www.inkscape.org/namespaces/inkscape"
   xmlns:sodipodi="http://sodipodi.sourceforge.net/DTD/sodipodi-0.dtd"
   xmlns:xlink="http://www.w3.org/1999/xlink"
   xmlns="http://www.w3.org/2000/svg"
   xmlns:svg="http://www.w3.org/2000/svg">
  <defs
     id="defs6">
    <inkscape:path-effect
       effect="spiro"
       id="path-effect1012"
       is_visible="true"
       lpeversion="1" />
    <inkscape:path-effect
       effect="spiro"
       id="path-effect862"
       is_visible="true"
       lpeversion="1" />
  </defs>
  <sodipodi:namedview
     id="namedview4"
     pagecolor="#ffffff"
     bordercolor="#666666"
     borderopacity="1.0"
     inkscape:pageshadow="2"
     inkscape:pageopacity="0.0"
     inkscape:pagecheckerboard="0"
     showgrid="false"
     inkscape:zoom="0.23700964"
     inkscape:cx="995.74008"
     inkscape:cy="778.44934"
     inkscape:window-width="1850"
     inkscape:window-height="1016"
     inkscape:window-x="70"
     inkscape:window-y="27"
     inkscape:window-maximized="1"
     inkscape:current-layer="g8" />
  <g
     inkscape:groupmode="layer"
     inkscape:label="Image"
     id="g8">
    
    <path
       style="font-variation-settings:normal;opacity:1;vector-effect:none;fill:none;fill-opacity:1;stroke:#c86487;stroke-width:1px;stroke-linecap:butt;stroke-linejoin:miter;stroke-miterlimit:4;stroke-dasharray:none;stroke-dashoffset:0;stroke-opacity:1;-inkscape-stroke:none;stop-color:#000000;stop-opacity:1"
       d="m 1160.8695,862.46742 -525.16387,0.14863"
       id="path860"
       inkscape:path-effect="#path-effect862"
       inkscape:original-d="m 1160.8695,862.46742 -525.16387,0.14863" />
    <path
       style="font-variation-settings:normal;opacity:1;vector-effect:none;fill:none;fill-opacity:1;stroke:#c86487;stroke-width:1px;stroke-linecap:butt;stroke-linejoin:miter;stroke-miterlimit:4;stroke-dasharray:none;stroke-dashoffset:0;stroke-opacity:1;-inkscape-stroke:none;stop-color:#000000;stop-opacity:1"
       d="m 635.70563,862.61605 c -14.51445,-83.41908 -21.53984,-168.13974 -20.96407,-252.81016 0.27625,-40.62373 2.33826,-81.52377 11.82907,-121.02425 6.18975,-25.76155 15.48609,-50.68801 26.02503,-74.99647 11.98399,-27.64154 25.60525,-54.5857 36.4339,-82.69995 12.43568,-32.28655 21.15145,-66.1634 23.71631,-100.66686 1.34688,-18.11874 1.14827,-36.99911 8.96194,-53.40183 5.95198,-12.49461 16.06641,-22.44038 26.07884,-31.99509 6.42666,-6.13286 12.92532,-12.24467 20.20202,-17.34012 7.2767,-5.09545 15.40653,-9.17312 24.13749,-10.81154 7.33065,-1.37564 15.28559,-0.89767 21.69155,2.9226 4.41693,2.63409 7.82772,6.67804 10.65644,10.97292 2.82871,4.29488 5.15637,8.90183 7.94832,13.2207 6.75025,10.44195 16.03177,18.94318 24.58514,27.9676 8.55337,9.02441 16.6532,19.03159 20.15095,30.96331 0.61434,2.09567 1.08086,4.23415 1.75433,6.31158 0.67348,2.07742 1.56871,4.11437 2.94264,5.81189 1.37394,1.69752 3.26864,3.0396 5.4153,3.44097 1.07334,0.20068 2.19594,0.16185 3.24073,-0.15552 1.0448,-0.31736 2.00842,-0.91735 2.72143,-1.74435 0.69092,-0.80138 1.13578,-1.80044 1.33965,-2.83872 0.20388,-1.03827 0.17262,-2.11502 -0.0201,-3.15543 -0.38538,-2.08081 -1.39531,-3.98728 -2.43837,-5.82857 -13.8501,-24.44921 -35.67979,-43.70087 -49.06168,-68.40946 -5.23491,-9.66584 -9.09222,-20.02527 -12.26026,-30.55125 -0.76662,-2.54712 -1.54621,-5.20223 -3.33184,-7.173793 -1.41799,-1.565632 -3.37229,-2.568848 -5.40102,-3.157179 -2.02874,-0.58833 -4.14687,-0.78982 -6.25198,-0.964208 -2.10511,-0.174388 -4.22311,-0.326115 -6.27686,-0.820068 -2.05375,-0.493953 -4.06175,-1.353178 -5.61822,-2.781212 -1.8939,-1.737613 -3.0059,-4.255606 -3.1869,-6.819469 -0.181,-2.563862 0.53672,-5.156553 1.86155,-7.359043 1.32484,-2.20249 3.23719,-4.023338 5.41052,-5.395493 2.17332,-1.372155 4.60385,-2.306905 7.0986,-2.92528 5.12864,-1.271241 10.55626,-1.214225 15.70745,-0.03764 5.15118,1.176588 10.02669,3.457123 14.3556,6.486899 4.31666,3.021196 8.11949,6.808087 10.98511,11.229557 2.86561,4.42147 4.77973,9.48358 5.3506,14.721446 0.61554,5.64765 -0.31595,11.41649 0.68919,17.00796 0.48292,2.68642 1.42241,5.31229 2.94389,7.57837 1.52149,2.26607 3.644,4.16063 6.16024,5.21827 2.36511,0.99411 5.01313,1.22487 7.55457,0.87406 2.54145,-0.35082 4.98273,-1.26565 7.24524,-2.47523 4.52501,-2.41916 8.31982,-5.97173 12.39002,-9.09607 10.04678,-7.71204 21.79857,-12.82876 33.42801,-17.84569 22.16697,-9.562803 44.37067,-19.042176 66.68334,-28.259915 24.78473,-10.239008 50.13623,-20.407905 70.84203,-37.448767 6.8741,-5.657388 13.1681,-12.023065 20.3479,-17.287006 7.1799,-5.263942 15.496,-9.4590612 24.3862,-9.9323576 1.7555,-0.093462 3.5277,-0.039774 5.251,0.3079764 1.7233,0.3477505 3.4003,0.9972742 4.8272,2.0242222 2.3707,1.706208 3.9206,4.358037 4.8459,7.128472 0.9253,2.770436 1.2859,5.691337 1.7111,8.581083 5.6051,38.094562 23.0072,73.284652 34.7235,109.963542 12.0708,37.78862 18.1018,77.1859 24.9577,116.25866 8.4938,48.40744 18.3363,96.73697 21.4545,145.78492 2.1258,33.43791 1.1097,66.98508 0.3182,100.48115 -0.072,3.04569 -0.1516,6.14719 -1.1337,9.03107 -1.146,3.36516 -3.4543,6.21775 -6.0195,8.67893 -2.5652,2.46118 -5.4213,4.60233 -8.0083,7.04064 -6.9958,6.59387 -11.8473,15.22417 -15.0039,24.30474 -3.1566,9.08058 -4.6968,18.64149 -5.786,28.19317 -2.8995,25.42643 -2.6988,51.08834 -2.9589,76.67824 -0.7092,69.77374 -4.8742,139.51225 -12.4748,208.87441"
       id="path1010"
       inkscape:path-effect="#path-effect1012"
       inkscape:original-d="m 635.70563,862.61605 c -6.98702,-84.26905 -13.97505,-168.5391 -20.96407,-252.81016 -6.98903,-84.27105 7.88705,-80.68183 11.82907,-121.02425 3.94202,-40.34241 17.35102,-49.99664 26.02503,-74.99647 8.67401,-24.99982 24.29026,-55.1323 36.4339,-82.69995 12.14363,-27.56765 15.81187,-67.11024 23.71631,-100.66686 7.90443,-33.55662 5.97563,-35.60022 8.96194,-53.40183 2.98632,-17.80161 17.3869,-21.32906 26.07884,-31.99509 8.69195,-10.66603 29.56068,-18.76677 44.33951,-28.15166 14.77884,-9.38489 14.46204,1.9494 21.69155,2.9226 7.22952,0.9732 12.40418,16.13008 18.60476,24.19362 6.20059,8.06354 29.82506,39.28827 44.73609,58.93091 14.91103,19.64263 10.71729,9.11071 16.07443,13.66457 5.35714,4.55386 -0.74486,-7.88082 -1.11879,-11.82272 -0.37394,-3.94191 -32.70679,-45.60531 -49.06168,-68.40946 -16.35489,-22.80415 -8.17251,-20.3665 -12.26026,-30.55125 -4.08775,-10.184753 -2.22023,-4.78153 -3.33184,-7.173793 -1.11162,-2.392264 -15.69772,-5.147445 -23.54808,-7.722667 -7.85036,-2.575223 7.45685,-14.998524 11.18377,-22.499285 3.72693,-7.500762 20.04303,4.300508 30.06305,6.449262 10.02001,2.148755 10.89147,17.301667 16.33571,25.951003 5.44424,8.64933 0.46046,11.33964 0.68919,17.00796 0.22873,5.66832 6.07042,8.5321 9.10413,12.79664 3.03371,4.26455 18.12756,-7.13049 27.18983,-10.69724 9.06228,-3.56674 22.28634,-11.89613 33.42801,-17.84569 11.14167,-5.949566 44.45656,-18.838944 66.68334,-28.259915 22.22673,-9.420971 47.22903,-24.964845 70.84203,-37.448767 23.613,-12.483923 29.8238,-18.145243 44.7341,-27.2193636 14.9104,-9.0741211 6.7198,1.5557986 10.0782,2.3321986 3.3583,0.7764 4.3724,10.474037 6.557,15.709555 2.1847,5.235518 23.15,73.310022 34.7235,109.963542 11.5735,36.65351 16.6395,77.50678 24.9577,116.25866 8.3183,38.75189 14.304,97.19095 21.4545,145.78492 7.1504,48.59398 0.2132,66.98843 0.3182,100.48115 0.1051,33.49272 -0.7548,6.02171 -1.1337,9.03107 -0.3789,3.00936 -9.3508,10.48071 -14.0278,15.71957 -4.6769,5.23886 -13.8589,34.9996 -20.7899,52.49791 -6.9309,17.4983 -1.9716,51.11983 -2.9589,76.67824 -0.9873,25.55842 -8.3155,139.25061 -12.4748,208.87441" />
  </g>
</svg>
