<?xml version="1.0" encoding="UTF-8" standalone="no"?>
<!-- Created with Inkscape (http://www.inkscape.org/) -->

<svg
   version="1.1"
   id="svg2"
   width="1893"
   height="1024"
   viewBox="0 0 1893 1024"
   sodipodi:docname="frame_0137.svg"
   inkscape:version="1.1.2 (0a00cf5339, 2022-02-04)"
   xmlns:inkscape="http://www.inkscape.org/namespaces/inkscape"
   xmlns:sodipodi="http://sodipodi.sourceforge.net/DTD/sodipodi-0.dtd"
   xmlns:xlink="http://www.w3.org/1999/xlink"
   xmlns="http://www.w3.org/2000/svg"
   xmlns:svg="http://www.w3.org/2000/svg">
  <defs
     id="defs6">
    <inkscape:path-effect
       effect="spiro"
       id="path-effect899"
       is_visible="true"
       lpeversion="1" />
    <inkscape:path-effect
       effect="spiro"
       id="path-effect862"
       is_visible="true"
       lpeversion="1" />
  </defs>
  <sodipodi:namedview
     id="namedview4"
     pagecolor="#ffffff"
     bordercolor="#666666"
     borderopacity="1.0"
     inkscape:pageshadow="2"
     inkscape:pageopacity="0.0"
     inkscape:pagecheckerboard="0"
     showgrid="false"
     inkscape:zoom="1.340729"
     inkscape:cx="938.29551"
     inkscape:cy="262.91667"
     inkscape:window-width="1850"
     inkscape:window-height="1016"
     inkscape:window-x="70"
     inkscape:window-y="27"
     inkscape:window-maximized="1"
     inkscape:current-layer="g8" />
  <g
     inkscape:groupmode="layer"
     inkscape:label="Image"
     id="g8">
    
    <path
       style="font-variation-settings:normal;opacity:1;vector-effect:none;fill:none;fill-opacity:1;stroke:#c86487;stroke-width:1px;stroke-linecap:butt;stroke-linejoin:miter;stroke-miterlimit:4;stroke-dasharray:none;stroke-dashoffset:0;stroke-opacity:1;-inkscape-stroke:none;stop-color:#000000;stop-opacity:1"
       d="m 1160.687,862.60617 -525.14125,0.07"
       id="path860"
       inkscape:path-effect="#path-effect862"
       inkscape:original-d="m 1160.687,862.60617 -525.14125,0.07" />
    <path
       style="font-variation-settings:normal;opacity:1;vector-effect:none;fill:none;fill-opacity:1;stroke:#c86487;stroke-width:1px;stroke-linecap:butt;stroke-linejoin:miter;stroke-miterlimit:4;stroke-dasharray:none;stroke-dashoffset:0;stroke-opacity:1;-inkscape-stroke:none;stop-color:#000000;stop-opacity:1"
       d="m 635.54575,862.67617 c 1.31944,-47.93001 -2.02115,-95.98718 -9.95936,-143.27366 -8.61763,-51.33369 -22.67075,-103.5424 -12.85907,-154.6613 5.51878,-28.75285 18.36762,-55.54501 26.29552,-83.7289 5.99787,-21.32256 9.19324,-43.48876 17.27376,-64.11232 11.04278,-28.18402 30.75488,-52.32078 41.80577,-80.50162 4.73435,-12.07305 7.80908,-24.71741 11.41532,-37.17404 5.70132,-19.69341 12.74804,-38.96678 19.74989,-58.23618 4.51255,-12.41872 9.07182,-25.21591 8.65855,-38.42261 -0.33071,-10.56828 -3.85361,-20.94375 -3.25341,-31.50015 0.61691,-10.8504 5.60814,-21.0937 12.32407,-29.63818 8.31227,-10.57545 19.37901,-18.95301 31.78025,-24.16292 12.17162,-5.11344 25.44558,-7.16745 38.63851,-7.65983 3.00246,-0.11206 6.01999,-0.14491 8.99985,0.23943 2.97987,0.38434 5.93446,1.19884 8.54131,2.6927 5.11782,2.93278 8.42308,8.14445 11.68509,13.05898 17.82901,26.86109 40.21433,50.5181 57.40941,77.78935 0.76597,1.21482 1.53988,2.45807 2.63945,3.3819 1.38712,1.16542 3.23607,1.7366 5.046,1.65636 1.22985,-0.0545 2.46419,-0.40861 3.46056,-1.13163 0.99637,-0.72302 1.73442,-1.83428 1.8834,-3.0563 0.0845,-0.69347 -0.0188,-1.40339 -0.25229,-2.06182 -0.2335,-0.65843 -0.59454,-1.2671 -1.02243,-1.81933 -0.85579,-1.10447 -1.96659,-1.97798 -3.03,-2.88428 -10.22945,-8.71815 -16.59082,-20.9975 -24.49786,-31.86611 -8.98488,-12.35014 -20.13312,-23.06335 -28.52294,-35.8252 -1.39901,-2.12805 -2.72815,-4.3296 -3.56438,-6.73512 -1.5962,-4.59165 -1.28525,-9.70369 0.21919,-14.32622 0.81583,-2.50672 1.97103,-4.90513 2.5874,-7.46819 0.30819,-1.281539 0.47905,-2.604255 0.39324,-3.919529 -0.0858,-1.315274 -0.43541,-2.625239 -1.11404,-3.755184 -1.09476,-1.822833 -2.99327,-3.072984 -5.03034,-3.682568 -2.03706,-0.609584 -4.21024,-0.626445 -6.32361,-0.392182 -2.19186,0.242964 -4.34719,0.748855 -6.53574,1.020075 -2.18855,0.271219 -4.45553,0.299204 -6.54918,-0.393558 -1.67643,-0.554707 -3.18766,-1.560035 -4.42936,-2.81554 -1.24169,-1.255505 -2.22001,-2.75665 -2.97189,-4.354394 -1.24166,-2.638535 -1.87506,-5.566015 -1.79504,-8.481007 0.08,-2.914992 0.87708,-5.812426 2.33404,-8.338461 1.45696,-2.526036 3.57429,-4.673127 6.09989,-6.130845 2.5256,-1.457718 5.45497,-2.218107 8.36982,-2.133185 2.89413,0.08432 5.70373,0.979405 8.39538,2.046212 2.69166,1.066806 5.31758,2.315477 8.08665,3.161257 4.5362,1.385531 9.34974,1.657768 13.90419,2.982086 2.27723,0.66216 4.49794,1.596655 6.41538,2.992228 1.91744,1.395573 3.52353,3.276082 4.35933,5.495462 0.72516,1.925598 0.8503,4.033713 0.67871,6.084162 -0.17159,2.05045 -0.62955,4.064296 -1.04099,6.080359 -0.98273,4.815429 -1.70537,9.679732 -2.58183,14.515632 -0.46336,2.5566 -0.97025,5.18268 -0.46677,7.73169 0.32892,1.66525 1.07576,3.21597 1.56041,4.84274 0.24125,0.80976 0.41746,1.63833 0.677,2.44242 0.25955,0.80408 0.60915,1.59292 1.15397,2.23874 0.55817,0.66164 1.30725,1.1509 2.11978,1.44944 0.81253,0.29854 1.68705,0.41081 2.55228,0.38429 1.73046,-0.053 3.39588,-0.6475 4.99673,-1.30673 7.89905,-3.25281 14.96288,-8.19887 22.39539,-12.41 18.706,-10.598492 39.63163,-16.485121 59.75856,-24.044824 26.27303,-9.868197 51.33253,-22.657972 76.41223,-35.254108 19.6953,-9.891857 39.494,-19.711085 57.9508,-31.756828 4.1653,-2.718452 8.3162,-5.5774616 13.0056,-7.2357201 2.3446,-0.8291292 4.8141,-1.3472304 7.3011,-1.3523189 2.4869,-0.00509 4.9936,0.5149869 7.1977,1.666933 3.6664,1.916239 6.2337,5.397992 8.4266,8.905946 9.8477,15.753025 14.6666,34.038868 19.5543,51.962183 10.4947,38.484597 21.9105,76.721147 31.7203,115.385997 11.3168,44.6048 20.4946,89.79642 26.0677,135.47572 6.2197,50.97878 7.9328,102.38604 9.728,153.71145 0.2877,8.22544 0.5763,16.48816 -0.3729,24.66371 -0.6345,5.46502 -1.9073,11.05841 -5.227,15.44572 -2.0366,2.69158 -4.7391,4.78955 -7.3867,6.883 -3.1239,2.47001 -6.2262,4.9878 -8.9831,7.86168 -7.391,7.7047 -12.0269,17.71584 -14.7854,28.02992 -2.7585,10.31408 -3.751,21.00648 -4.6857,31.64208 -1.9713,22.42954 -3.7329,44.87711 -5.698,67.30719 -6.0545,69.10714 -14.0413,138.04498 -23.9478,206.70585"
       id="path897"
       inkscape:path-effect="#path-effect899"
       inkscape:original-d="m 635.54575,862.67617 c -3.31879,-47.75689 -6.63857,-95.51478 -9.95936,-143.27366 -3.32078,-47.75889 -8.57172,-103.10654 -12.85907,-154.6613 -4.28736,-51.55477 17.53135,-55.81827 26.29552,-83.7289 8.76418,-27.91064 11.51684,-42.74054 17.27376,-64.11232 5.75692,-21.37177 27.87151,-53.66675 41.80577,-80.50162 13.93426,-26.83488 7.61121,-24.78169 11.41532,-37.17404 3.8041,-12.39234 13.16759,-38.82312 19.74989,-58.23618 6.5823,-19.41306 5.77336,-25.61407 8.65855,-38.42261 2.88518,-12.80853 -2.16794,-20.9991 -3.25341,-31.50015 -1.08546,-10.50105 8.21704,-19.75779 12.32407,-29.63818 4.10702,-9.8804 21.18783,-16.10762 31.78025,-24.16292 10.59242,-8.05531 25.76001,-5.10555 38.63851,-7.65983 12.8785,-2.55427 11.69511,1.95575 17.54116,2.93213 5.84606,0.97637 7.79106,8.70699 11.68509,13.05898 3.89403,4.352 38.27394,51.86057 57.40941,77.78935 19.13547,25.92879 1.76064,2.2556 2.63945,3.3819 0.87882,1.1263 3.365,1.10524 5.046,1.65636 1.681,0.55111 3.56364,-2.79095 5.34396,-4.18793 1.78032,-1.39697 -2.86881,-4.50929 -4.30472,-6.76543 -1.4359,-2.25615 -16.33091,-21.24308 -24.49786,-31.86611 -8.16696,-10.62304 -19.0143,-23.88246 -28.52294,-35.8252 -9.50865,-11.94273 -2.37526,-4.48908 -3.56438,-6.73512 -1.18913,-2.24605 0.14713,-9.54981 0.21919,-14.32622 0.0721,-4.7764 1.2454,-10.094267 1.8666,-15.142903 0.62119,-5.048636 -7.5683,-2.7155 -11.35395,-4.07475 -3.78565,-1.359249 -8.72228,0.418678 -13.08492,0.626517 -4.36264,0.207839 -4.93317,-4.778956 -7.40125,-7.169934 -2.46808,-2.390978 10.0068,-16.721332 15.00871,-25.083498 5.0019,-8.362165 10.98902,3.472646 16.48203,5.207469 5.49302,1.734823 16.4536,7.647517 24.6789,11.469776 8.22529,3.822258 -0.24052,8.11068 -0.36228,12.164521 -0.12176,4.05384 -1.72022,9.67809 -2.58183,14.515632 -0.86161,4.83755 -0.31018,5.15546 -0.46677,7.73169 -0.15659,2.57624 1.04127,3.2295 1.56041,4.84274 0.51914,1.61325 1.22165,3.12178 1.83097,4.68116 0.60932,1.55939 6.44686,0.35233 9.66879,0.527 3.22193,0.17466 14.93126,-8.27233 22.39539,-12.41 7.46414,-4.13766 39.84004,-16.028882 59.75856,-24.044824 19.91851,-8.015941 50.94253,-23.501738 76.41223,-35.254108 25.4697,-11.752369 38.6348,-21.170219 57.9508,-31.756828 19.3159,-10.5866096 18.3373,-4.613071 27.5044,-6.921106 9.1672,-2.3080353 5.6187,5.938297 8.4266,8.905946 2.8078,2.967649 13.0372,34.642455 19.5543,51.962183 6.5171,17.319728 21.1479,76.924997 31.7203,115.385997 10.5725,38.461 17.3795,90.31815 26.0677,135.47572 8.6882,45.15758 6.4864,102.4753 9.728,153.71145 3.2417,51.23614 -0.2476,16.44347 -0.3729,24.66371 -0.1253,8.22023 -3.4837,10.29815 -5.227,15.44572 -1.7434,5.14757 -4.9235,4.58967 -7.3867,6.883 -2.4632,2.29334 -5.9877,5.24212 -8.9831,7.86168 -2.9954,2.61955 -12.9797,39.78233 -19.4711,59.672 -6.4913,19.88966 -3.7976,44.87246 -5.698,67.30719 -1.9003,22.43473 -15.9642,137.8049 -23.9478,206.70585" />
  </g>
</svg>
