<?xml version="1.0" encoding="UTF-8" standalone="no"?>
<!-- Created with Inkscape (http://www.inkscape.org/) -->

<svg
   version="1.1"
   id="svg2"
   width="1893"
   height="1024"
   viewBox="0 0 1893 1024"
   sodipodi:docname="frame_0100.svg"
   inkscape:version="1.1.2 (0a00cf5339, 2022-02-04)"
   xmlns:inkscape="http://www.inkscape.org/namespaces/inkscape"
   xmlns:sodipodi="http://sodipodi.sourceforge.net/DTD/sodipodi-0.dtd"
   xmlns:xlink="http://www.w3.org/1999/xlink"
   xmlns="http://www.w3.org/2000/svg"
   xmlns:svg="http://www.w3.org/2000/svg">
  <defs
     id="defs6">
    <inkscape:path-effect
       effect="spiro"
       id="path-effect899"
       is_visible="true"
       lpeversion="1" />
    <inkscape:path-effect
       effect="spiro"
       id="path-effect862"
       is_visible="true"
       lpeversion="1" />
  </defs>
  <sodipodi:namedview
     id="namedview4"
     pagecolor="#ffffff"
     bordercolor="#666666"
     borderopacity="1.0"
     inkscape:pageshadow="2"
     inkscape:pageopacity="0.0"
     inkscape:pagecheckerboard="0"
     showgrid="false"
     inkscape:zoom="0.33518225"
     inkscape:cx="677.2435"
     inkscape:cy="-40.276596"
     inkscape:window-width="1850"
     inkscape:window-height="1016"
     inkscape:window-x="70"
     inkscape:window-y="27"
     inkscape:window-maximized="1"
     inkscape:current-layer="g8" />
  <g
     inkscape:groupmode="layer"
     inkscape:label="Image"
     id="g8">
    
    <path
       style="font-variation-settings:normal;opacity:1;vector-effect:none;fill:none;fill-opacity:1;stroke:#c86487;stroke-width:1px;stroke-linecap:butt;stroke-linejoin:miter;stroke-miterlimit:4;stroke-dasharray:none;stroke-dashoffset:0;stroke-opacity:1;-inkscape-stroke:none;stop-color:#000000;stop-opacity:1"
       d="m 1161.1429,862.60306 -525.51568,0.0137"
       id="path860"
       inkscape:path-effect="#path-effect862"
       inkscape:original-d="m 1161.1429,862.60306 -525.51568,0.0137" />
    <path
       style="font-variation-settings:normal;opacity:1;vector-effect:none;fill:none;fill-opacity:1;stroke:#c86487;stroke-width:1px;stroke-linecap:butt;stroke-linejoin:miter;stroke-miterlimit:4;stroke-dasharray:none;stroke-dashoffset:0;stroke-opacity:1;-inkscape-stroke:none;stop-color:#000000;stop-opacity:1"
       d="m 635.62722,862.61676 c -10.3913,-41.81688 -17.93465,-84.34122 -22.56046,-127.18084 -5.0886,-47.12552 -6.63928,-94.79379 -1.47032,-141.91056 4.76327,-43.41872 15.19956,-86.07205 28.536,-127.66548 8.06595,-25.15591 17.21584,-50.00821 28.60784,-73.84309 12.88139,-26.95104 28.59275,-52.52813 40.39153,-79.97038 13.36492,-31.08485 21.59734,-64.60321 21.87152,-98.4383 0.10845,-13.38383 -0.94486,-27.23831 3.92984,-39.7033 3.35821,-8.5872 9.30584,-15.87108 15.22368,-22.94192 11.48249,-13.71969 23.43165,-27.43001 38.4754,-37.11315 3.3744,-2.17199 6.91434,-4.14051 10.72789,-5.38987 3.81356,-1.24936 7.92999,-1.75646 11.8674,-0.98125 5.83305,1.14842 10.74919,4.94798 15.30007,8.77327 6.46405,5.43343 12.70076,11.17097 18.21678,17.56469 10.43664,12.09731 18.09181,26.29357 27.16122,39.44706 9.34035,13.54644 20.18383,25.98814 29.93107,39.24482 0.28048,0.38146 0.56193,0.76577 0.90372,1.09343 0.3418,0.32766 0.75079,0.599 1.21101,0.71028 0.39787,0.0962 0.8219,0.0682 1.21093,-0.0592 0.38903,-0.12732 0.74334,-0.35174 1.04029,-0.63348 0.59389,-0.56348 0.94869,-1.33864 1.15771,-2.13018 0.41896,-1.58655 0.29728,-3.28048 -0.12677,-4.86567 -0.42405,-1.5852 -1.13987,-3.07641 -1.91061,-4.52507 -4.42678,-8.32042 -10.71946,-15.46607 -16.65408,-22.78768 -5.83031,-7.19292 -11.36049,-14.62277 -16.94301,-22.00965 -6.21189,-8.21967 -12.56603,-16.51931 -16.41036,-26.07816 -1.44925,-3.60352 -2.53232,-7.391 -2.7537,-11.26871 -0.24715,-4.32911 0.58149,-8.64203 0.78241,-12.97353 0.0772,-1.66455 0.0607,-3.34309 -0.23751,-4.98253 -0.29822,-1.63944 -0.88855,-3.245318 -1.87824,-4.585916 -1.60719,-2.177038 -4.15245,-3.501038 -6.7668,-4.199408 -2.61435,-0.698369 -5.3391,-0.839026 -8.03327,-1.092006 -1.97262,-0.185227 -3.94789,-0.434085 -5.85746,-0.962367 -1.90957,-0.528282 -3.7601,-1.346125 -5.30928,-2.581266 -1.94427,-1.550136 -3.35683,-3.7313 -4.08003,-6.110391 -0.72321,-2.379091 -0.7683,-4.946196 -0.23556,-7.375041 1.12376,-5.123401 4.84386,-9.522314 9.54517,-11.848204 4.7013,-2.32589 10.27779,-2.648521 15.34098,-1.278798 4.13015,1.117312 7.90839,3.294403 11.33752,5.853233 4.50322,3.36032 8.50728,7.442851 11.47252,12.215492 2.48794,4.0044 4.21928,8.449463 5.39176,13.01568 1.25911,4.903604 1.88112,10.073972 0.85223,15.030992 -0.52223,2.516 -1.46411,4.95604 -1.65786,7.51836 -0.0969,1.28115 -2e-4,2.5906 0.42267,3.80384 0.42286,1.21323 1.18797,2.32706 2.2529,3.04586 0.81762,0.55187 1.7829,0.85588 2.75847,1.00193 0.97556,0.14605 1.96702,0.14057 2.95317,0.11669 20.9625,-0.50766 40.91984,-9.14659 58.9919,-19.78073 18.07205,-10.634132 34.86751,-23.385856 53.30929,-33.36509 29.65881,-16.049008 63.41551,-24.857744 90.14451,-45.419244 6.4215,-4.939771 12.3877,-10.526866 19.3378,-14.690096 3.4751,-2.0816153 7.1939,-3.7974639 11.1208,-4.7917032 3.927,-0.9942393 8.0724,-1.2516604 12.0428,-0.4486597 2.1851,0.4419256 4.3219,1.2100962 6.1875,2.4305415 2.0556,1.3447112 3.7411,3.2153034 5.0153,5.3153254 1.2742,2.100021 2.1469,4.426906 2.739,6.81081 1.1842,4.767807 1.2574,9.728211 1.6121,14.628054 1.5389,21.256503 8.4506,41.765295 16.6475,61.438049 8.197,19.672753 17.7396,38.798303 24.9471,58.854693 9.9764,27.76132 15.3506,56.94563 19.8426,86.10109 4.093,26.56558 7.4879,53.23557 10.4606,79.94971 2.3291,20.93 4.3994,41.8913 5.9294,62.89483 2.3744,32.59489 3.446,65.27283 3.9887,97.94958 0.137,8.24741 0.2401,16.50321 -0.2181,24.73902 -0.2608,4.68757 -0.7418,9.50216 -2.9008,13.67109 -1.7285,3.33768 -4.4649,6.08807 -7.5869,8.1811 -3.1156,2.08873 -6.6004,3.54711 -10.0032,5.12533 -3.4028,1.57823 -6.7923,3.32041 -9.5497,5.86343 -4.0856,3.76803 -6.5048,9.0724 -7.6797,14.50471 -2.0826,9.62924 -0.5328,19.61467 0.5016,29.41208 2.6178,24.79439 1.8744,49.81813 0.4959,74.7122 -3.8102,68.80892 -12.4547,137.34971 -25.8487,204.9499"
       id="path897"
       inkscape:path-effect="#path-effect899"
       inkscape:original-d="m 635.62722,862.61676 c -7.51915,-42.39261 -15.0393,-84.78623 -22.56046,-127.18084 -7.52115,-42.39461 -0.97921,-94.60604 -1.47032,-141.91056 -0.4911,-47.30452 19.025,-85.10932 28.536,-127.66548 9.51099,-42.55616 19.07289,-49.22773 28.60784,-73.84309 9.53495,-24.61537 26.92868,-53.31259 40.39153,-79.97038 13.46284,-26.65779 14.58201,-65.62453 21.87152,-98.4383 7.2895,-32.81376 2.6209,-26.46786 3.92984,-39.7033 1.30895,-13.23543 10.15012,-15.29361 15.22368,-22.94192 5.07356,-7.6483 25.65127,-24.7411 38.4754,-37.11315 12.82414,-12.37205 15.06453,-4.24641 22.59529,-6.37112 7.53077,-2.12471 10.20105,5.84984 15.30007,8.77327 5.09902,2.92342 12.14552,11.71079 18.21678,17.56469 6.07126,5.8539 18.10848,26.29904 27.16122,39.44706 9.05274,13.14802 19.95505,26.16422 29.93107,39.24482 9.97602,13.08061 1.41082,1.20347 2.11473,1.80371 0.70391,0.60023 2.27362,-1.88087 3.40893,-2.82281 1.13532,-0.94194 -1.35725,-6.25949 -2.03738,-9.39074 -0.68013,-3.13124 -11.10172,-15.19079 -16.65408,-22.78768 -5.55236,-7.5969 -11.29434,-14.6721 -16.94301,-22.00965 -5.64867,-7.33754 -10.93924,-17.38444 -16.41036,-26.07816 -5.47111,-8.69372 -1.8348,-7.51147 -2.7537,-11.26871 -0.9189,-3.75723 0.5226,-8.64802 0.78241,-12.97353 0.2598,-4.32551 -1.4095,-6.37796 -2.11575,-9.568446 -0.70625,-3.190483 -9.86571,-3.526609 -14.80007,-5.291414 -4.93436,-1.764804 -7.44349,-2.361422 -11.16674,-3.543633 -3.72324,-1.182211 -2.87606,-8.989288 -4.31559,-13.485432 -1.43954,-4.496144 16.59177,-8.750335 24.88615,-13.127002 8.29439,-4.376668 7.55935,3.903155 11.33752,5.853233 3.77818,1.950078 7.64935,8.144661 11.47252,12.215492 3.82317,4.070831 3.59551,8.67812 5.39176,13.01568 1.79625,4.33756 0.56916,10.021662 0.85223,15.030992 0.28308,5.00933 0.67948,9.5797 1.01771,14.36806 0.33824,4.78835 3.80876,0.74675 5.71164,1.11862 1.90288,0.37188 74.86846,-35.429545 112.30119,-53.14582 37.43271,-17.716275 60.09731,-30.278496 90.14451,-45.419244 30.0471,-15.1407482 28.3353,-13.285973 42.5014,-19.9304589 14.1662,-6.6444863 4.126,1.621361 6.1875,2.4305415 2.0614,0.8091805 6.2452,17.8371264 9.3664,26.7541894 3.1211,8.917063 27.7307,80.196162 41.5946,120.292742 13.8638,40.09658 13.2294,57.40173 19.8426,86.10109 6.6132,28.69937 6.9747,53.30081 10.4606,79.94971 3.4858,26.6489 3.9539,41.93088 5.9294,62.89483 1.9755,20.96394 2.6602,65.30072 3.9887,97.94958 1.3286,32.64887 -0.1444,16.49368 -0.2181,24.73902 -0.074,8.24533 -1.9328,9.11506 -2.9008,13.67109 -0.9679,4.55603 -5.0569,5.45506 -7.5869,8.1811 -2.53,2.72603 -13.0343,7.32684 -19.5529,10.98876 -6.5187,3.66192 -5.1188,9.6708 -7.6797,14.50471 -2.5608,4.8339 0.3354,19.60905 0.5016,29.41208 0.1661,9.80303 0.3316,49.80913 0.4959,74.7122 0.1644,24.90307 -17.2315,136.63427 -25.8487,204.9499" />
  </g>
</svg>
