<?xml version="1.0" encoding="UTF-8" standalone="no"?>
<!-- Created with Inkscape (http://www.inkscape.org/) -->

<svg
   version="1.1"
   id="svg2"
   width="1893"
   height="1024"
   viewBox="0 0 1893 1024"
   sodipodi:docname="frame_0051.svg"
   inkscape:version="1.1.2 (0a00cf5339, 2022-02-04)"
   xmlns:inkscape="http://www.inkscape.org/namespaces/inkscape"
   xmlns:sodipodi="http://sodipodi.sourceforge.net/DTD/sodipodi-0.dtd"
   xmlns:xlink="http://www.w3.org/1999/xlink"
   xmlns="http://www.w3.org/2000/svg"
   xmlns:svg="http://www.w3.org/2000/svg">
  <defs
     id="defs6">
    <inkscape:path-effect
       effect="spiro"
       id="path-effect899"
       is_visible="true"
       lpeversion="1" />
    <inkscape:path-effect
       effect="spiro"
       id="path-effect862"
       is_visible="true"
       lpeversion="1" />
  </defs>
  <sodipodi:namedview
     id="namedview4"
     pagecolor="#ffffff"
     bordercolor="#666666"
     borderopacity="1.0"
     inkscape:pageshadow="2"
     inkscape:pageopacity="0.0"
     inkscape:pagecheckerboard="0"
     showgrid="false"
     inkscape:zoom="0.47401928"
     inkscape:cx="860.72448"
     inkscape:cy="275.30526"
     inkscape:window-width="1850"
     inkscape:window-height="1016"
     inkscape:window-x="70"
     inkscape:window-y="27"
     inkscape:window-maximized="1"
     inkscape:current-layer="g8" />
  <g
     inkscape:groupmode="layer"
     inkscape:label="Image"
     id="g8">
    
    <path
       style="font-variation-settings:normal;opacity:1;vector-effect:none;fill:none;fill-opacity:1;stroke:#c86487;stroke-width:1px;stroke-linecap:butt;stroke-linejoin:miter;stroke-miterlimit:4;stroke-dasharray:none;stroke-dashoffset:0;stroke-opacity:1;-inkscape-stroke:none;stop-color:#000000;stop-opacity:1"
       d="m 1160.788,862.52749 -525.29326,0.28848"
       id="path860"
       inkscape:path-effect="#path-effect862"
       inkscape:original-d="m 1160.788,862.52749 -525.29326,0.28848" />
    <path
       style="font-variation-settings:normal;opacity:1;vector-effect:none;fill:none;fill-opacity:1;stroke:#c86487;stroke-width:1px;stroke-linecap:butt;stroke-linejoin:miter;stroke-miterlimit:4;stroke-dasharray:none;stroke-dashoffset:0;stroke-opacity:1;-inkscape-stroke:none;stop-color:#000000;stop-opacity:1"
       d="M 635.49474,862.81597 C 622.75825,825.97994 612.18422,788.39635 603.84521,750.3231 591.56286,694.24578 584.1584,635.93063 594.8456,579.52757 c 4.34353,-22.92354 11.61093,-45.17381 17.53442,-67.74076 7.85354,-29.91991 13.44446,-60.71076 26.28944,-88.85123 6.61658,-14.49544 15.06356,-28.06489 22.93404,-41.91958 6.44517,-11.34567 12.53666,-22.95333 16.92391,-35.2422 5.65111,-15.82899 8.38367,-32.51734 11.95203,-48.94168 3.68819,-16.97589 8.35074,-33.90322 16.37745,-49.30957 2.26731,-4.35183 4.80104,-8.57874 6.66876,-13.11644 1.86772,-4.53771 3.05813,-9.47642 2.47515,-14.34872 -0.55353,-4.62617 -2.65623,-8.90305 -4.71865,-13.08089 -2.06242,-4.17783 -4.14832,-8.4665 -4.66376,-13.09707 -0.61492,-5.52426 1.09305,-11.12324 3.90831,-15.91594 2.81525,-4.7927 6.68862,-8.8716 10.70516,-12.71387 10.83057,-10.36066 23.10517,-19.41805 36.93548,-25.19447 12.70602,-5.30684 26.41256,-7.731 40.05369,-9.60855 1.77389,-0.24416 3.5591,-0.48026 5.34859,-0.41695 1.7895,0.0633 3.59937,0.44085 5.14211,1.34983 1.3086,0.77102 2.38286,1.90074 3.22079,3.16754 0.83793,1.2668 1.44918,2.67081 1.9576,4.10204 1.01686,2.86245 1.64777,5.88314 3.07206,8.56624 1.40141,2.64 3.51666,4.84011 5.81979,6.74514 2.30313,1.90503 4.8108,3.54512 7.21754,5.31745 20.63311,15.19432 32.74624,39.10092 49.83189,58.19733 0.51936,0.58048 1.05988,1.16941 1.75466,1.5215 0.73841,0.3742 1.61633,0.4485 2.41781,0.24137 0.80148,-0.20713 1.52359,-0.68748 2.05555,-1.32174 0.53196,-0.63426 0.87642,-1.41736 1.02451,-2.23182 0.1481,-0.81445 0.10328,-1.65905 -0.0905,-2.46387 -0.38745,-1.60964 -1.35299,-3.02975 -2.4966,-4.22692 -1.14361,-1.19717 -2.47058,-2.20063 -3.7477,-3.25421 -11.21177,-9.24935 -18.51217,-22.27268 -25.69399,-34.90896 -7.18183,-12.63628 -14.80102,-25.54333 -26.3992,-34.30325 -1.332,-1.00604 -2.72303,-1.96335 -3.82382,-3.21818 -0.5504,-0.62741 -1.02438,-1.32793 -1.34712,-2.09762 -0.32274,-0.76969 -0.49104,-1.6109 -0.4298,-2.44327 0.0635,-0.86307 0.37109,-1.69576 0.80088,-2.44689 0.4298,-0.75113 0.97985,-1.42657 1.55695,-2.07145 1.15422,-1.28976 2.45003,-2.50523 3.19118,-4.06933 0.77129,-1.62769 0.8693,-3.51979 0.51879,-5.28654 -0.35051,-1.76675 -1.12588,-3.42359 -2.03672,-4.9775 -2.58564,-4.41114 -6.33788,-8.13583 -10.78302,-10.662558 -2.03853,-1.15875 -4.28939,-2.083667 -6.63422,-2.091412 -1.17241,-0.0039 -2.35347,0.227896 -3.40588,0.74461 -1.05242,0.516714 -1.97128,1.325533 -2.55323,2.34333 -0.71754,1.25494 -0.89366,2.7423 -1.43064,4.08445 -0.2685,0.67108 -0.63563,1.31543 -1.16402,1.80863 -0.52838,0.4932 -1.23236,0.82414 -1.95488,0.80436 -0.51278,-0.014 -1.01075,-0.20201 -1.44276,-0.4786 -0.43202,-0.27659 -0.80277,-0.6393 -1.14118,-1.02481 -1.52997,-1.74292 -2.43571,-3.99369 -2.69457,-6.298372 -0.25885,-2.304684 0.1111,-4.65858 0.91732,-6.833109 1.61246,-4.349058 4.87714,-7.885823 8.40377,-10.898664 2.59967,-2.220928 5.41066,-4.240521 8.54739,-5.60129 3.13674,-1.360769 6.62797,-2.038416 10.00803,-1.522699 3.87205,0.590783 7.36764,2.697699 10.34791,5.239304 2.98028,2.541605 5.53676,5.53495 8.30958,8.301404 4.57877,4.568255 9.76711,8.53743 13.94276,13.476866 1.67496,1.98134 3.19249,4.13749 4.11389,6.56281 0.92139,2.42533 1.21187,5.15186 0.43283,7.62659 -0.34233,1.08744 -0.87958,2.1011 -1.35051,3.13933 -0.47094,1.03824 -0.88221,2.12752 -0.94671,3.26574 -0.0652,1.15079 0.23559,2.31409 0.81677,3.30948 0.58118,0.99539 1.43705,1.82273 2.43203,2.40461 1.98997,1.16375 4.47964,1.30952 6.69429,0.66954 2.14124,-0.61877 4.02673,-1.90999 5.7343,-3.34247 1.70756,-1.43249 3.27923,-3.02567 5.04125,-4.39061 3.59675,-2.7862 7.86695,-4.53504 12.04748,-6.33022 4.18054,-1.79518 8.40255,-3.71693 11.78027,-6.76498 2.76817,-2.49799 4.85827,-5.65554 7.48249,-8.304347 1.31211,-1.324402 2.76832,-2.526877 4.42268,-3.386383 1.65437,-0.859507 3.51953,-1.365404 5.38075,-1.257971 2.27488,0.13131 4.38741,1.149562 6.49358,2.019265 1.05308,0.434852 2.12477,0.837906 3.23826,1.079199 1.11349,0.241293 2.27505,0.317295 3.39281,0.09662 1.81322,-0.357982 3.39147,-1.466929 4.7498,-2.720273 1.35832,-1.253344 2.55777,-2.67631 3.97366,-3.864241 3.21538,-2.697709 7.35255,-4.027264 11.45281,-4.924008 4.10027,-0.896744 8.30029,-1.429505 12.26007,-2.821068 8.42554,-2.960939 15.08971,-9.549417 23.21225,-13.261732 7.78331,-3.557275 16.52856,-4.313754 24.69546,-6.870278 16.397,-5.13282 29.5418,-17.135639 43.4608,-27.208796 11.715,-8.47811 24.4765,-15.831197 38.4473,-19.564316 1.1315,-0.302346 2.2926,-0.582748 3.4608,-0.498885 1.3164,0.0945 2.5772,0.65781 3.6032,1.487974 1.026,0.830163 1.8256,1.917621 2.4214,3.095215 1.1917,2.355188 1.5751,5.020693 2.058,7.615663 2.5031,13.451811 8.0561,26.135665 14.1214,38.400603 7.4763,15.118233 15.8326,29.894865 21.2758,45.858192 5.3367,15.65099 7.7612,32.11635 11.4515,48.23516 4.1342,18.05771 9.8653,35.70708 14.5948,53.61808 6.1074,23.1291 10.5368,46.66461 14.7487,70.21275 5.4369,30.39661 10.5228,60.86999 14.1844,91.53114 1.2279,10.28199 2.2956,20.58623 2.9563,30.92018 2.111,33.02029 0.084,66.47195 6.4287,98.94556 0.5198,2.66011 1.0979,5.33968 1.0167,8.04888 -0.041,1.35459 -0.2487,2.71058 -0.7006,3.98823 -0.4519,1.27764 -1.1527,2.47644 -2.108,3.43767 -1.296,1.30402 -3.0002,2.12173 -4.7252,2.75776 -1.7249,0.63604 -3.5098,1.11735 -5.183,1.87925 -3.5128,1.59961 -6.39,4.38449 -8.5896,7.55631 -2.1997,3.17181 -3.7687,6.73388 -5.1827,10.32547 -13.4021,34.04205 -13.7165,71.6078 -14.0892,108.1911 -0.7147,70.16679 -2.3058,140.32466 -4.7727,210.45172"
       id="path897"
       inkscape:path-effect="#path-effect899"
       inkscape:original-d="M 635.49474,862.81597 C 624.9459,825.31935 614.39606,787.82172 603.84521,750.3231 593.29437,712.82447 597.84647,636.46041 594.8456,579.52757 c -3.00087,-56.93284 11.69061,-45.15951 17.53442,-67.74076 5.8438,-22.58125 17.52729,-59.23315 26.28944,-88.85123 8.76214,-29.61807 15.29036,-27.94538 22.93404,-41.91958 7.64368,-13.97419 11.28361,-23.4938 16.92391,-35.2422 5.64031,-11.7484 7.96902,-32.62679 11.95203,-48.94168 3.983,-16.3149 10.9193,-32.87205 16.37745,-49.30957 5.45815,-16.43753 6.09694,-18.30911 9.14391,-27.46516 3.04697,-9.15605 -6.25394,-17.45097 -9.38241,-26.17796 -3.12847,-8.72699 9.74331,-19.08554 14.61347,-28.62981 4.87015,-9.54427 24.62465,-16.79532 36.93548,-25.19447 12.31083,-8.39916 26.70346,-6.4047 40.05369,-9.60855 13.35023,-3.20384 6.9948,0.62292 10.4907,0.93288 3.4959,0.30995 5.5013,10.55821 8.25045,15.83582 2.74915,5.27761 8.69256,8.04273 13.03733,12.06259 4.34478,4.01987 33.22226,38.79922 49.83189,58.19733 16.60963,19.39811 1.17078,1.01534 1.75466,1.5215 0.58389,0.50617 -0.55692,-8.83712 -0.83688,-13.25719 -0.27996,-4.42006 -34.72779,-46.14047 -52.09319,-69.21221 -17.3654,-23.07174 -3.73283,-5.17171 -5.60074,-7.75907 -1.86792,-2.58735 3.70034,-5.72411 5.54901,-8.58767 1.84867,-2.86356 -1.01095,-6.84169 -1.51793,-10.26404 -0.50698,-3.42234 -7.18768,-7.10737 -10.78302,-10.662558 -3.59534,-3.555187 -8.39455,0.665353 -12.59333,0.996528 -4.19878,0.33118 -3.03203,4.46596 -4.54954,6.69744 -1.51751,2.23147 -1.72163,-1.00127 -2.58394,-1.50341 -0.86232,-0.50213 4.41868,-16.019095 6.62652,-24.030145 2.20784,-8.01105 12.37128,-4.748326 18.55542,-7.123989 6.18414,-2.375663 12.43932,9.028138 18.65749,13.540708 6.21816,4.512569 9.29617,8.98558 13.94276,13.476866 4.64659,4.4913 3.03214,9.4606 4.54672,14.1894 1.51457,4.7288 -1.53048,4.27105 -2.29722,6.40507 -0.76673,2.13403 6.62972,4.25676 9.94309,6.38363 3.31336,2.12688 7.1847,-5.15438 10.77555,-7.73308 3.59085,-2.57869 15.88617,-8.72913 23.82775,-13.0952 7.94158,-4.36606 11.52495,-8.631466 17.28592,-12.948701 5.76097,-4.317234 8.75077,2.131054 13.12465,3.195081 4.37388,1.064027 5.81664,-4.388676 8.72346,-6.584514 2.90682,-2.195838 15.80959,-5.162384 23.71288,-7.745076 7.90329,-2.582693 15.47583,-8.840155 23.21225,-13.261732 7.73642,-4.421577 16.46466,-4.579185 24.69546,-6.870278 8.2308,-2.291093 28.9749,-18.138198 43.4608,-27.208796 14.4859,-9.070599 25.6326,-13.041878 38.4473,-19.564316 12.8148,-6.5224391 2.3082,-0.33159 3.4608,-0.498885 1.1526,-0.167295 5.3894,8.133568 8.0826,12.198852 2.6932,4.065284 9.4152,25.601402 14.1214,38.400603 4.7061,12.799201 14.1849,30.573131 21.2758,45.858192 7.091,15.28507 7.6354,32.15778 11.4515,48.23516 3.8162,16.07739 9.7309,35.74639 14.5948,53.61808 4.8639,17.87169 9.8335,46.8095 14.7487,70.21275 4.9153,23.40326 9.4573,61.02176 14.1844,91.53114 4.7271,30.50938 1.9718,20.61445 2.9563,30.92018 0.9844,10.30572 4.2868,65.9647 6.4287,98.94556 2.1419,32.98085 -1.1936,10.31752 -1.7919,15.47478 -0.5983,5.15727 -6.6045,3.09234 -9.9082,4.63701 -3.3037,1.54467 -9.1805,11.92219 -13.7723,17.88178 -4.5918,5.95959 -9.3918,72.1284 -14.0892,108.1911 -4.6973,36.0627 -3.1808,140.30215 -4.7727,210.45172" />
  </g>
</svg>
