<?xml version="1.0" encoding="UTF-8" standalone="no"?>
<!-- Created with Inkscape (http://www.inkscape.org/) -->

<svg
   version="1.1"
   id="svg2"
   width="1893"
   height="1024"
   viewBox="0 0 1893 1024"
   sodipodi:docname="frame_0079.svg"
   inkscape:version="1.1.2 (0a00cf5339, 2022-02-04)"
   xmlns:inkscape="http://www.inkscape.org/namespaces/inkscape"
   xmlns:sodipodi="http://sodipodi.sourceforge.net/DTD/sodipodi-0.dtd"
   xmlns:xlink="http://www.w3.org/1999/xlink"
   xmlns="http://www.w3.org/2000/svg"
   xmlns:svg="http://www.w3.org/2000/svg">
  <defs
     id="defs6">
    <inkscape:path-effect
       effect="spiro"
       id="path-effect899"
       is_visible="true"
       lpeversion="1" />
    <inkscape:path-effect
       effect="spiro"
       id="path-effect862"
       is_visible="true"
       lpeversion="1" />
  </defs>
  <sodipodi:namedview
     id="namedview4"
     pagecolor="#ffffff"
     bordercolor="#666666"
     borderopacity="1.0"
     inkscape:pageshadow="2"
     inkscape:pageopacity="0.0"
     inkscape:pagecheckerboard="0"
     showgrid="false"
     inkscape:zoom="0.94803857"
     inkscape:cx="971.47946"
     inkscape:cy="229.42105"
     inkscape:window-width="1850"
     inkscape:window-height="1016"
     inkscape:window-x="70"
     inkscape:window-y="27"
     inkscape:window-maximized="1"
     inkscape:current-layer="g8" />
  <g
     inkscape:groupmode="layer"
     inkscape:label="Image"
     id="g8">
    
    <path
       style="font-variation-settings:normal;opacity:1;vector-effect:none;fill:none;fill-opacity:1;stroke:#c86487;stroke-width:1px;stroke-linecap:butt;stroke-linejoin:miter;stroke-miterlimit:4;stroke-dasharray:none;stroke-dashoffset:0;stroke-opacity:1;-inkscape-stroke:none;stop-color:#000000;stop-opacity:1"
       d="M 1160.4175,862.96271 635.82528,862.48823"
       id="path860"
       inkscape:path-effect="#path-effect862"
       inkscape:original-d="M 1160.4175,862.96271 635.82528,862.48823" />
    <path
       style="font-variation-settings:normal;opacity:1;vector-effect:none;fill:none;fill-opacity:1;stroke:#c86487;stroke-width:1px;stroke-linecap:butt;stroke-linejoin:miter;stroke-miterlimit:4;stroke-dasharray:none;stroke-dashoffset:0;stroke-opacity:1;-inkscape-stroke:none;stop-color:#000000;stop-opacity:1"
       d="m 635.82528,862.48823 c -10.20254,-45.75198 -16.73442,-92.32199 -19.51223,-139.11536 -2.77295,-46.71141 -1.80906,-93.55381 -0.98591,-140.34022 0.75427,-42.87135 1.54155,-86.63061 15.82855,-127.05836 8.6089,-24.3605 21.87154,-46.75072 34.38581,-69.35471 11.48435,-20.7437 22.43444,-41.87807 30.5237,-64.16608 8.82745,-24.32189 14.16769,-49.79565 22.93478,-74.13936 2.74439,-7.6204 5.82778,-15.14066 7.85502,-22.98237 2.02723,-7.84172 2.97277,-16.11222 1.36555,-24.05067 -1.27518,-6.29845 -4.10645,-12.17594 -5.73018,-18.39366 -0.81187,-3.10886 -1.32051,-6.32263 -1.15516,-9.5315 0.16536,-3.20886 1.03061,-6.42224 2.79575,-9.10709 1.598,-2.43062 3.86948,-4.34769 6.27796,-5.97888 2.40848,-1.63118 4.97915,-3.00901 7.41949,-4.59214 6.52496,-4.23297 12.00554,-9.85363 17.80476,-15.03651 5.79922,-5.18288 12.14763,-10.06104 19.58556,-12.33489 5.41602,-1.65573 11.15939,-1.85194 16.82277,-1.88133 5.66337,-0.0294 11.37274,0.0915 16.93657,-0.96612 3.843,-0.73049 7.58421,-2.01833 11.47589,-2.41467 1.94584,-0.19816 3.92859,-0.16859 5.83568,0.26565 1.9071,0.43423 3.73962,1.28667 5.18744,2.60173 1.72899,1.57044 2.83357,3.71862 3.60827,5.92214 0.7747,2.20353 1.25394,4.49941 1.95126,6.72863 3.04915,9.74758 10.03421,17.65895 16.06786,25.89956 3.43476,4.69111 6.66808,9.64125 11.14138,13.35524 2.77088,2.30055 5.94139,4.05994 8.93192,6.06668 2.99053,2.00675 5.87294,4.33891 7.7178,7.43193 1.07575,1.80356 1.76342,3.80757 2.66981,5.70191 0.9064,1.89433 2.09282,3.74246 3.86472,4.86959 1.69591,1.07879 3.86204,1.39234 5.79037,0.82536 1.92832,-0.56697 3.58371,-2.00848 4.39774,-3.84621 0.71343,-1.61062 0.78139,-3.46756 0.35363,-5.17639 -0.42776,-1.70883 -1.32958,-3.27549 -2.46096,-4.6257 -2.26275,-2.70041 -5.37013,-4.52106 -8.27918,-6.50845 -10.36592,-7.08171 -18.72538,-16.75703 -25.85505,-27.09002 -4.17518,-6.05106 -7.97118,-12.36495 -11.32932,-18.90485 -3.66611,-7.13966 -6.85846,-14.751 -7.2326,-22.76818 -0.083,-1.77925 -0.0262,-3.56745 -0.23209,-5.3367 -0.20587,-1.76925 -0.69591,-3.55092 -1.7572,-4.98141 -0.99011,-1.33456 -2.41958,-2.285164 -3.92297,-2.993117 -1.50338,-0.707952 -3.09848,-1.196842 -4.65334,-1.783174 -3.26153,-1.229914 -6.3955,-2.904709 -9.82839,-3.50929 -0.99879,-0.175901 -2.01214,-0.258685 -3.01128,-0.432543 -0.99915,-0.173858 -1.99656,-0.444642 -2.8675,-0.964231 -1.57493,-0.939576 -2.60212,-2.63525 -3.02351,-4.420089 -0.42139,-1.784839 -0.29032,-3.658487 0.0455,-5.461394 0.54566,-2.929872 1.63428,-5.76889 3.28344,-8.251258 1.64917,-2.482368 3.86511,-4.601354 6.47503,-6.040182 4.21957,-2.326219 9.3701,-2.773484 14.02002,-1.510832 4.44869,1.208008 8.38587,3.876907 11.74857,7.03006 3.3627,3.153153 6.21469,6.801083 9.14296,10.361323 4.35734,5.297723 8.93734,10.467231 12.42963,16.371145 1.08546,1.835032 2.06973,3.755862 2.59154,5.823062 0.52181,2.0672 0.55581,4.30517 -0.22584,6.28876 -0.78921,2.00278 -2.33136,3.59743 -3.53429,5.38263 -0.60147,0.89259 -1.1261,1.85065 -1.40936,2.88904 -0.28326,1.03839 -0.31311,2.1665 0.0566,3.17735 0.29244,0.7996 0.82665,1.50139 1.48639,2.03955 0.65975,0.53816 1.44187,0.91646 2.25963,1.15345 1.6355,0.47397 3.37928,0.38724 5.06963,0.18171 7.43935,-0.90457 14.45027,-4.0091 20.92591,-7.78115 6.47564,-3.77205 12.52372,-8.23265 18.89828,-12.17312 20.23205,-12.506546 43.2771,-19.513051 65.72902,-27.365478 31.12194,-10.884709 62.13624,-23.944008 87.37264,-45.161354 8.4747,-7.125087 16.4227,-15.245109 26.5183,-19.79114 7.3533,-3.311151 15.4456,-4.53303 23.4151,-5.7663321 2.5599,-0.3961565 5.1829,-0.7961347 7.7235,-0.2905521 1.2703,0.2527913 2.5059,0.7371265 3.5474,1.5070838 1.0414,0.7699574 1.8814,1.8355614 2.2854,3.0661364 0.4076,1.241601 0.3596,2.602423 0.029,3.866676 -0.3308,1.264254 -0.9326,2.442379 -1.6178,3.55512 -1.5494,2.516004 -3.5305,4.731787 -5.4019,7.018454 -1.8714,2.286666 -3.6632,4.69404 -4.7458,7.443376 -1.1524,2.926636 -1.4526,6.152725 -1.0957,9.277764 0.357,3.125039 1.355,6.154777 2.7103,8.993165 2.7106,5.676776 6.7978,10.556959 10.5428,15.611508 19.6642,26.540631 30.2899,58.566693 39.5429,90.275773 11.0209,37.76732 20.5447,75.99005 27.7923,114.65919 10.3326,55.12944 16.0253,111.20771 15.3336,167.29282 -0.1686,13.66799 -0.7113,27.40967 1.1945,40.94518 1.1899,8.45084 3.335,16.92951 2.3614,25.40799 -0.6898,6.0071 -2.9735,11.82486 -6.5607,16.69244 -3.3929,4.60403 -7.8616,8.29484 -11.6269,12.59963 -8.5084,9.72736 -13.1483,22.28271 -15.8468,34.92124 -5.339,25.00519 -3.706,50.88495 -3.1744,76.44823 1.5013,72.19339 -6.0403,144.57018 -22.3925,214.90327"
       id="path897"
       inkscape:path-effect="#path-effect899"
       inkscape:original-d="m 635.82528,862.48823 c -6.50308,-46.37079 -13.00715,-92.74257 -19.51223,-139.11536 -6.50508,-46.37279 -0.65628,-93.55915 -0.98591,-140.34022 -0.32964,-46.78107 10.55337,-84.70457 15.82855,-127.05836 5.27519,-42.35379 22.92487,-46.23547 34.38581,-69.35471 11.46094,-23.11924 20.35013,-42.77639 30.5237,-64.16608 10.17357,-21.3897 15.29086,-49.42524 22.93478,-74.13936 7.64393,-24.71412 6.14805,-31.35436 9.22057,-47.03304 3.07252,-15.67867 -2.7254,-24.68717 -4.08959,-37.03225 -1.3642,-12.34509 9.13263,-7.04635 13.69745,-10.57102 4.56482,-3.52467 24.92788,-18.2466 37.39032,-27.3714 12.46244,-9.12481 22.50723,-1.8973 33.75934,-2.84745 11.25212,-0.95015 15.00034,0.30281 22.49901,0.45271 7.49867,0.1499 3.70735,8.43484 5.55953,12.65077 1.85217,4.21592 10.71291,17.26737 16.06786,25.89956 5.35496,8.63218 7.42858,8.90449 11.14138,13.35524 3.71279,4.45075 11.10081,9.00007 16.64972,13.49861 5.5489,4.49853 4.35735,7.04867 6.53453,10.5715 2.17718,3.52284 6.79308,-2.0129 10.18811,-3.02085 3.39504,-1.00795 -6.92334,-10.87269 -10.38651,-16.31054 -3.46317,-5.43784 -17.2357,-18.05901 -25.85505,-27.09002 -8.61935,-9.03101 -7.55188,-12.60223 -11.32932,-18.90485 -3.77744,-6.30262 -4.82073,-15.17779 -7.2326,-22.76818 -2.41186,-7.59039 -1.32519,-6.87774 -1.98929,-10.31811 -0.66409,-3.440372 -5.71654,-3.183194 -8.57631,-4.776291 -2.85977,-1.593096 -6.55126,-2.338527 -9.82839,-3.50929 -3.27712,-1.170764 -3.91819,-0.930183 -5.87878,-1.396774 -1.9606,-0.466592 -1.98437,-6.586656 -2.97805,-9.881483 -0.99368,-3.294828 6.50664,-9.526626 9.75847,-14.29144 3.25182,-4.764813 9.34768,-1.006221 14.02002,-1.510832 4.67234,-0.504611 13.92869,11.595255 20.89153,17.391383 6.96285,5.796127 8.28742,10.915097 12.42963,16.371145 4.14221,5.456052 1.57813,8.075552 2.3657,12.111822 0.78756,4.03628 -3.25704,7.63368 -4.88706,11.44902 -1.63002,3.81534 5.8781,2.25081 8.81565,3.37471 2.93755,1.1239 26.55046,-13.30185 39.82419,-19.95427 13.27373,-6.65243 43.82034,-18.242653 65.72902,-27.365478 21.90864,-9.122826 58.24944,-30.106569 87.37264,-45.161354 29.1232,-15.054784 17.6799,-13.193093 26.5183,-19.79114 8.8384,-6.5980466 15.6111,-3.843221 23.4151,-5.7663321 7.804,-1.9231108 9.0386,2.8561121 13.5563,4.2826681 4.5178,1.426557 -1.0583,4.948864 -1.589,7.421796 -0.5306,2.472931 -6.7641,9.64222 -10.1477,14.46183 -3.3835,4.81961 8.106,22.589291 12.1574,33.882437 4.0515,11.293145 26.3629,60.184853 39.5429,90.275773 13.18,30.09092 18.5292,76.44046 27.7923,114.65919 9.2631,38.21873 10.2234,111.52954 15.3336,167.29282 5.1102,55.76327 0.7973,27.29778 1.1945,40.94518 0.3971,13.64739 1.5753,16.93966 2.3614,25.40799 0.7861,8.46833 -4.3728,11.12929 -6.5607,16.69244 -2.1879,5.56315 -7.7503,8.40075 -11.6269,12.59963 -3.8766,4.19887 -10.5635,23.28183 -15.8468,34.92124 -5.2833,11.63942 -2.1153,50.96649 -3.1744,76.44823 -1.0591,25.48174 -14.9273,143.26985 -22.3925,214.90327" />
  </g>
</svg>
