<?xml version="1.0" encoding="UTF-8" standalone="no"?>
<!-- Created with Inkscape (http://www.inkscape.org/) -->

<svg
   version="1.1"
   id="svg2"
   width="1893"
   height="1024"
   viewBox="0 0 1893 1024"
   xmlns:xlink="http://www.w3.org/1999/xlink"
   xmlns="http://www.w3.org/2000/svg"
   xmlns:svg="http://www.w3.org/2000/svg">
  <defs
     id="defs6" />
  <g
     id="g8">
    
    <path
       style="font-variation-settings:normal;opacity:1;vector-effect:none;fill:none;fill-opacity:1;stroke:#c86487;stroke-width:1px;stroke-linecap:butt;stroke-linejoin:miter;stroke-miterlimit:4;stroke-dasharray:none;stroke-dashoffset:0;stroke-opacity:1;-inkscape-stroke:none;stop-color:#000000;stop-opacity:1"
       d="M 1160.7016,863.00118 635.60501,862.71665"
       id="path860" />
    <path
       style="font-variation-settings:normal;opacity:1;vector-effect:none;fill:none;fill-opacity:1;stroke:#c86487;stroke-width:1px;stroke-linecap:butt;stroke-linejoin:miter;stroke-miterlimit:4;stroke-dasharray:none;stroke-dashoffset:0;stroke-opacity:1;-inkscape-stroke:none;stop-color:#000000;stop-opacity:1"
       d="m 635.60501,862.71665 c -31.12886,-13.29726 -54.95256,-42.50159 -61.72605,-75.66698 -4.13478,-20.24536 -2.21936,-41.26351 1.53242,-61.58334 3.75177,-20.31983 9.31537,-40.2897 12.5217,-60.7027 8.62005,-54.87934 0.0475,-111.82257 12.75517,-165.90181 6.21095,-26.43164 17.35622,-51.43262 29.37125,-75.78106 8.57278,-17.37271 17.66098,-34.60467 23.62681,-53.03596 6.89952,-21.3159 9.51406,-43.91871 17.53188,-64.83965 6.1223,-15.97494 15.25212,-30.59277 22.88636,-45.90288 3.29187,-6.60168 6.34482,-13.46088 7.3342,-20.77112 0.4947,-3.65513 0.46004,-7.39996 -0.32024,-11.00493 -0.78027,-3.60497 -2.32109,-7.06836 -4.64976,-9.92877 -2.04299,-2.5095 -4.63627,-4.50421 -6.9335,-6.78327 -2.29722,-2.27907 -4.36933,-4.99359 -4.9337,-8.17994 -0.29018,-1.6383 -0.16412,-3.33568 0.24898,-4.94738 0.41309,-1.61171 1.10787,-3.14175 1.94582,-4.57913 1.67592,-2.87477 3.91102,-5.376 5.88132,-8.05758 3.34596,-4.55385 5.92033,-9.61673 8.79681,-14.48076 2.87649,-4.86403 6.13165,-9.61749 10.5224,-13.17477 3.79962,-3.07836 8.32036,-5.15107 12.94521,-6.73981 4.62485,-1.58874 9.39184,-2.72229 14.07667,-4.12433 8.16317,-2.44302 16.09223,-5.70545 24.41176,-7.54694 8.31953,-1.84148 17.28074,-2.17371 25.12466,1.15474 4.40344,1.86854 8.2801,4.818 11.70794,8.15442 3.42783,3.33642 6.44006,7.06946 9.48105,10.76189 16.71654,20.29755 34.56196,39.65285 51.0077,60.17043 1.64986,2.05836 3.36739,4.19526 5.74153,5.34519 2.11936,1.02652 4.63309,1.15408 6.88563,0.46742 0.8702,-0.26527 1.70859,-0.64916 2.44752,-1.17982 0.73893,-0.53066 1.37691,-1.21107 1.81257,-2.00971 0.43344,-0.79458 0.66035,-1.69598 0.69156,-2.60056 0.0312,-0.90457 -0.13062,-1.81183 -0.43793,-2.66317 -0.61463,-1.70269 -1.79487,-3.15596 -3.16232,-4.34213 -2.7349,-2.37234 -6.2109,-3.75484 -8.97377,-6.09455 -1.55118,-1.3136 -2.8436,-2.90056 -4.12172,-4.48109 -26.03466,-32.19466 -50.52182,-66.2457 -82.59378,-92.43137 -3.20463,-2.61647 -6.59248,-5.2895 -8.33605,-9.04123 -1.03413,-2.225186 -1.41976,-4.72099 -1.30766,-7.172175 0.11209,-2.451185 0.70899,-4.862768 1.56228,-7.163368 0.60527,-1.6319 1.34602,-3.2254 2.3579,-4.641577 1.01188,-1.416177 2.30687,-2.653852 3.85689,-3.445623 2.59157,-1.323814 5.69572,-1.302847 8.52418,-0.618309 2.82845,0.684538 5.46309,1.981601 8.12994,3.146351 4.08857,1.785689 8.32241,3.287409 12.16987,5.546206 5.144,3.019979 9.44015,7.30646 13.21492,11.925128 4.15355,5.082127 7.75263,10.624477 12.2483,15.406627 4.49567,4.78216 10.11064,8.86032 16.5808,9.96352 3.97534,0.67782 8.08121,0.196 11.96947,-0.87367 3.88826,-1.06966 7.59128,-2.71362 11.2572,-4.39404 15.27039,-6.99979 30.19429,-14.73946 45.49882,-21.664292 24.54444,-11.105612 50.13897,-20.15299 73.26813,-33.966249 28.18215,-16.831038 52.31115,-40.509829 82.42765,-53.5680717 1.0111,-0.4384196 2.0412,-0.8680756 3.1315,-1.0291579 1.3942,-0.2059849 2.8389,0.043924 4.1248,0.620679 1.2858,0.5767549 2.4164,1.4713155 3.3485,2.5283306 1.8643,2.11403 2.9162,4.815204 3.7364,7.511824 2.6245,8.628167 3.2366,17.752222 5.6191,26.450306 3.2477,11.856586 9.6746,22.560112 16.2149,32.969308 6.5402,10.409197 13.33,20.818452 17.4345,32.406363 4.9171,13.88217 5.7612,28.81734 8.3841,43.30916 4.8786,26.95503 15.9127,52.34867 23.8164,78.57664 14.3726,47.69451 18.3021,97.78607 24.0671,147.26438 4.4099,37.84803 9.9402,75.58967 12.6418,113.59785 0.2079,2.92526 0.3967,5.892 -0.1743,8.76851 -0.5974,3.00937 -2.0096,5.80731 -3.7347,8.34454 -1.725,2.53722 -3.7654,4.84122 -5.7595,7.17288 -6.7836,7.9318 -13.1264,16.31534 -17.9575,25.56689 -8.0284,15.37441 -11.6516,32.73623 -12.8513,50.03909 -1.1997,17.30286 -0.065,34.67137 0.9318,51.9871 4.1832,72.66171 5.9392,145.46313 5.2642,218.24203"
       id="path897" />
  </g>
</svg>
