<?xml version="1.0" encoding="UTF-8" standalone="no"?>
<!-- Created with Inkscape (http://www.inkscape.org/) -->

<svg
   version="1.1"
   id="svg2"
   width="1893"
   height="1024"
   viewBox="0 0 1893 1024"
   sodipodi:docname="frame_0107.svg"
   inkscape:version="1.1.2 (0a00cf5339, 2022-02-04)"
   xmlns:inkscape="http://www.inkscape.org/namespaces/inkscape"
   xmlns:sodipodi="http://sodipodi.sourceforge.net/DTD/sodipodi-0.dtd"
   xmlns:xlink="http://www.w3.org/1999/xlink"
   xmlns="http://www.w3.org/2000/svg"
   xmlns:svg="http://www.w3.org/2000/svg">
  <defs
     id="defs6">
    <inkscape:path-effect
       effect="spiro"
       id="path-effect899"
       is_visible="true"
       lpeversion="1" />
    <inkscape:path-effect
       effect="spiro"
       id="path-effect862"
       is_visible="true"
       lpeversion="1" />
  </defs>
  <sodipodi:namedview
     id="namedview4"
     pagecolor="#ffffff"
     bordercolor="#666666"
     borderopacity="1.0"
     inkscape:pageshadow="2"
     inkscape:pageopacity="0.0"
     inkscape:pagecheckerboard="0"
     showgrid="false"
     inkscape:zoom="0.6703645"
     inkscape:cx="1154.5957"
     inkscape:cy="355.7766"
     inkscape:window-width="1850"
     inkscape:window-height="1016"
     inkscape:window-x="70"
     inkscape:window-y="27"
     inkscape:window-maximized="1"
     inkscape:current-layer="g8" />
  <g
     inkscape:groupmode="layer"
     inkscape:label="Image"
     id="g8">
    
    <path
       style="font-variation-settings:normal;opacity:1;vector-effect:none;fill:none;fill-opacity:1;stroke:#c86487;stroke-width:1px;stroke-linecap:butt;stroke-linejoin:miter;stroke-miterlimit:4;stroke-dasharray:none;stroke-dashoffset:0;stroke-opacity:1;-inkscape-stroke:none;stop-color:#000000;stop-opacity:1"
       d="M 1160.3731,862.35008 H 635.6336"
       id="path860"
       inkscape:path-effect="#path-effect862"
       inkscape:original-d="M 1160.3731,862.35008 H 635.6336" />
    <path
       style="font-variation-settings:normal;opacity:1;vector-effect:none;fill:none;fill-opacity:1;stroke:#c86487;stroke-width:1px;stroke-linecap:butt;stroke-linejoin:miter;stroke-miterlimit:4;stroke-dasharray:none;stroke-dashoffset:0;stroke-opacity:1;-inkscape-stroke:none;stop-color:#000000;stop-opacity:1"
       d="M 635.6336,862.35008 C 619.36451,811.41047 611.3013,757.85975 611.84902,704.38801 612.39346,651.2366 621.356,598.58451 629.35741,546.036 c 2.24334,-14.73295 4.41407,-29.48409 7.32233,-44.10032 8.82967,-44.37585 24.44496,-87.28995 44.86886,-127.66374 6.88953,-13.61916 14.33279,-26.97449 20.46022,-40.9531 5.37515,-12.26243 9.71472,-24.95353 13.70045,-37.73529 6.63301,-21.27127 12.33575,-42.92607 21.43827,-63.26342 2.96569,-6.62611 6.29183,-13.11124 8.64087,-19.9802 2.34905,-6.86896 3.70018,-14.23966 2.55901,-21.40893 -0.76138,-4.78332 -2.60039,-9.31651 -3.99447,-13.95509 -1.39408,-4.63857 -2.34876,-9.58359 -1.29029,-14.31006 1.11085,-4.96038 4.35639,-9.21626 8.17046,-12.57665 3.81406,-3.36039 8.22165,-5.96085 12.44236,-8.79368 10.08139,-6.76636 19.21541,-14.94625 29.75407,-20.97572 9.86208,-5.64238 21.37425,-9.34775 32.57142,-7.41893 6.22796,1.07282 12.19417,3.92563 16.6796,8.37752 6.51285,6.46414 9.44622,15.61518 14.32046,23.38976 7.00881,11.17931 17.90959,19.32293 26.15662,29.62277 8.36889,10.45203 13.82036,22.87768 20.56563,34.4442 1.08893,1.86726 2.22654,3.73197 3.73361,5.28155 1.50706,1.54957 3.43085,2.77765 5.57014,3.08727 1.2648,0.18305 2.57574,0.037 3.76943,-0.41944 1.1937,-0.45643 2.26754,-1.22219 3.08841,-2.20168 1.35944,-1.62213 1.98577,-3.7883 1.92973,-5.90401 -0.056,-2.11572 -0.75908,-4.18108 -1.80551,-6.02075 -2.09285,-3.67934 -5.45724,-6.42375 -8.48969,-9.37703 -7.42582,-7.23196 -13.12099,-16.05926 -17.98977,-25.21016 -3.89084,-7.31286 -7.3922,-15.02095 -13.14574,-20.98026 -2.51673,-2.60674 -5.41167,-4.81841 -8.02192,-7.3315 -2.61026,-2.51309 -4.98319,-5.41829 -6.08867,-8.86894 -1.01435,-3.1662 -0.89649,-6.5661 -0.84213,-9.89037 0.0885,-5.41157 -0.0184,-10.82435 0,-16.23662 0.007,-2.09324 0.0159,-4.2687 -0.87413,-6.163318 -0.97668,-2.079095 -2.96354,-3.572139 -5.14048,-4.305275 -2.17693,-0.733136 -4.53412,-0.771373 -6.81638,-0.510898 -2.03765,0.232557 -4.04341,0.695743 -6.08019,0.935718 -2.03679,0.239974 -4.14498,0.248379 -6.08788,-0.408314 -1.56679,-0.52957 -2.9894,-1.492914 -4.03596,-2.773531 -1.04656,-1.280616 -1.70963,-2.876892 -1.84391,-4.525297 -0.11179,-1.372262 0.13949,-2.765098 0.66542,-4.037498 0.52593,-1.272399 1.32201,-2.425798 2.2799,-3.414765 1.91577,-1.977935 4.43751,-3.274532 7.03929,-4.17628 9.18511,-3.183458 19.43179,-1.69543 28.5132,1.772796 2.97776,1.137218 5.90158,2.495319 8.44607,4.41518 2.5445,1.919861 4.70472,4.440192 5.81633,7.427605 0.85658,2.302027 1.06599,4.787972 1.20623,7.240194 0.19604,3.428001 0.26788,6.909353 -0.52741,10.249583 -0.4173,1.75268 -1.06918,3.44623 -1.41893,5.21362 -0.34975,1.7674 -0.37458,3.67484 0.42043,5.29162 0.78344,1.59325 2.30564,2.74615 3.97982,3.33718 1.67418,0.59104 3.49314,0.66398 5.2609,0.49897 4.77901,-0.44609 9.24968,-2.5641 13.3311,-5.08997 4.08141,-2.52586 7.88619,-5.48821 12.04242,-7.88899 7.89041,-4.55776 16.81312,-6.96416 25.65924,-9.149973 8.84613,-2.185814 17.81575,-4.227278 26.03708,-8.156829 8.97193,-4.288314 16.75858,-10.685837 25.39693,-15.611698 15.31774,-8.734647 33.10144,-12.728291 47.82474,-22.431406 11.7561,-7.747641 21.2489,-18.94342 34.0344,-24.839493 11.086,-5.112355 23.6137,-5.763755 35.7577,-7.012784 12.144,-1.249029 24.7924,-3.410368 34.4754,-10.8450515 0.9035,-0.6937008 1.8161,-1.4501142 2.924,-1.7146608 0.8443,-0.2015979 1.7543,-0.091807 2.5403,0.2765674 0.786,0.3683745 1.4464,0.9888786 1.8906,1.7346029 0.4443,0.745724 0.6748,1.612613 0.6917,2.480486 0.017,0.867873 -0.1766,1.7356 -0.5312,2.527906 -0.5895,1.317139 -1.6096,2.408401 -2.7769,3.256807 -1.1673,0.848407 -2.4826,1.470003 -3.8121,2.03114 -1.3294,0.561137 -2.6838,1.067893 -3.9751,1.711959 -1.2914,0.644066 -2.5282,1.434761 -3.5145,2.488148 -1.4542,1.553151 -2.295,3.625136 -2.5383,5.738846 -0.2433,2.11371 0.086,4.267647 0.7544,6.287754 1.3359,4.040216 3.9565,7.502075 6.2714,11.072657 7.1121,10.969923 11.5501,23.40862 16.5225,35.499786 7.8735,19.145646 17.2629,37.806976 22.3224,57.880576 5.2316,20.7565 5.6699,42.37137 8.1635,63.63129 3.9539,33.71017 13.0865,66.56341 19.9415,99.80523 4.0123,19.45709 7.2505,39.09024 9.0865,58.87171 2.504,26.97958 2.3919,54.14037 1.3723,81.21672 -1.0268,27.26827 -2.9583,54.77096 1.4788,81.6954 0.2275,1.38073 0.4722,2.76375 0.524,4.16214 0.052,1.39839 -0.096,2.82407 -0.6284,4.11828 -0.5502,1.33795 -1.496,2.49145 -2.6158,3.40736 -1.1198,0.91591 -2.4109,1.60404 -3.7465,2.15992 -2.6712,1.11175 -5.5383,1.71247 -8.1758,2.90202 -3.3635,1.51703 -6.2654,3.96693 -8.5425,6.87033 -2.277,2.90341 -3.9462,6.25223 -5.1556,9.73826 -2.4186,6.97205 -3.0133,14.41811 -3.9269,21.74098 -2.903,23.26774 -9.179,45.95757 -14.4586,68.80359 -16.0502,69.45203 -22.9632,141.00992 -20.5051,212.25"
       id="path897"
       inkscape:path-effect="#path-effect899"
       inkscape:original-d="M 635.6336,862.35008 C 627.70641,809.69706 619.77822,757.04303 611.84902,704.38801 603.91983,651.73299 623.52228,598.821 629.35741,546.036 c 5.83513,-52.785 4.88255,-29.39922 7.32233,-44.10032 2.43978,-14.70111 29.91357,-85.10816 44.86886,-127.66374 14.95529,-42.55558 13.64114,-27.30107 20.46022,-40.9531 6.81907,-13.65203 9.13463,-25.15586 13.70045,-37.73529 4.56581,-12.57942 14.29318,-42.17461 21.43827,-63.26342 7.14509,-21.08881 7.46759,-27.59176 11.19988,-41.38913 3.7323,-13.79738 -3.52217,-18.84243 -5.28476,-28.26515 -1.76259,-9.42271 13.74288,-14.24589 20.61282,-21.37033 6.86994,-7.12445 19.83704,-13.98282 29.75407,-20.97572 9.91702,-6.99291 21.71528,-4.94495 32.57142,-7.41893 10.85615,-2.47398 11.12073,5.58601 16.6796,8.37752 5.55886,2.79151 9.54797,15.59417 14.32046,23.38976 4.77249,7.79559 17.43875,19.74951 26.15662,29.62277 8.71788,9.87325 13.71142,22.9638 20.56563,34.4442 6.85421,11.4804 6.2035,5.58021 9.30375,8.36882 3.10025,2.7886 4.57289,-1.74642 6.85784,-2.62112 2.28495,-0.87471 -5.57598,-14.20019 -8.36547,-21.30179 -2.78949,-7.1016 -11.99218,-16.80578 -17.98977,-25.21016 -5.99758,-8.40439 -8.76283,-13.98584 -13.14574,-20.98026 -4.38292,-6.99442 -9.40606,-10.79929 -14.11059,-16.20044 -4.70453,-5.40115 -0.56042,-6.59258 -0.84213,-9.89037 -0.28171,-3.29779 0.001,-10.82341 0,-16.23662 -10e-4,-5.413207 -0.58175,-4.10788 -0.87413,-6.163318 -0.29237,-2.055439 -7.97024,-3.209782 -11.95686,-4.816173 -3.98662,-1.606391 -8.11105,0.352603 -12.16807,0.527404 -4.05702,0.174802 -3.91891,-4.864885 -5.87987,-7.298828 -1.96095,-2.433943 6.65741,-7.751362 9.98461,-11.628543 3.3272,-3.877181 19.0098,1.182864 28.5132,1.772796 9.5034,0.589932 9.50926,7.89619 14.2624,11.842785 4.75313,3.946595 0.80515,4.827796 1.20623,7.240194 0.40108,2.412398 -0.3506,6.834053 -0.52741,10.249583 -0.1768,3.41552 -0.66467,7.00449 -0.9985,10.50524 -0.33384,3.50075 6.16148,2.55843 9.24072,3.83615 3.07924,1.27771 16.91668,-8.65164 25.37352,-12.97896 8.45685,-4.32732 34.46521,-11.536868 51.69632,-17.306802 17.23111,-5.769934 16.93229,-10.406798 25.39693,-15.611698 8.46464,-5.204899 31.88414,-14.953271 47.82474,-22.431406 15.9406,-7.478136 22.6906,-16.558662 34.0344,-24.839493 11.3437,-8.280831 46.8231,-11.904224 70.2331,-17.8578355 23.4101,-5.9536117 1.9503,-1.1421072 2.924,-1.7146608 0.9736,-0.5725536 3.0619,4.6807083 4.5914,7.0195623 1.5295,2.338854 -9.3847,6.326369 -14.0786,9.488054 -4.6939,3.161684 2.9927,15.400505 4.4875,23.099257 1.4949,7.698752 11.016,23.667524 16.5225,35.499786 5.5065,11.832262 14.8826,38.588046 22.3224,57.880576 7.4398,19.29252 5.4433,42.42186 8.1635,63.63129 2.7202,21.20943 13.2953,66.53782 19.9415,99.80523 6.6461,33.2674 6.0587,39.2488 9.0865,58.87171 3.0279,19.6229 0.9159,54.14548 1.3723,81.21672 0.4564,27.07124 0.9869,54.4646 1.4788,81.6954 0.4919,27.2308 -0.069,5.52128 -0.1044,8.28042 -0.036,2.75914 -9.6911,5.6472 -14.5381,8.4693 -4.8471,2.8221 -11.749,25.56738 -17.625,38.34957 -5.876,12.78219 -9.6381,45.87006 -14.4586,68.80359 -4.8205,22.93353 -13.6691,141.501 -20.5051,212.25" />
  </g>
</svg>
