<?xml version="1.0" encoding="UTF-8" standalone="no"?>
<!-- Created with Inkscape (http://www.inkscape.org/) -->

<svg
   version="1.1"
   id="svg2"
   width="1893"
   height="1024"
   viewBox="0 0 1893 1024"
   sodipodi:docname="frame_0143.svg"
   inkscape:version="1.1.2 (0a00cf5339, 2022-02-04)"
   xmlns:inkscape="http://www.inkscape.org/namespaces/inkscape"
   xmlns:sodipodi="http://sodipodi.sourceforge.net/DTD/sodipodi-0.dtd"
   xmlns:xlink="http://www.w3.org/1999/xlink"
   xmlns="http://www.w3.org/2000/svg"
   xmlns:svg="http://www.w3.org/2000/svg">
  <defs
     id="defs6">
    <inkscape:path-effect
       effect="spiro"
       id="path-effect899"
       is_visible="true"
       lpeversion="1" />
    <inkscape:path-effect
       effect="spiro"
       id="path-effect862"
       is_visible="true"
       lpeversion="1" />
  </defs>
  <sodipodi:namedview
     id="namedview4"
     pagecolor="#ffffff"
     bordercolor="#666666"
     borderopacity="1.0"
     inkscape:pageshadow="2"
     inkscape:pageopacity="0.0"
     inkscape:pagecheckerboard="0"
     showgrid="false"
     inkscape:zoom="0.6703645"
     inkscape:cx="1217.2482"
     inkscape:cy="592.96099"
     inkscape:window-width="1850"
     inkscape:window-height="1016"
     inkscape:window-x="70"
     inkscape:window-y="27"
     inkscape:window-maximized="1"
     inkscape:current-layer="g8" />
  <g
     inkscape:groupmode="layer"
     inkscape:label="Image"
     id="g8">
    
    <path
       style="font-variation-settings:normal;opacity:1;vector-effect:none;fill:none;fill-opacity:1;stroke:#c86487;stroke-width:1px;stroke-linecap:butt;stroke-linejoin:miter;stroke-miterlimit:4;stroke-dasharray:none;stroke-dashoffset:0;stroke-opacity:1;-inkscape-stroke:none;stop-color:#000000;stop-opacity:1"
       d="M 1161.1103,862.57702 H 635.39825"
       id="path860"
       inkscape:path-effect="#path-effect862"
       inkscape:original-d="M 1161.1103,862.57702 H 635.39825" />
    <path
       style="font-variation-settings:normal;opacity:1;vector-effect:none;fill:none;fill-opacity:1;stroke:#c86487;stroke-width:1px;stroke-linecap:butt;stroke-linejoin:miter;stroke-miterlimit:4;stroke-dasharray:none;stroke-dashoffset:0;stroke-opacity:1;-inkscape-stroke:none;stop-color:#000000;stop-opacity:1"
       d="m 635.39825,862.57702 c 14.92708,-40.18636 19.22132,-84.26844 12.33077,-126.58016 -7.97122,-48.9476 -30.56753,-95.76315 -29.56666,-145.34547 0.66945,-33.1638 11.90197,-65.04755 20.73548,-97.02027 6.56487,-23.76144 11.87806,-47.94527 20.76724,-70.93845 9.82416,-25.41165 23.86176,-48.96702 34.97398,-73.8424 8.01622,-17.94479 14.4926,-36.53841 20.47282,-55.26039 5.39838,-16.90045 10.40212,-33.93024 16.20643,-50.69561 3.67215,-10.60677 7.68905,-21.20554 9.20621,-32.32698 1.54593,-11.33232 0.42313,-22.98228 -2.92197,-33.91945 -1.47807,-4.8327 -3.40795,-9.69191 -3.15822,-14.73942 0.25155,-5.08426 2.74906,-9.86985 6.16537,-13.64368 3.41631,-3.77383 7.71228,-6.63886 12.10974,-9.2031 19.77933,-11.53371 42.20225,-17.62588 63.05615,-27.07908 2.50747,-1.13665 5.0054,-2.32699 7.65001,-3.0921 2.64461,-0.76512 5.47422,-1.09083 8.15584,-0.46772 2.63095,0.61134 4.99924,2.11381 6.92713,4.00561 1.92789,1.8918 3.44295,4.16465 4.76526,6.51989 4.4591,7.94237 6.8899,17.00394 12.21123,24.39639 4.7658,6.6207 11.5589,11.49104 16.91617,17.64296 3.18615,3.65876 5.83983,7.74254 8.73274,11.6373 8.43797,11.36015 18.92961,21.13565 26.77161,32.91509 0.33604,0.50476 0.66862,1.01504 1.07268,1.46719 0.40405,0.45215 0.88643,0.84777 1.45057,1.07014 0.82313,0.32446 1.78921,0.24602 2.56211,-0.18461 0.7729,-0.43063 1.34346,-1.19955 1.55714,-2.05813 0.17043,-0.68478 0.12226,-1.40637 0,-2.10136 -0.38589,-2.19363 -1.48946,-4.20735 -2.846,-5.97391 -1.35654,-1.76656 -2.96881,-3.31694 -4.5286,-4.90691 -10.11046,-10.30608 -18.16808,-22.45893 -25.17216,-35.08349 -2.75339,-4.96286 -5.35439,-10.01122 -8.22642,-14.90638 -4.0674,-6.93258 -8.72764,-13.66705 -11.01344,-21.37286 -1.70512,-5.74823 -2.01439,-11.80447 -3.04621,-17.71082 -0.3943,-2.25707 -0.90025,-4.512083 -1.81708,-6.611908 -0.91682,-2.099826 -2.26934,-4.050516 -4.11894,-5.402853 -2.12852,-1.556267 -4.80041,-2.235963 -7.43513,-2.339906 -2.63472,-0.103944 -5.25903,0.332452 -7.84894,0.827359 -2.46994,0.471982 -4.94833,1.000712 -7.46286,1.023202 -2.51453,0.02249 -5.10777,-0.501842 -7.15553,-1.961307 -1.39928,-0.997282 -2.49234,-2.401731 -3.18653,-3.973561 -0.69419,-1.57183 -0.99554,-3.306196 -0.95008,-5.023892 0.0909,-3.435393 1.54959,-6.726714 3.57722,-9.501405 4.21755,-5.77146 11.03343,-9.545624 18.15742,-10.134049 8.29478,-0.68513 16.42478,2.744981 23.41887,7.256679 4.6922,3.026806 9.08287,6.600602 12.56738,10.963681 3.277,4.103246 5.72397,8.904748 6.84978,14.033868 0.81566,3.716085 0.93214,7.601102 0.17851,11.330262 -0.30917,1.52984 -0.76362,3.03694 -0.89422,4.59223 -0.0653,0.77765 -0.0482,1.56614 0.10857,2.33062 0.15677,0.76447 0.45652,1.50547 0.92284,2.1312 0.63199,0.84803 1.55472,1.4582 2.55719,1.79528 1.00246,0.33708 2.08184,0.41069 3.13421,0.30549 2.60655,-0.26056 4.99265,-1.58172 7.10361,-3.13279 2.11096,-1.55107 4.0317,-3.35761 6.21397,-4.80663 4.08211,-2.71051 8.88861,-4.05406 13.48677,-5.74741 13.01846,-4.794255 24.72095,-12.574569 37.42204,-18.155567 17.84994,-7.843461 37.32463,-11.202289 55.69618,-17.731179 15.5608,-5.530019 30.2131,-13.290654 44.9819,-20.679986 21.6713,-10.84284 43.708,-20.93569 65.7275,-31.052757 7.8659,-3.61405 15.8694,-7.2734797 24.44,-8.4890042 3.9311,-0.557524 7.9716,-0.5846698 11.8395,0.3116791 3.0369,0.7037646 5.9622,1.9879546 8.4034,3.9265685 2.4413,1.9386136 4.3821,4.5492896 5.33,7.5190516 0.9549,2.991774 0.8836,6.202884 0.7445,9.340269 -0.139,3.137385 -0.3321,6.32538 0.3976,9.379892 0.7021,2.939048 2.2272,5.612181 3.8773,8.143631 1.65,2.531451 3.4505,4.979218 4.7986,7.683569 3.2741,6.567905 3.6626,14.178267 3.442,21.513711 -0.2205,7.335445 -0.9822,14.734138 0.2249,21.972943 1.3426,8.051489 5.057,15.500719 9.0775,22.604549 4.0206,7.10384 8.4181,14.0528 11.3313,21.67792 5.3813,14.08535 5.3809,29.54354 7.0294,44.53148 3.302,30.02265 13.4009,58.87445 18.5742,88.63181 6.1327,35.27639 5.273,71.34347 7.7132,107.06572 1.5208,22.2627 4.3256,44.66792 1.4992,66.80278 -1.1717,9.17612 -3.3033,18.21145 -4.406,27.39611 -1.1028,9.18466 -1.1391,18.69087 1.7936,27.46432 0.9174,2.74445 2.119,5.39874 2.8155,8.20738 0.6965,2.80865 0.8541,5.86545 -0.294,8.52164 -0.8278,1.91512 -2.2903,3.50805 -3.975,4.73889 -1.6846,1.23083 -3.5914,2.12289 -5.5239,2.90925 -3.004,1.22235 -6.1028,2.20877 -9.0686,3.52107 -2.9658,1.3123 -5.8321,2.98201 -8.0431,5.35463 -1.9401,2.08192 -3.3129,4.64141 -4.2996,7.31067 -0.9867,2.66926 -1.6033,5.45902 -2.177,8.24638 -7.3548,35.73367 -8.103,72.43741 -10.7073,108.82706 -4.9163,68.69495 -16.5485,136.90761 -34.6768,203.34954"
       id="path897"
       inkscape:path-effect="#path-effect899"
       inkscape:original-d="m 635.39825,862.57702 c 4.11126,-42.19239 8.22151,-84.38577 12.33077,-126.58016 4.10925,-42.19438 -19.71011,-96.89598 -29.56666,-145.34547 -9.85655,-48.4495 13.82466,-64.67918 20.73548,-97.02027 6.91083,-32.34109 13.84583,-47.2913 20.76724,-70.93845 6.92141,-23.64714 23.31699,-49.22726 34.97398,-73.8424 11.65699,-24.61513 13.64955,-36.83926 20.47282,-55.26039 6.82328,-18.42113 10.80529,-33.79608 16.20643,-50.69561 5.40114,-16.89954 6.13847,-21.55032 9.20621,-32.32698 3.06774,-10.77665 -1.94698,-22.61197 -2.92197,-33.91945 -0.97499,-11.30749 -2.10448,-9.82528 -3.15822,-14.73942 -1.05373,-4.91415 12.18441,-15.23019 18.27511,-22.84678 6.0907,-7.61659 42.03843,-18.05172 63.05615,-27.07908 21.01771,-9.02736 10.53823,-2.37221 15.80585,-3.55982 5.26762,-1.18761 7.79593,7.018 11.69239,10.5255 3.89647,3.5075 8.14182,16.26526 12.21123,24.39639 4.06941,8.13113 11.27845,11.76297 16.91617,17.64296 5.63772,5.87999 5.82282,7.7592 8.73274,11.6373 2.90991,3.8781 17.84874,21.94439 26.77161,32.91509 8.92287,10.9707 1.68317,1.69255 2.52325,2.53733 0.84009,0.84477 2.74717,-1.49416 4.11925,-2.24274 1.37208,-0.74857 10e-4,-1.39991 0,-2.10136 -10e-4,-0.70146 -4.9154,-7.25288 -7.3746,-10.88082 -2.4592,-3.62794 -16.78044,-23.38799 -25.17216,-35.08349 -8.39172,-11.69549 -5.48328,-9.93659 -8.22642,-14.90638 -2.74314,-4.9698 -7.34129,-14.24758 -11.01344,-21.37286 -3.67215,-7.12529 -2.0298,-11.80622 -3.04621,-17.71082 -1.0164,-5.904608 -3.95635,-8.008841 -5.93602,-12.014761 -1.97968,-4.00592 -10.18838,-1.007365 -15.28407,-1.512547 -5.09569,-0.505183 -9.74459,-0.624403 -14.61839,-0.938105 -4.8738,-0.313701 -0.37193,-12.331572 -0.55939,-18.498858 -0.18747,-6.167287 12.10595,-6.755033 18.15742,-10.134049 6.05147,-3.379017 15.61358,4.838786 23.41887,7.256679 7.80529,2.417893 8.37925,7.310121 12.56738,10.963681 4.18812,3.653561 4.56752,9.356912 6.84978,14.033868 2.28226,4.676955 0.12,7.554512 0.17851,11.330262 0.0585,3.77575 0.0925,6.03703 0.13719,9.05405 0.0447,3.01701 3.79527,1.40152 5.6914,2.10077 1.89613,0.69926 8.87939,-5.29195 13.31758,-7.93942 4.4382,-2.64748 8.99218,-3.83061 13.48677,-5.74741 4.49459,-1.916808 24.94903,-12.102713 37.42204,-18.155567 12.47301,-6.052855 37.13177,-11.819786 55.69618,-17.731179 18.5644,-5.911393 29.9889,-13.785657 44.9819,-20.679986 14.9929,-6.894329 43.8193,-20.700838 65.7275,-31.052757 21.9081,-10.3519186 16.2944,-5.6583361 24.44,-8.4890042 8.1457,-2.8306682 7.894,0.208786 11.8395,0.3116791 3.9455,0.102893 9.1566,7.6314131 13.7334,11.4456201 4.5768,3.814206 0.7624,12.481107 1.1421,18.720161 0.3797,6.239054 5.7849,10.552467 8.6759,15.8272 2.891,5.274733 2.4456,28.992102 3.6669,43.486654 1.2213,14.494549 13.6068,29.522649 20.4088,44.282469 6.8019,14.75982 4.6873,29.68865 7.0294,44.53148 2.3422,14.84283 12.3838,59.08887 18.5742,88.63181 6.1904,29.54294 5.1431,71.37815 7.7132,107.06572 2.57,35.68757 1.0005,44.53618 1.4992,66.80278 0.4988,22.26659 -1.7406,36.57462 -2.6124,54.86043 -0.8719,18.28582 1.682,11.15368 2.5215,16.72902 0.8396,5.57534 -6.3316,5.09976 -9.4989,7.64814 -3.1674,2.54839 -11.4068,5.91813 -17.1117,8.8757 -5.7049,2.95757 -4.3167,10.37237 -6.4766,15.55705 -2.1598,5.18468 -7.1372,72.55237 -10.7073,108.82706 -3.5701,36.27468 -23.1169,135.56736 -34.6768,203.34954" />
  </g>
</svg>
