<?xml version="1.0" encoding="UTF-8" standalone="no"?>
<!-- Created with Inkscape (http://www.inkscape.org/) -->

<svg
   version="1.1"
   id="svg2"
   width="1893"
   height="1024"
   viewBox="0 0 1893 1024"
   sodipodi:docname="frame_0138.svg"
   inkscape:version="1.1.2 (0a00cf5339, 2022-02-04)"
   xmlns:inkscape="http://www.inkscape.org/namespaces/inkscape"
   xmlns:sodipodi="http://sodipodi.sourceforge.net/DTD/sodipodi-0.dtd"
   xmlns:xlink="http://www.w3.org/1999/xlink"
   xmlns="http://www.w3.org/2000/svg"
   xmlns:svg="http://www.w3.org/2000/svg">
  <defs
     id="defs6">
    <inkscape:path-effect
       effect="spiro"
       id="path-effect899"
       is_visible="true"
       lpeversion="1" />
    <inkscape:path-effect
       effect="spiro"
       id="path-effect862"
       is_visible="true"
       lpeversion="1" />
  </defs>
  <sodipodi:namedview
     id="namedview4"
     pagecolor="#ffffff"
     bordercolor="#666666"
     borderopacity="1.0"
     inkscape:pageshadow="2"
     inkscape:pageopacity="0.0"
     inkscape:pagecheckerboard="0"
     showgrid="false"
     inkscape:zoom="0.47401928"
     inkscape:cx="1016.8363"
     inkscape:cy="207.79745"
     inkscape:window-width="1850"
     inkscape:window-height="1016"
     inkscape:window-x="70"
     inkscape:window-y="27"
     inkscape:window-maximized="1"
     inkscape:current-layer="g8" />
  <g
     inkscape:groupmode="layer"
     inkscape:label="Image"
     id="g8">
    
    <path
       style="font-variation-settings:normal;opacity:1;vector-effect:none;fill:none;fill-opacity:1;stroke:#c86487;stroke-width:1px;stroke-linecap:butt;stroke-linejoin:miter;stroke-miterlimit:4;stroke-dasharray:none;stroke-dashoffset:0;stroke-opacity:1;-inkscape-stroke:none;stop-color:#000000;stop-opacity:1"
       d="M 1160.3557,862.86176 H 635.71357"
       id="path860"
       inkscape:path-effect="#path-effect862"
       inkscape:original-d="M 1160.3557,862.86176 H 635.71357" />
    <path
       style="font-variation-settings:normal;opacity:1;vector-effect:none;fill:none;fill-opacity:1;stroke:#c86487;stroke-width:1px;stroke-linecap:butt;stroke-linejoin:miter;stroke-miterlimit:4;stroke-dasharray:none;stroke-dashoffset:0;stroke-opacity:1;-inkscape-stroke:none;stop-color:#000000;stop-opacity:1"
       d="m 635.71357,862.86176 c 18.19506,-24.68841 29.67612,-54.27555 32.89622,-84.77487 3.2201,-30.49933 -1.82911,-61.83173 -14.4673,-89.77549 -11.56307,-25.56661 -29.38125,-48.5133 -36.36954,-75.68902 -5.66257,-22.0203 -3.75383,-45.37296 1.21357,-67.56042 4.9674,-22.18746 12.90585,-43.58139 19.39643,-65.372 5.86284,-19.6831 10.54917,-39.70875 16.73108,-59.29398 4.99722,-15.83195 11.04016,-31.50053 20.2106,-45.33982 6.52369,-9.84503 14.58878,-18.70327 20.02482,-29.18815 4.24131,-8.18052 6.76182,-17.12528 9.17365,-26.01869 1.86143,-6.86388 3.67501,-13.74068 5.54278,-20.60284 4.39694,-16.15424 9.09608,-32.23294 14.51238,-48.07454 4.0412,-11.81969 8.48816,-23.52956 11.47998,-35.65744 2.60956,-10.57834 4.0984,-21.47884 3.73418,-32.36821 -0.18825,-5.6283 -0.86958,-11.23884 -0.84074,-16.87022 0.0288,-5.63137 0.80884,-11.38031 3.36581,-16.39779 3.42889,-6.72843 9.69276,-11.51209 15.98301,-15.69083 7.12437,-4.73286 14.54724,-8.99924 21.75089,-13.61053 7.42082,-4.75031 14.75752,-9.93828 23.1938,-12.48055 6.81568,-2.0539 14.17328,-2.27045 21.10217,-0.63869 5.46563,1.28716 10.74266,3.77102 14.7326,7.72201 2.3033,2.28082 4.12737,4.98944 6.01317,7.62594 2.3058,3.22369 4.72504,6.36483 7.18563,9.47199 19.96294,25.20856 42.79929,48.39321 59.04119,76.14553 0.72277,1.23498 1.47727,2.52659 2.68523,3.29367 0.8631,0.54809 1.94018,0.78193 2.93607,0.55052 0.49794,-0.11571 0.97053,-0.3451 1.36174,-0.67418 0.39121,-0.32908 0.69956,-0.75818 0.87537,-1.23821 0.24937,-0.6809 0.22603,-1.4383 0.0565,-2.14333 -0.16955,-0.70502 -0.47818,-1.36786 -0.79425,-2.02048 -7.41272,-15.30559 -19.72293,-27.5688 -30.12714,-41.021 -8.9074,-11.51689 -16.51542,-24.05269 -26.20131,-34.92302 -1.03205,-1.15825 -2.08932,-2.29962 -2.99569,-3.55865 -0.90637,-1.25904 -1.66378,-2.64901 -2.02394,-4.15797 -0.64324,-2.69498 0.0215,-5.51496 0.77362,-8.1816 0.75211,-2.66665 1.60322,-5.39477 1.32741,-8.15169 -0.2522,-2.52083 -1.44888,-4.88204 -3.06339,-6.834356 -1.61452,-1.952312 -3.63461,-3.52933 -5.72662,-4.958201 -2.35009,-1.605142 -4.82747,-3.051466 -7.49273,-4.049354 -2.66526,-0.997887 -5.5318,-1.537809 -8.36787,-1.301016 -2.41019,0.201235 -4.74525,0.953952 -7.15054,1.207087 -1.20265,0.126567 -2.42828,0.126161 -3.6101,-0.130127 -1.18182,-0.256288 -2.32139,-0.778814 -3.20505,-1.604364 -0.91154,-0.8516 -1.52121,-2.002183 -1.80172,-3.217683 -0.28052,-1.2155 -0.24133,-2.493096 0.0246,-3.711865 0.5319,-2.437538 1.93193,-4.590975 3.43271,-6.584007 3.1379,-4.167126 6.87988,-7.940552 11.33687,-10.651025 4.45698,-2.710472 9.66668,-4.317357 14.87604,-4.045424 4.44337,0.231948 8.73555,1.808239 12.61636,3.984611 3.88081,2.176371 7.39287,4.945091 10.85369,7.741517 2.37511,1.919146 4.7442,3.86605 6.80325,6.120959 2.05904,2.254908 3.81081,4.842758 4.76713,7.742712 1.20859,3.664944 1.07728,7.737643 -0.26148,11.357067 -1.07482,2.905859 -2.88038,5.490629 -4.04052,8.363499 -0.58007,1.43643 -0.99781,2.95439 -1.05055,4.50263 -0.0527,1.54824 0.27608,3.1325 1.09726,4.44608 0.84112,1.34548 2.18901,2.36295 3.7098,2.81571 1.83212,0.54545 3.82499,0.27695 5.63013,-0.35206 1.80514,-0.62901 3.46684,-1.60103 5.15414,-2.49948 14.09026,-7.50274 30.5761,-10.15331 43.81797,-19.068425 4.40451,-2.965345 8.34489,-6.559954 12.55454,-9.795969 4.20966,-3.236015 8.7925,-6.16008 13.93106,-7.497314 4.58656,-1.193586 9.4007,-1.070239 14.13637,-0.884061 4.73567,0.186177 9.53097,0.422499 14.16783,-0.557675 4.75827,-1.00584 9.16925,-3.260712 13.25505,-5.898718 4.0858,-2.638005 7.8995,-5.673301 11.9013,-8.437087 15.1093,-10.435012 32.5972,-16.811629 48.7218,-25.596737 10.4108,-5.672105 20.2474,-12.346281 30.6177,-18.092131 5.8938,-3.265582 11.9851,-6.240233 18.4212,-8.234779 6.4361,-1.9945458 13.2484,-2.9901303 19.9454,-2.2472609 3.0925,0.3430396 6.1857,1.0704865 8.9075,2.5781319 4.8355,2.678417 8.0835,7.601449 10.0033,12.785042 1.9199,5.183593 2.6819,10.708173 3.7291,16.135786 7.871,40.796932 32.0209,76.747967 42.4266,116.973117 6.0025,23.20349 7.3001,47.31524 9.997,71.13032 4.3351,38.28218 12.3365,76.07604 16.7304,114.35152 4.9535,43.14973 5.2977,86.67868 5.7529,130.10941 0.096,9.12319 0.1966,18.25076 0.7458,27.35791 0.3055,5.06592 0.722,10.32578 -1.1142,15.0571 -1.8341,4.72593 -5.7029,8.3451 -9.6757,11.49389 -4.5318,3.59186 -9.3982,6.83725 -13.2805,11.12291 -6.6487,7.33949 -9.873,17.11965 -12.1445,26.75882 -7.1321,30.26443 -6.5594,61.71788 -7.5006,92.79708 -2.1037,69.46918 -11.9907,138.69979 -29.4166,205.98076"
       id="path897"
       inkscape:path-effect="#path-effect899"
       inkscape:original-d="m 635.71357,862.86176 c 6.14397,-58.18245 12.28694,-116.36591 18.42892,-174.55036 6.14197,-58.18446 -24.24536,-50.45835 -36.36954,-75.68902 -12.12418,-25.23067 13.741,-88.62061 20.61,-132.93242 6.86899,-44.3118 11.15505,-39.52832 16.73108,-59.29398 5.57603,-19.76566 13.47473,-30.22555 20.2106,-45.33982 6.73587,-15.11428 13.35088,-19.45777 20.02482,-29.18815 6.67394,-9.73039 6.11677,-17.34479 9.17365,-26.01869 3.05688,-8.67389 3.69619,-13.73423 5.54278,-20.60284 1.84659,-6.86861 9.67592,-32.0487 14.51238,-48.07454 4.83645,-16.02585 7.65432,-23.77063 11.47998,-35.65744 3.82566,-11.88682 2.49045,-21.57781 3.73418,-32.36821 1.24373,-10.7904 1.68438,-22.17768 2.52507,-33.26801 0.84068,-11.09034 10.65634,-10.45956 15.98301,-15.69083 5.32667,-5.23128 14.50159,-9.07269 21.75089,-13.61053 7.24929,-4.53784 15.46353,-8.31937 23.1938,-12.48055 7.73026,-4.16118 14.06911,-0.42479 21.10217,-0.63869 7.03306,-0.2139 9.82273,5.149 14.7326,7.72201 4.90987,2.573 4.00978,5.08496 6.01317,7.62594 2.00339,2.54099 4.79142,6.31566 7.18563,9.47199 2.39421,3.15633 39.36179,50.76469 59.04119,76.14553 19.6794,25.38084 1.79115,2.19678 2.68523,3.29367 0.89408,1.09689 3.44979,-0.90691 5.17318,-1.36187 1.72339,-0.45496 -0.49085,-2.77487 -0.73777,-4.16381 -0.24692,-1.38893 -20.08376,-27.34633 -30.12714,-41.021 -10.04338,-13.67467 -17.46654,-23.28101 -26.20131,-34.92302 -8.73477,-11.64201 -3.34542,-5.14341 -5.01963,-7.71662 -1.67421,-2.5732 1.40169,-10.88786 2.10103,-16.33329 0.69935,-5.44544 -5.85901,-7.860706 -8.79001,-11.792557 -2.93101,-3.93185 -10.57273,-3.565913 -15.8606,-5.35037 -5.28786,-1.784456 -9.30946,-0.350603 -13.96569,-0.527404 -4.65623,-0.176802 1.10475,-9.008037 1.65562,-13.513555 0.55087,-4.505518 17.47627,-9.796632 26.21291,-14.696449 8.73664,-4.899816 15.6477,7.818419 23.47005,11.726128 7.82235,3.907709 7.71459,9.243448 11.57038,13.863671 3.8558,4.620224 -0.17332,7.572378 -0.26148,11.357067 -0.0882,3.784689 -2.66154,11.542469 -3.99381,17.312209 -1.33227,5.76974 2.4742,1.87814 3.7098,2.81571 1.2356,0.93757 7.19051,-1.90002 10.78427,-2.85154 3.59376,-0.95151 29.21298,-12.71128 43.81797,-19.068425 14.60499,-6.357143 17.65807,-11.527855 26.4856,-17.293283 8.82754,-5.765427 18.87046,-0.960157 28.3042,-1.441736 9.43375,-0.481578 16.77185,-9.556203 25.15635,-14.335805 8.3844,-4.779602 32.4822,-17.063491 48.7218,-25.596737 16.2397,-8.533245 20.4128,-12.060421 30.6177,-18.092131 10.2049,-6.031711 25.5787,-6.987027 38.3666,-10.4820399 12.7879,-3.4950133 5.9394,1.7197543 8.9075,2.5781319 2.9682,0.858377 9.156,19.281552 13.7324,28.920828 4.5765,9.639275 28.2854,77.983077 42.4266,116.973117 14.1412,38.99004 6.6656,47.42122 9.997,71.13032 3.3313,23.70911 11.1546,76.23535 16.7304,114.35152 5.5758,38.11617 3.8362,86.74061 5.7529,130.10941 1.9166,43.36881 0.4982,18.23961 0.7458,27.35791 0.2476,9.1183 -0.7418,10.03907 -1.1142,15.0571 -0.3725,5.01804 -6.4495,7.6636 -9.6757,11.49389 -3.2263,3.8303 -8.8527,7.41628 -13.2805,11.12291 -4.4279,3.70664 -8.0954,17.84022 -12.1445,26.75882 -4.0492,8.91861 -4.9994,61.86572 -7.5006,92.79708 -2.5012,30.93135 -19.6101,137.32151 -29.4166,205.98076" />
  </g>
</svg>
