<?xml version="1.0" encoding="UTF-8" standalone="no"?>
<!-- Created with Inkscape (http://www.inkscape.org/) -->

<svg
   version="1.1"
   id="svg2"
   width="1893"
   height="1024"
   viewBox="0 0 1893 1024"
   sodipodi:docname="frame_0128.svg"
   inkscape:version="1.1.2 (0a00cf5339, 2022-02-04)"
   xmlns:inkscape="http://www.inkscape.org/namespaces/inkscape"
   xmlns:sodipodi="http://sodipodi.sourceforge.net/DTD/sodipodi-0.dtd"
   xmlns:xlink="http://www.w3.org/1999/xlink"
   xmlns="http://www.w3.org/2000/svg"
   xmlns:svg="http://www.w3.org/2000/svg">
  <defs
     id="defs6">
    <inkscape:path-effect
       effect="spiro"
       id="path-effect899"
       is_visible="true"
       lpeversion="1" />
    <inkscape:path-effect
       effect="spiro"
       id="path-effect862"
       is_visible="true"
       lpeversion="1" />
  </defs>
  <sodipodi:namedview
     id="namedview4"
     pagecolor="#ffffff"
     bordercolor="#666666"
     borderopacity="1.0"
     inkscape:pageshadow="2"
     inkscape:pageopacity="0.0"
     inkscape:pagecheckerboard="0"
     showgrid="false"
     inkscape:zoom="0.6703645"
     inkscape:cx="898.01891"
     inkscape:cy="409.47872"
     inkscape:window-width="1850"
     inkscape:window-height="1016"
     inkscape:window-x="70"
     inkscape:window-y="27"
     inkscape:window-maximized="1"
     inkscape:current-layer="g8" />
  <g
     inkscape:groupmode="layer"
     inkscape:label="Image"
     id="g8">
    
    <path
       style="font-variation-settings:normal;opacity:1;vector-effect:none;fill:none;fill-opacity:1;stroke:#c86487;stroke-width:1px;stroke-linecap:butt;stroke-linejoin:miter;stroke-miterlimit:4;stroke-dasharray:none;stroke-dashoffset:0;stroke-opacity:1;-inkscape-stroke:none;stop-color:#000000;stop-opacity:1"
       d="M 1161.1065,862.58919 H 635.56523"
       id="path860"
       inkscape:path-effect="#path-effect862"
       inkscape:original-d="M 1161.1065,862.58919 H 635.56523" />
    <path
       style="font-variation-settings:normal;opacity:1;vector-effect:none;fill:none;fill-opacity:1;stroke:#c86487;stroke-width:1px;stroke-linecap:butt;stroke-linejoin:miter;stroke-miterlimit:4;stroke-dasharray:none;stroke-dashoffset:0;stroke-opacity:1;-inkscape-stroke:none;stop-color:#000000;stop-opacity:1"
       d="m 635.56523,862.58919 c 15.90446,-50.05939 19.41309,-104.00667 10.12673,-155.70442 -6.29215,-35.02878 -18.29688,-68.79469 -25.49363,-103.64886 -2.4467,-11.8495 -4.34087,-23.90094 -3.97594,-35.99489 0.82221,-27.24831 12.92163,-52.67426 20.77317,-78.77981 4.401,-14.63288 7.49153,-29.62348 11.36225,-44.40548 5.83903,-22.2988 13.52325,-44.27011 25.05053,-64.23138 5.76693,-9.98633 12.47135,-19.4294 17.79403,-29.65943 3.98072,-7.65081 7.16615,-15.7039 9.70291,-23.94683 3.34393,-10.86573 5.56216,-22.04889 8.78341,-32.95162 3.43421,-11.62355 7.99278,-22.87736 12.1905,-34.24749 3.80953,-10.31868 7.32658,-20.74746 10.42806,-31.30059 1.82301,-6.20299 3.50382,-12.45505 4.72091,-18.80479 1.60523,-8.37474 2.37754,-17.15297 -0.0159,-25.33737 -0.97851,-3.34602 -2.47714,-6.55992 -2.98345,-10.00912 -0.48737,-3.32017 -0.0222,-6.74556 1.10841,-9.90509 1.13066,-3.15954 2.91184,-6.06207 5.03188,-8.66331 4.24007,-5.20249 9.7627,-9.17136 15.08792,-13.25623 12.41503,-9.52332 24.13189,-20.0228 37.36038,-28.37945 3.55817,-2.24775 7.2455,-4.34764 11.22581,-5.71516 3.9803,-1.36751 8.29137,-1.97842 12.42738,-1.19975 3.19246,0.60103 6.19086,2.00955 8.91913,3.77295 2.72828,1.7634 5.20775,3.88101 7.65181,6.02101 5.19381,4.54766 10.2775,9.23563 14.94751,14.31972 7.06913,7.69594 13.15409,16.26395 18.45978,25.26671 5.79666,9.83584 10.90227,20.48515 19.65665,27.81357 3.61084,3.02269 7.77312,5.40957 10.98878,8.84967 3.92492,4.19887 6.18767,9.6974 9.88112,14.10126 3.15677,3.76395 7.48316,6.71178 12.33711,7.4679 2.03598,0.31715 4.18681,0.23248 6.0626,-0.62029 0.93789,-0.42638 1.79482,-1.04283 2.45919,-1.83026 0.66438,-0.78743 1.13165,-1.7482 1.29151,-2.76599 0.19403,-1.23537 -0.0703,-2.51935 -0.6307,-3.63727 -0.56038,-1.11793 -1.40526,-2.07709 -2.36857,-2.87447 -1.92662,-1.59476 -4.28899,-2.54476 -6.5082,-3.69813 -5.76424,-2.99581 -10.65321,-7.42946 -15.15077,-12.11702 -8.36119,-8.71441 -15.58294,-18.43891 -23.07936,-27.90749 -2.284,-2.88487 -4.59803,-5.75178 -6.667,-8.79456 -3.51431,-5.16842 -6.29609,-10.81013 -8.58055,-16.6277 -2.24057,-5.70579 -4.02905,-11.71181 -3.9457,-17.84118 0.0559,-4.11225 0.95179,-8.25629 0.22845,-12.30481 -0.38069,-2.13073 -1.19913,-4.155749 -2.05112,-6.145483 -0.66795,-1.559937 -1.39038,-3.153613 -2.62477,-4.318024 -1.09415,-1.032125 -2.53208,-1.6561 -4.01184,-1.925843 -1.47976,-0.269742 -3.00429,-0.201367 -4.4919,0.02098 -2.97524,0.444687 -5.85406,1.498028 -8.8562,1.690274 -2.75258,0.176265 -5.49211,-0.378295 -8.20881,-0.855052 -2.18538,-0.383516 -4.41202,-0.72811 -6.4232,-1.665216 -1.00558,-0.468552 -1.94959,-1.085814 -2.72458,-1.879623 -0.775,-0.793808 -1.37698,-1.769335 -1.66067,-2.84184 -0.35193,-1.33049 -0.19946,-2.769043 0.31235,-4.046585 0.5118,-1.277541 1.36891,-2.399555 2.38656,-3.326072 2.03532,-1.853035 4.64785,-2.913894 7.18154,-3.989381 4.32495,-1.835837 8.5993,-3.822706 13.08198,-5.230215 4.48268,-1.407508 9.22674,-2.226113 13.88974,-1.64997 6.79734,0.839854 12.87706,4.543565 18.48528,8.475114 1.61995,1.135643 3.22803,2.303569 4.64194,3.687326 1.41392,1.383757 2.63561,2.998664 3.35526,4.8415 0.74961,1.919571 0.92998,4.014217 0.93233,6.07496 0.005,4.005497 -0.63228,7.980748 -1.26159,11.936504 -0.45554,2.86348 -0.90805,5.72767 -1.30303,8.60013 -0.22841,1.6611 -0.43796,3.34004 -0.29469,5.01064 0.14326,1.6706 0.66652,3.35199 1.75408,4.62817 1.27643,1.49781 3.21609,2.30251 5.16231,2.59399 4.00187,0.59934 8.16174,-0.82291 11.29282,-3.3862 2.98461,-2.44339 5.06353,-5.79892 7.70231,-8.61226 5.96275,-6.35719 14.40393,-9.61567 22.21656,-13.479742 6.11041,-3.022168 11.98382,-6.517816 18.17865,-9.362938 10.85051,-4.983355 22.51435,-7.895776 33.79692,-11.803601 22.58009,-7.820846 43.54589,-19.595266 64.45069,-31.171794 13.6023,-7.532565 27.2461,-15.01247 41.2923,-21.680698 10.3809,-4.928161 21.0698,-9.464827 30.3069,-16.3003596 1.8348,-1.357738 3.6531,-2.8277496 5.8178,-3.551572 2.693,-0.9004686 5.6923,-0.5383803 8.3251,0.5252704 2.6328,1.0636507 4.947,2.7842684 7.1091,4.6249624 5.5062,4.6875878 10.23,10.2748918 14.0607,16.4081988 9.6988,15.528702 13.4142,33.90978 18.5891,51.471854 3.7891,12.858924 8.4336,25.448149 12.5295,38.212659 5.1644,16.09445 9.4624,32.49964 12.0236,49.20721 2.9754,19.40972 3.592,39.11477 6.3361,58.55854 2.597,18.4019 7.0853,36.47481 10.8892,54.6656 5.5168,26.38199 9.6023,53.06674 12.1085,79.9026 1.8123,19.40607 2.7989,38.8906 2.8936,58.38088 0.088,18.14018 -0.5943,36.32427 1.0519,54.38982 0.7839,8.60216 2.0953,17.17024 2.2574,25.80652 0.092,4.90704 -0.1922,9.84885 -1.3206,14.62527 -0.6656,2.81743 -1.62,5.55796 -2.6267,8.27229 -0.3142,0.84727 -0.6356,1.69661 -1.0818,2.48241 -0.4463,0.7858 -1.0258,1.5115 -1.7741,2.01818 -1.1426,0.77367 -2.592,0.97696 -3.9672,0.86433 -1.3753,-0.11263 -2.7073,-0.51531 -4.0423,-0.86433 -3.2025,-0.83726 -6.5237,-1.37782 -9.8209,-1.0854 -3.2971,0.29242 -6.5857,1.47291 -9.0092,3.72754 -2.8179,2.62159 -4.2272,6.424 -5.0465,10.18463 -1.5676,7.19548 -1.3132,14.64392 -1.1822,22.00701 0.6105,34.3188 -1.6282,68.62742 -4.6474,102.8186 -5.9781,67.69814 -15.023,135.12538 -27.0977,202.00569"
       id="path897"
       inkscape:path-effect="#path-effect899"
       inkscape:original-d="m 635.56523,862.58919 c 3.37658,-51.90047 6.75215,-103.80195 10.12673,-155.70442 3.37458,-51.90248 -16.99476,-69.09824 -25.49363,-103.64886 -8.49888,-34.55062 -2.64963,-23.9956 -3.97594,-35.99489 -1.32632,-11.9993 13.84978,-52.51888 20.77317,-78.77981 6.92339,-26.26094 7.57584,-29.60265 11.36225,-44.40548 3.78642,-14.80282 16.70136,-42.81992 25.05053,-64.23138 8.34918,-21.41147 11.86368,-19.77196 17.79403,-29.65943 5.93034,-9.88748 6.4696,-15.96355 9.70291,-23.94683 3.2333,-7.98327 5.85661,-21.96675 8.78341,-32.95162 2.92681,-10.98488 8.128,-22.83066 12.1905,-34.24749 4.06249,-11.41683 6.95304,-20.86606 10.42806,-31.30059 3.47502,-10.43453 3.14827,-12.53552 4.72091,-18.80479 1.57264,-6.26926 -0.01,-16.89058 -0.0159,-25.33737 -0.006,-8.44679 -1.98797,-6.67175 -2.98345,-10.00912 -0.99549,-3.33738 14.15314,-21.21542 21.22821,-31.82463 7.07507,-10.60921 24.90792,-18.91863 37.36038,-28.37945 12.45246,-9.46081 15.7698,-4.60894 23.65319,-6.91491 7.8834,-2.30597 11.04829,6.5303 16.57094,9.79396 5.52264,3.26365 9.966,9.54748 14.94751,14.31972 4.9815,4.77224 12.30752,16.84547 18.45978,25.26671 6.15227,8.42123 13.10543,18.54338 19.65665,27.81357 6.55121,9.27019 7.32685,5.90078 10.98878,8.84967 3.66192,2.94889 6.58841,9.40184 9.88112,14.10126 3.29271,4.69943 8.22574,4.9796 12.33711,7.4679 4.11137,2.48829 6.5432,-3.47669 9.8133,-5.21654 3.27009,-1.73984 -6.33731,-6.80558 -9.50747,-10.20987 -3.17015,-3.40429 -10.09951,-8.07701 -15.15077,-12.11702 -5.05126,-4.04 -15.38524,-18.60399 -23.07936,-27.90749 -7.69411,-9.3035 -4.44366,-5.86204 -6.667,-8.79456 -2.22333,-2.93252 -5.71937,-11.08413 -8.58055,-16.6277 -2.86119,-5.54357 -2.62947,-11.89312 -3.9457,-17.84118 -1.31624,-5.94806 0.1533,-8.20221 0.22845,-12.30481 0.0752,-4.102606 -1.36642,-4.09599 -2.05112,-6.145483 -0.68471,-2.049494 -1.74885,-2.877683 -2.62477,-4.318024 -0.87593,-1.440341 -11.57229,-0.142062 -17.35994,-0.214593 -5.78764,-0.07253 -5.47154,-0.569035 -8.20881,-0.855052 -2.73727,-0.286018 -7.20464,-4.256786 -10.80845,-6.386679 -3.60382,-2.129893 6.58797,-7.573692 9.88045,-11.362038 3.29248,-3.788346 17.98215,-4.58579 26.97172,-6.880185 8.98957,-2.294396 12.32452,5.651076 18.48528,8.475114 6.16076,2.824038 5.33247,5.686884 7.9972,8.528826 2.66473,2.841942 0.62255,4.050973 0.93233,6.07496 0.30977,2.023986 -0.84006,7.958672 -1.26159,11.936504 -0.42153,3.97784 -0.86769,5.73442 -1.30303,8.60013 -0.43535,2.86571 0.97393,6.42688 1.45939,9.63881 0.48546,3.21194 3.44254,1.73033 5.16231,2.59399 1.71978,0.86366 7.52955,-2.25647 11.29282,-3.3862 3.76328,-1.12974 5.13587,-5.74051 7.70231,-8.61226 2.56644,-2.87176 14.81204,-8.9855 22.21656,-13.479742 7.40453,-4.494247 12.1201,-6.240959 18.17865,-9.362938 6.05855,-3.121979 22.53228,-7.868067 33.79692,-11.803601 11.26464,-3.935534 42.96819,-20.780196 64.45069,-31.171794 21.4826,-10.391598 27.5292,-14.452799 41.2923,-21.680698 13.7631,-7.2279 20.2056,-10.865907 30.3069,-16.3003596 10.1013,-5.434453 3.8795,-2.3667147 5.8178,-3.551572 1.9382,-1.1848574 10.2904,3.4344885 15.4342,5.1502328 5.1437,1.7157448 9.3748,10.9397998 14.0607,16.4081988 4.6858,5.4684 12.3937,34.315569 18.5891,51.471854 6.1954,17.156284 7.5419,27.114299 12.5295,38.212659 4.9876,11.09836 8.8288,31.16762 12.0236,49.20721 3.1947,18.0396 4.2251,39.04002 6.3361,58.55854 2.111,19.51851 7.2604,36.44473 10.8892,54.6656 3.6287,18.22087 8.0733,53.2694 12.1085,79.9026 4.0352,26.6332 1.9301,38.92159 2.8936,58.38088 0.9635,19.45929 0.7022,36.26088 1.0519,54.38982 0.3496,18.12895 1.506,17.20534 2.2574,25.80652 0.7515,8.60117 -0.8794,9.75118 -1.3206,14.62527 -0.4412,4.87409 -1.7501,5.51586 -2.6267,8.27229 -0.8765,2.75644 -1.9029,3.00139 -2.8559,4.50059 -0.953,1.49919 -5.3387,0.001 -8.0095,0 -2.6708,-10e-4 -12.5524,1.76242 -18.8301,2.64214 -6.2776,0.87971 -3.3633,6.79075 -5.0465,10.18463 -1.6832,3.39388 -0.7871,14.67234 -1.1822,22.00701 -0.395,7.33467 -3.0972,68.54673 -4.6474,102.8186 -1.5501,34.27186 -18.0641,134.67146 -27.0977,202.00569"
       sodipodi:nodetypes="cssssssssssssssssssssssssssssssssssssssssssssssssssssssssssssssssssssssssssc" />
  </g>
</svg>
