<?xml version="1.0" encoding="UTF-8" standalone="no"?>
<!-- Created with Inkscape (http://www.inkscape.org/) -->

<svg
   version="1.1"
   id="svg2"
   width="1893"
   height="1024"
   viewBox="0 0 1893 1024"
   sodipodi:docname="frame_0112.svg"
   inkscape:version="1.1.2 (0a00cf5339, 2022-02-04)"
   xmlns:inkscape="http://www.inkscape.org/namespaces/inkscape"
   xmlns:sodipodi="http://sodipodi.sourceforge.net/DTD/sodipodi-0.dtd"
   xmlns:xlink="http://www.w3.org/1999/xlink"
   xmlns="http://www.w3.org/2000/svg"
   xmlns:svg="http://www.w3.org/2000/svg">
  <defs
     id="defs6">
    <inkscape:path-effect
       effect="spiro"
       id="path-effect899"
       is_visible="true"
       lpeversion="1" />
    <inkscape:path-effect
       effect="spiro"
       id="path-effect862"
       is_visible="true"
       lpeversion="1" />
  </defs>
  <sodipodi:namedview
     id="namedview4"
     pagecolor="#ffffff"
     bordercolor="#666666"
     borderopacity="1.0"
     inkscape:pageshadow="2"
     inkscape:pageopacity="0.0"
     inkscape:pagecheckerboard="0"
     showgrid="false"
     inkscape:zoom="0.47401928"
     inkscape:cx="1183.4962"
     inkscape:cy="488.37676"
     inkscape:window-width="1850"
     inkscape:window-height="1016"
     inkscape:window-x="70"
     inkscape:window-y="27"
     inkscape:window-maximized="1"
     inkscape:current-layer="g8" />
  <g
     inkscape:groupmode="layer"
     inkscape:label="Image"
     id="g8">
    
    <path
       style="font-variation-settings:normal;opacity:1;vector-effect:none;fill:none;fill-opacity:1;stroke:#c86487;stroke-width:1px;stroke-linecap:butt;stroke-linejoin:miter;stroke-miterlimit:4;stroke-dasharray:none;stroke-dashoffset:0;stroke-opacity:1;-inkscape-stroke:none;stop-color:#000000;stop-opacity:1"
       d="M 1161.1777,862.8528 635.64854,861.99927"
       id="path860"
       inkscape:path-effect="#path-effect862"
       inkscape:original-d="M 1161.1777,862.8528 635.64854,861.99927" />
    <path
       style="font-variation-settings:normal;opacity:1;vector-effect:none;fill:none;fill-opacity:1;stroke:#c86487;stroke-width:1px;stroke-linecap:butt;stroke-linejoin:miter;stroke-miterlimit:4;stroke-dasharray:none;stroke-dashoffset:0;stroke-opacity:1;-inkscape-stroke:none;stop-color:#000000;stop-opacity:1"
       d="m 635.64854,861.99927 c -2.77967,-40.91116 -4.61771,-81.88629 -5.5122,-122.88201 -0.97801,-44.82387 -0.83819,-89.81644 -6.81586,-134.2507 -2.24141,-16.66125 -5.34753,-33.33755 -4.7587,-50.13858 0.82876,-23.64695 8.92,-46.36742 17.15601,-68.54924 6.29185,-16.94567 12.72545,-33.85252 18.08238,-51.11654 5.56809,-17.94453 10.05558,-36.47149 19.32812,-52.81254 6.18956,-10.9079 14.39087,-20.60649 20.17933,-31.73243 8.08205,-15.53441 11.10429,-33.11287 16.24668,-49.85184 6.42851,-20.92539 16.21703,-40.63923 24.15314,-61.0406 2.69152,-6.91908 5.17941,-13.95032 6.64598,-21.22817 1.46658,-7.27786 1.8909,-14.84 0.45196,-22.12337 -1.028,-5.20332 -2.98238,-10.17131 -4.45628,-15.26631 -1.4739,-5.09499 -2.47094,-10.47577 -1.52128,-15.69396 1.13805,-6.25334 4.99153,-11.72598 9.5864,-16.11763 4.59488,-4.39164 9.95985,-7.87769 15.05003,-11.6842 6.29052,-4.70414 12.18713,-9.91941 18.50655,-14.58466 6.31942,-4.66525 13.14719,-8.81389 20.67682,-11.05091 11.22981,-3.33633 23.99103,-2.0202 33.72473,4.49861 5.85508,3.92124 10.42498,9.49716 14.25099,15.4149 3.82601,5.91775 6.98718,12.23739 10.60808,18.28282 9.94059,16.59674 23.2901,31.03907 32.37352,48.12001 1.8942,3.56196 3.68956,7.34633 6.82153,9.88923 1.56599,1.27145 3.45865,2.18986 5.46558,2.39266 2.00693,0.2028 4.12513,-0.35956 5.62192,-1.71178 0.99369,-0.89771 1.682,-2.10347 2.07324,-3.38419 0.39124,-1.28072 0.49611,-2.63616 0.43663,-3.97398 -0.23174,-5.21221 -2.90788,-10.04199 -6.26428,-14.03641 -3.3564,-3.99442 -7.41235,-7.33357 -11.08052,-11.04374 -11.70274,-11.83671 -19.17894,-27.13187 -25.86202,-42.37648 -4.13676,-9.43626 -8.08364,-19.08587 -9.64264,-29.27043 -0.36614,-2.39189 -0.60042,-4.812525 -1.22152,-7.15121 -0.6211,-2.338684 -1.6658,-4.628926 -3.41152,-6.304534 -1.96388,-1.885003 -4.65015,-2.839386 -7.32698,-3.333994 -2.67683,-0.494608 -5.41365,-0.581152 -8.10158,-1.011365 -2.50506,-0.400943 -4.9955,-1.115633 -7.1522,-2.451568 -2.15669,-1.335934 -3.96406,-3.341166 -4.72355,-5.761753 -0.6306,-2.009801 -0.50859,-4.223021 0.20287,-6.20564 0.71147,-1.982618 1.99228,-3.737632 3.56781,-5.135715 3.15108,-2.796167 7.34602,-4.123242 11.4987,-4.832529 4.23607,-0.72353 8.59077,-0.879544 12.8319,-0.186267 4.24113,0.693278 8.36884,2.253725 11.85552,4.765859 4.76905,3.43607 8.13761,8.4692 10.94027,13.635973 1.50887,2.78164 2.89031,5.647919 3.83266,8.668877 2.20863,7.080399 1.89663,14.837226 -0.36172,21.901926 -0.65275,2.04196 -1.46738,4.05058 -1.77284,6.17247 -0.15273,1.06094 -0.17503,2.1471 0.0178,3.20149 0.19282,1.05439 0.60653,2.07748 1.26806,2.92087 0.87597,1.11678 2.16201,1.87859 3.53602,2.23446 1.374,0.35586 2.83144,0.3215 4.2201,0.0279 2.7773,-0.58709 5.22856,-2.1594 7.63306,-3.6682 32.06365,-20.11963 67.62895,-33.850605 101.71826,-50.306474 19.32432,-9.328412 38.21892,-19.557457 56.50082,-30.792287 12.1405,-7.460701 24.0308,-15.375966 36.7075,-21.884087 12.6766,-6.508121 26.2712,-11.6180412 40.4519,-13.0183937 2.8698,-0.2833955 5.819,-0.4071341 8.5878,0.3989657 3.1198,0.9082923 5.8352,2.9743992 7.817,5.549404 1.9819,2.575004 3.2631,5.639229 4.0425,8.793722 1.5588,6.308986 1.1622,12.911372 1.6051,19.39497 1.128,16.513067 7.6755,32.086401 13.3416,47.6379 14.9231,40.95873 24.1654,83.72568 33.4459,126.31896 9.4371,43.31186 18.9937,86.85462 21.0938,131.13289 1.7276,36.42378 -1.5887,73.29592 5.1492,109.13274 1.6561,8.80839 3.9154,17.51829 4.9234,26.42415 1.008,8.90587 0.7071,18.16089 -2.6142,26.48553 -1.3132,3.29143 -3.1509,6.4763 -5.9261,8.68 -3.2697,2.59641 -7.508,3.59278 -11.1541,5.62704 -5.9,3.29175 -9.9781,9.17874 -12.549,15.42662 -3.1919,7.75706 -4.3396,16.21763 -4.5913,24.60194 -0.2517,8.38432 0.3629,16.76769 0.554,25.1536 0.4959,21.75668 -1.8579,43.46806 -4.3315,65.08935 -8.0596,70.44685 -17.4291,140.74384 -28.1021,210.84236"
       id="path897"
       inkscape:path-effect="#path-effect899"
       inkscape:original-d="m 635.64854,861.99927 c -1.8364,-40.95967 -3.6738,-81.92034 -5.5122,-122.88201 -1.8384,-40.96167 -4.54291,-89.49947 -6.81586,-134.2507 -2.27296,-44.75123 -3.17147,-33.42472 -4.7587,-50.13858 -1.58723,-16.71386 11.43834,-45.69849 17.15601,-68.54924 5.71767,-22.85074 12.05592,-34.07669 18.08238,-51.11654 6.02646,-17.03984 10.37673,-28.83882 19.32812,-52.81254 8.95138,-23.97372 15.96357,-27.52249 20.17933,-31.73243 4.21577,-4.20995 12.08643,-33.5058 16.24668,-49.85184 4.16026,-16.34603 16.10309,-40.69273 24.15314,-61.0406 8.05004,-20.34787 3.47866,-28.62778 7.09794,-43.35154 3.61929,-14.72375 -3.98404,-20.63918 -5.97756,-30.96027 -1.99352,-10.32109 16.42529,-18.53355 24.63643,-27.80183 8.21115,-9.26828 26.12325,-17.08938 39.18337,-25.63557 13.06012,-8.54619 22.48415,3.00008 33.72473,4.49861 11.24058,1.49854 16.57371,22.46615 24.85907,33.69772 8.28535,11.23157 15.91899,27.55619 32.37352,48.12001 16.45453,20.56381 17.60471,11.57255 17.90903,10.57011 0.30433,-1.00243 1.67425,-4.90444 2.50987,-7.35817 0.83563,-2.45372 -11.5622,-16.7191 -17.3448,-25.08015 -5.7826,-8.36104 -13.06535,-23.8114 -25.86202,-42.37648 -12.79667,-18.56508 -10.60242,-23.95121 -9.64264,-29.27043 0.95978,-5.319231 -3.57723,-7.00122 -4.63304,-13.455744 -1.05581,-6.454524 -9.79517,-4.864183 -15.42856,-4.345359 -5.63339,0.518824 -7.91616,-5.474547 -11.87575,-8.213321 -3.95958,-2.738773 10.18059,-10.781589 15.26938,-16.173884 5.08879,-5.392294 16.45928,3.054061 24.68742,4.579592 8.22814,1.52553 7.29451,9.091649 10.94027,13.635973 3.64576,4.544325 2.55611,5.780252 3.83266,8.668877 1.27656,2.888626 -0.24014,14.602286 -0.36172,21.901926 -0.12157,7.29964 -0.32367,8.19755 -0.487,12.29483 -0.16334,4.09728 10.26045,-0.93619 15.38918,-1.40579 5.12873,-0.4696 67.81317,-33.53665 101.71826,-50.306474 33.90512,-16.769823 37.66822,-20.527191 56.50082,-30.792287 18.8326,-10.265096 51.4406,-23.267321 77.1594,-34.9024807 25.7189,-11.6351602 5.7262,0.2669771 8.5878,0.3989657 2.8616,0.1319885 8.9774,22.493064 13.4646,33.738096 4.4872,11.245031 8.8954,31.7596 13.3416,47.6379 4.4462,15.8783 22.2982,84.21364 33.4459,126.31896 11.1476,42.10532 14.0636,87.42293 21.0938,131.13289 7.0303,43.70996 3.4338,72.75616 5.1492,109.13274 1.7154,36.37658 1.5405,35.27412 2.3092,52.90968 0.7687,17.63556 -3.9497,5.78767 -5.9261,8.68 -1.9763,2.89233 -7.435,3.75236 -11.1541,5.62704 -3.719,1.87469 -8.365,10.28542 -12.549,15.42662 -4.1841,5.14121 -2.6905,33.17136 -4.0373,49.75554 -1.3467,16.58418 -2.8867,43.3939 -4.3315,65.08935 -1.4449,21.69545 -18.7337,140.56257 -28.1021,210.84236"
       sodipodi:nodetypes="cssssssssssssssssssssssssssssssssssssssssssssssc" />
  </g>
</svg>
