<?xml version="1.0" encoding="UTF-8" standalone="no"?>
<!-- Created with Inkscape (http://www.inkscape.org/) -->

<svg
   version="1.1"
   id="svg2"
   width="1893"
   height="1024"
   viewBox="0 0 1893 1024"
   sodipodi:docname="frame_0065.svg"
   inkscape:version="1.1.2 (0a00cf5339, 2022-02-04)"
   xmlns:inkscape="http://www.inkscape.org/namespaces/inkscape"
   xmlns:sodipodi="http://sodipodi.sourceforge.net/DTD/sodipodi-0.dtd"
   xmlns:xlink="http://www.w3.org/1999/xlink"
   xmlns="http://www.w3.org/2000/svg"
   xmlns:svg="http://www.w3.org/2000/svg">
  <defs
     id="defs6">
    <inkscape:path-effect
       effect="spiro"
       id="path-effect866"
       is_visible="true"
       lpeversion="1" />
    <inkscape:path-effect
       effect="spiro"
       id="path-effect862"
       is_visible="true"
       lpeversion="1" />
  </defs>
  <sodipodi:namedview
     id="namedview4"
     pagecolor="#ffffff"
     bordercolor="#666666"
     borderopacity="1.0"
     inkscape:pageshadow="2"
     inkscape:pageopacity="0.0"
     inkscape:pagecheckerboard="0"
     showgrid="false"
     inkscape:zoom="3.7921543"
     inkscape:cx="1137.8756"
     inkscape:cy="784.91005"
     inkscape:window-width="1850"
     inkscape:window-height="1016"
     inkscape:window-x="70"
     inkscape:window-y="27"
     inkscape:window-maximized="1"
     inkscape:current-layer="g8" />
  <g
     inkscape:groupmode="layer"
     inkscape:label="Image"
     id="g8">
    
    <path
       style="font-variation-settings:normal;opacity:1;vector-effect:none;fill:none;fill-opacity:1;stroke:#c86487;stroke-width:1px;stroke-linecap:butt;stroke-linejoin:miter;stroke-miterlimit:4;stroke-dasharray:none;stroke-dashoffset:0;stroke-opacity:1;-inkscape-stroke:none;stop-color:#000000;stop-opacity:1"
       d="m 1160.7509,862.34067 -525.22541,-0.003"
       id="path860"
       inkscape:path-effect="#path-effect862"
       inkscape:original-d="m 1160.7509,862.34067 c -175.07411,1.1e-4 -350.14926,-7.8e-4 -525.22541,-0.003" />
    <path
       style="font-variation-settings:normal;opacity:1;vector-effect:none;fill:none;fill-opacity:1;stroke:#c86487;stroke-width:1px;stroke-linecap:butt;stroke-linejoin:miter;stroke-miterlimit:4;stroke-dasharray:none;stroke-dashoffset:0;stroke-opacity:1;-inkscape-stroke:none;stop-color:#000000;stop-opacity:1"
       d="m 635.52549,862.33767 c -20.88703,-61.26515 -31.91761,-125.87891 -32.53903,-190.60372 -0.47323,-49.28984 5.05934,-98.57969 15.49621,-146.7542 3.40671,-15.72472 7.33357,-31.33275 11.4787,-46.87914 8.26044,-30.98096 17.47678,-61.9478 32.16912,-90.44675 4.75383,-9.22107 10.06765,-18.15407 15.91809,-26.7214 2.6763,-3.91914 5.47179,-7.77319 7.73119,-11.9466 2.25941,-4.17341 3.98284,-8.71771 4.3289,-13.45084 0.30363,-4.15277 -0.45673,-8.29818 -0.98379,-12.42855 -0.52707,-4.13036 -0.81088,-8.40666 0.40774,-12.3882 1.62216,-5.3 5.68298,-9.43581 8.61677,-14.1384 5.79224,-9.28443 7.0833,-20.57226 10.20851,-31.05957 2.4324,-8.16243 6.03074,-15.96966 7.97792,-24.26124 2.90864,-12.3857 2.01937,-25.29401 1.75158,-38.01384 -0.26779,-12.71982 0.19538,-25.86944 5.51745,-37.42545 1.5483,-3.36189 3.52388,-6.58104 6.22955,-9.10668 3.56512,-3.3279 8.17232,-5.26447 12.65688,-7.18116 4.48456,-1.91668 9.066,-3.9573 12.49283,-7.42743 3.97561,-4.02585 5.97569,-9.53152 8.62922,-14.52869 1.32677,-2.49858 2.8545,-4.92084 4.84719,-6.92893 1.99269,-2.00808 4.48584,-3.59125 7.2566,-4.1623 2.10607,-0.43405 4.30719,-0.27197 6.39009,0.26233 2.0829,0.53429 4.05722,1.43177 5.94337,2.46443 3.77229,2.06534 7.25268,4.6932 11.23535,6.31619 5.05512,2.06002 10.61689,2.38482 15.99216,3.33581 2.68764,0.4755 5.36209,1.11761 7.86722,2.20101 2.50514,1.08341 4.84541,2.62666 6.61109,4.70797 1.59038,1.87467 2.67112,4.1263 3.57376,6.41299 0.90263,2.2867 1.64581,4.63761 2.65674,6.87853 2.37659,5.26817 6.15966,9.77203 10.15807,13.9451 3.99841,4.17307 8.27036,8.10282 11.8924,12.60645 3.71326,4.61705 6.69031,9.77106 9.98015,14.69878 3.28983,4.92772 6.97145,9.71051 11.74967,13.21394 0.6018,0.44125 1.22969,0.86616 1.93709,1.10375 0.3537,0.11879 0.72544,0.18917 1.09855,0.18616 0.3731,-0.003 0.74774,-0.0808 1.08229,-0.24598 0.58973,-0.29122 1.02809,-0.84739 1.23863,-1.4705 0.21055,-0.6231 0.20478,-1.30701 0.0515,-1.94661 -0.30665,-1.27918 -1.16154,-2.3457 -1.99095,-3.36669 -16.28887,-20.05132 -32.03022,-40.7746 -43.69492,-63.82493 -3.19253,-6.30867 -6.13329,-13.07385 -5.86509,-20.13923 0.11041,-2.90868 0.76686,-5.78527 0.73766,-8.69589 -0.0146,-1.45532 -0.20466,-2.92082 -0.70647,-4.28696 -0.5018,-1.366143 -1.32826,-2.632101 -2.47371,-3.529928 -1.0679,-0.837039 -2.37959,-1.329551 -3.71941,-1.543866 -1.33981,-0.214314 -2.71082,-0.160509 -4.05633,0.0145 -2.69103,0.350015 -5.31701,1.180584 -8.02724,1.317766 -2.8941,0.146489 -5.84135,-0.529811 -8.32454,-2.023483 -2.48319,-1.493673 -4.48085,-3.813564 -5.48348,-6.53239 -1.11872,-3.033623 -0.96688,-6.469313 0.18077,-9.492109 1.14766,-3.022796 3.24831,-5.638214 5.79964,-7.624442 3.77484,-2.938739 8.52563,-4.523052 13.30399,-4.753028 4.77837,-0.229976 9.57606,0.856492 13.93194,2.834362 9.77458,4.438337 17.04763,13.097449 22.39915,22.403498 1.67809,2.918124 3.21118,5.948469 4.13332,9.185922 0.92214,3.23745 1.21159,6.70979 0.39731,9.97604 -0.76885,3.08401 -2.47826,5.85835 -3.37474,8.90771 -0.44823,1.52468 -0.68946,3.13244 -0.48376,4.70828 0.2057,1.57583 0.8876,3.12126 2.06733,4.18606 1.35617,1.22405 3.25613,1.71577 5.08234,1.66633 1.82621,-0.0494 3.60228,-0.59226 5.31745,-1.2213 7.94492,-2.9138 15.03293,-7.71821 22.04912,-12.44949 10.7305,-7.23598 21.52729,-14.42462 32.98482,-20.443593 28.86805,-15.165235 61.17821,-22.533613 90.92979,-35.882464 19.5788,-8.784556 37.9588,-20.128763 55.0618,-33.089632 5.0417,-3.820648 9.9897,-7.792587 15.385,-11.095083 5.3953,-3.302496 11.3023,-5.940139 17.5669,-6.817789 1.1272,-0.1579146 2.2707,-0.2584323 3.4032,-0.1448399 1.8884,0.1894132 3.6929,0.9784009 5.206,2.1241819 1.513,1.145781 2.7434,2.638558 3.7093,4.272287 1.9319,3.267457 2.8047,7.033917 3.6885,10.725449 3.3283,13.902525 7.2106,27.764368 13.3882,40.65605 8.0778,16.85712 19.9608,31.80796 26.7287,49.232303 7.9543,20.47864 8.3356,42.96496 11.1586,64.75202 5.2037,40.16108 18.9091,78.70915 26.7864,118.43243 9.3061,46.92819 10.3998,95.04861 11.2499,142.88307 0.2736,15.39324 0.5343,30.87964 3.4537,45.99599 0.957,4.95528 2.2026,9.89999 2.2623,14.94648 0.03,2.52324 -0.2423,5.06323 -0.9823,7.47572 -0.74,2.41249 -1.959,4.69723 -3.6859,6.53717 -1.7368,1.8505 -3.935,3.20607 -6.1994,4.35199 -2.2645,1.14593 -4.6215,2.10444 -6.8636,3.2935 -5.5748,2.95648 -10.411,7.38342 -13.5652,12.84875 -3.2006,5.54573 -4.591,11.93075 -5.7126,18.23481 -5.6378,31.68762 -5.581,64.06847 -6.0845,96.24977 -1.0967,70.09084 -4.9317,140.13879 -11.4933,209.93044"
       id="path864"
       inkscape:path-effect="#path-effect866"
       inkscape:original-d="M 635.52549,862.33767 C 624.68015,798.8041 613.8338,735.26952 602.98646,671.73395 c -10.84734,-63.53557 10.33181,-97.83513 15.49621,-146.7542 5.1644,-48.91907 7.65347,-31.25176 11.4787,-46.87914 3.82524,-15.62738 21.44708,-60.29683 32.16912,-90.44675 10.72204,-30.14992 10.61306,-17.81327 15.91809,-26.7214 5.30504,-8.90813 8.04106,-16.93063 12.06009,-25.39744 4.01903,-8.46682 -0.38303,-16.5435 -0.57605,-24.81675 -0.19301,-8.27324 5.74551,-9.4246 8.61677,-14.1384 2.87125,-4.7138 6.80668,-20.70538 10.20851,-31.05957 3.40184,-10.3542 5.31961,-16.17316 7.97792,-24.26124 2.6583,-8.08808 4.84702,-50.29186 7.26903,-75.43929 2.42202,-25.14743 4.15404,-6.07012 6.22955,-9.10668 2.07552,-3.03656 16.76748,-9.73806 25.14971,-14.60859 8.38224,-4.87054 13.82301,-17.07895 20.73301,-25.61992 6.91,-8.54097 15.71354,6.02964 23.56881,9.04295 7.85528,3.01332 20.31465,6.83086 30.47047,10.24479 10.15582,3.41392 4.15466,8.86201 6.2305,13.29152 2.07583,4.42951 14.70131,17.70203 22.05047,26.55155 7.34915,8.84951 14.48754,18.60948 21.72982,27.91272 7.24227,9.30324 2.74629,0.69695 4.11793,1.04393 1.37165,0.34698 -0.46624,-4.52153 -0.70086,-6.7838 -0.23462,-2.26227 -29.12895,-42.54896 -43.69492,-63.82493 -14.56597,-21.27598 -3.90906,-13.42516 -5.86509,-20.13923 -1.95603,-6.71408 -1.62735,-11.00752 -2.44252,-16.512778 -0.81517,-5.505258 -10.53432,-0.140068 -15.80298,-0.211602 -5.26867,-0.07153 -9.20435,-5.702916 -13.80802,-8.555873 -4.60367,-2.852958 3.98794,-11.410034 5.98041,-17.116551 1.99248,-5.706517 18.15829,-1.278111 27.23593,-1.918666 9.07764,-0.640556 14.93377,14.936665 22.39915,22.403498 7.46539,7.466832 3.02142,12.775642 4.53063,19.161962 1.50921,6.38633 -1.19311,11.86904 -1.79117,17.80205 -0.59806,5.93302 6.93419,0.29769 10.39979,0.44503 3.4656,0.14735 14.70041,-8.29866 22.04912,-12.44949 7.3487,-4.15083 21.99088,-13.62806 32.98482,-20.443593 10.99395,-6.815532 60.62084,-23.920643 90.92979,-35.882464 30.3089,-11.961821 36.7088,-22.058754 55.0618,-33.089632 18.3529,-11.030877 21.9689,-11.940915 32.9519,-17.912872 10.9829,-5.9719574 2.2698,-0.09556 3.4032,-0.1448399 1.1334,-0.04928 8.4036,11.4156119 12.6038,17.1219179 4.2003,5.706306 8.9265,27.105033 13.3882,40.65605 4.4617,13.551016 17.8201,32.822532 26.7287,49.232303 8.9085,16.40976 7.4401,43.16901 11.1586,64.75202 3.7186,21.58301 17.8586,78.95595 26.7864,118.43243 8.9278,39.47647 7.501,95.25638 11.2499,142.88307 3.749,47.62669 2.3035,30.66499 3.4537,45.99599 1.1502,15.331 -1.6029,19.30725 -2.4059,28.95937 -0.803,9.65213 -8.7077,5.09799 -13.063,7.64549 -4.3554,2.54749 -9.0425,8.56683 -13.5652,12.84875 -4.5227,4.28191 -3.8074,12.15754 -5.7126,18.23481 -1.9052,6.07728 -4.0553,64.16751 -6.0845,96.24977 -2.0291,32.08225 -7.6612,139.95463 -11.4933,209.93044" />
  </g>
</svg>
