<?xml version="1.0" encoding="UTF-8" standalone="no"?>
<!-- Created with Inkscape (http://www.inkscape.org/) -->

<svg
   version="1.1"
   id="svg2"
   width="1893"
   height="1024"
   viewBox="0 0 1893 1024"
   sodipodi:docname="frame_0089.svg"
   inkscape:version="1.1.2 (0a00cf5339, 2022-02-04)"
   xmlns:inkscape="http://www.inkscape.org/namespaces/inkscape"
   xmlns:sodipodi="http://sodipodi.sourceforge.net/DTD/sodipodi-0.dtd"
   xmlns:xlink="http://www.w3.org/1999/xlink"
   xmlns="http://www.w3.org/2000/svg"
   xmlns:svg="http://www.w3.org/2000/svg">
  <defs
     id="defs6">
    <inkscape:path-effect
       effect="spiro"
       id="path-effect899"
       is_visible="true"
       lpeversion="1" />
    <inkscape:path-effect
       effect="spiro"
       id="path-effect862"
       is_visible="true"
       lpeversion="1" />
  </defs>
  <sodipodi:namedview
     id="namedview4"
     pagecolor="#ffffff"
     bordercolor="#666666"
     borderopacity="1.0"
     inkscape:pageshadow="2"
     inkscape:pageopacity="0.0"
     inkscape:pagecheckerboard="0"
     showgrid="false"
     inkscape:zoom="0.47401928"
     inkscape:cx="1111.7691"
     inkscape:cy="566.43265"
     inkscape:window-width="1850"
     inkscape:window-height="1016"
     inkscape:window-x="70"
     inkscape:window-y="27"
     inkscape:window-maximized="1"
     inkscape:current-layer="g8" />
  <g
     inkscape:groupmode="layer"
     inkscape:label="Image"
     id="g8">
    
    <path
       style="font-variation-settings:normal;opacity:1;vector-effect:none;fill:none;fill-opacity:1;stroke:#c86487;stroke-width:1px;stroke-linecap:butt;stroke-linejoin:miter;stroke-miterlimit:4;stroke-dasharray:none;stroke-dashoffset:0;stroke-opacity:1;-inkscape-stroke:none;stop-color:#000000;stop-opacity:1"
       d="m 1160.7979,862.67962 -524.95068,0.16486"
       id="path860"
       inkscape:path-effect="#path-effect862"
       inkscape:original-d="m 1160.7979,862.67962 -524.95068,0.16486" />
    <path
       style="font-variation-settings:normal;opacity:1;vector-effect:none;fill:none;fill-opacity:1;stroke:#c86487;stroke-width:1px;stroke-linecap:butt;stroke-linejoin:miter;stroke-miterlimit:4;stroke-dasharray:none;stroke-dashoffset:0;stroke-opacity:1;-inkscape-stroke:none;stop-color:#000000;stop-opacity:1"
       d="m 635.84722,862.84448 c -34.37083,-56.16147 -52.08291,-122.37902 -50.34039,-188.20021 1.5899,-60.05616 18.87403,-118.5372 38.32136,-175.37971 10.50309,-30.69943 21.67764,-61.16602 33.20695,-91.49496 4.80534,-12.64089 9.67594,-25.26668 15.25411,-37.58607 7.07636,-15.62816 15.28936,-30.75948 21.42581,-46.78004 5.55015,-14.48989 9.35381,-29.58411 14.36077,-44.27054 4.5475,-13.33872 10.12211,-26.47409 12.13376,-40.42237 1.32188,-9.16559 1.07135,-18.48401 1.9264,-27.70487 0.95018,-10.24669 3.26756,-20.45048 2.55598,-30.7165 -0.26055,-3.75895 -0.92699,-7.49293 -0.92885,-11.2609 -0.002,-3.76798 0.72888,-7.67812 2.97169,-10.70589 1.74801,-2.35979 4.2951,-4.02038 6.97358,-5.22449 2.67848,-1.20411 5.51981,-1.99539 8.29948,-2.94278 10.51087,-3.5824 20.09825,-9.37908 29.72194,-14.91953 9.62368,-5.54046 19.51618,-10.9231 30.30518,-13.55171 3.4584,-0.8426 7.00888,-1.39658 10.56718,-1.30158 3.5583,0.095 7.13431,0.8581 10.27664,2.53031 3.22993,1.71883 5.90365,4.33791 8.17834,7.20368 2.27468,2.86576 4.18754,5.99691 6.22629,9.03505 5.00727,7.46181 10.78259,14.37402 16.08935,21.6259 11.95718,16.3399 21.64569,34.53684 36.05275,48.76369 3.27726,3.23627 6.79415,6.26151 9.63877,9.88394 0.94547,1.20399 1.83541,2.49201 3.08135,3.38147 0.62297,0.44473 1.3326,0.78175 2.08748,0.90837 0.75488,0.12661 1.55676,0.0333 2.23027,-0.33034 0.76414,-0.41261 1.32439,-1.15569 1.59456,-1.98102 0.27018,-0.82532 0.26419,-1.72604 0.0699,-2.57245 -0.38855,-1.69282 -1.4803,-3.12434 -2.54185,-4.49901 -4.37909,-5.67078 -8.72627,-11.36612 -13.08159,-17.05517 -6.44613,-8.42013 -12.91971,-16.83802 -20.06166,-24.67662 -6.60079,-7.24466 -13.76832,-13.9901 -19.86369,-21.66487 -6.09537,-7.67476 -11.15756,-16.47523 -12.71551,-26.1514 -0.68877,-4.27785 -0.67966,-8.63458 -0.61037,-12.96697 0.0261,-1.63409 0.0602,-3.27588 -0.16031,-4.89524 -0.22047,-1.61936 -0.70885,-3.2299 -1.64457,-4.56981 -1.1354,-1.62586 -2.87668,-2.765666 -4.74747,-3.423481 -1.87079,-0.657816 -3.87287,-0.862777 -5.8558,-0.886296 -3.96587,-0.04704 -8.00972,0.603618 -11.85281,-0.376644 -2.71515,-0.692557 -5.21961,-2.206676 -7.07104,-4.309983 -1.85143,-2.103307 -3.0379,-4.789409 -3.31463,-7.577796 -0.24157,-2.434108 0.20385,-4.920157 1.1837,-7.16139 0.97985,-2.241234 2.48494,-4.23911 4.30197,-5.876687 3.63405,-3.275154 8.42832,-5.056256 13.2719,-5.743803 7.69022,-1.091628 15.67973,0.458384 22.56999,4.043833 8.51529,4.431057 15.39803,12.04817 18.59838,21.098152 1.54654,4.37332 2.24417,9.038835 2.10962,13.675605 -0.0788,2.71431 -0.43896,5.41417 -0.53231,8.12802 -0.0933,2.71385 0.0913,5.48491 1.05971,8.02182 0.49323,1.29211 1.18971,2.51335 2.10825,3.54733 1.3162,1.48162 3.06788,2.54831 4.95109,3.16564 1.88321,0.61734 3.89481,0.79634 5.87167,0.65627 3.95371,-0.28013 7.7053,-1.80102 11.31594,-3.43612 19.65901,-8.90272 37.29797,-21.66187 56.23504,-32.011859 8.29997,-4.536323 16.84431,-8.606855 25.28525,-12.875142 14.55306,-7.358967 28.79932,-15.306068 43.10452,-23.135876 25.2835,-13.83861 50.7853,-27.32992 75.234,-42.595017 3.2528,-2.030959 6.5097,-4.104985 10.0718,-5.5251625 3.5621,-1.4201776 7.4945,-2.1613453 11.2566,-1.4181813 2.5382,0.5013966 4.9218,1.6659668 6.9914,3.2185208 2.0697,1.552555 3.8342,3.486518 5.3448,5.586971 6.4363,8.949619 8.0583,20.354708 11.5835,30.799555 3.6277,10.748466 9.3584,20.638098 14.3507,30.824686 10.1129,20.634894 17.2441,42.618465 22.9403,64.881075 4.8696,19.03224 8.7111,38.30921 12.7863,57.52723 7.5837,35.76376 15.9935,71.40807 20.9179,107.63388 4.9915,36.71944 6.3728,73.82927 7.1795,110.87763 0.6988,32.09561 0.9908,64.40161 7.0552,95.92683 0.3274,1.702 0.6722,3.40587 0.8022,5.13419 0.13,1.72832 0.04,3.4933 -0.4876,5.14439 -0.7589,2.37692 -2.3964,4.40782 -4.3595,5.94787 -1.9631,1.54005 -4.2457,2.62322 -6.5729,3.52327 -4.6542,1.8001 -9.6955,2.9875 -13.5826,6.11692 -2.3851,1.92017 -4.1941,4.47692 -5.6024,7.19578 -1.4084,2.71885 -2.4395,5.61368 -3.4866,8.49104 -7.4269,20.4089 -15.976,40.88434 -17.243,62.56561 -0.6253,10.70138 0.551,21.4141 1.4921,32.09234 6.2019,70.37003 2.1749,141.63338 -11.9151,210.85676"
       id="path897"
       inkscape:path-effect="#path-effect899"
       inkscape:original-d="m 635.84722,862.84448 c -16.77913,-62.7324 -33.55926,-125.46581 -50.34039,-188.20021 -16.78114,-62.7344 25.54857,-116.9188 38.32136,-175.37971 12.77279,-58.4609 22.13897,-60.99564 33.20695,-91.49496 11.06798,-30.49932 10.17041,-25.05638 15.25411,-37.58607 5.08371,-12.52969 14.28487,-31.18569 21.42581,-46.78004 7.14093,-15.59435 9.57484,-29.5127 14.36077,-44.27054 4.78592,-14.75785 8.09017,-26.94725 12.13376,-40.42237 4.04359,-13.47512 1.28527,-18.46891 1.9264,-27.70487 0.64113,-9.23596 1.70498,-20.47667 2.55598,-30.7165 0.85099,-10.23983 1.36289,-14.64352 2.04284,-21.96679 0.67994,-7.32326 10.18304,-5.44384 15.27306,-8.16727 5.09002,-2.72342 40.01908,-18.97983 60.02712,-28.47124 20.00805,-9.49142 13.89688,0.82015 20.84382,1.22873 6.94694,0.40858 9.60409,10.82682 14.40463,16.23873 4.80054,5.41191 10.72723,14.41827 16.08935,21.6259 5.36212,7.20763 24.03617,32.51012 36.05275,48.76369 12.01659,16.25356 6.42685,6.59029 9.63877,9.88394 3.21192,3.29365 4.93373,2.64066 7.3991,3.9595 2.46537,1.31883 -0.58392,-6.03398 -0.87738,-9.05248 -0.29345,-3.01849 -8.72006,-11.36911 -13.08159,-17.05517 -4.36153,-5.68605 -13.37344,-16.45008 -20.06166,-24.67662 -6.68822,-8.22655 -21.71846,-31.87651 -32.5792,-47.81627 -10.86073,-15.93976 -0.40591,-8.64365 -0.61037,-12.96697 -0.20446,-4.32333 -1.20226,-6.30903 -1.80488,-9.46505 -0.60263,-3.156014 -14.96972,-3.12328 -22.45608,-4.686421 -7.48635,-1.563141 -6.92278,-7.924186 -10.38567,-11.887779 -3.4629,-3.963593 12.50605,-12.520253 18.75757,-18.78188 6.25153,-6.261626 15.04766,2.696889 22.56999,4.043833 7.52233,1.346945 12.39992,14.066435 18.59838,21.098152 6.19846,7.031717 1.40741,9.118075 2.10962,13.675605 0.7022,4.55754 0.3526,10.76756 0.5274,16.14984 0.1748,5.38228 1.4065,2.36589 2.10825,3.54733 0.70175,1.18145 14.76013,0.25819 22.1387,0.38579 7.37857,0.12759 37.49103,-21.34024 56.23504,-32.011859 18.74402,-10.671618 16.85783,-8.582428 25.28525,-12.875142 8.42742,-4.292714 28.73742,-15.422917 43.10452,-23.135876 14.3672,-7.712958 50.157,-28.395678 75.234,-42.595017 25.077,-14.1993391 14.22,-4.627896 21.3284,-6.9433438 7.1085,-2.3154479 8.2252,5.8713278 12.3362,8.8054918 4.1111,2.934164 7.7234,20.534037 11.5835,30.799555 3.8602,10.265518 9.5681,20.550791 14.3507,30.824686 4.7825,10.273896 15.2945,43.255055 22.9403,64.881075 7.6458,21.62603 8.5252,38.35249 12.7863,57.52723 4.2611,19.17474 13.9463,71.75692 20.9179,107.63388 6.9717,35.87696 4.7873,73.91942 7.1795,110.87763 2.3921,36.9582 4.7045,63.95222 7.0552,95.92683 2.3508,31.97461 0.2108,6.85339 0.3146,10.27858 0.1039,3.4252 -16.3423,10.39304 -24.515,15.58806 -8.1727,5.19501 -6.0583,10.45888 -9.089,15.68682 -3.0306,5.22795 -11.4943,41.71141 -17.243,62.56561 -5.7486,20.85421 0.9958,21.3959 1.4921,32.09234 0.4964,10.69645 -7.9424,140.57217 -11.9151,210.85676" />
  </g>
</svg>
