<?xml version="1.0" encoding="UTF-8" standalone="no"?>
<!-- Created with Inkscape (http://www.inkscape.org/) -->

<svg
   version="1.1"
   id="svg2"
   width="1893"
   height="1024"
   viewBox="0 0 1893 1024"
   sodipodi:docname="frame_0093.svg"
   inkscape:version="1.1.2 (0a00cf5339, 2022-02-04)"
   xmlns:inkscape="http://www.inkscape.org/namespaces/inkscape"
   xmlns:sodipodi="http://sodipodi.sourceforge.net/DTD/sodipodi-0.dtd"
   xmlns:xlink="http://www.w3.org/1999/xlink"
   xmlns="http://www.w3.org/2000/svg"
   xmlns:svg="http://www.w3.org/2000/svg">
  <defs
     id="defs6">
    <inkscape:path-effect
       effect="spiro"
       id="path-effect899"
       is_visible="true"
       lpeversion="1" />
    <inkscape:path-effect
       effect="spiro"
       id="path-effect862"
       is_visible="true"
       lpeversion="1" />
  </defs>
  <sodipodi:namedview
     id="namedview4"
     pagecolor="#ffffff"
     bordercolor="#666666"
     borderopacity="1.0"
     inkscape:pageshadow="2"
     inkscape:pageopacity="0.0"
     inkscape:pagecheckerboard="0"
     showgrid="false"
     inkscape:zoom="0.6703645"
     inkscape:cx="1117.3026"
     inkscape:cy="488.54019"
     inkscape:window-width="1850"
     inkscape:window-height="1016"
     inkscape:window-x="70"
     inkscape:window-y="27"
     inkscape:window-maximized="1"
     inkscape:current-layer="g8" />
  <g
     inkscape:groupmode="layer"
     inkscape:label="Image"
     id="g8">
    
    <path
       style="font-variation-settings:normal;opacity:1;vector-effect:none;fill:none;fill-opacity:1;stroke:#c86487;stroke-width:1px;stroke-linecap:butt;stroke-linejoin:miter;stroke-miterlimit:4;stroke-dasharray:none;stroke-dashoffset:0;stroke-opacity:1;-inkscape-stroke:none;stop-color:#000000;stop-opacity:1"
       d="m 1160.2792,862.6581 -524.64864,0.0336"
       id="path860"
       inkscape:path-effect="#path-effect862"
       inkscape:original-d="m 1160.2792,862.6581 -524.64864,0.0336" />
    <path
       style="font-variation-settings:normal;opacity:1;vector-effect:none;fill:none;fill-opacity:1;stroke:#c86487;stroke-width:1px;stroke-linecap:butt;stroke-linejoin:miter;stroke-miterlimit:4;stroke-dasharray:none;stroke-dashoffset:0;stroke-opacity:1;-inkscape-stroke:none;stop-color:#000000;stop-opacity:1"
       d="m 635.63056,862.6917 c -21.85131,-51.34662 -33.53559,-106.99657 -34.18061,-162.79566 -0.44004,-38.06694 4.19111,-75.99036 8.86494,-113.77185 5.29125,-42.77249 10.75858,-85.99928 25.91152,-126.34617 6.49846,-17.3031 14.71674,-33.89848 22.71486,-50.56154 8.46255,-17.63064 16.69344,-35.37131 24.9686,-53.09067 7.42267,-15.89396 14.90848,-31.84195 19.94995,-48.64366 3.74191,-12.47065 6.1084,-25.32056 9.82792,-37.79791 4.4767,-15.01735 10.88029,-29.38732 15.86795,-44.24279 4.85776,-14.46857 8.37505,-30.07415 4.82606,-44.91807 -1.56609,-6.55028 -4.48906,-12.85774 -4.7249,-19.5885 -0.21338,-6.08981 1.85508,-12.15244 5.32312,-17.16283 3.46803,-5.0104 8.28041,-9.00494 13.59854,-11.97966 10.63625,-5.94942 22.99194,-7.83692 35.03356,-9.71439 6.62659,-1.03319 13.28031,-2.09624 19.9869,-2.12576 11.25451,-0.0495 22.76214,3.00894 31.57378,10.01048 6.47441,5.14443 11.19824,12.11202 15.9634,18.87045 16.18708,22.95815 33.98378,44.72731 51.54567,66.65168 0.42523,0.53086 0.85321,1.06486 1.36464,1.51327 1.05258,0.92288 2.39376,1.43113 3.68285,1.97692 0.9395,0.39778 1.88701,0.83026 2.9022,0.9316 0.5076,0.0507 1.02816,0.0154 1.51185,-0.1467 0.48369,-0.16207 0.92918,-0.4555 1.23511,-0.8637 0.35502,-0.4737 0.50646,-1.08314 0.474,-1.67422 -0.0325,-0.59108 -0.24013,-1.16406 -0.54228,-1.67311 -0.6043,-1.01811 -1.55794,-1.76986 -2.44398,-2.55514 -4.06766,-3.60507 -7.00821,-8.27465 -10.09691,-12.74704 -7.9217,-11.47049 -17.12417,-21.99541 -25.46586,-33.16419 -8.34169,-11.16879 -15.90699,-23.16731 -19.97195,-36.50154 -0.38798,-1.2727 -0.74333,-2.55528 -1.07111,-3.8448 -0.89004,-3.50152 -1.58008,-7.0963 -1.4149,-10.70539 0.0887,-1.93781 0.42295,-3.85527 0.61462,-5.78561 0.19166,-1.93035 0.23745,-3.90467 -0.24169,-5.7844 -0.64501,-2.53044 -2.23649,-4.774586 -4.29065,-6.38691 -2.05416,-1.612324 -4.5511,-2.612543 -7.12141,-3.073695 -5.18609,-0.930462 -10.57699,0.27392 -15.76423,-0.650126 -2.11935,-0.377537 -4.19795,-1.122194 -5.94688,-2.377343 -1.74893,-1.255149 -3.15204,-3.046381 -3.73425,-5.118866 -0.48811,-1.737504 -0.38518,-3.615644 0.16045,-5.335954 0.54562,-1.720311 1.52039,-3.28717 2.72109,-4.63457 2.4014,-2.6948 5.63326,-4.485393 8.83141,-6.158875 2.49771,-1.306965 5.02562,-2.578681 7.69005,-3.499261 2.66444,-0.920581 5.48234,-1.485019 8.29743,-1.336897 3.46391,0.182262 6.81353,1.442748 9.7701,3.256749 2.95658,1.814001 5.54662,4.168993 7.9499,6.670229 4.03323,4.197629 7.60465,8.867111 10.32996,14.011014 2.41142,4.55144 4.16285,9.526954 4.46705,14.668745 0.16796,2.83904 -0.10706,5.6962 -0.70512,8.47661 -0.55597,2.58477 -1.39375,5.13726 -1.46432,7.7802 -0.0353,1.32147 0.12721,2.65992 0.60042,3.89426 0.47322,1.23434 1.26967,2.36173 2.35185,3.12095 1.35735,0.95228 3.10009,1.27312 4.7442,1.05824 1.6441,-0.21487 3.19381,-0.93474 4.54641,-1.89375 2.70522,-1.91803 4.62057,-4.72406 6.86956,-7.16107 3.85187,-4.17387 8.72892,-7.29374 13.85615,-9.73703 5.12723,-2.44328 10.53064,-4.2456 15.89676,-6.10648 13.80794,-4.788361 27.47051,-10.005555 40.88662,-15.801742 31.06979,-13.42314 60.71544,-29.904357 91.29204,-44.415785 22.2975,-10.582228 45.3199,-20.250878 65.0177,-35.1223388 0.4957,-0.3742497 0.9906,-0.7526712 1.5271,-1.0657495 0.5364,-0.3130784 1.119,-0.5608661 1.7333,-0.6523891 0.993,-0.1479354 2.025,0.1282226 2.8707,0.6692096 0.8458,0.540987 1.513,1.3330726 1.9979,2.2121726 0.9698,1.7582002 1.2195,3.8072902 1.5525,5.7874072 2.7808,16.536294 12.3045,30.999692 19.7277,46.035592 10.0517,20.35996 16.4304,42.328113 21.7269,64.407773 5.8572,24.41707 10.4506,49.11671 15.682,73.67546 7.2797,34.17447 15.8031,68.11942 21.1394,102.65075 7.457,48.25484 8.6272,97.22238 11.0395,145.99037 1.0216,20.65336 2.2685,41.29766 4.0001,61.90364 0.1375,1.63667 0.2782,3.2822 0.1446,4.91919 -0.1336,1.637 -0.5564,3.28083 -1.463,4.6504 -1.1613,1.7544 -3.0208,2.92722 -4.9353,3.79966 -1.9145,0.87244 -3.9386,1.4992 -5.8101,2.46044 -4.8715,2.50207 -8.3354,7.05939 -11.2447,11.6992 -14.6525,23.36833 -19.1476,51.78629 -19.2353,79.36827 -0.041,12.90057 0.8083,25.785 1.3115,38.67582 2.7146,69.53835 -4.7066,139.46425 -21.9563,206.88381"
       id="path897"
       inkscape:path-effect="#path-effect899"
       inkscape:original-d="m 635.63056,862.6917 c -11.39254,-54.26422 -22.78607,-108.52944 -34.18061,-162.79566 -11.39453,-54.26622 5.91096,-75.8469 8.86494,-113.77185 2.95397,-37.92496 17.27535,-84.22978 25.91152,-126.34617 8.63618,-42.11639 15.14424,-33.70669 22.71486,-50.56154 7.57062,-16.85484 16.64673,-35.39278 24.9686,-53.09067 8.32186,-17.69789 13.30096,-32.42811 19.94995,-48.64366 6.64898,-16.21556 6.55294,-25.19761 9.82792,-37.79791 3.27497,-12.6003 10.57963,-29.49419 15.86795,-44.24279 5.28832,-14.7486 3.21837,-29.94438 4.82606,-44.91807 1.60768,-14.97369 -3.14894,-13.058 -4.7249,-19.5885 -1.57597,-6.53049 47.6191,-35.28935 53.95522,-38.85688 6.33613,-3.56754 1.47759,6.31371 19.9869,-2.12576 18.5093,-8.43947 21.25024,8.33053 31.57378,10.01048 10.32354,1.67994 10.64326,12.5813 15.9634,18.87045 5.32013,6.28916 34.36478,44.43545 51.54567,66.65168 17.1809,22.21622 0.91076,1.00985 1.36464,1.51327 0.45387,0.50343 2.45623,1.31895 3.68285,1.97692 1.22662,0.65798 3.76711,-0.0516 5.64916,-0.0788 1.88205,-0.0273 -1.67384,-3.93398 -2.51226,-5.90247 -0.83841,-1.96849 -6.73027,-8.49703 -10.09691,-12.74704 -3.36664,-4.25002 -30.29088,-46.44282 -45.43781,-69.66573 -15.14694,-23.2229 -0.71307,-2.5622 -1.07111,-3.8448 -0.35804,-1.28261 -0.94227,-7.13593 -1.4149,-10.70539 -0.47264,-3.56947 0.24962,-7.71234 0.37293,-11.57001 0.12331,-3.85766 -7.60704,-6.306069 -11.41206,-9.460605 -3.80502,-3.154536 -10.50849,-0.432417 -15.76423,-0.650126 -5.25574,-0.217709 -6.45308,-4.996473 -9.68113,-7.496209 -3.22804,-2.499736 7.80964,-10.751932 11.71295,-16.129399 3.90332,-5.377466 10.65932,-3.223105 15.98748,-4.836158 5.32816,-1.613053 11.81433,6.618985 17.72,9.926978 5.90567,3.307992 6.88764,9.341676 10.32996,14.011014 3.44232,4.669338 2.97903,9.780162 4.46705,14.668745 1.48802,4.88858 -0.46908,5.65207 -0.70512,8.47661 -0.23604,2.82454 0.99296,9.86461 1.48795,14.79541 0.49498,4.93081 10.77445,-5.33005 16.16017,-7.99658 5.38572,-2.66653 19.83628,-10.56134 29.75291,-15.84351 9.91664,-5.282171 27.25875,-10.533495 40.88662,-15.801742 13.62787,-5.268247 60.86234,-29.609523 91.29204,-44.415785 30.4297,-14.806261 43.3461,-23.413892 65.0177,-35.1223388 21.6716,-11.7084463 2.1746,-1.1444257 3.2604,-1.7181386 1.0858,-0.5737129 4.2818,5.7801934 6.4211,8.6687894 2.1394,2.888597 13.1528,30.691394 19.7277,46.035592 6.5749,15.344197 14.4856,42.939513 21.7269,64.407773 7.2413,21.46825 10.4557,49.11797 15.682,73.67546 5.2263,24.55749 14.0939,68.43484 21.1394,102.65075 7.0454,34.21592 7.3606,97.32791 11.0395,145.99037 3.6788,48.66245 2.6677,41.27009 4.0001,61.90364 1.3324,20.63354 -0.8779,6.38072 -1.3184,9.56959 -0.4405,3.18886 -7.1626,4.1744 -10.7454,6.2601 -3.5829,2.0857 -7.4954,7.80046 -11.2447,11.6992 -3.7492,3.89873 -12.8225,52.91318 -19.2353,79.36827 -6.4128,26.45509 0.8753,25.78488 1.3115,38.67582 0.4362,12.89094 -14.6365,137.92354 -21.9563,206.88381"
       sodipodi:nodetypes="cssssssssssssssssssssssssssssssssssssssssssssssssssssc" />
  </g>
</svg>
