<?xml version="1.0" encoding="UTF-8" standalone="no"?>
<!-- Created with Inkscape (http://www.inkscape.org/) -->

<svg
   version="1.1"
   id="svg2"
   width="1893"
   height="1024"
   viewBox="0 0 1893 1024"
   sodipodi:docname="frame_0032.svg"
   inkscape:version="1.1.2 (0a00cf5339, 2022-02-04)"
   xmlns:inkscape="http://www.inkscape.org/namespaces/inkscape"
   xmlns:sodipodi="http://sodipodi.sourceforge.net/DTD/sodipodi-0.dtd"
   xmlns:xlink="http://www.w3.org/1999/xlink"
   xmlns="http://www.w3.org/2000/svg"
   xmlns:svg="http://www.w3.org/2000/svg">
  <defs
     id="defs6">
    <inkscape:path-effect
       effect="spiro"
       id="path-effect899"
       is_visible="true"
       lpeversion="1" />
    <inkscape:path-effect
       effect="spiro"
       id="path-effect862"
       is_visible="true"
       lpeversion="1" />
  </defs>
  <sodipodi:namedview
     id="namedview4"
     pagecolor="#ffffff"
     bordercolor="#666666"
     borderopacity="1.0"
     inkscape:pageshadow="2"
     inkscape:pageopacity="0.0"
     inkscape:pagecheckerboard="0"
     showgrid="false"
     inkscape:zoom="2.681458"
     inkscape:cx="1182.9385"
     inkscape:cy="847.85963"
     inkscape:window-width="1850"
     inkscape:window-height="1016"
     inkscape:window-x="70"
     inkscape:window-y="27"
     inkscape:window-maximized="1"
     inkscape:current-layer="g8" />
  <g
     inkscape:groupmode="layer"
     inkscape:label="Image"
     id="g8">
    
    <path
       style="font-variation-settings:normal;opacity:1;vector-effect:none;fill:none;fill-opacity:1;stroke:#c86487;stroke-width:1px;stroke-linecap:butt;stroke-linejoin:miter;stroke-miterlimit:4;stroke-dasharray:none;stroke-dashoffset:0;stroke-opacity:1;-inkscape-stroke:none;stop-color:#000000;stop-opacity:1"
       d="M 1160.41,863.27877 635.45186,862.70139"
       id="path860"
       inkscape:path-effect="#path-effect862"
       inkscape:original-d="M 1160.41,863.27877 635.45186,862.70139" />
    <path
       style="font-variation-settings:normal;opacity:1;vector-effect:none;fill:none;fill-opacity:1;stroke:#c86487;stroke-width:1px;stroke-linecap:butt;stroke-linejoin:miter;stroke-miterlimit:4;stroke-dasharray:none;stroke-dashoffset:0;stroke-opacity:1;-inkscape-stroke:none;stop-color:#000000;stop-opacity:1"
       d="m 635.45186,862.70139 c -12.69317,-48.15166 -23.133,-96.89725 -31.27388,-146.02387 -9.89663,-59.72176 -16.38986,-120.74889 -8.16917,-180.72432 3.5876,-26.17391 9.99139,-52.0341 20.12858,-76.43045 9.04567,-21.76948 20.97866,-42.20271 31.30789,-63.39331 10.32923,-21.19059 19.15594,-43.54224 21.33971,-67.0149 0.58041,-6.23861 0.6873,-12.51964 1.45948,-18.73742 0.77219,-6.21779 2.24708,-12.44833 5.35745,-17.88734 4.25483,-7.4403 11.2157,-12.85571 17.24095,-18.95145 3.01263,-3.04786 5.83821,-6.32826 7.93486,-10.06584 2.09664,-3.73758 3.44278,-7.9709 3.34528,-12.25528 -0.0794,-3.49036 -1.10712,-6.90209 -2.50669,-10.10054 -1.39957,-3.19846 -3.17047,-6.21784 -4.82964,-9.28966 -3.54937,-6.57138 -6.61885,-13.46592 -8.2567,-20.7528 -1.63784,-7.28687 -1.79376,-15.01208 0.40424,-22.15 2.05437,-6.67147 6.08752,-12.60668 10.90549,-17.65803 4.81797,-5.05135 10.42121,-9.28224 16.09757,-13.34524 13.3765,-9.57457 28.01218,-18.60661 44.38514,-20.19707 9.04227,-0.87836 18.42373,0.66096 26.34316,5.11256 7.3479,4.13034 13.12696,10.51848 18.60344,16.92626 7.49539,8.77001 14.70228,17.80766 22.77658,26.04778 6.77518,6.91431 14.17263,13.28113 20.06061,20.96504 3.3346,4.35171 6.29278,9.22538 10.92109,12.16404 1.12075,0.7116 2.33887,1.30095 3.64285,1.55008 1.30399,0.24913 2.70412,0.13749 3.87662,-0.48516 1.31531,-0.69848 2.25186,-1.9958 2.71017,-3.41279 0.45831,-1.41699 0.47254,-2.94697 0.26292,-4.42141 -0.35458,-2.49407 -1.33586,-4.87658 -2.68653,-7.00303 -1.35068,-2.12644 -3.06502,-4.00535 -4.93739,-5.69068 -3.74474,-3.37066 -8.10567,-5.9722 -12.12672,-9.00791 -10.50602,-7.93156 -18.51032,-18.67761 -25.86191,-29.59732 -7.35158,-10.91972 -14.25586,-22.23741 -23.15476,-31.93769 -7.60687,-8.2919 -16.73503,-15.49928 -21.98365,-25.45277 -2.11609,-4.012959 -3.55499,-8.516969 -3.21302,-13.040767 0.17099,-2.261899 0.79354,-4.501514 1.92051,-6.470107 1.12697,-1.968593 2.76764,-3.65809 4.76161,-4.739534 2.13633,-1.158658 4.62751,-1.593617 7.05153,-1.418894 2.42402,0.174722 4.78339,0.940484 6.94514,2.050998 4.3235,2.221028 7.80865,5.745413 11.26133,9.166622 9.28997,9.205305 18.91231,18.087282 27.7723,27.707142 2.76911,3.00659 5.50877,6.12373 8.95324,8.32446 1.72223,1.10037 3.61411,1.95921 5.61377,2.3814 1.99966,0.42218 4.11128,0.39636 6.05963,-0.22074 2.44695,-0.77502 4.5234,-2.43303 6.29771,-4.28778 1.7743,-1.85474 3.3024,-3.93121 5.04761,-5.81335 6.04378,-6.51799 14.42326,-10.41605 22.94201,-12.9542 8.51875,-2.53815 17.35127,-3.86874 25.93776,-6.167344 28.81588,-7.714002 53.48751,-25.850977 79.63826,-40.203644 11.84621,-6.50174 24.09871,-12.271591 35.67581,-19.241432 11.577,-6.969841 22.5736,-15.252482 30.8712,-25.918121 0.5464,-0.702392 1.0858,-1.419967 1.7584,-2.00266 0.6727,-0.582693 1.501,-1.0281543 2.3895,-1.0785083 0.7923,-0.0449 1.5846,0.2314756 2.2299,0.6933093 0.6453,0.461833 1.1505,1.100308 1.5309,1.796737 0.7607,1.392857 1.0311,2.990621 1.4768,4.513799 1.5229,5.204068 5.1044,9.544708 8.9118,13.40539 3.8075,3.860683 7.961,7.442086 11.082,11.876171 3.8673,5.494423 5.9598,12.036663 7.4687,18.584002 1.509,6.547339 2.4938,13.223323 4.4272,19.65811 4.9353,16.425723 15.7413,30.386471 22.898,45.973131 9.6028,20.91406 12.4076,44.1768 17.1237,66.70166 7.9891,38.15715 21.72,75.01677 28.1543,113.46666 8.0234,47.9458 4.531,97.3678 13.9517,145.05873 2.0396,10.32503 4.6929,20.67507 4.3438,31.19382 -0.2955,8.90363 -2.7447,17.70973 -2.1857,26.60071 0.056,0.89037 0.1421,1.78329 0.075,2.67288 -0.067,0.88959 -0.2986,1.78844 -0.8208,2.51176 -0.5026,0.69616 -1.2518,1.1923 -2.0616,1.4776 -0.8098,0.28531 -1.6795,0.36986 -2.5378,0.347 -1.7167,-0.0457 -3.4008,-0.51011 -5.1171,-0.56698 -3.2105,-0.10639 -6.361,1.24955 -8.818,3.31876 -2.4571,2.06921 -4.2736,4.80929 -5.6817,7.69651 -3.5859,7.35275 -4.6458,15.64567 -5.5373,23.77752 -3.4568,31.53156 -5.1294,63.23843 -5.8987,94.94958 -1.7651,72.76382 1.2239,145.64261 8.9417,218.0175"
       id="path897"
       inkscape:path-effect="#path-effect899"
       inkscape:original-d="m 635.45186,862.70139 c -10.42363,-48.67362 -20.84825,-97.34825 -31.27388,-146.02387 -10.42563,-48.67563 -5.44511,-120.48188 -8.16917,-180.72432 -2.72406,-60.24243 13.42005,-50.95263 20.12858,-76.43045 6.70853,-25.47781 35.0994,-86.93781 52.6476,-130.40821 17.5482,-43.47041 4.54562,-24.41551 6.81693,-36.62476 2.2713,-12.20925 19.01506,-27.51405 28.52109,-41.27257 9.50603,-13.75852 -4.88989,-12.9258 -7.33633,-19.3902 -2.44645,-6.4644 -5.23398,-28.60086 -7.85246,-42.9028 -2.61849,-14.30193 18.00304,-20.66784 27.00306,-31.00327 9.00002,-10.33542 29.59109,-13.46371 44.38514,-20.19707 14.79405,-6.73335 17.56311,3.40937 26.34316,5.11256 8.78005,1.70319 12.40329,11.28517 18.60344,16.92626 6.20014,5.64109 15.18539,17.36619 22.77658,26.04778 7.5912,8.6816 13.37474,13.97769 20.06061,20.96504 6.68587,6.98734 7.28173,8.11036 10.92109,12.16404 3.63936,4.05368 5.01398,0.71095 7.51947,1.06492 2.50549,0.35397 1.98306,-5.2218 2.97309,-7.8342 0.99003,-2.6124 -13.16609,-14.46675 -19.75064,-21.70162 -6.58454,-7.23488 -32.67678,-41.02234 -49.01667,-61.53501 -16.33989,-20.51267 -14.65477,-16.96752 -21.98365,-25.45277 -7.32889,-8.48526 2.31373,-16.16594 3.4691,-24.250408 1.15536,-8.084469 16.83966,6.533484 25.258,9.798726 8.41833,3.265242 18.51587,18.472422 27.7723,27.707142 9.25644,9.23471 13.75209,6.99108 20.62664,10.48512 6.87454,3.49404 7.56454,-6.73309 11.34532,-10.10113 3.78077,-3.36804 32.58751,-12.7467 48.87977,-19.121544 16.29226,-6.374848 53.09318,-26.801429 79.63826,-40.203644 26.54511,-13.402214 44.36571,-30.105368 66.54701,-45.159553 22.1814,-15.0541842 2.7663,-2.053112 4.1479,-3.0811683 1.3816,-1.0280562 3.4928,4.6702303 5.2376,7.0038453 1.7449,2.333615 13.3302,16.855374 19.9938,25.281561 6.6636,8.426187 7.9316,25.495741 11.8959,38.242112 3.9643,12.74637 15.2664,30.649751 22.898,45.973131 7.6317,15.32338 11.4168,44.46877 17.1237,66.70166 5.7069,22.23289 18.7705,75.64544 28.1543,113.46666 9.3838,37.82121 9.3021,96.70682 13.9517,145.05873 4.6495,48.35191 2.8969,20.79688 4.3438,31.19382 1.447,10.39695 -1.4561,17.73481 -2.1857,26.60071 -0.7295,8.8659 -0.4962,3.45743 -0.7458,5.18464 -0.2497,1.72722 -6.4766,0.83942 -9.7165,1.25762 -3.2398,0.41821 -9.6655,7.34452 -14.4997,11.01527 -4.8343,3.67076 -3.6906,15.85268 -5.5373,23.77752 -1.8468,7.92484 -3.9315,63.30072 -5.8987,94.94958 -1.9672,31.64886 5.9621,145.346 8.9417,218.0175" />
  </g>
</svg>
