<?xml version="1.0" encoding="UTF-8" standalone="no"?>
<!-- Created with Inkscape (http://www.inkscape.org/) -->

<svg
   version="1.1"
   id="svg2"
   width="1893"
   height="1024"
   viewBox="0 0 1893 1024"
   sodipodi:docname="frame_0094.svg"
   inkscape:version="1.1.2 (0a00cf5339, 2022-02-04)"
   xmlns:inkscape="http://www.inkscape.org/namespaces/inkscape"
   xmlns:sodipodi="http://sodipodi.sourceforge.net/DTD/sodipodi-0.dtd"
   xmlns:xlink="http://www.w3.org/1999/xlink"
   xmlns="http://www.w3.org/2000/svg"
   xmlns:svg="http://www.w3.org/2000/svg">
  <defs
     id="defs6">
    <inkscape:path-effect
       effect="spiro"
       id="path-effect899"
       is_visible="true"
       lpeversion="1" />
    <inkscape:path-effect
       effect="spiro"
       id="path-effect862"
       is_visible="true"
       lpeversion="1" />
  </defs>
  <sodipodi:namedview
     id="namedview4"
     pagecolor="#ffffff"
     bordercolor="#666666"
     borderopacity="1.0"
     inkscape:pageshadow="2"
     inkscape:pageopacity="0.0"
     inkscape:pagecheckerboard="0"
     showgrid="false"
     inkscape:zoom="0.6703645"
     inkscape:cx="908.46099"
     inkscape:cy="573.56856"
     inkscape:window-width="1850"
     inkscape:window-height="1016"
     inkscape:window-x="70"
     inkscape:window-y="27"
     inkscape:window-maximized="1"
     inkscape:current-layer="g8" />
  <g
     inkscape:groupmode="layer"
     inkscape:label="Image"
     id="g8">
    
    <path
       style="font-variation-settings:normal;opacity:1;vector-effect:none;fill:none;fill-opacity:1;stroke:#c86487;stroke-width:1px;stroke-linecap:butt;stroke-linejoin:miter;stroke-miterlimit:4;stroke-dasharray:none;stroke-dashoffset:0;stroke-opacity:1;-inkscape-stroke:none;stop-color:#000000;stop-opacity:1"
       d="M 1161.213,863.48426 H 635.31661"
       id="path860"
       inkscape:path-effect="#path-effect862"
       inkscape:original-d="M 1161.213,863.48426 H 635.31661" />
    <path
       style="font-variation-settings:normal;opacity:1;vector-effect:none;fill:none;fill-opacity:1;stroke:#c86487;stroke-width:1px;stroke-linecap:butt;stroke-linejoin:miter;stroke-miterlimit:4;stroke-dasharray:none;stroke-dashoffset:0;stroke-opacity:1;-inkscape-stroke:none;stop-color:#000000;stop-opacity:1"
       d="m 635.31661,863.48426 c -0.88046,-49.41303 -4.87174,-98.77043 -11.94237,-147.6829 -6.06712,-41.97048 -14.42586,-84.07978 -11.8725,-126.40958 2.39086,-39.63595 14.30466,-78.11153 28.81312,-115.07407 9.98581,-25.4404 21.24256,-50.39002 30.32844,-76.16553 4.75314,-13.48407 8.91055,-27.18961 14.32585,-40.42165 8.42207,-20.57894 19.8539,-39.93354 26.66161,-61.10143 5.66018,-17.59976 8.02171,-36.15671 14.13273,-53.60505 3.00811,-8.58883 6.90651,-16.85295 9.71462,-25.50924 2.80811,-8.65628 4.51132,-17.90228 2.94943,-26.86761 -1.05808,-6.07344 -3.59272,-11.91334 -3.72289,-18.07689 -0.14628,-6.9265 2.85093,-13.69964 7.42439,-18.9036 7.40852,-8.42986 18.29403,-12.72214 28.07586,-18.22345 5.90737,-3.32231 11.51524,-7.16453 17.49178,-10.36074 5.97654,-3.19621 12.42833,-5.76313 19.18766,-6.25931 10.54178,-0.77384 21.07391,3.68378 28.89895,10.78988 5.71698,5.19172 10.08396,11.66319 14.61642,17.91576 13.80128,19.03897 29.59626,36.57016 43.33515,55.65419 0.54435,0.75613 1.09529,1.52515 1.82464,2.10489 0.71089,0.56507 1.57273,0.92948 2.46646,1.09053 0.89372,0.16105 1.81838,0.12222 2.70622,-0.0686 0.64904,-0.13951 1.28432,-0.36139 1.85479,-0.70093 0.57047,-0.33954 1.07514,-0.80005 1.42393,-1.36491 0.3847,-0.62302 0.57004,-1.35876 0.58172,-2.09088 0.0117,-0.73213 -0.14553,-1.46105 -0.40595,-2.14539 -0.52085,-1.36868 -1.43658,-2.5441 -2.32257,-3.71011 -16.17211,-21.2833 -26.85957,-47.05431 -46.91438,-64.72691 -0.65006,-0.57285 -1.31229,-1.13949 -1.86264,-1.80869 -0.55036,-0.66921 -0.98885,-1.45521 -1.11607,-2.31227 -0.12409,-0.83596 0.0564,-1.69936 0.41607,-2.46413 0.35965,-0.76478 0.89159,-1.43782 1.48231,-2.04221 1.18143,-1.20877 2.61234,-2.17009 3.68177,-3.479 0.92568,-1.13297 1.55095,-2.50157 1.85195,-3.93332 0.30099,-1.43176 0.28145,-2.92469 -0.006,-4.35918 -0.57533,-2.86899 -2.20702,-5.45438 -4.28558,-7.5139 -2.88458,-2.85815 -6.63883,-4.776238 -10.59467,-5.693377 -3.65929,-0.848384 -7.45517,-0.864041 -11.17767,-1.367145 -3.7225,-0.503104 -7.53847,-1.584229 -10.27873,-4.153488 -1.68966,-1.584221 -2.88173,-3.676953 -3.45715,-5.920525 -0.57541,-2.243571 -0.54141,-4.63076 0.0229,-6.877153 1.1286,-4.492786 4.35318,-8.300377 8.33015,-10.675788 5.70177,-3.405621 12.84371,-3.978337 19.26637,-2.287814 6.42266,1.690523 12.15494,5.497644 16.83878,10.206165 4.48038,4.503989 8.10113,9.888862 10.39016,15.815079 2.08229,5.390993 3.05207,11.257376 2.41463,17.001276 -0.1919,1.72915 -0.52714,3.44176 -0.66282,5.17622 -0.13567,1.73446 -0.064,3.5175 0.53438,5.15111 0.42414,1.15785 1.11355,2.22351 2.02852,3.05015 0.91497,0.82665 2.05723,1.4087 3.27264,1.61673 1.46848,0.25134 2.99916,-0.0477 4.34759,-0.6812 1.34843,-0.63353 2.52621,-1.58797 3.56136,-2.65945 2.07029,-2.14297 3.60282,-4.76026 5.69248,-6.88435 3.04432,-3.09448 7.1247,-4.98477 11.29695,-6.18311 4.17226,-1.19833 8.49519,-1.76396 12.7547,-2.60078 21.8002,-4.28285 41.47817,-15.53227 61.18688,-25.786948 C 1025.9887,56.432384 1073.5797,37.27264 1115.68,8.7531225 c 0.7104,-0.4812054 1.4218,-0.9666234 2.1905,-1.3477191 0.7687,-0.3810956 1.6023,-0.6569622 2.4596,-0.6915676 0.9345,-0.03772 1.8695,0.2155276 2.6927,0.6594478 0.8231,0.4439203 1.5377,1.0735022 2.1381,1.790512 1.2009,1.4340194 1.9395,3.1882204 2.6793,4.9061264 4.9613,11.520925 10.7354,22.671525 16.5537,33.784279 13.1403,25.097457 26.6394,50.322351 34.1089,77.649179 5.1928,18.99769 7.3713,38.66332 10.5742,58.09573 5.5124,33.4441 14.0859,66.31583 19.9765,99.6954 4.4937,25.46403 7.4176,51.17445 10.5282,76.84416 4.084,33.70188 8.5027,67.65441 5.8102,101.4959 -1.3284,16.69603 -4.371,33.62593 -1.0334,50.0388 0.3371,1.65754 0.7392,3.3078 0.8906,4.99248 0.1514,1.68468 0.041,3.42683 -0.6154,4.98589 -0.7557,1.79598 -2.1882,3.23593 -3.7852,4.35224 -1.5971,1.11631 -3.3718,1.94671 -5.0992,2.84822 -6.6545,3.47286 -12.7086,8.07245 -17.9235,13.47133 -4.6112,4.77385 -8.5988,10.22059 -11.2127,16.3214 -3.378,7.8841 -4.3621,16.60619 -4.3036,25.18327 0.058,8.57708 1.1183,17.11248 1.6557,25.67291 0.9047,14.41269 0.3273,28.87464 -0.4111,43.29681 -3.6126,70.56507 -11.0744,140.93291 -22.3411,210.68634"
       id="path897"
       inkscape:path-effect="#path-effect899"
       inkscape:original-d="m 635.31661,863.48426 c -3.97979,-49.22663 -7.96058,-98.45426 -11.94237,-147.6829 -3.98179,-49.22863 -7.914,-84.27205 -11.8725,-126.40958 -3.9585,-42.13752 19.20975,-76.71505 28.81312,-115.07407 9.60337,-38.35903 20.21996,-50.77602 30.32844,-76.16553 10.10848,-25.38951 9.55157,-26.94677 14.32585,-40.42165 4.77428,-13.47489 17.77541,-40.73329 26.66161,-61.10143 8.88621,-20.36814 9.42282,-35.7357 14.13273,-53.60505 4.7099,-17.86935 8.4437,-34.9169 12.66405,-52.37685 4.22035,-17.45995 -2.48093,-12.05026 -3.72289,-18.07689 -1.24197,-6.02662 4.95059,-12.6014 7.42439,-18.9036 2.4738,-6.30219 18.71824,-12.14796 28.07586,-18.22345 9.35762,-6.07548 24.45396,-11.07903 36.67944,-16.62005 12.22548,-5.54102 19.26697,7.19425 28.89895,10.78988 9.63199,3.59563 9.74528,11.94484 14.61642,17.91576 4.87113,5.97092 28.8911,37.10379 43.33515,55.65419 14.44405,18.5504 1.21743,1.40426 1.82464,2.10489 0.60722,0.70063 3.44946,0.68227 5.17268,1.02191 1.72323,0.33964 2.18682,-1.37623 3.27872,-2.06584 1.09191,-0.68962 -1.4302,-5.29659 -2.1468,-7.94638 -0.7166,-2.6498 -31.27525,-43.15028 -46.91438,-64.72691 -15.63912,-21.57664 -1.98481,-2.74631 -2.97871,-4.12096 -0.99391,-1.37465 3.7211,-5.32256 5.58015,-7.98534 1.85905,-2.66278 -1.62556,-10.5366 -2.43985,-15.8064 -0.81428,-5.269806 -7.06212,-3.794586 -10.59467,-5.693377 -3.53256,-1.898791 -14.30327,-3.679422 -21.4564,-5.520633 -7.15313,-1.84121 3.26492,-15.647977 4.89589,-23.473466 1.63096,-7.825489 24.0711,5.279901 36.10515,7.918351 12.03405,2.638451 6.92777,10.544386 10.39016,15.815079 3.46239,5.270694 1.61075,11.335186 2.41463,17.001276 0.80388,5.66609 -0.0846,6.88589 -0.12844,10.32733 -0.0438,3.44145 3.5351,3.11226 5.30116,4.66688 1.76605,1.55463 9.06862,-6.81566 13.60143,-10.225 4.53282,-3.40933 16.03543,-5.85493 24.05165,-8.78389 8.01621,-2.92897 40.79225,-17.1903 61.18688,-25.786948 20.39465,-8.596648 89.86845,-47.43266 134.80125,-71.1504895 44.9327,-23.7178295 3.101,-1.3585245 4.6501,-2.0392867 1.549,-0.6807623 5.0077,4.9050572 7.5101,7.3560862 2.5024,2.451029 11.0368,22.523853 16.5537,33.784279 5.5169,11.260427 22.7403,51.76712 34.1089,77.649179 11.3686,25.88206 7.0504,38.73148 10.5742,58.09573 3.5237,19.36424 13.3187,66.4646 19.9765,99.6954 6.6579,33.2308 7.0198,51.23044 10.5282,76.84416 3.5084,25.61372 3.8745,67.66493 5.8102,101.4959 1.9358,33.83096 -0.6879,33.3602 -1.0334,50.0388 -0.3455,16.6786 0.1844,6.65325 0.2752,9.97837 0.091,3.32512 -5.922,4.80131 -8.8844,7.20046 -2.9625,2.39916 -11.948,8.98189 -17.9235,13.47133 -5.9755,4.48944 -7.4741,10.88193 -11.2127,16.3214 -3.7385,5.43946 -1.7643,33.90512 -2.6479,50.85618 -0.8837,16.95106 -0.2731,28.86554 -0.4111,43.29681 -0.138,14.43127 -14.8931,140.45856 -22.3411,210.68634" />
  </g>
</svg>
