<?xml version="1.0" encoding="UTF-8" standalone="no"?>
<!-- Created with Inkscape (http://www.inkscape.org/) -->

<svg
   version="1.1"
   id="svg2"
   width="1893"
   height="1024"
   viewBox="0 0 1893 1024"
   sodipodi:docname="frame_0141.svg"
   inkscape:version="1.1.2 (0a00cf5339, 2022-02-04)"
   xmlns:inkscape="http://www.inkscape.org/namespaces/inkscape"
   xmlns:sodipodi="http://sodipodi.sourceforge.net/DTD/sodipodi-0.dtd"
   xmlns:xlink="http://www.w3.org/1999/xlink"
   xmlns="http://www.w3.org/2000/svg"
   xmlns:svg="http://www.w3.org/2000/svg">
  <defs
     id="defs6">
    <inkscape:path-effect
       effect="spiro"
       id="path-effect866"
       is_visible="true"
       lpeversion="1" />
    <inkscape:path-effect
       effect="spiro"
       id="path-effect862"
       is_visible="true"
       lpeversion="1" />
  </defs>
  <sodipodi:namedview
     id="namedview4"
     pagecolor="#ffffff"
     bordercolor="#666666"
     borderopacity="1.0"
     inkscape:pageshadow="2"
     inkscape:pageopacity="0.0"
     inkscape:pagecheckerboard="0"
     showgrid="false"
     inkscape:zoom="1.340729"
     inkscape:cx="1079.2636"
     inkscape:cy="276.3422"
     inkscape:window-width="1850"
     inkscape:window-height="1016"
     inkscape:window-x="70"
     inkscape:window-y="27"
     inkscape:window-maximized="1"
     inkscape:current-layer="g8" />
  <g
     inkscape:groupmode="layer"
     inkscape:label="Image"
     id="g8">
    
    <path
       style="font-variation-settings:normal;opacity:1;vector-effect:none;fill:none;fill-opacity:1;stroke:#c86487;stroke-width:1px;stroke-linecap:butt;stroke-linejoin:miter;stroke-miterlimit:4;stroke-dasharray:none;stroke-dashoffset:0;stroke-opacity:1;-inkscape-stroke:none;stop-color:#000000;stop-opacity:1"
       d="m 1160.4772,862.73561 -524.8686,0.0501"
       id="path860"
       inkscape:path-effect="#path-effect862"
       inkscape:original-d="m 1160.4772,862.73561 c -174.95521,0.0177 -349.91141,0.0344 -524.8686,0.0501" />
    <path
       style="font-variation-settings:normal;opacity:1;vector-effect:none;fill:none;fill-opacity:1;stroke:#c86487;stroke-width:1px;stroke-linecap:butt;stroke-linejoin:miter;stroke-miterlimit:4;stroke-dasharray:none;stroke-dashoffset:0;stroke-opacity:1;-inkscape-stroke:none;stop-color:#000000;stop-opacity:1"
       d="m 635.6086,862.78571 c -14.82066,-33.63043 -23.60966,-69.90843 -25.82406,-106.59296 -3.52377,-58.37606 9.4301,-116.32409 15.20954,-174.52013 3.98473,-40.12425 4.69842,-81.24352 18.25027,-119.21958 8.13878,-22.80712 20.72712,-43.87646 28.17876,-66.91723 3.24028,-10.01909 5.6744,-20.71888 12.41782,-28.8064 3.74466,-4.49105 8.67145,-7.96448 11.94664,-12.80857 3.87356,-5.72909 5.06248,-12.78397 6.87884,-19.45688 5.20677,-19.12854 16.13459,-36.37946 20.77403,-55.65347 2.07397,-8.61607 2.86395,-17.54057 5.56594,-25.98079 4.04724,-12.64239 12.24222,-23.75062 15.45164,-36.63122 2.77258,-11.12741 1.63535,-22.83294 -0.0706,-34.17297 -0.65357,-4.34447 -1.3894,-8.68983 -1.55982,-13.07987 -0.17042,-4.39005 0.24295,-8.86131 1.82046,-12.96168 2.21989,-5.77008 6.60661,-10.46335 11.43827,-14.32039 4.83166,-3.85704 10.1791,-7.01812 15.12706,-10.72479 11.29026,-8.45788 20.60712,-19.81472 33.38333,-25.79587 6.84069,-3.20245 14.65747,-4.70165 22.04288,-3.11846 4.59658,0.98536 8.98038,3.18864 12.24924,6.5671 2.24186,2.31702 3.91111,5.11409 5.61362,7.85197 21.57213,34.69093 51.25612,63.45713 77.14338,95.05882 1.47242,1.79744 3.00627,3.66324 5.10975,4.65026 2.0523,0.963 4.53136,0.95753 6.58622,0 0.8545,-0.39818 1.64382,-0.95919 2.23137,-1.69642 0.58756,-0.73723 0.96403,-1.65796 0.97193,-2.60065 0.007,-0.8484 -0.28271,-1.6845 -0.74469,-2.39613 -0.46198,-0.71162 -1.09021,-1.3046 -1.78026,-1.79823 -1.3801,-0.98725 -2.99541,-1.58402 -4.48184,-2.40248 -3.24862,-1.78876 -5.80999,-4.59312 -8.13843,-7.47956 -9.33971,-11.57792 -15.84233,-25.1247 -23.34169,-37.97141 -7.49936,-12.84671 -16.39991,-25.41576 -28.97181,-33.36722 -0.64958,-0.41085 -1.31125,-0.81108 -1.88778,-1.31938 -0.57653,-0.5083 -1.07008,-1.13833 -1.29016,-1.87475 -0.19494,-0.65228 -0.16457,-1.36106 0.0293,-2.01367 0.19384,-0.6526 0.54571,-1.25131 0.97609,-1.77879 0.86075,-1.05497 2.0153,-1.81977 3.10288,-2.63893 1.793,-1.35049 3.45315,-2.89692 4.7902,-4.69997 1.33706,-1.80304 2.34554,-3.87144 2.77431,-6.07481 0.43312,-2.22574 0.26028,-4.57214 -0.53538,-6.695444 -0.79567,-2.123304 -2.21685,-4.014365 -4.0607,-5.334103 -1.59531,-1.141842 -3.47642,-1.845927 -5.40304,-2.215987 -1.92662,-0.37006 -3.90302,-0.415814 -5.8627,-0.323724 -3.91935,0.184181 -7.82558,0.914346 -11.74128,0.664276 -5.92363,-0.378304 -11.77596,-3.191552 -15.29285,-7.973182 -1.705,-2.318149 -2.84307,-5.053555 -3.26232,-7.900497 -0.41924,-2.846942 -0.11653,-5.800131 0.89355,-8.494678 1.01008,-2.694548 2.72757,-5.123486 4.94625,-6.956049 2.21868,-1.832564 4.93453,-3.061991 7.77913,-3.496834 2.70085,-0.412868 5.46597,-0.117403 8.14062,0.440532 2.67465,0.557935 5.28778,1.375301 7.94253,2.021312 3.28749,0.799982 6.63868,1.337176 9.89319,2.262209 3.25452,0.925033 6.45541,2.270631 9.01832,4.479487 2.72621,2.349598 4.59039,5.557488 5.93524,8.895784 1.34484,3.338295 2.21451,6.844586 3.27492,10.283822 1.35747,4.402669 3.04501,8.771186 3.37938,13.366228 0.20167,2.771488 -0.0997,5.573748 -0.82794,8.255458 -0.32928,1.21264 -0.74755,2.41478 -0.83836,3.66804 -0.0454,0.62664 -0.007,1.26354 0.16421,1.86809 0.17104,0.60454 0.47851,1.17644 0.92548,1.61797 0.64994,0.64203 1.55704,0.97303 2.46429,1.08035 0.90725,0.10732 1.82515,0.009 2.73185,-0.10288 6.98365,-0.86191 13.87835,-2.53946 20.40874,-5.16019 10.41936,-4.18142 19.73014,-10.671843 29.71676,-15.801633 15.63047,-8.028846 32.75514,-12.648447 49.02904,-19.276732 8.91498,-3.631046 17.57598,-7.866324 26.04088,-12.449683 18.877,-10.220994 36.9711,-22.259524 57.2676,-29.249619 9.6029,-3.307247 19.5981,-5.444103 29.0496,-9.162048 7.6447,-3.007205 14.9866,-7.114928 20.7186,-12.999557 1.5234,-1.5639443 2.9366,-3.2551754 4.673,-4.578583 0.8682,-0.6617038 1.8163,-1.2280095 2.8413,-1.6036126 1.025,-0.3756031 2.1299,-0.5566629 3.2161,-0.448122 1.0352,0.103441 2.036,0.4681364 2.931,0.9984176 0.8951,0.5302811 1.6872,1.2234399 2.3834,1.9964063 1.3926,1.5459329 2.3972,3.3931227 3.4413,5.1928737 3.5325,6.089155 7.6649,11.846881 10.6664,18.214583 4.6307,9.82416 6.3942,20.702874 8.916,31.26686 3.7686,15.787021 9.3058,31.087447 13.9998,46.624479 3.5028,11.59437 6.5369,23.32405 9.7664,34.99751 7.204,26.03984 15.3995,51.87919 20.0773,78.48913 4.2784,24.338 5.5727,49.09143 8.5546,73.62206 3.0949,25.46029 8.0124,50.72063 9.6593,76.3154 0.923,14.34398 0.8141,28.73126 0.8573,43.10484 0.072,23.9805 0.5688,47.97147 2.2579,71.89251 0.6074,8.60159 1.3692,17.23048 0.7956,25.83439 -0.071,1.06559 -0.1656,2.1445 -0.5291,3.1487 -0.4647,1.28401 -1.354,2.38612 -2.411,3.25061 -1.0571,0.86449 -2.2796,1.50518 -3.5324,2.04839 -2.5057,1.08642 -5.2094,1.82985 -7.3982,3.46315 -2.6757,1.99657 -4.2831,5.10583 -5.4686,8.22675 -1.1855,3.12092 -2.0518,6.38678 -3.6786,9.3021 -2.0577,3.68752 -5.2203,6.61701 -8.4003,9.39531 -3.1801,2.77831 -6.4704,5.51455 -8.9009,8.96776 -4.1305,5.86862 -5.399,13.23793 -6.2452,20.36434 -2.9472,24.8192 -2.0872,49.90711 -2.2554,74.90012 -0.4674,69.46203 -8.9469,138.86693 -25.2166,206.39832"
       id="path864"
       inkscape:path-effect="#path-effect866"
       inkscape:original-d="m 635.6086,862.78571 c -8.60702,-35.52999 -17.21504,-71.06097 -25.82406,-106.59296 -8.60902,-35.53199 10.1407,-116.34575 15.20954,-174.52013 5.06885,-58.17437 12.16785,-79.47872 18.25027,-119.21958 6.08242,-39.74086 18.78684,-44.61049 28.17876,-66.91723 9.39193,-22.30674 8.27955,-19.20327 12.41782,-28.8064 4.13827,-9.60314 7.96543,-8.53805 11.94664,-12.80857 3.98122,-4.27052 4.58689,-12.97025 6.87884,-19.45688 2.29194,-6.48663 13.85035,-37.10131 20.77403,-55.65347 6.92367,-18.55216 3.71163,-17.31953 5.56594,-25.98079 1.85432,-8.66126 10.3021,-24.41982 15.45164,-36.63122 5.14955,-12.21141 -0.0461,-22.78098 -0.0706,-34.17297 -0.0245,-11.39199 0.17476,-17.36004 0.26064,-26.04155 0.0859,-8.68152 17.71122,-16.69579 26.56533,-25.04518 8.85411,-8.3494 22.25655,-17.19625 33.38333,-25.79587 11.12677,-8.59962 14.69625,-2.07797 22.04288,-3.11846 7.34663,-1.04049 8.16716,4.37906 12.24924,6.5671 4.08208,2.18803 3.74341,5.23564 5.61362,7.85197 1.87021,2.61632 51.42992,63.37355 77.14338,95.05882 25.71346,31.68527 3.4075,3.10118 5.10975,4.65026 1.70225,1.54909 4.39181,0.001 6.58622,0 2.1944,-0.001 2.13653,-2.86371 3.2033,-4.29707 1.06676,-1.43336 -4.67019,-4.39689 -7.00679,-6.59684 -2.33659,-2.19995 -5.42462,-4.98537 -8.13843,-7.47956 -2.71381,-2.49419 -34.87466,-47.55809 -52.3135,-71.33863 -17.43883,-23.78055 -2.11763,-2.12842 -3.17794,-3.19413 -1.06032,-1.0657 2.73982,-4.2866 4.10823,-6.43139 1.36841,-2.1448 5.044,-7.18219 7.56451,-10.77478 2.5205,-3.59259 -3.06305,-8.018699 -4.59608,-12.029547 -1.53302,-4.010848 -15.33701,-1.24929 -23.00702,-1.875435 -7.67001,-0.626145 -10.19423,-5.314454 -15.29285,-7.973182 -5.09861,-2.658727 6.90541,-17.897705 10.35661,-26.848058 3.4512,-8.950353 10.7231,1.642229 16.08315,2.461844 5.36005,0.819615 12.60867,4.495464 18.91151,6.741696 6.30284,2.246232 6.14111,12.787404 9.21016,19.179606 3.06905,6.392202 2.25392,8.911819 3.37938,13.366228 1.12546,4.454408 -0.55096,5.504638 -0.82794,8.255458 -0.27697,2.75082 0.16855,4.7704 0.25133,7.1541 0.0828,2.3837 3.4651,0.65265 5.19614,0.97747 1.73105,0.32483 13.60683,-3.43912 20.40874,-5.16019 6.80191,-1.72106 19.81217,-10.533421 29.71676,-15.801633 9.90459,-5.268212 32.68702,-12.850155 49.02904,-19.276732 16.34198,-6.426577 17.36158,-8.298789 26.04088,-12.449683 8.6793,-4.150895 38.1794,-19.498746 57.2676,-29.249619 19.0882,-9.750873 19.3674,-6.107032 29.0496,-9.162048 9.6822,-3.055015 13.8134,-8.665371 20.7186,-12.999557 6.9052,-4.3341853 7.1546,-4.4192116 10.7304,-6.6303176 3.5758,-2.2111059 5.8382,5.4594646 8.7557,8.1876976 2.9176,2.728232 7.112,12.144055 10.6664,18.214583 3.5545,6.070528 5.945,20.845573 8.916,31.26686 2.9709,10.421286 9.3342,31.083986 13.9998,46.624479 4.6657,15.54049 6.512,23.33267 9.7664,34.99751 3.2545,11.66483 13.3859,52.32708 20.0773,78.48913 6.6914,26.16204 5.7041,49.08237 8.5546,73.62206 2.8505,24.53969 6.4406,50.87793 9.6593,76.3154 3.2188,25.43747 0.5725,28.73756 0.8573,43.10484 0.2848,14.36728 1.5063,47.92934 2.2579,71.89251 0.7517,23.96316 0.5314,17.22392 0.7956,25.83439 0.2642,8.61046 -0.3517,2.10013 -0.5291,3.1487 -0.1774,1.04857 -8.8934,5.84243 -13.3416,8.76215 -4.4483,2.91971 -6.0971,11.6869 -9.1472,17.52885 -3.05,5.84195 -11.5331,12.24305 -17.3012,18.36307 -5.7681,6.12003 -4.1625,13.57722 -6.2452,20.36434 -2.0828,6.78711 -1.5026,49.93441 -2.2554,74.90012 -0.7528,24.96571 -16.8101,137.59988 -25.2166,206.39832" />
  </g>
</svg>
