<?xml version="1.0" encoding="UTF-8" standalone="no"?>
<!-- Created with Inkscape (http://www.inkscape.org/) -->

<svg
   version="1.1"
   id="svg2"
   width="1893"
   height="1024"
   viewBox="0 0 1893 1024"
   sodipodi:docname="frame_0049.svg"
   inkscape:version="1.1.2 (0a00cf5339, 2022-02-04)"
   xmlns:inkscape="http://www.inkscape.org/namespaces/inkscape"
   xmlns:sodipodi="http://sodipodi.sourceforge.net/DTD/sodipodi-0.dtd"
   xmlns:xlink="http://www.w3.org/1999/xlink"
   xmlns="http://www.w3.org/2000/svg"
   xmlns:svg="http://www.w3.org/2000/svg">
  <defs
     id="defs6">
    <inkscape:path-effect
       effect="spiro"
       id="path-effect899"
       is_visible="true"
       lpeversion="1" />
    <inkscape:path-effect
       effect="spiro"
       id="path-effect862"
       is_visible="true"
       lpeversion="1" />
  </defs>
  <sodipodi:namedview
     id="namedview4"
     pagecolor="#ffffff"
     bordercolor="#666666"
     borderopacity="1.0"
     inkscape:pageshadow="2"
     inkscape:pageopacity="0.0"
     inkscape:pagecheckerboard="0"
     showgrid="false"
     inkscape:zoom="1.8960771"
     inkscape:cx="1173.4755"
     inkscape:cy="650.0263"
     inkscape:window-width="1850"
     inkscape:window-height="1016"
     inkscape:window-x="70"
     inkscape:window-y="27"
     inkscape:window-maximized="1"
     inkscape:current-layer="g8" />
  <g
     inkscape:groupmode="layer"
     inkscape:label="Image"
     id="g8">
    
    <path
       style="font-variation-settings:normal;opacity:1;vector-effect:none;fill:none;fill-opacity:1;stroke:#c86487;stroke-width:1px;stroke-linecap:butt;stroke-linejoin:miter;stroke-miterlimit:4;stroke-dasharray:none;stroke-dashoffset:0;stroke-opacity:1;-inkscape-stroke:none;stop-color:#000000;stop-opacity:1"
       d="M 1160.572,863.1646 635.675,862.56001"
       id="path860"
       inkscape:path-effect="#path-effect862"
       inkscape:original-d="M 1160.572,863.1646 635.675,862.56001" />
    <path
       style="font-variation-settings:normal;opacity:1;vector-effect:none;fill:none;fill-opacity:1;stroke:#c86487;stroke-width:1px;stroke-linecap:butt;stroke-linejoin:miter;stroke-miterlimit:4;stroke-dasharray:none;stroke-dashoffset:0;stroke-opacity:1;-inkscape-stroke:none;stop-color:#000000;stop-opacity:1"
       d="m 635.675,862.56001 c -1.83803,-45.83225 -6.49938,-91.55109 -13.94885,-136.81121 -8.84009,-53.70904 -21.65626,-107.68018 -17.01254,-161.91342 2.39631,-27.98614 9.4104,-55.35122 16.75109,-82.46359 6.67836,-24.6661 13.71571,-49.42558 25.15629,-72.27575 6.10238,-12.18823 13.41778,-23.74849 19.28352,-36.05235 7.13153,-14.95897 12.05049,-30.8709 16.36136,-46.87234 7.4777,-27.75632 13.35159,-56.37462 27.04969,-81.64697 2.11425,-3.90069 4.41351,-7.71776 6.10148,-11.82095 1.68798,-4.10318 2.75327,-8.56569 2.25696,-12.97467 -0.5257,-4.67001 -2.74973,-8.96005 -5.05242,-13.05676 -2.30268,-4.09671 -4.75687,-8.20646 -5.8207,-12.78398 -1.46839,-6.31832 -0.11679,-13.06871 2.79819,-18.86355 2.91499,-5.79484 7.30373,-10.7278 12.05699,-15.14185 13.10563,-12.17035 29.24171,-20.80718 46.21583,-26.44228 5.76877,-1.91513 11.69551,-3.50527 17.76079,-3.90379 6.06528,-0.39852 12.30979,0.44673 17.73335,3.19107 4.44345,2.2484 8.18479,5.68137 11.50305,9.39468 3.31827,3.71332 6.26834,7.74035 9.52869,11.50462 8.10288,9.35525 17.99696,16.95287 27.13203,25.3032 9.13506,8.35033 17.74038,17.79645 22.19176,29.34472 0.61956,1.60733 1.16781,3.27189 2.17016,4.67285 0.50117,0.70047 1.11575,1.32822 1.84783,1.78199 0.73207,0.45376 1.58603,0.72788 2.44718,0.71161 1.01159,-0.0191 2.0001,-0.44427 2.75012,-1.12336 0.75001,-0.67909 1.26476,-1.60115 1.50758,-2.58335 0.24464,-0.98956 0.21974,-2.03643 -0.006,-3.03046 -0.22581,-0.99403 -0.64843,-1.93705 -1.18267,-2.80519 -1.06847,-1.73629 -2.56368,-3.16088 -4.02026,-4.58731 -14.93438,-14.62528 -27.48535,-31.52402 -38.73553,-49.14129 -2.93609,-4.59779 -5.81552,-9.30822 -7.47588,-14.50471 -1.79707,-5.62435 -2.10887,-11.64614 -3.98374,-17.24504 -1.21684,-3.63384 -3.11919,-7.08921 -5.86891,-9.75839 -4.14825,-4.02675 -9.82954,-5.95753 -15.22602,-8.03135 -2.69585,-1.03599 -5.38585,-2.14561 -7.80466,-3.723659 -2.41881,-1.57805 -4.57265,-3.662443 -5.8394,-6.257869 -1.57933,-3.235865 -1.65367,-7.12709 -0.39608,-10.501048 1.25758,-3.373959 3.79006,-6.217323 6.89132,-8.046889 2.71373,-1.600946 5.83745,-2.447358 8.98077,-2.66386 3.14332,-0.216502 6.30917,0.18239 9.36535,0.948624 6.82994,1.712378 13.12451,5.249852 18.54049,9.749571 6.3973,5.31502 11.63778,11.995828 15.38863,19.41917 2.48058,4.90934 4.30889,10.1158 6.2261,15.27131 0.83968,2.25797 1.70504,4.5243 2.96322,6.57869 1.25818,2.05439 2.9443,3.90548 5.08854,5.00355 2.19879,1.12601 4.77946,1.39688 7.21815,1.0027 2.43868,-0.39418 4.74363,-1.42498 6.81882,-2.7652 4.15037,-2.68043 7.37789,-6.53632 11.03052,-9.86327 12.55218,-11.43297 29.55819,-16.22891 45.23207,-22.755743 16.9802,-7.070804 32.88495,-16.474584 49.58015,-24.194288 15.94095,-7.370943 32.78165,-13.308329 46.90525,-23.747183 7.778,-5.748765 14.5514,-12.739416 22.0773,-18.814389 7.526,-6.074973 16.1076,-11.339465 25.6763,-12.748371 2.1066,-0.310181 4.2497,-0.42932 6.368,-0.213067 6.6429,0.678157 12.6254,4.656559 16.92,9.769761 4.2946,5.113201 7.0916,11.304396 9.4684,17.544533 3.7938,9.960347 6.65,20.248632 10.021,30.359908 7.2811,21.839689 16.9636,42.852549 23.4998,64.926629 6.2038,20.95167 9.507,42.63261 14.1502,63.98445 7.4009,34.03334 18.2238,67.30088 24.3385,101.58866 9.0872,50.95601 7.6174,103.21551 14.1619,154.56005 2.2988,18.03488 5.5906,36.24932 3.2293,54.27612 -0.2836,2.16519 -0.6512,4.33123 -1.3578,6.39741 -0.7067,2.06618 -1.7676,4.03968 -3.2996,5.59573 -1.5975,1.62254 -3.6371,2.7294 -5.6837,3.72753 -2.0466,0.99813 -4.1497,1.92166 -5.9903,3.26213 -2.8986,2.11095 -5.0048,5.1668 -6.4814,8.43445 -1.4765,3.26765 -2.3662,6.76484 -3.2118,10.24947 -7.6829,31.65927 -12.3254,63.98931 -15.6116,96.4013 -7.3332,72.32793 -7.9491,145.3355 -1.8371,217.77685"
       id="path897"
       inkscape:path-effect="#path-effect899"
       inkscape:original-d="m 635.675,862.56001 c -4.64862,-45.60274 -9.29823,-91.20647 -13.94885,-136.81121 -4.65061,-45.60473 -11.34069,-107.94128 -17.01254,-161.91342 -5.67184,-53.97215 11.16839,-54.97473 16.75109,-82.46359 5.58269,-27.48886 16.77186,-48.18283 25.15629,-72.27575 8.38443,-24.09292 12.85668,-24.0339 19.28352,-36.05235 6.42685,-12.01845 10.90858,-31.24722 16.36136,-46.87234 5.45279,-15.62511 18.03413,-54.43031 27.04969,-81.64697 9.01557,-27.21666 5.57329,-16.52941 8.35844,-24.79562 2.78514,-8.2662 -7.24775,-17.22616 -10.87312,-25.84074 -3.62537,-8.61458 9.90445,-22.66927 14.85518,-34.0054 4.95072,-11.33613 30.81155,-17.62718 46.21583,-26.44228 15.40428,-8.81509 23.66376,-0.47415 35.49414,-0.71272 11.83038,-0.23858 14.02216,13.93386 21.03174,20.8993 7.00958,6.96543 32.88352,36.43295 49.32379,54.64792 16.44026,18.21498 4.31111,4.77863 6.46517,7.16645 2.15406,2.38781 2.83946,-2.47014 4.2577,-3.70671 1.41823,-1.23656 -3.47166,-6.94764 -5.20899,-10.42296 -1.73732,-3.47532 -25.82268,-32.75986 -38.73553,-49.14129 -12.91284,-16.38143 -4.98292,-9.66881 -7.47588,-14.50471 -2.49296,-4.83591 -2.65483,-11.4957 -3.98374,-17.24504 -1.32892,-5.74935 -3.91161,-6.50459 -5.86891,-9.75839 -1.9573,-3.25379 -10.14968,-5.35323 -15.22602,-8.03135 -5.07634,-2.67812 -9.09504,-6.653353 -13.64406,-9.981528 -4.54901,-3.328175 4.33116,-12.364291 6.49524,-18.547937 2.16408,-6.183646 12.23175,-1.142491 18.34612,-1.715236 6.11437,-0.572746 12.36133,6.500714 18.54049,9.749571 6.17917,3.248857 10.26009,12.947116 15.38863,19.41917 5.12854,6.47206 4.15173,10.18188 6.2261,15.27131 2.07436,5.08944 5.36884,7.7225 8.05176,11.58224 2.68292,3.85975 16.71266,-7.74952 25.06749,-11.62577 8.35482,-3.87626 30.15571,-15.1695 45.23207,-22.755743 15.07636,-7.586246 33.05444,-16.128525 49.58015,-24.194288 16.52575,-8.065763 31.27115,-15.830455 46.90525,-23.747183 15.6341,-7.916727 31.8367,-21.04084 47.7536,-31.56276 15.9169,-10.5219202 4.2464,-0.141045 6.368,-0.213067 2.1217,-0.07202 17.5933,18.210529 26.3884,27.314294 8.7951,9.103765 6.6817,20.240939 10.021,30.359908 3.3394,10.11897 15.6675,43.285419 23.4998,64.926629 7.8322,21.64121 9.4344,42.6573 14.1502,63.98445 4.7157,21.32715 16.2267,67.72678 24.3385,101.58866 8.1119,33.86189 9.4423,103.04103 14.1619,154.56005 4.7197,51.51901 2.1539,36.18508 3.2293,54.27612 1.0755,18.09104 -3.1039,7.99643 -4.6574,11.99314 -1.5534,3.99672 -7.7817,4.66078 -11.674,6.98966 -3.8924,2.32889 -6.4611,12.45695 -9.6932,18.68392 -3.2321,6.22697 -10.4067,64.26853 -15.6116,96.4013 -5.2048,32.13277 -1.2237,145.18557 -1.8371,217.77685" />
  </g>
</svg>
