<?xml version="1.0" encoding="UTF-8" standalone="no"?>
<!-- Created with Inkscape (http://www.inkscape.org/) -->

<svg
   version="1.1"
   id="svg2"
   width="1893"
   height="1024"
   viewBox="0 0 1893 1024"
   sodipodi:docname="frame_0158.svg"
   inkscape:version="1.1.2 (0a00cf5339, 2022-02-04)"
   xmlns:inkscape="http://www.inkscape.org/namespaces/inkscape"
   xmlns:sodipodi="http://sodipodi.sourceforge.net/DTD/sodipodi-0.dtd"
   xmlns:xlink="http://www.w3.org/1999/xlink"
   xmlns="http://www.w3.org/2000/svg"
   xmlns:svg="http://www.w3.org/2000/svg">
  <defs
     id="defs6">
    <inkscape:path-effect
       effect="spiro"
       id="path-effect899"
       is_visible="true"
       lpeversion="1" />
    <inkscape:path-effect
       effect="spiro"
       id="path-effect862"
       is_visible="true"
       lpeversion="1" />
  </defs>
  <sodipodi:namedview
     id="namedview4"
     pagecolor="#ffffff"
     bordercolor="#666666"
     borderopacity="1.0"
     inkscape:pageshadow="2"
     inkscape:pageopacity="0.0"
     inkscape:pagecheckerboard="0"
     showgrid="false"
     inkscape:zoom="0.94803857"
     inkscape:cx="1004.1786"
     inkscape:cy="451.98583"
     inkscape:window-width="1850"
     inkscape:window-height="1016"
     inkscape:window-x="70"
     inkscape:window-y="27"
     inkscape:window-maximized="1"
     inkscape:current-layer="g8" />
  <g
     inkscape:groupmode="layer"
     inkscape:label="Image"
     id="g8">
    
    <path
       style="font-variation-settings:normal;opacity:1;vector-effect:none;fill:none;fill-opacity:1;stroke:#c86487;stroke-width:1px;stroke-linecap:butt;stroke-linejoin:miter;stroke-miterlimit:4;stroke-dasharray:none;stroke-dashoffset:0;stroke-opacity:1;-inkscape-stroke:none;stop-color:#000000;stop-opacity:1"
       d="M 1160.7664,862.64344 H 635.59232"
       id="path860"
       inkscape:path-effect="#path-effect862"
       inkscape:original-d="M 1160.7664,862.64344 H 635.59232" />
    <path
       style="font-variation-settings:normal;opacity:1;vector-effect:none;fill:none;fill-opacity:1;stroke:#c86487;stroke-width:1px;stroke-linecap:butt;stroke-linejoin:miter;stroke-miterlimit:4;stroke-dasharray:none;stroke-dashoffset:0;stroke-opacity:1;-inkscape-stroke:none;stop-color:#000000;stop-opacity:1"
       d="m 635.59232,862.64344 c -4.62583,-43.34023 -7.59819,-86.85691 -8.90844,-130.4236 -1.51654,-50.42614 -0.8004,-101.00924 4.86445,-151.13912 3.40262,-30.11071 8.58176,-59.98743 13.42463,-89.90029 4.65496,-28.75218 9.1464,-58.03419 21.72184,-84.30613 9.487,-19.81975 23.30475,-37.31439 32.89412,-57.08482 3.43459,-7.0811 6.31234,-14.42812 8.69722,-21.92817 7.70748,-24.23869 10.34018,-50.22136 21.5509,-73.05202 3.68159,-7.49757 8.23655,-14.5344 12.06783,-21.9566 3.83127,-7.4222 6.96938,-15.38368 7.50164,-23.71941 0.4397,-6.88612 -0.91134,-13.74556 -2.20569,-20.52321 -1.29435,-6.77765 -2.54393,-13.66996 -1.90049,-20.54003 0.67571,-7.21459 3.44729,-14.14721 7.44008,-20.19407 3.9928,-6.04686 9.17976,-11.2413 14.85753,-15.7435 14.77166,-11.71323 32.81927,-18.78162 51.27554,-22.62453 5.48541,-1.14216 11.08459,-2.01668 16.67521,-1.64373 5.59063,0.37295 11.2177,2.07663 15.55644,5.62199 5.28288,4.31685 8.14274,10.83336 11.13913,16.96245 7.64932,15.64659 17.33125,30.2654 28.37107,43.73575 9.96642,12.16064 21.05989,23.42566 30.11557,36.27888 0.74006,1.05041 1.50778,2.14905 2.63791,2.76049 0.81144,0.43901 1.76468,0.59006 2.68144,0.48659 0.91677,-0.10346 1.79699,-0.45384 2.57149,-0.95516 0.99547,-0.64435 1.83939,-1.56497 2.24486,-2.6793 0.20274,-0.55717 0.29329,-1.15724 0.2428,-1.74799 -0.0505,-0.59075 -0.24386,-1.17134 -0.57531,-1.66295 -0.33255,-0.49323 -0.79162,-0.88478 -1.2366,-1.27957 -7.52302,-6.67462 -12.34463,-15.77874 -18.06542,-24.05032 -8.00543,-11.57489 -17.92117,-21.68507 -26.68156,-32.69963 -8.49102,-10.67587 -15.89044,-22.19804 -22.39839,-34.1863 -0.50149,-0.92379 -1.00658,-1.87719 -1.13892,-2.91996 -0.117,-0.92191 0.0683,-1.86408 0.414,-2.7267 0.34567,-0.86262 0.84707,-1.65388 1.38011,-2.41511 1.06608,-1.52246 2.3002,-3.00852 2.73758,-4.81493 0.45357,-1.873261 -0.0322,-3.891418 -1.02887,-5.541096 -0.9967,-1.649679 -2.46722,-2.9661 -4.04695,-4.070306 -4.42032,-3.089725 -9.86461,-4.662503 -15.25513,-4.495504 -2.54477,0.07884 -5.06207,0.531164 -7.59774,0.760214 -2.53566,0.229049 -5.14525,0.22622 -7.56108,-0.577396 -2.98667,-0.993503 -5.52044,-3.210622 -7.02319,-5.976301 -1.50276,-2.765679 -1.98778,-6.046047 -1.48683,-9.153505 0.50095,-3.107459 1.96499,-6.033318 4.04761,-8.393391 2.08262,-2.360073 4.76895,-4.160738 7.69322,-5.325158 4.62051,-1.839846 9.76757,-2.090361 14.684,-1.340081 4.91642,0.75028 9.63705,2.462719 14.19787,4.445924 10.43215,4.536267 20.60819,10.930106 26.40087,20.720525 2.05007,3.464904 3.4868,7.249592 5.1002,10.938131 0.83259,1.903459 1.71665,3.791658 2.33272,5.775801 0.61606,1.984143 0.95899,4.087193 0.6774,6.145603 -0.20012,1.46287 -0.70926,2.86681 -0.96366,4.32122 -0.1272,0.72721 -0.19023,1.47018 -0.11648,2.20473 0.0738,0.73456 0.28846,1.46235 0.68551,2.08474 0.48862,0.76594 1.24168,1.34729 2.08255,1.69132 0.84087,0.34403 1.76598,0.45809 2.67261,0.39942 1.81326,-0.11734 3.51202,-0.90055 5.11888,-1.74889 5.77464,-3.04872 10.95972,-7.08271 16.41782,-10.66744 8.82189,-5.793969 18.36603,-10.417164 28.11338,-14.464993 15.7169,-6.526834 32.00006,-11.587372 47.88985,-17.681228 12.04405,-4.619003 23.85465,-9.828906 35.53175,-15.309809 10.2386,-4.80568 20.3786,-9.821393 30.4064,-15.052714 13.2188,-6.896021 26.2398,-14.16532 39.4437,-21.08975 6.5743,-3.447695 13.2025,-6.813866 20.0696,-9.633602 4.9141,-2.0178014 10.1981,-3.7802415 15.4503,-2.9838091 2.8551,0.4329474 5.5714,1.6194936 7.9396,3.2720971 2.3681,1.652603 4.3966,3.76294 6.1086,6.088483 3.5998,4.889878 5.7852,10.657758 7.7691,16.396576 5.1022,14.759332 9.1586,29.858934 14.014,44.701283 5.3878,16.469791 11.7582,32.618566 16.6402,49.245316 7.1137,24.22729 11.0092,49.2647 14.7797,74.23168 4.6552,30.82508 9.1499,61.68165 14.7464,92.34979 4.6061,25.24049 9.9715,50.46157 11.1741,76.09069 0.7727,16.46728 -0.182,32.96818 0.1662,49.4499 0.4443,21.02992 3.0088,42.05039 1.7657,63.04824 -0.3688,6.22966 -1.0719,12.43399 -1.6367,18.64895 -0.155,1.70532 -0.3004,3.41738 -0.6693,5.08952 -0.3689,1.67213 -0.9712,3.31465 -1.9677,4.70718 -1.1803,1.64942 -2.8743,2.88645 -4.7152,3.73788 -1.8409,0.85143 -3.831,1.33599 -5.8301,1.67801 -3.9984,0.68405 -8.1548,0.83579 -11.8911,2.41544 -3.0419,1.28607 -5.651,3.47347 -7.7222,6.04591 -2.0711,2.57243 -3.6275,5.525 -4.9056,8.57024 -6.337,15.09928 -5.8732,32.06861 -5.2042,48.4301 0.9677,23.66638 2.1479,47.33413 2.1523,71.02028 0.013,70.99882 -10.618,141.99036 -31.4286,209.87078"
       id="path897"
       inkscape:path-effect="#path-effect899"
       inkscape:original-d="m 635.59232,862.64344 c -2.96848,-43.47353 -5.93796,-86.94807 -8.90844,-130.4236 -2.97048,-43.47553 3.24397,-100.75841 4.86445,-151.13912 1.62049,-50.3807 8.95076,-59.93253 13.42463,-89.90029 4.47388,-29.96777 14.48223,-56.20309 21.72184,-84.30613 7.23961,-28.10304 21.93041,-38.05554 32.89412,-57.08482 10.9637,-19.02927 5.79914,-14.61778 8.69722,-21.92817 2.89807,-7.31039 14.36827,-48.70035 21.5509,-73.05202 7.18264,-24.35168 13.04732,-30.44967 19.56947,-45.67601 6.52216,-15.22633 -2.73645,-27.37449 -4.10618,-41.06324 -1.36973,-13.68874 14.86607,-23.95738 22.29761,-35.93757 7.43153,-11.98019 34.18469,-15.08202 51.27554,-22.62453 17.09084,-7.54251 21.48877,2.65317 32.23165,3.97826 10.74289,1.32509 7.42709,11.3093 11.13913,16.96245 3.71204,5.65315 18.91505,29.15816 28.37107,43.73575 9.45603,14.57758 20.07805,24.18692 30.11557,36.27888 10.03753,12.09196 1.7596,1.84133 2.63791,2.76049 0.8783,0.91916 3.50295,-0.31138 5.25293,-0.46857 1.74997,-0.15719 1.2759,-4.05916 1.91235,-6.09024 0.63645,-2.03108 -0.8234,-0.85204 -1.2366,-1.27957 -0.4132,-0.42752 -12.04262,-16.03255 -18.06542,-24.05032 -6.02281,-8.01778 -17.78671,-21.79875 -26.68156,-32.69963 -8.89485,-10.90087 -14.93126,-22.78987 -22.39839,-34.1863 -7.46713,-11.39643 -0.75828,-1.94564 -1.13892,-2.91996 -0.38064,-0.97432 3.02213,-6.63682 4.53169,-9.95674 1.50956,-3.319909 -3.38288,-6.4066 -5.07582,-9.611402 -1.69294,-3.204802 -10.16908,-2.996003 -15.25513,-4.495504 -5.08604,-1.499501 -10.10488,0.122879 -15.15882,0.182818 -5.05394,0.05994 2.15488,-19.231236 3.23081,-28.848355 1.07594,-9.617118 19.25558,2.071562 28.88187,3.105843 9.62629,1.034281 17.60158,13.814683 26.40087,20.720525 8.79929,6.905842 3.40113,7.293088 5.1002,10.938131 1.69907,3.645044 2.00775,7.948604 3.01012,11.921404 1.00237,3.97281 -0.26208,5.74146 -0.39463,8.61069 -0.13254,2.86923 6.58369,0.2289 9.87404,0.34185 3.29034,0.11295 10.94622,-7.11063 16.41782,-10.66744 5.47161,-3.55682 18.74325,-9.64233 28.11338,-14.464993 9.37012,-4.822663 31.92757,-11.786485 47.88985,-17.681228 15.96225,-5.894742 23.68885,-10.205539 35.53175,-15.309809 11.8429,-5.10427 20.2719,-10.034143 30.4064,-15.052714 10.1345,-5.018572 26.2968,-14.058834 39.4437,-21.08975 13.1469,-7.030917 13.3807,-6.421402 20.0696,-9.633602 6.6889,-3.2122009 10.3012,-1.9882061 15.4503,-2.9838091 5.1491,-0.9956029 9.3665,6.2413871 14.0482,9.3605801 4.6817,3.119194 5.1804,10.932051 7.7691,16.396576 2.5887,5.464525 9.3436,29.801855 14.014,44.701283 4.6703,14.899427 11.0944,32.831216 16.6402,49.245316 5.5457,16.41411 9.8541,49.48879 14.7797,74.23168 4.9255,24.7429 9.8319,61.56753 14.7464,92.34979 4.9145,30.78227 7.4504,50.72813 11.1741,76.09069 3.7237,25.36256 0.1118,32.9676 0.1662,49.4499 0.054,16.4823 1.1781,42.03316 1.7657,63.04824 0.5876,21.01508 -1.0901,12.43364 -1.6367,18.64895 -0.5466,6.21532 -1.757,6.53213 -2.637,9.7967 -0.88,3.26456 -14.9566,5.22189 -22.4364,7.83133 -7.4797,2.60945 -8.4176,9.7451 -12.6278,14.61615 -4.2103,4.87105 -3.4685,32.28773 -5.2042,48.4301 -1.7357,16.14236 1.4359,47.34785 2.1523,71.02028 0.7164,23.67242 -20.9514,139.91485 -31.4286,209.87078" />
  </g>
</svg>
