<?xml version="1.0" encoding="UTF-8" standalone="no"?>
<!-- Created with Inkscape (http://www.inkscape.org/) -->

<svg
   version="1.1"
   id="svg2"
   width="1893"
   height="1024"
   viewBox="0 0 1893 1024"
   sodipodi:docname="frame_0018.svg"
   inkscape:version="1.1.2 (0a00cf5339, 2022-02-04)"
   xmlns:inkscape="http://www.inkscape.org/namespaces/inkscape"
   xmlns:sodipodi="http://sodipodi.sourceforge.net/DTD/sodipodi-0.dtd"
   xmlns:xlink="http://www.w3.org/1999/xlink"
   xmlns="http://www.w3.org/2000/svg"
   xmlns:svg="http://www.w3.org/2000/svg">
  <defs
     id="defs6">
    <inkscape:path-effect
       effect="spiro"
       id="path-effect899"
       is_visible="true"
       lpeversion="1" />
    <inkscape:path-effect
       effect="spiro"
       id="path-effect862"
       is_visible="true"
       lpeversion="1" />
  </defs>
  <sodipodi:namedview
     id="namedview4"
     pagecolor="#ffffff"
     bordercolor="#666666"
     borderopacity="1.0"
     inkscape:pageshadow="2"
     inkscape:pageopacity="0.0"
     inkscape:pagecheckerboard="0"
     showgrid="false"
     inkscape:zoom="5.362916"
     inkscape:cx="871.72725"
     inkscape:cy="164.92893"
     inkscape:window-width="1850"
     inkscape:window-height="1016"
     inkscape:window-x="70"
     inkscape:window-y="27"
     inkscape:window-maximized="1"
     inkscape:current-layer="g8" />
  <g
     inkscape:groupmode="layer"
     inkscape:label="Image"
     id="g8">
    
    <path
       style="font-variation-settings:normal;opacity:1;vector-effect:none;fill:none;fill-opacity:1;stroke:#c86487;stroke-width:1px;stroke-linecap:butt;stroke-linejoin:miter;stroke-miterlimit:4;stroke-dasharray:none;stroke-dashoffset:0;stroke-opacity:1;-inkscape-stroke:none;stop-color:#000000;stop-opacity:1"
       d="m 1160.8539,862.19426 -525.05143,0.51462"
       id="path860"
       inkscape:path-effect="#path-effect862"
       inkscape:original-d="m 1160.8539,862.19426 -525.05143,0.51462" />
    <path
       style="font-variation-settings:normal;opacity:1;vector-effect:none;fill:none;fill-opacity:1;stroke:#c86487;stroke-width:1px;stroke-linecap:butt;stroke-linejoin:miter;stroke-miterlimit:4;stroke-dasharray:none;stroke-dashoffset:0;stroke-opacity:1;-inkscape-stroke:none;stop-color:#000000;stop-opacity:1"
       d="m 635.80247,862.70888 c -40.5782,-67.66781 -60.63878,-147.45938 -56.88761,-226.27214 2.16577,-45.50314 12.04494,-90.35683 25.24413,-133.95738 11.00478,-36.3518 24.32272,-71.96005 35.95523,-108.11587 14.10068,-43.82731 25.7898,-88.63189 44.96727,-130.48744 1.56384,-3.41314 3.1934,-6.83233 5.46877,-9.81861 0.71261,-0.93525 1.48597,-1.82437 2.16459,-2.78457 0.67861,-0.9602 1.26627,-2.004 1.55499,-3.1438 0.33132,-1.30794 0.25472,-2.69323 -0.0344,-4.01114 -0.2891,-1.31791 -0.78449,-2.58046 -1.29156,-3.8308 -1.14086,-2.81311 -2.35201,-5.59948 -3.71125,-8.31381 -2.14892,-4.2913 -4.66535,-8.39755 -6.64795,-12.76818 -1.9826,-4.37063 -3.43445,-9.09183 -3.27928,-13.8886 0.0584,-1.80433 0.34341,-3.59546 0.7353,-5.35768 2.27389,-10.22514 8.19632,-19.47503 16.01465,-26.44624 6.3107,-5.62693 13.75368,-9.79537 20.81944,-14.43889 7.90646,-5.19602 15.42781,-11.04692 23.87086,-15.31606 8.44305,-4.26913 18.11009,-6.90035 27.39511,-5.08402 5.69887,1.11481 10.99151,3.85949 15.62126,7.36452 4.62976,3.50504 8.63852,7.76134 12.40819,12.1783 2.23362,2.61715 4.39146,5.29785 6.54959,7.97759 15.77493,19.58766 31.88111,39.42679 52.54475,53.76342 0.33399,0.23173 0.67547,0.46512 1.06313,0.58748 0.39067,0.12332 0.81251,0.1272 1.21585,0.0555 0.40335,-0.0717 0.79036,-0.21673 1.16325,-0.38638 0.68056,-0.30962 1.32904,-0.70913 1.84881,-1.2466 0.51978,-0.53747 0.90563,-1.22131 1.00883,-1.96184 0.076,-0.5452 -0.003,-1.10622 -0.18734,-1.62475 -0.18475,-0.51854 -0.47331,-0.99616 -0.81463,-1.42803 -0.68265,-0.86374 -1.56658,-1.54119 -2.40046,-2.26 -4.67844,-4.03284 -7.87914,-9.46831 -11.04571,-14.77156 -19.26007,-32.25602 -40.87834,-63.96057 -70.44257,-87.14154 -1.54733,-1.21325 -3.12253,-2.40875 -4.46196,-3.84825 -1.33942,-1.43949 -2.44536,-3.15452 -2.86519,-5.07544 -0.51947,-2.376832 0.0664,-4.916908 1.31843,-7.002946 1.25206,-2.086039 3.1285,-3.745831 5.19945,-5.022688 3.15301,-1.944008 6.80406,-3.053693 10.50162,-3.274304 3.69756,-0.220612 7.43588,0.44091 10.865,1.841543 5.95314,2.431577 10.82953,6.992965 14.70857,12.121848 4.21127,5.568147 7.37262,11.840727 10.83424,17.903427 1.96372,3.43927 4.06115,6.85994 6.89399,9.62758 2.83284,2.76763 6.50269,4.85594 10.45639,5.08621 3.55955,0.20731 7.06301,-1.09528 10.12072,-2.92935 3.05771,-1.83407 5.75989,-4.19297 8.59094,-6.36058 14.58332,-11.1658 32.35691,-17.12016 49.32732,-24.14535 11.56584,-4.787878 22.88689,-10.144337 34.36214,-15.145446 14.18916,-6.183878 28.80078,-11.929807 41.1282,-21.289688 10.90976,-8.283489 19.61271,-19.089022 29.72961,-28.324161 5.0584,-4.617569 10.5075,-8.865604 16.5647,-12.062618 6.0571,-3.197015 12.7574,-5.322016 19.603,-5.539754 7.9574,-0.253102 16.1548,2.245691 21.9761,7.676887 3.4349,3.204757 5.9429,7.296243 7.8502,11.589433 1.9072,4.29319 3.2466,8.811931 4.6331,13.300452 21.6346,70.038855 55.9407,136.002285 72.881,207.322145 13.8247,58.20312 15.7297,118.51296 24.8183,177.641 2.0013,13.01991 4.3576,26.04909 4.5434,39.2206 0.1858,13.17151 -1.922,26.66029 -8.3341,38.16719 -5.7445,10.30884 -14.7408,18.71069 -19.2824,29.60312 -2.7887,6.68827 -3.7503,14.0084 -3.9405,21.25225 -0.1903,7.24385 0.3632,14.48517 0.4758,21.73065 0.2915,18.75412 -2.3675,37.40887 -4.3208,56.06327 -7.7529,74.04228 -4.369,149.24081 10.0029,222.28747"
       id="path897"
       inkscape:path-effect="#path-effect899"
       inkscape:original-d="M 635.80247,862.70888 C 616.84093,787.28583 597.8784,711.86179 578.91486,636.43674 c -18.96353,-75.42504 16.83042,-89.30392 25.24413,-133.95738 8.41371,-44.65346 23.97115,-72.07625 35.95523,-108.11587 11.98407,-36.03963 29.97918,-86.99063 44.96727,-130.48744 14.98809,-43.49681 3.64685,-6.54474 5.46877,-9.81861 1.82192,-3.27387 2.48072,-3.95124 3.71958,-5.92837 1.23887,-1.97712 -0.88296,-5.22696 -1.32594,-7.84194 -0.44298,-2.61498 -2.47317,-5.54154 -3.71125,-8.31381 -1.23809,-2.77228 -6.61716,-17.77019 -9.92723,-26.65678 -3.31008,-8.8866 0.4912,-3.57079 0.7353,-5.35768 0.24411,-1.7869 10.67743,-17.62982 16.01465,-26.44624 5.33721,-8.81641 13.88062,-9.62492 20.81944,-14.43889 6.93881,-4.81396 34.17831,-13.59905 51.26597,-20.40008 17.08766,-6.80103 18.6873,13.02955 28.02945,19.54282 9.34214,6.51328 4.36739,5.31939 6.54959,7.97759 2.18219,2.65819 35.03083,35.84328 52.54475,53.76342 17.51392,17.92014 0.70975,0.39265 1.06313,0.58748 0.35338,0.19483 1.58706,-0.21958 2.3791,-0.33088 0.79203,-0.11129 1.9061,-2.13796 2.85764,-3.20844 0.95155,-1.07048 -2.26728,-3.54085 -3.40243,-5.31278 -1.13514,-1.77193 -7.36281,-9.84671 -11.04571,-14.77156 -3.68291,-4.92485 -46.96072,-58.09336 -70.44257,-87.14154 -23.48186,-29.048182 -4.88376,-5.94813 -7.32715,-8.92369 -2.44338,-2.975563 4.34626,-8.016089 6.51788,-12.025634 2.17163,-4.009544 14.24542,-0.954174 21.36662,-1.432761 7.12121,-0.478587 9.80671,8.082232 14.70857,12.121848 4.90185,4.039617 5.35344,12.527477 10.83424,17.903427 5.4808,5.37595 11.56792,9.81019 17.35038,14.71379 5.78246,4.90359 14.34582,-6.78315 18.71166,-9.28993 4.36583,-2.50678 32.88588,-16.0959 49.32732,-24.14535 16.44144,-8.049452 22.90909,-10.095964 34.36214,-15.145446 11.45305,-5.049482 27.4198,-14.192125 41.1282,-21.289688 13.7084,-7.097562 43.93251,-30.616689 65.89731,-45.926533 21.9648,-15.3098445 14.6517,5.118925 21.9761,7.676887 7.3243,2.557963 8.3232,16.594257 12.4833,24.889885 4.1602,8.295628 57.29,144.824385 72.881,207.322145 80.6966,323.47771 12.9926,92.34385 24.8183,177.641 11.8257,85.29715 -1.2414,69.10212 -3.7907,77.38779 -2.5492,8.28568 -12.8539,19.73642 -19.2824,29.60312 -6.4285,9.86671 -2.3088,28.65627 -3.4647,42.9829 -1.1559,14.32663 -2.8795,37.37651 -4.3208,56.06327 -1.4413,18.68675 6.6696,148.19265 10.0029,222.28747"
       sodipodi:nodetypes="csssssssssssssssssssssssssssssssssssssssssc" />
  </g>
</svg>
