<?xml version="1.0" encoding="UTF-8" standalone="no"?>
<!-- Created with Inkscape (http://www.inkscape.org/) -->

<svg
   version="1.1"
   id="svg2"
   width="1893"
   height="1024"
   viewBox="0 0 1893 1024"
   sodipodi:docname="frame_0002.svg"
   inkscape:version="1.1.2 (0a00cf5339, 2022-02-04)"
   xmlns:inkscape="http://www.inkscape.org/namespaces/inkscape"
   xmlns:sodipodi="http://sodipodi.sourceforge.net/DTD/sodipodi-0.dtd"
   xmlns:xlink="http://www.w3.org/1999/xlink"
   xmlns="http://www.w3.org/2000/svg"
   xmlns:svg="http://www.w3.org/2000/svg">
  <sodipodi:namedview
     id="namedview8"
     pagecolor="#ffffff"
     bordercolor="#666666"
     borderopacity="1.0"
     inkscape:pageshadow="2"
     inkscape:pageopacity="0.0"
     inkscape:pagecheckerboard="0"
     showgrid="false"
     inkscape:zoom="10.649762"
     inkscape:cx="1129.7905"
     inkscape:cy="865.41838"
     inkscape:window-width="1850"
     inkscape:window-height="1016"
     inkscape:window-x="70"
     inkscape:window-y="27"
     inkscape:window-maximized="1"
     inkscape:current-layer="g8" />
  <defs
     id="defs6" />
  <g
     id="g8">
    
    <path
       style="fill:none;stroke:#c86487;stroke-width:1px;stroke-linecap:butt;stroke-linejoin:miter;stroke-opacity:1"
       d="m 1160.7412,861.6148 -525.1195,1.2881"
       id="path893"
       sodipodi:nodetypes="cc" />
    <path
       style="fill:none;stroke:#c86487;stroke-width:1px;stroke-linecap:butt;stroke-linejoin:miter;stroke-opacity:1"
       d="m 635.6217,862.9029 c -10.19996,-31.31397 -49.04716,-62.4352 -49.28798,-95.36764 -0.47403,-64.82461 0.81121,-135.30559 8.43908,-199.6816 3.80906,-32.14688 4.8004,-64.81069 12.88704,-96.15614 7.58744,-29.41046 21.21168,-56.83876 32.57356,-85.00704 5.82744,-14.44736 11.08694,-29.17673 14.45116,-44.38749 2.29236,-10.36449 3.69781,-20.92105 6.33663,-31.20279 2.82165,-10.9941 7.18671,-21.8521 14.70044,-30.3595 2.71337,-3.07221 5.80145,-5.79775 8.49677,-8.8858 2.69533,-3.08805 5.03301,-6.64056 5.85454,-10.65627 0.97335,-4.75782 -0.26754,-9.6962 -2.02726,-14.22252 -1.75973,-4.52632 -4.04966,-8.86448 -5.30811,-13.55495 -0.86039,-3.20684 -1.2228,-6.52243 -1.7948,-9.79304 -0.572,-3.27061 -1.37541,-6.55538 -3.02673,-9.43587 -0.93969,-1.63915 -2.13528,-3.11438 -3.21851,-4.66243 -1.08322,-1.54804 -2.07034,-3.20597 -2.51373,-5.0426 -0.42297,-1.75207 -0.32904,-3.60901 0.14171,-5.34886 0.47074,-1.73984 1.30923,-3.36687 2.34522,-4.84179 2.07197,-2.94985 4.89381,-5.27273 7.60071,-7.65336 5.69534,-5.00886 11.02374,-10.42826 16.03688,-16.11984 4.59744,-5.21962 9.03794,-10.76369 14.92481,-14.46851 4.45776,-2.80543 9.54657,-4.42385 14.6126,-5.86517 5.06603,-1.44131 10.20839,-2.74742 14.96233,-5.01504 3.43621,-1.63907 6.63596,-3.76585 10.16143,-5.20291 1.76273,-0.71853 3.60843,-1.26189 5.50231,-1.45361 1.89387,-0.19172 3.84065,-0.0232 5.62437,0.64158 2.71538,1.01193 4.90346,3.10875 6.61992,5.4435 1.71646,2.33474 3.0304,4.93535 4.53969,7.40908 3.45091,5.65602 7.91602,10.63344 12.69789,15.21962 4.98043,4.77662 10.32327,9.15887 15.72183,13.45727 4.4345,3.5308 8.92683,7.02307 12.87062,11.09466 3.50774,3.6214 6.54625,7.6651 9.54141,11.72069 2.05957,2.78876 4.1151,5.60242 6.5821,8.03817 2.46701,2.43576 5.38866,4.49881 8.71097,5.48939 2.1925,0.65372 4.52438,0.82531 6.79278,0.5274 0.86007,-0.11295 1.71622,-0.29399 2.52023,-0.61963 0.80401,-0.32565 1.5567,-0.80102 2.13673,-1.44603 0.5345,-0.59439 0.912,-1.32246 1.13068,-2.09134 0.21868,-0.76887 0.28125,-1.57793 0.22596,-2.37539 -0.11056,-1.5949 -0.68308,-3.12193 -1.35664,-4.57185 -4.06624,-8.75307 -12.5736,-17.33686 -19.46278,-24.09629 -10.43326,-10.23677 -4.04503,-10.84141 -16.52231,-21.49961 -7.86993,-6.72257 -13.96901,-18.15675 -19.66504,-24.90731 -3.82155,-4.52904 2.75512,0.39464 -11.08589,-15.49673 -5.57492,-6.40077 -13.30978,-7.93034 -20.7943,-11.93428 -1.41752,-0.75832 -2.82052,-1.60856 -3.88468,-2.81354 -0.90279,-1.02226 -1.53227,-2.27678 -1.85581,-3.60169 -0.32355,-1.3249 -0.34442,-2.718036 -0.10503,-4.060697 0.35256,-1.97741 1.28776,-3.866628 2.73894,-5.255345 1.12988,-1.081253 2.54354,-1.839934 4.03172,-2.320639 1.48818,-0.480705 3.05246,-0.691922 4.61451,-0.767764 6.98254,-0.339025 13.91792,2.023546 19.82094,5.768561 7.65017,4.853444 13.63305,11.870204 20.42293,17.868414 1.70262,1.5041 3.46811,2.95543 4.93908,4.68675 1.47098,1.73132 2.6494,3.78917 2.94669,6.04147 0.34279,2.59704 -0.49938,5.18286 -0.90825,7.77032 -0.22789,1.44218 -0.31934,2.93365 0.0348,4.35013 0.17706,0.70824 0.46606,1.39183 0.88307,1.99104 0.41701,0.59922 0.96425,1.11253 1.6078,1.4572 0.75548,0.40462 1.62803,0.56805 2.48427,0.53171 0.85625,-0.0363 1.69724,-0.26678 2.48261,-0.60978 1.57076,-0.68602 2.90575,-1.80273 4.26379,-2.84849 6.23133,-4.79846 13.32388,-8.32752 20.07203,-12.36697 12.3905,-7.41696 24.01801,-16.75594 37.96586,-20.49669 7.35435,-1.97241 15.04039,-2.28769 22.54562,-3.57157 12.91949,-2.21006 25.31637,-7.338139 36.10098,-14.787285 7.17033,-4.952687 13.60868,-10.892179 20.67637,-15.990262 9.98266,-7.200712 21.10417,-12.642427 31.61718,-19.044013 5.54886,-3.378808 10.93846,-7.032619 15.99316,-11.113805 5.5357,-4.469518 10.7018,-9.473443 16.8371,-13.076017 4.4077,-2.588174 9.3506,-4.483302 12.927,-8.135131 1.0568,-1.079072 1.9693,-2.289385 2.9717,-3.419204 1.0023,-1.129818 2.1159,-2.194544 3.4582,-2.887006 1.5665,-0.808152 3.3963,-1.066825 5.1397,-0.806377 1.7433,0.260447 3.397,1.028211 4.7752,2.127166 1.8652,1.48729 3.2092,3.542588 4.2021,5.711698 0.993,2.169109 1.661,4.469311 2.3886,6.741245 1.5202,4.74699 3.312,9.401873 4.9539,14.108138 3.0386,8.709806 5.567,17.60463 9.0431,26.149268 3.2843,8.073241 7.3945,15.783667 10.9032,23.76194 2.3228,5.281628 4.381,10.678965 6.1877,16.158625 3.0393,9.21809 5.3627,18.65334 7.9236,28.01561 1.68,6.14186 3.465,12.26062 5.6364,18.24642 2.0586,5.6748 4.4603,11.21829 6.6571,16.84107 5.213,13.34301 9.2618,27.10555 13.4142,40.81571 3.9685,13.10299 8.0383,26.17797 11.6626,39.38032 4.1875,15.25378 7.7812,30.68726 10.1758,46.32308 1.6831,10.99035 2.7736,22.07747 4.944,32.98206 2.5671,12.89776 6.6391,25.51102 8.2146,38.56706 1.491,12.35633 0.7166,24.8762 1.6357,37.28818 1.0759,14.52938 4.4603,28.7796 6.5082,43.20412 1.6872,11.88377 2.4657,23.87666 3.8258,35.80228 0.4114,3.60725 0.8768,7.21961 0.8734,10.85025 0,3.63064 -0.4912,7.3076 -1.9164,10.64683 -1.4996,3.51374 -3.9728,6.51851 -6.5729,9.31755 -2.6002,2.79904 -5.3715,5.45959 -7.6348,8.53734 -6.2634,8.51718 -8.1025,19.40202 -9.7343,29.84761 -2.2657,14.50362 -4.4802,29.04161 -5.3279,43.69663 -0.6924,11.96932 -0.4706,23.97888 -1.2196,35.94478 -0.191,3.05056 -0.4449,6.09676 -0.6915,9.14333 -5.8187,71.89695 11.3498,148.30144 13.7911,220.39214"
       id="path1063"
       sodipodi:nodetypes="cssssssssssssssssssssssssssssssssssssssssssssssssssssssssssssssssssssssssssssssssssssssssssscsssssscc" />
  </g>
</svg>
