<?xml version="1.0" encoding="UTF-8" standalone="no"?>
<!-- Created with Inkscape (http://www.inkscape.org/) -->

<svg
   version="1.1"
   id="svg2"
   width="1893"
   height="1024"
   viewBox="0 0 1893 1024"
   sodipodi:docname="frame_0082.svg"
   inkscape:version="1.1.2 (0a00cf5339, 2022-02-04)"
   xmlns:inkscape="http://www.inkscape.org/namespaces/inkscape"
   xmlns:sodipodi="http://sodipodi.sourceforge.net/DTD/sodipodi-0.dtd"
   xmlns:xlink="http://www.w3.org/1999/xlink"
   xmlns="http://www.w3.org/2000/svg"
   xmlns:svg="http://www.w3.org/2000/svg">
  <defs
     id="defs6">
    <inkscape:path-effect
       effect="spiro"
       id="path-effect899"
       is_visible="true"
       lpeversion="1" />
    <inkscape:path-effect
       effect="spiro"
       id="path-effect862"
       is_visible="true"
       lpeversion="1" />
  </defs>
  <sodipodi:namedview
     id="namedview4"
     pagecolor="#ffffff"
     bordercolor="#666666"
     borderopacity="1.0"
     inkscape:pageshadow="2"
     inkscape:pageopacity="0.0"
     inkscape:pagecheckerboard="0"
     showgrid="false"
     inkscape:zoom="2.681458"
     inkscape:cx="1201.958"
     inkscape:cy="890.37382"
     inkscape:window-width="1850"
     inkscape:window-height="1016"
     inkscape:window-x="70"
     inkscape:window-y="27"
     inkscape:window-maximized="1"
     inkscape:current-layer="g8" />
  <g
     inkscape:groupmode="layer"
     inkscape:label="Image"
     id="g8">
    
    <path
       style="font-variation-settings:normal;opacity:1;vector-effect:none;fill:none;fill-opacity:1;stroke:#c86487;stroke-width:1px;stroke-linecap:butt;stroke-linejoin:miter;stroke-miterlimit:4;stroke-dasharray:none;stroke-dashoffset:0;stroke-opacity:1;-inkscape-stroke:none;stop-color:#000000;stop-opacity:1"
       d="m 1161.1507,863.8678 -525.46707,-0.035"
       id="path860"
       inkscape:path-effect="#path-effect862"
       inkscape:original-d="m 1161.1507,863.8678 -525.46707,-0.035" />
    <path
       style="font-variation-settings:normal;opacity:1;vector-effect:none;fill:none;fill-opacity:1;stroke:#c86487;stroke-width:1px;stroke-linecap:butt;stroke-linejoin:miter;stroke-miterlimit:4;stroke-dasharray:none;stroke-dashoffset:0;stroke-opacity:1;-inkscape-stroke:none;stop-color:#000000;stop-opacity:1"
       d="M 635.68363,863.8328 C 610.9702,814.26272 596.61569,759.55756 593.80677,704.23979 c -3.46443,-68.22714 10.49257,-136.44687 32.70041,-201.05148 11.49313,-33.43455 25.18363,-66.0643 37.82029,-99.08363 16.67825,-43.57991 31.52762,-87.85715 49.00621,-131.12228 7.22033,-17.87264 14.99925,-36.05016 15.79589,-55.30969 0.47333,-11.44325 -1.5531,-22.85721 -1.48067,-34.31001 0.0747,-11.81259 2.63033,-24.09017 10.05297,-33.27969 4.01066,-4.96536 9.28472,-8.8199 14.99538,-11.67095 5.71067,-2.85105 11.86216,-4.73148 18.08527,-6.1503 12.44622,-2.83764 25.31853,-3.88646 37.45736,-7.83734 3.00067,-0.97664 5.95653,-2.13062 9.04867,-2.76032 3.09213,-0.6297 6.38663,-0.70722 9.3259,0.44105 2.23724,0.87401 4.17329,2.42753 5.69122,4.28899 1.51793,1.86146 2.63384,4.02486 3.48866,6.26951 1.70964,4.48929 2.39708,9.30015 3.84224,13.88143 2.71353,8.60213 8.01973,16.15496 13.86747,23.02255 5.84774,6.86759 12.31307,13.2062 17.88774,20.29724 8.60179,10.94156 15.26247,23.84292 26.56413,31.96579 1.88524,1.35498 3.93359,2.58007 6.2117,3.02764 1.13905,0.22379 2.32506,0.24591 3.45736,-0.01 1.13229,-0.25579 2.20898,-0.79639 3.04015,-1.60675 0.69597,-0.67855 1.21013,-1.5362 1.51374,-2.45958 0.30361,-0.92338 0.39905,-1.91088 0.31265,-2.87904 -0.17281,-1.93633 -1.06562,-3.76085 -2.2898,-5.27102 -2.44836,-3.02034 -6.07177,-4.7824 -9.30259,-6.94543 -9.38554,-6.28361 -15.7006,-16.21854 -20.54314,-26.42255 -6.08303,-12.81793 -10.53247,-26.8941 -20.39064,-37.09798 -2.41332,-2.49795 -5.11264,-4.71553 -7.41814,-7.31333 -2.30549,-2.5978 -4.24231,-5.67931 -4.71857,-9.11981 -0.42268,-3.05338 0.33323,-6.14933 1.35264,-9.05838 1.01942,-2.90905 2.3107,-5.73393 3.01982,-8.73375 0.2983,-1.26192 0.49208,-2.55709 0.44222,-3.85284 -0.0499,-1.29574 -0.3513,-2.596 -0.99354,-3.72249 -1.0002,-1.754362 -2.77806,-2.981466 -4.70152,-3.596662 -1.92347,-0.615196 -3.98848,-0.663848 -5.99787,-0.462469 -4.01878,0.402759 -7.97263,1.780021 -11.99792,1.448611 -3.27599,-0.269719 -6.41901,-1.696584 -8.89543,-3.858118 -2.47642,-2.161534 -4.29505,-5.0339 -5.35779,-8.14444 -0.7063,-2.067273 -1.0891,-4.261448 -0.95282,-6.441795 0.13627,-2.180346 0.80712,-4.347091 2.06756,-6.131405 0.99876,-1.413879 2.34819,-2.56405 3.85355,-3.418722 1.50536,-0.854672 3.16474,-1.419765 4.86083,-1.766007 3.39216,-0.692482 6.89414,-0.517615 10.35097,-0.326105 6.6344,0.36755 13.39389,0.81253 19.57619,3.247581 5.80824,2.287716 10.83796,6.243725 15.14574,10.761726 2.30614,2.418684 4.44441,5.03288 6.00628,7.987345 1.56188,2.954464 2.53051,6.275746 2.40186,9.615172 -0.17912,4.649508 -2.42726,8.951838 -3.36296,13.509738 -0.4186,2.03904 -0.57179,4.15289 -0.22049,6.20459 0.35131,2.0517 1.23003,4.04262 2.67905,5.53702 1.31643,1.35765 3.0791,2.26806 4.94269,2.58937 1.56994,0.27068 3.19698,0.13105 4.73011,-0.30195 1.53313,-0.433 2.97561,-1.15383 4.3048,-2.03202 2.65838,-1.7564 4.84972,-4.11669 7.09483,-6.37753 9.61567,-9.68304 20.67176,-17.90814 32.5883,-24.557847 28.88804,-16.120187 62.0711,-22.70905 92.32367,-36.09416 21.04,-9.309036 40.4905,-21.830228 59.4741,-34.828767 9.1509,-6.26586 18.7175,-12.85227 29.7331,-14.1397217 1.4546,-0.1700103 2.9284,-0.2440643 4.3829,-0.072938 1.4545,0.1711261 2.8938,0.5948848 4.1388,1.366203 1.4378,0.890771 2.5748,2.223296 3.3616,3.720449 0.7869,1.497153 1.2354,3.155785 1.4606,4.832056 0.4505,3.35254 0.026,6.75213 -0.046,10.134025 -0.2583,12.074829 3.9886,23.828506 9.4919,34.579377 5.5034,10.75087 12.2997,20.80373 17.719,31.597233 13.8344,27.553821 18.1629,58.712301 24.0351,88.979781 6.804,35.07012 15.9127,69.66359 22.618,104.75273 7.3849,38.64584 11.8375,77.81607 14.4012,117.07758 2.066,31.6406 2.9086,63.3468 3.7635,95.04325 0.1136,4.21253 0.2212,8.48645 -0.7963,12.57583 -0.9913,3.98432 -3.0258,7.6533 -5.5189,10.91549 -2.4931,3.2622 -5.4437,6.14486 -8.454,8.93698 -5.1374,4.76509 -10.5011,9.32358 -15.0696,14.63653 -4.5686,5.31294 -8.3593,11.49958 -9.7299,18.37128 -1.3414,6.72532 -0.3038,13.66017 0.2181,20.49807 1.777,23.28396 -2.494,46.54329 -5.9964,69.63081 -10.4055,68.59133 -14.1372,138.19346 -11.1252,207.50416"
       id="path897"
       inkscape:path-effect="#path-effect899"
       inkscape:original-d="m 635.68363,863.8328 c -13.95795,-53.19667 -27.91691,-106.39434 -41.87686,-159.59301 -13.95995,-53.19867 21.80128,-134.03332 32.70041,-201.05148 10.89914,-67.01816 25.21453,-66.05475 37.82029,-99.08363 12.60576,-33.02888 32.6718,-87.41385 49.00621,-131.12228 16.3344,-43.70842 10.53159,-36.87212 15.79589,-55.30969 5.26429,-18.43756 -0.98611,-22.87234 -1.48067,-34.31001 -0.49455,-11.43767 6.70298,-22.18546 10.05297,-33.27969 3.34999,-11.09423 47.02634,-17.10473 70.53801,-25.65859 23.51167,-8.55386 12.25071,-1.54518 18.37457,-2.31927 6.12385,-0.77409 8.68241,16.29428 13.02212,24.43993 4.33971,8.14564 21.17114,28.88086 31.75521,43.31979 10.58407,14.43894 17.71042,21.31153 26.56413,31.96579 8.85371,10.65426 8.47381,0.94167 12.70921,1.41101 4.23541,0.46934 -6.50967,-11.70238 -9.766,-17.55507 -3.25634,-5.85269 -13.69443,-17.61403 -20.54314,-26.42255 -6.84872,-8.80851 -13.59276,-24.73099 -20.39064,-37.09798 -6.79788,-12.367 -8.09014,-10.95442 -12.13671,-16.43314 -4.04657,-5.47871 2.91597,-11.86042 4.37246,-17.79213 1.45648,-5.93171 -0.36655,-5.04922 -0.55132,-7.57533 -0.18477,-2.526109 -15.13054,-1.739346 -22.69731,-2.61052 -7.56677,-0.871173 -9.50115,-8.000705 -14.25322,-12.002558 -4.75208,-4.001853 0.74416,-8.381134 1.11474,-12.5732 0.37058,-4.192067 12.71123,-3.67289 19.06535,-5.510834 6.35411,-1.837945 13.05179,2.166054 19.57619,3.247581 6.5244,1.081527 10.09816,7.175484 15.14574,10.761726 5.04758,3.586242 5.60643,11.736011 8.40814,17.602517 2.80172,5.866508 -2.24097,9.007488 -3.36296,13.509738 -1.12199,4.50225 1.64004,7.82874 2.45856,11.74161 0.81852,3.91286 3.29613,1.72725 4.94269,2.58937 1.64656,0.86212 10.75416,-5.80667 16.12974,-8.7115 5.37558,-2.90484 21.72653,-16.3709 32.5883,-24.557847 10.86176,-8.186949 61.55013,-24.061773 92.32367,-36.09416 30.7736,-12.032387 39.6504,-23.218178 59.4741,-34.828767 19.8237,-11.610589 19.8231,-9.425481 29.7331,-14.1397217 9.9101,-4.7142406 5.6822,0.8631763 8.5217,1.2932647 2.8396,0.430088 3.1849,12.458687 4.7759,18.68653 1.5909,6.227844 18.1416,44.11874 27.2109,66.17661 9.0693,22.057871 16.0244,59.320851 24.0351,88.979781 8.0107,29.65893 15.0796,69.83615 22.618,104.75273 7.5383,34.91658 9.6018,78.05272 14.4012,117.07758 4.7994,39.02485 2.51,63.36316 3.7635,95.04325 1.2535,31.68008 -0.5299,8.38489 -0.7963,12.57583 -0.2664,4.19094 -9.3143,13.23598 -13.9729,19.85247 -4.6587,6.6165 -16.532,22.00621 -24.7995,33.00781 -8.2675,11.0016 0.1464,13.66638 0.2181,20.49807 0.072,6.83169 -3.9966,46.42154 -5.9964,69.63081 -1.9998,23.20927 -7.4158,138.33711 -11.1252,207.50416" />
  </g>
</svg>
