<?xml version="1.0" encoding="UTF-8" standalone="no"?>
<!-- Created with Inkscape (http://www.inkscape.org/) -->

<svg
   version="1.1"
   id="svg2"
   width="1893"
   height="1024"
   viewBox="0 0 1893 1024"
   sodipodi:docname="frame_0091.svg"
   inkscape:version="1.1.2 (0a00cf5339, 2022-02-04)"
   xmlns:inkscape="http://www.inkscape.org/namespaces/inkscape"
   xmlns:sodipodi="http://sodipodi.sourceforge.net/DTD/sodipodi-0.dtd"
   xmlns:xlink="http://www.w3.org/1999/xlink"
   xmlns="http://www.w3.org/2000/svg"
   xmlns:svg="http://www.w3.org/2000/svg">
  <defs
     id="defs6">
    <inkscape:path-effect
       effect="spiro"
       id="path-effect899"
       is_visible="true"
       lpeversion="1" />
    <inkscape:path-effect
       effect="spiro"
       id="path-effect862"
       is_visible="true"
       lpeversion="1" />
  </defs>
  <sodipodi:namedview
     id="namedview4"
     pagecolor="#ffffff"
     bordercolor="#666666"
     borderopacity="1.0"
     inkscape:pageshadow="2"
     inkscape:pageopacity="0.0"
     inkscape:pagecheckerboard="0"
     showgrid="false"
     inkscape:zoom="0.47401928"
     inkscape:cx="924.01304"
     inkscape:cy="456.73247"
     inkscape:window-width="1850"
     inkscape:window-height="1016"
     inkscape:window-x="70"
     inkscape:window-y="27"
     inkscape:window-maximized="1"
     inkscape:current-layer="g8" />
  <g
     inkscape:groupmode="layer"
     inkscape:label="Image"
     id="g8">
    
    <path
       style="font-variation-settings:normal;opacity:1;vector-effect:none;fill:none;fill-opacity:1;stroke:#c86487;stroke-width:1px;stroke-linecap:butt;stroke-linejoin:miter;stroke-miterlimit:4;stroke-dasharray:none;stroke-dashoffset:0;stroke-opacity:1;-inkscape-stroke:none;stop-color:#000000;stop-opacity:1"
       d="m 1160.6992,862.68298 -525.32532,-0.127"
       id="path860"
       inkscape:path-effect="#path-effect862"
       inkscape:original-d="m 1160.6992,862.68298 -525.32532,-0.127" />
    <path
       style="font-variation-settings:normal;opacity:1;vector-effect:none;fill:none;fill-opacity:1;stroke:#c86487;stroke-width:1px;stroke-linecap:butt;stroke-linejoin:miter;stroke-miterlimit:4;stroke-dasharray:none;stroke-dashoffset:0;stroke-opacity:1;-inkscape-stroke:none;stop-color:#000000;stop-opacity:1"
       d="M 635.37388,862.55598 C 616.0945,805.81903 605.62146,746.09909 604.44429,686.18757 c -0.89626,-45.61469 3.57031,-91.28035 12.33957,-136.05315 8.45492,-43.16794 20.88004,-85.46161 34.44005,-127.30755 6.48447,-20.01094 13.30296,-40.09395 23.87391,-58.28024 6.62492,-11.39753 14.70611,-22.01966 19.86028,-34.15341 5.66809,-13.34359 7.55646,-27.95373 8.89516,-42.38933 2.33697,-25.2003 3.19098,-50.65792 8.67786,-75.36441 5.48687,-24.7065 16.11303,-49.09084 34.87101,-66.08069 12.91432,-11.69702 29.57484,-19.4816 46.95855,-20.66756 8.16438,-0.55699 16.36083,0.31326 24.45127,1.54293 2.6502,0.4028 5.30418,0.84653 7.86584,1.63629 2.56165,0.78975 5.0414,1.93908 7.11677,3.63573 2.66017,2.17473 4.54529,5.14984 6.1131,8.20728 1.5678,3.05744 2.8685,6.25486 4.61815,9.212 5.00206,8.45412 13.30228,14.38457 19.49812,22.00719 7.27344,8.94837 11.51396,20.06339 18.86046,28.95187 3.97179,4.80544 8.76534,8.85371 13.1521,13.28357 1.14169,1.15291 2.27516,2.34736 3.67129,3.17409 0.69807,0.41337 1.45907,0.73015 2.25722,0.87549 0.79815,0.14534 1.63493,0.11493 2.4036,-0.14452 0.83891,-0.28316 1.57586,-0.83287 2.14082,-1.51462 0.56496,-0.68174 0.96312,-1.49187 1.22547,-2.33752 0.56028,-1.80599 0.50473,-3.77379 -0.002,-5.59551 -0.50677,-1.82173 -1.45016,-3.50328 -2.6141,-4.9935 -2.32788,-2.98043 -5.48298,-5.17913 -8.45818,-7.51369 -8.13304,-6.38177 -15.22567,-14.0928 -20.86581,-22.75664 -6.56077,-10.07802 -11.2827,-21.57114 -19.90292,-29.95576 -3.04582,-2.96257 -6.51762,-5.46866 -9.48566,-8.50916 -2.96804,-3.04049 -5.47714,-6.78812 -5.93377,-11.0125 -0.38272,-3.54059 0.72971,-7.13366 2.61132,-10.1572 1.10387,-1.7738 2.47494,-3.39544 3.32078,-5.30579 0.42292,-0.95518 0.70918,-1.98191 0.73094,-3.0263 0.0218,-1.04439 -0.23237,-2.10851 -0.81575,-2.97505 -0.7965,-1.18311 -2.14004,-1.90836 -3.52425,-2.25203 -1.38421,-0.34367 -2.82673,-0.34755 -4.25289,-0.36223 -3.21466,-0.03309 -6.45736,-0.134556 -9.58069,-0.896112 -3.12332,-0.761556 -6.15226,-2.235711 -8.28537,-4.64091 -1.70419,-1.921572 -2.76946,-4.377063 -3.13656,-6.919098 -0.3671,-2.542036 -0.0501,-5.164232 0.78946,-7.591563 1.34166,-3.879261 4.00933,-7.248195 7.34135,-9.645357 3.33202,-2.397162 7.30467,-3.842891 11.37207,-4.395157 3.37513,-0.458271 6.86269,-0.308024 10.10928,0.722112 3.24659,1.030135 6.24187,2.971844 8.28651,5.69599 2.51272,3.347782 3.44056,7.578922 4.6035,11.599991 1.07236,3.707903 2.39873,7.362977 2.97897,11.178975 0.39912,2.6249 0.44173,5.307589 1.06658,7.888089 0.61137,2.52481 1.76947,4.90338 2.23759,7.45863 0.68864,3.75897 -0.15699,7.65443 0.37293,11.43904 0.13901,0.99276 0.38244,1.99591 0.93827,2.83014 0.63821,0.95787 1.65396,1.62551 2.74733,1.9852 1.09337,0.35969 2.26377,0.43039 3.41316,0.36933 4.46567,-0.23724 8.59072,-2.38552 12.41279,-4.70721 4.42404,-2.68736 8.66134,-5.66914 13.01197,-8.47379 20.58002,-13.26699 43.47055,-22.438594 66.06274,-31.880156 35.23156,-14.723707 70.12986,-30.305321 104.05436,-47.83178 16.2106,-8.374887 32.213,-17.200506 48.9282,-24.5164643 1.0002,-0.4377828 2.0163,-0.874064 3.095,-1.0425147 1.0788,-0.1684508 2.2439,-0.043159 3.1474,0.5698974 0.6853,0.4649791 1.1731,1.1769946 1.5015,1.9372046 0.3284,0.760209 0.5104,1.574052 0.6919,2.382042 1.3379,5.957033 2.7971,12.027695 6.0827,17.173648 4.3528,6.817371 11.5324,11.416973 16.074,18.11005 3.3348,4.914603 5.0877,10.732194 6.2558,16.555399 1.1682,5.823205 1.8,11.749924 3.1435,17.535188 3.9816,17.144956 13.9946,32.257236 19.6648,48.920116 6.0287,17.71648 6.998,36.68577 10.1688,55.12935 2.2662,13.18178 5.6685,26.13678 8.6362,39.17854 7.8226,34.3765 12.6315,69.40126 15.3084,104.5548 2.8027,36.80544 3.2779,73.78729 7.217,110.4885 2.2926,21.36081 5.7575,42.91768 2.8815,64.2078 -0.3092,2.28916 -0.7025,4.6048 -1.7029,6.68687 -0.9651,2.00849 -2.4632,3.72316 -4.1419,5.18848 -1.6788,1.46532 -3.5438,2.69906 -5.3962,3.93757 -6.5511,4.37993 -13.2505,9.12316 -17.0669,16.01775 -2.3287,4.20695 -3.44,8.99441 -3.9224,13.7786 -0.4824,4.7842 -0.3618,9.60537 -0.3756,14.41381 -0.085,29.78995 -5.3335,59.28646 -9.8137,88.73771 -10.5044,69.05149 -16.8585,138.73407 -19.0167,208.54662"
       id="path897"
       inkscape:path-effect="#path-effect899"
       inkscape:original-d="m 635.37388,862.55598 c -10.30886,-58.78847 -20.61872,-117.57794 -30.92959,-176.36841 -10.31086,-58.79047 8.22738,-90.7011 12.33957,-136.05315 4.11218,-45.35205 22.96103,-84.8707 34.44005,-127.30755 11.47901,-42.43686 15.91694,-38.85249 23.87391,-58.28024 7.95698,-19.42774 13.24119,-22.76794 19.86028,-34.15341 6.61909,-11.38547 5.93111,-28.25856 8.89516,-42.38933 2.96406,-14.13078 29.03358,-94.29573 43.54887,-141.4451 14.51528,-47.149365 31.3067,-13.77737 46.95855,-20.66756 15.65185,-6.89018 16.30185,1.02962 24.45127,1.54293 8.14943,0.51331 9.98941,3.51568 14.98261,5.27202 4.9932,1.75634 7.15517,11.61385 10.73125,17.41928 3.57608,5.80543 12.99974,14.67246 19.49812,22.00719 6.49837,7.33473 12.57464,19.30225 18.86046,28.95187 6.28583,9.64963 8.76907,8.85672 13.1521,13.28357 4.38303,4.42686 5.55574,2.60437 8.33211,3.90506 2.77638,1.30069 2.24519,-2.56709 3.36629,-3.85214 1.12109,-1.28504 -7.38188,-12.06746 -11.07432,-18.1027 -3.69244,-6.03523 -13.90954,-15.1701 -20.86581,-22.75664 -6.95627,-7.58655 -13.26761,-19.96951 -19.90292,-29.95576 -6.6353,-9.98625 -10.27862,-13.01344 -15.41943,-19.52166 -5.14081,-6.50821 1.74188,-6.77047 2.61132,-10.1572 0.86944,-3.38673 2.15831,-7.53709 3.23597,-11.30714 1.07766,-3.770041 -5.18376,-1.74184 -7.77714,-2.61426 -2.59338,-0.872422 -11.90971,-3.690348 -17.86606,-5.537022 -5.95636,-1.846673 -1.56373,-9.672774 -2.3471,-14.510661 -0.78336,-4.837887 12.47662,-9.359342 18.71342,-14.040514 6.23681,-4.681171 12.26486,4.279735 18.39579,6.418102 6.13092,2.138367 3.07,7.734327 4.6035,11.599991 1.53351,3.865664 1.98698,7.45365 2.97897,11.178975 0.99199,3.725325 0.71205,5.259729 1.06658,7.888089 0.35453,2.62836 1.49273,4.97342 2.23759,7.45863 0.74486,2.48521 0.24962,7.62703 0.37293,11.43904 0.12331,3.81201 0.62651,1.88776 0.93827,2.83014 0.31176,0.94238 4.108,1.57068 6.16049,2.35453 2.0525,0.78384 8.27619,-3.13714 12.41279,-4.70721 4.13659,-1.57008 8.67565,-5.6482 13.01197,-8.47379 4.33632,-2.8256 44.04283,-21.252438 66.06274,-31.880156 22.01992,-10.627717 69.37056,-31.886854 104.05436,-47.83178 34.6838,-15.944927 32.6198,-16.34331 48.9282,-24.5164643 16.3084,-8.1731546 4.1626,-0.3140782 6.2424,-0.4726173 2.0798,-0.1585391 1.4633,2.8804976 2.1934,4.3192466 0.7302,1.438749 4.0561,11.450099 6.0827,17.173648 2.0265,5.723549 10.717,12.074367 16.074,18.11005 5.357,6.035684 6.2672,22.728058 9.3993,34.090587 3.1321,11.362529 13.1109,32.614416 19.6648,48.920116 6.554,16.30571 6.7802,36.7539 10.1688,55.12935 3.3886,18.37545 5.7585,26.12002 8.6362,39.17854 2.8777,13.05851 10.2066,69.7042 15.3084,104.5548 5.1019,34.8506 4.8123,73.66 7.217,110.4885 2.4046,36.8285 1.922,42.8062 2.8815,64.2078 0.9595,21.4016 -1.1343,4.45891 -1.7029,6.68687 -0.5686,2.22795 -6.3577,6.08503 -9.5381,9.12605 -3.1804,3.04102 -11.3769,10.6795 -17.0669,16.01775 -5.6899,5.33825 -2.8643,18.79594 -4.298,28.19241 -1.4337,9.39647 -6.5415,59.15948 -9.8137,88.73771 -3.2722,29.57824 -12.6768,139.03208 -19.0167,208.54662" />
  </g>
</svg>
