<?xml version="1.0" encoding="UTF-8" standalone="no"?>
<!-- Created with Inkscape (http://www.inkscape.org/) -->

<svg
   version="1.1"
   id="svg2"
   width="1893"
   height="1024"
   viewBox="0 0 1893 1024"
   sodipodi:docname="frame_0043.svg"
   inkscape:version="1.1.2 (0a00cf5339, 2022-02-04)"
   xmlns:inkscape="http://www.inkscape.org/namespaces/inkscape"
   xmlns:sodipodi="http://sodipodi.sourceforge.net/DTD/sodipodi-0.dtd"
   xmlns:xlink="http://www.w3.org/1999/xlink"
   xmlns="http://www.w3.org/2000/svg"
   xmlns:svg="http://www.w3.org/2000/svg">
  <defs
     id="defs6">
    <inkscape:path-effect
       effect="spiro"
       id="path-effect899"
       is_visible="true"
       lpeversion="1" />
    <inkscape:path-effect
       effect="spiro"
       id="path-effect862"
       is_visible="true"
       lpeversion="1" />
  </defs>
  <sodipodi:namedview
     id="namedview4"
     pagecolor="#ffffff"
     bordercolor="#666666"
     borderopacity="1.0"
     inkscape:pageshadow="2"
     inkscape:pageopacity="0.0"
     inkscape:pagecheckerboard="0"
     showgrid="false"
     inkscape:zoom="0.6703645"
     inkscape:cx="657.85106"
     inkscape:cy="366.21868"
     inkscape:window-width="1850"
     inkscape:window-height="1016"
     inkscape:window-x="70"
     inkscape:window-y="27"
     inkscape:window-maximized="1"
     inkscape:current-layer="g8" />
  <g
     inkscape:groupmode="layer"
     inkscape:label="Image"
     id="g8">
    
    <path
       style="font-variation-settings:normal;opacity:1;vector-effect:none;fill:none;fill-opacity:1;stroke:#c86487;stroke-width:1px;stroke-linecap:butt;stroke-linejoin:miter;stroke-miterlimit:4;stroke-dasharray:none;stroke-dashoffset:0;stroke-opacity:1;-inkscape-stroke:none;stop-color:#000000;stop-opacity:1"
       d="m 1160.7385,862.61705 -525.26012,-0.0371"
       id="path860"
       inkscape:path-effect="#path-effect862"
       inkscape:original-d="m 1160.7385,862.61705 -525.26012,-0.0371" />
    <path
       style="font-variation-settings:normal;opacity:1;vector-effect:none;fill:none;fill-opacity:1;stroke:#c86487;stroke-width:1px;stroke-linecap:butt;stroke-linejoin:miter;stroke-miterlimit:4;stroke-dasharray:none;stroke-dashoffset:0;stroke-opacity:1;-inkscape-stroke:none;stop-color:#000000;stop-opacity:1"
       d="m 635.47838,862.57995 c -20.19771,-44.76807 -32.19848,-93.21897 -35.23102,-142.23867 -3.41146,-55.14476 4.41753,-110.269 9.19083,-165.3126 3.08253,-35.54631 5.03294,-71.8508 17.86921,-105.14152 9.30946,-24.14399 24.00883,-45.77175 35.96782,-68.71909 7.02251,-13.47504 13.11277,-27.43721 18.17819,-41.76319 9.21654,-26.06613 15.04573,-53.3299 25.93531,-78.74259 2.53638,-5.91908 5.34632,-11.73508 7.39323,-17.84072 2.0469,-6.10565 3.32103,-12.57983 2.66343,-18.98579 -0.63598,-6.19539 -3.03631,-12.04721 -5.11723,-17.91722 -2.08092,-5.87001 -3.88482,-12.04148 -3.2581,-18.23781 0.51658,-5.10738 2.67887,-9.94682 5.58394,-14.17918 2.90506,-4.23235 6.54028,-7.90935 10.27804,-11.42807 15.39483,-14.49264 33.1225,-26.83534 53.00249,-34.03418 3.82886,-1.38649 7.76161,-2.58637 11.81577,-2.9689 4.05415,-0.38253 8.26324,0.0918 11.90492,1.91409 4.25872,2.13102 7.45769,5.94614 9.86853,10.05294 2.41084,4.10679 4.14497,8.56957 6.27748,12.82754 8.43689,16.84586 22.77146,29.91912 33.35879,45.50349 3.9275,5.78122 7.37594,11.95733 12.1984,17.01614 2.41123,2.52941 5.16515,4.76416 8.28097,6.34645 3.11581,1.58228 6.6079,2.49523 10.09953,2.35233 0.79556,-0.0326 1.5954,-0.12062 2.35291,-0.36588 0.75751,-0.24527 1.47465,-0.65621 1.99535,-1.25858 0.57771,-0.66833 0.88506,-1.54008 0.98337,-2.418 0.0983,-0.87792 -6.3e-4,-1.76679 -0.1595,-2.6358 -0.81329,-4.44859 -3.17504,-8.48144 -6.0007,-12.0123 -2.82567,-3.53087 -6.13243,-6.64208 -9.20078,-9.96422 -11.1251,-12.04531 -18.96646,-26.6792 -26.94613,-41.00338 -7.97968,-14.32418 -16.39065,-28.72967 -28.34892,-39.94827 -2.9249,-2.74398 -6.0406,-5.2755 -9.14244,-7.81775 -1.39418,-1.14266 -2.79073,-2.29229 -4.02062,-3.61016 -1.22988,-1.31787 -2.29553,-2.817017 -2.92811,-4.504987 -0.61838,-1.650073 -0.80659,-3.452809 -0.59423,-5.202104 0.21237,-1.749296 0.82087,-3.443893 1.72494,-4.956435 1.80815,-3.025083 4.76689,-5.267568 8.0391,-6.576461 3.65357,-1.461438 7.70704,-1.813876 11.60331,-1.263087 3.89628,0.550789 7.63951,1.983228 11.04912,3.947637 5.87779,3.386422 10.78673,8.355768 14.39204,14.101897 2.86229,4.56192 4.9154,9.58629 7.66774,14.21538 2.75235,4.62909 6.38915,8.99145 11.32031,11.15652 3.81493,1.67498 8.15193,1.90374 12.2653,1.24086 4.11337,-0.66289 8.04148,-2.17591 11.84364,-3.87968 13.70323,-6.1405 26.15839,-14.84729 39.98551,-20.703484 19.01947,-8.055315 40.23513,-10.549156 58.43359,-20.31872 12.95769,-6.956157 23.73499,-17.257525 35.05269,-26.649097 17.4847,-14.509081 36.9827,-27.247154 58.88,-33.308225 1.8036,-0.499242 3.6833,-0.955615 5.5301,-0.653011 1.3748,0.225259 2.6626,0.868867 3.7486,1.741451 1.086,0.872584 1.9779,1.968665 2.7201,3.147639 1.4843,2.35795 2.3769,5.031436 3.5755,7.546713 4.1717,8.754531 11.8306,15.237189 18.1109,22.626541 15.3582,18.070333 22.458,41.615875 27.9182,64.693963 7.3746,31.16961 12.478,62.84576 20.0158,93.97631 7.5116,31.02257 17.4403,61.50584 22.7669,92.97729 9.1221,53.89628 4.558,109.56661 15.6053,163.10144 1.7341,8.40349 3.8512,16.74205 4.9751,25.24867 1.124,8.50662 1.229,17.27154 -1.0281,25.54991 -1.1594,4.25246 -2.9788,8.40572 -5.9137,11.69419 -4.1019,4.59609 -9.9703,7.10973 -15.4385,9.94664 -2.7341,1.41845 -5.4259,2.95932 -7.7976,4.92465 -2.3717,1.96533 -4.4243,4.3823 -5.6293,7.21697 -1.4647,3.44547 -1.6067,7.3207 -1.2093,11.04342 0.3973,3.72272 1.3073,7.37076 1.8731,11.07162 2.8621,18.72037 -3.1449,37.49544 -8.0052,55.79902 -20.1909,76.03697 -21.2544,157.07392 -3.0658,233.61455"
       id="path897"
       inkscape:path-effect="#path-effect899"
       inkscape:original-d="m 635.47838,862.57995 c -11.74267,-47.41189 -23.48635,-94.82478 -35.23102,-142.23867 -11.74467,-47.41389 6.12822,-110.2074 9.19083,-165.3126 3.0626,-55.1052 11.9138,-70.09335 17.86921,-105.14152 5.9554,-35.04818 23.97954,-45.81173 35.96782,-68.71909 11.98827,-22.90736 12.11979,-27.84112 18.17819,-41.76319 6.0584,-13.92206 318.66059,2319.84262 25.93531,-78.74259 -3.82184,-31.31602 6.71367,-28.64017 10.05666,-36.82651 3.343,-8.18633 -5.58255,-24.10235 -8.37533,-36.15503 -2.79278,-12.05268 10.57565,-17.0705 15.86198,-25.60725 5.28632,-8.53675 35.33599,-22.68845 53.00249,-34.03418 17.6665,-11.34573 15.8148,-0.7022 23.72069,-1.05481 7.9059,-0.3526 10.76501,15.25465 16.14601,22.88048 5.381,7.62582 25.87862,36.62006 33.35879,45.50349 7.48016,8.88344 15.71359,11.07523 30.5789,25.71492 14.8653,14.63969 3.93474,-1.29631 4.34826,-1.62446 0.41351,-0.32814 0.55024,-3.3682 0.82387,-5.0538 0.27362,-1.68561 -10.13332,-14.65002 -15.20148,-21.97652 -5.06816,-7.32651 -36.86237,-53.96676 -55.29505,-80.95165 -18.43269,-26.984878 -6.09396,-5.21083 -9.14244,-7.81775 -3.04849,-2.60692 -4.63149,-5.409099 -6.94873,-8.115147 -2.31724,-2.706049 6.11421,-11.155667 9.16981,-16.735 3.0556,-5.579333 15.10262,1.7907 22.65243,2.68455 7.54982,0.893851 9.5957,9.402265 14.39204,14.101897 4.79635,4.69963 12.6597,16.9156 18.98805,25.3719 6.32835,8.4563 16.07363,-1.75821 24.10894,-2.63882 8.03532,-0.8806 26.65801,-13.80132 39.98551,-20.703484 13.3275,-6.902162 38.95673,-13.544813 58.43359,-20.31872 19.47689,-6.773907 23.36949,-17.765065 35.05269,-26.649097 11.6832,-8.884033 39.2543,-22.204484 58.88,-33.308225 19.6257,-11.1037417 3.6878,-0.434341 5.5301,-0.653011 1.8424,-0.218671 6.6972,8.291535 10.0442,12.435803 3.3471,4.144268 12.0749,15.085361 18.1109,22.626541 6.0359,7.54118 18.6131,43.13031 27.9182,64.693963 9.305,21.56366 13.3449,62.65187 20.0158,93.97631 6.671,31.32443 15.1789,61.98586 22.7669,92.97729 7.5879,30.99143 10.4045,108.73529 15.6053,163.10144 5.2008,54.36614 2.6323,33.86672 3.947,50.79858 1.3147,16.93185 -3.9415,7.79713 -5.9137,11.69419 -1.9722,3.89707 -19.2426,14.72651 -28.8654,22.08826 -9.6229,7.36175 0.4435,14.74436 0.6638,22.11504 0.2203,7.37068 -5.3358,37.20035 -8.0052,55.79902 -2.6694,18.59868 -2.0429,155.74403 -3.0658,233.61455"
       sodipodi:nodetypes="csssssssssssssssssssssssssssssssssssssssssc" />
  </g>
</svg>
