<?xml version="1.0" encoding="UTF-8" standalone="no"?>
<!-- Created with Inkscape (http://www.inkscape.org/) -->

<svg
   version="1.1"
   id="svg2"
   width="1893"
   height="1024"
   viewBox="0 0 1893 1024"
   xmlns:xlink="http://www.w3.org/1999/xlink"
   xmlns="http://www.w3.org/2000/svg"
   xmlns:svg="http://www.w3.org/2000/svg">
  <defs
     id="defs6" />
  <g
     id="g8">
    
    <path
       style="font-variation-settings:normal;opacity:1;vector-effect:none;fill:none;fill-opacity:1;stroke:#c86487;stroke-width:1px;stroke-linecap:butt;stroke-linejoin:miter;stroke-miterlimit:4;stroke-dasharray:none;stroke-dashoffset:0;stroke-opacity:1;-inkscape-stroke:none;stop-color:#000000;stop-opacity:1"
       d="m 1160.8708,862.46183 -525.3583,0.31204"
       id="path860" />
    <path
       style="font-variation-settings:normal;opacity:1;vector-effect:none;fill:none;fill-opacity:1;stroke:#c86487;stroke-width:1px;stroke-linecap:butt;stroke-linejoin:miter;stroke-miterlimit:4;stroke-dasharray:none;stroke-dashoffset:0;stroke-opacity:1;-inkscape-stroke:none;stop-color:#000000;stop-opacity:1"
       d="m 635.5125,862.77387 c -13.27792,-37.56233 -23.64778,-76.15223 -30.98621,-115.31062 -5.33521,-28.46907 -9.07611,-57.34254 -8.82788,-86.30615 0.32107,-37.46265 7.29559,-74.51029 11.06639,-111.78406 2.08483,-20.60822 3.19786,-41.358 6.97139,-61.72478 4.22735,-22.81617 11.80072,-45.02244 22.54911,-65.58746 9.43371,-18.04962 21.32367,-34.90574 28.5664,-53.94062 10.1737,-26.73788 10.80898,-56.83934 24.23815,-82.09951 5.05845,-9.51491 11.80499,-18.06271 16.72741,-27.64869 2.46121,-4.79299 4.46344,-9.85914 5.45823,-15.15449 0.99478,-5.29535 0.9552,-10.83838 -0.58919,-16.00028 -1.61911,-5.41163 -4.80068,-10.19194 -7.51602,-15.14514 -2.71534,-4.9532 -5.0432,-10.40561 -4.69309,-16.0434 0.26569,-4.27832 2.078,-8.34866 4.53843,-11.85877 2.46043,-3.51011 5.55648,-6.52075 8.68078,-9.4556 10.02233,-9.41458 20.54599,-18.29281 31.47165,-26.64215 8.00411,-6.11671 16.29075,-11.9889 25.46427,-16.15142 9.17351,-4.16252 19.3471,-6.56036 29.35742,-5.43193 3.63231,0.40946 7.28907,1.31116 10.34794,3.31231 2.90462,1.90023 5.12179,4.6955 6.91189,7.66925 1.7901,2.97376 3.19868,6.15858 4.82872,9.22299 10.01425,18.82638 27.75379,32.14668 41.17968,48.71361 4.84993,5.98459 9.155,12.41946 14.37619,18.08305 1.85269,2.00967 3.81467,3.91538 5.78904,5.80564 0.44663,0.4276 0.89853,0.85802 1.42704,1.17896 0.52851,0.32093 1.14699,0.52791 1.76213,0.46527 0.36365,-0.037 0.71576,-0.16781 1.0232,-0.36554 0.30744,-0.19773 0.57059,-0.46142 0.77941,-0.76144 0.41765,-0.60002 0.61269,-1.33384 0.65829,-2.06349 0.0599,-0.95889 -0.12725,-1.9247 -0.47728,-2.81943 -0.35004,-0.89473 -0.85997,-1.72104 -1.44859,-2.48037 -1.17724,-1.51868 -2.65933,-2.76744 -4.01882,-4.12539 -4.76161,-4.75621 -7.97511,-10.79853 -11.34863,-16.62209 -18.42655,-31.80894 -43.30165,-59.28964 -66.48103,-87.82143 -1.84067,-2.2657 -3.72073,-4.635117 -4.43886,-7.464561 -0.58669,-2.31156 -0.33914,-4.790378 0.47068,-7.033522 0.80983,-2.243145 2.16085,-4.263054 3.74825,-6.042853 2.17943,-2.443594 4.85645,-4.486822 7.91064,-5.667086 3.05418,-1.180263 6.49794,-1.45993 9.6294,-0.503337 2.67734,0.817871 5.01633,2.482748 7.13208,4.315963 2.11575,1.833216 4.06283,3.861631 6.26547,5.589476 2.49429,1.956626 5.28154,3.500891 7.91686,5.262987 2.63531,1.762096 5.16978,3.796866 6.88135,6.465273 2.40334,3.74691 2.96387,8.36882 4.78266,12.43175 2.0259,4.52559 5.6668,8.30788 10.11152,10.50554 4.44472,2.19765 9.66026,2.79456 14.48681,1.65893 5.34695,-1.25808 10.00292,-4.49931 14.23699,-7.99863 4.23407,-3.49932 8.2276,-7.34816 12.93754,-10.17465 7.24116,-4.3455 15.71373,-6.014819 23.85125,-8.272819 11.04768,-3.065513 21.72215,-7.31819 32.49132,-11.251847 15.22521,-5.561316 30.74502,-10.526041 45.14332,-17.970793 29.1928,-15.094375 52.9124,-39.93339 83.3993,-52.205776 2.0157,-0.81141 4.1396,-1.577469 6.3045,-1.391118 1.6038,0.138057 3.1386,0.804384 4.4244,1.772795 1.2859,0.96841 2.3323,2.229903 3.1733,3.602496 1.6821,2.745185 2.548,5.895974 3.6539,8.919593 3.3391,9.129362 8.9288,17.226 13.8282,25.62184 7.9474,13.618955 14.1711,28.235004 18.5853,43.372765 3.0244,10.371414 5.1988,20.967384 7.5859,31.503724 7.7642,34.2696 17.7966,67.97728 26.727,101.96162 3.8058,14.48295 7.4134,29.02415 10.3713,43.70376 5.0833,25.22766 8.2368,50.80907 10.6202,76.43317 3.6678,39.43295 5.5212,79.00848 7.9342,118.53806 0.9501,15.56432 1.9876,31.14394 1.7313,46.73513 -0.028,1.72549 -0.088,3.5147 -0.8553,5.06029 -0.4727,0.95167 -1.1984,1.76617 -2.0443,2.40928 -0.8459,0.64312 -1.8101,1.11953 -2.8108,1.47692 -2.0014,0.71477 -4.1339,0.95778 -6.222,1.35312 -4.0311,0.76322 -7.979,2.12591 -11.4518,4.31038 -3.4728,2.18447 -6.4584,5.21787 -8.293,8.88752 -2.0587,4.1179 -2.5962,8.83581 -2.5687,13.43958 0.027,4.60377 0.5857,9.19351 0.5752,13.79735 -0.024,10.71359 -3.1136,21.15766 -4.5891,31.76919 -2.3462,16.87369 -0.5964,34.00889 0.7136,50.99448 5.4645,70.85417 3.1874,142.30275 -6.778,212.66514"
       id="path897" />
  </g>
</svg>
