<?xml version="1.0" encoding="UTF-8" standalone="no"?>
<!-- Created with Inkscape (http://www.inkscape.org/) -->

<svg
   version="1.1"
   id="svg2"
   width="1893"
   height="1024"
   viewBox="0 0 1893 1024"
   sodipodi:docname="frame_0084.svg"
   inkscape:version="1.1.2 (0a00cf5339, 2022-02-04)"
   xmlns:inkscape="http://www.inkscape.org/namespaces/inkscape"
   xmlns:sodipodi="http://sodipodi.sourceforge.net/DTD/sodipodi-0.dtd"
   xmlns:xlink="http://www.w3.org/1999/xlink"
   xmlns="http://www.w3.org/2000/svg"
   xmlns:svg="http://www.w3.org/2000/svg">
  <defs
     id="defs6">
    <inkscape:path-effect
       effect="spiro"
       id="path-effect899"
       is_visible="true"
       lpeversion="1" />
    <inkscape:path-effect
       effect="spiro"
       id="path-effect862"
       is_visible="true"
       lpeversion="1" />
  </defs>
  <sodipodi:namedview
     id="namedview4"
     pagecolor="#ffffff"
     bordercolor="#666666"
     borderopacity="1.0"
     inkscape:pageshadow="2"
     inkscape:pageopacity="0.0"
     inkscape:pagecheckerboard="0"
     showgrid="false"
     inkscape:zoom="0.47401928"
     inkscape:cx="1185.6058"
     inkscape:cy="804.81958"
     inkscape:window-width="1850"
     inkscape:window-height="1016"
     inkscape:window-x="70"
     inkscape:window-y="27"
     inkscape:window-maximized="1"
     inkscape:current-layer="g8" />
  <g
     inkscape:groupmode="layer"
     inkscape:label="Image"
     id="g8">
    
    <path
       style="font-variation-settings:normal;opacity:1;vector-effect:none;fill:none;fill-opacity:1;stroke:#c86487;stroke-width:1px;stroke-linecap:butt;stroke-linejoin:miter;stroke-miterlimit:4;stroke-dasharray:none;stroke-dashoffset:0;stroke-opacity:1;-inkscape-stroke:none;stop-color:#000000;stop-opacity:1"
       d="m 1160.7651,862.39864 -525.21248,0.10775"
       id="path860"
       inkscape:path-effect="#path-effect862"
       inkscape:original-d="m 1160.7651,862.39864 -525.21248,0.10775" />
    <path
       style="font-variation-settings:normal;opacity:1;vector-effect:none;fill:none;fill-opacity:1;stroke:#c86487;stroke-width:1px;stroke-linecap:butt;stroke-linejoin:miter;stroke-miterlimit:4;stroke-dasharray:none;stroke-dashoffset:0;stroke-opacity:1;-inkscape-stroke:none;stop-color:#000000;stop-opacity:1"
       d="m 635.55262,862.50639 c -7.84795,-58.11345 -14.97291,-116.32454 -21.37269,-174.61524 -4.84543,-44.13332 -9.25855,-88.95406 -1.87379,-132.73412 6.31794,-37.45547 21.05958,-72.86725 34.50593,-108.39223 8.70793,-23.00619 16.92113,-46.22188 26.86171,-68.72294 10.59849,-23.99029 23.20903,-47.30654 29.90282,-72.66508 4.00851,-15.18573 5.83797,-30.91841 10.53039,-45.90693 4.88161,-15.59285 12.84694,-30.35377 15.05463,-46.54306 1.68832,-12.38072 -0.0756,-25.13959 2.61536,-37.34169 1.7165,-7.78336 5.24886,-15.16033 10.23664,-21.37716 10.08751,-12.57319 25.40807,-19.77491 40.75213,-24.71483 7.6959,-2.47765 15.6272,-4.5085 23.71029,-4.67941 8.08309,-0.17092 16.38863,1.6382 23.00935,6.27841 7.34335,5.14667 11.97398,13.20284 17.1271,20.54166 9.25924,13.18657 20.81904,24.70056 29.37356,38.35484 3.66612,5.85168 6.75951,12.06578 10.75748,17.69595 3.99797,5.63018 9.06619,10.75804 15.46023,13.3655 2.95505,1.20506 6.2143,1.84399 9.35932,1.30237 1.67935,-0.28921 3.31426,-0.9205 4.67569,-1.94536 1.36144,-1.02487 2.4379,-2.45558 2.92147,-4.0896 0.36816,-1.24403 0.38789,-2.58197 0.11233,-3.84974 -0.27556,-1.26776 -0.84148,-2.46548 -1.59955,-3.51833 -1.51614,-2.1057 -3.76151,-3.59824 -6.14937,-4.61351 -4.77572,-2.03053 -10.16409,-2.29166 -14.91598,-4.37735 -6.20022,-2.72139 -10.71492,-8.29406 -13.9985,-14.21578 -3.28358,-5.92172 -5.5752,-12.34904 -8.81744,-18.29349 -5.17667,-9.49111 -12.62888,-17.50127 -19.77802,-25.61108 -1.27302,-1.44408 -2.55453,-2.91814 -3.38678,-4.65403 -0.41612,-0.86795 -0.71519,-1.79747 -0.82112,-2.75417 -0.10594,-0.95669 -0.0147,-1.94167 0.32364,-2.84278 0.45378,-1.20852 1.3221,-2.21024 2.2065,-3.1506 0.8844,-0.94036 1.81451,-1.86414 2.43808,-2.99445 0.73535,-1.33293 1.00103,-2.89885 0.87326,-4.41579 -0.12777,-1.51695 -0.63589,-2.98682 -1.35968,-4.32607 -1.44758,-2.67849 -3.7081,-4.80694 -5.86705,-6.95374 -2.34931,-2.33609 -4.62682,-4.75471 -7.17206,-6.87565 -2.54524,-2.12093 -5.38995,-3.952349 -8.556,-4.928424 -2.79389,-0.86134 -5.74595,-1.032435 -8.62924,-1.516561 -2.88328,-0.484126 -5.82624,-1.346683 -7.98877,-3.314215 -1.73141,-1.575284 -2.84055,-3.788933 -3.18913,-6.103622 -0.34857,-2.314689 0.0451,-4.717974 0.99968,-6.85528 0.95457,-2.137305 2.45645,-4.011575 4.25456,-5.510276 1.79811,-1.4987 3.88762,-2.628732 6.08448,-3.436879 7.02984,-2.58603 15.0162,-1.800951 21.91412,1.118794 8.55514,3.62121 15.74671,10.60149 19.10834,19.261918 1.45591,3.750812 2.19454,7.733591 2.98345,11.678955 0.78289,3.91523 1.62484,7.8362 1.86466,11.82172 0.12709,2.11212 0.0853,4.24326 0.4557,6.32653 0.37042,2.08326 1.20528,4.16572 2.78826,5.56977 1.15991,1.0288 2.66488,1.63218 4.20405,1.8187 1.53917,0.18652 3.11109,-0.0296 4.58854,-0.49966 2.95489,-0.94018 5.48857,-2.84597 7.98252,-4.68867 15.99634,-11.81919 32.97215,-22.41397 51.13319,-30.52277 9.52611,-4.253354 19.35498,-7.812754 29.34011,-10.835179 20.27731,-6.137792 41.68048,-10.272738 59.37298,-21.926862 13.603,-8.960377 24.1045,-21.798793 36.1279,-32.788284 6.0116,-5.494745 12.4747,-10.575611 19.699,-14.336349 7.2242,-3.7607384 15.2625,-6.1695067 23.4068,-6.1130943 3.4736,0.024061 7.0846,0.5465839 9.9607,2.4946504 1.7153,1.1618429 3.0902,2.7870279 4.1,4.5959949 1.0099,1.808967 1.6654,3.799943 2.0947,5.826714 0.8588,4.053542 0.8267,8.236386 1.2639,12.356769 1.1625,10.956401 5.6252,21.302873 10.9161,30.967215 5.291,9.664342 11.4588,18.84086 16.4487,28.664031 8.5483,16.828214 13.4821,35.231624 17.8253,53.600064 6.0661,25.6549 11.095,51.54314 16.8618,77.26698 10.1324,45.19756 22.5853,90.14984 26.1338,136.3331 3.1281,40.71193 -0.7275,81.70934 2.181,122.43755 1.024,14.33949 2.818,29.21478 -2.0902,42.72698 -0.8959,2.46645 -2.0071,4.85362 -3.2978,7.1384 -5.3741,9.51352 -13.6859,17.0031 -19.973,25.93961 -9.434,13.40968 -14.0247,29.72286 -15.8397,46.01785 -1.8151,16.29498 -1.0139,32.75063 -0.5756,49.14053 1.8768,70.18054 -2.9652,140.53921 -14.4383,209.80103"
       id="path897"
       inkscape:path-effect="#path-effect899"
       inkscape:original-d="m 635.55262,862.50639 c -7.12323,-58.20408 -14.24746,-116.40916 -21.37269,-174.61524 -7.12522,-58.20608 -1.24819,-88.48842 -1.87379,-132.73412 -0.6256,-44.24571 23.00495,-72.26049 34.50593,-108.39223 11.50098,-36.13174 17.90881,-45.81429 26.86171,-68.72294 8.9529,-22.90865 19.93622,-48.44239 29.90282,-72.66508 9.96661,-24.22269 7.02126,-30.60362 10.53039,-45.90693 3.50913,-15.30331 10.03742,-31.0277 15.05463,-46.54306 5.0172,-15.51535 1.74457,-24.89346 2.61536,-37.34169 0.87079,-12.44823 6.82542,-14.25044 10.23664,-21.37716 3.41121,-7.12672 27.16909,-16.47555 40.75213,-24.71483 13.58305,-8.23927 31.14743,1.067 46.71964,1.599 15.57221,0.53199 11.41906,13.69544 17.1271,20.54166 5.70803,6.84622 19.58337,25.57089 29.37356,38.35484 9.79019,12.78394 17.47947,20.70863 26.21771,31.06145 8.73824,10.35282 6.24055,0.86925 9.35932,1.30237 3.11877,0.43312 5.06577,-4.02231 7.59716,-6.03496 2.53138,-2.01266 -15.03404,-10.90496 -22.55257,-16.35893 -7.51852,-5.45398 -15.20962,-21.67185 -22.81594,-32.50927 -7.60631,-10.83743 -13.18435,-17.07305 -19.77802,-25.61108 -6.59368,-8.53802 -2.5885,-6.83298 -3.88426,-10.25098 -1.29575,-3.41799 3.09739,-4.0957 4.64458,-6.14505 1.54719,-2.04935 -4.23465,-10.46273 -6.35347,-15.6956 -2.11883,-5.23287 -10.48438,-7.86838 -15.72806,-11.804074 -5.24369,-3.935692 -11.07767,-3.219517 -16.61801,-4.830776 -5.54034,-1.611258 5.43406,-14.603038 8.14959,-21.906057 2.71553,-7.30302 14.61041,0.746863 21.91412,1.118794 7.3037,0.371931 12.73989,12.842279 19.10834,19.261918 6.36845,6.419639 1.98997,7.786968 2.98345,11.678955 0.99348,3.89198 1.24411,7.88215 1.86466,11.82172 0.62055,3.93958 2.16364,7.93187 3.24396,11.8963 1.08032,3.96443 11.18441,-2.24542 16.77511,-3.36963 5.5907,-1.12421 34.08979,-20.34751 51.13319,-30.52277 17.0434,-10.175256 19.56107,-7.222453 29.34011,-10.835179 9.77903,-3.612726 39.58298,-14.616908 59.37298,-21.926862 19.79,-7.309954 52.8235,-35.490818 79.2337,-53.2377273 26.4102,-17.7469097 6.6415,1.6641003 9.9607,2.4946504 3.3192,0.8305499 4.9734,15.1873189 7.4586,22.7794779 2.4852,7.59216 18.2442,39.755164 27.3648,59.631246 9.1205,19.876084 11.8845,35.734374 17.8253,53.600064 5.9408,17.86569 11.2422,51.51232 16.8618,77.26698 5.6196,25.75466 17.4235,90.88973 26.1338,136.3331 8.7103,45.44337 1.455,81.62604 2.181,122.43755 0.726,40.81152 -1.3924,28.48565 -2.0902,42.72698 -0.6977,14.24132 -2.1975,4.75993 -3.2978,7.1384 -1.1003,2.37847 -13.3143,17.29407 -19.973,25.93961 -6.6587,8.64553 -10.9425,63.43992 -16.4153,95.15838 -5.4728,31.71846 -9.6245,139.86835 -14.4383,209.80103" />
  </g>
</svg>
