<?xml version="1.0" encoding="UTF-8" standalone="no"?>
<!-- Created with Inkscape (http://www.inkscape.org/) -->

<svg
   version="1.1"
   id="svg2"
   width="1893"
   height="1024"
   viewBox="0 0 1893 1024"
   sodipodi:docname="frame_0096.svg"
   inkscape:version="1.1.2 (0a00cf5339, 2022-02-04)"
   xmlns:inkscape="http://www.inkscape.org/namespaces/inkscape"
   xmlns:sodipodi="http://sodipodi.sourceforge.net/DTD/sodipodi-0.dtd"
   xmlns:xlink="http://www.w3.org/1999/xlink"
   xmlns="http://www.w3.org/2000/svg"
   xmlns:svg="http://www.w3.org/2000/svg">
  <defs
     id="defs6">
    <inkscape:path-effect
       effect="spiro"
       id="path-effect899"
       is_visible="true"
       lpeversion="1" />
    <inkscape:path-effect
       effect="spiro"
       id="path-effect862"
       is_visible="true"
       lpeversion="1" />
  </defs>
  <sodipodi:namedview
     id="namedview4"
     pagecolor="#ffffff"
     bordercolor="#666666"
     borderopacity="1.0"
     inkscape:pageshadow="2"
     inkscape:pageopacity="0.0"
     inkscape:pagecheckerboard="0"
     showgrid="false"
     inkscape:zoom="0.6703645"
     inkscape:cx="1145.6454"
     inkscape:cy="597.43617"
     inkscape:window-width="1850"
     inkscape:window-height="1016"
     inkscape:window-x="70"
     inkscape:window-y="27"
     inkscape:window-maximized="1"
     inkscape:current-layer="g8" />
  <g
     inkscape:groupmode="layer"
     inkscape:label="Image"
     id="g8">
    
    <path
       style="font-variation-settings:normal;opacity:1;vector-effect:none;fill:none;fill-opacity:1;stroke:#c86487;stroke-width:1px;stroke-linecap:butt;stroke-linejoin:miter;stroke-miterlimit:4;stroke-dasharray:none;stroke-dashoffset:0;stroke-opacity:1;-inkscape-stroke:none;stop-color:#000000;stop-opacity:1"
       d="M 1160.7158,862.91243 H 635.39191"
       id="path860"
       inkscape:path-effect="#path-effect862"
       inkscape:original-d="M 1160.7158,862.91243 H 635.39191" />
    <path
       style="font-variation-settings:normal;opacity:1;vector-effect:none;fill:none;fill-opacity:1;stroke:#c86487;stroke-width:1px;stroke-linecap:butt;stroke-linejoin:miter;stroke-miterlimit:4;stroke-dasharray:none;stroke-dashoffset:0;stroke-opacity:1;-inkscape-stroke:none;stop-color:#000000;stop-opacity:1"
       d="m 635.39191,862.91243 c 4.95201,-53.43491 3.77851,-107.43507 -3.49017,-160.60441 -7.596,-55.56368 -21.8448,-111.5889 -13.19937,-166.99899 5.11785,-32.80117 18.08324,-63.80498 31.57161,-94.13933 9.85447,-22.16198 20.04936,-44.17513 30.79321,-65.91987 7.80408,-15.79488 15.92649,-31.5162 21.54761,-48.21306 5.46127,-16.22203 8.50985,-33.22072 14.6986,-49.17939 3.41442,-8.80461 7.75748,-17.21933 11.38648,-25.93769 3.62899,-8.71836 6.56563,-17.87347 6.95495,-27.30893 0.30464,-7.38324 -0.95575,-14.72739 -1.8817,-22.05867 -0.92595,-7.33128 -1.51188,-14.84462 0.11539,-22.05274 1.42644,-6.31853 4.52621,-12.18793 8.51199,-17.29401 3.98579,-5.10609 8.84436,-9.47907 14.01562,-13.37993 15.16379,-11.43858 32.9064,-18.84119 50.26552,-26.55108 3.6866,-1.63737 7.38207,-3.29998 11.26905,-4.37859 3.88698,-1.07861 8.0073,-1.55763 11.96724,-0.78894 4.57634,0.88835 8.72293,3.41048 12.11242,6.61101 4.59033,4.33444 7.87452,9.86179 10.7069,15.50414 2.83239,5.64234 5.28147,11.48878 8.52087,16.90771 4.0883,6.83899 9.36147,12.87615 14.31284,19.11875 4.95137,6.24259 9.66301,12.83335 12.37334,20.32602 1.39528,3.85724 2.30026,8.02255 4.84248,11.24159 1.27111,1.60952 2.96069,2.93884 4.92723,3.52109 0.98327,0.29112 2.02658,0.39151 3.04301,0.2557 1.01642,-0.13582 2.00455,-0.51088 2.83366,-1.11433 0.97337,-0.70845 1.70693,-1.71403 2.20391,-2.81056 0.49697,-1.09653 0.76718,-2.28414 0.92492,-3.47766 0.70104,-5.30436 -0.80045,-10.72372 -3.34862,-15.42846 -2.54818,-4.70474 -6.0983,-8.78391 -9.75252,-12.69216 -11.17141,-11.94798 -23.977,-23.26607 -29.74599,-38.57206 -2.17589,-5.77297 -3.25248,-11.91838 -3.66009,-18.07431 -0.15326,-2.31457 -0.21412,-4.64057 -0.57021,-6.93272 -0.35609,-2.29215 -1.02324,-4.5729 -2.29199,-6.51481 -1.08919,-1.66708 -2.59376,-3.03752 -4.26196,-4.12499 -1.6682,-1.08747 -3.50066,-1.901828 -5.36953,-2.589457 -3.73772,-1.375257 -7.66936,-2.269003 -11.22015,-4.07284 -2.64484,-1.343605 -5.06374,-3.207829 -6.78954,-5.620724 -1.7258,-2.412896 -2.72187,-5.399625 -2.48501,-8.356708 0.28517,-3.560286 2.32964,-6.821019 5.04183,-9.145018 2.71219,-2.323999 6.04995,-3.801729 9.44613,-4.907586 5.22918,-1.702713 10.7694,-2.598169 16.24899,-2.131746 5.4796,0.466422 10.89947,2.343803 15.2092,5.759899 3.37526,2.675392 6.0057,6.238624 7.78071,10.16284 1.77501,3.924216 2.7098,8.202719 2.96661,12.502042 0.29429,4.926839 -0.29049,9.882838 -1.43994,14.682748 -0.39233,1.63832 -0.85095,3.26463 -1.09948,4.93084 -0.24854,1.66621 -0.28104,3.39101 0.17298,5.01332 0.54042,1.93105 1.76527,3.64345 3.34444,4.87925 1.57918,1.2358 3.49924,2.00544 5.47824,2.32878 3.958,0.64667 8.02176,-0.46471 11.63878,-2.19709 5.58636,-2.6756 10.34871,-6.77944 14.91985,-10.95928 4.57113,-4.17984 9.06618,-8.51687 14.32292,-11.793 12.13603,-7.563466 27.02323,-8.76148 40.7845,-12.649486 13.84162,-3.910709 26.75383,-10.650783 38.75523,-18.578622 12.0354,-7.950299 23.6228,-17.308056 37.5478,-21.069921 6.3563,-1.717158 12.9698,-2.192961 19.4845,-3.147033 6.5146,-0.954072 13.1056,-2.451398 18.681,-5.953692 4.1058,-2.579155 7.4934,-6.142181 10.6752,-9.800798 3.1819,-3.658617 6.2213,-7.468287 9.8272,-10.709732 3.6059,-3.241445 7.869,-5.926657 12.628,-6.854683 2.3795,-0.464013 4.8591,-0.476104 7.2176,0.08498 2.3585,0.561085 4.5915,1.705885 6.3422,3.382931 2.4752,2.371089 3.8609,5.634436 5.0979,8.831083 5.0947,13.165203 8.7695,26.829699 13.2616,40.212484 7.2186,21.505511 16.5406,42.262448 23.647,63.805318 11.7281,35.55353 17.2804,72.78459 24.1232,109.59189 6.2497,33.61727 13.6271,67.13621 16.2048,101.23218 3.4789,46.016 -1.8149,92.71064 6.1919,138.15805 1.1728,6.65676 2.6296,13.27402 3.3297,19.99694 0.7001,6.72293 0.624,13.61611 -1.2304,20.11604 -1.1016,3.86116 -2.8417,7.57204 -5.3711,10.69041 -2.7419,3.38034 -6.3222,5.97191 -9.9639,8.35575 -3.6417,2.38384 -7.4075,4.61511 -10.7124,7.44749 -7.3968,6.33921 -12.0442,15.31265 -15.4007,24.45766 -9.9083,26.9954 -9.8966,56.45349 -10.2585,85.20753 -0.8816,70.04085 -4.6866,140.04486 -11.4017,209.76864"
       id="path897"
       inkscape:path-effect="#path-effect899"
       inkscape:original-d="m 635.39191,862.91243 c -1.16239,-53.5338 -2.32578,-107.0686 -3.49017,-160.60441 -1.16439,-53.5358 -8.79858,-111.33166 -13.19937,-166.99899 -4.40079,-55.66733 21.04874,-62.75855 31.57161,-94.13933 10.52287,-31.38078 20.52981,-43.94558 30.79321,-65.91987 10.2634,-21.97429 14.36607,-32.14104 21.54761,-48.21306 7.18153,-16.07202 9.80007,-32.78526 14.6986,-49.17939 4.89854,-16.39413 12.22862,-35.49675 18.34143,-53.24662 6.11281,-17.74987 -1.17654,-29.4066 -1.76631,-44.11141 -0.58977,-14.7048 15.01941,-20.44829 22.52761,-30.67394 7.5082,-10.22565 33.51135,-17.69972 50.26552,-26.55108 16.75418,-8.85136 15.49186,-3.44402 23.23629,-5.16753 7.74444,-1.72351 8.07595,4.40834 12.11242,6.61101 4.03647,2.20266 12.81951,21.6089 19.22777,32.41185 6.40825,10.80296 17.79178,26.29751 26.68618,39.44477 8.89439,13.14725 10.43192,9.27037 15.64638,13.90405 5.21446,4.63369 2.08688,-4.19114 3.12883,-6.28822 1.04194,-2.09707 -8.73309,-18.74608 -13.10114,-28.12062 -4.36804,-9.37455 -19.82966,-25.71371 -29.74599,-38.57206 -9.91633,-12.85835 -2.43906,-12.04854 -3.66009,-18.07431 -1.22103,-6.02577 -1.90713,-8.96402 -2.8622,-13.44753 -0.95506,-4.48351 -13.90009,-7.190526 -20.85164,-10.787287 -6.95154,-3.596761 -6.18203,-9.317288 -9.27455,-13.977432 -3.09251,-4.660144 9.65964,-9.367402 14.48796,-14.052604 4.82831,-4.685201 20.97312,2.419769 31.45819,3.628153 10.48506,1.208384 7.16588,15.110922 10.74732,22.664882 3.58143,7.553958 -0.95896,9.789498 -1.43994,14.682748 -0.48098,4.89325 -0.61666,6.63044 -0.9265,9.94416 -0.30983,3.31372 13.64198,3.34163 20.46146,5.01094 6.81949,1.66931 19.49618,-15.16718 29.24277,-22.75228 9.74658,-7.58509 27.19067,-8.431989 40.7845,-12.649486 13.59384,-4.217496 25.8378,-12.384748 38.75523,-18.578622 12.9174,-6.193874 25.0329,-14.045614 37.5478,-21.069921 12.515,-7.024307 25.4447,-6.06615 38.1655,-9.100725 12.7208,-3.034575 31.1278,-15.930534 46.6902,-23.897301 15.5625,-7.9667674 3.3996,5.888389 5.0979,8.831083 1.6983,2.942695 8.8421,26.809323 13.2616,40.212484 4.4195,13.403162 15.7657,42.537878 23.647,63.805318 7.8813,21.26743 16.0831,73.06226 24.1232,109.59189 8.0401,36.52963 10.8042,67.48912 16.2048,101.23218 5.4006,33.74306 4.1289,92.10637 6.1919,138.15805 2.0629,46.05168 1.4005,26.74299 2.0993,40.11298 0.6987,13.37 -3.5797,7.12794 -5.3711,10.69041 -1.7914,3.56247 -13.7832,10.5365 -20.6763,15.80324 -6.8931,5.26675 -10.2661,16.30611 -15.4007,24.45766 -5.1346,8.15155 -6.838,56.80602 -10.2585,85.20753 -3.4205,28.40151 -7.6001,139.84676 -11.4017,209.76864" />
  </g>
</svg>
