<?xml version="1.0" encoding="UTF-8" standalone="no"?>
<!-- Created with Inkscape (http://www.inkscape.org/) -->

<svg
   version="1.1"
   id="svg2"
   width="1893"
   height="1024"
   viewBox="0 0 1893 1024"
   xmlns:xlink="http://www.w3.org/1999/xlink"
   xmlns="http://www.w3.org/2000/svg"
   xmlns:svg="http://www.w3.org/2000/svg">
  <defs
     id="defs6" />
  <g
     id="g8">
    
    <path
       style="font-variation-settings:normal;opacity:1;vector-effect:none;fill:none;fill-opacity:1;stroke:#c86487;stroke-width:1px;stroke-linecap:butt;stroke-linejoin:miter;stroke-miterlimit:4;stroke-dasharray:none;stroke-dashoffset:0;stroke-opacity:1;-inkscape-stroke:none;stop-color:#000000;stop-opacity:1"
       d="m 1161.2826,862.8463 -525.997,-0.44218"
       id="path860" />
    <path
       style="font-variation-settings:normal;opacity:1;vector-effect:none;fill:none;fill-opacity:1;stroke:#c86487;stroke-width:1px;stroke-linecap:butt;stroke-linejoin:miter;stroke-miterlimit:4;stroke-dasharray:none;stroke-dashoffset:0;stroke-opacity:1;-inkscape-stroke:none;stop-color:#000000;stop-opacity:1"
       d="m 635.2856,862.40412 c -33.75023,-58.98319 -52.12514,-126.6774 -52.83042,-194.63031 -0.5692,-54.84148 10.15624,-109.31659 26.00846,-161.82011 14.33525,-47.47922 32.88986,-93.72246 44.36229,-141.97346 4.53245,-19.06268 8.1015,-38.80117 18.04402,-55.68533 4.74443,-8.05688 10.82598,-15.24566 15.8667,-23.12057 5.04072,-7.87491 9.10665,-16.77624 9.09478,-26.12626 -0.008,-6.06581 -1.72938,-11.99057 -3.6367,-17.74871 -1.90435,-5.74916 -4.00856,-11.43044 -5.92446,-17.17576 -3.05152,-9.15078 -5.64709,-18.88611 -3.7987,-28.35352 1.07699,-5.51633 3.64453,-10.68534 7.06522,-15.14502 3.42069,-4.45967 7.67902,-8.23197 12.287,-11.4501 15.97841,-11.15905 35.87452,-15.63696 51.84223,-26.81131 3.99145,-2.79325 7.74271,-6.00754 12.15569,-8.07141 2.20649,-1.03194 4.57376,-1.76449 7.00342,-1.93843 2.42966,-0.17394 4.92667,0.22941 7.08637,1.35598 2.60216,1.35738 4.58239,3.67801 6.13156,6.17076 1.54917,2.49274 2.72801,5.19559 4.15958,7.75769 5.79596,10.37312 15.40001,17.94713 24.21499,25.91525 8.09999,7.32181 15.70927,15.18737 22.74413,23.53779 3.55828,4.2237 6.96876,8.57001 10.51703,12.80212 2.14395,2.55714 4.40401,5.12651 7.3338,6.72395 1.01912,0.55566 2.11249,0.98662 3.25305,1.20224 1.14056,0.21562 2.33011,0.21181 3.45269,-0.0834 2.07261,-0.54514 3.83711,-2.11211 4.67839,-4.08319 0.79978,-1.87385 0.78072,-4.02373 0.27164,-5.99649 -0.50908,-1.97277 -1.47963,-3.79496 -2.5431,-5.53277 -8.15651,-13.32856 -21.71897,-22.23919 -32.81068,-33.24614 -13.62696,-13.52282 -23.68173,-30.41726 -38.01959,-43.18387 -4.03386,-3.5918 -8.3838,-6.83424 -12.20083,-10.65566 -3.81703,-3.82143 -7.13888,-8.33694 -8.52928,-13.55612 -0.75834,-2.846579 -0.91917,-5.861697 -0.37118,-8.756139 0.54799,-2.894441 1.81305,-5.662503 3.71816,-7.909418 1.92402,-2.269213 4.4679,-3.975324 7.22796,-5.085834 1.93551,-0.778753 3.99658,-1.27596 6.08223,-1.328154 2.08565,-0.05219 4.19718,0.350596 6.06028,1.289494 3.24692,1.636268 5.4981,4.741202 7.22652,7.940022 1.72841,3.19882 3.07665,6.621671 5.1829,9.585383 2.18357,3.072516 5.10109,5.537436 8.03157,7.908226 2.93047,2.37079 5.93105,4.70605 8.35046,7.59652 2.97659,3.55614 4.96484,7.82313 6.73986,12.10747 0.88897,2.14569 1.75639,4.34941 3.23936,6.13688 0.74149,0.89374 1.63532,1.6728 2.66947,2.2011 1.03415,0.5283 2.21342,0.79773 3.36838,0.67677 1.35859,-0.14228 2.61206,-0.80832 3.71239,-1.61781 1.10033,-0.8095 2.08135,-1.7694 3.15491,-2.61408 2.66208,-2.09452 5.83133,-3.43502 9.00985,-4.60578 3.17852,-1.17076 6.42536,-2.20373 9.42197,-3.78297 6.57603,-3.46562 11.5698,-9.35136 17.92685,-13.20397 7.37108,-4.46716 16.0976,-5.94273 24.42929,-8.14984 11.50122,-3.046743 22.56147,-7.617464 33.16192,-13.020347 22.20708,-11.318601 42.36142,-26.231318 63.79317,-38.957087 18.4145,-10.934179 38.0904,-20.487599 53.1876,-35.677241 0.625,-0.628783 1.2446,-1.2695 1.9588,-1.794727 0.7142,-0.5252277 1.5362,-0.9345407 2.4169,-1.0360484 0.9205,-0.1060933 1.8638,0.1339702 2.6677,0.5947392 0.8039,0.4607692 1.4738,1.1334822 2.0059,1.8919922 1.0644,1.517021 1.5788,3.338885 2.1701,5.095165 4.2728,12.690298 13.1985,23.214617 19.3862,35.089527 7.9224,15.204046 11.2137,32.316544 16.5192,48.619257 6.2273,19.1351 15.2601,37.2171 22.8529,55.85258 22.9111,56.23233 32.4814,116.84253 42.1162,176.79386 8.4077,52.31535 17.0199,104.9516 15.9553,157.92755 -0.057,2.81672 -0.1421,5.64766 -0.6749,8.41412 -0.5328,2.76645 -1.5357,5.48709 -3.2671,7.70955 -2.0492,2.63034 -4.9774,4.40689 -7.8607,6.08156 -2.8833,1.67467 -5.8491,3.35424 -8.0474,5.86129 -2.9622,3.37826 -4.2339,7.95895 -4.5018,12.44397 -0.2679,4.48503 0.3759,8.96659 0.7909,13.4404 3.0631,33.01968 -6.2962,65.73016 -12.2285,98.35668 -13.2099,72.65221 -9.3665,148.34912 11.1341,219.28973"
       id="path897" />
  </g>
</svg>
