<?xml version="1.0" encoding="UTF-8" standalone="no"?>
<!-- Created with Inkscape (http://www.inkscape.org/) -->

<svg
   version="1.1"
   id="svg2"
   width="1893"
   height="1024"
   viewBox="0 0 1893 1024"
   sodipodi:docname="frame_0099.svg"
   inkscape:version="1.1.2 (0a00cf5339, 2022-02-04)"
   xmlns:inkscape="http://www.inkscape.org/namespaces/inkscape"
   xmlns:sodipodi="http://sodipodi.sourceforge.net/DTD/sodipodi-0.dtd"
   xmlns:xlink="http://www.w3.org/1999/xlink"
   xmlns="http://www.w3.org/2000/svg"
   xmlns:svg="http://www.w3.org/2000/svg">
  <defs
     id="defs6">
    <inkscape:path-effect
       effect="spiro"
       id="path-effect899"
       is_visible="true"
       lpeversion="1" />
    <inkscape:path-effect
       effect="spiro"
       id="path-effect862"
       is_visible="true"
       lpeversion="1" />
  </defs>
  <sodipodi:namedview
     id="namedview4"
     pagecolor="#ffffff"
     bordercolor="#666666"
     borderopacity="1.0"
     inkscape:pageshadow="2"
     inkscape:pageopacity="0.0"
     inkscape:pagecheckerboard="0"
     showgrid="false"
     inkscape:zoom="2.681458"
     inkscape:cx="1212.4001"
     inkscape:cy="818.39805"
     inkscape:window-width="1850"
     inkscape:window-height="1016"
     inkscape:window-x="70"
     inkscape:window-y="27"
     inkscape:window-maximized="1"
     inkscape:current-layer="g8" />
  <g
     inkscape:groupmode="layer"
     inkscape:label="Image"
     id="g8">
    
    <path
       style="font-variation-settings:normal;opacity:1;vector-effect:none;fill:none;fill-opacity:1;stroke:#c86487;stroke-width:1px;stroke-linecap:butt;stroke-linejoin:miter;stroke-miterlimit:4;stroke-dasharray:none;stroke-dashoffset:0;stroke-opacity:1;-inkscape-stroke:none;stop-color:#000000;stop-opacity:1"
       d="M 1161.9383,863.20468 635.56335,862.74857"
       id="path860"
       inkscape:path-effect="#path-effect862"
       inkscape:original-d="M 1161.9383,863.20468 635.56335,862.74857" />
    <path
       style="font-variation-settings:normal;opacity:1;vector-effect:none;fill:none;fill-opacity:1;stroke:#c86487;stroke-width:1px;stroke-linecap:butt;stroke-linejoin:miter;stroke-miterlimit:4;stroke-dasharray:none;stroke-dashoffset:0;stroke-opacity:1;-inkscape-stroke:none;stop-color:#000000;stop-opacity:1"
       d="M 635.56335,862.74857 C 635.4091,805.14066 630.69747,747.54555 621.48696,690.6785 616.02645,656.96453 608.96064,623.13816 610.4674,589.01809 c 2.04993,-46.41995 19.79062,-90.50087 36.73775,-133.76527 7.46083,-19.04677 14.81385,-38.13857 21.69054,-57.40394 5.04777,-14.14158 9.89182,-28.49172 17.57761,-41.39106 5.50335,-9.23648 12.40566,-17.62354 17.35784,-27.16688 9.96404,-19.20168 11.33916,-41.57405 17.47324,-62.31916 4.3782,-14.80682 11.20111,-28.81867 15.2854,-43.70924 3.46526,-12.63372 4.91154,-25.97283 2.76498,-38.89611 -0.74548,-4.48811 -1.91836,-8.90607 -2.43209,-13.42658 -0.51374,-4.5205 -0.33059,-9.2465 1.53318,-13.39683 2.06022,-4.58778 6.00857,-8.09326 10.31802,-10.68572 4.30946,-2.59245 9.03675,-4.39602 13.59063,-6.53013 10.24436,-4.80086 19.64639,-11.29366 30.02596,-15.79475 5.18979,-2.25054 10.63459,-3.99775 16.24918,-4.68712 5.61459,-0.68936 11.41542,-0.29311 16.73601,1.62786 7.48035,2.70073 13.60674,8.23 18.81039,14.24429 8.49658,9.8202 15.01183,21.15675 21.92795,32.14746 7.15722,11.37384 14.79691,22.45036 23.05989,33.04815 3.57064,4.57957 7.2637,9.07644 11.34609,13.20633 1.10475,1.11761 2.26493,2.22715 3.68479,2.9006 0.70993,0.33673 1.48017,0.5585 2.26512,0.59378 0.78494,0.0353 1.585,-0.12107 2.27369,-0.49934 0.91437,-0.50223 1.59505,-1.38016 1.94938,-2.36136 0.35433,-0.9812 0.39676,-2.05866 0.22206,-3.08715 -0.3494,-2.05698 -1.51807,-3.86774 -2.65509,-5.61714 -4.93857,-7.5984 -9.77357,-15.26357 -14.58891,-22.94065 -5.96052,-9.50284 -11.90974,-19.0506 -18.94176,-27.79031 -5.52053,-6.86116 -11.74768,-13.28481 -15.81274,-21.0968 -3.72719,-7.16268 -5.48621,-15.37047 -4.79841,-23.41552 0.17548,-2.05254 0.50668,-4.095 0.53236,-6.15487 0.0257,-2.05987 -0.27407,-4.17547 -1.27823,-5.974186 -1.13234,-2.028308 -3.08898,-3.505618 -5.22356,-4.422008 -2.13459,-0.916389 -4.45264,-1.317331 -6.759,-1.594709 -5.10302,-0.613723 -10.41299,-0.694225 -15.07466,-2.859012 -3.02889,-1.406555 -5.67808,-3.702122 -7.29262,-6.625443 -1.61455,-2.923321 -2.1408,-6.478697 -1.21326,-9.686848 0.54497,-1.884948 1.56785,-3.614465 2.8589,-5.092034 1.29106,-1.477568 2.84625,-2.709858 4.51168,-3.747346 3.33085,-2.074976 7.07424,-3.370603 10.70458,-4.860809 3.99549,-1.640094 8.02083,-3.564236 12.3379,-3.693688 2.15853,-0.06473 4.36165,0.34519 6.242,1.407152 1.88034,1.061962 3.41165,2.812368 3.98707,4.893801 0.40526,1.465934 0.33176,3.023665 0.10482,4.527559 -0.22694,1.503894 -0.60334,2.98329 -0.79849,4.491639 -0.29143,2.252602 -0.16584,4.588826 0.62254,6.718991 0.78838,2.130166 2.27689,4.040632 4.28316,5.105535 2.29658,1.218996 5.0091,1.248978 7.60023,1.464133 1.29557,0.107578 2.59556,0.270129 3.8348,0.663008 1.23924,0.392879 2.42288,1.028663 3.3139,1.97531 1.00502,1.067766 1.59184,2.491576 1.77017,3.947046 0.17833,1.455471 -0.0354,2.941517 -0.48188,4.33824 -0.893,2.793445 -2.67141,5.199349 -4.24504,7.674119 -2.09833,3.29995 -3.90377,6.90778 -4.30752,10.79747 -0.20187,1.94484 -0.0419,3.93969 0.58877,5.79047 0.63068,1.85079 1.74375,3.55238 3.26788,4.7772 1.97385,1.58622 4.55132,2.30596 7.08349,2.32424 2.53216,0.0183 5.0308,-0.62382 7.39676,-1.52628 8.58942,-3.27631 15.43665,-9.81776 22.82883,-15.28292 17.658,-13.054849 38.86296,-20.192378 59.50355,-27.689048 20.36908,-7.398056 40.56557,-15.339399 60.09497,-24.732588 22.4617,-10.803531 44.1387,-23.612577 62.8345,-40.096265 3.6836,-3.247752 7.2926,-6.66693 11.5936,-9.0371096 2.1506,-1.1850896 4.4673,-2.0968233 6.8856,-2.5218872 2.4184,-0.4250639 4.9429,-0.3524177 7.2869,0.379066 2.5758,0.8038423 4.8586,2.3732547 6.8325,4.2130398 4.2487,3.960043 7.1573,9.161243 9.3484,14.540104 2.8223,6.92829 4.5519,14.241274 6.6127,21.432905 4.3908,15.322737 10.326,30.200415 17.6522,44.356433 6.1654,11.91306 13.406,23.55846 16.2326,36.67117 2.9341,13.61144 0.883,27.78737 2.2192,41.64721 1.8113,18.78759 9.749,36.34878 15.0472,54.46461 7.4332,25.41576 9.6769,52.00493 13.8956,78.14714 3.9949,24.75562 9.7925,49.28609 11.5184,74.30251 2.1667,31.40616 -2.1142,63.20822 2.7775,94.30666 1.0428,6.62962 2.5023,13.22422 2.7287,19.93154 0.2836,8.40222 -1.4447,16.95369 -5.5818,24.27228 -1.3865,2.45274 -3.0495,4.77443 -5.137,6.66668 -2.6323,2.38612 -5.8531,4.01714 -9.0993,5.46123 -3.2461,1.4441 -6.5761,2.73844 -9.6178,4.57441 -5.4103,3.26566 -9.721,8.15586 -12.9235,13.60375 -3.2026,5.4479 -5.3489,11.45503 -7.0473,17.54203 -8.2152,29.44343 -6.1859,60.61672 -5.0798,91.16475 2.5301,69.87618 -0.1306,139.93976 -7.953,209.4228"
       id="path897"
       inkscape:path-effect="#path-effect899"
       inkscape:original-d="m 635.56335,862.74857 c -4.69113,-57.35569 -9.38326,-114.71238 -14.07639,-172.07007 -4.69314,-57.35769 -7.34537,-67.77261 -11.01956,-101.66041 -3.67418,-33.88781 24.49283,-89.17585 36.73775,-133.76527 12.24491,-44.58943 14.46136,-38.26829 21.69054,-57.40394 7.22919,-19.13564 11.71941,-27.59304 17.57761,-41.39106 5.8582,-13.79802 11.57289,-18.11025 17.35784,-27.16688 5.78494,-9.05663 11.64983,-41.5451 17.47324,-62.31916 5.82341,-20.77405 10.19127,-29.13849 15.2854,-43.70924 5.09413,-14.57075 1.84432,-25.92974 2.76498,-38.89611 0.92066,-12.96637 -0.59827,-17.88128 -0.89891,-26.82341 -0.30064,-8.94214 15.9401,-11.47623 23.90865,-17.21585 7.96855,-5.73962 42.00843,-12.56834 63.01115,-18.85401 21.00271,-6.28567 12.54126,9.49719 18.81039,14.24429 6.26913,4.74709 14.61963,21.43264 21.92795,32.14746 7.30832,10.71482 15.37426,22.0331 23.05989,33.04815 7.68563,11.01505 7.56506,8.80522 11.34609,13.20633 3.78103,4.40111 5.4834,1.99769 8.2236,2.99504 2.74021,0.99735 -0.32144,-7.3761 -0.48365,-11.06565 -0.16222,-3.68955 -9.72494,-15.29277 -14.58891,-22.94065 -4.86396,-7.64789 -12.62684,-18.52587 -18.94176,-27.79031 -6.31492,-9.26444 -10.54082,-14.06353 -15.81274,-21.0968 -5.27191,-7.03327 -3.19794,-15.60935 -4.79841,-23.41552 -1.60048,-7.80617 -0.49625,-8.08504 -0.74587,-12.129056 -0.24962,-4.044019 -7.98737,-4.010145 -11.98256,-6.016717 -3.99519,-2.006573 -10.04877,-1.905008 -15.07466,-2.859012 -5.02588,-0.954004 -5.66958,-10.873861 -8.50588,-16.312291 -2.83629,-5.438431 12.05111,-9.132459 18.07516,-13.700189 6.02405,-4.56773 15.04565,1.739177 22.56697,2.607265 7.52133,0.868089 -0.46145,6.013799 -0.69367,9.019198 -0.23222,3.0054 3.27147,7.884018 4.9057,11.824526 1.63423,3.940509 9.83362,2.735968 14.74893,4.102451 4.91531,1.366484 -1.97017,10.640601 -2.95675,15.959405 -0.98659,5.3188 -0.29958,14.24443 -0.45087,21.36514 -0.15129,7.12071 9.6545,0.53298 14.48025,0.79796 4.82575,0.26499 15.22022,-10.18761 22.82883,-15.28292 7.60861,-5.09531 39.67003,-18.458367 59.50355,-27.689048 19.83352,-9.230681 40.06427,-16.487392 60.09497,-24.732588 20.0307,-8.245196 41.8907,-26.729843 62.8345,-40.096265 20.9438,-13.3664212 17.1784,-7.452287 25.7661,-11.1799308 8.5877,-3.7276437 4.556,2.809693 6.8325,4.2130398 2.2765,1.403346 6.2333,9.694402 9.3484,14.540104 3.1151,4.845701 4.4094,14.289603 6.6127,21.432905 2.2032,7.143302 11.7691,29.571955 17.6522,44.356433 5.883,14.78448 10.8227,24.44845 16.2326,36.67117 5.4099,12.22273 1.4805,27.76581 2.2192,41.64721 0.7387,13.8814 10.0325,36.31074 15.0472,54.46461 5.0148,18.15387 9.2648,52.09909 13.8956,78.14714 4.6309,26.04805 7.6799,49.53601 11.5184,74.30251 3.8384,24.76651 1.8527,62.87211 2.7775,94.30666 0.9249,31.43455 1.8201,13.28869 2.7287,19.93154 0.9085,6.64284 -3.7202,16.18252 -5.5818,24.27228 -1.8616,8.08977 -3.4236,4.44545 -5.137,6.66668 -1.7133,2.22122 -12.477,6.69143 -18.7171,10.03564 -6.24,3.34421 -13.3129,20.76486 -19.9708,31.14578 -6.658,10.38093 -3.3855,60.7775 -5.0798,91.16475 -1.6943,30.38725 -5.301,139.6162 -7.953,209.4228" />
  </g>
</svg>
