<?xml version="1.0" encoding="UTF-8" standalone="no"?>
<!-- Created with Inkscape (http://www.inkscape.org/) -->

<svg
   version="1.1"
   id="svg2"
   width="1893"
   height="1024"
   viewBox="0 0 1893 1024"
   sodipodi:docname="frame_0039.svg"
   inkscape:version="1.1.2 (0a00cf5339, 2022-02-04)"
   xmlns:inkscape="http://www.inkscape.org/namespaces/inkscape"
   xmlns:sodipodi="http://sodipodi.sourceforge.net/DTD/sodipodi-0.dtd"
   xmlns:xlink="http://www.w3.org/1999/xlink"
   xmlns="http://www.w3.org/2000/svg"
   xmlns:svg="http://www.w3.org/2000/svg">
  <defs
     id="defs6">
    <inkscape:path-effect
       effect="spiro"
       id="path-effect899"
       is_visible="true"
       lpeversion="1" />
    <inkscape:path-effect
       effect="spiro"
       id="path-effect862"
       is_visible="true"
       lpeversion="1" />
  </defs>
  <sodipodi:namedview
     id="namedview4"
     pagecolor="#ffffff"
     bordercolor="#666666"
     borderopacity="1.0"
     inkscape:pageshadow="2"
     inkscape:pageopacity="0.0"
     inkscape:pagecheckerboard="0"
     showgrid="false"
     inkscape:zoom="0.6703645"
     inkscape:cx="997.96454"
     inkscape:cy="594.45272"
     inkscape:window-width="1850"
     inkscape:window-height="1016"
     inkscape:window-x="70"
     inkscape:window-y="27"
     inkscape:window-maximized="1"
     inkscape:current-layer="g8" />
  <g
     inkscape:groupmode="layer"
     inkscape:label="Image"
     id="g8">
    
    <path
       style="font-variation-settings:normal;opacity:1;vector-effect:none;fill:none;fill-opacity:1;stroke:#c86487;stroke-width:1px;stroke-linecap:butt;stroke-linejoin:miter;stroke-miterlimit:4;stroke-dasharray:none;stroke-dashoffset:0;stroke-opacity:1;-inkscape-stroke:none;stop-color:#000000;stop-opacity:1"
       d="m 1160.5711,862.79986 -525.11413,-0.1058"
       id="path860"
       inkscape:path-effect="#path-effect862"
       inkscape:original-d="m 1160.5711,862.79986 -525.11413,-0.1058" />
    <path
       style="font-variation-settings:normal;opacity:1;vector-effect:none;fill:none;fill-opacity:1;stroke:#c86487;stroke-width:1px;stroke-linecap:butt;stroke-linejoin:miter;stroke-miterlimit:4;stroke-dasharray:none;stroke-dashoffset:0;stroke-opacity:1;-inkscape-stroke:none;stop-color:#000000;stop-opacity:1"
       d="m 635.45697,862.69406 c -12.31393,-43.56786 -22.93863,-87.61313 -31.84221,-132.00364 -9.66204,-48.17191 -17.29539,-97.91578 -8.37908,-146.23128 5.52463,-29.93677 17.24581,-58.35826 24.69283,-87.87561 6.21985,-24.65325 9.48654,-50.16527 18.62344,-73.8926 7.66633,-19.90845 19.28428,-38.06577 27.61994,-57.70338 8.36333,-19.70282 13.32432,-40.65401 20.18401,-60.92939 4.11783,-12.17118 8.91971,-24.09736 13.54108,-36.0864 4.36663,-11.32818 8.60987,-22.86573 9.89611,-34.93804 0.97415,-9.14314 0.20346,-18.51165 -2.6546,-27.25107 -1.63667,-5.00464 -3.96253,-9.86117 -4.5056,-15.09855 -0.6522,-6.2898 1.38169,-12.67095 4.8496,-17.95873 3.4679,-5.28778 8.29531,-9.56518 13.49168,-13.16861 16.21474,-11.24412 35.89238,-16.18297 53.50296,-25.08327 3.24698,-1.64101 6.44956,-3.42808 9.92299,-4.51027 3.47343,-1.08219 7.31081,-1.41403 10.71172,-0.12187 2.41567,0.91782 4.47572,2.60067 6.22112,4.5063 1.74539,1.90563 3.21106,4.04566 4.75955,6.11448 10.30098,13.76235 24.2707,24.37997 35.05883,37.76387 8.2379,10.22005 14.5967,22.02073 24.11146,31.06405 2.71209,2.57771 5.67322,4.92313 8.02062,7.83685 0.73338,0.91031 1.40359,1.87244 2.18247,2.74415 0.77887,0.87171 1.68213,1.66056 2.75479,2.12523 1.00175,0.43395 2.14521,0.56619 3.20228,0.29338 1.05706,-0.27282 2.01464,-0.96564 2.53706,-1.92423 0.3665,-0.67248 0.51325,-1.45358 0.47543,-2.21851 -0.0378,-0.76494 -0.25488,-1.51451 -0.57721,-2.20925 -0.64466,-1.38947 -1.69002,-2.54558 -2.69333,-3.70299 -7.1099,-8.20194 -12.7959,-17.51592 -19.06979,-26.37373 -12.64921,-17.85881 -27.69,-33.86387 -41.97614,-50.44234 -9.71304,-11.27157 -19.13257,-22.88425 -26.71201,-35.688288 -2.15166,-3.634825 -4.18226,-7.447051 -4.8855,-11.612029 -0.35162,-2.08249 -0.35969,-4.236471 0.11977,-6.293292 0.47947,-2.056821 1.45906,-4.01383 2.92486,-5.534299 1.44107,-1.494817 3.32113,-2.536009 5.31972,-3.098886 1.99858,-0.562876 4.11278,-0.659096 6.17525,-0.419579 3.58371,0.416179 6.98641,1.823647 10.14962,3.558657 6.85796,3.761565 12.89252,9.244371 16.57356,16.145884 2.64965,4.967783 4.01707,10.499042 5.95632,15.784752 1.93926,5.28572 4.62762,10.55467 9.15052,13.90772 2.93469,2.17563 6.50875,3.41683 10.14192,3.79875 3.63316,0.38193 7.32525,-0.0721 10.84241,-1.0597 6.63836,-1.864 12.60277,-5.56811 18.23304,-9.54835 5.63026,-3.98025 11.0537,-8.29801 17.0929,-11.62522 15.68854,-8.643383 34.2394,-9.977449 51.35918,-15.245398 16.32444,-5.023212 31.34416,-13.64829 45.24038,-23.578798 13.63328,-9.742637 26.30168,-20.779345 39.90118,-30.569062 13.5996,-9.789716 28.3567,-18.415605 44.5969,-22.543862 1.819,-0.462394 3.6833,-0.869944 5.5563,-0.750176 2.5179,0.161003 4.9299,1.294101 6.7997,2.988059 1.8698,1.693957 3.2132,3.924746 4.0307,6.311668 1.4651,4.277528 1.2686,8.921147 1.0522,13.437438 -0.2163,4.516291 -0.419,9.158579 1.035,13.439871 1.1651,3.43048 3.3375,6.434509 5.7629,9.125792 2.4254,2.691283 5.1267,5.121367 7.5879,7.77993 11.9934,12.95503 17.5766,30.434702 22.5622,47.370448 8.0242,27.25789 15.3994,54.71282 21.7337,82.41223 16.1695,70.70809 25.516,142.84368 31.2068,215.15345 2.2476,28.55941 3.9445,57.28025 9.8961,85.30293 0.9459,4.45381 2.0042,8.93838 1.9238,13.49082 -0.04,2.27622 -0.3703,4.55881 -1.1236,6.70716 -0.7532,2.14834 -1.9392,4.16135 -3.5631,5.7569 -1.7125,1.68261 -3.8523,2.8556 -5.9991,3.93044 -2.1467,1.07484 -4.3467,2.08319 -6.2785,3.50861 -2.744,2.02469 -4.832,4.8065 -6.6819,7.67124 -1.8499,2.86474 -3.5096,5.86243 -5.6078,8.55069 -1.8161,2.32683 -3.9391,4.39399 -5.8807,6.61717 -1.9416,2.22319 -3.728,4.65147 -4.7075,7.43586 -1.2916,3.67153 -1.0892,7.71869 -0.2792,11.52555 0.8101,3.80686 2.201,7.46224 3.2727,11.20387 4.4847,15.65722 3.2742,32.30037 2.1668,48.54951 -5.2954,77.69711 -7.3622,155.61421 -6.1933,233.48279"
       id="path897"
       inkscape:path-effect="#path-effect899"
       inkscape:original-d="m 635.45697,862.69406 c -10.61307,-44.00021 -21.22714,-88.00143 -31.84221,-132.00364 -10.61507,-44.00221 -5.58505,-97.48652 -8.37908,-146.23128 -2.79402,-48.74476 16.46289,-58.58274 24.69283,-87.87561 8.22994,-29.29287 12.41663,-49.26073 18.62344,-73.8926 6.20682,-24.63186 18.41429,-38.46792 27.61994,-57.70338 9.20564,-19.23546 13.457,-40.61859 20.18401,-60.92939 6.727,-20.31079 9.02838,-24.0566 13.54108,-36.0864 4.51269,-12.0298 6.59841,-23.29103 9.89611,-34.93804 3.2977,-11.64701 -1.76873,-18.16638 -2.6546,-27.25107 -0.88587,-9.08469 -3.00273,-10.0647 -4.5056,-15.09855 -1.50287,-5.03385 12.22852,-20.75056 18.34128,-31.12734 6.11276,-10.37678 35.66964,-16.72118 53.50296,-25.08327 17.83332,-8.36209 13.75748,-3.0871 20.63471,-4.63214 6.87724,-1.54505 7.32145,7.08152 10.98067,10.62078 3.65922,3.53926 23.37355,25.17691 35.05883,37.76387 11.68527,12.58695 16.07531,20.71037 24.11146,31.06405 8.03616,10.35369 5.34808,5.22557 8.02062,7.83685 2.67254,2.61129 3.29251,3.24726 4.93726,4.86938 1.64475,1.62213 3.82723,-1.08623 5.73934,-1.63085 1.91211,-0.54462 -1.86241,-5.4195 -2.79511,-8.13075 -0.9327,-2.71124 -12.7122,-17.58149 -19.06979,-26.37373 -6.3576,-8.79225 -27.9831,-33.62723 -41.97614,-50.44234 -13.99305,-16.81511 -17.80701,-23.79119 -26.71201,-35.688288 -8.90501,-11.897098 -1.22625,-15.625414 -1.84087,-23.43962 -0.61462,-7.814207 7.66432,-2.344644 11.49497,-3.518465 3.83066,-1.173822 6.76741,2.373438 10.14962,3.558657 3.3822,1.185219 11.05004,10.764922 16.57356,16.145884 5.52352,5.380961 10.07223,19.795982 15.10684,29.692472 5.03462,9.89649 13.99055,1.82704 20.98433,2.73905 6.99377,0.91202 23.55163,-14.11472 35.32594,-21.17357 11.77432,-7.058864 34.24045,-10.162601 51.35918,-15.245398 17.11872,-5.082798 30.16125,-15.718199 45.24038,-23.578798 15.07908,-7.860599 56.33298,-35.407616 84.49808,-53.112924 28.165,-17.7053078 3.7052,-0.499117 5.5563,-0.750176 1.8511,-0.251059 7.2212,6.200818 10.8304,9.299727 3.6091,3.09891 1.3925,17.919206 2.0872,26.877309 0.6948,8.958103 8.9015,11.271482 13.3508,16.905722 4.4493,5.634241 15.0425,31.581299 22.5622,47.370448 7.5197,15.78915 14.4902,54.94248 21.7337,82.41223 7.2436,27.46974 20.8055,143.43663 31.2068,215.15345 10.4012,71.71682 6.5984,56.86962 9.8961,85.30293 3.2977,28.4333 -1.8409,17.30425 -2.7629,25.95488 -0.922,8.65062 -8.1841,4.96037 -12.2776,7.43905 -4.0936,2.47869 -8.1921,10.81562 -12.2897,16.22193 -4.0975,5.40631 -7.0578,9.36969 -10.5882,14.05303 -3.5304,4.68334 1.7218,19.6013 2.9935,22.72942 1.2717,3.12813 1.7204,27.92 2.1668,48.54951 0.4464,20.62952 -4.1279,155.65619 -6.1933,233.48279"
       sodipodi:nodetypes="csssssssssssssssssssssssssssssssssssssssssssssssc" />
  </g>
</svg>
