<?xml version="1.0" encoding="UTF-8" standalone="no"?>
<!-- Created with Inkscape (http://www.inkscape.org/) -->

<svg
   version="1.1"
   id="svg2"
   width="1893"
   height="1024"
   viewBox="0 0 1893 1024"
   sodipodi:docname="frame_0090.svg"
   inkscape:version="1.1.2 (0a00cf5339, 2022-02-04)"
   xmlns:inkscape="http://www.inkscape.org/namespaces/inkscape"
   xmlns:sodipodi="http://sodipodi.sourceforge.net/DTD/sodipodi-0.dtd"
   xmlns:xlink="http://www.w3.org/1999/xlink"
   xmlns="http://www.w3.org/2000/svg"
   xmlns:svg="http://www.w3.org/2000/svg">
  <defs
     id="defs6">
    <inkscape:path-effect
       effect="spiro"
       id="path-effect866"
       is_visible="true"
       lpeversion="1" />
    <inkscape:path-effect
       effect="spiro"
       id="path-effect862"
       is_visible="true"
       lpeversion="1" />
  </defs>
  <sodipodi:namedview
     id="namedview4"
     pagecolor="#ffffff"
     bordercolor="#666666"
     borderopacity="1.0"
     inkscape:pageshadow="2"
     inkscape:pageopacity="0.0"
     inkscape:pagecheckerboard="0"
     showgrid="false"
     inkscape:zoom="1.8960771"
     inkscape:cx="1232.0174"
     inkscape:cy="782.93228"
     inkscape:window-width="1850"
     inkscape:window-height="1016"
     inkscape:window-x="70"
     inkscape:window-y="27"
     inkscape:window-maximized="1"
     inkscape:current-layer="g8" />
  <g
     inkscape:groupmode="layer"
     inkscape:label="Image"
     id="g8">
    
    <path
       style="font-variation-settings:normal;opacity:1;vector-effect:none;fill:none;fill-opacity:1;stroke:#c86487;stroke-width:1px;stroke-linecap:butt;stroke-linejoin:miter;stroke-miterlimit:4;stroke-dasharray:none;stroke-dashoffset:0;stroke-opacity:1;-inkscape-stroke:none;stop-color:#000000;stop-opacity:1"
       d="m 1160.4723,862.82162 -524.41293,0.0577"
       id="path860"
       inkscape:path-effect="#path-effect862"
       inkscape:original-d="m 1160.4723,862.82162 c -174.80331,0.0202 -349.60762,0.0395 -524.41293,0.0577" />
    <path
       style="font-variation-settings:normal;opacity:1;vector-effect:none;fill:none;fill-opacity:1;stroke:#c86487;stroke-width:1px;stroke-linecap:butt;stroke-linejoin:miter;stroke-miterlimit:4;stroke-dasharray:none;stroke-dashoffset:0;stroke-opacity:1;-inkscape-stroke:none;stop-color:#000000;stop-opacity:1"
       d="m 636.05937,862.87932 c -8.63854,-61.02183 -16.44115,-122.16199 -23.4049,-183.39755 -4.46789,-39.28831 -8.59669,-78.80353 -6.7043,-118.29975 1.89238,-39.49623 10.04908,-79.2544 28.86921,-114.02991 17.57683,-32.47815 44.2481,-60.42101 55.03318,-95.74037 2.68363,-8.78845 4.31565,-17.85607 6.29102,-26.83029 5.33916,-24.25614 13.22897,-47.95533 23.58374,-70.53066 4.43816,-9.67603 9.39964,-19.38561 10.63428,-29.95909 0.98912,-8.47084 -0.47932,-17.01286 -1.884,-25.42478 -1.40468,-8.41192 -2.75273,-16.99134 -1.52618,-25.43107 1.18645,-8.1638 4.84576,-15.98024 10.50056,-21.98678 5.79875,-6.15944 13.44518,-10.26365 21.25484,-13.51532 7.80966,-3.25168 15.92559,-5.76183 23.59331,-9.33538 6.29481,-2.9337 12.27983,-6.58015 18.83832,-8.86431 3.27925,-1.14208 6.69989,-1.93617 10.16942,-2.07811 3.46954,-0.14194 6.99458,0.384 10.17105,1.78681 5.626,2.48459 9.70978,7.45014 13.44799,12.33387 11.1886,14.61718 21.25831,30.05332 32.02566,44.98352 4.5279,6.27846 9.18457,12.47416 14.26786,18.31206 1.20463,1.38346 2.48092,2.78278 4.14467,3.55545 0.83188,0.38633 1.75272,0.60364 2.66805,0.54482 0.91532,-0.0588 1.82313,-0.40578 2.49056,-1.03492 0.78482,-0.73979 1.19177,-1.83006 1.21103,-2.90842 0.0193,-1.07836 -0.32525,-2.14243 -0.86108,-3.07844 -1.07166,-1.87203 -2.84296,-3.21506 -4.41667,-4.69031 -5.85577,-5.48942 -9.17723,-13.06833 -12.97775,-20.13797 -5.87938,-10.9367 -13.19433,-21.04028 -20.92382,-30.75796 -1.62295,-2.0404 -3.27117,-4.07398 -4.60532,-6.3139 -1.33416,-2.23992 -2.35295,-4.71314 -2.60063,-7.30849 -0.34125,-3.57582 0.80927,-7.17121 2.62666,-10.2696 1.05735,-1.80263 2.33977,-3.47189 3.29953,-5.32832 0.95977,-1.85643 1.59072,-3.97996 1.20886,-6.03463 -0.39163,-2.107239 -1.83817,-3.929834 -3.65538,-5.066318 -1.8172,-1.136483 -3.97486,-1.638206 -6.11515,-1.752125 -4.28059,-0.227838 -8.52014,1.01885 -12.80661,0.979938 -4.80409,-0.04361 -9.64236,-1.805816 -13.089,-5.152737 -2.68953,-2.611716 -4.47525,-6.14261 -4.96041,-9.860035 -0.48516,-3.717426 0.33812,-7.59651 2.31244,-10.78347 1.97431,-3.18696 5.08904,-5.655587 8.65045,-6.826497 3.5614,-1.17091 7.54235,-1.02996 11.00264,0.412609 3.39228,1.414215 6.15962,3.960338 8.98153,6.314999 5.38651,4.494621 11.21139,8.441281 17.20146,12.09302 2.49489,1.520965 5.03393,3.001883 7.26044,4.8941 2.2265,1.892217 4.14968,4.245967 5.05687,7.023522 0.96624,2.958349 0.72057,6.154415 0.5594,9.262384 -0.21615,4.16834 -0.2761,8.42813 -1.67819,12.35953 -0.625,1.75247 -1.51152,3.42064 -1.90825,5.23844 -0.19836,0.90889 -0.27025,1.85406 -0.11596,2.77147 0.15429,0.91741 0.5442,1.80724 1.18502,2.48162 0.725,0.76297 1.73422,1.21375 2.76869,1.40769 1.03447,0.19394 2.09946,0.14745 3.14565,0.0324 7.30077,-0.80249 13.82221,-4.8241 19.79095,-9.10421 5.07887,-3.64199 9.96564,-7.54595 15.04188,-11.1916 7.02539,-5.04548 14.45547,-9.614958 22.50319,-12.78469 17.71045,-6.975567 37.55336,-6.87445 55.37567,-13.559064 10.20853,-3.828916 19.49955,-9.801167 28.04765,-16.56912 9.4708,-7.498544 18.423,-16.195277 29.7643,-20.35453 7.9353,-2.910165 16.5799,-3.403383 24.579,-6.133373 8.6196,-2.941766 16.1616,-8.365231 23.2072,-14.136936 7.0455,-5.771704 13.7717,-11.991202 21.4365,-16.9109208 0.8369,-0.537163 1.6877,-1.0601486 2.5996,-1.4569159 0.9119,-0.3967672 1.8913,-0.6656515 2.8857,-0.6722805 1.0111,-0.00674 2.0157,0.2599539 2.9192,0.7139882 0.9034,0.4540343 1.7079,1.0918642 2.4021,1.827082 1.3882,1.4704356 2.3246,3.3029573 3.1704,5.139823 2.9773,6.465887 5.0587,13.299233 7.2714,20.064993 15.6976,47.997579 38.4185,93.684794 50.7313,142.660064 6.8936,27.42008 10.4397,55.55347 13.9811,83.60417 5.794,45.89373 11.6185,91.81022 14.9745,137.94635 2.1917,30.13017 3.3315,60.36142 7.057,90.34061 0.2722,2.19068 0.5588,4.38955 0.5107,6.59655 -0.048,2.20701 -0.4454,4.44174 -1.4709,6.39661 -1.3806,2.63174 -3.8001,4.57721 -6.3779,6.05607 -2.5778,1.47887 -5.3622,2.56311 -7.9873,3.95638 -6.2133,3.29775 -11.4501,8.31458 -15.3343,14.17912 -3.4988,5.28262 -5.913,11.21006 -7.8998,17.22673 -12.0458,36.47921 -8.8057,75.94044 -7.7592,114.34278 1.8962,69.58682 -3.8927,139.38035 -17.2278,207.70383"
       id="path864"
       inkscape:path-effect="#path-effect866"
       inkscape:original-d="m 636.05937,862.87932 c -7.80063,-61.13152 -15.60227,-122.26403 -23.4049,-183.39755 -7.80263,-61.13351 14.7776,-154.88544 22.16491,-232.32966 7.3873,-77.44422 36.68979,-63.82591 55.03318,-95.74037 18.3434,-31.91445 4.19501,-17.88586 6.29102,-26.83029 2.09601,-8.94444 15.72349,-47.01944 23.58374,-70.53066 7.86024,-23.51122 7.09052,-19.97173 10.63428,-29.95909 3.54376,-9.98737 -2.27246,-33.9029 -3.41018,-50.85585 -1.13773,-16.95295 7.00137,-14.65685 10.50056,-21.98678 3.49919,-7.32992 29.89977,-15.2328 44.84815,-22.8507 14.94838,-7.6179 26.1202,-6.10274 39.17879,-9.15561 13.0586,-3.05287 8.96632,8.22358 13.44799,12.33387 4.48166,4.11028 21.35144,29.99001 32.02566,44.98352 10.67422,14.99351 9.51291,12.20904 14.26786,18.31206 4.75495,6.10302 6.20318,2.04457 9.30328,3.06535 3.10009,1.02078 -2.71015,-7.11711 -4.06672,-10.67717 -1.35657,-3.56005 -8.65083,-13.42431 -12.97775,-20.13797 -4.32691,-6.71365 -13.94821,-20.5043 -20.92382,-30.75796 -6.97561,-10.25365 -4.80296,-9.08059 -7.20595,-13.62239 -2.40298,-4.54179 1.75211,-6.8454 2.62666,-10.2696 0.87455,-3.42421 3.00659,-7.5743 4.50839,-11.36295 1.50179,-3.788644 -15.05043,-3.891335 -22.57714,-5.838505 -7.52671,-1.94717 -8.725,-3.434158 -13.089,-5.152737 -4.36399,-1.718579 11.33775,-18.037262 17.00512,-27.057393 5.66738,-9.02013 5.98869,4.210999 8.98153,6.314999 2.99284,2.103999 11.46864,8.063013 17.20146,12.09302 5.73282,4.030007 8.21254,7.946082 12.31731,11.917622 4.10477,3.971541 0.37393,6.175925 0.5594,9.262384 0.18547,3.08647 -1.11779,8.24069 -1.67819,12.35953 -0.5604,4.11884 -0.55846,6.99535 -0.83919,10.49153 -0.28073,3.49617 3.94389,0.96109 5.91434,1.44014 1.97044,0.47905 13.19496,-6.06847 19.79095,-9.10421 6.59598,-3.03574 10.02892,-7.46007 15.04188,-11.1916 5.01296,-3.73154 15.00313,-8.522127 22.50319,-12.78469 7.50007,-4.262562 36.91811,-9.038376 55.37567,-13.559064 18.45755,-4.520689 18.69945,-11.04508 28.04765,-16.56912 9.3482,-5.52404 19.8438,-13.568687 29.7643,-20.35453 9.9204,-6.785844 16.387,-4.087915 24.579,-6.133373 8.192,-2.045457 29.7635,-20.697571 44.6437,-31.0478568 14.8802,-10.3502857 3.6579,-1.4184643 5.4853,-2.1291964 1.8274,-0.7107321 5.6621,5.1215956 8.4917,7.6808932 2.8295,2.559298 4.8486,13.377662 7.2714,20.064993 2.4228,6.687331 33.8218,95.107714 50.7313,142.660064 16.9094,47.55236 9.3217,55.73712 13.9811,83.60417 4.6594,27.86706 9.984,91.96524 14.9745,137.94635 4.9905,45.98112 4.7056,60.22807 7.057,90.34061 2.3513,30.11253 -0.6391,8.66311 -0.9602,12.99316 -0.321,4.33006 -9.5758,6.67597 -14.3652,10.01245 -4.7894,3.33649 -10.2219,9.45375 -15.3343,14.17912 -5.1124,4.72538 -5.2655,11.48549 -7.8998,17.22673 -2.6342,5.74124 -5.1718,76.22952 -7.7592,114.34278 -2.5874,38.11326 -11.4842,138.47022 -17.2278,207.70383" />
  </g>
</svg>
