<?xml version="1.0" encoding="UTF-8" standalone="no"?>
<!-- Created with Inkscape (http://www.inkscape.org/) -->

<svg
   version="1.1"
   id="svg884"
   width="1893"
   height="1024"
   viewBox="0 0 1893 1024"
   sodipodi:docname="frame_0000.svg"
   inkscape:version="1.1.2 (0a00cf5339, 2022-02-04)"
   xmlns:inkscape="http://www.inkscape.org/namespaces/inkscape"
   xmlns:sodipodi="http://sodipodi.sourceforge.net/DTD/sodipodi-0.dtd"
   xmlns:xlink="http://www.w3.org/1999/xlink"
   xmlns="http://www.w3.org/2000/svg"
   xmlns:svg="http://www.w3.org/2000/svg">
  <defs
     id="defs888">
    <inkscape:path-effect
       effect="spiro"
       id="path-effect2076"
       is_visible="true"
       lpeversion="1" />
    <inkscape:path-effect
       effect="spiro"
       id="path-effect1432"
       is_visible="true"
       lpeversion="1" />
    <inkscape:path-effect
       effect="spiro"
       id="path-effect1229"
       is_visible="true"
       lpeversion="1" />
    <inkscape:path-effect
       effect="spiro"
       id="path-effect1159"
       is_visible="true"
       lpeversion="1" />
    <inkscape:path-effect
       effect="spiro"
       id="path-effect1042"
       is_visible="true"
       lpeversion="1" />
  </defs>
  <sodipodi:namedview
     id="namedview886"
     pagecolor="#ffffff"
     bordercolor="#666666"
     borderopacity="1.0"
     inkscape:pageshadow="2"
     inkscape:pageopacity="0.0"
     inkscape:pagecheckerboard="0"
     showgrid="false"
     inkscape:zoom="2.1003698"
     inkscape:cx="1120.2789"
     inkscape:cy="782.48126"
     inkscape:window-width="1850"
     inkscape:window-height="1016"
     inkscape:window-x="70"
     inkscape:window-y="27"
     inkscape:window-maximized="1"
     inkscape:current-layer="g890" />
  <g
     inkscape:groupmode="layer"
     inkscape:label="Image"
     id="g890">
    
    <path
       style="fill:none;stroke:#c86487;stroke-width:1px;stroke-linecap:butt;stroke-linejoin:miter;stroke-opacity:1"
       d="m 1160.1794,862.63042 -8.338,-344.03434"
       id="path1040"
       inkscape:path-effect="#path-effect1042"
       inkscape:original-d="m 1160.1794,862.63042 -8.338,-344.03434"
       sodipodi:nodetypes="cc" />
    <path
       style="fill:none;stroke:#c86487;stroke-width:1px;stroke-linecap:butt;stroke-linejoin:miter;stroke-opacity:1"
       d="m 1151.8414,518.59608 24.8444,-17.76476 -34.1947,-232.96196"
       id="path1157"
       inkscape:path-effect="#path-effect1159"
       inkscape:original-d="m 1151.8414,518.59608 24.8444,-17.76476 -34.1947,-232.96196" />
    <path
       style="fill:none;stroke:#c86487;stroke-width:1px;stroke-linecap:butt;stroke-linejoin:miter;stroke-opacity:1"
       d="m 1142.4911,267.86936 c -10.9001,-43.20787 -23.4681,-85.99495 -37.6667,-128.23395 -7.5516,-22.46519 -15.5634,-44.772693 -23.6209,-67.061432 -4.9418,-13.670061 -9.9141,-27.364554 -16.3024,-40.421432 -1.9493,-3.984065 -4.0633,-7.954708 -7.0712,-11.214301 -3.0079,-3.259592 -7.0334,-5.778838 -11.4527,-6.156444 -3.2811,-0.280356 -6.5702,0.626884 -9.5587,2.009861 -2.9886,1.382977 -5.732,3.233032 -8.5291,4.970897 -17.6612,10.972896 -37.65252,17.573211 -56.13407,27.099765 -21.48804,11.076284 -40.78067,26.027055 -62.16344,37.305207 -25.89659,13.658925 -55.06747,22.087389 -77.2373,41.210639 -3.65784,3.15518 -7.17055,6.63089 -11.55894,8.65005 -2.1942,1.00958 -4.59561,1.6309 -7.00999,1.56364 -2.41438,-0.0673 -4.84122,-0.85515 -6.68935,-2.41019 -2.07257,-1.74389 -3.28686,-4.30597 -4.08317,-6.8949 -0.79632,-2.58893 -1.2368,-5.28013 -2.10025,-7.84745 -1.82044,-5.41277 -5.43084,-10.02841 -9.24265,-14.28073 -3.8118,-4.25231 -7.91667,-8.294069 -11.03393,-13.078914 -1.93938,-2.976863 -3.48515,-6.225421 -5.7515,-8.961589 -1.13317,-1.368084 -2.44866,-2.602516 -3.97783,-3.506592 -1.52918,-0.904076 -3.28172,-1.468152 -5.05815,-1.462602 -2.46363,0.0077 -4.82363,1.104908 -6.77107,2.613881 -1.94744,1.508974 -3.54053,3.418068 -5.12606,5.303702 -2.47091,2.938594 -5.00652,5.929847 -6.41459,9.501686 -0.70404,1.785919 -1.11099,3.705138 -1.03413,5.623288 0.0769,1.91814 0.65348,3.83514 1.7763,5.3922 1.03513,1.43545 2.49022,2.51925 4.0265,3.39781 1.53628,0.87856 3.17006,1.57241 4.74482,2.37998 6.23065,3.19521 11.42173,8.11138 15.99166,13.41667 3.8991,4.52652 7.40596,9.37329 11.04597,14.11066 9.70428,12.62982 20.38026,24.50996 31.86295,35.54777 4.89961,4.70978 9.95599,9.277 14.43236,14.39073 4.47638,5.11373 8.39043,10.8339 10.631,17.25013 0.38887,1.11359 0.72846,2.2562 0.81694,3.43241 0.0885,1.17621 -0.0886,2.39743 -0.67783,3.41927 -0.58025,1.00633 -1.53663,1.7692 -2.60835,2.21731 -1.07173,0.44811 -2.25377,0.59468 -3.41401,0.53785 -3.19878,-0.15667 -6.16627,-1.82098 -8.54137,-3.96938 -2.37509,-2.1484 -4.25439,-4.77594 -6.21748,-7.30636 -8.89327,-11.4634 -19.77681,-21.22336 -30.97874,-30.4438 -6.3962,-5.26479 -13.04514,-10.51727 -17.44688,-17.53539 -1.96218,-3.12849 -3.43129,-6.54123 -5.31871,-9.71539 -1.88741,-3.17415 -4.28807,-6.18356 -7.54834,-7.91799 -3.8101,-2.02693 -8.39068,-2.09007 -12.63482,-1.3074 -4.24414,0.78268 -8.30047,2.34662 -12.47529,3.44033 -8.85117,2.31881 -18.30759,2.54882 -26.65006,6.30693 -7.09291,3.19521 -12.8778,8.73974 -17.81339,14.75296 -4.93559,6.01322 -9.16291,12.58018 -14.08606,18.60358 -2.74036,3.35279 -5.69613,6.53707 -8.20748,10.06466 -2.51136,3.5276 -4.59052,7.46396 -5.30734,11.73444 -0.60876,3.62673 -0.20722,7.38504 0.89039,10.89489 0.81855,2.61749 2.01295,5.09958 3.22544,7.55949 1.67941,3.4072 3.41361,6.82313 4.39369,10.49313 1.37559,5.15102 1.21831,10.63065 2.73971,15.7405 0.68653,2.30582 1.70397,4.497 2.56602,6.7431 0.86206,2.2461 1.57648,4.59046 1.61313,6.99603 0.0385,2.52755 -0.67609,5.01744 -1.69038,7.33287 -1.01429,2.31544 -2.32628,4.48565 -3.55834,6.69292 -4.13791,7.41316 -7.39115,15.27866 -10.93257,22.99459 -4.30737,9.38476 -9.08035,18.64646 -11.70334,28.63381 -2.55773,9.73887 -3.02294,20.00451 -6.40768,29.48772 -2.07858,5.82367 -5.20811,11.20458 -7.84749,16.79648 -4.31458,9.14105 -7.31351,18.83364 -10.56515,28.40449 -3.26068,9.59746 -6.78746,19.10272 -10.06546,28.69428 -47.63198,139.37334 -40.04013,296.79955 20.78214,430.9427"
       id="path1227"
       inkscape:path-effect="#path-effect1229"
       inkscape:original-d="m 1142.4911,267.86936 c -12.5546,-42.74365 -25.1101,-85.4883 -37.6667,-128.23395 -12.5566,-42.745645 -15.7463,-44.70662 -23.6209,-67.061432 -7.8747,-22.354812 -10.8673,-26.946621 -16.3024,-40.421432 -5.4352,-13.47481 -13.2162,-12.038583 -18.5239,-17.370745 -5.3076,-5.3321617 -13.1811,5.654447 -18.0878,6.980758 -4.9067,1.326311 -45.63437,22.037847 -56.13407,27.099765 -10.49983,5.061918 -44.50526,26.054233 -62.16344,37.305207 -203.96158,129.954859 -52.13025,26.261839 -77.2373,41.210639 -25.10705,14.9488 -19.44937,5.92675 -25.25828,7.8035 -5.8089,1.87675 -2.36298,-8.87378 -6.18342,-14.74235 -3.82045,-5.86858 -12.02379,-18.70271 -20.27658,-27.359644 -8.2528,-8.65693 -9.85732,-9.286188 -14.78748,-13.930783 -4.93016,-4.644594 -7.93042,5.279389 -11.89713,7.917583 -3.96671,2.638195 -3.78062,13.679114 -5.67242,20.517174 -1.89181,6.83806 5.84855,3.85286 8.77132,5.77779 2.92278,1.92493 10.6621,8.94545 15.99166,13.41667 5.32955,4.47122 7.36498,9.40811 11.04597,14.11066 3.68099,4.70255 21.24296,23.69951 31.86295,35.54777 10.61998,11.84825 16.70991,21.09491 25.06336,31.64086 8.35346,10.54596 0.0937,4.56879 0.13911,6.85168 0.0454,2.28289 -4.0139,1.83778 -6.02236,2.75516 -2.00845,0.91739 -9.83823,-7.51616 -14.75885,-11.27574 -4.92062,-3.75958 -20.65149,-20.29486 -30.97874,-30.4438 -10.32724,-10.14893 -11.63025,-11.68926 -17.44688,-17.53539 -5.81662,-5.84613 -8.57703,-11.75459 -12.86705,-17.63338 -4.29002,-5.8788 -16.73907,1.42295 -25.11011,2.13293 -8.37103,0.70998 -17.76571,4.20562 -26.65006,6.30693 -8.88436,2.10131 -22.95128,22.23869 -31.89945,33.35654 -8.94816,11.11785 -9.00888,14.53373 -13.51482,21.7991 -4.50594,7.26537 2.28058,7.26426 0.89039,10.89489 -1.39019,3.63064 2.15129,5.04066 3.22544,7.55949 1.07415,2.51882 2.93013,6.99642 4.39369,10.49313 1.46357,3.49672 1.82747,10.49467 2.73971,15.7405 0.91223,5.24584 2.7871,9.16042 4.17915,13.73913 1.39205,4.57871 -3.49814,9.35152 -5.24872,14.02579 -1.75057,4.67426 -7.28738,15.33073 -10.93257,22.99459 -3.6452,7.66387 -7.80123,19.09021 -11.70334,28.63381 -3.90211,9.5436 -4.27079,19.65948 -6.40768,29.48772 -2.1369,9.82824 -5.23066,11.19865 -7.84749,16.79648 -2.61683,5.59783 -7.04243,18.93732 -10.56515,28.40449 -3.52271,9.46716 -8.60495,18.6639 -10.06546,28.69428 -20.72208,142.31376 39.94349,281.03804 20.78214,430.9427"
       sodipodi:nodetypes="cssssssscssssssssssssssssssssssssssssssssac" />
    <path
       style="fill:none;stroke:#c86487;stroke-width:1px;stroke-linecap:butt;stroke-linejoin:miter;stroke-opacity:1"
       d="m 635.74544,862.79843 524.43396,-0.16801"
       id="path1430"
       inkscape:path-effect="#path-effect1432"
       inkscape:original-d="m 635.74544,862.79843 524.43396,-0.16801"
       sodipodi:nodetypes="cc" />
  </g>
</svg>
