<?xml version="1.0" encoding="UTF-8" standalone="no"?>
<!-- Created with Inkscape (http://www.inkscape.org/) -->

<svg
   version="1.1"
   id="svg2"
   width="1893"
   height="1024"
   viewBox="0 0 1893 1024"
   sodipodi:docname="frame_0070.svg"
   inkscape:version="1.1.2 (0a00cf5339, 2022-02-04)"
   xmlns:inkscape="http://www.inkscape.org/namespaces/inkscape"
   xmlns:sodipodi="http://sodipodi.sourceforge.net/DTD/sodipodi-0.dtd"
   xmlns:xlink="http://www.w3.org/1999/xlink"
   xmlns="http://www.w3.org/2000/svg"
   xmlns:svg="http://www.w3.org/2000/svg">
  <defs
     id="defs6">
    <inkscape:path-effect
       effect="spiro"
       id="path-effect932"
       is_visible="true"
       lpeversion="1" />
    <inkscape:path-effect
       effect="spiro"
       id="path-effect895"
       is_visible="true"
       lpeversion="1" />
  </defs>
  <sodipodi:namedview
     id="namedview4"
     pagecolor="#ffffff"
     bordercolor="#666666"
     borderopacity="1.0"
     inkscape:pageshadow="2"
     inkscape:pageopacity="0.0"
     inkscape:pagecheckerboard="0"
     showgrid="false"
     inkscape:zoom="0.47401928"
     inkscape:cx="1232.0174"
     inkscape:cy="642.37893"
     inkscape:window-width="1850"
     inkscape:window-height="1016"
     inkscape:window-x="70"
     inkscape:window-y="27"
     inkscape:window-maximized="1"
     inkscape:current-layer="g8" />
  <g
     inkscape:groupmode="layer"
     inkscape:label="Image"
     id="g8">
    
    <path
       style="font-variation-settings:normal;opacity:1;vector-effect:none;fill:none;fill-opacity:1;stroke:#c86487;stroke-width:1px;stroke-linecap:butt;stroke-linejoin:miter;stroke-miterlimit:4;stroke-dasharray:none;stroke-dashoffset:0;stroke-opacity:1;-inkscape-stroke:none;stop-color:#000000;stop-opacity:1"
       d="m 1160.929,862.31055 -525.19596,0.32839"
       id="path893"
       inkscape:path-effect="#path-effect895"
       inkscape:original-d="m 1160.929,862.31055 -525.19596,0.32839" />
    <path
       style="font-variation-settings:normal;opacity:1;vector-effect:none;fill:none;fill-opacity:1;stroke:#c86487;stroke-width:1px;stroke-linecap:butt;stroke-linejoin:miter;stroke-miterlimit:4;stroke-dasharray:none;stroke-dashoffset:0;stroke-opacity:1;-inkscape-stroke:none;stop-color:#000000;stop-opacity:1"
       d="M 635.73304,862.63894 C 623.58433,791.9284 617.41722,720.19116 617.31917,648.44465 c -0.0612,-44.76651 2.24406,-89.60602 8.86655,-133.88002 3.64081,-24.3403 8.5981,-48.5416 16.24087,-71.93591 6.58318,-20.15094 15.1331,-39.62222 24.76019,-58.50919 8.44641,-16.57063 17.74534,-32.74798 24.8418,-49.94007 12.17195,-29.48812 17.59039,-61.26642 27.056,-91.73129 4.72151,-15.19606 10.52038,-30.45865 10.39988,-46.37086 -0.0488,-6.44889 -1.07778,-12.85596 -1.23428,-19.30314 -0.1565,-6.44717 0.63639,-13.13514 3.92008,-18.68563 3.49962,-5.91549 9.47774,-9.95245 15.67261,-12.9297 6.19486,-2.97726 12.78748,-5.096 18.86555,-8.30496 9.04253,-4.77407 16.74748,-11.85575 25.9667,-16.27899 4.6096,-2.21162 9.62485,-3.73885 14.7374,-3.77861 5.11255,-0.0397 10.33494,1.50255 14.20543,4.84307 2.57805,2.22505 4.46984,5.14763 5.96715,8.20626 1.49731,3.05864 2.63042,6.27971 3.92589,9.42914 3.74133,9.09556 8.87542,17.64069 15.36075,25.03442 6.93389,7.90512 15.30153,14.39617 23.03671,21.51914 7.73517,7.12298 15.01638,15.1444 18.91282,24.91105 0.77981,1.95465 1.42593,3.98208 2.52883,5.77438 0.55146,0.89615 1.21745,1.72908 2.02529,2.40331 0.80784,0.67422 1.76208,1.18652 2.79045,1.40934 1.13417,0.24575 2.33978,0.13023 3.41738,-0.30047 1.0776,-0.43071 2.02509,-1.1718 2.72543,-2.09714 1.19103,-1.57366 1.63787,-3.63952 1.42795,-5.60189 -0.20993,-1.96236 -1.03884,-3.82412 -2.17054,-5.44097 -2.26339,-3.2337 -5.63919,-5.47451 -8.65083,-8.02594 -8.45471,-7.16273 -14.19047,-16.95217 -19.52202,-26.66615 -5.33156,-9.71397 -10.53191,-19.70387 -18.25106,-27.65381 -2.69317,-2.77369 -5.66754,-5.26973 -8.26735,-8.1311 -2.59981,-2.86138 -4.85308,-6.17263 -5.73148,-9.93759 -0.74333,-3.18604 -0.46522,-6.50787 -0.27806,-9.77411 0.18717,-3.26625 0.26532,-6.63083 -0.84383,-9.70868 -0.61079,-1.69492 -1.57941,-3.26666 -2.86123,-4.53266 -1.28182,-1.26599 -2.87895,-2.22062 -4.61734,-2.693703 -3.01703,-0.821048 -6.20727,-0.174708 -9.3155,0.165072 -1.55412,0.169891 -3.12886,0.261311 -4.67794,0.05036 -1.54907,-0.210956 -3.08084,-0.739676 -4.3089,-1.707157 -1.00642,-0.792868 -1.78189,-1.86166 -2.29089,-3.03743 -0.50899,-1.175769 -0.7567,-2.456276 -0.79666,-3.736868 -0.0799,-2.561183 0.65616,-5.079879 1.58428,-7.468319 1.42219,-3.659902 3.33395,-7.165477 5.95412,-10.089889 2.62018,-2.924412 5.98082,-5.250439 9.76422,-6.300862 2.86204,-0.794616 5.96747,-0.836288 8.77519,0.132905 2.80773,0.969194 5.28611,2.992319 6.57464,5.668576 0.97546,2.026014 1.24556,4.306261 1.57159,6.531111 0.32603,2.22485 0.74668,4.507321 1.96527,6.397107 0.83069,1.288235 2.00262,2.335629 3.30815,3.138873 1.30553,0.803244 2.74434,1.370685 4.21209,1.812633 2.93549,0.883896 6.00858,1.279977 8.90235,2.292159 2.55858,0.894942 4.98452,2.297989 6.77694,4.331328 1.79243,2.033339 2.90332,4.738235 2.70748,7.441735 -0.12533,1.73009 -0.76288,3.37676 -1.40481,4.98823 -0.64194,1.61148 -1.30228,3.24528 -1.47717,4.97107 -0.21828,2.15389 0.35218,4.35914 1.47863,6.20792 1.12645,1.84879 2.79046,3.34581 4.68724,4.38941 3.18412,1.75189 7.08407,2.21296 10.54831,1.11443 2.09753,-0.66514 3.99919,-1.86848 5.64176,-3.33273 1.64257,-1.46425 3.03709,-3.187 4.30341,-4.98659 2.53264,-3.59916 4.59381,-7.54998 7.52356,-10.834 5.13667,-5.75781 12.54323,-9.004128 20.00586,-10.965467 7.46263,-1.961339 15.18068,-2.804766 22.6611,-4.697141 11.71043,-2.962473 22.60756,-8.430204 33.43621,-13.782848 24.86151,-12.289167 50.12281,-24.306127 72.10611,-41.213409 8.7353,-6.718321 16.9277,-14.191328 26.2528,-20.063654 9.3251,-5.872327 20.1054,-10.1348349 31.1078,-9.5116598 1.6523,0.093583 3.3067,0.2983466 4.8939,0.7669041 1.5872,0.4685575 3.1101,1.2093078 4.3609,2.2928907 1.399,1.211993 2.421,2.824214 3.0729,4.556611 0.652,1.732397 0.9457,3.584484 1.0261,5.433754 0.1607,3.698541 -0.5153,7.378775 -0.6935,11.076517 -0.4135,8.579104 1.879,17.131839 5.5398,24.90171 3.8003,8.066092 9.0317,15.355843 13.7685,22.910086 7.4852,11.937333 13.7941,24.659486 18.1215,38.068526 4.9531,15.34794 7.2596,31.39749 10.1079,47.27136 6.1105,34.05503 14.7847,67.58725 22.8254,101.23885 4.9816,20.84871 9.7351,41.83255 11.6541,63.18208 2.4248,26.97721 0.2913,54.12521 -0.1676,81.20729 -0.4588,27.08208 0.8479,54.66445 9.8127,80.22382 1.735,4.94655 3.7706,9.88545 4.1559,15.11326 0.1926,2.61391 -0.042,5.28228 -0.9189,7.75234 -0.8765,2.47007 -2.4191,4.73515 -4.542,6.27235 -1.6838,1.21929 -3.6721,1.94994 -5.6784,2.49485 -2.0062,0.5449 -4.0572,0.9189 -6.0512,1.507 -5.406,1.5944 -10.3966,4.85779 -13.5916,9.50101 -2.7458,3.99046 -4.0748,8.81654 -4.5588,13.63619 -0.484,4.81966 -0.1682,9.67924 0.1169,14.51474 5.9348,100.64321 -1.6359,202.07432 -22.4456,300.72134"
       id="path930"
       inkscape:path-effect="#path-effect932"
       inkscape:original-d="m 635.73304,862.63894 c -6.13696,-70.89985 -12.27491,-142.79519 -18.41387,-214.19429 -6.13896,-71.3991 5.91203,-89.25235 8.86655,-133.88002 2.95451,-44.62767 10.82825,-47.95627 16.24087,-71.93591 5.41263,-23.97964 16.50779,-39.00513 24.76019,-58.50919 8.25239,-19.50407 16.5622,-33.29238 24.8418,-49.94007 8.2796,-16.64768 18.03833,-61.15319 27.056,-91.73129 9.01767,-30.57809 6.93425,-30.91291 10.39988,-46.37086 3.46563,-15.45795 1.79154,-25.32485 2.6858,-37.98877 0.89427,-12.66393 23.02644,-14.15544 34.53816,-21.23466 11.51172,-7.07922 36.60735,-10.14202 54.90953,-15.21453 18.30218,-5.07251 6.59636,11.75793 9.89304,17.6354 3.29668,5.87746 10.2415,16.69061 15.36075,25.03442 5.11925,8.34381 27.96736,30.95446 41.94953,46.43019 13.98218,15.47573 4.89738,6.39235 7.34457,9.58703 2.44719,3.19468 4.09621,-1.5974 6.14281,-2.39761 2.0466,-0.8002 -6.26128,-12.71153 -9.39342,-19.0688 -3.13213,-6.35727 -25.18105,-36.2123 -37.77308,-54.31996 -12.59202,-18.10765 -9.33155,-12.04479 -13.99883,-18.06869 -4.66728,-6.0239 -0.74693,-12.98752 -1.12189,-19.48279 -0.37497,-6.49526 -4.98471,-4.81657 -7.47857,-7.226363 -2.49386,-2.409789 -12.20056,-0.993484 -18.30234,-1.491726 -6.10179,-0.498242 -1.00118,-9.494078 -1.50327,-14.242617 -0.50209,-4.748539 10.47989,-10.926167 15.71834,-16.390751 5.23845,-5.464584 10.23422,3.868654 15.34983,5.801481 5.1156,1.932827 2.3589,8.619812 3.53686,12.928218 1.17795,4.308406 10.9494,4.83011 16.42259,7.243665 5.4732,2.413555 6.32395,7.849703 9.48442,11.773063 3.16047,3.92335 -1.92032,6.64053 -2.88198,9.9593 -0.96166,3.31876 4.11158,7.06588 6.16587,10.59733 2.05429,3.53144 7.0332,0.74395 10.54831,1.11443 3.5151,0.37048 11.64682,-12.76788 17.46873,-19.15332 5.82191,-6.38544 28.44564,-10.440738 42.66696,-15.662608 14.22132,-5.221869 22.29181,-9.187565 33.43621,-13.782848 11.1444,-4.595283 48.07171,-27.474606 72.10611,-41.213409 24.0344,-13.738803 38.2414,-19.715876 57.3606,-29.5753138 19.1192,-9.859438 6.1708,2.0408634 9.2548,3.0597948 3.0839,1.018932 2.2713,14.045588 3.4055,21.066882 1.1341,7.021294 3.6942,16.60214 5.5398,24.90171 1.8456,8.29957 9.18,15.274391 13.7685,22.910086 4.5885,7.635696 12.082,25.380016 18.1215,38.068526 6.0395,12.68851 6.7396,31.51524 10.1079,47.27136 3.3683,15.75612 15.2179,67.49357 22.8254,101.23885 7.6075,33.74528 7.7704,42.12239 11.6541,63.18208 3.8836,21.0597 6.4311,107.62174 9.6451,161.43111 3.2141,53.80937 -0.869,19.4263 -1.305,29.13795 -0.436,9.71165 -7.8187,2.6689 -11.7296,4.00185 -3.9109,1.33294 -9.0601,6.335 -13.5916,9.50101 -4.5315,3.166 -2.9603,18.76828 -4.4419,28.15093 -1.4817,9.38264 -14.9627,200.48189 -22.4456,300.72134" />
  </g>
</svg>
