<?xml version="1.0" encoding="UTF-8" standalone="no"?>
<!-- Created with Inkscape (http://www.inkscape.org/) -->

<svg
   version="1.1"
   id="svg2"
   width="1893"
   height="1024"
   viewBox="0 0 1893 1024"
   sodipodi:docname="frame_0159.svg"
   inkscape:version="1.1.2 (0a00cf5339, 2022-02-04)"
   xmlns:inkscape="http://www.inkscape.org/namespaces/inkscape"
   xmlns:sodipodi="http://sodipodi.sourceforge.net/DTD/sodipodi-0.dtd"
   xmlns:xlink="http://www.w3.org/1999/xlink"
   xmlns="http://www.w3.org/2000/svg"
   xmlns:svg="http://www.w3.org/2000/svg">
  <defs
     id="defs6">
    <inkscape:path-effect
       effect="spiro"
       id="path-effect899"
       is_visible="true"
       lpeversion="1" />
    <inkscape:path-effect
       effect="spiro"
       id="path-effect862"
       is_visible="true"
       lpeversion="1" />
  </defs>
  <sodipodi:namedview
     id="namedview4"
     pagecolor="#ffffff"
     bordercolor="#666666"
     borderopacity="1.0"
     inkscape:pageshadow="2"
     inkscape:pageopacity="0.0"
     inkscape:pagecheckerboard="0"
     showgrid="false"
     inkscape:zoom="0.6703645"
     inkscape:cx="939.78723"
     inkscape:cy="252.84752"
     inkscape:window-width="1850"
     inkscape:window-height="1016"
     inkscape:window-x="70"
     inkscape:window-y="27"
     inkscape:window-maximized="1"
     inkscape:current-layer="g8" />
  <g
     inkscape:groupmode="layer"
     inkscape:label="Image"
     id="g8">
    
    <path
       style="font-variation-settings:normal;opacity:1;vector-effect:none;fill:none;fill-opacity:1;stroke:#c86487;stroke-width:1px;stroke-linecap:butt;stroke-linejoin:miter;stroke-miterlimit:4;stroke-dasharray:none;stroke-dashoffset:0;stroke-opacity:1;-inkscape-stroke:none;stop-color:#000000;stop-opacity:1"
       d="M 1161.1086,862.47273 H 637.09743"
       id="path860"
       inkscape:path-effect="#path-effect862"
       inkscape:original-d="M 1161.1086,862.47273 H 637.09743" />
    <path
       style="font-variation-settings:normal;opacity:1;vector-effect:none;fill:none;fill-opacity:1;stroke:#c86487;stroke-width:1px;stroke-linecap:butt;stroke-linejoin:miter;stroke-miterlimit:4;stroke-dasharray:none;stroke-dashoffset:0;stroke-opacity:1;-inkscape-stroke:none;stop-color:#000000;stop-opacity:1"
       d="m 637.09743,862.47273 c 0.24464,-35.13792 -2.03423,-70.29315 -6.81325,-105.10542 -6.68925,-48.72711 -18.29435,-97.82636 -11.54325,-146.54494 4.42591,-31.93906 16.59532,-62.2652 23.51798,-93.75757 3.90828,-17.77944 6.13264,-35.87935 9.18909,-53.82486 3.77688,-22.17542 8.90856,-44.36249 18.79179,-64.56981 9.54681,-19.51948 23.3514,-36.82836 31.76325,-56.86314 5.57148,-13.26977 8.64431,-27.42556 12.72346,-41.22732 4.12866,-13.96928 9.31124,-27.63456 15.64951,-40.74993 3.98041,-8.2364 8.41918,-16.26403 11.86783,-24.73686 3.44864,-8.47283 5.90546,-17.50455 5.67996,-26.64956 -0.17102,-6.93537 -1.87242,-13.72652 -3.16916,-20.54173 -1.29674,-6.81521 -2.19008,-13.87152 -0.74968,-20.65782 1.34988,-6.35985 4.69609,-12.15253 8.75753,-17.2294 4.06144,-5.07687 8.84623,-9.51841 13.51807,-14.03989 9.09449,-8.80178 17.93021,-18.06161 28.62123,-24.83533 5.34551,-3.38686 11.14068,-6.12573 17.27571,-7.6771 6.13502,-1.55138 12.6232,-1.89045 18.80876,-0.55471 9.00499,1.94457 17.05819,7.41533 22.87661,14.55796 3.69534,4.53635 6.52661,9.69832 9.51875,14.72635 15.2635,25.64901 35.05096,48.29472 51.65786,73.09506 1.1799,1.76204 2.36618,3.56056 3.98351,4.93212 0.60743,0.51513 1.27389,0.96648 2.0022,1.28882 0.72831,0.32233 1.52061,0.51339 2.31699,0.5031 0.79639,-0.0103 1.59647,-0.22752 2.2603,-0.66759 0.66383,-0.44007 1.18367,-1.10867 1.39611,-1.87626 0.22941,-0.82889 0.0951,-1.72537 -0.21871,-2.52611 -0.31385,-0.80074 -0.79798,-1.52178 -1.28707,-2.22922 -3.00891,-4.35218 -6.35014,-8.46284 -9.5384,-12.6854 -12.22009,-16.1844 -22.17085,-33.98192 -34.31887,-50.22049 -2.64984,-3.54211 -5.40895,-7.01704 -7.69685,-10.80302 -2.28791,-3.78598 -4.10764,-7.9287 -4.68791,-12.31407 -0.77528,-5.85913 0.68958,-11.81957 0.13167,-17.70337 -0.19584,-2.065311 -0.64575,-4.119839 -1.49334,-6.013368 -0.8476,-1.893528 -2.10524,-3.62422 -3.75383,-4.883586 -2.14831,-1.641098 -4.84495,-2.408622 -7.52309,-2.777381 -2.67815,-0.368758 -5.39388,-0.373149 -8.08087,-0.670611 -2.79171,-0.309054 -5.57581,-0.945269 -8.08746,-2.202553 -2.51166,-1.257284 -4.74519,-3.169964 -6.08655,-5.63774 -1.09467,-2.013925 -1.56396,-4.348419 -1.42397,-6.636343 0.13999,-2.287925 0.87905,-4.525812 2.05032,-6.49617 2.34255,-3.940717 6.34192,-6.717707 10.67096,-8.226411 5.99762,-2.090216 12.60756,-1.899444 18.79739,-0.475923 6.18983,1.423522 12.03856,4.024973 17.79239,6.714566 3.42412,1.600586 6.85438,3.251848 9.89646,5.495112 3.04208,2.243264 5.70401,5.134788 7.12008,8.639247 1.10527,2.735285 1.41258,5.750569 1.18095,8.691613 -0.23163,2.941045 -0.9868,5.819467 -1.94271,8.610458 -0.859,2.508024 -1.88454,4.96744 -2.49299,7.54772 -0.60844,2.58028 -0.78065,5.33748 0.0674,7.84924 0.57272,1.69635 1.6446,3.27136 3.18424,4.1852 0.93724,0.55628 2.01805,0.85138 3.10571,0.92101 1.08767,0.0696 2.18275,-0.0813 3.23308,-0.3723 2.10065,-0.58198 4.00273,-1.70663 5.8877,-2.80132 6.96071,-4.0424 14.06344,-7.838 21.26083,-11.44217 19.85169,-9.940953 40.39728,-18.414032 60.838,-27.079423 10.69339,-4.533215 21.36829,-9.123748 31.80909,-14.211744 14.3733,-7.004396 28.2918,-14.9461 42.907,-21.430838 16.2857,-7.225958 33.3773,-12.616122 49.2959,-20.618469 7.6272,-3.834253 15.1429,-8.3216869 23.5542,-9.7798502 5.4566,-0.9459496 11.2407,-0.5253305 16.2542,1.8273185 6.6805,3.1349397 11.4379,9.3979117 14.5226,16.1017617 4.8461,10.531885 6.1112,22.286523 8.2532,33.680266 4.3048,22.897878 12.3298,44.898758 18.9285,67.243828 14.5352,49.22059 22.1656,100.19912 28.3573,151.14617 8.4473,69.50668 14.2978,139.33738 17.1114,209.29894 0.2474,6.1525 0.4684,12.35614 -0.5422,18.43011 -1.0106,6.07398 -3.3501,12.08245 -7.6136,16.52513 -4.9949,5.20487 -12.1943,7.8698 -17.1508,13.11127 -3.6028,3.8099 -5.7957,8.77314 -7.065,13.86078 -1.2694,5.08764 -1.6741,10.34451 -2.1195,15.56914 -2.6949,31.60971 -7.0429,63.05575 -11.8171,94.41883 -10.3724,68.13947 -22.7662,135.97123 -37.1597,203.376"
       id="path897"
       inkscape:path-effect="#path-effect899"
       inkscape:original-d="m 637.09743,862.47273 c -2.27008,-35.03414 -4.54116,-70.06928 -6.81325,-105.10542 -2.27208,-35.03614 -7.6945,-97.69563 -11.54325,-146.54494 -3.84876,-48.84931 15.67966,-62.50405 23.51798,-93.75757 7.83833,-31.25352 6.12706,-35.88224 9.18909,-53.82486 3.06202,-17.94262 12.52886,-43.04554 18.79179,-64.56981 6.26293,-21.52427 21.1765,-37.90776 31.76325,-56.86314 10.58675,-18.95539 8.36705,-27.52029 12.72346,-41.22732 4.24015,-13.34123 17.84154,-49.58946 15.64951,-40.74993 -13.86822,55.92455 10.91751,-37.88807 17.54779,-51.38642 6.63028,-13.49835 -2.61156,-27.46536 -3.91884,-41.19955 -1.30727,-13.73418 14.8514,-20.84519 22.2756,-31.26929 7.4242,-10.42409 43.13814,-22.04376 64.7057,-33.06714 21.56757,-11.02338 15.25207,9.70631 22.87661,14.55796 7.62453,4.85165 6.34683,9.81857 9.51875,14.72635 3.17192,4.90779 34.43958,48.73104 51.65786,73.09506 17.21829,24.36402 2.65668,3.28908 3.98351,4.93212 1.32684,1.64305 5.31807,-0.50028 7.9756,-0.75193 2.65753,-0.25164 -1.00285,-3.16922 -1.50578,-4.75533 -0.50293,-1.58611 -6.35793,-8.45593 -9.5384,-12.6854 -3.18047,-4.22946 -22.87825,-33.47932 -34.31887,-50.22049 -11.44062,-16.74116 -8.25551,-15.41039 -12.38476,-23.11709 -4.12926,-7.7067 0.0888,-11.80125 0.13167,-17.70337 0.0429,-5.902122 -3.49711,-7.263636 -5.24717,-10.896954 -1.75006,-3.633319 -10.40164,-2.297662 -15.60396,-3.447992 -5.20232,-1.150331 -9.44834,-5.225862 -14.17401,-7.840293 -4.72567,-2.61443 7.53254,-14.238283 11.29731,-21.358924 3.76477,-7.120642 24.39419,4.160095 36.58978,6.238643 12.19559,2.078548 11.34536,9.423906 17.01654,14.134359 5.67119,4.710453 -0.50684,11.535714 -0.76176,17.302071 -0.25492,5.76636 -1.61609,10.26564 -2.42563,15.39696 -0.80954,5.13133 2.12383,2.79114 3.18424,4.1852 1.06041,1.39407 8.15199,-1.50074 12.22649,-2.25261 4.0745,-0.75187 14.17489,-7.62712 21.26083,-11.44217 7.08594,-3.815064 40.55967,-18.05195 60.838,-27.079423 20.27829,-9.027472 21.20699,-9.473496 31.80909,-14.211744 10.602,-4.738248 28.6057,-14.286225 42.907,-21.430838 14.3014,-7.144613 32.8649,-13.744646 49.2959,-20.618469 16.4309,-6.873823 15.7038,-6.5189 23.5542,-9.7798502 7.8504,-3.2609501 10.8371,1.2192123 16.2542,1.8273185 5.4171,0.6081067 9.6827,10.7355077 14.5226,16.1017617 4.8398,5.366254 5.5031,22.45451 8.2532,33.680266 2.7501,11.225755 12.62,44.830218 18.9285,67.243828 6.3085,22.41361 18.9059,100.76512 28.3573,151.14617 9.4514,50.38106 11.4086,139.53363 17.1114,209.29894 5.7028,69.76531 -5.4362,23.30449 -8.1558,34.95524 -2.7196,11.65074 -11.4329,8.74185 -17.1508,13.11127 -5.7179,4.36943 -6.122,19.62095 -9.1845,29.42992 -3.0625,9.80897 -7.8771,62.94689 -11.8171,94.41883 -3.9401,31.47195 -24.7721,135.585 -37.1597,203.376"
       sodipodi:nodetypes="cssssssssssssssssssssssssssssssssssssssssssssssssc" />
  </g>
</svg>
