<?xml version="1.0" encoding="UTF-8" standalone="no"?>
<!-- Created with Inkscape (http://www.inkscape.org/) -->

<svg
   version="1.1"
   id="svg2"
   width="1893"
   height="1024"
   viewBox="0 0 1893 1024"
   sodipodi:docname="frame_0013.svg"
   inkscape:version="1.1.2 (0a00cf5339, 2022-02-04)"
   xmlns:inkscape="http://www.inkscape.org/namespaces/inkscape"
   xmlns:sodipodi="http://sodipodi.sourceforge.net/DTD/sodipodi-0.dtd"
   xmlns:xlink="http://www.w3.org/1999/xlink"
   xmlns="http://www.w3.org/2000/svg"
   xmlns:svg="http://www.w3.org/2000/svg">
  <sodipodi:namedview
     id="namedview8"
     pagecolor="#ffffff"
     bordercolor="#666666"
     borderopacity="1.0"
     inkscape:pageshadow="2"
     inkscape:pageopacity="0.0"
     inkscape:pagecheckerboard="0"
     showgrid="false"
     inkscape:zoom="0.94131489"
     inkscape:cx="710.70798"
     inkscape:cy="105.7032"
     inkscape:window-width="1850"
     inkscape:window-height="1016"
     inkscape:window-x="70"
     inkscape:window-y="27"
     inkscape:window-maximized="1"
     inkscape:current-layer="g8" />
  <defs
     id="defs6" />
  <g
     id="g8">
    
    <path
       style="fill:none;stroke:#c86487;stroke-width:1px;stroke-linecap:butt;stroke-linejoin:miter;stroke-opacity:1"
       d="m 1160.308,862.35662 -524.84623,-0.0947"
       id="path860"
       sodipodi:nodetypes="cc" />
    <path
       style="fill:none;stroke:#c86487;stroke-width:1px;stroke-linecap:butt;stroke-linejoin:miter;stroke-opacity:1"
       d="m 635.46177,862.26193 c -24.14125,-24.94994 -43.02092,-54.96724 -55.05437,-87.53249 -21.67014,-58.64429 2.49906,-119.69653 8.75308,-181.90292 5.47601,-54.46789 14.94196,-109.05937 35.77036,-159.68462 10.58531,-25.72851 24.07481,-50.36773 31.80564,-77.09299 4.01768,-13.889 6.44488,-28.23583 11.21477,-41.8848 7.36979,-21.08858 20.3099,-40.52102 23.02342,-62.69485 1.64135,-13.41243 -0.62106,-27.08066 -4.83755,-39.91843 -1.07602,-3.2761 -2.28146,-6.52091 -3.01,-9.89135 -0.72854,-3.37044 -0.96551,-6.91258 -0.0957,-10.24936 1.17552,-4.50959 4.28541,-8.30312 7.87763,-11.27199 3.59223,-2.96887 7.69728,-5.23869 11.61801,-7.75785 13.47948,-8.66087 24.92443,-20.37032 39.03253,-27.96432 5.12914,-2.76088 10.61191,-4.96086 16.35685,-5.92322 5.74495,-0.96236 11.77503,-0.64426 17.20142,1.47348 5.38589,2.10193 9.97191,5.87424 13.937,10.08186 3.96509,4.20761 7.39214,8.88687 11.13242,13.29552 6.05828,7.14086 12.92815,13.55987 18.99058,20.69721 8.43362,9.92896 15.26205,21.19727 24.29347,30.58576 1.61651,1.68042 3.32094,3.31261 5.33123,4.494 2.01029,1.18138 4.36966,1.88946 6.68174,1.58748 1.02693,-0.13413 2.0328,-0.46798 2.90951,-1.01931 0.87671,-0.55132 1.62087,-1.32376 2.09405,-2.245 0.74092,-1.44251 0.78028,-3.1668 0.41705,-4.74727 -0.36324,-1.58047 -1.10027,-3.04712 -1.8633,-4.47807 -11.09639,-20.80968 -28.6913,-37.2515 -43.53322,-55.57881 -6.51562,-8.04571 -12.55168,-16.52208 -19.84883,-23.86635 -6.27725,-6.31778 -13.47697,-11.78819 -18.83636,-18.90121 -2.47669,-3.28708 -4.54962,-6.94251 -5.56231,-10.931661 -0.8925,-3.5157 -0.93026,-7.278318 0.1346,-10.745707 1.06485,-3.467389 3.26588,-6.616872 6.29759,-8.608217 3.81736,-2.507395 8.73051,-3.034639 13.17853,-1.998082 4.44801,1.036557 8.459,3.523794 11.84769,6.585833 6.45416,5.832017 10.7368,13.622018 15.0003,21.204314 3.74607,6.66209 6.04088,6.64663 10.80714,12.62152 1.68509,2.11239 2.91359,14.26111 5.09483,15.85608 2.18123,1.59497 6.8992,-0.71406 9.59867,-0.59326 3.20426,0.14339 6.32805,-1.14472 9.00145,-2.91694 2.6734,-1.77222 4.98769,-4.02354 7.43569,-6.09601 14.29195,-12.09954 32.71892,-17.83249 49.72061,-25.681135 15.4131,-7.115284 29.91617,-16.129325 45.53445,-22.782151 17.18491,-7.320152 36.0838,-12.007536 50.19836,-24.242107 9.0999,-7.887793 15.5468,-18.396349 24.1701,-26.802467 4.3117,-4.203058 9.221,-7.898669 14.811,-10.136528 5.59,-2.237859 11.9166,-2.937783 17.6834,-1.205686 6.8686,2.063031 12.3484,7.334477 16.5008,13.181835 11.3996,16.052914 14.2798,36.400033 20.3437,55.131753 8.1038,25.033116 22.1949,47.758166 30.834,72.611596 8.004,23.0261 11.1694,47.39574 16.1928,71.25009 6.4283,30.52566 15.9393,60.35262 21.9094,90.97118 5.6781,29.1211 8.1172,58.7754 9.7813,88.3982 1.6176,28.79493 2.5651,57.96339 10.5691,85.67079 1.0394,3.59801 2.2076,7.24743 2.0721,10.99011 -0.068,1.87134 -0.4728,3.7481 -1.3403,5.40758 -0.8675,1.65949 -2.2158,3.09235 -3.9,3.91089 -1.3468,0.65458 -2.8574,0.90129 -4.3525,0.98513 -1.4952,0.0838 -2.995,0.0127 -4.4914,0.0697 -2.6268,0.1001 -5.2505,0.60194 -7.6755,1.61648 -2.425,1.01453 -4.6477,2.55143 -6.3442,4.55935 -1.9695,2.33104 -3.1815,5.23027 -3.8578,8.20604 -0.6764,2.97578 -0.8417,6.04292 -0.9059,9.09392 -0.1415,6.7247 0.1962,13.44914 0.3085,20.17439 0.505,30.24513 -3.5458,60.3542 -5.8405,90.51639 -5.5823,73.3762 -6.3841,144.19178 8.7291,216.21137"
       id="path1034"
       sodipodi:nodetypes="cssssssssssssssssssssssssssssssssssssssssssssssssssssssssssssssc" />
  </g>
</svg>
