<?xml version="1.0" encoding="UTF-8" standalone="no"?>
<!-- Created with Inkscape (http://www.inkscape.org/) -->

<svg
   version="1.1"
   id="svg2"
   width="1893"
   height="1024"
   viewBox="0 0 1893 1024"
   sodipodi:docname="frame_0074.svg"
   inkscape:version="1.1.2 (0a00cf5339, 2022-02-04)"
   xmlns:inkscape="http://www.inkscape.org/namespaces/inkscape"
   xmlns:sodipodi="http://sodipodi.sourceforge.net/DTD/sodipodi-0.dtd"
   xmlns:xlink="http://www.w3.org/1999/xlink"
   xmlns="http://www.w3.org/2000/svg"
   xmlns:svg="http://www.w3.org/2000/svg">
  <defs
     id="defs6">
    <inkscape:path-effect
       effect="spiro"
       id="path-effect899"
       is_visible="true"
       lpeversion="1" />
    <inkscape:path-effect
       effect="spiro"
       id="path-effect862"
       is_visible="true"
       lpeversion="1" />
  </defs>
  <sodipodi:namedview
     id="namedview4"
     pagecolor="#ffffff"
     bordercolor="#666666"
     borderopacity="1.0"
     inkscape:pageshadow="2"
     inkscape:pageopacity="0.0"
     inkscape:pagecheckerboard="0"
     showgrid="false"
     inkscape:zoom="0.94803857"
     inkscape:cx="919.7938"
     inkscape:cy="673.49581"
     inkscape:window-width="1850"
     inkscape:window-height="1016"
     inkscape:window-x="70"
     inkscape:window-y="27"
     inkscape:window-maximized="1"
     inkscape:current-layer="g8" />
  <g
     inkscape:groupmode="layer"
     inkscape:label="Image"
     id="g8">
    
    <path
       style="font-variation-settings:normal;opacity:1;vector-effect:none;fill:none;fill-opacity:1;stroke:#c86487;stroke-width:1px;stroke-linecap:butt;stroke-linejoin:miter;stroke-miterlimit:4;stroke-dasharray:none;stroke-dashoffset:0;stroke-opacity:1;-inkscape-stroke:none;stop-color:#000000;stop-opacity:1"
       d="M 1160.9225,862.55956 635.52937,862.4192"
       id="path860"
       inkscape:path-effect="#path-effect862"
       inkscape:original-d="M 1160.9225,862.55956 635.52937,862.4192" />
    <path
       style="font-variation-settings:normal;opacity:1;vector-effect:none;fill:none;fill-opacity:1;stroke:#c86487;stroke-width:1px;stroke-linecap:butt;stroke-linejoin:miter;stroke-miterlimit:4;stroke-dasharray:none;stroke-dashoffset:0;stroke-opacity:1;-inkscape-stroke:none;stop-color:#000000;stop-opacity:1"
       d="m 635.52937,862.4192 c -14.12149,-62.63679 -21.78419,-126.72776 -22.8273,-190.92819 -1.00373,-61.77651 4.13261,-123.73267 16.77668,-184.20971 4.99276,-23.88053 11.2286,-47.72832 22.18904,-69.52456 9.53978,-18.97108 22.59153,-36.25887 29.64893,-56.28641 7.28149,-20.66348 7.90058,-43.51511 17.50293,-63.2076 4.79583,-9.8353 11.66808,-18.50872 16.96091,-28.08573 2.64641,-4.7885 4.90399,-9.82773 6.21794,-15.13874 1.31394,-5.31101 1.66132,-10.91526 0.51124,-16.26415 -1.49278,-6.94275 -5.39483,-13.10782 -7.75269,-19.80638 -3.5863,-10.18848 -3.4752,-21.50225 -0.50796,-31.88792 2.96724,-10.38567 8.69255,-19.86727 15.86568,-27.94272 10.47699,-11.79492 23.84297,-20.56459 36.75553,-29.62843 5.51702,-3.87262 11.02735,-7.85101 17.18522,-10.59243 6.15786,-2.74143 13.10869,-4.18687 19.69081,-2.73415 4.79844,1.05905 9.19031,3.61905 12.82214,6.92911 5.28415,4.81599 8.96841,11.10583 12.35469,17.40259 3.38627,6.29676 6.5992,12.76815 11.1859,18.25251 8.41254,10.05896 20.7273,15.98487 30.34841,24.89485 9.40039,8.70557 15.96174,20.00421 21.81069,31.40351 0.96305,1.87694 1.95697,3.82013 3.59504,5.14944 0.81904,0.66466 1.79411,1.15743 2.83695,1.31582 1.04283,0.15839 2.15392,-0.0356 3.02691,-0.6276 0.84465,-0.57279 1.42673,-1.49019 1.68383,-2.47783 0.2571,-0.98764 0.2042,-2.04025 -0.0508,-3.02842 -0.51007,-1.97635 -1.77885,-3.65406 -2.97819,-5.30563 -8.68769,-11.96352 -15.10355,-25.38814 -22.37223,-38.26324 -7.26868,-12.8751 -15.63276,-25.48362 -27.2403,-34.64151 -3.45057,-2.72237 -7.18478,-5.13826 -10.17112,-8.36309 -1.49317,-1.61241 -2.7903,-3.42633 -3.66525,-5.44224 -0.87496,-2.0159 -1.3166,-4.24235 -1.09475,-6.42872 0.26072,-2.56951 1.40563,-4.95105 2.20963,-7.40542 0.402,-1.22718 0.7222,-2.49064 0.79902,-3.7797 0.0768,-1.28906 -0.0986,-2.61025 -0.64949,-3.77821 -0.67652,-1.43441 -1.89625,-2.574596 -3.30167,-3.309441 -1.40542,-0.734846 -2.98931,-1.08368 -4.57199,-1.185312 -3.16537,-0.203264 -6.3061,0.55051 -9.46806,0.801225 -4.33167,0.343463 -8.83644,-0.306551 -12.59151,-2.493056 -1.87753,-1.093252 -3.54577,-2.562709 -4.79453,-4.340603 -1.24877,-1.777895 -2.07011,-3.867035 -2.27799,-6.029699 -0.24713,-2.57098 0.37702,-5.185743 1.55564,-7.483971 1.17863,-2.298227 2.89386,-4.293052 4.84025,-5.990865 3.89279,-3.395627 8.64875,-5.604348 13.11042,-8.207722 3.07325,-1.793235 6.15016,-3.834612 9.67285,-4.335875 1.76134,-0.250632 3.60991,-0.08727 5.21885,0.671963 1.60895,0.759232 2.95291,2.151569 3.45897,3.857161 0.36346,1.224974 0.28822,2.547642 -0.0181,3.788143 -0.3063,1.240501 -0.83477,2.413517 -1.37755,3.570261 -0.54277,1.156745 -1.10478,2.310563 -1.48425,3.530672 -0.37947,1.220109 -0.57176,2.521455 -0.35619,3.780896 0.31482,1.839307 1.49154,3.458546 2.9854,4.576814 1.49387,1.118268 3.28635,1.776643 5.10329,2.201949 3.63389,0.850613 7.51695,0.846369 10.88918,2.445349 2.53207,1.200611 4.62156,3.272876 5.94448,5.743251 1.32291,2.470374 1.88901,5.322502 1.72497,8.11999 -0.17377,2.9634 -1.136,5.81555 -1.737,8.72256 -0.3005,1.45351 -0.51175,2.93287 -0.48589,4.41689 0.0259,1.48402 0.29502,2.97735 0.92007,4.32357 0.77576,1.67083 2.07846,3.06324 3.58725,4.12014 1.50879,1.0569 3.22094,1.79397 4.97253,2.36442 4.53082,1.47558 9.51936,1.85233 14.05706,0.39804 3.94619,-1.26472 7.35131,-3.82984 10.35668,-6.68285 3.00537,-2.85301 5.69001,-6.03103 8.71935,-8.85857 10.15905,-9.48229 23.56944,-14.511979 36.56464,-19.435884 23.36159,-8.851748 46.63949,-18.114163 68.65355,-29.925108 31.8391,-17.082261 60.6792,-39.302945 92.3425,-56.7088931 3.3108,-1.8200327 6.7844,-3.62574064 10.5557,-3.8530446 1.8856,-0.11365198 3.8181,0.18834011 5.5035,1.0415137 1.6854,0.8531735 3.1067,2.2822282 3.7869,4.0445844 0.7822,2.0268139 0.5468,4.3107733 -0.024,6.4069656 -0.5708,2.096192 -1.4607,4.097328 -1.987,6.205135 -1.4709,5.890638 0.02,12.174658 2.6224,17.660009 2.6027,5.485351 6.2691,10.383728 9.4753,15.539675 9.8578,15.852714 15.2833,33.986463 20.7588,51.833147 4.3282,14.10716 8.7544,28.18583 12.8127,42.37297 8.9962,31.44898 16.172,63.38534 23.2666,95.31708 8.7623,39.43775 17.4463,79.19652 18.4305,119.58396 0.5084,20.86107 -1.0454,41.72177 -0.9155,62.58863 0.1299,20.86686 2.0065,42.00184 9.1054,61.62449 1.5947,4.40805 3.4539,8.74553 4.459,13.32416 1.005,4.57863 1.101,9.51235 -0.7712,13.8099 -1.6615,3.81401 -4.7402,6.84153 -8.0716,9.3333 -3.3315,2.49178 -6.9743,4.54382 -10.3067,7.03432 -8.7345,6.5278 -15.0628,15.91166 -19.1511,26.02055 -4.0882,10.10888 -6.0508,20.95765 -7.1867,31.80261 -2.1734,20.75098 -1.4074,41.68024 -1.0503,62.54167 1.2227,71.43279 -2.3885,142.94792 -10.8007,213.89419"
       id="path897"
       inkscape:path-effect="#path-effect899"
       inkscape:original-d="m 635.52937,862.4192 c -7.6081,-63.64173 -15.2172,-127.28446 -22.8273,-190.92819 -7.6101,-63.64373 11.18546,-122.80548 16.77668,-184.20971 5.59123,-61.40424 14.79369,-46.34871 22.18904,-69.52456 7.39534,-23.17586 19.76695,-37.52327 29.64893,-56.28641 9.88198,-18.76313 11.66962,-42.1374 17.50293,-63.2076 5.8333,-21.0702 15.79439,-39.65808 23.69009,-59.48862 7.8957,-19.83054 -5.16746,-13.20325 -7.75269,-19.80638 -2.58523,-6.60313 10.23948,-39.88609 15.35772,-59.83064 5.11824,-19.94455 24.50469,-19.75129 36.75553,-29.62843 12.25084,-9.87714 24.58502,-8.88339 36.87603,-13.32658 12.29101,-4.44319 8.54909,4.62041 12.82214,6.92911 4.27304,2.30871 15.69473,23.77107 23.54059,35.6551 7.84587,11.88403 20.23328,16.59757 30.34841,24.89485 10.11514,8.29729 14.54146,20.93668 21.81069,31.40351 7.26923,10.46684 6.30693,3.89277 9.4589,5.83766 3.15197,1.94489 -0.89579,-7.20692 -1.34519,-10.81188 -0.44939,-3.60496 -33.07402,-48.60217 -49.61253,-72.90475 -16.53852,-24.30259 -9.95308,-13.48837 -14.93112,-20.23405 -4.97804,-6.74568 1.57377,-9.97455 2.35916,-14.96333 0.78538,-4.988771 -11.56015,-2.46135 -17.34172,-3.693528 -5.78158,-1.232177 -13.10836,-8.574572 -19.66403,-12.863358 -6.55568,-4.288786 13.0052,-14.454038 19.50631,-21.682558 6.5011,-7.228519 12.23478,0.129833 18.35067,0.193249 6.11588,0.06342 -2.15638,9.780981 -3.23607,14.669972 -1.07969,4.888991 12.65292,6.150408 18.97787,9.224112 6.32496,3.073704 5.11397,9.243163 7.66945,13.863241 2.55549,4.62008 -0.86755,11.64302 -1.30282,17.46302 -0.43528,5.82001 5.70752,4.32404 8.55978,6.48456 2.85226,2.16052 9.37238,0.26636 14.05706,0.39804 4.68469,0.13168 12.71835,-10.35995 19.07603,-15.54142 6.35767,-5.18147 24.37743,-12.956255 36.56464,-19.435884 12.18722,-6.479629 45.77003,-19.949109 68.65355,-29.925108 22.8836,-9.976036 -400.51952,24.139617 92.3425,-56.7088931 39.4776,-6.4758567 17.1368,-0.2072508 19.8461,1.2330535 2.7094,1.4403043 -1.3397,8.4090666 -2.0111,12.6121006 -0.6714,4.203033 8.0661,22.134123 12.0977,33.199684 4.0316,11.065562 13.8402,34.556431 20.7588,51.833147 6.9186,17.27671 8.5428,28.24965 12.8127,42.37297 4.2699,14.12332 15.512,63.54572 23.2666,95.31708 7.7545,31.77136 12.288,79.72364 18.4305,119.58396 6.1426,39.86032 5.4609,82.80974 8.1899,124.21312 2.729,41.40337 2.4595,18.09037 3.6878,27.13406 1.2282,9.04369 -12.2512,10.91275 -18.3783,16.36762 -6.127,5.45488 -17.5575,38.54977 -26.3378,57.82316 -8.7803,19.27338 -0.6992,41.69545 -1.0503,62.54167 -0.3511,20.84623 -7.1995,142.59713 -10.8007,213.89419"
       sodipodi:nodetypes="csssssssssssssssssssssssssssssssssssssssssssssc" />
  </g>
</svg>
